**ABCDEFGHIJKLMNOPQRSTUVWXYZabcdefghijklmnopqrstuvwxyz**************************
**PARASOLID !"#$%&'()*+,-./:;<=>?@[\]^_`{|}~0123456789**************************
**PART1;
MC=unknown;
MC_MODEL=unknown;
MC_ID=unknown;
OS=unknown;
OS_RELEASE=unknown;
FRU=Parasolid 28.1.228;
APPL=Onshape;
SITE=unknown;
USER=unknown;
FORMAT=text;
GUISE=transmit;
KEY=BTGapi::writeModels_.xmt;
FILE=BTGapi::writeModels_.xmt;
DATE=2016-04-23T18:06:08 (UTC);
**PART2;
SCH=SCH_2801228_28101;
USFLD_SIZE=0;
**PART3;
**END_OF_HEADER*****************************************************************
T51 : TRANSMIT FILE created by modeller version 280122823 SCH_2801228_28101_1300
6203 0 12 33 CCCCCCI4 mesh1006 0 I8 polyline1008 0 CCCCCCCDI5 owner1040 0 CCCCCC
I13 boundary_mesh1006 0 I17 boundary_polyline1008 0 CCCA16 index_map_offset0 0 1
 dA9 index_map82 0 A17 node_id_index_map82 0 A20 schema_embedding_map82 0 A5 chi
ld12 0 A14 lowest_node_id0 0 1 dZ1 6593 2 3 0 0 0 0 0 0 1e3 1e-8 0 4 5 1 0 1 1 6
 7 8 9 0 0 10 11 12 0 0 0 0 0 0 81 255 1 2 6555 13 1 14 0 0 0 15 70 11 CI9 list_
type0 0 1 uI10 notransmit0 0 1 lCCCDCCDI12 finger_index0 0 1 dI12 finger_block10
12 0 CZ3 0 4 T1 0 0 4 20 1 16 16 13 255 6 369 0 1 0 17 0 0 18 0 51 255 7 6517 0
 19 20 0 0 +-.0095 .0033 .0625 183697019872103e-30 -1 0 .002 1 183697019872103e-
30 0 30 255 8 6465 0 11 21 0 0 +-.0115 -.0111 .0625 -183697019872103e-30 1 0 29
 255 9 6450 0 12 22 0 -.0115 -.0171 .0625 19 8 CCCCCCCA5 owner12 0 Z10 155 0 1 1
8 0 23 V0 16 255 11 6463 24 ?25 0 26 8 0 0 1 18 255 12 6446 27 28 0 29 9 ?1 81 1
 27 6526 30 12 0 0 31 32 33 17 255 28 0 34 35 36 12 37 38 0 39 +18 29 6435 40 41
 12 42 22 ?1 81 1 40 6530 30 29 0 0 43 44 45 17 41 0 46 47 48 29 49 50 0 51 +18
 42 6418 31 52 29 53 54 ?1 29 22 6439 0 29 54 9 -5e-4 -.0171 .0625 29 54 6422 0
 42 55 22 -.0115 -.0111 .0625 29 55 6417 0 53 56 54 -5e-4 -.0111 .0625 18 53 641
3 43 57 42 58 55 ?1 29 56 6400 0 58 59 55 -.0095 -.0111 .0645 18 58 6396 32 60 5
3 61 56 ?1 29 59 6395 0 61 62 56 -.0025 -.0111 .0645 18 61 6391 44 63 58 64 59 ?
1 29 62 6390 0 64 65 59 -.0095 -.0171 .0645 18 64 6386 66 67 61 68 62 ?1 29 65 6
385 0 68 69 62 -.0025 -.0171 .0645 18 68 6381 70 71 64 72 65 ?1 29 69 5846 0 72
 73 65 -5e-4 -.0051 .0435 18 72 5841 74 75 68 76 69 ?1 29 73 5065 0 76 77 69 -.0
02 -.0071 .0135 18 76 5060 78 79 72 80 73 ?1 29 77 4552 0 80 81 73 -.01 -.0171 .
04535 18 80 4548 82 83 76 84 77 ?1 29 81 4547 0 84 85 77 -.01 -.0089178679882308
4 .04535 18 84 4543 86 87 80 88 81 ?1 29 85 4530 0 88 89 81 -.009 -.011099999999
999 .05085 18 88 4526 90 91 84 92 85 ?1 29 89 4525 0 92 93 85 -.009 -.0171 .0463
5 18 92 4521 94 95 88 96 89 ?1 29 93 4520 0 96 97 89 -.009 -.0171 .05085 18 96 4
516 98 99 92 100 93 ?1 29 97 4515 0 100 101 93 -.009 -.00978931089083471 .04635
 18 100 4511 102 103 96 104 97 ?1 29 101 4504 0 104 105 97 -.01 -.01109999999999
9 .05185 18 104 4500 106 107 100 108 101 ?1 29 105 4499 0 108 109 101 -.01 -.017
1 .05185 18 108 4495 110 111 104 112 105 ?1 29 109 3473 0 112 113 105 -.00335 -.
0171 .05415 18 112 3469 114 115 108 116 109 ?1 29 113 3468 0 116 117 109 -.00565
 -.0171 .05415 18 116 3464 118 119 112 120 113 ?1 29 117 3463 0 120 121 113 -.00
335 -.0111 .05415 18 120 3459 122 123 116 124 117 ?1 29 121 3458 0 124 125 117 -
.00565 -.0111 .05415 18 124 3454 126 127 120 128 121 ?1 29 125 3441 0 128 129 12
1 -.00285 -.0171 .04805 18 128 3437 130 131 124 132 125 ?1 29 129 3436 0 132 133
 125 -.00285 -.0171 .05365 18 132 3432 134 135 128 136 129 ?1 29 133 3431 0 136
 137 129 -.00285 -.01068362737368292 .04805 18 136 3427 138 139 132 140 133 ?1 2
9 137 3426 0 140 141 133 -.00285 -.0111 .05365 18 140 3422 142 143 136 144 137 ?
1 29 141 3409 0 144 145 137 -.00615 -.0111 .05365 18 144 3405 146 147 140 148 14
1 ?1 29 145 3404 0 148 149 141 -.00615 -.01068362737368292 .04805 18 148 3400 15
0 151 144 152 145 ?1 29 149 3399 0 152 153 145 -.00615 -.0171 .04805 18 152 3395
 154 155 148 156 149 ?1 29 153 3394 0 156 157 149 -.00615 -.0171 .05365 18 156 3
390 158 159 152 160 153 ?1 29 157 3377 0 160 161 153 -.00335 -.01048090480772372
 .04755 18 160 3373 162 163 156 164 157 ?1 29 161 3372 0 164 165 157 -.00565 -.0
1048090480772372 .04755 18 164 3368 166 167 160 168 161 ?1 29 165 3367 0 168 169
 161 -.00335 -.0171 .04755 18 168 3363 170 171 164 172 165 ?1 29 169 3362 0 172
 173 165 -.00565 -.0171 .04755 18 172 3358 174 175 168 176 169 ?1 29 173 2877 0
 176 177 169 -.00285 -.0111 .0504282032302755 18 176 2872 178 179 172 180 173 ?1
 29 177 1191 0 180 181 173 -.0115 -.0171 .0155 18 180 1187 182 183 176 184 177 ?
1 29 181 1186 0 184 185 177 -.0115 -.0051 .0155 18 184 1182 186 187 180 188 181
 ?1 29 185 1159 0 188 189 181 -.0115 -.0071 .0135 18 188 1155 190 191 184 192 18
5 ?1 29 189 1154 0 192 193 185 -.0115 -.0151 .0135 18 192 1150 194 195 188 196 1
89 ?1 29 193 588 0 196 197 189 -.0035 -.0051 .0260166852264521 18 196 586 198 19
9 192 200 193 ?1 29 197 330 0 200 201 193 -.0115 -.0051 .0435 18 200 304 202 203
 196 204 197 ?1 29 201 816 0 204 205 197 -.0035 -.0171 .0278431457505076 18 204
 722 206 207 200 208 201 ?1 29 205 817 0 208 209 201 -.0035 -.0171 .039156854249
4924 18 208 716 210 211 204 212 205 ?1 29 209 818 0 212 213 205 -.0035 -.0051 .0
409833147735479 18 212 710 214 215 208 216 209 ?1 29 213 3155 0 216 217 209 -.00
615 -.0111 .0504282032302755 18 216 3050 218 219 212 220 213 ?1 29 217 4278 0 22
0 221 213 -.0115 -.0171 .05185 18 220 4210 222 35 216 223 217 ?1 29 221 4279 0 2
23 224 217 -.0115 -.0171 .04535 18 223 4198 225 226 220 227 221 ?1 29 224 4284 0
 227 228 221 -.009 -.0111 .0504282032302755 18 227 4192 229 230 223 231 224 ?1 2
9 228 4286 0 231 232 224 -.0115 -.011099999999999 .05185 18 231 4201 233 234 227
 235 228 ?1 29 232 4287 0 235 236 228 -.0115 -.00891786798820249 .04535 18 235 4
207 237 238 231 239 232 ?1 29 236 5414 0 239 240 232 -.002 -.0171 .0278431457505
076 18 239 5293 241 242 235 243 236 ?1 29 240 5415 0 243 244 236 -.002 -.0051 .0
260166852264521 18 243 5323 245 246 239 247 240 ?1 29 244 5416 0 247 248 240 -.0
02 -.0051 .0155 18 247 5317 249 250 243 251 244 ?1 29 248 5418 0 251 252 244 -.0
02 -.0151 .0135 18 251 5305 253 254 247 255 248 ?1 29 252 5419 0 255 256 248 -.0
02 -.0171 .0155 18 255 5299 257 258 251 259 252 ?1 29 256 6162 0 259 260 252 -5e
-4 -.0171 .0391568542494924 18 259 6052 261 47 255 262 256 ?1 29 260 6165 0 262
 263 256 -5e-4 -.0111 .0504282032302755 18 262 6070 264 265 259 266 260 ?1 29 26
3 6167 0 266 0 260 -5e-4 -.0051 .0409833147735479 18 266 6058 267 268 262 0 263
 ?1 81 1 267 6176 30 266 0 0 261 264 269 17 268 0 46 75 47 266 270 271 0 272 -15
 255 46 6122 0 48 273 0 17 75 0 46 265 268 72 272 274 0 275 -17 47 0 46 268 41 2
59 51 276 0 270 +17 270 0 277 211 278 259 268 271 0 279 +16 271 6016 280 ?270 27
4 0 281 0 0 1 17 272 0 282 283 284 266 75 274 0 278 +15 282 584 0 284 285 0 17 2
83 0 282 286 272 212 278 287 0 0 -17 284 0 282 272 288 72 203 289 0 0 -16 274 60
28 290 ?272 291 271 292 0 0 1 17 278 0 277 270 215 266 283 287 0 0 +15 277 737 0
 278 293 0 17 215 0 277 278 211 212 294 295 0 296 -16 287 642 297 ?278 298 299 3
00 0 0 1 81 1 297 6188 30 287 0 0 301 302 303 16 298 2059 304 ?305 306 287 307 0
 0 1 16 299 652 301 ?279 287 308 309 0 0 1 30 300 801 0 287 309 307 0 +-.0035 -.
0051 .0409833147735479 1 183697019872103e-30 0 30 309 802 0 299 310 300 0 +-.003
5 -.0171 .0391568542494924 1 183697019872103e-30 0 30 307 327 0 298 300 311 0 +-
.0115 -.0111 .0576942088603973 337445951098918e-46 -183697019872103e-30 1 30 311
 326 0 306 307 312 0 +-.0115 -.0051 .03323703311615615 -1124819836996392e-47 612
323399573677e-31 -1 16 306 278 313 ?314 315 298 311 0 0 1 30 312 324 0 316 311 3
17 0 +-.0115 -.0171 .03323703311615615 -1124819836996392e-47 612323399573677e-31
 -1 16 316 6447 318 ?35 319 315 312 315 315 1 30 317 323 0 319 312 320 0 +-.0115
 -.01434040482096474 .0135 -183697019872103e-30 1 1224646799147352e-31 16 319 11
51 321 ?322 323 316 317 0 0 1 31 255 320 322 0 323 317 324 0 +-.0115 -.01095 .01
765 -1 -183697019872103e-30 0 183697019872103e-30 -1 0 .00165 16 323 258 325 ?32
6 289 319 320 0 0 1 30 324 363 0 327 320 328 0 +.0015 -.0111 .0645 -1 -183697019
872103e-30 0 16 327 6392 329 ?330 331 332 324 0 0 1 30 328 364 0 332 324 333 0 +
.0015 -.0171 .0645 -1 -183697019872103e-30 0 16 332 6382 334 ?36 327 289 328 0 0
 1 30 333 365 0 289 328 335 0 +.0015 -.0051 .0435 -1 -183697019872103e-30 0 16 2
89 336 302 ?203 332 323 333 0 0 1 30 335 1172 0 331 333 336 0 -.0015 -.0071 .013
5 -1 -183697019872103e-30 0 16 331 1170 337 ?338 339 327 335 0 0 1 30 336 1178 0
 339 335 340 0 +.0015 -.0151 .0135 -1 -183697019872103e-30 0 16 339 1176 341 ?19
5 342 331 336 0 0 1 31 340 1194 0 342 336 343 0 --.0115 -.0071 .0155 1 183697019
872103e-30 0 -183697019872103e-30 1 0 .002 16 342 1192 344 ?191 345 339 340 0 0
 1 31 343 1200 0 345 340 346 0 --.0115 -.0151 .0155 1 183697019872103e-30 0 -183
697019872103e-30 1 0 .002 16 345 1198 347 ?348 349 342 343 0 0 1 30 346 1211 0 3
49 343 350 0 -.0015 -.0171 .0155 -1 -183697019872103e-30 0 16 349 1209 351 ?352
 353 345 346 0 0 1 30 350 1234 0 353 346 354 0 +-.0115 -.0051 .0155 -1 -18369701
9872103e-30 0 16 353 1232 355 ?187 356 349 350 0 0 1 30 354 2070 0 357 350 358 0
 +.0015 -.0111 .0504282032302755 -1 -183697019872103e-30 0 16 357 2068 359 ?179
 360 361 354 361 361 1 31 358 2084 0 360 354 362 0 +-.0115 -.0041 .0504282032302
755 1 183697019872103e-30 0 -183697019872103e-30 1 0 .007 16 360 2074 363 ?364 3
65 357 358 0 0 1 31 362 2881 0 365 358 366 0 --.00285 -.0041 .0504282032302755 -
1 -183697019872103e-30 -612323399573677e-31 183697019872103e-30 -1 0 .007 16 365
 2879 367 ?368 369 360 362 0 0 1 30 366 2885 0 369 362 370 0 -.0015 -.0104809048
0772372 .04755 -1 -183697019872103e-30 0 16 369 3369 371 ?372 373 365 366 0 0 1
 31 370 2888 0 373 366 374 0 --.00615 -.0041 .0504282032302755 -1 -1836970198721
03e-30 -612323399573677e-31 183697019872103e-30 -1 0 .007 16 373 2886 375 ?376 3
77 369 370 0 0 1 30 374 3380 0 377 370 378 0 --.00335 -.0051 .04755 183697019872
103e-30 -1 -612323399573677e-31 16 377 3378 379 ?163 380 373 374 0 0 1 30 378 33
86 0 380 374 381 0 +-.00565 -.0171 .04755 183697019872103e-30 -1 -61232339957367
7e-31 16 380 3384 382 ?383 384 377 378 0 0 1 30 381 3412 0 384 378 385 0 +-.0061
5 -.0051 .05365 183697019872103e-30 -1 -612323399573677e-31 16 384 3410 386 ?387
 388 380 381 0 0 1 30 385 3418 0 388 381 389 0 --.00615 -.01048090480772372 .048
05 183697019872103e-30 -1 -612323399573677e-31 16 388 3416 390 ?151 391 384 385
 0 0 1 30 389 3444 0 391 385 392 0 --.00285 -.0111 .05365 183697019872103e-30 -1
 -612323399573677e-31 16 391 3442 393 ?143 394 388 389 0 0 1 30 392 3450 0 394 3
89 395 0 +-.00285 -.0051 .04805 183697019872103e-30 -1 -612323399573677e-31 16 3
94 3448 396 ?397 398 391 392 0 0 1 30 395 3476 0 398 392 399 0 +-.00335 -.0171 .
05415 183697019872103e-30 -1 -612323399573677e-31 16 398 3474 400 ?401 402 394 3
95 0 0 1 30 399 3482 0 402 395 403 0 --.00565 -.0051 .05415 183697019872103e-30
 -1 -612323399573677e-31 16 402 3480 404 ?127 405 398 399 0 0 1 31 403 3526 0 40
5 399 406 0 +-.00565 -.0171 .04805 -183697019872103e-30 1 612323399573677e-31 -1
 -183697019872103e-30 0 5e-4 16 405 3486 407 ?155 408 402 403 0 0 1 38 255 406 3
527 0 408 403 409 0 +410 411 412 413 414 16 408 3491 415 ?167 416 405 406 0 0 1
 31 409 3528 0 416 406 417 0 +-.00335 -.0171 .04805 -183697019872103e-30 1 61232
3399573677e-31 -1 -183697019872103e-30 0 5e-4 51 410 2107 0 418 419 411 420 +.00
15 -.0041 .0504282032302755 -1 -183697019872103e-30 0 .007 183697019872103e-30 -
1 0 51 411 3573 0 421 410 422 423 +-.00565 -.0051 .04805 -183697019872103e-30 1
 612323399573677e-31 5e-4 -1 -183697019872103e-30 0 40 255 6 412 0 1 6 343831305
735445e-19 .3684779930639685 ??-.00615 -.01068362737368292 .04805 -.006118198032
38233 -.01061757164925942 .0478745274879837 -.00602593647890162 -.01055503750466
584 .0477203459937585 -.00588460021139992 -.01050695053079954 .0476084541464229
 -.00572165779467585 -.01048323045985144 .0475551614804179 -.00565 -.01048090480
772372 .04755 41 3 CI8 term_use0 0 1 cCZ1 413 L?-.00615 -.01068362737368292 .048
05 41 1 414 L?-.00565 -.01048090480772372 .04755 14 255 421 3561 424 ?425 426 42
7 6 411 -0 0 425 426 23 51 422 3594 0 425 411 428 429 +-.00335 -.0051 .04805 183
697019872103e-30 -1 -612323399573677e-31 5e-4 1 183697019872103e-30 0 141 255 42
3 406 423 423 411 14 425 3582 430 ?431 421 432 6 422 -0 0 431 421 23 51 428 3615
 0 431 422 433 0 +-.00565 -.0051 .05365 183697019872103e-30 -1 -612323399573677e
-31 5e-4 1 183697019872103e-30 0 141 429 417 429 429 422 38 417 3529 0 434 409 4
35 0 +410 422 436 437 438 16 434 3501 439 ?139 440 416 417 0 0 1 31 435 3530 0 4
40 417 441 0 +-.00565 -.0171 .05365 -183697019872103e-30 1 612323399573677e-31 -
1 -183697019872103e-30 0 5e-4 40 6 436 0 1 6 2819177576406875e-20 .3433486547841
675 ??-.00335 -.01048090480772372 .04755 -.003194831464840385 -.0104919827484305
 .0475746867078479 -.00305734776658745 -.0105227342480733 .047644593203956 -.002
94614496301254 -.01056955234218438 .0477552100593645 -.00287165097073576 -.01062
922006462392 .0479044589191948 -.00285 -.01068362737368292 .04805 41 1 437 L?-.0
0335 -.01048090480772372 .04755 41 1 438 L?-.00285 -.01068362737368292 .04805 16
 440 3506 442 ?119 443 434 435 0 0 1 31 441 3531 0 443 435 444 0 +-.00565 -.0111
 .05365 183697019872103e-30 -1 -183697019872103e-30 0 183697019872103e-30 -1 5e-
4 16 443 3511 445 ?147 446 440 441 0 0 1 31 444 3532 0 446 441 447 0 +-.00335 -.
0171 .05365 -183697019872103e-30 1 612323399573677e-31 -1 -183697019872103e-30 0
 5e-4 16 446 3516 448 ?135 449 443 444 0 0 1 31 447 3533 0 449 444 450 0 +-.0033
5 -.0111 .05365 183697019872103e-30 -1 -183697019872103e-30 0 183697019872103e-3
0 -1 5e-4 16 449 3521 451 ?123 452 446 447 0 0 1 30 450 4507 0 452 447 453 0 +-.
01 -.01710000000002765 .05185 183697019872103e-30 -1 -612323399573677e-31 16 452
 4505 454 ?455 456 449 450 0 0 1 30 453 4533 0 456 450 457 0 +-.0090000000000918
5 5e2 .0463500000000306 183697019872103e-30 -1 -612323399573677e-31 16 456 4531
 458 ?459 460 452 453 0 0 1 30 457 4539 0 460 453 461 0 --.009 -.011099999999999
 .05085 183697019872103e-30 -1 -612323399573677e-31 16 460 4537 462 ?91 463 456
 457 0 0 1 30 461 4555 0 463 457 464 0 --.01000000000009184 5e2 .045350000000030
6 183697019872103e-30 -1 -612323399573677e-31 16 463 4553 465 ?87 466 460 461 0
 0 1 31 464 4579 0 466 461 467 0 +-.01 -.01710000000002765 .05085 -1836970198721
03e-30 1 612323399573677e-31 -1 -183697019872103e-30 0 .001 16 466 4559 468 ?99
 469 463 464 0 0 1 31 467 4580 0 469 464 470 0 +-.01 -.011099999999999 .05085 18
3697019872103e-30 -1 -183697019872103e-30 0 183697019872103e-30 -1 .001 16 469 4
564 471 ?107 472 466 467 0 0 1 31 470 4581 0 472 467 473 0 +-.01 -.0171000000000
2765 .04635 -183697019872103e-30 1 612323399573677e-31 -1 -183697019872103e-30 0
 .001 16 472 4569 474 ?83 475 469 470 0 0 1 38 473 4582 0 475 470 476 0 +410 477
 478 479 480 16 475 4574 481 ?103 482 472 473 0 0 1 30 476 6403 0 482 473 483 0
 --.0095 -.0171 .0645 -183697019872103e-30 1 0 51 477 4631 0 484 485 20 486 +-.0
1000000000009184 5e2 .0463500000000306 183697019872103e-30 -1 -612323399573677e-
31 .001 1 183697019872103e-30 0 40 6 478 0 1 6 861784454470276e-19 .372913087213
5585 ??-.01 -.00891786798823084 .04535 -.00973816406028199 -.00895437611584862 .
0453848876020525 -.00950936868724735 -.00904992443246536 .0454786327324563 -.009
24913364664925 -.00925219622880761 .0456895458233869 -.00904818308118309 -.00955
645621570814 .0460433331562528 -.009 -.00978931089083471 .04635 41 1 479 L?-.01
 -.00891786798823084 .04535 41 1 480 L?-.009 -.00978931089083471 .04635 14 484 4
619 487 ?488 489 490 6 477 -0 0 488 489 23 51 485 4610 0 489 433 477 0 +-.010000
00000009184 5e2 .0508500000000306 -183697019872103e-30 1 612323399573677e-31 .00
1 -1 -183697019872103e-30 0 51 20 6496 0 491 477 7 0 +-.0025 -.01360504151806236
 .0625 -183697019872103e-30 1 0 .002 -1 -183697019872103e-30 0 141 486 473 486 4
86 477 14 491 6484 492 ?19 273 493 6 20 +0 0 19 273 23 81 1 492 6592 494 491 495
 0 496 497 498 14 19 6505 497 ?0 491 499 6 7 +0 0 0 491 23 14 273 6118 496 ?491
 488 46 6 500 +0 0 491 488 23 15 493 6485 0 501 491 0 13 23 156 0 0 0 0 0 0 10 1
7 14 17 349 502 ?503 0 504 6 505 -0 0 503 0 23 81 1 502 6556 494 17 506 0 0 507
 508 14 503 355 507 ?509 17 510 6 511 -0 0 509 17 23 15 504 2902 0 512 17 34 50
 255 505 359 0 17 513 514 0 +.0015 -.0171 .03323703311615615 -183697019872103e-3
0 1 612323399573677e-31 -1 -183697019872103e-30 0 50 513 358 0 515 516 505 0 +.0
015 -.01434040482096474 .0135 2249639673992785e-47 -1224646799147352e-31 1 0 -1
 -1224646799147352e-31 50 514 361 0 285 505 511 0 +.0015 -.0051 .033237033116156
15 -183697019872103e-30 1 612323399573677e-31 -1 -183697019872103e-30 0 14 285 3
53 517 ?418 509 282 6 514 +0 0 418 509 23 50 511 362 0 503 514 518 0 +.0015 -.01
11 .0576942088603973 183697019872103e-30 -1 -183697019872103e-30 0 1836970198721
03e-30 -1 51 518 1265 0 519 511 419 0 +.0015 -.0151 .0155 -1 -183697019872103e-3
0 0 .002 183697019872103e-30 -1 0 14 519 1253 520 ?521 522 523 6 518 +0 0 521 52
2 23 51 419 1286 0 521 518 410 0 +.0015 -.0071 .0155 1 183697019872103e-30 0 .00
2 -183697019872103e-30 1 0 14 521 1274 524 ?525 519 526 6 419 +0 0 525 519 23 81
 1 524 6570 494 521 527 0 520 528 529 14 525 1455 528 ?530 521 531 6 532 -0 0 53
0 521 23 15 526 5073 0 533 521 0 17 533 0 526 534 535 76 250 536 0 338 -17 534 0
 526 537 533 188 338 331 0 0 -17 535 0 526 533 537 247 187 353 0 0 -17 250 0 538
 246 79 247 533 536 0 539 +16 536 5209 540 ?250 541 542 543 0 0 1 17 338 0 544 5
45 322 76 534 331 0 0 +15 544 5121 0 545 515 0 17 545 0 544 195 338 251 79 542 0
 546 -17 322 0 544 338 195 188 547 319 0 534 +17 195 0 544 322 545 192 546 339 0
 548 +17 547 0 549 348 191 192 322 319 0 0 -15 549 4062 0 550 551 0 17 348 0 549
 552 547 180 548 345 0 553 +17 191 0 549 547 314 188 537 342 0 322 +17 314 0 549
 191 364 184 288 306 0 0 +17 537 0 526 535 534 184 191 342 0 314 -17 364 0 549 3
14 550 200 554 360 0 288 +17 288 0 282 284 187 200 314 306 0 0 -17 187 0 282 288
 539 184 535 353 0 537 +17 539 0 282 187 555 247 246 541 0 535 +17 555 0 282 539
 286 243 556 557 0 0 +17 246 0 538 242 250 243 539 541 0 558 -16 541 5263 559 ?5
39 560 536 561 0 0 1 81 1 559 5438 30 541 0 0 562 563 564 16 560 5257 565 ?558 5
66 541 567 0 0 1 30 561 5402 0 541 543 567 0 +-.002 -.0051 .03323703311615615 -1
124819836996392e-47 612323399573677e-31 -1 31 543 5403 0 536 568 561 0 +-.002 -.
0071 .0155 1 183697019872103e-30 0 -183697019872103e-30 1 0 .002 31 567 5401 0 5
60 561 569 0 +-.002 -.0101 .0335 1 183697019872103e-30 0 -183697019872103e-30 1
 0 .009 30 569 4277 0 570 567 571 0 +-.009 -.0171 .0488542690873146 612323399573
677e-31 612323399573677e-31 -1 16 570 4517 572 ?573 574 575 569 0 0 1 30 571 427
6 0 574 569 576 0 +-.01036802585050464 -.0171 .04535 1 183697019872103e-30 11248
19836996392e-47 16 574 4139 577 ?578 579 570 571 0 0 1 30 576 4274 0 579 571 580
 0 +-.01036802585050464 -.0171 .05185 1 183697019872103e-30 1124819836996392e-47
 16 579 4161 581 ?582 583 574 576 0 0 1 31 580 4272 0 584 576 585 0 +-.009 -.004
1 .0504282032302755 -1 -183697019872103e-30 -612323399573677e-31 183697019872103
e-30 -1 0 .007 16 584 4512 586 ?230 587 588 580 0 0 1 30 585 4271 0 588 580 589
 0 +-.009 -.011099999999999 .0488542690872534 -612323399573676e-31 -183697019872
103e-30 1 16 588 4173 590 ?591 584 592 585 0 0 1 30 589 4270 0 592 585 593 0 +-.
01036802585050464 -.011099999999999 .05185 -1 -183697019872103e-30 -112481983699
6394e-47 16 592 4501 594 ?234 588 566 589 0 0 1 30 593 4267 0 566 589 595 0 +.00
15 -.00891786798823083 .04535 -1 -183697019872103e-30 0 16 566 4544 596 ?238 592
 560 593 0 0 1 30 595 4266 0 587 593 597 0 +-.01150000000009184 5e2 .05185000000
00306 183697019872103e-30 -1 -612323399573677e-31 16 587 4155 598 ?599 575 584 5
95 0 0 1 30 597 4265 0 575 595 600 0 +-.01150000000009184 5e2 .0453500000000306
 183697019872103e-30 -1 -612323399573677e-31 16 575 4127 601 ?226 570 587 597 0
 0 1 30 600 3149 0 583 597 602 0 +-.00556745217181742 -.0171 .04755 1 1836970198
72103e-30 1124819836996392e-47 16 583 3359 603 ?604 605 579 600 0 0 1 30 602 284
5 0 605 600 606 0 +-.00556745217181742 -.0171 .05415 1 183697019872103e-30 11248
19836996392e-47 16 605 3465 607 ?608 609 583 602 0 0 1 30 606 2844 0 609 602 610
 0 +-.00615 -.0171 .0503033564627171 612323399573677e-31 612323399573677e-31 -1
 16 609 3391 611 ?612 613 605 606 0 0 1 30 610 2842 0 613 606 614 0 +-.00285 -.0
171 .0503740757703781 612323399573677e-31 612323399573677e-31 -1 16 613 3433 615
 ?616 617 609 610 0 0 1 30 614 2837 0 617 610 618 0 +-.00285 -.0111 .05769420886
03973 612323399573676e-31 183697019872103e-30 -1 16 617 3423 619 ?620 621 613 61
4 0 0 1 30 618 2836 0 621 614 622 0 +-.00615 -.0111 .0576942088603973 6123233995
73676e-31 183697019872103e-30 -1 16 621 3406 623 ?219 624 617 618 0 0 1 30 622 2
835 0 624 618 625 0 +.0015 -.0111 .05415 1 183697019872103e-30 1124819836996394e
-47 16 624 3455 626 ?627 628 621 622 0 0 1 31 625 1954 0 628 622 629 0 +-.0055 -
.01095 .01765 -1 -183697019872103e-30 0 183697019872103e-30 -1 0 .00165 16 628 1
899 630 ?631 632 624 625 0 0 1 31 629 1953 0 632 625 633 0 +-.0055 -.01095 .0176
5 1 183697019872103e-30 0 -183697019872103e-30 1 0 .0028 16 632 1905 634 ?635 63
6 628 629 0 0 1 31 633 1706 0 636 629 637 0 +-.0028 -.0101 .0335 1 1836970198721
03e-30 0 -183697019872103e-30 1 0 .0025 16 636 1653 638 ?639 640 632 633 0 0 1 3
1 637 1705 0 640 633 641 0 +-.0028 -.0101 .0335 1 183697019872103e-30 0 -1836970
19872103e-30 1 0 .00375 16 640 1663 642 ?643 644 636 637 0 0 1 31 641 1703 0 356
 637 645 0 +-.0035 -.0101 .0335 1 183697019872103e-30 0 -183697019872103e-30 1 0
 .00375 16 356 1640 646 ?647 361 353 641 0 0 1 31 645 1482 0 648 641 649 0 +-.00
65 -.0101 .0335 1 183697019872103e-30 0 -183697019872103e-30 1 0 .0025 16 648 14
27 650 ?651 652 644 645 0 0 1 31 649 1481 0 652 645 653 0 +-.0065 -.0101 .0335 -
1 -183697019872103e-30 0 183697019872103e-30 -1 0 .00475 16 652 1433 654 ?655 65
6 648 649 0 0 1 31 653 1479 0 644 649 657 0 +-.0115 -.0101 .0335 -1 -18369701987
2103e-30 0 183697019872103e-30 -1 0 .00475 16 644 1443 658 ?659 648 640 653 0 0
 1 30 657 810 0 656 653 660 0 +-.0035 -.0051 .03323703311615615 -112481983699639
2e-47 612323399573677e-31 -1 16 656 680 661 ?286 295 652 657 0 0 1 31 660 809 0
 295 657 662 0 +-.0035 -.0101 .0335 1 183697019872103e-30 0 -183697019872103e-30
 1 0 .009 16 295 648 663 ?294 664 656 660 665 665 1 30 662 808 0 664 660 666 0 +
-.0035 -.0171 .03323703311615615 -1124819836996392e-47 612323399573677e-31 -1 16
 664 658 667 ?207 665 295 662 0 0 1 30 666 804 0 557 662 310 0 +-.0035 -.0051 .0
260166852264521 1 183697019872103e-30 0 16 557 674 668 ?555 308 665 666 0 0 1 30
 310 803 0 308 666 309 0 +-.0035 -.0171 .0278431457505076 1 183697019872103e-30
 0 16 308 664 669 ?670 299 557 310 0 0 1 81 1 669 5440 30 308 0 0 563 668 671 17
 670 0 672 558 673 239 674 308 0 0 +15 672 747 0 670 675 0 17 558 0 672 556 670
 243 242 560 0 555 +17 673 0 672 670 556 204 199 665 0 674 -17 674 0 34 676 677
 204 670 308 0 0 -15 34 5902 0 51 17 0 17 676 0 34 279 674 208 207 664 0 0 -17 6
77 0 34 674 352 239 258 678 0 670 -17 352 0 34 677 183 255 553 349 0 0 +17 258 0
 538 254 242 255 677 678 0 679 +16 678 5173 562 ?258 680 681 682 0 0 1 81 1 562
 5437 30 678 0 0 683 559 684 16 680 5185 685 ?254 542 678 686 0 0 1 16 681 5251
 563 ?687 678 276 688 0 0 1 30 682 5406 0 678 688 686 0 +-.002 -.0171 .033237033
11615615 -1124819836996392e-47 612323399573677e-31 -1 31 688 5407 0 681 689 682
 0 +-.002 -.01095 .01765 1 183697019872103e-30 0 -183697019872103e-30 1 0 .0028
 31 686 5405 0 680 682 568 0 +-.002 -.0151 .0155 1 183697019872103e-30 0 -183697
019872103e-30 1 0 .002 30 568 5404 0 542 686 543 0 +-.002 -.01434040482096474 .0
135 -183697019872103e-30 1 1224646799147352e-31 16 542 5197 683 ?79 536 680 568
 0 0 1 81 1 683 5436 30 542 0 0 540 562 690 17 79 0 538 250 254 76 545 542 0 533
 +15 538 5370 0 258 488 0 17 254 0 538 79 258 251 679 680 0 545 +17 679 0 523 55
3 546 255 254 680 0 352 -15 523 5091 0 679 519 0 17 553 0 523 548 679 180 352 34
9 0 0 -17 546 0 523 679 548 251 195 339 0 0 -17 548 0 523 546 553 192 348 345 0
 547 -14 488 5365 691 ?273 484 692 6 693 +0 0 273 484 23 81 1 691 6590 494 488 6
94 0 487 496 695 15 692 5369 0 696 488 538 50 693 5387 0 488 500 697 0 +-.002 .0
033 .03225 1 183697019872103e-30 0 -183697019872103e-30 1 0 50 500 6137 0 273 0
 693 0 +-5e-4 .0033 .03225 1 183697019872103e-30 0 -183697019872103e-30 1 0 50 6
97 4259 0 698 693 699 0 +-.0103680258505965 5e2 .0518500000000306 14012505415562
96e-63 612323399573677e-31 -1 0 1 612323399573677e-31 14 698 4244 700 ?701 702 7
03 6 697 +0 0 701 702 23 50 699 4257 0 702 697 704 0 +-.0103680258505965 5e2 .04
53500000000306 1401250541556296e-63 612323399573677e-31 -1 0 1 612323399573677e-
31 14 702 4239 705 ?698 706 707 6 699 -0 0 698 706 23 50 704 4256 0 701 699 708
 0 +-.00900000000009185 5e2 .0488542690873452 -1 -183697019872103e-30 -612323399
573677e-31 183697019872103e-30 -1 0 14 701 4249 709 ?489 698 710 6 704 +0 0 489
 698 23 50 708 3135 0 426 704 711 0 +-.00556745217181742 -.0051 .04755 178184314
0061465e-63 612323399573677e-31 -1 0 1 612323399573677e-31 14 426 3107 712 ?421
 713 714 6 708 -0 0 421 713 23 50 711 2832 0 713 708 715 0 +-.00285 -.0051 .0503
740757703781 -1 -183697019872103e-30 -612323399573677e-31 183697019872103e-30 -1
 0 14 713 2812 716 ?426 717 718 6 711 +0 0 426 717 23 50 715 2830 0 717 711 719
 0 +-.00615 -.0051 .0503033564627171 -1 -183697019872103e-30 -612323399573677e-3
1 183697019872103e-30 -1 0 14 717 2802 720 ?713 721 722 6 715 -0 0 713 721 23 50
 719 2829 0 721 715 723 0 +-.00556745217181742 -.0051 .05415 1781843140061465e-6
3 612323399573677e-31 -1 0 1 612323399573677e-31 14 721 2797 724 ?717 725 726 6
 719 +0 0 717 725 23 50 723 1950 0 725 719 727 0 +-.0055 -.0111 .020671572875253
8 1 183697019872103e-30 0 -183697019872103e-30 1 0 14 725 1933 728 ?721 729 730
 6 723 +0 0 721 729 23 51 727 1948 0 729 723 731 0 +-.0055 -.01095 .01765 1 1836
97019872103e-30 0 .0028 -183697019872103e-30 1 0 14 729 1927 732 ?725 733 734 6
 727 -0 0 725 733 23 50 731 1702 0 733 727 735 0 +-.0028 -.0111 .0335 1 18369701
9872103e-30 0 -183697019872103e-30 1 0 14 733 1685 736 ?729 737 738 6 731 +0 0 7
29 737 23 51 735 1700 0 737 731 739 0 --.0028 -.0101 .0335 -1 -183697019872103e-
30 0 .00375 183697019872103e-30 -1 0 14 737 1679 740 ?733 530 741 6 735 -0 0 733
 530 23 50 739 1478 0 530 735 532 0 +-.0065 -.0111 .039 -1 -183697019872103e-30
 0 183697019872103e-30 -1 0 14 530 1461 742 ?737 525 743 6 739 +0 0 737 525 23 5
1 532 1476 0 525 739 744 0 +-.0065 -.0101 .0335 -1 -183697019872103e-30 0 .00475
 183697019872103e-30 -1 0 51 744 1021 0 745 532 746 0 +-.1138367873184024 -.0101
 .0335 1 183697019872103e-30 0 .0025 -183697019872103e-30 1 0 14 745 1003 747 ?2
93 748 749 6 744 -0 0 293 748 23 50 746 798 0 522 744 750 0 +-.0035 -.0101 .039
 1 183697019872103e-30 0 -183697019872103e-30 1 0 14 522 748 751 ?519 675 752 6
 746 +0 0 519 675 23 51 750 796 0 675 746 753 0 +-.0035 -.0101 .0335 1 183697019
872103e-30 0 .009 -183697019872103e-30 1 0 14 675 743 754 ?522 293 672 6 750 -29
3 293 522 293 23 50 753 320 0 748 750 755 0 +-.0115 .0033 .03225 1 1836970198721
03e-30 0 -183697019872103e-30 1 0 14 748 231 756 ?745 757 758 6 753 -551 551 745
 757 23 50 755 356 0 509 753 516 0 +.0015 -.01360504151806236 .0645 0 0 1 1 0 0
 14 509 341 759 ?285 503 760 6 755 +0 0 285 503 23 51 516 357 0 757 755 513 0 +.
0015 -.01095 .01765 -1 -183697019872103e-30 0 .00165 183697019872103e-30 -1 0 14
 757 343 761 ?748 551 762 6 516 -0 0 748 551 23 81 1 761 6563 494 757 763 0 764
 756 765 14 551 4063 764 ?757 515 766 6 753 -748 748 757 515 23 15 762 344 0 326
 757 767 17 326 0 762 326 326 0 768 323 0 0 +15 767 1887 0 769 757 0 17 769 0 76
7 769 769 0 631 628 0 0 -17 631 0 730 631 631 0 769 628 0 0 +15 730 1937 0 631 7
25 770 15 770 1938 0 635 725 0 17 635 0 770 635 635 0 771 632 0 0 +17 771 0 772
 771 771 0 635 632 0 0 -15 772 1931 0 771 729 0 17 768 0 766 768 768 0 326 323 0
 0 -15 766 253 0 768 551 773 15 773 1415 0 774 551 549 17 774 0 773 774 774 0 65
9 644 0 0 -17 659 0 775 659 659 0 774 644 0 0 +15 775 1460 0 659 525 0 81 1 764
 6562 494 551 776 0 777 761 778 14 515 347 777 ?551 418 544 6 513 -0 0 551 418 2
3 81 1 777 6561 494 515 779 0 780 764 781 14 418 2095 780 ?515 285 782 6 410 -0
 0 515 285 23 81 1 780 6560 494 418 783 0 517 777 784 15 782 5848 0 275 418 0 17
 275 0 782 203 785 72 265 291 0 284 -17 203 0 782 554 275 200 284 289 0 364 +17
 785 0 782 275 786 262 179 357 0 0 -17 265 0 46 48 75 262 275 291 0 787 +16 291
 5968 788 ?265 789 274 790 0 0 1 81 1 788 6183 30 291 0 0 290 301 791 16 789 598
0 792 ?48 276 291 793 0 0 1 31 790 6153 0 291 292 793 0 --5e-4 -.0041 .050428203
2302755 1 183697019872103e-30 0 -183697019872103e-30 1 0 .007 30 292 6154 0 274
 281 790 0 +-5e-4 -.0051 .03323703311615615 -1124819836996392e-47 61232339957367
7e-31 -1 30 793 6152 0 789 790 689 0 +-5e-4 -.0111 .0576942088603973 33744595109
8918e-46 -183697019872103e-30 1 30 689 6150 0 276 793 688 0 +-5e-4 -.0171 .03323
703311615615 -1124819836996392e-47 612323399573677e-31 -1 16 276 6436 794 ?47 68
1 789 689 0 0 1 81 1 794 6542 30 276 0 0 795 334 796 80 255 1 30 797 798 9000 0
 0 0 0 3 6 0 0 0 FFTFTFTTFFFFFF1 81 1 795 6541 30 26 0 0 799 794 800 81 1 334 65
43 30 332 0 0 794 329 801 82 255 3 796 182 9 1 81 1 329 6544 30 327 0 0 334 304
 802 82 3 801 182 10 1 81 1 304 6545 30 298 0 0 329 792 803 82 3 802 182 11 1 81
 1 792 6546 30 789 0 0 304 804 805 82 3 803 182 12 1 81 1 804 6547 30 19 0 497 7
92 495 806 82 3 805 182 13 1 81 1 497 6593 494 19 804 0 492 0 807 81 1 495 6548
 30 491 0 492 804 808 809 82 3 806 182 0 2 81 1 808 6549 30 748 0 756 495 810 81
1 82 3 809 182 1 2 81 1 756 6564 494 748 808 0 761 747 812 81 1 810 6550 30 273
 0 496 808 813 814 82 3 811 182 2 2 81 1 496 6591 494 273 810 0 691 492 815 81 1
 813 6551 30 509 0 759 810 816 817 82 3 814 182 3 2 81 1 759 6558 494 509 813 0
 507 517 818 81 1 816 6552 30 503 0 507 813 506 819 82 3 817 182 4 2 81 1 507 65
57 494 503 816 0 502 759 820 81 1 506 6553 30 17 0 502 816 0 821 82 3 819 182 5
 2 82 3 821 182 6 2 80 1 494 0 822 8001 0 0 0 0 3 5 0 0 0 FFFFTFTFFFFFFF2 83 255
 3 820 .1058823529411764 .372549019607843 .666666666666667 79 255 15 822 SDL/TYS
A_COLOUR81 1 517 6559 494 285 823 0 759 780 824 83 3 818 .1058823529411764 .3725
49019607843 .666666666666667 81 1 823 6196 30 285 0 517 783 31 825 83 3 824 .105
8823529411764 .372549019607843 .666666666666667 81 1 783 6194 30 418 0 780 826 8
23 827 81 1 31 6525 30 42 0 0 823 27 828 82 3 825 181 5 2 82 3 828 182 0 0 81 1
 826 6193 30 293 0 829 359 783 830 82 3 827 181 3 2 14 293 733 829 ?675 745 277
 6 750 -675 675 675 745 23 81 1 829 6566 494 293 826 0 747 754 831 81 1 359 6190
 30 357 0 0 302 826 832 82 3 830 181 2 2 81 1 302 6189 30 289 0 0 297 359 833 82
 3 832 181 11 1 82 3 833 181 10 1 81 1 747 6565 494 745 834 0 756 829 835 81 1 7
54 6567 494 675 836 0 829 751 837 83 3 831 .1058823529411764 .372549019607843 .6
66666666666667 81 1 836 5447 30 675 0 754 694 838 839 81 1 751 6568 494 522 840
 0 754 520 841 83 3 837 .1058823529411764 .372549019607843 .666666666666667 81 1
 840 1722 30 522 0 751 834 634 842 81 1 520 6569 494 519 838 0 751 524 843 83 3
 841 .1058823529411764 .372549019607843 .666666666666667 81 1 838 5448 30 519 0
 520 836 527 844 83 3 843 .1058823529411764 .372549019607843 .666666666666667 81
 1 527 5449 30 521 0 524 838 779 845 82 3 844 171 2 2 81 1 779 5450 30 515 0 777
 527 846 847 82 3 845 171 3 2 81 1 846 5452 30 729 0 732 779 261 848 82 3 847 17
1 4 2 81 1 732 6575 494 729 846 0 736 728 849 81 1 261 6175 30 259 0 0 846 267 8
50 82 3 848 171 6 2 82 3 850 181 2 0 81 1 736 6574 494 733 851 0 740 732 852 81
 1 728 6576 494 725 853 0 732 724 854 83 3 849 .1058823529411764 .37254901960784
3 .666666666666667 81 1 853 1962 30 725 0 728 630 763 855 81 1 724 6577 494 721
 856 0 728 720 857 83 3 854 .1058823529411764 .372549019607843 .666666666666667
 81 1 856 3694 30 721 0 724 858 859 860 81 1 720 6578 494 717 861 0 724 716 862
 83 3 857 .1058823529411764 .372549019607843 .666666666666667 81 1 861 3692 30 7
17 0 720 863 858 864 81 1 716 6579 494 713 858 0 720 712 865 83 3 862 .105882352
9411764 .372549019607843 .666666666666667 81 1 858 3693 30 713 0 716 861 856 866
 81 1 712 6580 494 426 859 0 716 424 867 83 3 865 .1058823529411764 .37254901960
7843 .666666666666667 81 1 859 3695 30 426 0 712 856 233 868 81 1 424 6581 494 4
21 869 0 712 430 870 83 3 867 .1058823529411764 .372549019607843 .66666666666666
7 81 1 869 3690 30 421 0 424 871 863 872 81 1 430 6582 494 425 863 0 424 873 874
 83 3 870 .1058823529411764 .372549019607843 .666666666666667 81 1 863 3691 30 4
25 0 430 869 861 875 81 1 873 6583 494 431 876 0 430 877 878 83 3 874 .105882352
9411764 .372549019607843 .666666666666667 14 431 3603 873 ?706 425 879 6 428 -0
 0 706 425 23 81 1 876 3688 30 431 0 873 367 871 880 81 1 877 6584 494 706 871 0
 873 705 881 83 3 878 .1058823529411764 .372549019607843 .666666666666667 14 706
 3624 877 ?702 431 882 6 433 -0 0 702 431 23 81 1 871 3689 30 706 0 877 876 869
 883 81 1 705 6585 494 702 884 0 877 700 885 83 3 881 .1058823529411764 .3725490
19607843 .666666666666667 81 1 884 4665 30 702 0 705 886 887 888 81 1 700 6586 4
94 698 886 0 705 709 889 83 3 885 .1058823529411764 .372549019607843 .6666666666
66667 81 1 886 4664 30 698 0 700 890 884 891 81 1 709 6587 494 701 887 0 700 892
 893 83 3 889 .1058823529411764 .372549019607843 .666666666666667 81 1 887 4666
 30 701 0 709 884 241 894 81 1 892 6588 494 489 895 0 709 487 896 83 3 893 .1058
823529411764 .372549019607843 .666666666666667 14 489 4598 892 ?484 701 897 6 48
5 -0 0 484 701 23 81 1 895 4662 30 489 0 892 590 890 898 81 1 487 6589 494 484 8
90 0 892 691 899 83 3 896 .1058823529411764 .372549019607843 .666666666666667 81
 1 890 4663 30 484 0 487 895 886 900 83 3 899 .1058823529411764 .372549019607843
 .666666666666667 82 3 900 144 1 2 81 1 590 4661 30 588 0 0 577 895 901 82 3 898
 144 0 2 81 1 577 4660 30 574 0 0 581 590 902 82 3 901 144 14 1 81 1 581 4659 30
 579 0 0 586 577 903 82 3 902 144 13 1 81 1 586 4658 30 584 0 0 572 581 904 82 3
 903 144 12 1 81 1 572 4657 30 570 0 0 596 586 905 82 3 904 144 11 1 81 1 596 46
56 30 566 0 0 594 572 906 82 3 905 144 10 1 81 1 594 4655 30 592 0 0 481 596 907
 82 3 906 144 9 1 81 1 481 4654 30 475 0 0 474 594 908 82 3 907 144 8 1 81 1 474
 4653 30 472 0 0 458 481 909 82 3 908 144 7 1 81 1 458 4652 30 456 0 0 465 474 9
10 82 3 909 144 6 1 81 1 465 4651 30 463 0 0 471 458 911 82 3 910 144 5 1 81 1 4
71 4650 30 469 0 0 468 465 912 82 3 911 144 4 1 81 1 468 4649 30 466 0 0 462 471
 913 82 3 912 144 3 1 81 1 462 4648 30 460 0 0 454 468 914 82 3 913 144 2 1 81 1
 454 4647 30 452 0 0 102 462 915 82 3 914 144 1 1 81 1 102 4646 30 100 0 0 94 45
4 916 82 3 915 144 0 1 81 1 94 4645 30 92 0 0 86 102 917 82 3 916 144 7 0 81 1 8
6 4644 30 84 0 0 82 94 918 82 3 917 144 6 0 81 1 82 4643 30 80 0 0 90 86 919 82
 3 918 144 5 0 81 1 90 4642 30 88 0 0 98 82 920 82 3 919 144 4 0 81 1 98 4641 30
 96 0 0 106 90 921 82 3 920 144 3 0 81 1 106 4640 30 104 0 0 110 98 922 82 3 921
 144 2 0 81 1 110 4639 30 108 0 0 776 106 923 82 3 922 144 1 0 81 1 776 4323 30
 551 0 764 924 110 925 82 3 923 144 0 0 81 1 924 4321 30 315 0 0 926 776 927 82
 3 925 143 8 2 16 315 4030 924 ?183 316 306 312 316 316 1 81 1 926 4313 30 361 0
 0 363 924 928 82 3 927 143 16 1 16 361 2231 926 ?929 357 356 354 357 357 1 81 1
 363 4311 30 360 0 0 601 926 930 82 3 928 143 14 1 81 1 601 4302 30 575 0 0 598
 363 931 82 3 930 143 12 1 81 1 598 4300 30 587 0 0 229 601 932 82 3 931 143 2 1
 81 1 229 4299 30 227 0 0 225 598 933 82 3 932 143 0 1 81 1 225 4296 30 223 0 0
 222 229 934 82 3 933 143 8 0 81 1 222 4293 30 220 0 0 237 225 935 82 3 934 143
 5 0 81 1 237 4292 30 235 0 0 233 222 936 82 3 935 143 2 0 81 1 233 4291 30 231
 0 0 859 237 937 82 3 936 143 1 0 82 3 937 143 0 0 17 929 0 510 591 219 227 938
 361 0 0 +15 510 5896 0 939 503 0 17 591 0 510 107 929 88 940 588 0 941 +17 219
 0 510 929 147 216 942 621 0 943 +17 938 0 782 376 230 216 929 361 0 0 -17 376 0
 782 167 938 148 943 373 0 944 +17 230 0 782 938 103 227 945 584 0 940 +17 103 0
 782 230 946 100 947 475 0 945 +17 945 0 710 459 940 100 230 584 0 948 -17 940 0
 710 945 91 227 591 588 0 929 -15 710 4253 0 949 701 0 17 91 0 710 940 949 88 95
0 460 0 591 +17 949 0 710 91 459 96 573 570 0 950 -17 950 0 897 111 941 96 91 46
0 0 0 -15 897 4599 0 941 489 0 17 111 0 897 951 950 108 99 466 0 455 -17 941 0 8
97 950 951 88 107 469 0 0 -17 951 0 897 941 111 104 455 452 0 0 -17 107 0 510 23
4 591 104 941 469 0 952 +17 234 0 510 305 107 231 952 592 0 953 +17 952 0 703 45
5 953 104 234 592 0 951 -15 703 4248 0 952 698 0 17 455 0 703 954 952 108 951 45
2 0 582 +17 953 0 703 952 954 231 599 587 0 955 -17 954 0 703 953 455 220 582 57
9 0 599 -17 599 0 758 39 955 220 953 587 0 0 +17 955 0 758 599 25 231 305 298 0
 0 -15 758 252 0 39 748 0 17 25 0 758 955 39 42 956 11 0 305 +17 305 0 510 60 23
4 42 955 298 0 0 +17 60 0 510 939 305 58 52 957 0 330 +17 939 0 510 57 60 61 330
 327 0 0 -17 52 0 499 956 958 42 60 957 0 25 -16 957 6423 959 ?60 960 961 962 0
 0 1 17 330 0 760 67 963 58 939 327 0 958 +15 760 340 0 964 509 0 17 67 0 760 96
4 330 64 958 482 0 36 +17 963 0 760 330 964 61 965 961 0 939 +17 958 0 499 52 37
 58 67 482 0 0 -15 499 6506 0 37 19 0 17 37 0 499 958 956 64 28 38 0 0 -16 482 6
401 966 ?67 961 475 476 0 0 1 81 1 966 6534 30 482 0 0 24 959 967 16 961 6407 96
8 ?963 957 482 483 0 0 1 81 1 968 6539 30 961 0 0 969 799 970 30 483 6409 0 961
 476 962 0 +-.0025 -.01360504151806236 .0645 -183697019872103e-30 1 0 31 962 642
5 0 957 483 971 0 --.0095 -.0111 .0625 183697019872103e-30 -1 -183697019872103e-
30 0 183697019872103e-30 -1 .002 31 971 6431 0 960 962 972 0 --.0025 -.0111 .062
5 183697019872103e-30 -1 -183697019872103e-30 0 183697019872103e-30 -1 .002 16 9
60 6429 799 ?57 50 957 971 0 0 1 30 972 6442 0 50 971 973 0 --5e-4 .0033 .0625 -
183697019872103e-30 1 0 16 50 6440 969 ?41 38 960 972 0 0 1 31 973 6453 0 38 972
 21 0 --.0095 -.0171 .0625 -183697019872103e-30 1 612323399573677e-31 -1 -183697
019872103e-30 0 .002 16 38 6451 974 ?28 26 50 973 0 0 1 31 21 6459 0 26 973 8 0
 --.0025 -.0171 .0625 -183697019872103e-30 1 612323399573677e-31 -1 -18369701987
2103e-30 0 .002 16 26 6457 795 ?71 11 38 21 0 0 1 17 71 0 34 36 51 68 501 26 0 9
64 +17 36 0 34 28 71 64 964 332 0 37 +17 51 0 34 71 279 29 47 276 0 501 -17 501
 0 493 49 965 29 71 26 0 0 -17 964 0 760 963 67 68 36 332 0 965 -17 965 0 493 50
1 63 68 963 961 0 0 -17 63 0 493 965 49 61 57 960 0 963 -17 49 0 493 63 501 53 4
1 50 0 0 -17 57 0 510 787 939 53 63 960 0 48 +17 787 0 510 179 57 262 48 789 0 7
85 -17 48 0 46 41 265 53 787 789 0 49 +17 179 0 510 975 787 176 785 357 0 620 +1
7 975 0 510 123 179 140 620 617 0 976 -17 620 0 718 368 143 176 975 617 0 786 +1
5 718 2796 0 368 713 0 17 368 0 718 397 620 136 786 365 0 977 +17 143 0 718 620
 978 140 979 391 0 975 +17 786 0 782 785 139 176 368 365 0 0 -17 139 0 782 786 3
72 136 980 434 0 368 +17 372 0 782 139 167 160 981 369 0 980 +17 980 0 432 982 9
77 160 139 434 0 0 -15 432 3583 0 980 425 0 17 982 0 432 131 980 168 163 377 0 0
 -17 977 0 432 980 131 136 397 394 0 0 -17 131 0 432 977 982 128 171 416 0 397 -
17 397 0 718 978 368 128 977 394 0 616 +17 978 0 718 143 397 132 616 613 0 979 -
17 616 0 504 171 135 128 978 613 0 0 +17 171 0 504 512 616 168 131 416 0 604 +17
 135 0 504 616 608 132 115 446 0 978 +17 608 0 504 135 119 112 983 605 0 0 +17 1
15 0 882 984 979 112 135 446 0 401 -15 882 3625 0 976 706 0 17 984 0 882 976 115
 120 401 398 0 0 -17 979 0 882 115 976 132 143 391 0 0 -17 401 0 726 983 627 112
 984 398 0 608 +15 726 2781 0 983 721 0 17 983 0 726 127 401 116 608 605 0 985 -
17 627 0 726 401 127 120 986 624 0 984 +17 127 0 726 627 983 124 985 402 0 986 +
17 986 0 510 147 123 124 627 624 0 987 -17 147 0 510 219 986 144 987 443 0 942 +
17 123 0 510 986 975 120 976 449 0 627 +17 987 0 879 985 988 124 147 443 0 0 -15
 879 3604 0 987 431 0 17 985 0 879 159 987 116 127 402 0 0 -17 988 0 879 987 159
 144 387 384 0 0 -17 159 0 879 988 985 156 119 440 0 387 -17 387 0 722 612 942 1
56 988 384 0 989 +15 722 2791 0 612 717 0 17 612 0 722 151 387 152 989 609 0 990
 +17 942 0 722 387 943 144 219 621 0 988 -17 989 0 504 119 155 156 612 609 0 0 -
17 119 0 504 608 989 116 159 440 0 983 +17 155 0 504 989 512 152 175 405 0 612 +
17 512 0 504 155 171 172 604 583 0 0 -17 175 0 427 991 990 172 155 405 0 383 -15
 427 3562 0 944 421 0 17 991 0 427 944 175 164 383 380 0 0 -17 990 0 427 175 944
 152 151 388 0 0 -17 383 0 714 604 981 172 991 380 0 512 +15 714 3091 0 981 426
 0 17 604 0 714 163 383 168 512 583 0 982 +17 981 0 714 383 163 164 372 369 0 99
1 -17 163 0 714 981 604 160 982 377 0 372 +17 944 0 427 990 991 148 167 408 0 0
 -17 151 0 722 943 612 148 990 388 0 376 +17 943 0 722 942 151 216 376 373 0 938
 -17 167 0 782 372 376 164 944 408 0 981 +17 976 0 882 979 984 140 123 449 0 0 -
16 416 3496 992 ?171 434 408 409 0 0 1 81 1 992 3678 30 416 0 0 379 439 993 81 1
 379 3677 30 377 0 0 396 992 994 81 1 439 3679 30 434 0 0 992 607 995 82 3 993 1
41 16 1 81 1 607 3680 30 605 0 0 439 603 996 82 3 995 141 17 1 81 1 603 3681 30
 583 0 0 607 623 997 82 3 996 141 18 1 81 1 623 3682 30 621 0 0 603 619 998 82 3
 997 141 19 1 81 1 619 3683 30 617 0 0 623 626 999 82 3 998 141 20 1 81 1 626 36
84 30 624 0 0 619 371 1000 82 3 999 141 21 1 81 1 371 3685 30 369 0 0 626 375 10
01 82 3 1000 141 22 1 81 1 375 3686 30 373 0 0 371 367 1002 82 3 1001 141 23 1 8
1 1 367 3687 30 365 0 0 375 876 1003 82 3 1002 141 24 1 82 3 1003 141 25 1 81 1
 396 3676 30 394 0 0 415 379 1004 82 3 994 141 15 1 81 1 415 3675 30 408 0 0 407
 396 1005 82 3 1004 141 14 1 81 1 407 3674 30 405 0 0 382 415 1006 82 3 1005 141
 13 1 81 1 382 3673 30 380 0 0 390 407 1007 82 3 1006 141 12 1 81 1 390 3672 30
 388 0 0 451 382 1008 82 3 1007 141 11 1 81 1 451 3671 30 449 0 0 448 390 1009 8
2 3 1008 141 10 1 81 1 448 3670 30 446 0 0 400 451 1010 82 3 1009 141 9 1 81 1 4
00 3669 30 398 0 0 393 448 1011 82 3 1010 141 8 1 81 1 393 3668 30 391 0 0 445 4
00 1012 82 3 1011 141 7 1 81 1 445 3667 30 443 0 0 442 393 1013 82 3 1012 141 6
 1 81 1 442 3666 30 440 0 0 404 445 1014 82 3 1013 141 5 1 81 1 404 3665 30 402
 0 0 386 442 1015 82 3 1014 141 4 1 81 1 386 3664 30 384 0 0 615 404 1016 82 3 1
015 141 3 1 81 1 615 3663 30 613 0 0 611 386 1017 82 3 1016 141 2 1 81 1 611 366
2 30 609 0 0 162 615 1018 82 3 1017 141 1 1 81 1 162 3661 30 160 0 0 170 611 101
9 82 3 1018 141 0 1 81 1 170 3660 30 168 0 0 138 162 1020 82 3 1019 141 15 0 81
 1 138 3659 30 136 0 0 130 170 1021 82 3 1020 141 14 0 81 1 130 3658 30 128 0 0
 166 138 1022 82 3 1021 141 13 0 81 1 166 3657 30 164 0 0 174 130 1023 82 3 1022
 141 12 0 81 1 174 3656 30 172 0 0 150 166 1024 82 3 1023 141 11 0 81 1 150 3655
 30 148 0 0 154 174 1025 82 3 1024 141 10 0 81 1 154 3654 30 152 0 0 122 150 102
6 82 3 1025 141 9 0 81 1 122 3653 30 120 0 0 114 154 1027 82 3 1026 141 8 0 81 1
 114 3652 30 112 0 0 142 122 1028 82 3 1027 141 7 0 81 1 142 3651 30 140 0 0 134
 114 1029 82 3 1028 141 6 0 81 1 134 3650 30 132 0 0 126 142 1030 82 3 1029 141
 5 0 81 1 126 3649 30 124 0 0 118 134 1031 82 3 1030 141 4 0 81 1 118 3648 30 11
6 0 0 146 126 1032 82 3 1031 141 3 0 81 1 146 3647 30 144 0 0 158 118 1033 82 3
 1032 141 2 0 81 1 158 3646 30 156 0 0 218 146 1034 82 3 1033 141 1 0 81 1 218 3
226 30 216 0 0 178 158 1035 82 3 1034 141 0 0 81 1 178 3225 30 176 0 0 202 218 1
036 82 3 1035 140 9 0 81 1 202 2117 30 200 0 0 763 178 1037 82 3 1036 140 8 0 81
 1 763 1963 30 757 0 761 853 202 1038 82 3 1037 126 3 0 82 3 1038 125 2 2 17 279
 0 34 51 676 259 211 299 0 0 +17 211 0 277 215 270 208 279 299 0 294 -17 294 0 1
039 207 296 208 215 295 0 676 +15 1039 752 0 296 522 0 17 207 0 1039 199 294 204
 676 664 0 673 +17 296 0 1039 294 199 212 286 656 0 283 -17 199 0 1039 296 207 1
96 673 665 0 556 +17 286 0 282 555 283 196 296 656 0 0 +16 665 670 1040 ?199 557
 664 660 295 295 1 17 556 0 672 673 558 196 555 557 0 286 -81 1 1040 837 30 665
 0 0 663 667 1041 81 1 663 835 30 295 0 0 198 1040 1042 81 1 667 838 30 664 0 0
 1040 661 1043 82 3 1041 104 7 1 81 1 661 839 30 656 0 0 667 194 1044 82 3 1043
 104 8 1 81 1 194 1295 30 192 0 0 661 182 1045 82 3 1044 104 9 1 81 1 182 1297 3
0 180 0 0 194 190 1046 82 3 1045 111 1 0 81 1 190 1299 30 188 0 0 182 186 1047 8
2 3 1046 111 3 0 81 1 186 1301 30 184 0 0 190 347 1048 82 3 1047 111 5 0 81 1 34
7 1305 30 345 0 0 186 344 1049 82 3 1048 111 7 0 81 1 344 1309 30 342 0 0 347 32
1 1050 82 3 1049 111 3 1 81 1 321 1310 30 319 0 0 344 313 1051 82 3 1050 111 7 1
 81 1 313 1313 30 306 0 0 321 658 1052 82 3 1051 111 8 1 81 1 658 1486 30 644 0
 0 313 654 1053 82 3 1052 111 11 1 81 1 654 1487 30 652 0 0 658 650 1054 82 3 10
53 113 0 1 81 1 650 1488 30 648 0 0 654 1055 1056 82 3 1054 113 1 1 81 1 1055 14
89 30 525 0 528 650 1057 1058 82 3 1056 113 2 1 81 1 528 6571 494 525 1055 0 524
 742 1059 81 1 1057 1490 30 530 0 742 1055 638 1060 82 3 1058 113 0 2 81 1 742 6
572 494 530 1057 0 528 740 1061 81 1 638 1656 30 636 0 0 1057 642 1062 82 3 1060
 113 1 2 81 1 642 1666 30 640 0 0 638 1063 1064 82 3 1062 116 3 1 81 1 1063 1682
 30 737 0 740 642 851 1065 82 3 1064 116 1 1 81 1 740 6573 494 737 1063 0 742 73
6 1066 81 1 851 1688 30 733 0 736 1063 1067 1068 82 3 1065 116 0 2 81 1 1067 171
9 30 1 0 14 851 646 1069 82 3 1068 116 2 2 81 1 14 6554 1070 1 1067 2 0 0 1071 8
1 1 646 1720 30 356 0 0 1067 834 1072 82 3 1069 100 0 3 81 1 834 1721 30 745 0 7
47 646 840 1073 82 3 1072 117 0 1 82 3 1073 117 0 2 80 1 1070 13 1074 8038 0 0 0
 0 0 0 0 0 0 TTTTTTTTTTTTTF10 98 255 5 1071 105 100 108 101 114 79 14 1074 SDL/T
YSA_UNAME83 3 1066 .1058823529411764 .372549019607843 .666666666666667 83 3 1061
 .1058823529411764 .372549019607843 .666666666666667 83 3 1059 .1058823529411764
 .372549019607843 .666666666666667 81 1 198 829 30 196 0 0 206 663 1075 82 3 104
2 104 5 1 81 1 206 827 30 204 0 0 214 198 1076 82 3 1075 104 7 0 81 1 214 825 30
 212 0 0 210 206 1077 82 3 1076 104 5 0 81 1 210 823 30 208 0 0 325 214 1078 82
 3 1077 104 3 0 81 1 325 429 30 323 0 0 0 210 1079 82 3 1078 104 1 0 82 3 1079 1
00 18 1 81 1 974 6536 30 38 0 0 959 318 1080 81 1 959 6535 30 957 0 0 966 974 10
81 81 1 318 6537 30 316 0 0 974 969 1082 82 3 1080 182 3 1 81 1 969 6538 30 50 0
 0 318 968 1083 82 3 1082 182 4 1 82 3 1083 182 5 1 82 3 1081 182 2 1 81 1 799 6
540 30 960 0 0 968 795 1084 82 3 1084 182 7 1 82 3 970 182 6 1 81 1 24 6533 30 1
1 0 0 70 966 1085 82 3 967 182 1 1 81 1 70 6532 30 68 0 0 44 24 1086 82 3 1085 1
82 0 1 81 1 44 6531 30 61 0 0 40 70 1087 82 3 1086 182 7 0 82 3 1087 182 6 0 17
 956 0 499 37 52 12 25 11 0 0 -17 39 0 758 25 599 12 35 316 0 956 -17 35 0 34 58
2 28 220 39 316 0 954 +17 582 0 34 99 35 108 954 579 0 0 +17 99 0 34 573 582 96
 111 466 0 949 +17 573 0 34 83 99 92 949 570 0 0 +17 83 0 34 1088 573 80 95 472
 0 578 +17 1088 0 34 183 83 223 578 574 0 552 -17 95 0 490 948 1089 92 83 472 0
 459 -17 578 0 707 87 226 80 1088 574 0 1089 +15 707 4243 0 578 702 0 17 87 0 70
7 238 578 84 1089 463 0 946 +17 226 0 707 578 238 223 550 575 0 1088 +17 1089 0
 490 95 947 80 87 463 0 0 -15 490 4620 0 947 484 0 17 947 0 490 1089 948 84 103
 475 0 0 -17 948 0 490 947 95 100 459 456 0 0 -17 459 0 710 949 945 92 948 456 0
 573 +17 238 0 707 226 87 235 946 566 0 550 +17 550 0 549 364 552 235 226 575 0
 554 -17 552 0 549 550 348 223 183 315 0 0 -17 554 0 782 946 203 235 364 360 0 0
 -17 946 0 782 103 554 84 238 566 0 947 -17 183 0 34 352 1088 180 552 315 0 348
 +81 1 241 5427 30 239 0 0 887 245 1090 82 3 894 144 4 2 81 1 245 5428 30 243 0
 0 241 253 1091 82 3 1090 171 0 0 81 1 253 5429 30 251 0 0 245 257 1092 82 3 109
1 171 1 0 81 1 257 5430 30 255 0 0 253 78 1093 82 3 1092 171 2 0 81 1 78 5431 30
 76 0 0 257 249 1094 82 3 1093 171 3 0 81 1 249 5432 30 247 0 0 78 565 1095 82 3
 1094 171 4 0 81 1 565 5433 30 560 0 0 249 685 1096 82 3 1095 171 5 0 81 1 685 5
434 30 680 0 0 565 540 1097 82 3 1096 171 0 1 81 1 540 5435 30 536 0 0 685 683 1
098 82 3 1097 171 1 1 82 3 1098 171 2 1 82 3 891 144 2 2 82 3 888 144 3 2 82 3 8
83 141 1 2 51 433 3636 0 706 428 485 0 +-.00335 -.0051 .05365 -183697019872103e-
30 1 612323399573677e-31 5e-4 -1 -183697019872103e-30 0 82 3 880 141 0 2 82 3 87
5 141 3 2 82 3 872 141 2 2 82 3 868 141 7 2 82 3 866 141 5 2 82 3 864 141 4 2 82
 3 860 141 6 2 81 1 630 1960 30 628 0 0 634 853 1099 82 3 855 125 1 2 81 1 634 1
959 30 632 0 0 840 630 1100 82 3 1099 125 2 1 82 3 1100 125 1 1 83 3 852 .105882
3529411764 .372549019607843 .666666666666667 82 3 842 117 1 2 81 1 694 5446 30 4
88 0 691 355 836 1101 82 3 839 171 1 2 81 1 355 5445 30 353 0 0 337 694 1102 82
 3 1101 171 0 2 81 1 337 5444 30 331 0 0 351 355 1103 82 3 1102 171 12 1 81 1 35
1 5443 30 349 0 0 341 337 1104 82 3 1103 171 11 1 81 1 341 5442 30 339 0 0 668 3
51 1105 82 3 1104 171 10 1 81 1 668 5441 30 557 0 0 669 341 1106 82 3 1105 171 9
 1 82 3 1106 171 8 1 83 3 835 .1058823529411764 .372549019607843 .66666666666666
7 83 3 815 .1058823529411764 .372549019607843 .666666666666667 83 3 812 .1058823
529411764 .372549019607843 .666666666666667 83 3 807 .1058823529411764 .37254901
9607843 .666666666666667 82 3 800 182 8 1 79 9 798 BTI/DetId31 281 6155 0 271 0
 292 0 +-5e-4 -.0101 .0335 1 183697019872103e-30 0 -183697019872103e-30 1 0 .009
 81 1 290 6182 30 274 0 0 280 788 1107 81 1 301 6187 30 299 0 0 788 297 1108 82
 3 791 181 4 1 82 3 1108 181 8 1 81 1 280 6180 30 271 0 0 74 290 1109 82 3 1107
 181 3 1 81 1 74 6178 30 72 0 0 264 280 1110 82 3 1109 181 1 1 81 1 264 6177 30
 262 0 0 267 74 1111 82 3 1110 181 5 0 82 3 1111 181 4 0 83 3 784 .1058823529411
764 .372549019607843 .666666666666667 83 3 781 .1058823529411764 .37254901960784
3 .666666666666667 83 3 778 .1058823529411764 .372549019607843 .666666666666667
 83 3 765 .1058823529411764 .372549019607843 .666666666666667 15 752 1642 0 1112
 522 1039 17 1112 0 752 1112 1112 0 647 356 0 0 -17 647 0 1113 647 647 0 1112 35
6 0 0 +15 1113 1684 0 647 737 0 15 749 1408 0 1114 745 1115 17 1114 0 749 1114 1
114 0 651 648 0 0 -15 1115 1677 0 639 745 0 17 639 0 1115 639 639 0 1116 636 0 0
 +17 1116 0 738 1116 1116 0 639 636 0 0 -15 738 1689 0 1116 733 1117 15 1117 169
0 0 643 733 0 17 643 0 1117 643 643 0 1118 640 0 0 +17 1118 0 741 1118 1118 0 64
3 640 0 0 -15 741 1683 0 1118 737 1113 17 651 0 743 651 651 0 1114 648 0 0 +15 7
43 1465 0 651 530 1119 15 1119 1466 0 655 530 0 17 655 0 1119 655 655 0 1120 652
 0 0 +17 1120 0 531 1120 1120 0 655 652 0 0 -15 531 1459 0 1120 525 775 15 734 5
054 0 687 729 772 17 687 0 734 687 687 0 696 681 0 0 +17 696 0 692 696 696 0 687
 681 0 0 -83 3 695 .1058823529411764 .372549019607843 .666666666666667 82 3 690
 171 3 1 81 1 563 5439 30 681 0 0 559 669 1121 82 3 1121 171 6 1 82 3 684 171 4
 1 17 242 0 538 258 246 239 558 560 0 677 -82 3 671 171 7 1 82 3 564 171 5 1 83
 3 529 .1058823529411764 .372549019607843 .666666666666667 83 3 508 .10588235294
11764 .372549019607843 .666666666666667 83 3 498 .1058823529411764 .372549019607
843 .666666666666667 141 420 406 1122 1123 410 141 1122 473 1123 420 410 141 112
3 417 420 1122 410 82 3 303 181 9 1 82 3 269 181 3 0 81 1 66 6528 30 64 0 0 32 4
3 1124 81 1 32 6527 30 58 0 0 27 66 1125 81 1 43 6529 30 53 0 0 66 40 1126 82 3
 1124 182 3 0 82 3 1126 182 4 0 82 3 1125 182 2 0 82 3 45 182 5 0 82 3 33 182 1
 0 19 18 370 0 1 0 10 6 S0 74 4 CI16 index_map_offset0 0 1 dCCZ20 16 4 0 0 506 1
4 2 497 0 0 0 0 0 0 0 0 0 0 0 0 0 0 0 0 80 1 13 1127 1128 8017 0 0 0 0 0 0 0 0 0
 TTTTTTTTTTTTTF3 84 255 5 15 idler79 13 1128 SDL/TYSA_NAME1 0 
