**ABCDEFGHIJKLMNOPQRSTUVWXYZabcdefghijklmnopqrstuvwxyz**************************
**PARASOLID !"#$%&'()*+,-./:;<=>?@[\]^_`{|}~0123456789**************************
**PART1;
MC=unknown;
MC_MODEL=unknown;
MC_ID=unknown;
OS=unknown;
OS_RELEASE=unknown;
FRU=Parasolid 28.1.231;
APPL=Onshape;
SITE=unknown;
USER=unknown;
FORMAT=text;
GUISE=transmit;
KEY=BTGapi::writeModels_.xmt;
FILE=BTGapi::writeModels_.xmt;
DATE=2016-06-28T20:37:42 (UTC);
**PART2;
SCH=SCH_2801231_28101;
USFLD_SIZE=0;
**PART3;
**END_OF_HEADER*****************************************************************
T51 : TRANSMIT FILE created by modeller version 280123123 SCH_2801231_28101_1300
6203 0 12 33 CCCCCCI4 mesh1006 0 I8 polyline1008 0 CCCCCCCDI5 owner1040 0 CCCCCC
I13 boundary_mesh1006 0 I17 boundary_polyline1008 0 CCCA16 index_map_offset0 0 1
 dA9 index_map82 0 A17 node_id_index_map82 0 A20 schema_embedding_map82 0 A5 chi
ld12 0 A14 lowest_node_id0 0 1 dZ1 1415 2 3 0 0 0 0 0 0 1e3 1e-8 0 4 5 1 0 1 1 6
 7 8 9 0 0 10 11 12 0 0 0 0 0 0 81 255 1 2 1393 13 1 14 0 0 0 15 70 11 CI9 list_
type0 0 1 uI10 notransmit0 0 1 lCCCDCCDI12 finger_index0 0 1 dI12 finger_block10
12 0 CZ3 0 4 T1 0 0 4 20 1 16 16 13 255 6 106 0 1 0 17 0 0 18 0 50 255 7 1330 0
 19 20 0 0 --.0668605552431216 -.01 .006 0 .707106781186548 -.707106781186548 -1
 0 0 30 255 8 1237 0 11 21 0 0 +.0695 .005 .011 2164890140588735e-31 -.707106781
186548 .707106781186548 29 255 9 1209 0 12 22 0 .0655 -.005 .011 19 8 CCCCCCCA5
 owner12 0 Z10 105 0 1 18 0 23 V0 16 255 11 1235 24 ?25 0 26 8 0 0 1 18 255 12 1
206 27 28 0 29 9 ?1 81 1 27 1349 30 12 0 0 31 32 33 17 255 28 0 34 35 36 12 37 3
8 0 39 +18 29 1202 40 41 12 42 22 ?1 81 1 40 1345 30 29 0 0 43 44 45 17 41 0 46
 47 48 29 49 50 0 51 -18 42 1198 31 52 29 53 54 ?1 29 22 1205 0 29 54 9 .0655 .0
05 .011 29 54 1201 0 42 55 22 .0695 -.005 .011 29 55 1197 0 53 56 54 .0695 .005
 .011 18 53 1194 43 25 42 57 55 ?1 29 56 1183 0 57 58 55 .0695 .01 .006 18 57 11
80 44 59 53 60 56 ?1 29 58 1179 0 60 61 56 .0655 .01 .006 18 60 1176 62 49 57 63
 58 ?1 29 61 1165 0 63 64 58 -.0695 .01 .006 18 63 1162 65 66 60 67 61 ?1 29 64
 1151 0 67 68 61 .0655 -.01 .006 18 67 1148 69 37 63 70 64 ?1 29 68 1147 0 70 71
 64 .0695 -.01 .006 18 70 1144 32 72 67 73 68 ?1 29 71 1143 0 73 74 68 -.0695 -.
01 .006 18 73 1140 75 76 70 77 71 ?1 29 74 1129 0 77 78 71 -.0655 -.01 .006 18 7
7 1126 79 80 73 81 74 ?1 29 78 1125 0 81 82 74 -.0655 .01 .006 18 81 1122 83 84
 77 85 78 ?1 29 82 1111 0 85 86 78 -.0655 -.005 .011 18 85 1108 87 88 81 89 82 ?
1 29 86 1107 0 89 90 82 -.0655 .005 .011 18 89 1104 91 92 85 93 86 ?1 29 90 1103
 0 93 94 86 -.0695 -.005 .011 18 93 1100 95 96 89 97 90 ?1 29 94 1099 0 97 98 90
 -.0695 .005 .011 18 97 1096 99 100 93 101 94 ?1 29 98 510 0 101 102 94 .0655 .0
1 0 18 101 506 103 104 97 105 98 ?1 29 102 353 0 105 106 98 -.0655 -.01 0 18 105
 349 107 108 101 109 102 ?1 29 106 101 0 109 110 102 .0695 -.01 -.004 18 109 99
 111 112 105 113 106 ?1 29 110 96 0 113 114 106 .0695 .01 -.004 18 113 94 115 11
6 109 117 110 ?1 29 114 71 0 117 118 110 -.0695 -.01 -.004 18 117 69 119 120 113
 121 114 ?1 29 118 66 0 121 122 114 -.0695 .01 -.004 18 121 64 123 124 117 125 1
18 ?1 29 122 476 0 125 126 118 -.0655 .01 0 18 125 415 127 128 121 129 122 ?1 29
 126 631 0 129 0 122 .0655 -.01 0 18 129 580 130 131 125 0 126 ?1 81 1 130 662 3
0 129 0 0 107 132 133 17 131 0 134 135 136 129 36 137 0 138 +15 255 134 248 0 13
9 140 0 17 135 0 134 139 131 105 138 141 0 0 -17 136 0 134 131 142 67 143 144 0
 36 +17 36 0 34 28 145 67 131 137 0 0 -16 137 1149 146 ?131 147 148 149 0 0 1 17
 138 0 150 151 152 129 135 141 0 145 +15 150 512 0 151 153 154 17 151 0 150 155
 138 101 145 156 0 157 -17 152 0 150 138 155 105 158 159 0 135 +16 141 187 160 ?
138 161 162 163 0 0 1 17 145 0 34 36 104 129 151 156 0 0 +15 34 597 0 35 17 164
 17 104 0 34 145 49 101 165 147 0 151 +16 156 540 166 ?145 167 168 169 0 0 1 81
 1 166 670 30 156 0 0 170 171 172 16 167 1195 173 ?174 148 156 175 0 0 1 16 168
 814 176 ?177 156 178 179 0 0 1 30 169 623 0 156 180 149 0 +.0655 49502585559305
1e-49 0 3061616997868385e-31 -1 0 30 180 627 0 148 175 169 0 +.0655 495025855593
051e-49 .011 3061616997868385e-31 -1 0 30 149 620 0 137 169 181 0 +.0655 -.01 .0
11 0 0 -1 30 181 619 0 147 149 182 0 +.0655 .01 .011 0 0 -1 16 147 1177 183 ?104
 159 137 181 0 0 1 30 182 472 0 184 181 185 0 +-.0655 374939945665464e-49 .011 6
12323399573677e-31 -1 0 16 184 1105 186 ?187 188 159 182 0 0 1 30 185 470 0 188
 182 189 0 +-.0695 281892564846231e-32 .011 612323399573677e-31 -1 0 16 188 1097
 190 ?191 192 184 185 0 0 1 30 189 468 0 159 185 193 0 +-.0655 374939945665464e-
49 0 612323399573677e-31 -1 0 16 159 408 170 ?152 184 147 189 0 0 1 30 193 462 0
 194 189 195 0 +-.0655 -.01 .011 0 0 -1 16 194 1127 196 ?108 162 192 193 0 0 1 3
0 195 461 0 192 193 197 0 +-.0655 .01 .011 0 0 -1 16 192 1123 198 ?128 194 188 1
95 0 0 1 30 197 17 0 199 195 200 0 +-.0668605552431216 .01 -.004 1 0 0 16 199 16
 201 ?202 203 204 197 0 0 1 30 200 21 0 203 197 205 0 +-.0695 281892564846231e-3
2 -.004 612323399573677e-31 -1 0 16 203 20 206 ?207 208 199 200 0 0 1 30 205 25
 0 208 200 209 0 +-.0668605552431216 -.01 -.004 1 0 0 16 208 24 210 ?211 212 203
 205 0 0 1 31 255 209 45 0 212 205 213 0 +-.0475 0 -.004 0 0 1 1 0 0 .00165 16 2
12 44 214 ?215 216 208 209 0 0 1 31 213 49 0 216 209 217 0 +.0475 -5802923854867
18e-33 -.004 0 0 1 1 0 0 .00165 16 216 48 218 ?219 220 212 213 0 0 1 30 217 53 0
 220 213 221 0 +.0695 281892564846231e-32 -.004 3061616997868385e-31 -1 0 16 220
 52 222 ?223 224 216 217 0 0 1 30 221 229 0 162 217 163 0 +-.0668605552431216 .0
1 0 1 0 0 16 162 199 132 ?157 141 194 221 0 0 1 30 163 227 0 141 221 225 0 +-.06
68605552431216 -.01 0 1 0 0 31 225 226 0 161 163 226 0 +-.0475 0 0 0 0 1 1 0 0 .
00165 16 161 183 227 ?228 204 141 225 0 0 1 31 226 225 0 204 225 229 0 +.0475 -5
80292385486718e-33 0 0 0 1 1 0 0 .00165 16 204 179 230 ?231 199 161 226 0 0 1 30
 229 260 0 232 226 233 0 +.0695 -.01 -.004 0 0 1 16 232 234 234 ?142 235 224 229
 0 0 1 30 233 261 0 224 229 236 0 +.0695 .01 -.004 0 0 1 16 224 235 237 ?238 232
 220 233 0 0 1 30 236 262 0 235 233 239 0 +-.0695 -.01 -.004 0 0 1 16 235 236 24
0 ?241 242 232 236 0 0 1 30 239 263 0 242 236 243 0 +-.0695 .01 -.004 0 0 1 16 2
42 237 244 ?245 246 235 239 0 0 1 30 243 1114 0 246 239 247 0 +-.0695 .005 .011
 -1 0 0 16 246 1112 248 ?100 249 242 243 0 0 1 30 247 1119 0 249 243 250 0 +0 -.
005 .011 1 0 0 16 249 1117 251 ?252 253 246 247 0 0 1 30 250 1132 0 253 247 254
 0 +-.0655 .0025 .0135 4329780281177465e-32 -.707106781186548 .707106781186548 1
6 253 1130 255 ?92 256 249 250 0 0 1 30 254 1137 0 256 250 257 0 --.0655 -.0025
 .0135 -4329780281177465e-32 .707106781186548 .707106781186548 16 256 1135 258 ?
80 144 253 254 0 0 1 30 257 1154 0 144 254 259 0 +-.0668605552431216 -.01 .006 -
1 0 0 16 144 1152 260 ?136 261 256 257 0 0 1 30 259 1159 0 261 257 262 0 +-.0668
605552431216 -.01 .006 -1 0 0 16 261 1157 263 ?76 264 144 259 0 0 1 30 262 1168
 0 264 259 265 0 +-.0695 .01 .006 -4329780281177465e-32 .707106781186548 -.70710
6781186548 16 264 1166 266 ?66 267 261 262 0 0 1 30 265 1173 0 267 262 268 0 --.
0695 -.01 .006 4329780281177465e-32 -.707106781186548 -.707106781186548 16 267 1
171 269 ?96 270 264 265 0 0 1 30 268 1186 0 270 265 271 0 +.0695 .01 .006 1 0 0
 16 270 1184 272 ?59 273 267 268 0 0 1 30 271 1191 0 273 268 274 0 +-.0655 .01 .
006 1 0 0 16 273 1189 275 ?276 277 270 271 0 0 1 30 274 1212 0 277 271 278 0 +0
 -.005 .011 1 0 0 16 277 1210 279 ?52 280 273 274 0 0 1 30 278 1217 0 280 274 28
1 0 +.0655 .005 .011 -1 0 0 16 280 1215 282 ?51 38 277 278 0 0 1 30 281 1222 0 3
8 278 283 0 -.0655 -.01 .006 2164890140588735e-31 -.707106781186548 -.7071067811
86548 16 38 1220 284 ?28 50 280 281 0 0 1 30 283 1227 0 50 281 21 0 +.0655 .005
 .011 -2164890140588735e-31 .707106781186548 -.707106781186548 16 50 1225 285 ?4
9 26 38 283 0 0 1 30 21 1232 0 26 283 8 0 -.0695 -.01 .006 -2164890140588735e-31
 .707106781186548 .707106781186548 16 26 1230 286 ?72 11 50 21 0 0 1 81 1 286 13
72 30 26 0 0 260 284 287 17 72 0 288 112 174 70 289 26 0 142 +15 288 238 0 238 2
90 0 17 112 0 288 291 72 109 142 232 0 211 -17 174 0 288 72 25 42 292 167 0 289
 +17 289 0 293 294 143 42 72 26 0 0 -17 142 0 134 136 211 70 112 232 0 143 +17 2
11 0 134 142 120 109 295 208 0 223 +17 143 0 293 289 37 70 136 144 0 0 -15 293 1
319 0 289 19 0 17 37 0 293 143 294 67 28 38 0 136 -17 294 0 293 37 289 12 52 277
 0 0 -17 52 0 296 292 39 42 294 277 0 174 +15 296 605 0 292 297 0 17 292 0 296 5
1 52 53 174 167 0 47 -17 39 0 296 52 51 12 35 148 0 294 +17 51 0 296 39 292 29 4
7 280 0 35 +17 35 0 34 49 28 29 39 148 0 0 -16 148 1203 298 ?39 137 167 180 0 0
 1 81 1 298 1375 30 148 0 0 173 244 299 80 255 1 30 300 301 9000 0 0 0 0 3 6 0 0
 0 FFTFTFTTFFFFFF1 81 1 173 1374 30 167 0 0 284 298 302 81 1 244 1376 30 242 0 0
 298 240 303 82 255 3 299 19 23 1 81 1 240 1377 30 235 0 0 244 237 304 82 3 303
 19 24 1 81 1 237 1378 30 224 0 0 240 234 305 82 3 304 19 25 1 81 1 234 1379 30
 232 0 0 237 306 307 82 3 305 19 26 1 81 1 306 1380 30 308 0 309 234 310 311 82
 3 307 19 27 1 14 255 308 1276 309 ?312 313 314 6 315 +0 0 312 313 23 81 1 309 1
413 316 308 306 0 317 318 319 81 1 310 1381 30 313 0 317 306 320 321 82 3 311 19
 0 2 14 313 1255 317 ?308 322 323 6 324 +0 0 308 322 23 81 1 317 1412 316 313 31
0 0 325 309 326 81 1 320 1382 30 312 0 318 310 327 328 82 3 321 19 1 2 14 312 12
97 318 ?19 308 46 6 20 +0 0 19 308 23 81 1 318 1414 316 312 320 0 309 329 330 81
 1 327 1383 30 19 0 329 320 331 332 82 3 328 19 2 2 14 19 1318 329 ?0 312 293 6
 7 +0 0 0 312 23 81 1 329 1415 316 19 327 0 318 0 333 81 1 331 1384 30 334 0 335
 327 336 337 82 3 332 19 3 2 14 334 445 335 ?297 338 339 6 340 +0 0 297 338 23 8
1 1 335 1405 316 334 331 0 341 342 343 81 1 336 1385 30 297 0 342 331 344 345 82
 3 337 19 4 2 14 297 602 342 ?346 334 296 6 347 +0 0 346 334 23 81 1 342 1406 31
6 297 336 0 335 348 349 81 1 344 1386 30 350 0 351 336 352 353 82 3 345 19 5 2 1
4 350 253 351 ?354 153 355 6 356 -0 0 354 153 23 81 1 351 1397 316 350 344 0 357
 358 359 81 1 352 1387 30 140 0 360 344 361 362 82 3 353 19 6 2 14 140 249 360 ?
363 354 134 6 364 +0 0 363 354 23 81 1 360 1399 316 140 352 0 358 365 366 81 1 3
61 1388 30 354 0 358 352 367 368 82 3 362 19 7 2 14 354 251 358 ?140 350 369 6 3
70 +0 0 140 350 23 81 1 358 1398 316 354 361 0 351 360 371 81 1 367 1389 30 290
 0 372 361 373 374 82 3 368 19 8 2 14 290 239 372 ?375 363 376 6 377 -0 0 375 36
3 23 81 1 372 1401 316 290 367 0 365 378 379 81 1 373 1390 30 338 0 341 367 380
 381 82 3 374 19 9 2 14 338 441 341 ?334 382 383 6 384 +0 0 334 382 23 81 1 341
 1404 316 338 373 0 385 335 386 81 1 380 1391 30 17 0 387 373 0 388 82 3 381 19
 10 2 14 17 594 387 ?389 0 34 6 390 -0 0 389 0 23 81 1 387 1394 316 17 380 0 0 3
91 392 82 3 388 19 11 2 80 1 316 0 393 8001 0 0 0 0 3 5 0 0 0 FFFFTFTFFFFFFF2 81
 1 391 1395 316 389 394 0 387 357 395 83 255 3 392 .603921568627451 .64705882352
9412 .686274509803922 14 389 828 391 ?153 17 396 6 397 -346 346 153 17 23 81 1 3
94 1091 30 389 0 391 398 99 399 81 1 357 1396 316 153 171 0 391 351 400 83 3 395
 .603921568627451 .647058823529412 .686274509803922 14 153 157 357 ?350 389 150
 6 401 +0 0 350 389 23 81 1 171 675 30 153 0 357 166 402 403 83 3 400 .603921568
627451 .647058823529412 .686274509803922 81 1 402 872 30 178 0 0 171 176 404 82
 3 403 8 4 2 16 178 820 402 ?405 168 406 407 0 0 1 81 1 176 879 30 168 0 0 402 4
08 409 82 3 404 12 0 1 81 1 408 955 30 410 0 0 176 411 412 82 3 409 12 3 1 16 41
0 912 408 ?413 406 414 415 0 0 1 81 1 411 956 30 414 0 0 408 416 417 82 3 412 14
 0 1 16 414 917 411 ?418 410 419 420 0 0 1 81 1 416 957 30 406 0 0 411 421 422 8
2 3 417 14 1 1 16 406 909 416 ?423 178 410 424 0 0 1 81 1 421 958 30 425 0 426 4
16 427 428 82 3 422 14 2 1 14 425 932 426 ?429 430 431 6 432 +0 0 429 430 23 81
 1 426 1409 316 425 421 0 433 434 435 81 1 427 959 30 430 0 433 421 436 437 82 3
 428 14 0 2 14 430 927 433 ?425 346 438 6 439 -0 0 425 346 23 81 1 433 1408 316
 430 427 0 348 426 440 81 1 436 961 30 346 0 348 427 441 442 82 3 437 14 1 2 14
 346 847 348 ?430 297 443 6 397 -389 389 430 297 23 81 1 348 1407 316 346 436 0
 342 433 444 81 1 441 1085 30 445 0 0 436 446 447 82 3 442 14 3 2 16 445 1047 44
1 ?448 449 0 450 0 0 1 81 1 446 1086 30 419 0 0 441 451 452 82 3 447 18 0 1 16 4
19 1039 446 ?453 414 449 454 0 0 1 81 1 451 1087 30 449 0 0 446 455 456 82 3 452
 18 1 1 16 449 1034 451 ?457 419 445 458 0 0 1 81 1 455 1088 30 429 0 434 451 39
8 459 82 3 456 18 2 1 14 429 1057 434 ?322 425 460 6 461 -0 0 322 425 23 81 1 43
4 1410 316 429 455 0 426 325 462 81 1 398 1089 30 322 0 325 455 394 463 82 3 459
 18 0 2 14 322 1062 325 ?313 429 464 6 465 +0 0 313 429 23 81 1 325 1411 316 322
 398 0 434 317 466 82 3 463 18 1 2 83 3 466 .603921568627451 .647058823529412 .6
86274509803922 15 464 1065 0 457 322 467 50 465 1077 0 322 0 461 0 +.067 3165599
125950095e-33 .0055 -1 -3061616997868385e-31 0 3061616997868385e-31 -1 0 13 23 2
64 0 0 0 0 0 0 10 17 51 255 461 1075 0 429 465 432 0 +.067 1224854899334876e-28
 .0035 -1 -3061616997868385e-31 0 .00275 3061616997868385e-31 -1 0 50 432 947 0
 425 461 439 0 +-.067 -633119825190019e-33 .0055 1 612323399573677e-31 0 -612323
399573677e-31 1 0 51 439 945 0 430 432 397 0 +-.067 -3805381910586505e-33 .0035
 1 612323399573677e-31 0 .00275 -612323399573677e-31 1 0 51 397 858 0 346 439 34
7 0 +-5e2 -3061587279381725e-29 .0035 1 612323399573677e-31 0 .00165 -6123233995
73677e-31 1 0 50 347 617 0 297 397 390 0 +0 3469446951953615e-33 .011 0 0 1 1 0
 0 50 390 614 0 17 347 340 0 +.0655 495025855593051e-49 .011 1 3061616997868385e
-31 0 -3061616997868385e-31 1 0 50 340 460 0 334 390 384 0 +0 3469446951953615e-
33 .011 0 0 1 1 0 0 50 384 455 0 338 340 468 0 +-.0655 374939945665464e-49 .011
 1 612323399573677e-31 0 -612323399573677e-31 1 0 50 468 2 0 382 384 401 0 +0 34
69446951953615e-33 -.004 0 0 1 1 0 0 14 382 1 385 ?338 375 469 6 468 -0 0 338 37
5 23 50 401 223 0 153 468 377 0 +0 3469446951953615e-33 0 0 0 1 1 0 0 50 377 254
 0 290 401 470 0 +.0695 281892564846231e-32 -.004 -1 -3061616997868385e-31 0 306
1616997868385e-31 -1 0 51 470 255 0 375 377 471 0 +.0475 -580292385486718e-33 -.
004 0 0 1 .00165 1 0 0 14 375 241 378 ?382 290 472 6 470 -0 0 382 290 23 51 471
 256 0 363 470 364 0 +-.0475 0 -.004 0 0 1 .00165 1 0 0 14 363 245 365 ?290 140
 473 6 471 -0 0 290 140 23 50 364 257 0 140 471 370 0 +-.0668605552431216 -.01 -
.004 0 -1 0 0 0 -1 50 370 258 0 354 364 356 0 +-.0695 281892564846231e-32 -.004
 -1 -612323399573677e-31 0 612323399573677e-31 -1 0 50 356 259 0 350 370 324 0 +
-.0668605552431216 .01 -.004 0 -1 0 0 0 -1 50 324 1267 0 313 356 315 0 -0 -.005
 .011 0 .707106781186548 -.707106781186548 1 0 0 50 315 1288 0 308 324 20 0 +-.0
668605552431216 .01 .006 0 .707106781186548 .707106781186548 -1 0 0 50 20 1309 0
 312 315 7 0 +0 .005 .011 0 .707106781186548 .707106781186548 1 0 0 81 1 365 140
0 316 363 474 0 360 372 475 15 473 244 0 476 363 477 17 476 0 473 476 476 0 215
 212 0 0 -15 477 246 0 228 363 0 17 228 0 477 228 228 0 478 161 0 0 +17 478 0 15
4 478 478 0 228 161 0 0 -15 154 173 0 478 153 479 15 479 174 0 480 153 0 17 480
 0 479 480 480 0 231 204 0 0 -17 231 0 481 231 231 0 480 204 0 0 +15 481 242 0 2
31 375 0 17 215 0 482 215 215 0 476 212 0 0 +15 482 10 0 215 382 483 15 483 11 0
 219 382 0 17 219 0 483 219 219 0 484 216 0 0 +17 484 0 472 484 484 0 219 216 0
 0 -15 472 240 0 484 375 481 81 1 474 317 30 363 0 365 485 486 487 83 3 475 .603
921568627451 .647058823529412 .686274509803922 81 1 485 312 30 382 0 385 218 474
 488 81 1 486 318 30 375 0 378 474 489 490 82 3 487 6 6 2 81 1 378 1402 316 375
 486 0 372 385 491 81 1 489 658 30 1 0 14 486 127 492 82 3 490 6 7 2 81 1 14 139
2 493 1 489 2 0 0 494 81 1 127 659 30 125 0 0 489 103 495 82 3 492 6 0 3 81 1 10
3 660 30 101 0 0 127 107 496 82 3 495 8 0 0 81 1 107 661 30 105 0 0 103 130 497
 82 3 496 8 1 0 82 3 497 8 2 0 80 1 493 13 498 8038 0 0 0 0 0 0 0 0 0 TTTTTTTTTT
TTTF10 98 255 11 494 80 83 85 32 66 114 97 99 107 101 116 79 255 14 498 SDL/TYSA
_UNAME81 1 385 1403 316 382 485 0 378 341 499 83 3 491 .603921568627451 .6470588
23529412 .686274509803922 83 3 499 .603921568627451 .647058823529412 .6862745098
03922 81 1 218 310 30 216 0 0 230 485 500 82 3 488 6 1 2 81 1 230 309 30 204 0 0
 214 218 501 82 3 500 6 15 1 81 1 214 308 30 212 0 0 227 230 502 82 3 501 6 14 1
 81 1 227 307 30 161 0 0 222 214 503 82 3 502 6 13 1 81 1 222 306 30 220 0 0 206
 227 504 82 3 503 6 12 1 81 1 206 304 30 203 0 0 210 222 505 82 3 504 6 11 1 81
 1 210 302 30 208 0 0 201 206 506 82 3 505 6 9 1 81 1 201 300 30 199 0 0 111 210
 507 82 3 506 6 7 1 81 1 111 294 30 109 0 0 115 201 508 82 3 507 6 5 1 81 1 115
 292 30 113 0 0 119 111 509 82 3 508 6 7 0 81 1 119 290 30 117 0 0 123 115 510 8
2 3 509 6 5 0 81 1 123 288 30 121 0 0 0 119 511 82 3 510 6 3 0 82 3 511 6 1 0 15
 469 5 0 202 382 482 17 202 0 469 223 512 113 513 199 0 0 +17 223 0 469 295 202
 109 291 220 0 0 +17 512 0 469 202 295 121 207 203 0 513 -17 513 0 355 245 116 1
21 202 199 0 0 -15 355 252 0 245 350 0 17 245 0 355 276 513 63 124 242 0 514 +17
 116 0 355 513 59 113 238 224 0 291 -17 59 0 355 116 165 57 48 270 0 238 +17 238
 0 288 25 291 57 116 224 0 515 +17 291 0 288 238 112 113 223 220 0 202 -17 25 0
 288 174 238 53 515 11 0 292 +17 515 0 46 48 47 57 25 11 0 0 -15 46 1298 0 515 3
12 0 17 48 0 46 41 515 60 59 270 0 0 -17 47 0 46 515 41 53 51 280 0 0 -17 165 0
 355 59 157 60 104 147 0 48 -17 157 0 355 165 128 101 155 162 0 0 +17 128 0 355
 157 276 125 516 192 0 158 +17 155 0 150 152 151 125 157 162 0 0 -17 276 0 355 1
28 245 81 514 273 0 516 +17 516 0 517 92 158 81 128 192 0 0 -17 158 0 517 516 10
8 125 152 159 0 155 -15 517 444 0 187 338 0 17 108 0 517 158 80 105 139 194 0 15
2 +17 80 0 517 108 187 77 88 256 0 139 +17 139 0 134 76 135 77 108 194 0 518 -17
 76 0 134 120 139 73 518 261 0 241 +17 518 0 323 88 519 77 76 261 0 0 -15 323 12
56 0 519 313 0 17 88 0 323 520 518 85 80 256 0 252 -17 519 0 323 518 520 73 96 2
67 0 0 -17 520 0 323 519 88 93 252 249 0 0 -17 96 0 521 522 241 93 519 267 0 191
 +15 521 250 0 241 354 0 17 522 0 521 66 96 97 191 188 0 523 -17 241 0 521 96 20
7 73 120 235 0 519 +17 191 0 339 252 100 93 522 188 0 520 +15 339 448 0 191 334
 0 17 252 0 339 524 191 85 520 249 0 187 +17 100 0 339 191 524 97 525 246 0 522
 +17 524 0 339 100 252 89 187 184 0 525 -17 525 0 314 84 523 89 100 246 0 0 -15
 314 1277 0 523 308 0 17 84 0 314 514 525 81 92 253 0 276 -17 523 0 314 525 514
 97 66 264 0 0 -17 514 0 314 523 84 63 276 273 0 0 -17 66 0 521 124 522 63 523 2
64 0 245 +17 124 0 521 207 66 121 245 242 0 512 -17 207 0 521 241 124 117 512 20
3 0 295 +17 295 0 469 512 223 117 211 208 0 0 -17 92 0 517 187 516 89 84 253 0 5
24 +17 187 0 517 80 92 85 524 184 0 0 +17 120 0 134 211 76 117 241 235 0 207 -17
 457 0 464 457 457 0 526 449 0 0 +15 467 1066 0 453 322 0 17 453 0 467 453 453 0
 527 419 0 0 +17 527 0 460 527 527 0 453 419 0 0 -15 460 1060 0 527 429 528 15 5
28 1061 0 448 429 0 17 448 0 528 448 448 0 529 445 0 0 +17 529 0 164 529 529 0 4
48 445 0 0 -15 164 1023 0 529 17 0 17 526 0 530 526 526 0 457 449 0 0 -15 530 10
17 0 526 389 0 83 3 462 .603921568627451 .647058823529412 .686274509803922 31 45
8 1081 0 449 0 454 0 +.0669999999999859 476714568344346e-32 .0035 1 306161699786
8385e-31 0 -3061616997868385e-31 1 0 .00165 31 454 1080 0 419 458 450 0 +.067 12
24854899334876e-28 .0035 -1 -3061616997868385e-31 0 3061616997868385e-31 -1 0 .0
0275 31 450 1078 0 445 454 415 0 +.0655 122485030690938e-27 .0035 -1 -3061616997
868385e-31 0 3061616997868385e-31 -1 0 .00275 31 415 951 0 410 450 424 0 +-.067
 -3805381910586505e-33 .0035 1 612323399573677e-31 0 -612323399573677e-31 1 0 .0
0165 31 424 950 0 406 415 420 0 +-.067 -3805381910586505e-33 .0035 1 61232339957
3677e-31 0 -612323399573677e-31 1 0 .00275 31 420 948 0 414 424 407 0 +-.0655 -3
713533400650455e-33 .0035 1 612323399573677e-31 0 -612323399573677e-31 1 0 .0027
5 31 407 863 0 178 420 179 0 --.069500000000005 -395846276048034e-32 .0035 -1 -6
12323399573677e-31 0 612323399573677e-31 -1 0 .00165 31 179 861 0 168 407 175 0
 +.069500000000005 455283249359162e-32 .0035 -1 -3061616997868385e-31 0 30616169
97868385e-31 -1 0 .00165 30 175 629 0 167 179 180 0 +.0695 281892564846231e-32 .
011 3061616997868385e-31 -1 0 83 3 444 .603921568627451 .647058823529412 .686274
509803922 15 443 886 0 413 346 531 17 413 0 443 413 413 0 532 410 0 0 +15 531 85
1 0 533 346 0 17 533 0 531 533 533 0 405 178 0 0 -17 405 0 369 405 405 0 533 178
 0 0 +15 369 797 0 405 354 521 17 532 0 431 532 532 0 413 410 0 0 -15 431 935 0
 532 425 534 15 534 936 0 423 425 0 17 423 0 534 423 423 0 535 406 0 0 +17 535 0
 438 535 535 0 423 406 0 0 -15 438 930 0 535 430 536 15 536 931 0 418 430 0 17 4
18 0 536 418 418 0 537 414 0 0 +17 537 0 383 537 537 0 418 414 0 0 -15 383 893 0
 537 338 517 83 3 440 .603921568627451 .647058823529412 .686274509803922 83 3 43
5 .603921568627451 .647058823529412 .686274509803922 81 1 99 1336 30 97 0 0 394
 91 538 82 3 399 18 3 2 81 1 91 1337 30 89 0 0 99 65 539 82 3 538 19 0 0 81 1 65
 1338 30 63 0 0 91 83 540 82 3 539 19 1 0 81 1 83 1339 30 81 0 0 65 95 541 82 3
 540 19 2 0 81 1 95 1340 30 93 0 0 83 87 542 82 3 541 19 3 0 81 1 87 1341 30 85
 0 0 95 75 543 82 3 542 19 4 0 81 1 75 1342 30 73 0 0 87 79 544 82 3 543 19 5 0
 81 1 79 1343 30 77 0 0 75 43 545 82 3 544 19 6 0 81 1 43 1344 30 53 0 0 79 40 5
46 82 3 545 19 7 0 82 3 546 19 8 0 15 396 832 0 547 389 530 17 547 0 396 547 547
 0 177 168 0 0 -17 177 0 376 177 177 0 547 168 0 0 +15 376 791 0 177 290 288 79
 15 393 SDL/TYSA_COLOUR83 3 386 .603921568627451 .647058823529412 .6862745098039
22 83 3 379 .603921568627451 .647058823529412 .686274509803922 83 3 371 .6039215
68627451 .647058823529412 .686274509803922 83 3 366 .603921568627451 .6470588235
29412 .686274509803922 83 3 359 .603921568627451 .647058823529412 .6862745098039
22 83 3 349 .603921568627451 .647058823529412 .686274509803922 83 3 343 .6039215
68627451 .647058823529412 .686274509803922 83 3 333 .603921568627451 .6470588235
29412 .686274509803922 83 3 330 .603921568627451 .647058823529412 .6862745098039
22 83 3 326 .603921568627451 .647058823529412 .686274509803922 83 3 319 .6039215
68627451 .647058823529412 .686274509803922 81 1 284 1373 30 38 0 0 286 173 548 8
2 3 302 19 22 1 82 3 548 19 21 1 79 9 301 BTI/DetId17 49 0 34 104 35 60 41 50 0
 165 +81 1 260 1371 30 144 0 0 279 286 549 82 3 287 19 20 1 81 1 279 1370 30 277
 0 0 285 260 550 82 3 549 19 19 1 81 1 285 1369 30 50 0 0 24 279 551 82 3 550 19
 18 1 81 1 24 1368 30 11 0 0 272 285 552 82 3 551 19 17 1 81 1 272 1367 30 270 0
 0 282 24 553 82 3 552 19 16 1 81 1 282 1366 30 280 0 0 186 272 554 82 3 553 19
 15 1 81 1 186 1365 30 184 0 0 190 282 555 82 3 554 19 14 1 81 1 190 1364 30 188
 0 0 258 186 556 82 3 555 19 13 1 81 1 258 1363 30 256 0 0 269 190 557 82 3 556
 19 12 1 81 1 269 1362 30 267 0 0 263 258 558 82 3 557 19 11 1 81 1 263 1361 30
 261 0 0 251 269 559 82 3 558 19 10 1 81 1 251 1360 30 249 0 0 255 263 560 82 3
 559 19 9 1 81 1 255 1359 30 253 0 0 266 251 561 82 3 560 19 8 1 81 1 266 1358 3
0 264 0 0 275 255 562 82 3 561 19 7 1 81 1 275 1357 30 273 0 0 248 266 563 82 3
 562 19 6 1 81 1 248 1356 30 246 0 0 146 275 564 82 3 563 19 5 1 81 1 146 1355 3
0 137 0 0 196 248 565 82 3 564 19 4 1 81 1 196 1354 30 194 0 0 183 146 566 82 3
 565 19 3 1 81 1 183 1353 30 147 0 0 198 196 567 82 3 566 19 2 1 81 1 198 1352 3
0 192 0 0 69 183 568 82 3 567 19 1 1 81 1 69 1351 30 67 0 0 32 198 569 82 3 568
 19 0 1 81 1 32 1350 30 70 0 0 27 69 570 82 3 569 19 15 0 82 3 570 19 14 0 81 1
 132 667 30 162 0 0 130 160 571 81 1 160 668 30 141 0 0 132 170 572 82 3 571 8 4
 1 81 1 170 669 30 159 0 0 160 166 573 82 3 572 8 5 1 82 3 573 8 6 1 82 3 172 8
 7 1 82 3 133 8 3 0 81 1 62 1347 30 60 0 0 44 31 574 81 1 44 1346 30 57 0 0 40 6
2 575 81 1 31 1348 30 42 0 0 62 27 576 82 3 574 19 11 0 82 3 576 19 12 0 82 3 57
5 19 10 0 82 3 45 19 9 0 82 3 33 19 13 0 19 18 265 0 1 0 10 6 S0 74 4 CI16 index
_map_offset0 0 1 dCCZ20 16 4 0 0 380 14 2 329 0 0 0 0 0 0 0 0 0 0 0 0 0 0 0 0 80
 1 13 577 578 8017 0 0 0 0 0 0 0 0 0 TTTTTTTTTTTTTF3 84 255 11 15 PSU Bracket79
 13 578 SDL/TYSA_NAME1 0 
