**ABCDEFGHIJKLMNOPQRSTUVWXYZabcdefghijklmnopqrstuvwxyz**************************
**PARASOLID !"#$%&'()*+,-./:;<=>?@[\]^_`{|}~0123456789**************************
**PART1;
MC=unknown;
MC_MODEL=unknown;
MC_ID=unknown;
OS=unknown;
OS_RELEASE=unknown;
FRU=Parasolid 28.1.228;
APPL=Onshape;
SITE=unknown;
USER=unknown;
FORMAT=text;
GUISE=transmit;
KEY=BTGapi::writeModels_.xmt;
FILE=BTGapi::writeModels_.xmt;
DATE=2016-04-23T18:13:46 (UTC);
**PART2;
SCH=SCH_2801228_28101;
USFLD_SIZE=0;
**PART3;
**END_OF_HEADER*****************************************************************
T51 : TRANSMIT FILE created by modeller version 280122823 SCH_2801228_28101_1300
6203 0 12 33 CCCCCCI4 mesh1006 0 I8 polyline1008 0 CCCCCCCDI5 owner1040 0 CCCCCC
I13 boundary_mesh1006 0 I17 boundary_polyline1008 0 CCCA16 index_map_offset0 0 1
 dA9 index_map82 0 A17 node_id_index_map82 0 A20 schema_embedding_map82 0 A5 chi
ld12 0 A14 lowest_node_id0 0 1 dZ1 779 2 3 0 0 0 0 0 0 1e3 1e-8 0 4 5 1 0 1 1 6
 7 8 9 0 0 10 11 12 0 0 0 0 0 0 81 255 1 2 762 13 1 14 0 0 0 15 70 11 CI9 list_t
ype0 0 1 uI10 notransmit0 0 1 lCCCDCCDI12 finger_index0 0 1 dI12 finger_block101
2 0 CZ3 0 4 T1 0 0 4 20 1 16 16 13 255 6 5 0 1 0 17 0 0 18 0 50 255 7 170 0 19 2
0 0 0 +227682456221956e-32 0 .00475 0 1 0 -1 0 0 31 255 8 696 0 21 22 0 0 +0 -.0
15 0 0 0 1 1 0 0 .00165 29 255 9 368 0 12 23 0 -.009 -.012 .00475 19 8 CCCCCCCA5
 owner12 0 Z10 3 0 1 18 0 24 V0 16 255 11 63 25 ?26 0 27 28 0 0 1 18 255 12 366
 29 30 0 31 9 ?1 81 1 29 538 32 12 0 0 33 34 35 17 255 30 0 36 37 38 12 39 40 0
 41 -18 31 91 42 43 12 44 45 ?1 81 1 42 212 32 31 0 0 46 47 48 17 43 0 49 50 51
 31 52 53 0 54 -18 44 90 55 56 31 57 23 ?1 29 45 159 0 31 58 23 .00675 0 .0075 2
9 58 158 0 59 60 45 -.011 -.012 .0095 29 23 160 0 44 45 9 -.00675 0 .002 18 59 7
4 61 62 63 64 58 ?1 29 60 157 0 65 66 58 .011 -.012 .0095 18 65 69 67 68 69 70 6
0 ?1 29 66 156 0 71 72 60 -.011 -.012 0 18 71 65 73 74 70 75 66 ?1 29 72 155 0 7
6 77 66 .011 -.012 0 18 76 78 78 79 80 63 72 ?1 29 77 154 0 81 82 72 .00875 0 .0
075 18 81 87 83 84 85 86 77 ?1 29 82 153 0 57 87 77 -.00875 0 .0075 18 57 89 88
 89 44 85 82 ?1 29 87 152 0 69 90 82 .00875 0 .0095 18 69 72 91 92 64 65 87 ?1 2
9 90 151 0 86 93 87 -.00875 0 .0095 18 86 86 94 95 81 96 90 ?1 29 93 150 0 96 97
 90 .00875 0 .002 18 96 85 98 99 86 100 93 ?1 29 97 149 0 101 102 93 -.00875 0 .
002 18 101 83 103 104 100 105 97 ?1 29 102 148 0 105 106 97 .00875 0 0 18 105 82
 107 108 101 80 102 ?1 29 106 147 0 80 109 102 -.00875 0 0 18 80 81 110 111 105
 76 106 ?1 29 109 146 0 63 112 106 .011 0 0 18 63 77 113 114 76 59 109 ?1 29 112
 145 0 75 115 109 -.011 0 0 18 75 64 116 117 71 118 112 ?1 29 115 144 0 64 119 1
12 -.011 0 .0095 18 64 73 120 121 59 69 115 ?1 29 119 143 0 70 122 115 .011 0 .0
095 18 70 68 123 124 65 71 119 ?1 29 122 142 0 85 125 119 -.00675 0 .0075 18 85
 88 46 52 57 81 122 ?1 29 125 141 0 100 126 122 .00675 0 .002 18 100 84 127 128
 96 101 125 ?1 29 126 518 0 129 130 125 .009 -.012 .00475 18 129 447 34 38 131 1
32 126 ?1 29 130 519 0 132 133 126 .009 -.012 0 18 132 456 33 134 129 135 130 ?1
 29 133 520 0 135 136 130 -.009 -.012 0 18 135 459 137 138 132 0 133 ?1 29 136 5
22 0 118 139 133 .009 -.018 .00475 18 118 465 140 141 75 142 136 ?1 29 139 523 0
 142 143 136 .009 -.018 0 18 142 462 144 145 118 146 139 ?1 29 143 524 0 146 147
 139 -.009 -.018 0 18 146 450 148 149 142 131 143 ?1 29 147 525 0 131 0 143 -.00
9 -.018 .00475 18 131 444 150 37 146 129 147 ?1 81 1 150 446 32 131 0 0 151 148
 152 17 37 0 36 153 30 131 41 154 0 155 -15 255 36 472 0 30 156 0 17 153 0 36 38
 37 118 155 157 0 0 +17 41 0 158 159 160 12 37 154 0 161 +16 154 400 162 ?41 163
 164 165 0 0 1 17 155 0 166 167 141 131 153 157 0 160 -15 166 492 0 155 168 0 17
 167 0 166 145 155 146 160 169 0 0 -17 141 0 166 155 145 118 170 171 0 172 +16 1
57 388 173 ?153 169 174 175 0 0 1 17 160 0 158 41 149 131 167 169 0 0 +15 158 47
7 0 159 176 0 17 149 0 158 160 159 146 138 164 0 177 -16 169 396 178 ?160 179 15
7 180 0 0 1 81 1 178 399 32 169 0 0 181 162 182 16 179 424 183 ?145 171 169 184
 0 0 1 30 255 180 516 0 169 175 184 0 +-.009 -.018 .001810286021211835 -18369701
9872103e-30 0 1 30 175 517 0 157 185 180 0 +.000619995795190336 -.018 .00475 1 0
 0 30 184 515 0 179 180 186 0 +0 -.018 0 1 0 0 30 186 514 0 171 184 187 0 +.009
 -.018 .001810286021211835 -183697019872103e-30 0 1 16 171 428 151 ?141 188 179
 186 0 0 1 30 187 513 0 40 186 189 0 +.000619995795190336 -.012 .00475 1 0 0 16
 40 432 190 ?39 191 21 187 0 0 1 30 189 512 0 191 187 192 0 +-.009 -.012 .001810
286021211835 -183697019872103e-30 0 1 16 191 438 193 ?161 174 40 189 0 0 1 30 19
2 510 0 174 189 194 0 +.009 -.012 .001810286021211835 -183697019872103e-30 0 1 1
6 174 414 195 ?196 157 191 192 0 0 1 30 194 509 0 188 192 197 0 +.009 -.018 .004
75 0 1 0 16 188 392 181 ?38 198 171 194 0 0 1 30 197 508 0 198 194 199 0 +.009 -
.018 0 0 1 0 16 198 420 200 ?134 164 188 197 0 0 1 30 199 507 0 164 197 165 0 +-
.009 -.018 0 0 1 0 16 164 410 201 ?138 154 198 199 0 0 1 30 165 506 0 154 199 20
2 0 +-.009 -.018 .00475 0 1 0 30 202 137 0 203 165 204 0 +-.011 -.012 .0095 0 0
 -1 16 203 52 205 ?206 207 208 202 0 0 1 30 204 138 0 209 202 210 0 +.011 -.012
 .0095 0 0 -1 16 209 13 211 ?212 213 214 204 0 0 1 30 210 139 0 208 204 215 0 +0
 -.012 0 1 0 0 16 208 49 216 ?217 203 218 210 218 218 1 30 215 140 0 219 210 220
 0 +0 -.012 .0095 1 0 0 16 219 21 221 ?222 223 224 215 0 0 1 30 220 171 0 225 21
5 226 0 +-3469446951953615e-33 0 .002 1 0 0 16 225 33 227 ?228 229 230 220 229 2
29 1 30 226 172 0 231 220 232 0 -.00875 0 .002 0 0 -1 16 231 61 233 ?234 27 235
 226 0 0 1 30 232 173 0 207 226 236 0 +-3469446951953615e-33 0 0 -1 0 0 16 207 5
5 237 ?238 239 203 232 235 235 1 30 236 174 0 240 232 241 0 +.011 0 .0095 0 0 1
 16 240 9 242 ?124 214 163 236 0 0 1 30 241 175 0 243 236 28 0 +-346944695195361
5e-33 0 .0095 -1 0 0 16 243 17 244 ?121 224 213 241 213 213 1 30 28 176 0 11 241
 245 0 +.00875 0 .0075 0 0 1 30 245 177 0 246 28 247 0 +-3469446951953615e-33 0
 .0075 -1 0 0 16 246 45 248 ?89 249 53 245 250 250 1 30 247 178 0 251 245 252 0
 --.00875 0 .0075 0 0 1 16 251 57 253 ?254 255 239 247 0 0 1 30 252 179 0 239 24
7 256 0 +-.011 0 .0095 0 0 1 16 239 56 257 ?258 251 207 252 0 0 1 30 256 180 0 2
59 252 260 0 +-.00875 0 .002 0 0 -1 16 259 59 47 ?261 235 255 256 0 0 1 30 260 1
81 0 27 256 262 0 -.00675 0 .0075 0 0 -1 16 27 62 263 ?264 11 231 260 0 0 1 30 2
62 182 0 255 260 265 0 +-.00675 0 .0075 0 0 -1 16 255 58 266 ?267 259 251 262 0
 0 1 30 265 183 0 214 262 268 0 +.011 .01227355520608556 .0095 -183697019872103e
-30 -1 0 16 214 10 269 ?68 209 240 265 0 0 1 30 268 184 0 224 265 270 0 +-.011 .
01227355520608556 .0095 -183697019872103e-30 -1 0 16 224 18 271 ?62 219 243 268
 0 0 1 30 270 185 0 223 268 272 0 +.011 .01227355520608556 0 -183697019872103e-3
0 -1 0 16 223 24 273 ?274 275 219 270 0 0 1 30 272 186 0 163 270 276 0 +-.011 .0
1227355520608556 0 -183697019872103e-30 -1 0 16 163 6 277 ?74 240 154 272 0 0 1
 31 276 187 0 230 272 278 0 +0 0 .002 0 0 -1 1 0 0 .00875 16 230 30 279 ?280 225
 275 276 0 0 1 31 278 188 0 275 276 281 0 +0 0 0 0 0 -1 1 0 0 .00875 16 275 27 2
82 ?283 230 223 278 0 0 1 31 281 189 0 284 278 285 0 +0 0 .0075 0 0 1 1 0 0 .008
75 16 284 38 286 ?287 250 288 281 0 0 1 31 285 190 0 288 281 289 0 +0 0 .0095 0
 0 1 1 0 0 .00875 16 288 35 290 ?291 284 229 285 0 0 1 31 289 191 0 249 285 22 0
 +0 0 .002 0 0 -1 -1 0 0 .00675 16 249 46 292 ?56 218 246 289 0 0 1 31 22 192 0
 53 289 8 0 +0 0 .0075 0 0 -1 1 0 0 .00675 16 53 42 293 ?52 246 250 22 0 0 1 81
 1 293 246 32 53 0 0 292 173 294 17 52 0 295 89 54 85 43 53 0 51 +16 250 41 296
 ?54 53 284 245 246 246 1 81 1 296 226 32 250 0 0 248 277 297 17 54 0 295 52 287
 31 298 250 0 264 +15 295 123 0 287 299 0 17 287 0 295 54 89 81 300 284 0 298 +1
7 298 0 301 26 264 81 54 250 0 0 -17 264 0 301 298 302 31 50 27 0 0 +15 301 135
 0 303 19 0 17 302 0 301 264 234 100 99 229 0 0 -17 50 0 49 56 43 100 264 27 0 3
02 -15 49 127 0 50 304 0 17 56 0 49 51 50 44 128 249 0 228 +17 51 0 49 43 56 85
 267 255 0 305 -17 128 0 306 99 228 100 56 249 0 50 -17 228 0 306 128 280 44 307
 225 0 267 +15 306 115 0 280 308 0 17 280 0 306 228 99 101 309 230 0 307 +17 307
 0 310 261 267 101 228 225 0 0 -17 267 0 310 307 305 44 51 255 0 0 +15 310 133 0
 238 311 0 17 305 0 310 267 254 85 89 246 0 0 -17 254 0 310 305 312 57 95 251 0
 0 +17 89 0 295 287 52 57 305 246 0 300 +17 300 0 313 95 84 57 287 284 0 254 -15
 313 119 0 95 314 0 17 95 0 313 291 300 86 254 251 0 315 -17 84 0 313 300 291 81
 26 11 0 287 -17 291 0 313 84 95 69 315 288 0 26 +17 26 0 301 316 298 69 84 11 0
 0 +17 316 0 301 303 26 70 92 213 0 0 -17 303 0 301 317 316 63 124 240 0 0 -17 9
2 0 318 315 319 69 316 213 0 291 +16 213 16 320 ?92 243 209 241 243 243 1 81 1 3
20 220 32 213 0 0 244 266 321 80 255 1 32 322 323 9000 0 0 0 0 3 6 0 0 0 FFTFTFT
TFFFFFF1 81 1 244 219 32 243 0 0 25 320 324 81 1 266 221 32 255 0 0 320 263 325
 82 255 3 321 18 19 1 81 1 263 222 32 27 0 0 266 227 326 82 3 325 18 22 1 81 1 2
27 223 32 225 0 0 263 327 328 82 3 326 18 23 1 81 1 327 224 32 229 0 0 227 248 3
29 82 3 328 18 26 1 16 229 34 327 ?99 288 225 220 225 225 1 81 1 248 225 32 246
 0 0 327 296 330 82 3 329 18 27 1 82 3 330 18 30 1 17 99 0 306 280 128 96 302 22
9 0 309 +17 309 0 331 108 104 96 280 230 0 234 -15 331 111 0 108 332 0 17 108 0
 331 283 309 105 234 231 0 333 -17 104 0 331 309 283 101 261 259 0 280 -17 234 0
 301 302 317 96 108 231 0 0 +17 317 0 301 234 303 105 114 235 0 0 +17 114 0 334
 274 333 63 317 235 0 335 -16 235 60 336 ?317 231 259 232 207 207 1 81 1 336 216
 32 235 0 0 237 253 337 81 1 237 215 32 207 0 0 233 336 338 81 1 253 217 32 251
 0 0 336 25 339 82 3 337 18 11 1 81 1 25 218 32 11 0 0 253 244 340 82 3 339 18 1
4 1 82 3 340 18 15 1 81 1 233 214 32 231 0 0 47 237 341 82 3 338 18 10 1 81 1 47
 213 32 259 0 0 42 233 342 82 3 341 18 7 1 82 3 342 18 6 1 15 334 107 0 114 343
 0 17 274 0 334 344 114 76 335 223 0 212 +17 333 0 334 114 111 105 283 275 0 317
 -17 335 0 345 124 212 63 274 223 0 303 -15 345 99 0 335 346 0 17 124 0 345 68 3
35 70 303 240 0 319 +17 212 0 345 335 68 76 347 209 0 0 +17 68 0 345 212 124 65
 319 214 0 222 +17 347 0 348 349 79 65 212 209 0 0 -15 348 373 0 350 17 0 17 349
 0 348 206 347 59 222 219 0 0 -17 79 0 348 347 350 76 344 218 0 274 +17 350 0 34
8 79 39 132 196 174 0 344 -17 344 0 334 351 274 132 79 218 0 0 -16 218 361 352 ?
79 208 249 210 208 208 1 81 1 352 546 32 218 0 0 216 353 354 81 1 216 545 32 208
 0 0 355 352 356 81 1 353 756 32 357 0 0 352 358 359 82 3 354 22 4 1 16 357 720
 353 ?360 21 0 185 0 0 1 81 1 358 757 32 361 0 362 353 363 364 82 3 359 32 0 1 1
4 255 361 732 362 ?0 168 365 6 366 -0 0 0 168 24 81 1 362 779 367 361 358 0 368
 0 369 81 1 363 758 32 156 0 370 358 371 372 82 3 364 32 0 2 14 156 468 370 ?176
 19 373 6 374 +0 0 176 19 24 81 1 370 775 367 156 363 0 375 376 377 81 1 371 759
 32 343 0 378 363 379 380 82 3 372 32 2 2 14 343 104 378 ?332 381 382 6 383 -0 0
 332 381 24 81 1 378 767 367 343 371 0 384 385 386 81 1 379 760 32 21 0 0 371 0
 387 82 3 380 32 3 2 16 21 713 379 ?388 40 357 8 0 0 1 82 3 387 32 2 1 17 388 0
 382 388 388 0 389 21 0 0 +15 382 694 0 388 343 334 17 389 0 390 389 389 0 388 2
1 0 0 -15 390 731 0 389 361 0 80 1 367 0 391 8001 0 0 0 0 3 5 0 0 0 FFFFTFTFFFFF
FF2 81 1 384 766 367 381 392 0 393 378 394 81 1 385 768 367 332 395 0 378 396 39
7 83 255 3 386 .603921568627451 .647058823529412 .686274509803922 14 332 108 385
 ?308 343 331 6 398 -0 0 308 343 24 81 1 395 233 32 332 0 385 399 400 401 81 1 3
96 769 367 308 402 0 385 403 404 83 3 397 .603921568627451 .647058823529412 .686
274509803922 14 308 112 396 ?314 332 306 6 405 +0 0 314 332 24 81 1 402 238 32 3
08 0 396 406 407 408 81 1 403 770 367 314 400 0 396 409 410 83 3 404 .6039215686
27451 .647058823529412 .686274509803922 14 314 116 403 ?299 308 313 6 411 -0 0 2
99 308 24 81 1 400 235 32 314 0 403 395 392 412 81 1 409 771 367 299 407 0 403 4
13 414 83 3 410 .603921568627451 .647058823529412 .686274509803922 14 299 120 40
9 ?304 314 295 6 415 +0 0 304 314 24 81 1 407 239 32 299 0 409 402 282 416 81 1
 413 772 367 304 406 0 409 417 418 83 3 414 .603921568627451 .647058823529412 .6
86274509803922 14 304 124 413 ?311 299 49 6 419 -0 0 311 299 24 81 1 406 237 32
 304 0 413 392 402 420 81 1 417 773 367 311 421 0 413 375 422 83 3 418 .60392156
8627451 .647058823529412 .686274509803922 14 311 132 417 ?19 304 310 6 7 +19 19
 19 304 24 81 1 421 199 32 311 0 417 242 423 424 81 1 375 774 367 19 423 0 417 3
70 425 83 3 422 .603921568627451 .647058823529412 .686274509803922 14 19 134 375
 ?156 311 301 6 7 +311 311 156 311 24 81 1 423 200 32 19 0 375 421 110 426 83 3
 425 .603921568627451 .647058823529412 .686274509803922 81 1 110 201 32 80 0 0 4
23 107 427 82 3 426 18 3 2 81 1 107 202 32 105 0 0 110 103 428 82 3 427 18 10 0
 81 1 103 203 32 101 0 0 107 98 429 82 3 428 18 11 0 81 1 98 204 32 96 0 0 103 9
4 430 82 3 429 18 14 0 81 1 94 205 32 86 0 0 98 91 431 82 3 430 18 15 0 81 1 91
 206 32 69 0 0 94 88 432 82 3 431 18 18 0 81 1 88 207 32 57 0 0 91 83 433 82 3 4
32 18 19 0 81 1 83 208 32 81 0 0 88 55 434 82 3 433 18 22 0 81 1 55 209 32 44 0
 0 83 127 435 82 3 434 18 23 0 81 1 127 210 32 100 0 0 55 46 436 82 3 435 18 26
 0 81 1 46 211 32 85 0 0 127 42 437 82 3 436 18 27 0 82 3 437 18 30 0 13 24 4 0
 0 0 0 0 0 10 17 14 17 128 438 ?439 0 348 6 440 -0 0 439 0 24 81 1 438 763 367 1
7 355 0 0 441 442 14 439 92 441 ?346 17 443 6 20 -0 0 346 17 24 50 440 136 0 17
 374 419 0 +0 -.012 .0095 0 1 0 0 0 1 50 374 500 0 156 444 440 0 +.0006199957951
90336 -.018 .00475 0 0 1 1 0 0 51 255 419 161 0 304 440 415 0 +0 0 .0075 0 0 -1
 .00675 -1 0 0 50 415 162 0 299 419 411 0 +-3469446951953615e-33 0 .0075 0 0 1 1
 0 0 51 411 163 0 314 415 405 0 +0 0 .0075 0 0 1 .00875 1 0 0 50 405 164 0 308 4
11 398 0 +-3469446951953615e-33 0 .002 0 0 -1 1 0 0 51 398 165 0 332 405 383 0 +
0 0 .002 0 0 -1 .00875 -1 0 0 50 383 166 0 343 398 445 0 +-3469446951953615e-33
 0 0 0 0 1 1 0 0 50 445 167 0 381 383 446 0 +-3469446951953615e-33 0 .0095 0 0 1
 1 0 0 14 381 100 384 ?343 346 318 6 445 +0 0 343 346 24 50 446 168 0 346 445 20
 0 +.011 .01227355520608556 .0095 1 -183697019872103e-30 0 183697019872103e-30 1
 0 14 346 96 393 ?381 439 345 6 446 +0 0 381 439 24 50 20 169 0 439 446 7 0 +-.0
11 .01227355520608556 .0095 1 -183697019872103e-30 0 183697019872103e-30 1 0 81
 1 393 765 367 346 399 0 441 384 447 81 1 399 232 32 346 0 393 448 395 449 81 1
 441 764 367 439 448 0 438 393 450 83 3 447 .603921568627451 .647058823529412 .6
86274509803922 81 1 448 231 32 439 0 441 269 399 451 83 3 450 .603921568627451 .
647058823529412 .686274509803922 81 1 269 230 32 214 0 0 273 448 452 82 3 451 18
 5 2 81 1 273 229 32 223 0 0 271 269 453 82 3 452 18 39 1 81 1 271 228 32 224 0
 0 277 273 454 82 3 453 18 37 1 81 1 277 227 32 163 0 0 296 271 455 82 3 454 18
 35 1 82 3 455 18 33 1 82 3 449 18 7 2 15 318 103 0 319 381 0 17 319 0 318 92 22
2 70 68 214 0 316 -17 222 0 318 319 62 65 349 219 0 347 +17 62 0 318 222 121 59
 456 224 0 457 +17 121 0 318 62 315 64 312 243 0 456 +17 456 0 443 117 457 64 62
 224 0 258 -17 457 0 443 456 74 59 206 203 0 349 -15 443 95 0 117 439 0 17 74 0
 443 457 117 71 458 163 0 206 +17 206 0 348 217 349 71 457 203 0 459 +17 217 0 3
48 161 206 135 459 208 0 0 +17 459 0 334 458 138 71 217 208 0 0 -17 458 0 334 11
1 459 75 74 163 0 238 -17 138 0 334 459 177 135 149 164 0 159 +17 177 0 334 138
 351 146 145 179 0 167 -17 159 0 158 149 41 135 161 191 0 217 -17 161 0 348 39 2
17 12 159 191 0 0 +17 39 0 348 350 161 129 30 40 0 0 +17 351 0 334 177 344 142 1
34 198 0 170 -17 145 0 166 141 167 142 177 179 0 351 +17 134 0 460 196 170 132 3
51 198 0 350 +17 170 0 460 134 172 142 141 171 0 0 -15 460 487 0 196 461 0 17 17
2 0 460 170 196 118 38 188 0 153 -17 196 0 460 172 134 129 350 174 0 39 +17 38 0
 36 30 153 129 172 188 0 196 +14 461 483 462 ?168 176 460 6 463 -0 0 168 176 24
 81 1 462 777 367 461 464 0 376 368 465 14 168 488 368 ?361 461 166 6 466 +0 0 3
61 461 24 14 176 473 376 ?461 156 158 6 444 +0 0 461 156 24 50 463 503 0 461 466
 444 0 +.009 -.018 .001810286021211835 -1 0 -183697019872103e-30 -18369701987210
3e-30 0 1 50 466 505 0 168 366 463 0 +-3469446951953615e-33 -.018 .00475 0 -1 0
 1 0 0 50 444 501 0 176 463 374 0 +-.009 -.018 .001810286021211835 -1 0 -1836970
19872103e-30 -183697019872103e-30 0 1 51 366 750 0 361 0 466 0 +0 -.015 -.038506
38713233745 0 0 1 .00165 1 0 0 81 1 376 776 367 176 467 0 370 462 468 81 1 467 4
76 32 176 0 376 140 464 469 83 3 468 .603921568627451 .647058823529412 .68627450
9803922 81 1 140 467 32 118 0 0 144 467 470 81 1 464 486 32 461 0 462 467 471 47
2 82 3 469 21 4 2 81 1 471 491 32 168 0 368 464 473 474 82 3 472 21 5 2 81 1 368
 778 367 168 471 0 462 362 475 81 1 473 535 32 1 0 14 471 137 476 82 3 474 21 2
 2 81 1 14 761 477 1 473 2 0 0 478 81 1 137 536 32 135 0 0 473 33 479 82 3 476 1
8 1 3 81 1 33 537 32 132 0 0 137 29 480 82 3 479 22 0 0 82 3 480 22 1 0 80 1 477
 13 481 8038 0 0 0 0 0 0 0 0 0 TTTTTTTTTTTTTF10 98 255 6 478 80 97 114 116 32 50
 79 255 14 481 SDL/TYSA_UNAME83 3 475 .603921568627451 .647058823529412 .6862745
09803922 81 1 144 464 32 142 0 0 148 140 482 82 3 470 21 7 0 81 1 148 452 32 146
 0 0 150 144 483 82 3 482 21 3 0 82 3 483 21 1 0 83 3 465 .603921568627451 .6470
58823529412 .686274509803922 17 111 0 334 333 458 80 238 207 0 283 -17 238 0 310
 258 261 75 111 207 0 0 +17 258 0 310 312 238 64 117 239 0 0 +17 261 0 310 238 3
07 80 104 259 0 0 +17 312 0 310 254 258 86 121 243 0 0 -17 117 0 443 74 456 75 2
58 239 0 458 -17 283 0 331 104 108 80 333 275 0 261 +17 315 0 318 121 92 86 291
 288 0 312 -81 1 355 544 32 17 0 438 195 216 484 83 3 442 .603921568627451 .6470
58823529412 .686274509803922 81 1 195 542 32 174 0 0 193 355 485 82 3 484 22 1 2
 81 1 193 541 32 191 0 0 190 195 486 82 3 485 22 2 1 81 1 190 540 32 40 0 0 34 1
93 487 82 3 486 22 1 1 81 1 34 539 32 129 0 0 29 190 488 82 3 487 22 0 1 82 3 48
8 22 3 0 81 1 242 198 32 240 0 0 257 421 489 82 3 424 18 1 2 81 1 257 197 32 239
 0 0 123 242 490 82 3 489 18 3 1 81 1 123 196 32 70 0 0 113 257 491 82 3 490 18
 1 1 81 1 113 195 32 63 0 0 120 123 492 82 3 491 18 7 0 81 1 120 194 32 64 0 0 1
16 113 493 82 3 492 18 5 0 81 1 116 193 32 75 0 0 78 120 494 82 3 493 18 3 0 81
 1 78 80 32 76 0 0 61 116 495 82 3 494 18 1 0 81 1 61 76 32 59 0 0 67 78 496 82
 3 495 6 6 0 81 1 67 71 32 65 0 0 73 61 497 82 3 496 6 5 0 81 1 73 67 32 71 0 0
 205 67 498 82 3 497 6 7 0 81 1 205 54 32 203 0 0 221 73 499 82 3 498 6 4 0 81 1
 221 23 32 219 0 0 211 205 500 82 3 499 6 2 1 81 1 211 15 32 209 0 0 0 221 501 8
2 3 500 6 7 1 82 3 501 6 3 1 81 1 392 236 32 381 0 384 400 406 502 82 3 420 18 1
7 2 82 3 502 18 15 2 81 1 282 241 32 275 0 0 407 279 503 82 3 416 18 21 2 81 1 2
79 242 32 230 0 0 282 290 504 82 3 503 18 41 1 81 1 290 243 32 288 0 0 279 286 5
05 82 3 504 18 43 1 81 1 286 244 32 284 0 0 290 292 506 82 3 505 18 45 1 81 1 29
2 245 32 249 0 0 286 293 507 82 3 506 18 47 1 82 3 507 18 49 1 82 3 412 18 13 2
 82 3 408 18 19 2 82 3 401 18 9 2 83 3 394 .603921568627451 .647058823529412 .68
6274509803922 79 15 391 SDL/TYSA_COLOUR83 3 377 .603921568627451 .64705882352941
2 .686274509803922 15 373 703 0 508 156 36 17 508 0 373 508 508 0 360 357 0 0 -1
7 360 0 365 360 360 0 508 357 0 0 +15 365 730 0 360 361 390 83 3 369 .6039215686
27451 .647058823529412 .686274509803922 31 185 753 0 357 0 175 0 +0 -.015 .00475
 0 0 1 1 0 0 .00165 82 3 356 22 3 1 82 3 324 18 18 1 79 9 323 BTI/DetId82 3 297
 18 31 1 81 1 173 391 32 157 0 0 293 181 509 82 3 294 18 51 1 81 1 181 395 32 18
8 0 0 173 178 510 82 3 509 21 7 1 82 3 510 21 3 1 81 1 201 413 32 164 0 0 162 20
0 511 81 1 162 403 32 154 0 0 178 201 512 81 1 200 423 32 198 0 0 201 183 513 82
 3 511 21 0 1 81 1 183 427 32 179 0 0 200 151 514 82 3 513 21 1 1 81 1 151 431 3
2 171 0 0 183 150 515 82 3 514 21 5 1 82 3 515 21 11 1 82 3 512 21 2 1 82 3 182
 21 9 1 82 3 152 21 5 0 82 3 48 18 31 0 82 3 35 22 2 0 19 18 1 0 1 0 10 6 S0 74
 4 CI16 index_map_offset0 0 1 dCCZ20 16 4 0 0 379 14 2 362 0 0 0 0 0 0 0 0 0 0 0
 0 0 0 0 0 80 1 13 516 517 8017 0 0 0 0 0 0 0 0 0 TTTTTTTTTTTTTF3 84 255 6 15 Pa
rt 279 13 517 SDL/TYSA_NAME1 0 
