**ABCDEFGHIJKLMNOPQRSTUVWXYZabcdefghijklmnopqrstuvwxyz**************************
**PARASOLID !"#$%&'()*+,-./:;<=>?@[\]^_`{|}~0123456789**************************
**PART1;
MC=unknown;
MC_MODEL=unknown;
MC_ID=unknown;
OS=unknown;
OS_RELEASE=unknown;
FRU=Parasolid 28.1.228;
APPL=Onshape;
SITE=unknown;
USER=unknown;
FORMAT=text;
GUISE=transmit;
KEY=BTGapi::writeModels_.xmt;
FILE=BTGapi::writeModels_.xmt;
DATE=2016-04-23T18:24:23 (UTC);
**PART2;
SCH=SCH_2801228_28101;
USFLD_SIZE=0;
**PART3;
**END_OF_HEADER*****************************************************************
T51 : TRANSMIT FILE created by modeller version 280122823 SCH_2801228_28101_1300
6203 0 12 33 CCCCCCI4 mesh1006 0 I8 polyline1008 0 CCCCCCCDI5 owner1040 0 CCCCCC
I13 boundary_mesh1006 0 I17 boundary_polyline1008 0 CCCA16 index_map_offset0 0 1
 dA9 index_map82 0 A17 node_id_index_map82 0 A20 schema_embedding_map82 0 A5 chi
ld12 0 A14 lowest_node_id0 0 1 dZ1 2766 2 3 0 0 0 0 0 0 1e3 1e-8 0 4 0 1 0 1 1 5
 6 7 8 0 0 9 10 11 0 0 0 0 0 0 81 255 1 2 2735 12 1 13 0 0 0 14 70 11 CI9 list_t
ype0 0 1 uI10 notransmit0 0 1 lCCCDCCDI12 finger_index0 0 1 dI12 finger_block101
2 0 CZ3 0 4 T1 0 0 4 20 1 15 15 13 255 5 266 0 1 0 16 0 0 17 0 50 255 6 257 0 18
 19 0 0 +1013357345006386e-20 .01 .015 0 1 0 0 0 1 31 255 7 1325 0 20 21 0 0 +-5
e-4 .006 .0075 -1 0 183697019872103e-30 183697019872103e-30 0 1 .00175 29 255 8
 1599 0 11 22 0 -.0075 .00395903202315564 .01000754522408454 19 8 CCCCCCCA5 owne
r12 0 Z9 84 0 1 17 0 23 V0 16 255 10 228 24 ?25 0 26 27 0 0 1 18 255 11 1597 28
 29 0 30 8 ?1 81 1 28 2681 31 11 0 0 32 33 34 17 255 29 0 35 36 37 11 38 39 0 40
 -18 30 488 41 42 11 43 22 ?1 81 1 41 2655 31 30 0 0 44 45 46 17 42 0 47 48 49 3
0 50 51 0 52 -18 43 459 53 54 30 55 56 ?1 29 22 493 0 30 56 8 -5e-4 .00296976941
10229 .015 29 56 460 0 43 57 22 5e-4 .0029697694110229 0 29 57 213 0 58 59 56 .0
075 .01 0 18 58 171 60 61 62 63 57 ?1 29 59 214 0 63 64 57 .0075 -.01 0 18 63 17
5 65 66 58 67 59 ?1 29 64 215 0 67 68 59 .015 -.01 0 18 67 179 69 70 63 71 64 ?1
 29 68 216 0 71 72 64 .015 -.016 0 18 71 183 73 74 67 75 68 ?1 29 72 217 0 75 76
 68 -.015 -.016 0 18 75 187 77 78 71 79 72 ?1 29 76 218 0 79 80 72 -.015 -.01 0
 18 79 191 81 82 75 83 76 ?1 29 80 219 0 83 84 76 -.0075 -.01 0 18 83 195 85 86
 79 87 80 ?1 29 84 220 0 87 88 80 -.0075 .01 0 18 87 199 89 25 83 90 84 ?1 29 88
 80 0 55 91 84 .0075 .01 .015 18 55 78 92 93 43 94 88 ?1 29 91 75 0 94 95 88 .00
75 -.01 .015 18 94 73 96 97 55 98 91 ?1 29 95 70 0 98 99 91 .015 -.01 .015 18 98
 68 100 101 94 102 95 ?1 29 99 65 0 102 103 95 .015 -.016 .015 18 102 63 104 105
 98 106 99 ?1 29 103 60 0 106 107 99 -.015 -.016 .015 18 106 58 108 109 102 110
 103 ?1 29 107 55 0 110 111 103 -.015 -.01 .015 18 110 53 112 113 106 114 107 ?1
 29 111 50 0 114 115 107 -.0075 -.01 .015 18 114 48 116 117 110 62 111 ?1 29 115
 45 0 62 118 111 -.0075 .01 .015 18 62 43 119 120 114 58 115 ?1 29 118 738 0 90
 121 115 -5e-4 .0029697694110229 0 18 90 651 122 48 87 123 118 ?1 29 121 740 0 1
23 124 118 5e-4 .0029697694110229 .015 18 123 658 125 126 90 127 121 ?1 29 124 7
41 0 127 128 121 5e-4 .01 0 18 127 662 129 130 123 131 124 ?1 29 128 742 0 131 1
32 124 5e-4 .01 .015 18 131 659 133 134 127 135 128 ?1 29 132 743 0 135 136 128
 -5e-4 .01 .015 18 135 655 137 49 131 138 132 ?1 29 136 744 0 138 139 132 -5e-4
 .01 0 18 138 652 140 141 135 142 136 ?1 29 139 1855 0 143 144 136 -.0075 .00715
111387677338 .01052130272830002 18 143 1773 145 146 147 148 139 ?1 29 144 1857 0
 148 149 139 -.0075 .002807918146382265 .00698624249578453 18 148 1761 150 37 14
3 151 144 ?1 29 149 1858 0 151 152 144 -.0075 .00484888612322662 .00447869727169
999 18 151 1755 153 154 148 155 149 ?1 29 152 1859 0 155 156 149 -.0075 .0080409
6797684435 .00499245477591546 18 155 1749 157 158 151 159 152 ?1 29 156 1860 0 1
59 160 152 -.0075 .00919208185361773 .00801375750421547 18 159 1743 161 162 155
 0 156 ?1 29 160 1861 0 142 163 156 -.005 .00715111387677338 .01052130272830002
 18 142 1740 164 165 138 166 160 ?1 29 163 1862 0 166 167 160 -.005 .00395903202
315564 .01000754522408454 18 166 1770 168 36 142 169 163 ?1 29 167 1863 0 169 17
0 163 -.005 .002807918146382265 .00698624249578453 18 169 1764 171 172 166 173 1
67 ?1 29 170 1864 0 173 174 167 -.005 .00484888612322662 .00447869727169999 18 1
73 1758 175 176 169 177 170 ?1 29 174 1865 0 177 178 170 -.005 .0080409679768443
5 .00499245477591546 18 177 1752 179 180 173 147 174 ?1 29 178 1866 0 147 0 174
 -.005 .00919208185361773 .00801375750421547 18 147 1746 181 182 177 143 178 ?1
 81 1 181 2703 31 147 0 0 161 157 183 17 182 0 184 185 186 147 162 187 0 188 -15
 255 184 1780 0 186 189 0 17 185 0 184 146 182 142 190 191 0 0 +17 186 0 184 182
 146 159 192 193 0 194 -17 162 0 195 196 188 159 182 187 0 186 +16 187 1650 197
 ?162 20 198 199 0 0 1 17 188 0 195 162 180 147 200 201 0 190 +15 195 1785 0 196
 202 0 17 180 0 195 188 196 177 158 198 0 200 -17 200 0 203 204 190 177 188 201
 0 205 -16 201 1730 206 ?188 207 191 208 0 0 1 17 190 0 203 200 209 147 185 191
 0 0 -15 203 1816 0 190 210 211 17 209 0 203 190 212 142 213 214 0 185 -16 191 1
710 215 ?185 201 216 217 0 0 1 81 1 215 2695 31 191 0 0 218 219 220 16 216 1694
 221 ?222 191 39 223 0 0 1 30 255 217 1854 0 191 224 208 0 +-.005 .0081715978651
9556 .00926753011625774 0 -.631260755806336 .77557066614127 31 224 2112 0 225 22
6 217 0 +.0075 .006 .0075 1 0 0 0 1 0 .0027 30 208 1853 0 201 217 227 0 +-.005 .
00861652491523104 .00650310614006546 0 .3560335214051915 .934473184011087 30 227
 1852 0 207 208 228 0 +-.005 .00644492705003549 .00473557602380772 0 .9872942772
11528 .1589025178698165 16 207 1726 229 ?205 230 201 227 0 0 1 30 228 1851 0 230
 227 231 0 +-.005 .003828402134804445 .00573246988374226 0 .631260755806336 -.77
557066614127 16 230 1722 232 ?233 234 207 228 0 0 1 30 231 1850 0 234 228 235 0
 +-.005 .003383475084768955 .00849689385993454 0 -.356033521405191 -.93447318401
1087 16 234 1718 236 ?237 214 230 231 0 0 1 30 235 1849 0 214 231 238 0 +-.005 .
00555507294996451 .01026442397619228 0 -.987294277211527 -.158902517869818 16 21
4 1714 219 ?213 239 234 235 0 0 1 31 238 1848 0 239 235 240 0 +-.005 .006 .0075
 1 0 0 0 0 -1 .00175 16 239 1704 218 ?241 242 214 238 0 0 1 30 240 1847 0 193 23
8 243 0 +-.0075 .00817159786519556 .00926753011625774 0 -.631260755806336 .77557
066614127 16 193 1644 33 ?192 244 245 240 0 0 1 30 243 1846 0 244 240 246 0 +-.0
075 .00861652491523104 .00650310614006546 0 .3560335214051915 .934473184011087 1
6 244 1654 247 ?194 248 193 243 0 0 1 30 246 1845 0 248 243 249 0 +-.0075 .00644
492705003549 .00473557602380772 0 .987294277211528 .1589025178698165 16 248 1664
 250 ?251 252 244 246 0 0 1 30 249 1844 0 252 246 253 0 +-.0075 .003828402134804
445 .00573246988374226 0 .631260755806336 -.77557066614127 16 252 1674 254 ?255
 39 248 249 0 0 1 30 253 1843 0 39 249 223 0 +-.0075 .003383475084768955 .008496
89385993454 0 -.356033521405191 -.934473184011087 16 39 1684 256 ?38 216 252 253
 0 0 1 30 223 1842 0 216 253 257 0 +-.0075 .00555507294996451 .01026442397619228
 0 -.987294277211527 -.158902517869818 30 257 1840 0 242 223 258 0 +-.005 .00715
111387677338 .01052130272830002 -1 0 0 16 242 1700 259 ?146 260 239 257 0 0 1 30
 258 1839 0 260 257 261 0 +-.005 .00395903202315564 .01000754522408454 -1 0 0 16
 260 1690 262 ?40 263 242 258 0 0 1 30 261 1838 0 263 258 264 0 +-.005 .00280791
8146382265 .00698624249578453 -1 0 0 16 263 1680 265 ?37 266 260 261 0 0 1 30 26
4 1837 0 266 261 267 0 +-.005 .00484888612322662 .00447869727169999 -1 0 0 16 26
6 1670 268 ?154 198 263 264 0 0 1 30 267 1836 0 198 264 199 0 +-.005 .0080409679
7684435 .00499245477591546 -1 0 0 16 198 1660 269 ?158 187 266 267 0 0 1 30 199
 1835 0 187 267 270 0 +-.005 .00919208185361773 .00801375750421547 -1 0 0 31 270
 1419 0 271 199 272 0 +5e-4 .006 .0075 -1 0 183697019872103e-30 183697019872103e
-30 0 1 .00175 16 271 1366 273 ?274 275 20 270 0 0 1 30 272 731 0 276 270 277 0
 +-5e-4 .01 .0075 183697019872103e-30 0 1 16 276 625 278 ?49 279 280 272 0 0 1 3
0 277 729 0 279 272 281 0 +5e-4 .01 .0075 183697019872103e-30 0 1 16 279 611 282
 ?283 284 276 277 0 0 1 30 281 728 0 284 277 285 0 +5e-4 0 0 0 1 0 16 284 571 28
6 ?287 288 279 281 0 0 1 30 285 727 0 288 281 289 0 +5e-4 0 .015 0 1 0 16 288 54
9 290 ?134 51 284 285 0 0 1 30 289 726 0 51 285 291 0 +-5e-4 0 .015 0 1 0 16 51
 560 292 ?50 293 288 289 0 0 1 30 291 725 0 293 289 294 0 +-5e-4 0 0 0 1 0 16 29
3 545 295 ?141 296 51 291 0 0 1 30 294 724 0 296 291 297 0 +5e-4 .00296976941102
29 .015 0 0 -1 16 296 602 298 ?299 300 293 294 0 0 1 30 297 723 0 300 294 301 0
 +-5e-4 .0029697694110229 .015 0 0 -1 16 300 564 302 ?48 303 296 297 0 0 1 30 30
1 8 0 304 297 305 0 +1013357345006386e-20 .01 .015 1 0 0 16 304 7 306 ?307 308 3
09 301 309 309 1 30 305 12 0 308 301 310 0 +-.0075 -.00109983721300845 .015 0 -1
 0 16 308 11 311 ?117 312 304 305 0 0 1 30 310 16 0 312 305 313 0 +-.01223120853
09041 -.01 .015 1 0 0 16 312 15 314 ?315 316 308 310 0 0 1 30 313 20 0 316 310 3
17 0 +-.015 -.01293147723196888 .015 0 -1 0 16 316 19 318 ?109 319 312 313 0 0 1
 30 317 24 0 319 313 320 0 +-.0001925475984750215 -.016 .015 1 0 0 16 319 23 321
 ?105 322 316 317 0 0 1 30 320 28 0 322 317 323 0 +.015 -.01677810494793985 .015
 0 -1 0 16 322 27 324 ?325 326 319 320 0 0 1 30 323 32 0 326 320 327 0 +.0119481
068629648 -.01 .015 1 0 0 16 326 31 328 ?329 330 322 323 0 0 1 30 327 36 0 330 3
23 331 0 +.0075 -.00110016278699155 .015 0 -1 0 16 330 35 332 ?333 334 326 327 0
 0 1 31 331 40 0 334 327 335 0 +0 -.00115 .015 0 0 1 1 0 0 .00415 16 334 39 336
 ?337 338 330 331 0 0 1 30 335 212 0 339 331 340 0 +1013357345006386e-20 .01 0 1
 0 0 16 339 167 341 ?342 343 303 335 303 303 1 30 340 211 0 343 335 344 0 +-.007
5 -.00109983721300845 0 0 -1 0 16 343 163 345 ?346 347 339 340 0 0 1 30 344 210
 0 347 340 348 0 +-.0122312085309041 -.01 0 1 0 0 16 347 159 349 ?350 351 343 34
4 0 0 1 30 348 209 0 351 344 352 0 +-.015 -.01293147723196888 0 0 -1 0 16 351 15
5 353 ?78 354 347 348 0 0 1 30 352 208 0 354 348 355 0 +-.0001925475984750215 -.
016 0 1 0 0 16 354 151 356 ?357 358 351 352 0 0 1 30 355 207 0 358 352 359 0 +.0
15 -.01677810494793985 0 0 -1 0 16 358 147 360 ?361 362 354 355 0 0 1 30 359 206
 0 362 355 363 0 +.0119481068629648 -.01 0 1 0 0 16 362 143 364 ?365 366 358 359
 0 0 1 30 363 205 0 366 359 367 0 +.0075 -.00110016278699155 0 0 -1 0 16 366 139
 368 ?369 370 362 363 0 0 1 31 367 204 0 370 363 371 0 +0 -.00115 0 0 0 1 1 0 0
 .00415 16 370 135 372 ?373 309 366 367 0 0 1 30 371 258 0 338 367 374 0 +.0075
 .01 .015 0 0 -1 16 338 221 375 ?376 377 334 371 0 0 1 30 374 259 0 377 371 378
 0 +.0075 -.01 .015 0 0 -1 16 377 222 379 ?66 380 338 374 0 0 1 30 378 260 0 380
 374 381 0 +.015 -.01 .015 0 0 -1 16 380 223 382 ?70 383 377 378 0 0 1 30 381 26
1 0 383 378 384 0 +.015 -.016 .015 0 0 -1 16 383 224 385 ?74 386 380 381 0 0 1 3
0 384 262 0 386 381 387 0 +-.015 -.016 .015 0 0 -1 16 386 225 388 ?389 390 383 3
84 0 0 1 30 387 263 0 390 384 391 0 +-.015 -.01 .015 0 0 -1 16 390 226 392 ?82 2
6 386 387 0 0 1 30 391 264 0 26 387 27 0 +-.0075 -.01 .015 0 0 -1 16 26 227 393
 ?86 10 390 391 0 0 1 30 27 265 0 10 391 394 0 +-.0075 .01 .015 0 0 -1 31 394 96
8 0 280 27 21 0 -.01125 -.016 .0075 0 1 0 0 0 1 .00175 16 280 991 395 ?396 276 2
75 394 0 0 1 31 21 1173 0 275 394 7 0 +-.01125 -.016 .0075 0 1 0 0 0 1 .00175 16
 275 1190 397 ?398 280 271 21 0 0 1 81 1 397 2675 31 275 0 0 399 400 401 17 398
 0 402 398 398 0 403 275 0 0 +15 402 1171 0 398 404 405 17 403 0 406 403 403 0 3
98 275 0 0 -15 406 1208 0 403 407 0 14 255 407 1209 408 ?409 410 411 5 412 -0 0
 409 410 23 81 1 408 2752 413 407 400 0 414 415 416 14 409 1397 415 ?189 407 417
 5 418 -419 419 189 407 23 14 410 690 414 ?407 420 421 5 422 -0 0 407 420 23 15
 411 2257 0 423 407 406 51 255 412 1227 0 407 418 424 0 +-.01125 -.035 .0075 0 1
 0 .00175 0 0 1 13 23 85 0 0 0 0 0 0 9 16 14 16 1018 425 ?426 0 427 5 424 +0 0 4
26 0 23 81 1 425 2736 413 16 399 0 0 428 429 14 426 246 428 ?419 16 430 5 19 -0
 0 419 16 23 15 427 1006 0 396 16 431 51 424 1028 0 16 412 432 0 -.01125 -.05296
3943389495 .0075 0 1 0 .00175 0 0 1 50 432 720 0 420 424 422 0 +5e-4 0 .0075 -1
 0 183697019872103e-30 183697019872103e-30 0 1 14 420 700 433 ?410 434 435 5 432
 +0 0 410 434 23 50 422 718 0 410 432 436 0 +-5e-4 0 .0075 -1 0 183697019872103e
-30 183697019872103e-30 0 1 50 436 2 0 437 422 438 0 +3469446951953615e-33 -.003
 .015 0 0 1 1 0 0 14 437 1 439 ?18 440 441 5 436 +0 0 18 440 23 50 438 203 0 434
 436 442 0 +3469446951953615e-33 -.003 0 0 0 1 1 0 0 14 434 121 443 ?420 444 445
 5 438 -0 0 420 444 23 51 442 249 0 444 438 446 0 -0 -.00115 .015 0 0 -1 .00415
 -1 0 0 14 444 230 447 ?434 448 449 5 442 +0 0 434 448 23 50 446 250 0 448 442 4
50 0 +.0075 -.00110016278699155 .015 1 0 0 0 0 -1 14 448 234 451 ?444 452 453 5
 446 +0 0 444 452 23 50 450 251 0 452 446 454 0 +.0119481068629648 -.01 .015 0 1
 0 0 0 1 14 452 236 455 ?448 456 457 5 450 +0 0 448 456 23 50 454 252 0 456 450
 458 0 +.015 -.01677810494793985 .015 1 0 0 0 0 -1 14 456 238 459 ?452 404 460 5
 454 +0 0 452 404 23 50 458 253 0 404 454 461 0 +-.0001925475984750215 -.016 .01
5 0 1 0 0 0 1 14 404 240 462 ?456 463 402 5 458 -0 0 456 463 23 50 461 254 0 463
 458 464 0 +-.015 -.01293147723196888 .015 1 0 0 0 0 -1 14 463 242 465 ?404 466
 467 5 461 -0 0 404 466 23 50 464 255 0 466 461 19 0 +-.0122312085309041 -.01 .0
15 0 1 0 0 0 1 14 466 244 468 ?463 18 469 5 464 +0 0 463 18 23 50 19 256 0 426 4
64 6 0 +-.0075 -.00109983721300845 .015 1 0 0 0 0 -1 81 1 468 2742 413 466 470 0
 471 465 472 14 18 248 471 ?466 437 473 5 6 +440 440 466 437 23 15 469 2265 0 47
4 466 475 17 474 0 469 474 474 0 476 477 0 0 -15 475 243 0 478 466 0 17 478 0 47
5 113 86 79 350 347 0 0 -17 113 0 475 315 478 110 82 390 0 479 -17 86 0 475 478
 315 83 480 26 0 346 +17 350 0 445 481 482 83 478 347 0 0 +15 445 134 0 373 434
 0 17 481 0 445 342 350 87 346 343 0 483 -17 482 0 445 350 484 79 78 351 0 478 -
17 484 0 445 482 361 75 357 354 0 0 -17 78 0 467 485 82 75 482 351 0 389 +15 467
 241 0 78 463 0 17 485 0 467 479 78 106 389 386 0 486 -17 82 0 467 78 479 79 113
 390 0 482 +17 389 0 487 357 486 75 485 386 0 484 +15 487 239 0 357 404 0 17 357
 0 487 488 389 71 484 354 0 361 +17 486 0 487 389 488 106 105 319 0 0 -17 488 0
 487 486 357 102 74 383 0 325 -17 105 0 441 489 109 102 486 319 0 488 +15 441 6
 0 490 437 0 17 489 0 441 491 105 98 325 322 0 329 -17 109 0 441 105 492 106 479
 316 0 485 +17 492 0 441 109 117 110 315 312 0 0 -17 479 0 467 82 485 110 109 31
6 0 492 -17 117 0 441 492 493 114 494 308 0 480 +17 315 0 475 86 113 114 492 312
 0 0 +17 493 0 441 117 50 62 307 304 0 0 -17 494 0 430 25 480 62 117 308 0 493 -
17 480 0 430 494 346 114 86 26 0 315 -15 430 245 0 346 426 495 17 346 0 430 480
 25 83 481 343 0 350 +17 25 0 430 346 494 87 120 10 0 481 +17 120 0 473 307 483
 62 25 10 0 494 -15 473 515 0 496 18 0 17 307 0 473 496 120 135 493 304 0 0 +17
 483 0 473 120 496 87 342 339 0 0 -17 496 0 473 483 307 138 49 276 0 342 -17 342
 0 445 497 481 138 483 339 0 0 +17 497 0 445 373 342 90 141 293 0 498 -17 373 0
 445 287 497 43 498 370 0 0 +17 141 0 47 49 48 138 497 293 0 496 +17 498 0 449 5
2 299 90 373 370 0 0 -15 449 503 0 52 444 0 17 52 0 449 337 498 30 48 300 0 490
 -17 299 0 449 498 337 43 126 296 0 373 +17 337 0 449 299 52 123 490 334 0 0 +17
 126 0 499 134 54 123 299 296 0 500 -15 499 704 0 134 420 0 17 134 0 499 130 126
 131 500 288 0 283 +17 54 0 499 126 130 43 287 284 0 299 -17 500 0 441 490 501 1
23 134 288 0 337 -17 490 0 441 50 500 30 337 334 0 0 -17 501 0 441 500 502 131 9
3 309 0 0 -17 502 0 441 501 491 55 333 330 0 0 -17 93 0 503 376 283 55 501 309 0
 504 +16 309 481 44 ?93 304 370 301 304 304 1 81 1 44 2654 31 309 0 0 53 41 505
 80 255 1 31 506 507 9000 0 0 0 0 3 6 0 0 0 FFTFTFTTFFFFFF1 81 1 53 2653 31 43 0
 0 508 44 509 82 255 3 505 4 27 1 81 1 508 2652 31 303 0 0 510 53 511 82 3 509 4
 16 0 16 303 454 508 ?61 339 300 335 339 339 1 81 1 510 2651 31 18 0 471 512 508
 513 82 3 511 4 26 1 81 1 471 2741 413 18 510 0 439 468 514 81 1 512 2650 31 426
 0 428 470 510 515 82 3 513 4 10 2 81 1 428 2737 413 426 512 0 425 516 517 81 1
 470 2649 31 466 0 468 518 512 519 82 3 515 4 9 2 81 1 518 2648 31 463 0 465 520
 470 521 82 3 519 4 8 2 81 1 465 2743 413 463 518 0 468 462 522 81 1 520 2647 31
 404 0 462 523 518 524 82 3 521 4 7 2 81 1 462 2744 413 404 520 0 465 459 525 81
 1 523 2646 31 456 0 459 526 520 527 82 3 524 4 6 2 81 1 459 2745 413 456 523 0
 462 455 528 81 1 526 2645 31 452 0 455 529 523 530 82 3 527 4 5 2 81 1 455 2746
 413 452 526 0 459 451 531 81 1 529 2644 31 448 0 451 532 526 533 82 3 530 4 4 2
 81 1 451 2747 413 448 529 0 455 447 534 81 1 532 2643 31 444 0 447 24 529 535 8
2 3 533 4 3 2 81 1 447 2748 413 444 532 0 451 443 536 81 1 24 2642 31 10 0 0 393
 532 537 82 3 535 4 2 2 81 1 393 2641 31 26 0 0 392 24 538 82 3 537 4 25 1 81 1
 392 2640 31 390 0 0 388 393 539 82 3 538 4 24 1 81 1 388 2639 31 386 0 0 385 39
2 540 82 3 539 4 23 1 81 1 385 2638 31 383 0 0 382 388 541 82 3 540 4 22 1 81 1
 382 2637 31 380 0 0 379 385 542 82 3 541 4 21 1 81 1 379 2636 31 377 0 0 375 38
2 543 82 3 542 4 20 1 81 1 375 2635 31 338 0 0 89 379 544 82 3 543 4 19 1 81 1 8
9 2634 31 87 0 0 85 375 545 82 3 544 4 18 1 81 1 85 2633 31 83 0 0 81 89 546 82
 3 545 4 15 0 81 1 81 2632 31 79 0 0 77 85 547 82 3 546 4 14 0 81 1 77 2631 31 7
5 0 0 73 81 548 82 3 547 4 13 0 81 1 73 2630 31 71 0 0 69 77 549 82 3 548 4 12 0
 81 1 69 2629 31 67 0 0 65 73 550 82 3 549 4 11 0 81 1 65 2628 31 63 0 0 60 69 5
51 82 3 550 4 10 0 81 1 60 2627 31 58 0 0 341 65 552 82 3 551 4 9 0 81 1 341 262
6 31 339 0 0 345 60 553 82 3 552 4 8 0 81 1 345 2625 31 343 0 0 349 341 554 82 3
 553 4 17 1 81 1 349 2624 31 347 0 0 353 345 555 82 3 554 4 16 1 81 1 353 2623 3
1 351 0 0 356 349 556 82 3 555 4 15 1 81 1 356 2622 31 354 0 0 360 353 557 82 3
 556 4 14 1 81 1 360 2621 31 358 0 0 364 356 558 82 3 557 4 13 1 81 1 364 2620 3
1 362 0 0 368 360 559 82 3 558 4 12 1 81 1 368 2619 31 366 0 0 372 364 560 82 3
 559 4 11 1 81 1 372 2618 31 370 0 0 561 368 562 82 3 560 4 10 1 81 1 561 2617 3
1 434 0 443 92 372 563 82 3 562 4 9 1 81 1 443 2749 413 434 561 0 447 433 564 81
 1 92 2616 31 55 0 0 96 561 565 82 3 563 4 1 2 81 1 96 2615 31 94 0 0 100 92 566
 82 3 565 4 7 0 81 1 100 2614 31 98 0 0 104 96 567 82 3 566 4 6 0 81 1 104 2613
 31 102 0 0 108 100 568 82 3 567 4 5 0 81 1 108 2612 31 106 0 0 112 104 569 82 3
 568 4 4 0 81 1 112 2611 31 110 0 0 116 108 570 82 3 569 4 3 0 81 1 116 2610 31
 114 0 0 119 112 571 82 3 570 4 2 0 81 1 119 2609 31 62 0 0 336 116 572 82 3 571
 4 1 0 81 1 336 2608 31 334 0 0 332 119 573 82 3 572 4 0 0 81 1 332 2607 31 330
 0 0 328 336 574 82 3 573 4 8 1 81 1 328 2606 31 326 0 0 324 332 575 82 3 574 4
 7 1 81 1 324 2605 31 322 0 0 321 328 576 82 3 575 4 6 1 81 1 321 2604 31 319 0
 0 318 324 577 82 3 576 4 5 1 81 1 318 2603 31 316 0 0 314 321 578 82 3 577 4 4
 1 81 1 314 2602 31 312 0 0 311 318 579 82 3 578 4 3 1 81 1 311 2601 31 308 0 0
 306 314 580 82 3 579 4 2 1 81 1 306 2600 31 304 0 0 581 311 582 82 3 580 4 1 1
 81 1 581 2599 31 437 0 439 583 306 584 82 3 582 4 0 1 81 1 439 2740 413 437 581
 0 585 471 586 81 1 583 2598 31 1 0 13 0 581 587 82 3 584 4 0 2 81 1 13 2734 588
 1 583 2 0 0 589 82 3 587 4 0 3 80 1 588 12 590 8038 0 0 0 0 0 0 0 0 0 TTTTTTTTT
TTTTF10 98 255 6 589 80 97 114 116 32 49 79 255 14 590 SDL/TYSA_UNAME80 1 413 0
 591 8001 0 0 0 0 3 5 0 0 0 FFFFTFTFFFFFFF2 81 1 585 2739 413 440 45 0 516 439 5
92 83 255 3 586 .603921568627451 .647058823529412 .686274509803922 14 440 510 58
5 ?437 419 503 5 6 +18 18 437 419 23 81 1 45 2656 31 440 0 585 41 295 593 81 1 5
16 2738 413 419 594 0 428 585 595 83 3 592 .603921568627451 .647058823529412 .68
6274509803922 14 419 1379 516 ?440 426 596 5 418 -409 409 440 426 23 81 1 594 26
79 31 419 0 516 273 32 597 83 3 595 .603921568627451 .647058823529412 .686274509
803922 81 1 273 2678 31 271 0 0 598 594 599 81 1 32 2680 31 409 0 415 594 28 600
 82 3 597 4 16 2 81 1 415 2753 413 409 32 0 408 601 602 82 3 600 4 17 2 81 1 601
 2754 413 189 603 0 415 604 605 83 3 602 .603921568627451 .647058823529412 .6862
74509803922 14 189 1776 601 ?202 409 184 5 606 +0 0 202 409 23 81 1 603 2712 31
 189 0 601 145 607 608 81 1 604 2755 413 202 607 0 601 609 610 83 3 605 .6039215
68627451 .647058823529412 .686274509803922 14 202 1781 604 ?611 189 195 5 612 +0
 0 611 189 23 81 1 607 2713 31 202 0 604 603 613 614 81 1 609 2756 413 611 613 0
 604 615 616 83 3 610 .603921568627451 .647058823529412 .686274509803922 14 611
 1786 609 ?617 202 618 5 619 +0 0 617 202 23 81 1 613 2714 31 611 0 609 607 620
 621 81 1 615 2757 413 617 620 0 609 622 623 83 3 616 .603921568627451 .64705882
3529412 .686274509803922 14 617 1791 615 ?624 611 625 5 626 +0 0 624 611 23 81 1
 620 2715 31 617 0 615 613 627 628 81 1 622 2758 413 624 627 0 615 629 630 83 3
 623 .603921568627451 .647058823529412 .686274509803922 14 624 1796 622 ?631 617
 35 5 632 +0 0 631 617 23 81 1 627 2716 31 624 0 622 620 633 634 81 1 629 2759 4
13 631 633 0 622 635 636 83 3 630 .603921568627451 .647058823529412 .68627450980
3922 14 631 1801 629 ?210 624 637 5 638 +0 0 210 624 23 81 1 633 2717 31 631 0 6
29 627 639 640 81 1 635 2760 413 210 639 0 629 641 642 83 3 636 .603921568627451
 .647058823529412 .686274509803922 14 210 1812 635 ?643 631 203 5 644 +0 0 643 6
31 23 81 1 639 2718 31 210 0 635 633 645 646 81 1 641 2761 413 643 647 0 635 648
 649 83 3 642 .603921568627451 .647058823529412 .686274509803922 14 643 2088 641
 ?650 210 651 5 652 -0 0 650 210 23 81 1 647 2722 31 643 0 641 653 654 655 81 1
 648 2762 413 650 654 0 641 656 657 83 3 649 .603921568627451 .647058823529412 .
686274509803922 14 650 2094 648 ?658 643 659 5 660 +0 0 658 643 23 81 1 654 2723
 31 650 0 648 647 661 662 81 1 656 2763 413 658 663 0 648 664 665 83 3 657 .6039
21568627451 .647058823529412 .686274509803922 14 658 2305 656 ?666 650 667 5 668
 -0 0 666 650 23 81 1 663 2727 31 658 0 656 669 670 671 81 1 664 2764 413 666 67
0 0 656 672 673 83 3 665 .603921568627451 .647058823529412 .686274509803922 14 6
66 2311 664 ?674 658 675 5 676 +0 0 674 658 23 81 1 670 2728 31 666 0 664 663 67
7 678 81 1 672 2765 413 674 679 0 664 680 681 83 3 673 .603921568627451 .6470588
23529412 .686274509803922 14 674 2526 672 ?682 666 683 5 684 -0 0 682 666 23 81
 1 679 2732 31 674 0 672 685 686 687 81 1 680 2766 413 682 686 0 672 0 688 83 3
 681 .603921568627451 .647058823529412 .686274509803922 14 682 2532 680 ?0 674 6
89 5 690 +0 0 0 674 23 81 1 686 2733 31 682 0 680 679 0 691 83 3 688 .6039215686
27451 .647058823529412 .686274509803922 82 3 691 4 30 2 15 689 2536 0 692 682 69
3 50 690 2549 0 682 0 684 0 +.01125 -.013 .0075 0 1 0 -1 0 0 51 684 2547 0 674 6
90 676 0 +.01125 -.013 .0075 0 1 0 .0027 0 0 1 50 676 2328 0 666 684 668 0 +-.01
125 -.013 .0075 0 1 0 -1 0 0 51 668 2326 0 658 676 660 0 +-.01125 -.013 .0075 0
 1 0 .0027 0 0 1 50 660 2111 0 650 668 652 0 +.0049 0 .0075 1 0 0 0 1 0 51 652 2
109 0 643 660 644 0 +.0049 .006 .0075 1 0 0 .0027 0 0 -1 50 644 1834 0 210 652 6
38 0 +-.005 0 .0075 -1 0 0 0 -1 0 50 638 1831 0 631 644 632 0 +-.005 .0055550729
4996451 .01026442397619228 0 .158902517869818 -.987294277211527 0 .9872942772115
27 .158902517869818 50 632 1830 0 624 638 626 0 +-.005 .003383475084768955 .0084
9689385993454 0 .934473184011087 -.356033521405191 0 .356033521405191 .934473184
011087 50 626 1829 0 617 632 619 0 +-.005 .003828402134804445 .00573246988374226
 0 .77557066614127 .631260755806336 0 -.631260755806336 .77557066614127 50 619 1
828 0 611 626 612 0 +-.005 .00644492705003549 .00473557602380772 0 -.15890251786
98165 .987294277211528 0 -.987294277211528 -.1589025178698165 50 612 1827 0 202
 619 606 0 +-.005 .00861652491523104 .00650310614006546 0 -.934473184011087 .356
0335214051915 0 -.3560335214051915 -.934473184011087 50 606 1826 0 189 612 418 0
 +-.005 .00817159786519556 .00926753011625774 0 -.77557066614127 -.6312607558063
36 0 .631260755806336 -.77557066614127 51 418 1415 0 409 606 412 0 +-.0349481903
478459 .006 .0075 1 0 0 .00175 0 0 -1 17 692 0 689 692 692 0 694 695 0 0 -15 693
 2537 0 696 682 0 17 696 0 693 696 696 0 697 698 0 0 +17 697 0 683 697 697 0 696
 698 0 0 -16 698 2504 677 ?696 477 695 699 0 0 1 81 1 677 2729 31 698 0 0 670 70
0 701 16 477 2293 669 ?476 702 698 703 0 0 1 16 695 2508 700 ?694 698 704 705 0
 0 1 31 699 2552 0 698 705 706 0 +.01125 -.013 .0075 0 1 0 -1 0 0 .0027 31 705 2
553 0 695 0 699 0 +.01125 -.013 .0075 0 1 0 -1 0 0 .00175 31 706 2550 0 704 699
 707 0 +.01125 -.01 .0075 0 1 0 -1 0 0 .0027 16 704 2514 685 ?708 695 0 706 0 0
 1 31 707 2332 0 702 706 709 0 +-.01125 -.013 .0075 0 1 0 -1 0 0 .00175 16 702 2
287 710 ?423 711 477 707 0 0 1 31 709 2331 0 711 707 703 0 +-.01125 -.013 .0075
 0 1 0 -1 0 0 .0027 16 711 2283 661 ?712 225 702 709 0 0 1 31 703 2329 0 477 709
 713 0 +-.01125 -.01 .0075 0 1 0 -1 0 0 .0027 31 713 2115 0 714 703 226 0 +.0049
 .006 .0075 1 0 0 0 1 0 .00175 16 714 2070 715 ?716 245 225 713 0 0 1 31 226 211
4 0 245 713 224 0 +.0049 .006 .0075 1 0 0 0 1 0 .0027 16 245 2066 645 ?717 193 7
14 226 0 0 1 81 1 645 2719 31 245 0 0 639 715 718 17 717 0 719 717 717 0 720 245
 0 0 +15 719 2099 0 717 650 0 17 720 0 651 720 720 0 717 245 0 0 -15 651 2092 0
 720 643 721 15 721 2093 0 722 643 0 17 722 0 721 722 722 0 723 225 0 0 +17 723
 0 453 723 723 0 722 225 0 0 -16 225 2076 653 ?722 714 711 224 0 0 1 81 1 653 27
21 31 225 0 0 715 647 724 81 1 715 2720 31 714 0 0 645 653 725 82 3 724 4 61 1 8
2 3 725 4 60 1 15 453 2048 0 723 448 726 15 726 233 0 727 448 0 17 727 0 726 504
 66 58 369 366 0 0 -17 504 0 726 333 727 55 376 338 0 502 -17 66 0 726 727 333 6
3 97 377 0 728 +17 369 0 445 365 61 63 727 366 0 0 +17 365 0 445 361 369 67 728
 362 0 0 +17 61 0 445 369 287 58 729 303 0 376 +17 287 0 445 61 373 127 54 284 0
 729 +17 729 0 503 283 376 127 61 303 0 0 -17 376 0 503 729 93 58 504 338 0 727
 +15 503 247 0 729 440 0 17 283 0 503 93 729 131 130 279 0 501 +17 130 0 499 54
 134 127 283 279 0 287 -17 361 0 445 484 365 71 730 358 0 0 +17 728 0 731 97 70
 63 365 362 0 369 -15 731 235 0 728 452 0 17 97 0 731 329 728 94 66 377 0 491 -1
7 70 0 731 728 329 67 101 380 0 730 +17 329 0 731 70 97 98 491 326 0 0 +17 101 0
 460 325 730 98 70 380 0 489 -17 730 0 460 101 74 67 361 358 0 365 -15 460 237 0
 730 456 0 17 74 0 460 730 325 71 488 383 0 357 +17 325 0 460 74 101 102 489 322
 0 0 +17 491 0 441 502 489 94 329 326 0 333 -17 333 0 726 66 504 94 502 330 0 0
 +82 3 718 4 59 1 17 716 0 417 716 716 0 732 714 0 0 +15 417 2040 0 716 409 733
 17 732 0 659 732 732 0 716 714 0 0 -15 659 2098 0 732 650 719 15 733 1401 0 274
 409 0 17 274 0 733 274 274 0 734 271 0 0 +17 734 0 435 734 734 0 274 271 0 0 -1
5 435 1332 0 734 420 499 81 1 661 2724 31 711 0 0 654 710 735 17 712 0 736 712 7
12 0 737 711 0 0 +15 736 2316 0 712 666 0 17 737 0 667 737 737 0 712 711 0 0 -15
 667 2309 0 737 658 738 15 738 2310 0 476 658 0 17 476 0 738 476 476 0 474 477 0
 0 +81 1 710 2725 31 702 0 0 661 669 739 82 3 735 4 62 1 81 1 669 2726 31 477 0
 0 710 663 740 82 3 739 4 63 1 82 3 740 4 64 1 17 423 0 411 423 423 0 741 702 0
 0 +17 741 0 675 741 741 0 423 702 0 0 -15 675 2315 0 741 666 736 81 1 685 2731
 31 704 0 0 700 679 742 17 708 0 743 708 708 0 744 704 0 0 +15 743 2531 0 708 67
4 0 17 744 0 457 744 744 0 708 704 0 0 -15 457 2486 0 744 452 731 81 1 700 2730
 31 695 0 0 677 685 745 82 3 742 4 67 1 82 3 745 4 66 1 17 694 0 431 694 694 0 6
92 695 0 0 +15 431 2478 0 694 16 0 82 3 701 4 65 1 15 683 2530 0 697 674 743 82
 3 687 4 29 2 82 3 678 4 28 2 82 3 671 4 27 2 82 3 662 4 26 2 82 3 655 4 25 2 82
 3 646 4 24 2 82 3 640 4 23 2 15 637 1805 0 746 631 0 17 746 0 637 165 40 143 22
2 216 0 192 -17 165 0 637 213 746 142 146 242 0 209 -17 40 0 637 746 213 11 36 2
60 0 222 +17 222 0 495 38 192 11 746 216 0 0 +17 192 0 495 222 194 143 186 193 0
 0 +15 495 1621 0 192 426 0 17 194 0 495 192 251 159 196 244 0 0 +17 251 0 495 1
94 255 155 747 248 0 0 +17 196 0 195 180 162 155 194 244 0 251 -17 255 0 495 251
 38 151 748 252 0 0 +17 747 0 618 176 158 151 251 248 0 255 -15 618 1790 0 747 6
11 0 17 176 0 618 205 747 173 154 266 0 204 -17 158 0 618 747 205 155 180 198 0
 196 +17 205 0 618 158 176 177 204 207 0 0 +17 204 0 203 749 200 173 205 207 0 2
33 -17 749 0 203 212 204 169 233 230 0 237 -17 233 0 625 154 172 173 749 230 0 0
 +15 625 1795 0 748 617 0 17 154 0 625 748 233 151 176 266 0 747 +17 172 0 625 2
33 748 169 37 263 0 749 -17 748 0 625 172 154 148 255 252 0 38 -17 37 0 35 29 23
7 148 172 263 0 748 +15 35 1800 0 29 624 0 17 237 0 35 37 36 169 212 234 0 0 +17
 36 0 35 237 29 166 40 260 0 212 -17 212 0 203 209 749 166 237 234 0 213 -17 213
 0 637 40 165 166 209 214 0 0 +17 38 0 495 255 222 148 29 39 0 0 +17 146 0 184 1
86 185 143 165 242 0 746 +82 3 634 4 22 2 82 3 628 4 21 2 82 3 621 4 20 2 82 3 6
14 4 19 2 81 1 145 2711 31 143 0 0 168 603 750 82 3 608 4 18 2 81 1 168 2710 31
 166 0 0 171 145 751 82 3 750 4 35 0 81 1 171 2709 31 169 0 0 150 168 752 82 3 7
51 4 34 0 81 1 150 2708 31 148 0 0 175 171 753 82 3 752 4 33 0 81 1 175 2707 31
 173 0 0 153 150 754 82 3 753 4 32 0 81 1 153 2706 31 151 0 0 179 175 755 82 3 7
54 4 31 0 81 1 179 2705 31 177 0 0 157 153 756 82 3 755 4 30 0 81 1 157 2704 31
 155 0 0 181 179 757 82 3 756 4 29 0 82 3 757 4 28 0 81 1 598 2677 31 20 0 0 400
 273 758 82 3 599 4 39 1 16 20 1360 598 ?759 271 187 7 0 0 1 81 1 400 2676 31 40
7 0 408 397 598 760 82 3 758 4 38 1 82 3 760 4 15 2 17 759 0 421 759 759 0 761 2
0 0 0 +15 421 1323 0 759 410 47 17 761 0 596 761 761 0 759 20 0 0 -15 596 1383 0
 761 419 762 15 762 1592 0 763 419 0 17 763 0 762 763 763 0 241 239 0 0 -17 241
 0 211 241 241 0 763 239 0 0 +15 211 1817 0 241 210 0 15 47 694 0 48 410 0 17 48
 0 47 141 42 90 52 300 0 497 +81 1 295 2657 31 293 0 0 45 290 764 82 3 593 4 11
 2 81 1 290 2658 31 288 0 0 295 292 765 82 3 764 4 28 1 81 1 292 2659 31 51 0 0
 290 302 766 82 3 765 4 29 1 81 1 302 2660 31 300 0 0 292 286 767 82 3 766 4 30
 1 81 1 286 2661 31 284 0 0 302 298 768 82 3 767 4 31 1 81 1 298 2662 31 296 0 0
 286 282 769 82 3 768 4 32 1 81 1 282 2663 31 279 0 0 298 278 770 82 3 769 4 33
 1 81 1 278 2664 31 276 0 0 282 122 771 82 3 770 4 34 1 81 1 122 2665 31 90 0 0
 278 140 772 82 3 771 4 35 1 81 1 140 2666 31 138 0 0 122 137 773 82 3 772 4 18
 0 81 1 137 2667 31 135 0 0 140 125 774 82 3 773 4 19 0 81 1 125 2668 31 123 0 0
 137 133 775 82 3 774 4 20 0 81 1 133 2669 31 131 0 0 125 129 776 82 3 775 4 21
 0 81 1 129 2670 31 127 0 0 133 777 778 82 3 776 4 22 0 81 1 777 2671 31 410 0 4
14 129 779 780 82 3 778 4 23 0 81 1 414 2751 413 410 777 0 433 408 781 81 1 779
 2672 31 420 0 433 777 395 782 82 3 780 4 12 2 81 1 433 2750 413 420 779 0 443 4
14 783 81 1 395 2673 31 280 0 0 779 399 784 82 3 782 4 13 2 81 1 399 2674 31 16
 0 425 395 397 785 82 3 784 4 36 1 82 3 785 4 14 2 83 3 783 .603921568627451 .64
7058823529412 .686274509803922 83 3 781 .603921568627451 .647058823529412 .68627
4509803922 79 15 591 SDL/TYSA_COLOUR83 3 564 .603921568627451 .647058823529412 .
686274509803922 83 3 536 .603921568627451 .647058823529412 .686274509803922 83 3
 534 .603921568627451 .647058823529412 .686274509803922 83 3 531 .60392156862745
1 .647058823529412 .686274509803922 83 3 528 .603921568627451 .647058823529412 .
686274509803922 83 3 525 .603921568627451 .647058823529412 .686274509803922 83 3
 522 .603921568627451 .647058823529412 .686274509803922 83 3 517 .60392156862745
1 .647058823529412 .686274509803922 83 3 514 .603921568627451 .647058823529412 .
686274509803922 79 9 507 BTI/DetId17 50 0 441 493 490 135 42 51 0 307 +17 49 0 4
7 42 141 135 496 276 0 50 +83 3 472 .603921568627451 .647058823529412 .686274509
803922 17 396 0 427 396 396 0 786 280 0 0 +17 786 0 405 786 786 0 396 280 0 0 -1
5 405 967 0 786 404 487 83 3 429 .603921568627451 .647058823529412 .686274509803
922 83 3 416 .603921568627451 .647058823529412 .686274509803922 82 3 401 4 37 1
 81 1 269 2685 31 198 0 0 247 250 787 81 1 247 2684 31 244 0 0 197 269 788 81 1
 250 2686 31 248 0 0 269 268 789 82 3 787 4 43 1 81 1 268 2687 31 266 0 0 250 25
4 790 82 3 789 4 44 1 81 1 254 2688 31 252 0 0 268 265 791 82 3 790 4 45 1 81 1
 265 2689 31 263 0 0 254 256 792 82 3 791 4 46 1 81 1 256 2690 31 39 0 0 265 262
 793 82 3 792 4 47 1 81 1 262 2691 31 260 0 0 256 221 794 82 3 793 4 48 1 81 1 2
21 2692 31 216 0 0 262 259 795 82 3 794 4 49 1 81 1 259 2693 31 242 0 0 221 218
 796 82 3 795 4 50 1 81 1 218 2694 31 239 0 0 259 215 797 82 3 796 4 51 1 82 3 7
97 4 52 1 81 1 197 2683 31 187 0 0 33 247 798 82 3 788 4 42 1 81 1 33 2682 31 19
3 0 0 28 197 799 82 3 798 4 41 1 82 3 799 4 40 1 81 1 219 2696 31 214 0 0 215 23
6 800 81 1 236 2697 31 234 0 0 219 232 801 82 3 800 4 54 1 81 1 232 2698 31 230
 0 0 236 229 802 82 3 801 4 55 1 81 1 229 2699 31 207 0 0 232 206 803 82 3 802 4
 56 1 81 1 206 2700 31 201 0 0 229 164 804 82 3 803 4 57 1 81 1 164 2701 31 142
 0 0 206 161 805 82 3 804 4 58 1 81 1 161 2702 31 159 0 0 164 181 806 82 3 805 4
 25 0 82 3 806 4 26 0 82 3 220 4 53 1 82 3 183 4 27 0 82 3 46 4 17 0 82 3 34 4 2
4 0 19 17 267 0 1 0 9 5 S0 74 4 CI16 index_map_offset0 0 1 dCCZ20 15 4 0 0 686 1
3 2 680 0 0 0 0 0 0 0 0 0 0 0 0 0 0 0 0 80 1 12 807 808 8017 0 0 0 0 0 0 0 0 0 T
TTTTTTTTTTTTF3 84 255 6 14 Part 179 13 808 SDL/TYSA_NAME1 0 
