**ABCDEFGHIJKLMNOPQRSTUVWXYZabcdefghijklmnopqrstuvwxyz**************************
**PARASOLID !"#$%&'()*+,-./:;<=>?@[\]^_`{|}~0123456789**************************
**PART1;
MC=unknown;
MC_MODEL=unknown;
MC_ID=unknown;
OS=unknown;
OS_RELEASE=unknown;
FRU=Parasolid 28.1.228;
APPL=Onshape;
SITE=unknown;
USER=unknown;
FORMAT=text;
GUISE=transmit;
KEY=BTGapi::writeModels_.xmt;
FILE=BTGapi::writeModels_.xmt;
DATE=2016-04-23T17:39:11 (UTC);
**PART2;
SCH=SCH_2801228_28101;
USFLD_SIZE=0;
**PART3;
**END_OF_HEADER*****************************************************************
T51 : TRANSMIT FILE created by modeller version 280122823 SCH_2801228_28101_1300
6203 0 12 33 CCCCCCI4 mesh1006 0 I8 polyline1008 0 CCCCCCCDI5 owner1040 0 CCCCCC
I13 boundary_mesh1006 0 I17 boundary_polyline1008 0 CCCA16 index_map_offset0 0 1
 dA9 index_map82 0 A17 node_id_index_map82 0 A20 schema_embedding_map82 0 A5 chi
ld12 0 A14 lowest_node_id0 0 1 dZ1 1206 2 3 0 0 0 0 0 0 1e3 1e-8 0 4 0 1 0 1 1 5
 6 7 8 0 0 9 10 11 0 0 0 0 0 0 81 255 1 2 1183 12 1 13 0 0 0 14 70 11 CI9 list_t
ype0 0 1 uI10 notransmit0 0 1 lCCCDCCDI12 finger_index0 0 1 dI12 finger_block101
2 0 CZ3 0 4 T1 0 0 4 20 1 15 15 13 255 5 177 0 1 0 16 0 0 17 0 51 255 6 329 0 18
 19 0 0 +-.0135 -480834117304218e-34 -.002 0 0 1 .00165 1 0 0 30 255 7 333 0 10
 20 0 0 +-.01725 .00625 -.002 0 0 1 29 255 8 486 0 11 21 0 .01003589838486224 86
7361737988404e-33 0 19 8 CCCCCCCA5 owner12 0 Z9 176 0 1 17 0 22 V0 16 255 10 302
 23 ?24 0 25 7 0 0 1 18 255 11 484 26 27 0 28 8 ?1 81 1 26 1158 29 11 0 0 30 23
 31 17 255 27 0 32 33 34 11 35 36 0 37 -18 28 481 30 33 11 38 21 ?1 81 1 30 1157
 29 28 0 0 39 26 40 17 33 0 32 41 27 28 37 42 0 43 -18 38 478 39 41 28 44 45 ?1
 29 21 483 0 28 45 8 .01176794919243112 -.003 0 29 45 480 0 38 46 21 .0152320508
0756885 -.003 0 29 46 477 0 44 47 45 .01696410161513775 1517883041479705e-33 0 1
8 44 475 48 49 38 50 46 ?1 29 47 471 0 50 51 46 .01176794919243112 .003 0 18 50
 469 52 34 44 53 47 ?1 29 51 462 0 53 54 47 -.01696410161513775 -411996825544491
5e-33 0 18 53 460 55 56 50 57 51 ?1 29 54 459 0 57 58 51 -.01523205080756885 -.0
03 0 18 57 457 59 60 53 61 54 ?1 29 58 456 0 61 62 54 -.01176794919243112 -.003
 0 18 61 454 63 64 57 65 58 ?1 29 62 453 0 65 66 58 -.01003589838486224 13281476
61294742e-33 0 18 65 451 67 68 61 69 62 ?1 29 66 447 0 69 70 62 -.01523205080756
89 .003 0 18 69 445 71 72 65 73 66 ?1 29 70 142 0 73 74 66 .01725 .00625 -.002 1
8 73 140 75 76 69 77 70 ?1 29 74 137 0 77 78 70 .01725 -.00625 -.002 18 77 135 7
9 80 73 81 74 ?1 29 78 132 0 81 82 74 -.01725 -.00625 -.002 18 81 130 83 84 77 8
5 78 ?1 29 82 127 0 85 86 78 -.01725 .00625 -.002 18 85 125 87 88 81 89 82 ?1 29
 86 1036 0 90 91 82 -.01176794919243112 .003 0 18 90 763 92 93 94 95 86 ?1 29 91
 1042 0 95 96 86 .0152320508075689 .003 0 18 95 778 97 98 90 0 91 ?1 29 96 1048
 0 89 99 91 -.01696410161513775 -4119968255444915e-33 .002 18 89 850 100 101 85
 102 96 ?1 29 99 1049 0 102 103 96 -.01523205080756885 -.003 .002 18 102 847 104
 105 89 106 99 ?1 29 103 1050 0 106 107 99 -.01176794919243112 -.003 .002 18 106
 844 108 109 102 110 103 ?1 29 107 1051 0 110 111 103 -.01003589838486224 132814
7661294742e-33 .002 18 110 841 112 113 106 114 107 ?1 29 111 1052 0 114 115 107
 -.01176794919243112 .003 .002 18 114 838 116 117 110 118 111 ?1 29 115 1053 0 1
18 119 111 -.0152320508075689 .003 .002 18 118 766 120 121 114 122 115 ?1 29 119
 1054 0 122 123 115 .01003589838486224 867361737988404e-33 .002 18 122 835 124 1
25 118 126 119 ?1 29 123 1055 0 126 127 119 .01176794919243112 -.003 .002 18 126
 832 128 129 122 130 123 ?1 29 127 1056 0 130 131 123 .01523205080756885 -.003 .
002 18 130 829 132 133 126 134 127 ?1 29 131 1057 0 134 135 127 .016964101615137
75 1517883041479705e-33 .002 18 134 826 136 137 130 138 131 ?1 29 135 1058 0 138
 139 131 .0152320508075689 .003 .002 18 138 823 140 141 134 142 135 ?1 29 139 10
59 0 142 143 135 .01176794919243112 .003 .002 18 142 781 144 145 138 146 139 ?1
 29 143 1060 0 146 147 139 .01725 .00625 .002 18 146 808 148 149 142 150 143 ?1
 29 147 1061 0 150 151 143 .01725 -.00625 .002 18 150 820 152 153 146 154 147 ?1
 29 151 1062 0 154 155 147 -.01725 -.00625 .002 18 154 817 156 157 150 94 151 ?1
 29 155 1063 0 94 0 151 -.01725 .00625 .002 18 94 793 158 24 154 90 155 ?1 81 1
 158 795 29 94 0 0 144 148 159 17 24 0 160 161 162 94 88 10 0 163 +15 255 160 31
7 0 24 164 0 17 161 0 160 76 24 146 165 166 0 167 +17 162 0 160 24 76 85 168 169
 0 0 -17 88 0 170 171 163 85 24 10 0 172 -17 163 0 170 88 157 94 173 174 0 165 -
15 170 315 0 157 175 0 17 157 0 170 163 171 154 84 25 0 173 +17 173 0 176 177 16
5 154 163 174 0 178 +16 174 689 179 ?173 180 166 181 0 0 1 17 165 0 176 173 167
 94 161 166 0 0 -15 176 949 0 165 182 183 17 167 0 176 165 177 146 184 185 0 0 -
16 166 629 186 ?161 174 187 188 0 0 1 81 1 186 632 29 166 0 0 189 190 191 16 187
 679 192 ?193 166 194 195 0 0 1 30 188 1031 0 166 0 181 0 +75e-5 .00625 .002 1 0
 0 30 181 1030 0 174 188 196 0 +-.01725 .002702621417492145 .002 -18369701987210
3e-30 -1 0 30 196 1029 0 180 181 197 0 +84732885622742e-47 -.00625 .002 1 0 0 16
 180 693 198 ?177 185 174 196 0 0 1 30 197 1028 0 185 196 199 0 +.01725 .0027026
21417492135 .002 -183697019872103e-30 -1 0 16 185 671 200 ?184 201 180 197 0 0 1
 30 199 1027 0 201 197 202 0 +.01092692378864658 .001543301270189035 .002 .5 .86
6025403784439 0 16 201 697 203 ?204 205 185 199 0 0 1 30 202 1026 0 205 199 206
 0 +.00819219926664872 .003 .002 1 3561734202253525e-33 0 16 205 701 207 ?141 20
8 201 202 0 0 1 30 206 1025 0 208 202 209 0 +.0161230762113532 .0014566987298109
9 .002 .5 -.866025403784438 0 16 208 705 210 ?137 211 205 206 0 0 1 30 209 1024
 0 211 206 212 0 +.0161230762113532 -.00145669872981094 .002 -.5 -.8660254037844
39 0 16 211 709 213 ?133 214 208 209 0 0 1 30 212 1023 0 214 209 215 0 +.0087424
8366338745 -.003 .002 -1 -1277622235434484e-31 0 16 214 713 216 ?129 217 211 212
 0 0 1 30 215 1022 0 217 212 218 0 +.0109269237886466 -.00154330127018908 .002 -
.5 .866025403784439 0 16 217 717 219 ?125 220 214 215 0 0 1 31 255 218 1021 0 22
0 215 221 0 +0 0 .002 0 0 1 1 0 0 .00425 16 220 657 190 ?222 223 217 218 0 0 1 3
0 221 1020 0 223 218 224 0 +-.0160980762113533 .0015 .002 .5 .866025403784439 0
 16 223 721 225 ?226 227 220 221 0 0 1 30 224 1019 0 227 221 228 0 +-.0135 .003
 .002 1 3561734202253525e-33 0 16 227 725 229 ?117 230 223 224 0 0 1 30 228 1018
 0 230 224 231 0 +-.0109019237886467 .0015 .002 .5 -.866025403784438 0 16 230 72
9 232 ?113 233 227 228 0 0 1 30 231 1017 0 233 228 234 0 +-.00989729472166041 .0
002400685867807535 .002 -.5 -.866025403784439 0 16 233 733 235 ?109 236 230 231
 0 0 1 30 234 1016 0 236 231 237 0 +-.0134 -.003 .002 -1 -1277622235434484e-31 0
 16 236 737 238 ?105 239 233 234 0 0 1 30 237 1015 0 239 234 240 0 +-.0150934471
4436705 -.003240068586780755 .002 -.5 .866025403784438 0 16 239 741 241 ?101 242
 236 237 0 0 1 30 240 1010 0 36 237 243 0 +.01092692378864658 .00154330127018903
5 0 .5 .866025403784439 0 16 36 579 244 ?35 245 0 240 0 0 1 30 243 1009 0 245 24
0 246 0 +.00819219926664872 .003 0 1 3561734202253525e-33 0 16 245 589 247 ?248
 249 36 243 0 0 1 30 246 1008 0 249 243 250 0 +.0161230762113532 .00145669872981
099 0 .5 -.866025403784438 0 16 249 599 251 ?252 253 245 246 0 0 1 30 250 1007 0
 253 246 254 0 +.0161230762113532 -.00145669872981094 0 -.5 -.866025403784439 0
 16 253 609 255 ?256 257 249 250 0 0 1 30 254 1006 0 257 250 258 0 +.00874248366
338745 -.003 0 -1 -1277622235434484e-31 0 16 257 619 259 ?43 42 253 254 0 0 1 30
 258 1005 0 42 254 260 0 +.0109269237886466 -.00154330127018908 0 -.5 .866025403
784439 0 16 42 661 261 ?37 262 257 258 0 0 1 30 260 1003 0 262 258 263 0 +-.0160
980762113533 .0015 0 .5 .866025403784439 0 16 262 529 264 ?265 266 42 260 0 0 1
 30 263 1002 0 266 260 267 0 +-.0135 .003 0 1 3561734202253525e-33 0 16 266 539
 268 ?269 270 262 263 0 0 1 30 267 1001 0 270 263 271 0 +-.0109019237886467 .001
5 0 .5 -.866025403784438 0 16 270 549 272 ?273 274 266 267 0 0 1 30 271 1000 0 2
74 267 275 0 +-.00989729472166041 .0002400685867807535 0 -.5 -.866025403784439 0
 16 274 559 276 ?277 194 270 271 0 0 1 30 275 999 0 194 271 195 0 +-.0134 -.003
 0 -1 -1277622235434484e-31 0 16 194 569 278 ?279 187 274 275 0 0 1 30 195 998 0
 187 275 280 0 +-.01509344714436705 -.003240068586780755 0 -.5 .866025403784438
 0 30 280 997 0 281 195 282 0 +-.01696410161513775 -4119968255444915e-33 .002 0
 0 -1 16 281 535 283 ?284 285 286 280 0 0 1 30 282 996 0 285 280 287 0 +-.015232
05080756885 -.003 .002 0 0 -1 16 285 685 288 ?289 290 281 282 0 0 1 30 287 995 0
 290 282 291 0 +-.01176794919243112 -.003 .002 0 0 -1 16 290 575 292 ?293 294 28
5 287 0 0 1 30 291 994 0 294 287 295 0 +-.01003589838486224 1328147661294742e-33
 .002 0 0 -1 16 294 565 296 ?297 298 290 291 0 0 1 30 295 993 0 298 291 299 0 +-
.01176794919243112 .003 .002 0 0 -1 16 298 555 300 ?301 302 294 295 0 0 1 30 299
 992 0 302 295 303 0 +-.0152320508075689 .003 .002 0 0 -1 16 302 545 304 ?305 30
6 298 299 0 0 1 30 303 991 0 242 299 307 0 +.01003589838486224 867361737988404e-
33 .002 0 0 -1 16 242 585 308 ?309 310 239 303 0 0 1 30 307 990 0 310 303 311 0
 +.01176794919243112 -.003 .002 0 0 -1 16 310 667 312 ?313 314 242 307 0 0 1 30
 311 989 0 314 307 315 0 +.01523205080756885 -.003 .002 0 0 -1 16 314 625 189 ?3
16 317 310 311 0 0 1 30 315 988 0 317 311 318 0 +.01696410161513775 151788304147
9705e-33 .002 0 0 -1 16 317 615 319 ?320 321 314 315 0 0 1 30 318 987 0 321 315
 322 0 +.0152320508075689 .003 .002 0 0 -1 16 321 605 323 ?324 286 317 318 0 0 1
 30 322 986 0 286 318 325 0 +.01176794919243112 .003 .002 0 0 -1 16 286 595 326
 ?327 281 321 322 0 0 1 31 325 44 0 328 322 329 0 +-.0135 -480834117304218e-34 -
.002 0 0 1 1 0 0 .00165 16 328 43 330 ?331 169 332 325 0 0 1 30 329 48 0 169 325
 333 0 +75e-5 .00625 -.002 1 0 0 16 169 47 334 ?168 335 328 329 0 0 1 30 333 52
 0 335 329 336 0 +-.01725 .002702621417492145 -.002 -183697019872103e-30 -1 0 16
 335 51 337 ?171 338 169 333 0 0 1 30 336 56 0 338 333 339 0 +84732885622742e-47
 -.00625 -.002 1 0 0 16 338 55 340 ?341 342 335 336 0 0 1 30 339 60 0 342 336 34
3 0 +.01725 .002702621417492135 -.002 -183697019872103e-30 -1 0 16 342 59 344 ?3
45 346 338 339 0 0 1 31 343 88 0 346 339 347 0 +0 0 -.002 0 0 1 1 0 0 .00425 16
 346 87 348 ?349 350 342 343 0 0 1 31 347 92 0 350 343 351 0 +.0135 999277548050
717e-35 -.002 0 0 1 1 0 0 .00165 16 350 91 352 ?353 354 346 347 0 0 1 31 351 294
 0 306 347 355 0 +-.0135 -480834117304218e-34 0 0 0 1 1 0 0 .00165 16 306 267 35
6 ?357 332 302 351 0 0 1 31 355 288 0 332 351 358 0 +.0135 999277548050717e-35 0
 0 0 1 1 0 0 .00165 16 332 243 359 ?360 328 306 355 0 0 1 30 358 330 0 354 355 3
61 0 +.01725 .00625 -.002 0 0 1 16 354 299 362 ?149 363 350 358 0 0 1 30 361 331
 0 363 358 20 0 +.01725 -.00625 -.002 0 0 1 16 363 300 364 ?153 25 354 361 0 0 1
 30 20 332 0 25 361 7 0 +-.01725 -.00625 -.002 0 0 1 16 25 301 365 ?157 10 363 2
0 0 0 1 81 1 365 1161 29 25 0 0 362 364 366 80 255 1 29 367 368 9000 0 0 0 0 3 6
 0 0 0 FFTFTFTTFFFFFF1 81 1 362 1160 29 354 0 0 23 365 369 81 1 364 1162 29 363
 0 0 365 268 370 82 255 3 366 8 2 1 81 1 268 1163 29 266 0 0 364 272 371 82 3 37
0 8 3 1 81 1 272 1164 29 270 0 0 268 276 372 82 3 371 8 4 1 81 1 276 1165 29 274
 0 0 272 278 373 82 3 372 8 5 1 81 1 278 1166 29 194 0 0 276 192 374 82 3 373 8
 6 1 81 1 192 1167 29 187 0 0 278 264 375 82 3 374 8 7 1 81 1 264 1168 29 262 0
 0 192 247 376 82 3 375 8 8 1 81 1 247 1169 29 245 0 0 264 251 377 82 3 376 8 9
 1 81 1 251 1170 29 249 0 0 247 255 378 82 3 377 8 10 1 81 1 255 1171 29 253 0 0
 251 259 379 82 3 378 8 11 1 81 1 259 1172 29 257 0 0 255 261 380 82 3 379 8 12
 1 81 1 261 1173 29 42 0 0 259 244 381 82 3 380 8 13 1 81 1 244 1174 29 36 0 0 2
61 382 383 82 3 381 8 14 1 81 1 382 1175 29 164 0 384 244 385 386 82 3 383 8 15
 1 14 255 164 318 384 ?175 16 160 5 19 -0 0 175 16 22 81 1 384 1185 387 164 382
 0 388 389 390 81 1 385 1176 29 391 0 392 382 393 394 82 3 386 8 0 2 14 391 314
 392 ?395 175 396 5 397 +0 0 395 175 22 81 1 392 1187 387 391 385 0 389 398 399
 81 1 393 1177 29 175 0 389 385 400 401 82 3 394 8 1 2 14 175 316 389 ?391 164 1
70 5 402 +0 0 391 164 22 81 1 389 1186 387 175 393 0 384 392 403 81 1 400 1178 2
9 404 0 405 393 406 407 82 3 401 8 2 2 14 404 312 405 ?18 395 408 5 409 -0 0 18
 395 22 81 1 405 1189 387 404 400 0 398 410 411 81 1 406 1179 29 395 0 398 400 4
12 413 82 3 407 8 3 2 14 395 308 398 ?404 391 414 5 415 -0 0 404 391 22 81 1 398
 1188 387 395 406 0 392 405 416 81 1 412 1180 29 417 0 418 406 419 420 82 3 413
 8 4 2 14 417 227 418 ?421 422 423 5 424 +16 16 421 422 22 81 1 418 1193 387 417
 412 0 425 426 427 81 1 419 1181 29 16 0 388 412 0 428 82 3 420 8 5 2 14 16 465
 388 ?164 0 32 5 424 +417 417 164 0 22 81 1 388 1184 387 16 419 0 0 384 429 82 3
 428 8 6 2 80 1 387 0 430 8001 0 0 0 0 3 5 0 0 0 FFFFTFTFFFFFFF2 83 255 3 429 .6
03921568627451 .647058823529412 .686274509803922 79 255 15 430 SDL/TYSA_COLOUR15
 32 488 0 27 16 431 50 255 424 287 0 417 432 433 0 +0 0 0 0 0 1 1 0 0 13 22 334
 0 0 0 0 0 0 9 16 50 432 2 0 422 434 424 0 +0 0 -.002 0 0 1 1 0 0 51 433 323 0 4
35 424 415 0 +.0135 999277548050717e-35 -.002 0 0 1 .00165 1 0 0 14 435 304 436
 ?422 18 437 5 433 -0 0 422 18 22 51 415 324 0 395 433 409 0 +0 0 -.002 0 0 1 .0
0425 1 0 0 50 409 325 0 404 415 397 0 +.01725 .002702621417492135 -.002 -1 18369
7019872103e-30 0 -183697019872103e-30 -1 0 50 397 326 0 391 409 402 0 +847328856
22742e-47 -.00625 -.002 0 -1 0 0 0 -1 50 402 327 0 175 397 19 0 +-.01725 .002702
621417492145 -.002 -1 183697019872103e-30 0 -183697019872103e-30 -1 0 50 19 328
 0 164 402 6 0 +75e-5 .00625 -.002 0 -1 0 0 0 -1 81 1 436 1191 387 435 438 0 410
 425 439 14 422 1 425 ?417 435 440 5 432 -0 0 417 435 22 14 18 320 410 ?435 404
 441 5 6 -0 0 435 404 22 15 437 303 0 442 435 443 17 442 0 437 442 442 0 353 350
 0 0 -15 443 305 0 360 435 0 17 360 0 443 360 360 0 444 332 0 0 +17 444 0 431 44
4 444 0 360 332 0 0 -15 431 242 0 444 16 0 17 353 0 445 353 353 0 442 350 0 0 +1
5 445 18 0 353 422 0 81 1 410 1190 387 18 446 0 405 436 447 15 441 319 0 448 18
 449 17 448 0 441 448 448 0 331 328 0 0 -15 449 321 0 357 18 0 17 357 0 449 357
 357 0 450 306 0 0 +17 450 0 451 450 450 0 357 306 0 0 -15 451 239 0 450 417 0 1
7 331 0 440 331 331 0 448 328 0 0 +15 440 6 0 331 422 452 15 452 10 0 168 422 45
3 17 168 0 452 345 172 73 162 169 0 0 +15 453 12 0 349 422 445 17 349 0 453 349
 349 0 454 346 0 0 +17 454 0 414 454 454 0 349 346 0 0 -15 414 307 0 454 395 455
 15 455 928 0 222 395 0 17 222 0 455 222 222 0 456 220 0 0 +17 456 0 457 456 456
 0 222 220 0 0 -15 457 951 0 456 182 458 14 182 945 459 ?0 460 176 5 461 +0 0 0
 460 22 15 458 952 0 226 182 0 17 226 0 458 117 101 118 462 223 0 463 +17 117 0
 458 113 226 114 121 227 0 464 +17 101 0 458 226 105 89 465 239 0 466 +17 462 0
 467 284 463 89 226 223 0 0 -17 463 0 467 462 265 118 305 302 0 0 -15 467 863 0
 265 421 0 17 265 0 467 463 284 69 56 262 0 0 +17 305 0 468 269 121 69 463 302 0
 265 +15 468 868 0 269 469 0 17 269 0 468 464 305 90 72 266 0 301 +17 121 0 468
 305 464 118 117 227 0 226 -17 464 0 468 121 269 114 301 298 0 470 -17 301 0 471
 273 470 90 464 298 0 0 +17 470 0 471 301 472 114 113 230 0 0 -15 471 873 0 273
 473 0 17 472 0 471 470 273 110 297 294 0 474 -17 113 0 458 109 117 110 470 230
 0 472 +17 109 0 458 105 113 106 474 233 0 475 +17 105 0 458 101 109 102 476 236
 0 477 +17 474 0 478 297 475 110 109 233 0 0 -17 475 0 478 474 277 106 293 290 0
 476 -15 478 878 0 277 479 0 17 277 0 478 475 297 61 68 274 0 293 +17 293 0 480
 279 476 61 475 290 0 0 +17 476 0 480 293 477 106 105 236 0 0 -15 480 883 0 279
 481 0 17 477 0 480 476 279 102 289 285 0 465 -17 279 0 480 477 293 57 64 194 0
 289 +17 289 0 482 193 465 57 477 285 0 0 +17 465 0 482 289 466 102 101 239 0 0
 -15 482 944 0 193 460 0 17 466 0 482 465 193 89 284 281 0 462 -17 193 0 482 466
 289 53 60 187 0 284 +17 284 0 467 265 462 53 466 281 0 0 +17 60 0 423 64 56 57
 193 187 0 279 -15 423 464 0 56 417 451 17 64 0 423 68 60 61 279 194 0 277 -17 5
6 0 423 60 72 53 265 262 0 193 -17 72 0 423 56 93 69 269 266 0 305 -17 93 0 423
 72 68 90 273 270 0 269 -17 68 0 423 93 64 65 277 274 0 273 -17 273 0 471 472 30
1 65 93 270 0 297 +17 297 0 478 277 474 65 472 294 0 0 +14 460 940 483 ?182 484
 482 5 485 -0 0 182 484 22 81 1 483 1205 387 460 486 0 487 459 488 14 484 930 48
7 ?460 489 490 5 491 -0 0 460 489 22 50 485 979 0 460 461 492 0 +-.0150934471443
6705 -.003240068586780755 .002 -.866025403784438 -.5 0 .5 -.866025403784438 0 50
 461 981 0 182 0 485 0 +0 0 .002 0 0 1 1 0 0 50 492 978 0 481 485 493 0 +-.0134
 -.003 .002 1277622235434484e-31 -1 0 1 1277622235434484e-31 0 14 481 879 494 ?4
95 479 480 5 492 -0 0 495 479 22 50 493 977 0 479 492 496 0 +-.00989729472166041
 .0002400685867807535 .002 .866025403784439 -.5 0 .5 .866025403784439 0 14 479 8
74 497 ?481 473 478 5 493 -0 0 481 473 22 50 496 976 0 473 493 498 0 +-.01090192
37886467 .0015 .002 .866025403784438 .5 0 -.5 .866025403784438 0 14 473 869 499
 ?479 469 471 5 496 -0 0 479 469 22 50 498 975 0 469 496 500 0 +-.0135 .003 .002
 -3561734202253525e-33 1 0 -1 -3561734202253525e-33 0 14 469 864 501 ?473 421 46
8 5 498 -0 0 473 421 22 50 500 974 0 421 498 491 0 +-.0160980762113533 .0015 .00
2 -.866025403784439 .5 0 -.5 -.866025403784439 0 14 421 859 426 ?469 417 467 5 5
00 -0 0 469 417 22 50 491 972 0 484 500 502 0 +.0109269237886466 -.0015433012701
8908 .002 -.866025403784439 -.5 0 .5 -.866025403784439 0 50 502 971 0 489 491 50
3 0 +.00874248366338745 -.003 .002 1277622235434484e-31 -1 0 1 1277622235434484e
-31 0 14 489 904 504 ?484 505 506 5 502 -0 0 484 505 22 50 503 970 0 505 502 507
 0 +.0161230762113532 -.00145669872981094 .002 .866025403784439 -.5 0 .5 .866025
403784439 0 14 505 899 508 ?489 509 510 5 503 -0 0 489 509 22 50 507 969 0 509 5
03 511 0 +.0161230762113532 .00145669872981099 .002 .866025403784438 .5 0 -.5 .8
66025403784438 0 14 509 894 512 ?505 513 514 5 507 -0 0 505 513 22 50 511 968 0
 513 507 434 0 +.00819219926664872 .003 .002 -3561734202253525e-33 1 0 -1 -35617
34202253525e-33 0 14 513 889 515 ?509 495 516 5 511 -0 0 509 495 22 50 434 967 0
 495 511 432 0 +.01092692378864658 .001543301270189035 .002 -.866025403784439 .5
 0 -.5 -.866025403784439 0 14 495 884 517 ?513 481 518 5 434 -0 0 513 481 22 81
 1 517 1199 387 495 519 0 494 515 520 15 518 888 0 35 495 0 17 35 0 518 521 309
 50 27 36 0 0 +17 521 0 518 522 35 142 327 286 0 0 -17 309 0 518 35 522 11 523 2
42 0 0 +17 522 0 518 309 521 122 204 201 0 0 -17 523 0 490 524 37 122 309 242 0
 522 -15 490 934 0 37 484 0 17 524 0 490 313 523 126 125 217 0 0 -17 37 0 490 52
3 313 11 33 42 0 309 +17 313 0 490 37 524 28 525 310 0 0 +17 525 0 506 526 43 12
6 313 310 0 524 -15 506 908 0 43 489 0 17 526 0 506 316 525 130 129 214 0 0 -17
 43 0 506 525 316 28 41 257 0 313 +17 316 0 506 43 526 38 527 314 0 0 +17 41 0 3
2 49 33 38 43 257 0 256 -17 49 0 32 98 41 44 256 253 0 252 -17 256 0 510 527 320
 38 49 253 0 316 +15 510 903 0 256 505 0 17 527 0 510 528 256 130 316 314 0 526
 -17 320 0 510 256 528 44 529 317 0 0 +17 528 0 510 320 527 134 133 211 0 0 -17
 529 0 514 530 252 134 320 317 0 528 -15 514 898 0 252 509 0 17 530 0 514 324 52
9 138 137 208 0 0 -17 252 0 514 529 324 44 98 249 0 320 +17 324 0 514 252 530 95
 531 321 0 0 +17 98 0 32 34 49 95 252 249 0 248 -17 34 0 32 27 98 50 248 245 0 3
27 -17 248 0 516 531 327 95 34 245 0 324 +15 516 893 0 248 513 0 17 531 0 516 14
5 248 138 324 321 0 530 -17 327 0 516 248 145 50 521 286 0 35 +17 145 0 516 327
 531 142 141 205 0 204 -17 141 0 183 137 204 138 145 205 0 531 +17 204 0 183 141
 125 142 522 201 0 521 +15 183 950 0 204 182 457 17 125 0 183 204 129 122 524 21
7 0 523 +17 129 0 183 125 133 126 526 214 0 525 +17 133 0 183 129 137 130 528 21
1 0 527 +17 137 0 183 133 141 134 530 208 0 529 +81 1 519 887 29 495 0 517 532 5
33 534 81 1 494 1198 387 481 532 0 497 517 535 81 1 515 1200 387 513 533 0 517 5
12 536 83 3 520 .603921568627451 .647058823529412 .686274509803922 81 1 533 892
 29 513 0 515 519 537 538 81 1 512 1201 387 509 537 0 515 508 539 83 3 536 .6039
21568627451 .647058823529412 .686274509803922 81 1 537 897 29 509 0 512 533 540
 541 81 1 508 1202 387 505 540 0 512 504 542 83 3 539 .603921568627451 .64705882
3529412 .686274509803922 81 1 540 902 29 505 0 508 537 543 544 81 1 504 1203 387
 489 543 0 508 487 545 83 3 542 .603921568627451 .647058823529412 .6862745098039
22 81 1 543 907 29 489 0 504 540 546 547 81 1 487 1204 387 484 546 0 504 483 548
 83 3 545 .603921568627451 .647058823529412 .686274509803922 81 1 546 933 29 484
 0 487 543 486 549 83 3 548 .603921568627451 .647058823529412 .686274509803922 8
1 1 486 943 29 460 0 483 546 550 551 82 3 549 7 17 2 81 1 550 948 29 182 0 459 4
86 552 553 82 3 551 7 11 2 81 1 459 1206 387 182 550 0 483 0 554 81 1 552 1146 2
9 1 0 13 550 71 555 82 3 553 7 2 2 81 1 13 1182 556 1 552 2 0 0 557 81 1 71 1147
 29 69 0 0 552 92 558 82 3 555 6 0 3 81 1 92 1148 29 90 0 0 71 67 559 82 3 558 8
 0 0 81 1 67 1149 29 65 0 0 92 63 560 82 3 559 8 1 0 81 1 63 1150 29 61 0 0 67 5
9 561 82 3 560 8 2 0 81 1 59 1151 29 57 0 0 63 55 562 82 3 561 8 3 0 81 1 55 115
2 29 53 0 0 59 52 563 82 3 562 8 4 0 81 1 52 1153 29 50 0 0 55 97 564 82 3 563 8
 5 0 81 1 97 1154 29 95 0 0 52 48 565 82 3 564 8 6 0 81 1 48 1155 29 44 0 0 97 3
9 566 82 3 565 8 7 0 81 1 39 1156 29 38 0 0 48 30 567 82 3 566 8 8 0 82 3 567 8
 9 0 80 1 556 12 568 8038 0 0 0 0 0 0 0 0 0 TTTTTTTTTTTTTF10 98 255 8 557 110 11
7 116 32 116 114 97 112 79 14 568 SDL/TYSA_UNAME83 3 554 .603921568627451 .64705
8823529412 .686274509803922 82 3 547 7 16 2 82 3 544 7 15 2 82 3 541 7 14 2 82 3
 538 7 13 2 81 1 532 882 29 481 0 494 569 519 570 81 1 497 1197 387 479 569 0 49
9 494 571 83 3 535 .603921568627451 .647058823529412 .686274509803922 81 1 569 8
77 29 479 0 497 572 532 573 81 1 499 1196 387 473 572 0 501 497 574 83 3 571 .60
3921568627451 .647058823529412 .686274509803922 81 1 572 872 29 473 0 499 575 56
9 576 81 1 501 1195 387 469 575 0 426 499 577 83 3 574 .603921568627451 .6470588
23529412 .686274509803922 81 1 575 867 29 469 0 501 578 572 579 81 1 426 1194 38
7 421 578 0 418 501 580 83 3 577 .603921568627451 .647058823529412 .686274509803
922 81 1 578 862 29 421 0 426 100 575 581 83 3 580 .603921568627451 .64705882352
9412 .686274509803922 81 1 100 852 29 89 0 0 104 578 582 82 3 581 7 12 2 81 1 10
4 849 29 102 0 0 108 100 583 82 3 582 7 19 0 81 1 108 846 29 106 0 0 112 104 584
 82 3 583 7 17 0 81 1 112 843 29 110 0 0 116 108 585 82 3 584 7 15 0 81 1 116 84
0 29 114 0 0 124 112 586 82 3 585 7 13 0 81 1 124 837 29 122 0 0 128 116 587 82
 3 586 7 11 0 81 1 128 834 29 126 0 0 132 124 588 82 3 587 7 31 0 81 1 132 831 2
9 130 0 0 136 128 589 82 3 588 7 29 0 81 1 136 828 29 134 0 0 140 132 590 82 3 5
89 7 27 0 81 1 140 825 29 138 0 0 152 136 591 82 3 590 7 25 0 81 1 152 822 29 15
0 0 0 156 140 592 82 3 591 7 23 0 81 1 156 819 29 154 0 0 148 152 593 82 3 592 7
 7 0 81 1 148 810 29 146 0 0 158 156 594 82 3 593 7 5 0 82 3 594 7 3 0 82 3 579
 7 7 2 82 3 576 7 8 2 82 3 573 7 9 2 82 3 570 7 10 2 82 3 534 7 18 2 83 3 488 .6
03921568627451 .647058823529412 .686274509803922 17 345 0 452 595 168 77 596 342
 0 0 +17 172 0 452 168 595 85 171 335 0 162 -17 595 0 452 172 345 81 341 338 0 0
 -17 171 0 170 157 88 81 172 335 0 595 +17 341 0 396 153 84 77 595 338 0 345 +15
 396 313 0 153 391 0 17 153 0 396 178 341 150 80 363 0 177 +17 84 0 396 341 178
 81 157 25 0 171 -17 178 0 396 84 153 154 177 180 0 0 -17 177 0 176 167 173 150
 178 180 0 184 +17 184 0 408 80 149 150 167 185 0 0 +15 408 311 0 149 404 0 17 8
0 0 408 596 184 77 153 363 0 341 -17 149 0 408 184 596 146 76 354 0 161 +17 596
 0 408 149 80 73 345 342 0 168 -17 76 0 160 162 161 73 149 354 0 596 -81 1 446 3
88 29 18 0 410 597 438 598 83 3 447 .603921568627451 .647058823529412 .686274509
803922 81 1 597 383 29 422 0 425 352 446 599 81 1 438 389 29 435 0 436 446 283 6
00 82 3 598 6 7 2 81 1 283 538 29 281 0 0 438 304 601 82 3 600 6 8 2 81 1 304 54
8 29 302 0 0 283 300 602 82 3 601 7 9 1 81 1 300 558 29 298 0 0 304 296 603 82 3
 602 7 4 1 81 1 296 568 29 294 0 0 300 292 604 82 3 603 7 5 1 81 1 292 578 29 29
0 0 0 296 308 605 82 3 604 7 6 1 81 1 308 588 29 242 0 0 292 326 606 82 3 605 7
 7 1 81 1 326 598 29 286 0 0 308 323 607 82 3 606 7 15 1 81 1 323 608 29 321 0 0
 326 319 608 82 3 607 7 10 1 81 1 319 618 29 317 0 0 323 189 609 82 3 608 7 11 1
 81 1 189 628 29 314 0 0 319 186 610 82 3 609 7 12 1 82 3 610 7 13 1 81 1 425 11
92 387 422 597 0 436 418 611 81 1 352 380 29 350 0 0 359 597 612 82 3 599 6 2 2
 81 1 359 379 29 332 0 0 330 352 613 82 3 612 6 17 1 81 1 330 378 29 328 0 0 356
 359 614 82 3 613 6 16 1 81 1 356 377 29 306 0 0 348 330 615 82 3 614 6 15 1 81
 1 348 376 29 346 0 0 344 356 616 82 3 615 6 14 1 81 1 344 374 29 342 0 0 337 34
8 617 82 3 616 6 13 1 81 1 337 372 29 335 0 0 340 344 618 82 3 617 6 11 1 81 1 3
40 370 29 338 0 0 334 337 619 82 3 618 6 9 1 81 1 334 368 29 169 0 0 79 340 620
 82 3 619 6 7 1 81 1 79 362 29 77 0 0 83 334 621 82 3 620 6 5 1 81 1 83 360 29 8
1 0 0 75 79 622 82 3 621 6 7 0 81 1 75 358 29 73 0 0 87 83 623 82 3 622 6 5 0 81
 1 87 356 29 85 0 0 0 75 624 82 3 623 6 3 0 82 3 624 6 1 0 83 3 611 .60392156862
7451 .647058823529412 .686274509803922 83 3 439 .603921568627451 .64705882352941
2 .686274509803922 83 3 427 .603921568627451 .647058823529412 .686274509803922 8
3 3 416 .603921568627451 .647058823529412 .686274509803922 83 3 411 .60392156862
7451 .647058823529412 .686274509803922 83 3 403 .603921568627451 .64705882352941
2 .686274509803922 83 3 399 .603921568627451 .647058823529412 .686274509803922 8
3 3 390 .603921568627451 .647058823529412 .686274509803922 81 1 23 1159 29 10 0
 0 26 362 625 82 3 369 8 1 1 82 3 625 8 0 1 79 9 368 BTI/DetId81 1 312 670 29 31
0 0 0 190 200 626 81 1 190 660 29 220 0 0 186 312 627 81 1 200 674 29 185 0 0 31
2 288 628 82 3 626 7 14 1 81 1 288 688 29 285 0 0 200 179 629 82 3 628 7 23 1 81
 1 179 692 29 174 0 0 288 198 630 82 3 629 7 8 1 81 1 198 696 29 180 0 0 179 203
 631 82 3 630 7 21 1 81 1 203 700 29 201 0 0 198 207 632 82 3 631 7 19 1 81 1 20
7 704 29 205 0 0 203 210 633 82 3 632 7 49 1 81 1 210 708 29 208 0 0 207 213 634
 82 3 633 7 39 1 81 1 213 712 29 211 0 0 210 216 635 82 3 634 7 41 1 81 1 216 71
6 29 214 0 0 213 219 636 82 3 635 7 43 1 81 1 219 720 29 217 0 0 216 225 637 82
 3 636 7 45 1 81 1 225 724 29 223 0 0 219 229 638 82 3 637 7 47 1 81 1 229 728 2
9 227 0 0 225 232 639 82 3 638 7 37 1 81 1 232 732 29 230 0 0 229 235 640 82 3 6
39 7 27 1 81 1 235 736 29 233 0 0 232 238 641 82 3 640 7 29 1 81 1 238 740 29 23
6 0 0 235 241 642 82 3 641 7 31 1 81 1 241 744 29 239 0 0 238 120 643 82 3 642 7
 33 1 81 1 120 768 29 118 0 0 241 144 644 82 3 643 7 35 1 81 1 144 783 29 142 0
 0 120 158 645 82 3 644 7 9 0 82 3 645 7 21 0 82 3 627 7 25 1 82 3 191 7 17 1 82
 3 159 7 1 0 82 3 40 8 10 0 82 3 31 8 11 0 19 17 335 0 1 0 9 5 S0 74 4 CI16 inde
x_map_offset0 0 1 dCCZ20 15 4 0 0 419 13 2 459 0 0 0 0 0 0 0 0 0 0 0 0 0 0 0 0 8
0 1 12 646 647 8017 0 0 0 0 0 0 0 0 0 TTTTTTTTTTTTTF3 84 255 8 14 nut trap79 13
 647 SDL/TYSA_NAME1 0 
