**ABCDEFGHIJKLMNOPQRSTUVWXYZabcdefghijklmnopqrstuvwxyz**************************
**PARASOLID !"#$%&'()*+,-./:;<=>?@[\]^_`{|}~0123456789**************************
**PART1;
MC=unknown;
MC_MODEL=unknown;
MC_ID=unknown;
OS=unknown;
OS_RELEASE=unknown;
FRU=Parasolid 28.1.228;
APPL=Onshape;
SITE=unknown;
USER=unknown;
FORMAT=text;
GUISE=transmit;
KEY=BTGapi::writeModels_.xmt;
FILE=BTGapi::writeModels_.xmt;
DATE=2016-04-23T17:53:11 (UTC);
**PART2;
SCH=SCH_2801228_28101;
USFLD_SIZE=0;
**PART3;
**END_OF_HEADER*****************************************************************
T51 : TRANSMIT FILE created by modeller version 280122823 SCH_2801228_28101_1300
6203 0 12 33 CCCCCCI4 mesh1006 0 I8 polyline1008 0 CCCCCCCDI5 owner1040 0 CCCCCC
I13 boundary_mesh1006 0 I17 boundary_polyline1008 0 CCCA16 index_map_offset0 0 1
 dA9 index_map82 0 A17 node_id_index_map82 0 A20 schema_embedding_map82 0 A5 chi
ld12 0 A14 lowest_node_id0 0 1 dZ1 6906 2 3 0 0 0 0 0 0 1e3 1e-8 0 4 5 1 0 1 1 6
 7 8 9 0 0 10 11 12 0 0 0 0 0 0 81 255 1 2 6859 13 1 14 0 0 0 15 70 11 CI9 list_
type0 0 1 uI10 notransmit0 0 1 lCCCDCCDI12 finger_index0 0 1 dI12 finger_block10
12 0 CZ3 0 4 T1 0 0 4 20 1 16 16 13 255 6 242 0 1 0 17 0 0 18 0 51 255 7 6783 0
 19 20 0 0 +-3469446951953615e-33 .02225 .036 -1 0 0 .001 0 0 1 31 255 8 6680 0
 11 21 0 0 +-.02125 .02225 .036 -1 0 0 0 0 1 .001 29 255 9 6482 0 12 22 0 .02425
 .02075 .037 19 8 CCCCCCCA5 owner12 0 Z10 68 0 1 18 0 23 V0 16 255 11 6448 24 ?2
5 0 26 8 0 0 1 18 255 12 6478 27 28 0 29 9 ?1 81 1 27 6811 30 12 0 0 31 32 33 17
 255 28 0 34 35 36 12 37 38 0 39 -18 29 6422 40 41 12 42 22 ?1 81 1 40 6795 30 2
9 0 0 43 44 45 17 41 0 46 47 48 29 49 50 0 51 +18 42 6417 44 52 29 53 54 ?1 29 2
2 6426 0 29 54 9 -.02125 .02125 .036 29 54 6421 0 42 55 22 .02125 .02125 .036 29
 55 6398 0 53 56 54 -.03425 .02425 .036 18 53 6394 57 58 42 59 55 ?1 29 56 6387
 0 59 60 55 -.02425 .02075 .036 18 59 6383 61 62 53 63 56 ?1 29 60 6382 0 63 64
 56 -.03425 .02075 .036 18 63 6378 65 66 59 67 60 ?1 29 64 6365 0 67 68 60 .0342
5 .02425 .036 18 67 6361 31 69 63 70 64 ?1 29 68 6353 0 70 71 64 .02425 .02175 .
037 18 70 6351 72 36 67 73 68 ?1 29 71 6343 0 73 74 68 -.02425 .02175 .037 18 73
 6341 75 76 70 77 71 ?1 29 74 6327 0 77 78 71 .02125 .02225 .037 18 77 6325 79 8
0 73 81 74 ?1 29 78 6323 0 81 82 74 -.02125 .02225 .037 18 81 6321 83 84 77 85 7
8 ?1 29 82 6320 0 85 86 78 -.03425 .02175 .037 18 85 6316 87 88 81 89 82 ?1 29 8
6 6315 0 89 90 82 -.03425 .02325 .037 18 89 6311 91 92 85 93 86 ?1 29 90 6310 0
 93 94 86 .03425 .02175 .037 18 93 6306 95 96 89 97 90 ?1 29 94 6305 0 97 98 90
 .03425 .02325 .037 18 97 6301 99 100 93 101 94 ?1 29 98 6294 0 101 102 94 .0242
5 .02075 .036 18 101 6290 103 104 97 105 98 ?1 29 102 6289 0 105 106 98 .03425 .
02075 .036 18 105 6285 107 108 101 109 102 ?1 29 106 5914 0 109 110 102 -.02425
 .02425 .0145 18 109 5912 111 112 105 113 106 ?1 29 110 5910 0 113 114 106 .0242
5 .02425 .0145 18 113 5908 115 116 109 117 110 ?1 29 114 5897 0 117 118 110 -.01
225 .02875 .019 18 117 5896 119 120 113 121 114 ?1 29 118 5895 0 121 122 114 .02
425 .02875 .019 18 121 5891 123 124 117 125 118 ?1 29 122 5890 0 125 126 118 -.0
2425 .02875 .019 18 125 5886 127 128 121 129 122 ?1 29 126 5885 0 129 130 122 .0
1225 .02875 .019 18 129 5884 131 132 125 133 126 ?1 29 130 4528 0 133 134 126 .0
2425 .02075 0 18 133 4523 135 136 129 137 130 ?1 29 134 3385 0 137 138 130 -.024
25 .02425 0 18 137 3381 139 140 133 141 134 ?1 29 138 3368 0 141 142 134 -.03425
 .02425 .024 18 141 3364 143 144 137 145 138 ?1 29 142 3363 0 145 146 138 -.0342
5 .02075 .024 18 145 3359 147 148 141 149 142 ?1 29 146 2983 0 149 150 142 -.024
25 .02075 0 18 149 2978 151 152 145 153 146 ?1 29 150 2678 0 153 154 146 .02425
 .03725 .019 18 153 2674 155 156 149 157 150 ?1 29 154 2667 0 157 158 150 -.0242
5 .03725 .019 18 157 2663 159 160 153 161 154 ?1 29 158 2656 0 161 162 154 -.024
25 .03925 .021 18 161 2652 163 164 157 165 158 ?1 29 162 2651 0 165 166 158 .024
25 .03925 .021 18 165 2647 167 168 161 169 162 ?1 29 166 1558 0 169 170 162 .024
25 .02425 .022 18 169 1553 171 172 165 173 166 ?1 29 170 1546 0 173 174 166 -.02
425 .02425 .022 18 173 1541 175 176 169 177 170 ?1 29 174 1272 0 177 178 170 .02
125 -.02245 .013 18 177 1268 179 180 173 181 174 ?1 29 178 1267 0 181 182 174 -.
02125 -.02245 .013 18 181 1263 183 184 177 185 178 ?1 29 182 1252 0 185 186 178
 -.02425 -.02425 .012 18 185 1248 187 188 181 189 182 ?1 29 186 1241 0 189 190 1
82 .02425 -.02425 .012 18 189 1237 191 192 185 193 186 ?1 29 190 1224 0 193 194
 186 -.02425 .02075 .037 18 193 1220 32 195 189 196 190 ?1 29 194 1214 0 196 197
 190 .02125 .02075 .037 18 196 1210 198 199 193 200 194 ?1 29 197 1209 0 200 201
 194 -.02125 .02075 .037 18 200 1205 202 203 196 204 197 ?1 29 201 892 0 204 205
 197 -.02125 -.02125 .013 18 204 890 206 207 200 208 201 ?1 29 205 889 0 208 209
 201 -.02125 -.02125 .003 18 208 884 210 211 204 212 205 ?1 29 209 874 0 212 213
 205 .02125 -.02125 .003 18 212 869 214 215 208 216 209 ?1 29 213 420 0 216 217
 209 -.02125 .02125 .003 18 216 418 218 47 212 219 213 ?1 29 217 193 0 219 220 2
13 .02425 .02425 0 18 219 167 221 222 216 223 217 ?1 29 220 194 0 223 224 217 .0
2425 -.02425 0 18 223 171 225 226 219 227 220 ?1 29 224 195 0 227 228 220 -.0242
5 -.02425 0 18 227 175 229 230 223 231 224 ?1 29 228 695 0 231 232 224 .02125 .0
2125 .003 18 231 561 233 234 227 235 228 ?1 29 232 1073 0 235 236 228 .02125 -.0
2125 .013 18 235 1016 237 238 231 239 232 ?1 29 236 1721 0 239 240 232 -.02425 .
03925 .022 18 239 1655 241 242 235 243 236 ?1 29 240 1724 0 243 244 236 .02425 .
03925 .022 18 243 1643 245 246 239 247 240 ?1 29 244 5631 0 247 248 240 .03425 .
02425 .024 18 247 5277 249 250 243 251 244 ?1 29 248 5632 0 251 0 244 .03425 .02
075 .024 18 251 5280 252 253 247 0 248 ?1 81 1 252 5282 30 251 0 0 249 254 255 1
7 253 0 256 257 108 251 258 259 0 260 +15 255 256 5492 0 261 262 0 17 257 0 256
 263 253 247 260 264 0 265 -17 108 0 256 253 261 105 266 267 0 258 +17 258 0 268
 269 270 105 253 259 0 271 -16 259 6286 272 ?253 273 274 275 0 0 1 17 260 0 276
 277 265 251 257 264 0 270 +15 276 5497 0 265 278 0 17 277 0 276 279 260 133 270
 280 0 0 +17 265 0 276 260 279 247 281 282 0 0 +16 264 5150 283 ?260 280 284 285
 0 0 1 17 270 0 268 258 136 251 277 280 0 0 -15 268 5487 0 258 286 0 17 136 0 26
8 270 269 133 287 274 0 288 +16 280 5154 289 ?277 282 264 290 0 0 1 81 1 289 515
7 30 280 0 0 283 291 292 16 282 5146 293 ?265 294 280 295 0 0 1 30 255 290 5554
 0 280 285 295 0 +.0322973372781065 .02075 .0193136094674556 -.384615384615385 -
706526999508089e-31 -.923076923076923 30 285 5555 0 264 296 290 0 +.03425 .02075
 .024 183697019872103e-30 -1 0 30 295 5552 0 282 290 297 0 +.0217278106508876 .0
2425 -.00605325443786982 .384615384615385 0 .923076923076923 31 297 4115 0 298 2
95 299 0 +-.02925 .02235 .0295 -183697019872103e-30 -1 0 1 -183697019872103e-30
 0 .00165 16 298 4070 300 ?301 302 294 297 0 0 1 31 299 4114 0 302 297 303 0 +-.
02925 .02235 .0295 -183697019872103e-30 -1 0 1 -183697019872103e-30 0 .0028 16 3
02 4066 304 ?305 306 298 299 0 0 1 31 303 4112 0 294 299 307 0 +-.02925 .02075 .
0295 -183697019872103e-30 -1 0 1 -183697019872103e-30 0 .0028 16 294 4076 308 ?3
09 298 282 303 0 0 1 31 307 3884 0 306 303 310 0 --.02925 .024249999999995 .0295
 0 1 0 0 0 1 .00165 16 306 3857 311 ?312 313 302 307 0 0 1 30 310 3153 0 314 307
 315 0 +-.03425 .02075 .0185 0 0 -1 16 314 6379 316 ?148 317 313 310 0 0 1 30 31
5 3152 0 317 310 318 0 +-.03425 -.00748339431396387 .037 -183697019872103e-30 -1
 0 16 317 6312 319 ?320 321 314 315 0 0 1 30 318 3151 0 321 315 322 0 +-.03425 .
02425 .003 0 0 -1 16 321 6395 323 ?144 324 317 318 0 0 1 30 322 3149 0 313 318 3
25 0 +-.02425 .02075 .0185 0 0 -1 16 313 6384 326 ?152 314 306 322 0 0 1 30 325
 3147 0 327 322 328 0 +-.02425 .02425 .003 0 0 -1 16 327 2984 329 ?112 330 331 3
25 0 0 1 31 328 2504 0 332 325 333 0 +-.01225 .03175 .0205 -1224646799147352e-31
 0 -1 1 0 -1224646799147352e-31 .0017 16 332 2402 334 ?335 336 337 328 0 0 1 31
 333 2503 0 336 328 338 0 +-.01225 .03175 .0205 -1224646799147352e-31 0 -1 1 0 -
1224646799147352e-31 .003 16 336 2398 339 ?340 341 332 333 0 0 1 31 338 2501 0 3
37 333 342 0 +-.01225 .03175 .019 -1224646799147352e-31 0 -1 1 0 -12246467991473
52e-31 .003 16 337 2408 343 ?344 332 345 338 0 0 1 31 342 2500 0 346 338 347 0 +
.01225 .03175 .0205 -1224646799147352e-31 0 -1 1 0 -1224646799147352e-31 .003 16
 346 2445 348 ?349 345 324 342 0 0 1 31 347 2499 0 345 342 350 0 +.01225 .03175
 .0205 -1224646799147352e-31 0 -1 1 0 -1224646799147352e-31 .0017 16 345 2449 35
1 ?352 337 346 347 0 0 1 31 350 2498 0 324 347 353 0 +.01225 .03175 .019 -122464
6799147352e-31 0 -1 1 0 -1224646799147352e-31 .003 16 324 2455 354 ?355 346 321
 350 0 0 1 30 353 1716 0 356 350 357 0 +173472347597681e-32 .03925 .022 -1 0 122
4646799147352e-31 16 356 1587 358 ?359 360 361 353 0 0 1 30 357 1715 0 360 353 3
62 0 +.02425 .03925 .003 0 0 -1 16 360 1623 363 ?364 365 356 357 0 0 1 30 362 17
13 0 365 357 366 0 +-.02425 .03925 .003 0 0 -1 16 365 1615 367 ?368 369 360 362
 0 0 1 30 366 1712 0 361 362 370 0 +173472347597681e-32 .02425 .022 -1 0 1224646
799147352e-31 16 361 1631 371 ?372 356 373 366 0 0 1 30 370 1708 0 369 366 374 0
 +-.02425 .03925 .022 0 -1 0 16 369 1591 375 ?376 377 365 370 0 0 1 30 374 1707
 0 377 370 378 0 +-.02425 .03925 .019 0 -1 0 16 377 2664 379 ?380 381 369 374 0
 0 1 30 378 1706 0 381 374 382 0 +.02425 .03925 .019 0 -1 0 16 381 2675 383 ?384
 385 377 378 0 0 1 30 382 1705 0 385 378 386 0 +.02425 .03925 .022 0 -1 0 16 385
 1601 387 ?172 388 381 382 0 0 1 30 386 1068 0 389 382 390 0 +-3469446951953615e
-33 -.02125 .013 1 0 0 16 389 927 391 ?392 393 388 386 0 0 1 30 390 1067 0 393 3
86 394 0 +-.02125 -.0222176887243986 .013 0 1 0 16 393 1264 395 ?207 396 389 390
 0 0 1 30 394 1065 0 396 390 397 0 +.02125 -.0222176887243986 .013 0 1 0 16 396
 1269 398 ?238 399 393 394 0 0 1 30 397 1064 0 388 394 400 0 +-3469446951953615e
-33 -.02125 .003 1 0 0 16 388 983 401 ?215 389 385 397 0 0 1 30 400 1060 0 399 3
97 402 0 +.02125 -.02125 .013 0 0 -1 16 399 931 403 ?404 405 396 400 0 0 1 30 40
2 1057 0 405 400 406 0 +-.02125 -.02125 .013 0 0 -1 16 405 943 407 ?211 408 399
 402 0 0 1 30 406 691 0 409 402 410 0 +-.02125 -.0222176887243986 .037 0 1 0 16
 409 1206 411 ?84 412 413 406 0 0 1 30 410 685 0 412 406 414 0 +.02125 -.0016338
27216923235 .037 3061616997868385e-31 -1 0 16 412 533 415 ?416 417 409 410 0 0 1
 30 414 684 0 408 410 418 0 +-.02125 -.0222176887243986 .003 0 1 0 16 408 449 41
9 ?420 421 405 414 0 0 1 30 418 680 0 421 414 422 0 +.001475333102047424 .02125
 .003 1 0 0 16 421 459 423 ?424 413 408 418 0 0 1 30 422 678 0 413 418 425 0 +.0
2125 -.001633827216923235 .003 3061616997868385e-31 -1 0 16 413 469 426 ?427 409
 421 422 0 0 1 30 425 674 0 417 422 428 0 +.02125 .02125 .037 0 0 -1 16 417 6418
 429 ?234 430 412 425 0 0 1 30 428 670 0 430 425 431 0 +-.02125 .02125 .037 0 0
 -1 16 430 6423 432 ?47 433 417 428 0 0 1 31 431 28 0 434 428 435 0 +0 0 .003 0
 0 1 1 0 0 .012 16 434 27 436 ?437 438 439 431 0 0 1 31 435 32 0 438 431 440 0 +
-.0155 .0155 .003 0 0 1 1 0 0 .00165 16 438 31 441 ?442 443 434 435 0 0 1 31 440
 36 0 443 435 444 0 +.0155 .0155 .003 0 0 1 1 0 0 .00165 16 443 35 445 ?446 447
 438 440 0 0 1 31 444 40 0 447 440 448 0 +.0155 -.0155 .003 0 0 1 1 0 0 .00165 1
6 447 39 449 ?450 451 443 444 0 0 1 31 448 44 0 451 444 452 0 +-.0155 -.0155 .00
3 0 0 1 1 0 0 .00165 16 451 43 453 ?454 455 447 448 0 0 1 30 452 192 0 433 448 4
56 0 +-590397300202485e-32 .02425 0 1 0 0 16 433 3382 457 ?222 458 430 452 0 0 1
 30 456 191 0 458 452 459 0 +-.02425 -.00748339431396387 0 -183697019872103e-30
 -1 0 16 458 159 460 ?230 461 433 456 0 0 1 30 459 190 0 461 456 462 0 +72738349
4591001e-48 -.02425 0 1 0 0 16 461 155 463 ?464 465 458 459 0 0 1 30 462 189 0 4
66 459 467 0 +.02425 -.00748339431396388 0 -183697019872103e-30 -1 0 16 466 151
 468 ?469 470 465 462 465 465 1 31 467 188 0 470 462 471 0 +0 0 0 0 0 1 1 0 0 .0
12 16 470 147 472 ?473 474 466 467 0 0 1 31 471 187 0 474 467 475 0 +-.0155 .015
5 0 0 0 1 1 0 0 .00165 16 474 143 476 ?477 478 470 471 0 0 1 31 475 186 0 478 47
1 479 0 +.0155 .0155 0 0 0 1 1 0 0 .00165 16 478 139 480 ?481 482 474 475 0 0 1
 31 479 185 0 482 475 483 0 +.0155 -.0155 0 0 0 1 1 0 0 .00165 16 482 135 484 ?4
85 439 478 479 0 0 1 31 483 184 0 439 479 486 0 +-.0155 -.0155 0 0 0 1 1 0 0 .00
165 16 439 131 487 ?488 434 482 483 0 0 1 30 486 239 0 455 483 489 0 +.02425 -.0
2425 .003 0 0 -1 16 455 1238 490 ?491 492 451 486 0 0 1 30 489 240 0 492 486 493
 0 +-.02425 -.02425 .003 0 0 -1 16 492 1249 494 ?495 496 455 489 0 0 1 30 493 12
27 0 496 489 497 0 +-.02125 .02075 .037 1 0 0 16 496 1225 498 ?203 499 492 493 0
 0 1 30 497 1233 0 499 493 500 0 +.02425 .02075 .037 1 0 0 16 499 1231 501 ?39 5
02 496 497 0 0 1 30 500 1244 0 502 497 503 0 +.02425 -.0152585371644441 .0169952
571308644 -1605800865230415e-31 -.874157276121538 -.485642931178632 16 502 1242
 504 ?35 505 499 500 0 0 1 30 503 1256 0 505 500 506 0 +-.02425 -.02425 .012 -1
 0 0 16 505 1254 507 ?188 508 502 503 0 0 1 30 506 1276 0 508 503 509 0 +-346944
6951953615e-33 -.02245 .013 1 0 0 16 508 1274 510 ?180 511 505 506 0 0 1 30 509
 1285 0 511 506 512 0 +.02125 .02075 .037 -2676334775384025e-31 .874157276121538
 .485642931178632 16 511 1283 513 ?199 514 508 509 0 0 1 30 512 1291 0 514 509 5
15 0 +-.02125 .02075 .037 0 -.874157276121538 -.485642931178632 16 514 1289 516
 ?184 517 511 512 0 0 1 30 515 1297 0 517 512 518 0 +-.02425 .02075 .037 1605800
865230415e-31 .874157276121538 .485642931178632 16 517 1295 519 ?520 521 514 515
 0 0 1 31 518 2023 0 341 515 522 0 +.01225 .03175 .022 1224646799147352e-31 0 1
 1 0 -1224646799147352e-31 .0017 16 341 2099 523 ?524 373 336 518 0 0 1 31 522 2
031 0 373 518 525 0 +-.01225 .03175 .022 1224646799147352e-31 0 1 1 0 -122464679
9147352e-31 .0017 16 373 2063 526 ?527 361 341 522 0 0 1 30 525 2659 0 521 522 5
28 0 +-.02425 .03925 .021 -1 0 1224646799147352e-31 16 521 2657 529 ?530 531 517
 525 0 0 1 31 528 2670 0 531 525 532 0 --.02425 .03725 .021 1 -183697019872103e-
30 0 183697019872103e-30 1 0 .002 16 531 2668 533 ?160 534 521 528 0 0 1 30 532
 2681 0 534 528 535 0 -.02425 .03725 .019 -1 0 1224646799147352e-31 16 534 2679
 536 ?156 331 531 532 0 0 1 31 535 2687 0 331 532 537 0 +.02425 .03725 .021 1 -1
83697019872103e-30 0 183697019872103e-30 1 0 .002 16 331 2685 538 ?168 327 534 5
35 0 0 1 30 537 3371 0 330 535 539 0 +-.03425 .02075 .024 -183697019872103e-30 -
1 0 16 330 3369 540 ?541 542 327 537 0 0 1 30 539 3377 0 542 537 543 0 +-.032297
3372781065 .02075 .0193136094674556 .384615384615385 -706526999508089e-31 -.9230
76923076923 16 542 3375 544 ?545 546 330 539 0 0 1 30 543 3388 0 546 539 547 0 +
-.02425 .02425 0 183697019872103e-30 1 0 16 546 3386 548 ?140 549 542 543 0 0 1
 30 547 3394 0 549 543 550 0 +-.0217278106508876 .02425 -.00605325443786982 -.38
4615384615385 0 .923076923076923 16 549 3392 551 ?552 553 546 547 0 0 1 30 550 5
899 0 553 547 554 0 +1734723475976805e-33 .02875 .019 -1 0 1224646799147352e-31
 16 553 5898 43 ?128 555 549 550 0 0 1 30 554 5901 0 555 550 556 0 +173472347597
6805e-33 .02875 .019 -1 0 1224646799147352e-31 16 555 5900 557 ?120 558 553 554
 0 0 1 30 556 5904 0 558 554 559 0 +1734723475976805e-33 .02875 .019 -1 0 122464
6799147352e-31 16 558 5902 560 ?561 562 555 556 0 0 1 30 559 5915 0 562 556 563
 0 --4495629183005395e-33 .02425 .0145 -1 0 1224646799147352e-31 16 562 5913 564
 ?565 566 558 559 0 0 1 31 563 6044 0 566 559 567 0 +-.02425 .02875 .0145 1 -183
697019872103e-30 0 183697019872103e-30 1 0 .0045 16 566 5922 568 ?569 570 562 56
3 0 0 1 31 567 6045 0 570 563 571 0 -.02425 .02875 .0145 1 -183697019872103e-30
 0 183697019872103e-30 1 0 .0045 16 570 5927 572 ?124 573 566 567 0 0 1 30 571 6
297 0 573 567 574 0 +.03425 .02075 .036 -1 -183697019872103e-30 0 16 573 6295 57
5 ?269 576 570 571 0 0 1 30 574 6328 0 576 571 577 0 +.02125 .02225 .037 1 0 0 1
6 576 6326 578 ?579 580 573 574 0 0 1 30 577 6337 0 580 574 581 0 --346944695195
3615e-33 .02325 .037 1 0 0 16 580 6335 582 ?92 583 576 577 0 0 1 30 581 6344 0 5
83 577 584 0 +-.02425 -.00748339431396387 .037 -183697019872103e-30 -1 0 16 583
 6342 585 ?195 586 580 581 0 0 1 30 584 6347 0 586 581 587 0 +525963230264624e-3
3 .02175 .037 1 -183697019872103e-30 0 16 586 6345 588 ?589 590 583 584 0 0 1 30
 587 6354 0 590 584 591 0 --746485713417185e-32 .02175 .037 -1 -183697019872103e
-30 0 16 590 6352 592 ?96 38 586 587 0 0 1 30 591 6357 0 38 587 593 0 +.02425 -9
85205779944883e-33 .037 183697019872103e-30 1 0 16 38 6355 594 ?37 595 590 591 0
 0 1 31 593 6368 0 595 591 596 0 +.03425 .02325 .036 1 183697019872103e-30 0 -18
3697019872103e-30 1 0 .001 16 595 6366 597 ?100 267 38 593 0 0 1 31 596 6374 0 2
67 593 598 0 +.03425 .02175 .036 1 183697019872103e-30 0 -183697019872103e-30 1
 0 .001 16 267 6372 599 ?108 600 595 596 0 0 1 30 598 6390 0 600 596 601 0 --.03
425 .02075 .036 1 -183697019872103e-30 0 16 600 6388 602 ?66 603 267 598 0 0 1 3
1 601 6401 0 603 598 604 0 +-.03425 .02325 .036 -1 183697019872103e-30 0 -183697
019872103e-30 -1 0 .001 16 603 6399 605 ?58 606 600 601 0 0 1 31 604 6407 0 606
 601 607 0 +-.03425 .02175 .036 -1 183697019872103e-30 0 -183697019872103e-30 -1
 0 .001 16 606 6405 608 ?88 609 603 604 0 0 1 30 607 6413 0 609 604 610 0 +-5903
97300202485e-32 .02425 .036 1 0 0 16 609 6411 611 ?612 50 606 607 0 0 1 30 610 6
429 0 50 607 613 0 --.02125 .02125 .036 1 0 0 16 50 6427 614 ?41 615 609 610 0 0
 1 31 613 6677 0 615 610 616 0 -.02425 .02175 .036 1 -183697019872103e-30 0 1836
97019872103e-30 1 0 .001 16 615 6433 617 ?36 618 50 613 0 0 1 31 616 6678 0 618
 613 21 0 +-.02425 .02175 .036 1 -183697019872103e-30 0 183697019872103e-30 1 0
 .001 16 618 6438 619 ?62 26 615 616 0 0 1 31 21 6679 0 26 616 8 0 +.02125 .0222
5 .036 1 3061616997868385e-31 0 -3061616997868385e-31 1 0 .001 16 26 6443 620 ?5
2 11 618 21 0 0 1 81 1 620 6817 30 26 0 0 24 578 621 17 52 0 622 234 80 42 623 2
6 0 48 +15 622 879 0 624 625 0 17 234 0 622 427 52 231 48 417 0 626 +17 80 0 622
 52 199 77 416 412 0 623 -17 623 0 627 628 49 77 52 26 0 579 -17 48 0 46 41 424
 42 234 417 0 49 -15 46 618 0 48 629 0 17 424 0 46 48 47 231 630 421 0 0 +17 49
 0 627 623 631 42 41 50 0 0 -15 627 6772 0 631 19 0 17 631 0 627 49 628 29 25 11
 0 0 -17 628 0 627 631 623 81 579 576 0 0 -17 25 0 632 633 51 81 631 11 0 628 +1
5 632 613 0 633 634 0 17 633 0 632 184 25 200 84 409 0 635 -17 51 0 632 25 420 2
9 47 430 0 631 -17 420 0 632 51 211 216 636 408 0 630 +17 47 0 46 424 41 216 51
 430 0 420 +17 211 0 632 420 207 208 637 405 0 636 +17 636 0 638 215 630 208 420
 408 0 639 -17 630 0 638 636 626 216 424 421 0 0 -15 638 426 0 636 640 0 17 626
 0 638 630 215 231 427 413 0 424 -17 215 0 638 626 636 212 639 388 0 427 +17 427
 0 622 641 234 212 626 413 0 404 +17 641 0 622 624 427 235 404 399 0 392 -17 404
 0 642 639 392 212 641 399 0 0 +15 642 1023 0 639 643 0 17 639 0 642 637 404 208
 215 388 0 0 -17 392 0 642 404 637 235 644 389 0 0 +17 637 0 642 392 639 204 211
 405 0 644 -17 644 0 645 646 238 204 392 389 0 0 -15 645 1043 0 180 647 0 17 646
 0 645 180 644 181 207 393 0 648 -17 238 0 645 644 180 235 624 396 0 641 +17 180
 0 645 238 646 177 648 508 0 624 +17 624 0 622 199 641 177 238 396 0 649 -17 199
 0 622 80 624 196 649 511 0 416 +17 649 0 650 648 651 177 199 511 0 0 -15 650 13
19 0 652 653 0 17 648 0 650 635 649 181 180 508 0 0 -17 651 0 650 649 654 196 39
 499 0 0 -17 654 0 650 651 192 12 35 502 0 0 -17 39 0 655 37 416 12 651 499 0 65
4 +15 655 4536 0 39 656 0 17 37 0 655 96 39 70 28 38 0 657 +17 416 0 655 39 579
 196 80 412 0 651 +17 579 0 655 416 84 77 628 576 0 0 +17 84 0 655 579 203 81 63
3 409 0 25 +17 203 0 655 84 195 200 658 496 0 633 +17 195 0 655 203 589 193 659
 583 0 520 +17 658 0 650 652 635 193 203 496 0 0 -17 652 0 650 192 658 185 520 5
17 0 0 -17 635 0 650 658 648 200 184 514 0 0 -17 184 0 632 207 633 181 635 514 0
 646 +17 207 0 632 211 184 204 646 393 0 637 +17 192 0 650 654 652 189 188 505 0
 35 -17 520 0 660 659 661 193 652 517 0 658 +15 660 225 0 520 662 0 17 659 0 660
 62 520 73 195 583 0 589 -17 661 0 660 520 230 185 495 492 0 652 -17 230 0 660 6
61 152 227 663 458 0 495 +17 495 0 664 464 188 227 661 492 0 665 +15 664 1104 0
 666 667 0 17 464 0 664 666 495 223 665 461 0 0 +17 188 0 664 495 666 185 192 50
5 0 661 +17 665 0 668 663 226 227 464 461 0 0 -15 668 125 0 663 669 670 17 663 0
 668 140 665 149 230 458 0 671 -17 226 0 668 665 469 223 288 465 0 491 +17 469 0
 668 226 222 133 279 466 0 277 +17 288 0 34 287 491 133 226 465 0 469 -16 465 45
24 672 ?226 466 461 462 466 466 1 17 491 0 34 288 35 223 666 455 0 464 +15 34 45
54 0 287 673 0 17 35 0 34 491 28 189 654 502 0 666 +17 666 0 664 188 464 189 491
 455 0 0 -17 287 0 34 36 288 101 136 274 0 0 -14 255 673 222 674 ?675 676 34 6 6
77 +17 17 675 676 23 81 1 674 6872 678 673 679 0 680 681 682 14 675 202 681 ?669
 673 683 6 684 +0 0 669 673 23 14 676 218 680 ?673 685 686 6 687 +0 0 673 685 23
 50 255 677 234 0 673 687 688 0 +.02425 -.00748339431396388 .003 1 -183697019872
103e-30 0 183697019872103e-30 1 0 14 17 4561 689 ?690 0 691 6 677 +673 673 690 0
 23 13 23 69 0 0 0 0 0 0 10 17 81 1 689 6860 678 17 692 0 0 693 694 14 690 2986
 693 ?695 17 696 6 697 -662 662 695 17 23 15 691 221 0 172 17 0 17 172 0 691 116
 698 169 246 385 0 699 +17 116 0 691 124 172 113 700 284 0 565 +17 698 0 691 172
 168 243 364 360 0 701 -17 246 0 702 359 699 243 172 385 0 698 -17 699 0 702 246
 376 169 372 361 0 700 -15 702 1671 0 699 703 0 17 376 0 702 699 359 173 242 369
 0 0 +17 372 0 704 112 700 173 699 361 0 376 +17 700 0 704 372 565 169 116 284 0
 0 -15 704 5692 0 112 705 706 17 565 0 704 700 112 113 707 562 0 708 +16 284 476
3 709 ?116 264 710 296 0 0 1 81 1 709 6092 30 284 0 0 329 711 712 16 710 6362 71
3 ?250 284 273 714 0 0 1 30 296 5619 0 284 715 285 0 +.02425 .02425 .003 0 0 -1
 30 715 5620 0 274 714 296 0 +.02425 .02075 .0185 0 0 -1 16 274 6291 716 ?136 25
9 717 715 0 0 1 30 714 5621 0 710 718 715 0 +.03425 .02425 .003 0 0 -1 30 718 56
22 0 273 275 714 0 +.03425 -.00748339431396387 .037 183697019872103e-30 -1 0 16
 273 6302 719 ?261 710 259 718 0 0 1 30 275 5623 0 259 720 718 0 +.03425 .02075
 .0185 0 0 -1 31 720 5624 0 717 721 275 0 -.02925 .024249999999995 .0295 0 -1 0
 0 0 1 .00165 16 717 5164 291 ?722 274 723 720 0 0 1 31 721 5625 0 724 725 720 0
 +.02925 .02075 .0295 -183697019872103e-30 1 0 -1 -183697019872103e-30 0 .0028 1
6 724 5124 726 ?727 728 0 721 0 0 1 31 725 5626 0 723 729 721 0 +.02925 .02235 .
0295 -183697019872103e-30 1 0 -1 -183697019872103e-30 0 .0028 16 723 5168 730 ?7
31 717 728 725 0 0 1 31 729 5627 0 728 0 725 0 +.02925 .02235 .0295 -18369701987
2103e-30 1 0 -1 -183697019872103e-30 0 .00165 16 728 5172 732 ?733 723 724 729 0
 0 1 81 1 732 5175 30 728 0 0 730 249 734 17 733 0 735 733 733 0 736 728 0 0 +15
 735 5514 0 733 737 738 17 736 0 739 736 736 0 733 728 0 0 -15 739 5502 0 736 74
0 741 14 740 5498 742 ?743 278 739 6 744 -0 0 743 278 23 15 741 5503 0 722 740 0
 17 722 0 741 722 722 0 745 717 0 0 +17 745 0 746 745 745 0 722 717 0 0 -15 746
 5305 0 745 705 0 14 705 228 747 ?662 625 704 6 748 +0 0 662 625 23 81 1 747 686
5 678 705 749 0 750 751 752 14 662 226 751 ?667 705 660 6 697 -690 690 667 705 2
3 14 625 619 750 ?705 640 622 6 753 -0 0 705 640 23 50 748 237 0 705 697 754 0 +
-590397300202485e-32 .02425 .003 0 1 0 0 0 1 50 697 236 0 662 688 748 0 +-.02425
 -.00748339431396387 .003 1 -183697019872103e-30 0 183697019872103e-30 1 0 50 75
4 1345 0 653 748 755 0 +-3469446951953615e-33 .02075 .037 0 -.485642931178632 .8
74157276121538 -1 0 0 14 653 1318 756 ?703 647 650 6 754 +0 0 703 647 23 51 755
 2712 0 757 754 758 0 +3061616997868375e-34 .03725 .021 1 0 -1224646799147352e-3
1 .002 -1224646799147352e-31 0 -1 14 757 2700 759 ?760 761 762 6 755 +0 0 760 76
1 23 50 758 3419 0 763 755 764 0 +-.03425 .0075 .024 -.923076923076923 169566479
881941e-30 -.384615384615385 183697019872103e-30 1 0 14 763 3407 765 ?766 767 76
8 6 758 +0 0 766 767 23 51 764 6071 0 769 758 770 0 +1183632416360498e-33 .02875
 .0145 -1 0 1224646799147352e-31 .0045 1224646799147352e-31 0 1 14 769 6055 771
 ?772 737 773 6 764 -0 0 772 737 23 51 770 6720 0 772 764 774 0 +.03425 .02175 .
036 -1 -183697019872103e-30 0 .001 183697019872103e-30 -1 0 14 772 6708 775 ?776
 769 777 6 770 +0 0 776 769 23 51 774 6741 0 776 770 20 0 +525963230264624e-33 .
02175 .036 1 -183697019872103e-30 0 .001 183697019872103e-30 1 0 14 776 6729 778
 ?779 772 780 6 774 +0 0 779 772 23 51 20 6762 0 779 774 7 0 +-590397300202485e-
32 .02325 .036 1 0 0 .001 0 0 -1 14 779 6750 781 ?19 776 782 6 20 +0 0 19 776 23
 81 1 781 6905 678 779 783 0 778 784 785 14 19 6771 784 ?0 779 627 6 7 +0 0 0 77
9 23 15 782 6751 0 786 779 0 17 786 0 782 787 788 89 58 603 0 0 -17 787 0 782 69
 786 97 92 580 0 0 -17 788 0 782 786 69 53 612 609 0 0 -17 58 0 789 144 790 53 7
86 603 0 791 +15 789 3128 0 792 767 0 17 144 0 789 541 58 141 791 321 0 552 +17
 790 0 789 58 88 89 320 317 0 786 -17 791 0 706 612 552 53 144 321 0 788 -15 706
 4542 0 791 705 793 17 612 0 706 250 791 67 788 609 0 263 +17 552 0 706 791 794
 141 795 549 0 796 +17 794 0 706 552 281 137 222 433 0 795 -17 795 0 768 671 796
 137 552 549 0 0 -17 796 0 768 795 797 141 541 330 0 0 -15 768 3408 0 795 763 0
 17 797 0 768 796 671 145 545 542 0 541 -17 541 0 789 792 144 145 796 330 0 0 +1
7 792 0 789 88 541 63 148 314 0 798 -17 88 0 789 790 792 85 798 606 0 320 +17 14
8 0 799 545 66 145 792 314 0 797 +17 798 0 780 800 801 63 88 606 0 0 -15 780 673
0 0 798 776 0 17 800 0 780 76 798 59 66 600 0 0 -17 801 0 780 798 76 85 589 586
 0 0 -17 76 0 780 801 800 73 62 618 0 659 -17 589 0 655 195 320 73 801 586 0 0 +
17 320 0 655 589 92 85 790 317 0 801 +17 92 0 655 320 802 89 787 580 0 790 +17 8
02 0 655 92 96 97 261 273 0 787 -17 96 0 655 802 37 93 657 590 0 261 +17 261 0 2
56 108 100 93 802 273 0 266 +17 100 0 256 261 263 97 69 595 0 802 +17 266 0 777
 657 271 93 108 267 0 0 -15 777 6709 0 266 772 0 17 657 0 777 104 266 70 96 590
 0 0 -17 271 0 777 266 104 105 269 573 0 0 -17 104 0 777 271 657 101 36 615 0 26
9 -17 269 0 268 136 258 101 271 573 0 287 +17 36 0 34 28 287 70 104 615 0 37 +17
 263 0 256 100 257 67 250 710 0 0 -17 69 0 782 788 787 67 100 595 0 612 -17 250
 0 706 281 612 247 263 710 0 257 +17 281 0 706 794 250 219 265 282 0 0 -17 62 0
 660 152 659 59 76 618 0 803 +17 152 0 660 230 62 149 803 313 0 545 +17 803 0 79
9 66 545 59 152 313 0 800 -15 799 3108 0 803 760 0 17 66 0 799 148 803 63 800 60
0 0 792 +17 545 0 799 803 148 149 797 542 0 663 +14 760 3104 804 ?767 757 805 6
 806 +0 0 767 757 23 81 1 804 6890 678 760 807 0 759 808 809 14 767 3124 808 ?76
3 760 789 6 810 +0 0 763 760 23 15 805 4048 0 811 760 799 50 806 3136 0 760 810
 812 0 +-.03425 .02075 .0185 -183697019872103e-30 -1 0 1 -183697019872103e-30 0
 50 810 3141 0 767 813 806 0 +-.03425 .0075 .0185 -1 183697019872103e-30 0 -1836
97019872103e-30 -1 0 50 812 2496 0 814 806 815 0 +-95892101370154e-32 .03175 .02
05 -1224646799147352e-31 0 -1 1 0 -1224646799147352e-31 14 814 2426 816 ?817 818
 819 6 812 +0 0 817 818 23 51 815 2494 0 818 812 820 0 +-.01225 .03175 .0205 -12
24646799147352e-31 0 -1 .003 -1 0 1224646799147352e-31 14 818 2420 821 ?814 822
 823 6 815 -0 0 814 822 23 50 820 2492 0 761 815 824 0 +-95892101370154e-32 .031
75 .0205 -1224646799147352e-31 0 -1 1 0 -1224646799147352e-31 14 761 2473 825 ?7
57 817 826 6 820 +0 0 757 817 23 51 824 2489 0 817 820 827 0 +.01225 .03175 .020
5 -1224646799147352e-31 0 -1 .003 -1 0 1224646799147352e-31 14 817 2467 828 ?761
 814 829 6 824 -0 0 761 814 23 51 827 2137 0 822 824 830 0 +-.01225 .03175 .1070
63960728635 -1224646799147354e-31 0 -1 .0017 -1 0 1224646799147354e-31 14 822 20
78 831 ?818 832 833 6 827 -0 0 818 832 23 51 830 2134 0 832 827 834 0 +.01225 .0
3175 .107063960728635 -1224646799147354e-31 0 -1 .0017 -1 0 1224646799147354e-31
 14 832 2114 835 ?822 836 837 6 830 -0 0 822 836 23 50 834 1704 0 836 830 838 0
 +0 .03925 .0185 0 1 0 -1 0 0 14 836 1687 839 ?832 703 840 6 834 +0 0 832 703 23
 50 838 1701 0 695 834 841 0 +1734723475976805e-33 .03925 .019 1224646799147352e
-31 0 1 1 0 -1224646799147352e-31 14 695 1677 842 ?640 690 843 6 838 -0 0 640 69
0 23 50 841 1699 0 703 838 844 0 +173472347597681e-32 .03925 .022 12246467991473
52e-31 0 1 1 0 -1224646799147352e-31 14 703 1667 845 ?836 653 846 6 841 +0 0 836
 653 23 50 844 1056 0 647 841 847 0 +-3469446951953615e-33 3469446951953615e-33
 .013 0 0 1 1 0 0 14 647 1039 848 ?653 643 645 6 844 +0 0 653 643 23 50 847 1051
 0 643 844 849 0 +-3469446951953615e-33 -.02125 .013 0 1 0 0 0 1 14 643 1019 850
 ?647 656 642 6 847 +0 0 647 656 23 50 849 669 0 656 847 753 0 +-346944695195361
5e-33 3469446951953615e-33 .037 0 0 1 1 0 0 14 656 649 851 ?643 629 655 6 849 +0
 0 643 629 23 50 753 666 0 625 849 852 0 +.02125 -.001633827216923235 .037 1 306
1616997868385e-31 0 -3061616997868385e-31 1 0 50 852 664 0 629 753 853 0 +.00147
5333102047424 .02125 .037 0 1 0 0 0 1 14 629 614 854 ?656 634 46 6 852 -0 0 656
 634 23 50 853 661 0 634 852 855 0 +-.02125 -.0222176887243986 .037 -1 0 0 0 0 1
 14 634 609 856 ?629 669 632 6 853 -0 0 629 669 23 50 855 2 0 640 853 857 0 +-34
69446951953615e-33 3469446951953615e-33 .003 0 0 1 1 0 0 14 640 1 858 ?625 695 8
59 6 855 +0 0 625 695 23 50 857 183 0 669 855 684 0 +-3469446951953615e-33 34694
46951953615e-33 0 0 0 1 1 0 0 14 669 113 860 ?634 675 668 6 857 -0 0 634 675 23
 51 684 229 0 675 857 861 0 --.0155 -.0155 .003 0 0 -1 .00165 -1 0 0 51 861 230
 0 862 684 863 0 -.0155 -.0155 .003 0 0 -1 .00165 -1 0 0 14 862 206 864 ?865 667
 866 6 861 +0 0 865 667 23 51 863 231 0 865 861 867 0 -.0155 .0155 .003 0 0 -1 .
00165 -1 0 0 14 865 210 868 ?685 862 869 6 863 +0 0 685 862 23 51 867 232 0 685
 863 687 0 --.0155 .0155 .003 0 0 -1 .00165 -1 0 0 14 685 214 870 ?676 865 871 6
 867 +0 0 676 865 23 51 687 233 0 676 867 677 0 -0 0 .003 0 0 -1 .012 -1 0 0 81
 1 870 6870 678 685 872 0 868 680 873 15 871 213 0 442 685 874 17 442 0 871 442
 442 0 875 438 0 0 +15 874 215 0 876 685 0 17 876 0 874 876 876 0 477 474 0 0 -1
7 477 0 877 477 477 0 876 474 0 0 +15 877 127 0 477 669 878 15 878 128 0 481 669
 879 17 481 0 878 481 481 0 880 478 0 0 +15 879 129 0 485 669 881 17 485 0 879 4
85 485 0 882 482 0 0 +15 881 130 0 488 669 0 17 488 0 881 488 488 0 883 439 0 0
 +17 883 0 884 883 883 0 488 439 0 0 -15 884 203 0 883 675 0 17 882 0 885 882 88
2 0 485 482 0 0 -15 885 207 0 882 862 0 17 880 0 886 880 880 0 481 478 0 0 -15 8
86 211 0 880 865 0 17 875 0 887 875 875 0 442 438 0 0 -15 887 7 0 875 640 888 15
 888 8 0 889 640 890 17 889 0 888 889 889 0 446 443 0 0 -15 890 9 0 891 640 892
 17 891 0 890 891 891 0 450 447 0 0 -15 892 10 0 893 640 638 17 893 0 892 893 89
3 0 454 451 0 0 -17 454 0 683 454 454 0 893 451 0 0 +15 683 201 0 454 675 884 17
 450 0 866 450 450 0 891 447 0 0 +15 866 205 0 450 862 885 17 446 0 869 446 446
 0 889 443 0 0 +15 869 209 0 446 865 886 80 255 1 678 0 894 8001 0 0 0 0 3 5 0 0
 0 FFFFTFTFFFFFFF2 81 1 872 304 30 685 0 870 895 896 897 81 1 868 6869 678 865 8
96 0 864 870 898 81 1 680 6871 678 676 895 0 870 674 899 83 255 3 873 .603921568
627451 .647058823529412 .686274509803922 81 1 895 303 30 676 0 680 453 872 900 8
3 3 899 .603921568627451 .647058823529412 .686274509803922 80 1 30 901 902 9000
 0 0 0 0 3 6 0 0 0 FFTFTFTTFFFFFF1 81 1 453 296 30 451 0 0 487 895 903 82 255 3
 900 6 6 2 81 1 487 295 30 439 0 0 449 453 904 82 3 903 6 21 1 81 1 449 294 30 4
47 0 0 484 487 905 82 3 904 6 20 1 81 1 484 293 30 482 0 0 445 449 906 82 3 905
 6 19 1 81 1 445 292 30 443 0 0 480 484 907 82 3 906 6 18 1 81 1 480 291 30 478
 0 0 441 445 908 82 3 907 6 17 1 81 1 441 290 30 438 0 0 476 480 909 82 3 908 6
 16 1 81 1 476 289 30 474 0 0 436 441 910 82 3 909 6 15 1 81 1 436 288 30 434 0
 0 472 476 911 82 3 910 6 14 1 81 1 472 287 30 470 0 0 463 436 912 82 3 911 6 13
 1 81 1 463 281 30 461 0 0 225 472 913 82 3 912 6 12 1 81 1 225 273 30 223 0 0 2
29 463 914 82 3 913 6 6 1 81 1 229 271 30 227 0 0 0 225 915 82 3 914 6 6 0 82 3
 915 6 4 0 79 255 9 902 BTI/DetId81 1 896 305 30 865 0 868 872 916 917 81 1 864
 6868 678 862 916 0 918 868 919 83 3 898 .603921568627451 .647058823529412 .6862
74509803922 81 1 916 306 30 862 0 864 896 920 921 81 1 918 6867 678 667 922 0 75
1 864 923 83 3 919 .603921568627451 .647058823529412 .686274509803922 14 667 224
 918 ?862 662 664 6 688 -0 0 862 662 23 81 1 922 1387 30 667 0 918 924 498 925 8
1 1 751 6866 678 662 926 0 747 918 927 83 3 923 .603921568627451 .64705882352941
2 .686274509803922 81 1 926 6850 30 662 0 751 928 929 930 83 3 927 .603921568627
451 .647058823529412 .686274509803922 81 1 928 6849 30 625 0 750 931 926 932 81
 1 929 6851 30 767 0 808 926 807 933 82 3 930 39 7 2 81 1 808 6891 678 767 929 0
 804 765 934 81 1 807 6852 30 760 0 804 929 935 936 82 3 933 39 8 2 81 1 935 685
3 30 262 0 937 807 938 939 82 3 936 39 9 2 14 262 5488 937 ?278 286 256 6 940 +0
 0 278 286 23 81 1 937 6897 678 262 935 0 941 942 943 81 1 938 6854 30 286 0 941
 935 944 945 82 3 939 39 10 2 14 286 5482 941 ?262 946 947 6 948 +0 0 262 946 23
 81 1 941 6896 678 286 938 0 949 937 950 81 1 944 6855 30 656 0 851 938 679 951
 82 3 945 39 11 2 81 1 851 6877 678 656 944 0 854 850 952 81 1 679 6856 30 673 0
 674 944 749 953 82 3 951 39 12 2 81 1 749 6857 30 705 0 747 679 0 954 82 3 953
 39 13 2 82 3 954 39 14 2 81 1 854 6876 678 629 955 0 856 851 956 81 1 850 6878
 678 643 957 0 851 848 958 83 3 952 .603921568627451 .647058823529412 .686274509
803922 81 1 957 1022 30 643 0 850 391 210 959 81 1 848 6879 678 647 924 0 850 75
6 960 83 3 958 .603921568627451 .647058823529412 .686274509803922 81 1 924 1386
 30 647 0 848 961 922 962 81 1 756 6880 678 653 961 0 848 845 963 83 3 960 .6039
21568627451 .647058823529412 .686274509803922 81 1 961 1382 30 653 0 756 398 924
 964 81 1 845 6881 678 703 965 0 756 839 966 83 3 963 .603921568627451 .64705882
3529412 .686274509803922 81 1 965 2151 30 703 0 845 371 523 967 81 1 839 6882 67
8 836 968 0 845 835 969 83 3 966 .603921568627451 .647058823529412 .686274509803
922 81 1 968 2732 30 836 0 839 970 175 971 81 1 835 6883 678 832 972 0 839 831 9
73 83 3 969 .603921568627451 .647058823529412 .686274509803922 81 1 972 2522 30
 832 0 835 974 975 976 81 1 831 6884 678 822 975 0 835 821 977 83 3 973 .6039215
68627451 .647058823529412 .686274509803922 81 1 975 2523 30 822 0 831 972 163 97
8 81 1 821 6885 678 818 979 0 831 816 980 83 3 977 .603921568627451 .64705882352
9412 .686274509803922 81 1 979 2520 30 818 0 821 981 974 982 81 1 816 6886 678 8
14 974 0 821 828 983 83 3 980 .603921568627451 .647058823529412 .686274509803922
 81 1 974 2521 30 814 0 816 979 972 984 81 1 828 6887 678 817 985 0 816 825 986
 83 3 983 .603921568627451 .647058823529412 .686274509803922 81 1 985 2518 30 81
7 0 828 334 981 987 81 1 825 6888 678 761 981 0 828 759 988 83 3 986 .6039215686
27451 .647058823529412 .686274509803922 81 1 981 2519 30 761 0 825 985 979 989 8
1 1 759 6889 678 757 970 0 825 804 990 83 3 988 .603921568627451 .64705882352941
2 .686274509803922 81 1 970 2731 30 757 0 759 367 968 991 83 3 990 .603921568627
451 .647058823529412 .686274509803922 81 1 367 2730 30 365 0 0 363 970 992 82 3
 991 24 0 2 81 1 363 2729 30 360 0 0 536 367 993 82 3 992 24 7 1 81 1 536 2728 3
0 534 0 0 538 363 994 82 3 993 24 6 1 81 1 538 2727 30 331 0 0 533 536 995 82 3
 994 24 5 1 81 1 533 2726 30 531 0 0 529 538 996 82 3 995 24 4 1 81 1 529 2725 3
0 521 0 0 155 533 997 82 3 996 24 3 1 81 1 155 2722 30 153 0 0 159 529 998 82 3
 997 24 2 1 81 1 159 2721 30 157 0 0 167 155 999 82 3 998 24 3 0 81 1 167 2720 3
0 165 0 0 163 159 1000 82 3 999 24 2 0 81 1 163 2719 30 161 0 0 975 167 1001 82
 3 1000 24 1 0 82 3 1001 24 0 0 82 3 989 23 1 2 81 1 334 2517 30 332 0 0 339 985
 1002 82 3 987 23 0 2 81 1 339 2516 30 336 0 0 343 334 1003 82 3 1002 23 5 1 81
 1 343 2515 30 337 0 0 351 339 1004 82 3 1003 23 4 1 81 1 351 2514 30 345 0 0 34
8 343 1005 82 3 1004 23 3 1 81 1 348 2513 30 346 0 0 354 351 1006 82 3 1005 23 2
 1 81 1 354 2512 30 324 0 0 526 348 1007 82 3 1006 23 1 1 81 1 526 2154 30 373 0
 0 523 354 1008 82 3 1007 23 0 1 81 1 523 2153 30 341 0 0 965 526 1009 82 3 1008
 21 3 1 82 3 1009 21 2 1 82 3 984 23 3 2 82 3 982 23 2 2 82 3 978 23 5 2 82 3 97
6 23 4 2 81 1 175 3208 30 173 0 0 968 460 1010 82 3 971 24 1 2 81 1 460 3213 30
 458 0 0 175 147 1011 82 3 1010 28 1 0 81 1 147 3426 30 145 0 0 460 143 1012 82
 3 1011 28 2 1 81 1 143 3427 30 141 0 0 147 151 1013 82 3 1012 29 0 0 81 1 151 3
428 30 149 0 0 143 139 1014 82 3 1013 29 1 0 81 1 139 3429 30 137 0 0 151 540 10
15 82 3 1014 29 2 0 81 1 540 3430 30 330 0 0 139 544 1016 82 3 1015 29 3 0 81 1
 544 3431 30 542 0 0 540 548 1017 82 3 1016 29 0 1 81 1 548 3432 30 546 0 0 544
 551 1018 82 3 1017 29 1 1 81 1 551 3433 30 549 0 0 548 457 1019 82 3 1018 29 2
 1 81 1 457 3434 30 433 0 0 551 1020 1021 82 3 1019 29 3 1 81 1 1020 3437 30 763
 0 765 457 1022 1023 82 3 1021 29 4 1 81 1 765 6892 678 763 1020 0 808 1024 1025
 81 1 1022 3440 30 669 0 860 1020 311 1026 82 3 1023 29 0 2 81 1 860 6874 678 66
9 1022 0 681 856 1027 81 1 311 3887 30 306 0 0 1022 308 1028 82 3 1026 29 3 2 81
 1 308 4119 30 294 0 0 311 304 1029 82 3 1028 33 0 1 81 1 304 4120 30 302 0 0 30
8 300 1030 82 3 1029 35 0 1 81 1 300 4121 30 298 0 0 304 1031 1032 82 3 1030 35
 1 1 81 1 1031 4122 30 1033 0 1034 300 1035 1036 82 3 1032 35 2 1 14 1033 4088 1
034 ?946 766 1037 6 1038 -0 0 946 766 23 81 1 1034 6894 678 1033 1031 0 1024 949
 1039 81 1 1035 4123 30 946 0 949 1031 1040 1041 82 3 1036 35 0 2 14 946 4094 94
9 ?286 1033 1042 6 1043 +0 0 286 1033 23 81 1 949 6895 678 946 1035 0 1034 941 1
044 81 1 1040 4124 30 766 0 1024 1035 726 1045 82 3 1041 35 1 2 14 766 3873 1024
 ?1033 763 1046 6 813 -0 0 1033 763 23 81 1 1024 6893 678 766 1040 0 765 1034 10
47 81 1 726 5127 30 724 0 0 1040 293 1048 82 3 1045 35 2 2 81 1 293 5149 30 282
 0 0 726 283 1049 82 3 1048 36 74 1 81 1 283 5153 30 264 0 0 293 289 1050 82 3 1
049 36 69 1 82 3 1050 36 66 1 83 3 1047 .603921568627451 .647058823529412 .68627
4509803922 15 1046 4040 0 301 766 1051 51 813 3881 0 766 1038 810 0 +-.029249999
99990815 5e2 .0295 -183697019872103e-30 -1 0 .00165 1 -183697019872103e-30 0 51
 1038 4109 0 1033 1043 813 0 +-.02925 .02235 .0295 -183697019872103e-30 -1 0 .00
28 1 -183697019872103e-30 0 50 1043 4111 0 946 1052 1038 0 +-.02925 .02235 .0185
 -183697019872103e-30 -1 0 1 -183697019872103e-30 0 50 1052 5518 0 278 948 1043
 0 +.03425 .0075 .024 .923076923076923 169566479881941e-30 -.384615384615385 -18
3697019872103e-30 1 0 14 278 5493 942 ?740 262 276 6 1052 +0 0 740 262 23 50 948
 5547 0 286 940 1052 0 +.03425 .02075 .0185 183697019872103e-30 -1 0 -1 -1836970
19872103e-30 0 50 940 5548 0 262 744 948 0 +.03425 .0075 .0185 1 183697019872103
e-30 0 183697019872103e-30 -1 0 51 744 5549 0 740 1053 940 0 +.02924999999990815
 5e2 .0295 183697019872103e-30 -1 0 .00165 -1 -183697019872103e-30 0 51 1053 555
0 0 743 1054 744 0 +.02925 .02235 .0295 183697019872103e-30 -1 0 .0028 -1 -18369
7019872103e-30 0 14 743 5504 1055 ?737 740 1056 6 1053 -0 0 737 740 23 50 1054 5
551 0 737 0 1053 0 +.02925 .02235 .0185 183697019872103e-30 -1 0 -1 -18369701987
2103e-30 0 14 737 5510 1057 ?769 743 735 6 1054 +0 0 769 743 23 81 1 1057 6901 6
78 737 1058 0 1055 771 1059 81 1 1058 5513 30 737 0 1057 1060 1061 1062 81 1 105
5 6900 678 743 1060 0 742 1057 1063 81 1 771 6902 678 769 711 0 1057 775 1064 83
 3 1059 .603921568627451 .647058823529412 .686274509803922 81 1 711 6093 30 769
 0 771 709 1065 1066 81 1 775 6903 678 772 1067 0 771 778 1068 83 3 1064 .603921
568627451 .647058823529412 .686274509803922 81 1 1067 6845 30 772 0 775 1069 783
 1070 81 1 778 6904 678 776 1069 0 775 781 1071 83 3 1068 .603921568627451 .6470
58823529412 .686274509803922 81 1 1069 6844 30 776 0 778 1072 1067 1073 83 3 107
1 .603921568627451 .647058823529412 .686274509803922 81 1 1072 6843 30 19 0 784
 415 1069 1074 82 3 1073 39 1 2 81 1 784 6906 678 19 1072 0 781 0 1075 81 1 415
 6842 30 412 0 0 411 1072 1076 82 3 1074 39 0 2 81 1 411 6841 30 409 0 0 716 415
 1077 82 3 1076 39 29 1 81 1 716 6840 30 274 0 0 611 411 1078 82 3 1077 39 28 1
 81 1 611 6839 30 609 0 0 582 716 1079 82 3 1078 39 27 1 81 1 582 6838 30 580 0
 0 594 611 1080 82 3 1079 39 26 1 81 1 594 6837 30 38 0 0 597 582 1081 82 3 1080
 39 25 1 81 1 597 6836 30 595 0 0 713 594 1082 82 3 1081 39 24 1 81 1 713 6835 3
0 710 0 0 272 597 1083 82 3 1082 39 23 1 81 1 272 6834 30 259 0 0 719 713 1084 8
2 3 1083 39 22 1 81 1 719 6833 30 273 0 0 617 272 1085 82 3 1084 39 21 1 81 1 61
7 6832 30 615 0 0 592 719 1086 82 3 1085 39 20 1 81 1 592 6831 30 590 0 0 575 61
7 1087 82 3 1086 39 19 1 81 1 575 6830 30 573 0 0 599 592 1088 82 3 1087 39 18 1
 81 1 599 6829 30 267 0 0 605 575 1089 82 3 1088 39 17 1 81 1 605 6828 30 603 0
 0 323 599 1090 82 3 1089 39 16 1 81 1 323 6827 30 321 0 0 316 605 1091 82 3 109
0 39 15 1 81 1 316 6826 30 314 0 0 326 323 1092 82 3 1091 39 14 1 81 1 326 6825
 30 313 0 0 585 316 1093 82 3 1092 39 13 1 81 1 585 6824 30 583 0 0 319 326 1094
 82 3 1093 39 12 1 81 1 319 6823 30 317 0 0 588 585 1095 82 3 1094 39 11 1 81 1
 588 6822 30 586 0 0 602 319 1096 82 3 1095 39 10 1 81 1 602 6821 30 600 0 0 608
 588 1097 82 3 1096 39 9 1 81 1 608 6820 30 606 0 0 619 602 1098 82 3 1097 39 8
 1 81 1 619 6819 30 618 0 0 578 608 1099 82 3 1098 39 7 1 81 1 578 6818 30 576 0
 0 620 619 1100 82 3 1099 39 6 1 82 3 1100 39 5 1 83 3 1075 .603921568627451 .64
7058823529412 .686274509803922 81 1 783 6846 30 779 0 781 1067 955 1101 82 3 107
0 39 2 2 81 1 955 6847 30 629 0 854 783 931 1102 82 3 1101 39 3 2 81 1 931 6848
 30 634 0 856 955 928 1103 82 3 1102 39 4 2 81 1 856 6875 678 634 931 0 860 854
 1104 82 3 1103 39 5 2 83 3 1104 .603921568627451 .647058823529412 .686274509803
922 81 1 1065 6094 30 695 0 842 711 1105 1106 82 3 1066 38 0 2 81 1 842 6862 678
 695 1065 0 693 858 1107 81 1 1105 6095 30 690 0 693 1065 692 1108 82 3 1106 38
 1 2 81 1 693 6861 678 690 1105 0 689 842 1109 81 1 692 6097 30 17 0 689 1105 55
7 1110 82 3 1108 38 2 2 81 1 557 6098 30 555 0 0 692 560 1111 82 3 1110 38 4 2 8
1 1 560 6099 30 558 0 0 557 43 1112 82 3 1111 38 7 1 81 1 43 6100 30 553 0 0 560
 40 1113 82 3 1112 38 8 1 82 3 1113 38 9 1 83 3 1109 .603921568627451 .647058823
529412 .686274509803922 81 1 858 6863 678 640 1114 0 842 750 1115 83 3 1107 .603
921568627451 .647058823529412 .686274509803922 81 1 1114 1125 30 640 0 858 401 2
02 1116 81 1 750 6864 678 625 928 0 858 747 1117 83 3 1115 .603921568627451 .647
058823529412 .686274509803922 83 3 1117 .603921568627451 .647058823529412 .68627
4509803922 81 1 401 1119 30 388 0 0 403 1114 1118 81 1 202 1362 30 200 0 0 1114
 198 1119 82 3 1116 12 3 2 81 1 198 1363 30 196 0 0 202 187 1120 82 3 1119 13 2
 0 81 1 187 1364 30 185 0 0 198 191 1121 82 3 1120 13 3 0 81 1 191 1365 30 189 0
 0 187 183 1122 82 3 1121 13 4 0 81 1 183 1366 30 181 0 0 191 179 1123 82 3 1122
 13 5 0 81 1 179 1367 30 177 0 0 183 519 1124 82 3 1123 13 6 0 81 1 519 1368 30
 517 0 0 179 504 1125 82 3 1124 13 7 0 81 1 504 1369 30 502 0 0 519 510 1126 82
 3 1125 13 0 1 81 1 510 1370 30 508 0 0 504 507 1127 82 3 1126 13 1 1 81 1 507 1
371 30 505 0 0 510 516 1128 82 3 1127 13 2 1 81 1 516 1372 30 514 0 0 507 513 11
29 82 3 1128 13 3 1 81 1 513 1373 30 511 0 0 516 494 1130 82 3 1129 13 4 1 81 1
 494 1375 30 492 0 0 513 490 1131 82 3 1130 13 5 1 81 1 490 1376 30 455 0 0 494
 395 1132 82 3 1131 13 7 1 81 1 395 1377 30 393 0 0 490 398 1133 82 3 1132 13 8
 1 81 1 398 1378 30 396 0 0 395 961 1134 82 3 1133 13 9 1 82 3 1134 13 10 1 81 1
 403 1118 30 399 0 0 407 401 1135 82 3 1118 12 6 1 81 1 407 1117 30 405 0 0 426
 403 1136 82 3 1135 12 5 1 81 1 426 1116 30 413 0 0 419 407 1137 82 3 1136 12 4
 1 81 1 419 1115 30 408 0 0 237 426 1138 82 3 1137 12 3 1 81 1 237 1112 30 235 0
 0 214 419 1139 82 3 1138 12 2 1 81 1 214 1111 30 212 0 0 206 237 1140 82 3 1139
 12 5 0 81 1 206 1109 30 204 0 0 210 214 1141 82 3 1140 12 4 0 81 1 210 1108 30
 208 0 0 957 206 1142 82 3 1141 12 2 0 82 3 1142 12 1 0 81 1 1060 5507 30 743 0
 1055 1143 1058 1144 81 1 742 6899 678 740 1143 0 942 1055 1145 83 3 1063 .60392
1568627451 .647058823529412 .686274509803922 81 1 1143 5501 30 740 0 742 254 106
0 1146 81 1 942 6898 678 278 254 0 937 742 1147 83 3 1145 .603921568627451 .6470
58823529412 .686274509803922 81 1 254 5496 30 278 0 942 252 1143 1148 83 3 1147
 .603921568627451 .647058823529412 .686274509803922 82 3 1148 36 27 2 82 3 1146
 36 33 2 82 3 1144 36 31 2 81 1 1061 5698 30 1 0 14 1058 221 1149 82 3 1062 36 3
2 2 81 1 14 6858 1150 1 1061 2 0 0 1151 81 1 221 5699 30 219 0 0 1061 171 1152 8
2 3 1149 6 0 3 81 1 171 5701 30 169 0 0 221 135 1153 82 3 1152 37 0 0 81 1 135 5
703 30 133 0 0 171 468 1154 82 3 1153 37 2 0 81 1 468 5704 30 466 0 0 135 672 11
55 82 3 1154 37 4 0 81 1 672 5706 30 465 0 0 468 131 1156 82 3 1155 37 0 1 81 1
 131 6080 30 129 0 0 672 119 1157 82 3 1156 37 2 1 81 1 119 6081 30 117 0 0 131
 127 1158 82 3 1157 38 0 0 81 1 127 6082 30 125 0 0 119 123 1159 82 3 1158 38 1
 0 81 1 123 6083 30 121 0 0 127 111 1160 82 3 1159 38 2 0 81 1 111 6084 30 109 0
 0 123 115 1161 82 3 1160 38 3 0 81 1 115 6085 30 113 0 0 111 568 1162 82 3 1161
 38 4 0 81 1 568 6086 30 566 0 0 115 564 1163 82 3 1162 38 5 0 81 1 564 6087 30
 562 0 0 568 572 1164 82 3 1163 38 0 1 81 1 572 6088 30 570 0 0 564 383 1165 82
 3 1164 38 1 1 81 1 383 6089 30 381 0 0 572 379 1166 82 3 1165 38 2 1 81 1 379 6
090 30 377 0 0 383 329 1167 82 3 1166 38 3 1 81 1 329 6091 30 327 0 0 379 709 11
68 82 3 1167 38 4 1 82 3 1168 38 5 1 80 1 1150 13 1169 8038 0 0 0 0 0 0 0 0 0 TT
TTTTTTTTTTTF10 98 255 6 1151 80 97 114 116 32 49 79 14 1169 SDL/TYSA_UNAME15 105
6 5508 0 731 743 1170 17 731 0 1056 731 731 0 1171 723 0 0 +15 1170 5509 0 1172
 743 0 17 1172 0 1170 1172 1172 0 727 724 0 0 -17 727 0 947 727 727 0 1172 724 0
 0 +15 947 5486 0 727 286 268 17 1171 0 738 1171 1171 0 731 723 0 0 -15 738 5515
 0 1171 737 0 17 301 0 1046 301 301 0 1173 298 0 0 +15 1051 3878 0 1174 766 0 17
 1174 0 1051 1174 1174 0 312 306 0 0 -17 312 0 793 312 312 0 1174 306 0 0 +15 79
3 3840 0 312 705 746 17 1173 0 1042 1173 1173 0 301 298 0 0 -15 1042 4098 0 1173
 946 1175 15 1175 4099 0 305 946 0 17 305 0 1175 305 305 0 1176 302 0 0 +17 1176
 0 1037 1176 1176 0 305 302 0 0 -15 1037 4092 0 1176 1033 1177 15 1177 4093 0 30
9 1033 0 17 309 0 1177 309 309 0 811 294 0 0 +17 811 0 805 811 811 0 309 294 0 0
 -83 3 1044 .603921568627451 .647058823529412 .686274509803922 83 3 1039 .603921
568627451 .647058823529412 .686274509803922 81 1 681 6873 678 675 920 0 674 860
 1178 83 3 1027 .603921568627451 .647058823529412 .686274509803922 81 1 920 307
 30 675 0 681 916 218 1179 83 3 1178 .603921568627451 .647058823529412 .68627450
9803922 81 1 218 767 30 216 0 0 920 233 1180 82 3 1179 6 10 2 81 1 233 768 30 23
1 0 0 218 423 1181 82 3 1180 10 1 0 81 1 423 776 30 421 0 0 233 391 1182 82 3 11
81 10 2 0 81 1 391 930 30 389 0 0 423 957 1183 82 3 1182 10 6 1 82 3 1183 11 7 1
 83 3 1025 .603921568627451 .647058823529412 .686274509803922 81 1 371 1749 30 3
61 0 0 241 965 1184 82 3 967 21 2 2 81 1 241 1657 30 239 0 0 245 371 1185 82 3 1
184 17 0 1 81 1 245 1645 30 243 0 0 387 241 1186 82 3 1185 16 3 0 81 1 387 1604
 30 385 0 0 375 245 1187 82 3 1186 16 1 0 81 1 375 1594 30 369 0 0 358 387 1188
 82 3 1187 16 0 1 81 1 358 1590 30 356 0 0 501 375 1189 82 3 1188 16 1 1 81 1 50
1 1391 30 499 0 0 498 358 1190 82 3 1189 16 5 1 81 1 498 1390 30 496 0 0 922 501
 1191 82 3 1190 13 15 1 82 3 1191 13 14 1 82 3 964 13 0 2 82 3 962 13 4 2 82 3 9
59 11 3 2 83 3 956 .603921568627451 .647058823529412 .686274509803922 83 3 950 .
603921568627451 .647058823529412 .686274509803922 83 3 943 .603921568627451 .647
058823529412 .686274509803922 83 3 934 .603921568627451 .647058823529412 .686274
509803922 82 3 932 39 6 2 82 3 925 13 5 2 50 688 235 0 667 677 697 0 +7273834945
91001e-48 -.02425 .003 0 1 0 0 0 1 82 3 921 6 9 2 82 3 917 6 8 2 82 3 897 6 7 2
 79 15 894 SDL/TYSA_COLOUR15 859 6 0 1192 640 887 17 1192 0 859 1192 1192 0 437
 434 0 0 -17 437 0 686 437 437 0 1192 434 0 0 +15 686 217 0 437 676 1193 15 1193
 219 0 1194 676 0 17 1194 0 1193 1194 1194 0 473 470 0 0 -17 473 0 670 473 473 0
 1194 470 0 0 +15 670 126 0 473 669 877 15 846 2030 0 1195 703 1196 17 1195 0 84
6 1195 1195 0 527 373 0 0 -15 1196 2022 0 1197 703 702 17 1197 0 1196 1197 1197
 0 524 341 0 0 -17 524 0 1198 524 524 0 1197 341 0 0 +15 1198 2118 0 524 832 0 1
7 527 0 1199 527 527 0 1195 373 0 0 +15 1199 2082 0 527 822 0 15 843 2367 0 384
 695 0 17 384 0 843 561 156 121 1200 381 0 1201 +17 561 0 843 1202 384 129 1201
 558 0 355 +17 156 0 843 384 1203 153 1204 534 0 1200 +17 1200 0 691 168 124 153
 384 381 0 1205 -17 1201 0 773 708 132 121 561 558 0 0 -15 773 6056 0 708 769 0
 17 708 0 773 707 1201 113 124 570 0 0 -17 132 0 773 1201 1206 129 120 555 0 561
 -17 1206 0 773 132 1207 117 128 553 0 0 -17 120 0 843 1208 1202 117 132 555 0 3
44 +17 1208 0 843 128 120 117 344 337 0 1206 -17 1202 0 843 120 561 129 355 324
 0 0 -17 344 0 1209 344 344 117 1208 337 0 1208 +15 1209 2425 0 344 818 0 17 355
 0 1210 355 355 129 1202 324 0 1202 +15 1210 2472 0 355 817 0 17 128 0 843 1203
 1208 125 1206 553 0 380 +17 1203 0 843 156 128 157 380 377 0 1204 -17 380 0 696
 569 160 125 1203 377 0 1207 +15 696 2985 0 176 690 0 17 569 0 696 176 380 109 1
207 566 0 707 +17 160 0 696 380 368 157 164 531 0 1203 +17 1207 0 773 1206 707 1
25 569 566 0 0 -17 707 0 773 1207 708 109 565 562 0 0 -17 368 0 696 160 242 161
 1211 365 0 0 +17 164 0 762 1212 1204 161 160 531 0 530 -15 762 2701 0 1205 757
 0 17 1212 0 762 1205 164 165 530 521 0 0 -17 1204 0 762 164 1205 157 156 534 0
 0 -17 530 0 840 1211 364 161 1212 521 0 368 +15 840 1691 0 364 836 0 17 1211 0
 840 701 530 239 368 365 0 0 -17 364 0 840 530 701 165 698 360 0 1212 +17 701 0
 840 364 1211 243 359 356 0 0 -17 359 0 702 376 246 239 701 356 0 1211 +17 1205
 0 762 1204 1212 153 168 331 0 0 -17 168 0 691 698 1200 165 1205 331 0 364 +17 2
42 0 696 368 176 239 376 369 0 359 -17 176 0 696 242 569 173 112 327 0 372 -17 1
12 0 704 565 372 109 176 327 0 569 +17 124 0 691 1200 116 121 708 570 0 384 +15
 837 2359 0 352 832 1198 17 352 0 837 352 352 0 1213 345 0 0 +17 1213 0 826 1213
 1213 0 352 345 0 0 -15 826 2477 0 1213 761 1214 15 1214 2478 0 349 761 0 17 349
 0 1214 349 349 0 1215 346 0 0 +17 1215 0 829 1215 1215 0 349 346 0 0 -15 829 24
71 0 1215 817 1210 15 833 2352 0 335 822 1199 17 335 0 833 335 335 0 1216 332 0
 0 +17 1216 0 819 1216 1216 0 335 332 0 0 -15 819 2430 0 1216 814 1217 15 1217 2
431 0 340 814 0 17 340 0 1217 340 340 0 1218 336 0 0 +17 1218 0 823 1218 1218 0
 340 336 0 0 -15 823 2424 0 1218 818 1209 83 3 809 .603921568627451 .64705882352
9412 .686274509803922 17 671 0 768 797 795 149 140 546 0 0 -17 140 0 668 222 663
 137 671 546 0 794 +17 222 0 668 469 140 219 794 433 0 279 +17 279 0 276 265 277
 219 469 466 0 281 -83 3 785 .603921568627451 .647058823529412 .686274509803922
 83 3 752 .603921568627451 .647058823529412 .686274509803922 81 1 730 5171 30 72
3 0 0 291 732 1219 81 1 249 5279 30 247 0 0 732 252 1220 82 3 734 36 76 1 82 3 1
220 36 33 0 81 1 291 5167 30 717 0 0 289 730 1221 82 3 1219 36 75 1 82 3 1221 36
 73 1 82 3 712 38 6 1 83 3 694 .603921568627451 .647058823529412 .68627450980392
2 83 3 682 .603921568627451 .647058823529412 .686274509803922 81 1 24 6816 30 11
 0 0 614 620 1222 82 3 621 39 4 1 81 1 614 6815 30 50 0 0 429 24 1223 82 3 1222
 39 3 1 81 1 429 6814 30 417 0 0 432 614 1224 82 3 1223 39 2 1 81 1 432 6813 30
 430 0 0 32 429 1225 82 3 1224 39 1 1 81 1 32 6812 30 193 0 0 27 432 1226 82 3 1
225 39 0 1 82 3 1226 39 17 0 82 3 292 36 67 1 82 3 255 36 32 0 81 1 107 6805 30
 105 0 0 57 95 1227 81 1 57 6804 30 53 0 0 91 107 1228 81 1 95 6806 30 93 0 0 10
7 103 1229 82 3 1227 39 10 0 81 1 103 6807 30 101 0 0 95 72 1230 82 3 1229 39 11
 0 81 1 72 6808 30 70 0 0 103 99 1231 82 3 1230 39 12 0 81 1 99 6809 30 97 0 0 7
2 31 1232 82 3 1231 39 13 0 81 1 31 6810 30 67 0 0 99 27 1233 82 3 1232 39 14 0
 82 3 1233 39 15 0 81 1 91 6803 30 89 0 0 87 57 1234 82 3 1228 39 9 0 81 1 87 68
02 30 85 0 0 65 91 1235 82 3 1234 39 8 0 81 1 65 6801 30 63 0 0 75 87 1236 82 3
 1235 39 7 0 81 1 75 6800 30 73 0 0 61 65 1237 82 3 1236 39 6 0 81 1 61 6799 30
 59 0 0 79 75 1238 82 3 1237 39 5 0 81 1 79 6798 30 77 0 0 83 61 1239 82 3 1238
 39 4 0 81 1 83 6797 30 81 0 0 44 79 1240 82 3 1239 39 3 0 81 1 44 6796 30 42 0
 0 40 83 1241 82 3 1240 39 2 0 82 3 1241 39 1 0 82 3 45 39 0 0 82 3 33 39 16 0 1
9 18 243 0 1 0 10 6 S0 74 4 CI16 index_map_offset0 0 1 dCCZ20 16 4 0 0 749 14 2
 784 0 0 0 0 0 0 0 0 0 0 0 0 0 0 0 0 80 1 13 1242 1243 8017 0 0 0 0 0 0 0 0 0 TT
TTTTTTTTTTTF3 84 255 6 15 Part 179 13 1243 SDL/TYSA_NAME1 0 
