**ABCDEFGHIJKLMNOPQRSTUVWXYZabcdefghijklmnopqrstuvwxyz**************************
**PARASOLID !"#$%&'()*+,-./:;<=>?@[\]^_`{|}~0123456789**************************
**PART1;
MC=unknown;
MC_MODEL=unknown;
MC_ID=unknown;
OS=unknown;
OS_RELEASE=unknown;
FRU=Parasolid 28.1.228;
APPL=Onshape;
SITE=unknown;
USER=unknown;
FORMAT=text;
GUISE=transmit;
KEY=BTGapi::writeModels_.xmt;
FILE=BTGapi::writeModels_.xmt;
DATE=2016-04-23T18:11:36 (UTC);
**PART2;
SCH=SCH_2801228_28101;
USFLD_SIZE=0;
**PART3;
**END_OF_HEADER*****************************************************************
T51 : TRANSMIT FILE created by modeller version 280122823 SCH_2801228_28101_1300
6203 0 12 33 CCCCCCI4 mesh1006 0 I8 polyline1008 0 CCCCCCCDI5 owner1040 0 CCCCCC
I13 boundary_mesh1006 0 I17 boundary_polyline1008 0 CCCA16 index_map_offset0 0 1
 dA9 index_map82 0 A17 node_id_index_map82 0 A20 schema_embedding_map82 0 A5 chi
ld12 0 A14 lowest_node_id0 0 1 dZ1 1395 2 3 0 0 0 0 0 0 1e3 1e-8 0 4 5 1 0 1 1 6
 7 8 9 0 0 10 11 12 0 0 0 0 0 0 81 255 1 2 1378 13 1 14 0 0 0 15 70 11 CI9 list_
type0 0 1 uI10 notransmit0 0 1 lCCCDCCDI12 finger_index0 0 1 dI12 finger_block10
12 0 CZ3 0 4 T1 0 0 4 20 1 16 16 13 255 6 779 0 1 0 17 0 0 18 0 50 255 7 127 0 1
7 19 0 0 +4011548038196365e-33 .012 .0095 0 1 0 0 0 1 31 255 8 1312 0 20 21 0 0
 +1999350274236555e-33 .015 0 0 0 1 1 0 0 .00165 29 255 9 984 0 12 22 0 .009 .01
2 .00475 19 8 CCCCCCCA5 owner12 0 Z10 781 0 1 18 0 23 V0 16 255 11 570 24 ?25 0
 26 27 28 28 1 18 255 12 982 29 30 0 31 9 ?1 81 1 29 1154 32 12 0 0 33 34 35 17
 255 30 0 36 37 38 12 39 40 0 41 -18 31 669 42 43 12 44 45 ?1 81 1 42 818 32 31
 0 0 46 47 48 17 43 0 49 50 25 31 51 26 0 52 -18 44 670 53 25 31 54 55 ?1 29 45
 801 0 31 55 22 .00875 0 0 29 55 800 0 44 56 45 .00875 0 .002 29 22 802 0 57 45
 9 .011 0 .0095 18 57 659 58 59 60 61 22 ?1 81 1 58 812 32 57 0 0 62 63 64 17 59
 0 49 65 50 57 66 67 0 68 +18 60 660 69 65 70 57 56 ?1 18 61 668 62 50 57 71 72
 ?1 81 1 62 811 32 61 0 0 73 58 74 17 50 0 49 59 43 61 75 76 0 77 -18 71 663 73
 78 61 79 80 ?1 29 72 795 0 61 80 81 .011 0 0 29 80 793 0 71 82 72 -.011 0 .0095
 29 81 797 0 54 72 83 .00675 0 .002 18 54 671 84 85 44 70 81 ?1 29 83 798 0 70 8
1 56 .00875 0 .0075 18 70 661 86 87 54 60 83 ?1 29 56 799 0 60 83 55 .00875 0 .0
095 81 1 86 824 32 70 0 0 88 89 90 17 87 0 49 91 65 70 92 93 0 94 -15 255 49 681
 0 59 95 0 17 91 0 49 85 87 96 97 98 0 99 +17 65 0 49 87 59 60 100 101 0 102 +17
 92 0 103 104 94 60 87 93 0 0 +16 93 557 105 ?92 101 98 106 0 0 1 17 94 0 103 92
 107 70 108 109 0 97 -15 103 344 0 104 110 0 17 107 0 103 94 104 111 112 113 0 0
 +17 108 0 114 115 97 111 94 109 0 107 +16 109 330 116 ?108 117 118 119 0 0 1 17
 97 0 114 108 99 70 91 98 0 0 -15 114 546 0 97 120 0 17 99 0 114 97 115 96 121 1
22 0 123 +16 98 545 124 ?91 93 125 126 125 125 1 81 1 124 842 32 98 0 0 127 128
 129 16 125 544 127 ?130 98 113 126 98 98 1 30 255 126 694 0 98 131 132 0 +-3469
446951953615e-33 0 .0075 -1 0 0 30 131 1122 0 133 134 126 0 +.009 .018 .00475 0
 -1 0 30 132 693 0 113 126 27 0 --.00875 0 .0075 0 0 1 16 113 558 135 ?107 125 1
36 132 0 0 1 30 27 692 0 11 132 137 0 +-3469446951953615e-33 0 .002 1 0 0 30 137
 691 0 138 27 139 0 +-.00875 0 .002 0 0 -1 16 138 583 140 ?141 142 28 137 0 0 1
 30 139 690 0 76 137 143 0 +-3469446951953615e-33 0 0 -1 0 0 16 76 600 144 ?75 2
6 67 139 142 142 1 30 143 689 0 101 139 145 0 +-3469446951953615e-33 0 .0095 -1
 0 0 16 101 616 146 ?65 67 93 143 136 136 1 30 145 688 0 147 143 106 0 +-.011 0
 .0095 0 0 1 16 147 626 63 ?148 136 142 145 0 0 1 30 106 687 0 93 145 149 0 +.00
875 0 .0075 0 0 1 30 149 686 0 26 106 150 0 -.00875 0 .002 0 0 -1 16 26 584 151
 ?51 11 76 149 0 0 1 30 150 685 0 67 149 152 0 +.011 0 .0095 0 0 1 16 67 621 153
 ?59 76 101 150 0 0 1 31 152 471 0 122 150 119 0 +0 0 .0075 0 0 -1 1 0 0 .00675
 16 122 525 154 ?99 155 133 152 0 0 1 31 119 362 0 109 152 156 0 +0 0 .0075 0 0
 1 1 0 0 .00875 31 156 361 0 118 119 157 0 +0 0 .0095 0 0 1 1 0 0 .00875 16 118
 334 158 ?104 109 155 156 0 0 1 31 157 261 0 159 156 160 0 +0 0 .002 0 0 -1 1 0
 0 .00875 16 159 566 161 ?162 163 117 157 0 0 1 31 160 260 0 117 157 164 0 +0 0
 0 0 0 -1 1 0 0 .00875 16 117 579 165 ?52 159 109 160 0 0 1 30 164 7 0 166 160 1
67 0 +4011548038196365e-33 .012 .0095 1 0 0 16 166 6 168 ?169 170 171 164 0 0 1
 30 167 11 0 170 164 172 0 +-.011 .01227355520608556 .0095 -183697019872103e-30
 -1 0 16 170 10 173 ?174 175 166 167 0 0 1 30 172 19 0 175 167 176 0 +.011 .0122
7355520608556 .0095 -183697019872103e-30 -1 0 16 175 18 177 ?68 178 170 172 0 0
 1 30 176 107 0 179 172 180 0 +4011548038196365e-33 .012 0 1 0 0 16 179 83 181 ?
182 183 163 176 163 163 1 30 180 106 0 183 176 184 0 +-.011 .01227355520608556 0
 -183697019872103e-30 -1 0 16 183 79 128 ?185 171 179 180 0 0 1 30 184 104 0 171
 180 186 0 +.011 .01227355520608556 0 -183697019872103e-30 -1 0 16 171 71 187 ?7
7 166 183 184 0 0 1 30 186 128 0 178 184 188 0 +.011 .012 .0095 0 0 -1 16 178 11
2 189 ?190 191 175 186 0 0 1 30 188 131 0 191 186 192 0 +-.011 .012 .0095 0 0 -1
 16 191 115 193 ?194 195 178 188 0 0 1 31 192 413 0 155 188 196 0 +0 0 .002 0 0
 -1 -1 0 0 .00675 16 155 430 197 ?198 118 122 192 0 0 1 30 196 530 0 195 192 21
 0 +-.00675 0 .0075 0 0 -1 16 195 529 199 ?200 201 191 196 0 0 1 30 21 533 0 201
 196 8 0 -.00675 0 .0075 0 0 -1 16 201 531 202 ?123 28 195 21 0 0 1 81 1 202 838
 32 201 0 0 199 203 204 17 123 0 205 121 198 96 85 201 0 0 +16 28 571 203 ?206 1
38 201 27 11 11 1 81 1 203 839 32 28 0 0 202 24 207 17 206 0 208 209 210 211 212
 28 0 213 +15 208 677 0 214 215 0 17 209 0 208 130 206 216 200 195 0 115 -17 210
 0 208 206 214 217 141 138 0 218 -18 211 724 89 206 96 219 220 ?1 17 212 0 221 1
62 213 217 206 28 0 0 -17 213 0 221 212 222 211 198 155 0 200 -15 221 572 0 212
 223 0 17 222 0 221 213 162 54 25 11 0 198 -17 198 0 205 123 200 54 213 155 0 0
 +17 200 0 205 198 121 211 209 195 0 0 +15 205 454 0 198 224 0 17 121 0 205 200
 123 216 99 122 0 0 -18 216 666 225 209 111 217 226 ?1 81 1 225 827 32 216 0 0 8
4 227 228 18 111 665 88 130 79 216 229 ?1 18 217 654 47 210 216 230 231 ?1 29 22
6 788 0 216 232 229 -.00675 0 .0075 29 232 786 0 233 234 226 -.011 0 0 29 229 78
9 0 111 226 235 -.00875 0 .0075 29 235 790 0 79 229 231 -.00875 0 .0095 18 79 66
4 236 112 71 111 235 ?1 29 231 791 0 217 235 82 -.00875 0 .002 29 82 792 0 230 2
31 80 -.00875 0 0 18 230 653 46 214 217 233 82 ?1 81 1 46 817 32 230 0 0 237 42
 238 17 214 0 208 210 239 230 240 142 0 241 -18 233 652 242 239 230 96 232 ?1 81
 1 242 809 32 233 0 0 168 73 243 17 239 0 208 214 78 233 148 147 0 185 -18 96 75
2 227 91 233 211 234 ?1 81 1 227 828 32 96 0 0 225 140 244 29 234 753 0 96 220 2
32 .00675 0 .0075 29 220 725 0 211 245 234 -.00675 0 .002 29 245 108 0 246 247 2
20 .011 .012 0 18 246 87 248 249 250 251 245 ?1 29 247 111 0 251 252 245 -.011 .
012 0 18 251 99 253 194 246 254 247 ?1 29 252 39 0 219 255 247 .011 .012 .0095 1
8 219 37 256 257 211 250 252 ?1 29 255 24 0 250 258 252 -.011 .012 .0095 18 250
 22 259 260 219 246 255 ?1 29 258 1134 0 261 262 255 -.009 .012 .00475 18 261 10
63 34 38 263 264 258 ?1 29 262 1135 0 264 265 258 -.009 .012 0 18 264 1078 266 2
67 261 268 262 ?1 29 265 1136 0 268 269 262 .009 .012 0 18 268 1075 33 270 264 0
 265 ?1 29 269 1138 0 254 271 265 -.009 .018 .00475 18 254 1081 272 273 251 274
 269 ?1 29 271 1139 0 274 275 269 -.009 .018 0 18 274 1072 276 277 254 278 271 ?
1 29 275 1140 0 278 279 271 .009 .018 0 18 278 1066 280 281 274 263 275 ?1 29 27
9 1141 0 263 0 275 .009 .018 .00475 18 263 1060 282 37 278 261 279 ?1 81 1 282 1
062 32 263 0 0 283 280 284 17 37 0 36 285 30 263 41 133 0 286 -15 36 1088 0 30 2
87 0 17 285 0 36 38 37 254 286 288 0 0 +17 41 0 289 290 291 12 37 133 0 292 +16
 133 1016 293 ?41 122 294 131 0 0 1 17 286 0 295 296 273 263 285 288 0 291 -15 2
95 1108 0 286 297 0 17 296 0 295 298 286 278 291 299 0 300 -17 273 0 295 286 298
 254 301 302 0 303 +16 288 1004 304 ?285 299 305 306 0 0 1 17 291 0 289 41 281 2
63 296 299 0 0 +15 289 1093 0 290 307 0 17 281 0 289 291 290 278 270 294 0 296 -
16 299 1012 308 ?291 309 288 310 0 0 1 81 1 308 1015 32 299 0 0 311 293 312 16 3
09 1020 313 ?300 302 299 314 0 0 1 30 310 1132 0 299 306 314 0 +.009 .018 .00153
584084695265 183697019872103e-30 0 1 30 306 1133 0 288 315 310 0 +-.001499938451
65652 .018 .00475 -1 0 0 30 314 1131 0 309 310 316 0 +4011548038196365e-33 .018
 0 1 0 0 30 316 1130 0 302 314 317 0 +-.009 .018 .00153584084695265 183697019872
103e-30 0 1 16 302 1038 283 ?273 318 309 316 0 0 1 30 317 1129 0 40 316 319 0 +-
.00149993845165652 .012 .00475 -1 0 0 16 40 1042 320 ?39 321 20 317 0 0 1 30 319
 1128 0 321 317 322 0 +.009 .012 .00153584084695265 183697019872103e-30 0 1 16 3
21 1054 323 ?292 305 40 319 0 0 1 30 322 1126 0 305 319 324 0 +-.009 .012 .00153
584084695265 183697019872103e-30 0 1 16 305 1028 325 ?326 288 321 322 0 0 1 30 3
24 1125 0 318 322 327 0 +-.009 .018 .00475 0 -1 0 16 318 1008 311 ?38 328 302 32
4 0 0 1 30 327 1124 0 328 324 134 0 +-.009 .018 0 0 -1 0 16 328 1034 329 ?267 29
4 318 327 0 0 1 30 134 1123 0 294 327 131 0 +.009 .018 0 0 -1 0 16 294 1024 330
 ?270 133 328 134 0 0 1 81 1 330 1027 32 294 0 0 313 329 331 17 270 0 332 249 30
0 268 281 294 0 290 +15 332 221 0 77 333 0 17 249 0 332 77 270 246 334 163 0 190
 +17 300 0 332 270 277 278 298 309 0 0 +17 290 0 289 281 41 268 292 321 0 334 -1
7 292 0 335 39 334 12 290 321 0 0 +17 334 0 335 292 190 268 249 163 0 0 -15 335
 989 0 336 17 0 17 190 0 335 334 169 246 257 178 0 337 +16 163 977 338 ?249 179
 159 176 179 179 1 81 1 338 1162 32 163 0 0 181 339 340 80 255 1 32 341 342 9000
 0 0 0 0 3 6 0 0 0 FFTFTFTTFFFFFF1 81 1 181 1161 32 179 0 0 343 338 344 81 1 339
 1372 32 345 0 0 338 346 347 82 255 3 340 28 4 1 16 345 1336 339 ?348 20 0 315 0
 0 1 81 1 346 1373 32 349 0 350 339 351 352 82 3 347 32 1 1 14 255 349 1348 350
 ?0 297 353 6 354 -0 0 0 297 23 81 1 350 1395 355 349 346 0 356 0 357 81 1 351 1
374 32 287 0 358 346 359 360 82 3 352 32 1 2 14 287 1084 358 ?307 95 361 6 362 +
0 0 307 95 23 81 1 358 1391 355 287 351 0 363 364 365 81 1 359 1375 32 333 0 366
 351 367 368 82 3 360 32 4 2 14 333 63 366 ?369 370 371 6 372 -0 0 369 370 23 81
 1 366 1385 355 333 359 0 373 374 375 81 1 367 1376 32 20 0 0 359 0 376 82 3 368
 32 5 2 16 20 1329 367 ?377 40 345 8 0 0 1 82 3 376 32 3 1 17 377 0 371 377 377
 0 378 20 0 0 +15 371 1310 0 377 333 332 17 378 0 379 378 378 0 377 20 0 0 -15 3
79 1347 0 378 349 0 80 1 355 0 380 8001 0 0 0 0 3 5 0 0 0 FFFFTFTFFFFFFF2 81 1 3
73 1384 355 370 381 0 382 366 383 81 1 374 1386 355 369 384 0 366 385 386 83 255
 3 375 .603921568627451 .647058823529412 .686274509803922 14 369 1 374 ?387 333
 388 6 389 +0 0 387 333 23 81 1 384 852 32 369 0 374 390 391 392 81 1 385 1387 3
55 387 393 0 374 394 395 83 3 386 .603921568627451 .647058823529412 .68627450980
3922 14 387 117 385 ?396 369 397 6 398 +0 0 396 369 23 81 1 393 848 32 387 0 385
 399 381 400 81 1 394 1388 355 396 399 0 385 401 402 83 3 395 .603921568627451 .
647058823529412 .686274509803922 14 396 121 394 ?215 387 403 6 19 -0 0 215 387 2
3 81 1 399 847 32 396 0 394 177 393 404 81 1 401 1389 355 215 405 0 394 363 406
 83 3 402 .603921568627451 .647058823529412 .686274509803922 14 215 676 401 ?95
 396 208 6 407 -95 95 95 396 23 81 1 405 815 32 215 0 401 153 237 408 81 1 363 1
390 355 95 237 0 401 358 409 83 3 406 .603921568627451 .647058823529412 .6862745
09803922 14 95 680 363 ?287 215 49 6 407 -215 215 287 215 23 81 1 237 816 32 95
 0 363 405 46 410 83 3 409 .603921568627451 .647058823529412 .686274509803922 82
 3 410 18 2 2 50 407 684 0 95 362 411 0 +227682456221956e-32 0 .00475 0 1 0 -1 0
 0 13 23 780 0 0 0 0 0 0 10 17 14 17 123 412 ?224 0 335 6 7 +0 0 224 0 23 81 1 4
12 1379 355 17 343 0 0 413 414 14 224 449 413 ?120 17 205 6 411 -0 0 120 17 23 8
1 1 413 1380 355 224 391 0 412 415 416 14 120 346 415 ?110 224 114 6 417 +0 0 11
0 224 23 51 255 411 467 0 224 407 417 0 +0 0 .0075 0 0 -1 .00675 -1 0 0 50 417 3
60 0 120 411 418 0 +-3469446951953615e-33 0 .0075 0 0 1 1 0 0 51 418 358 0 110 4
17 419 0 +0 0 .0075 0 0 1 .00875 1 0 0 14 110 340 420 ?223 120 103 6 418 -0 0 22
3 120 23 50 419 259 0 223 418 421 0 +-3469446951953615e-33 0 .002 0 0 -1 1 0 0 1
4 223 245 382 ?370 110 221 6 419 +0 0 370 110 23 51 421 257 0 370 419 389 0 +0 0
 .002 0 0 -1 .00875 -1 0 0 14 370 239 373 ?333 223 422 6 421 -0 0 333 223 23 50
 389 2 0 369 421 372 0 +-3469446951953615e-33 0 .0095 0 0 1 1 0 0 50 372 103 0 3
33 389 398 0 +-3469446951953615e-33 0 0 0 0 1 1 0 0 50 398 124 0 387 372 19 0 +.
011 .01227355520608556 .0095 1 -183697019872103e-30 0 183697019872103e-30 1 0 50
 19 126 0 396 398 7 0 +-.011 .01227355520608556 .0095 1 -183697019872103e-30 0 1
83697019872103e-30 1 0 15 422 243 0 52 370 0 17 52 0 422 51 141 31 241 117 0 75
 +17 51 0 422 218 52 44 43 26 0 0 +17 141 0 422 52 218 230 210 138 0 0 +17 241 0
 332 240 75 230 52 117 0 141 -17 75 0 332 241 77 31 50 76 0 0 +17 77 0 332 75 24
9 61 337 171 0 66 +17 337 0 397 257 66 246 77 171 0 0 -17 66 0 397 337 68 61 59
 67 0 0 -15 397 622 0 66 387 0 17 68 0 397 66 257 57 423 175 0 100 +17 257 0 397
 68 337 219 190 178 0 169 -17 423 0 388 424 100 219 68 175 0 0 -17 100 0 388 423
 102 57 65 101 0 0 -15 388 617 0 100 369 0 17 102 0 388 100 425 60 104 118 0 92
 -17 425 0 388 102 174 79 78 136 0 0 -17 104 0 103 107 92 79 102 118 0 425 +17 1
74 0 388 425 424 71 426 170 0 148 +17 78 0 208 239 112 71 425 136 0 174 +16 136
 615 427 ?78 113 147 143 101 101 1 81 1 427 835 32 136 0 0 105 146 428 81 1 105
 834 32 93 0 0 135 427 429 81 1 146 836 32 101 0 0 427 199 430 82 3 428 18 16 1
 81 1 199 837 32 195 0 0 146 202 431 82 3 430 18 17 1 82 3 431 18 20 1 81 1 135
 833 32 113 0 0 144 105 432 82 3 429 18 13 1 81 1 144 832 32 76 0 0 433 135 434
 82 3 432 18 12 1 81 1 433 831 32 142 0 0 151 144 435 82 3 434 18 9 1 16 142 599
 433 ?240 147 138 139 76 76 1 81 1 151 830 32 26 0 0 140 433 436 82 3 435 18 8 1
 81 1 140 829 32 138 0 0 227 151 437 82 3 436 18 5 1 82 3 437 18 4 1 17 240 0 33
2 438 241 233 214 142 0 0 +17 438 0 332 182 240 251 185 183 0 439 -17 182 0 332
 277 438 264 439 179 0 0 +17 185 0 403 148 194 233 438 183 0 240 +17 439 0 335 2
60 336 251 182 179 0 0 -17 260 0 335 169 439 250 194 191 0 426 -17 336 0 335 439
 39 264 326 305 0 182 -17 39 0 335 336 292 261 30 40 0 0 +17 326 0 440 303 267 2
61 336 305 0 39 +15 440 1103 0 326 441 0 17 303 0 440 301 326 254 38 318 0 285 -
17 267 0 440 326 301 264 277 328 0 336 +17 301 0 440 267 303 274 273 302 0 298 -
17 277 0 332 300 182 274 267 328 0 301 -17 298 0 295 273 296 274 300 309 0 0 -17
 38 0 36 30 285 261 303 318 0 326 +14 441 1099 442 ?297 307 440 6 443 -0 0 297 3
07 23 81 1 442 1393 355 441 444 0 364 356 445 14 297 1104 356 ?349 441 295 6 446
 +0 0 349 441 23 14 307 1089 364 ?441 287 289 6 447 +0 0 441 287 23 50 443 1119
 0 441 446 447 0 +-.009 .018 .00153584084695265 1 0 -183697019872103e-30 -183697
019872103e-30 0 -1 50 446 1121 0 297 354 443 0 +0 .018 .00475 0 1 0 -1 0 0 50 44
7 1117 0 307 443 362 0 +.009 .018 .00153584084695265 1 0 -183697019872103e-30 -1
83697019872103e-30 0 -1 50 362 1116 0 287 447 407 0 +-.00149993845165652 .018 .0
0475 0 0 1 1 0 0 51 354 1366 0 349 0 446 0 +1999350274236555e-33 .015 -.03850638
713233745 0 0 1 .00165 1 0 0 81 1 364 1392 355 307 448 0 358 442 449 81 1 448 10
92 32 307 0 364 272 444 450 83 3 449 .603921568627451 .647058823529412 .68627450
9803922 81 1 272 1083 32 254 0 0 276 448 451 81 1 444 1102 32 441 0 442 448 452
 453 82 3 450 27 4 2 81 1 452 1107 32 297 0 356 444 454 455 82 3 453 27 5 2 81 1
 356 1394 355 297 452 0 442 350 456 81 1 454 1151 32 1 0 14 452 266 457 82 3 455
 27 2 2 81 1 14 1377 458 1 454 2 0 0 459 81 1 266 1152 32 264 0 0 454 33 460 82
 3 457 18 0 3 81 1 33 1153 32 268 0 0 266 29 461 82 3 460 28 0 0 82 3 461 28 1 0
 80 1 458 13 462 8038 0 0 0 0 0 0 0 0 0 TTTTTTTTTTTTTF10 98 255 6 459 80 97 114
 116 32 49 79 255 14 462 SDL/TYSA_UNAME83 3 456 .603921568627451 .64705882352941
2 .686274509803922 81 1 276 1074 32 274 0 0 280 272 463 82 3 451 27 7 0 81 1 280
 1068 32 278 0 0 282 276 464 82 3 463 27 1 0 82 3 464 27 3 0 83 3 445 .603921568
627451 .647058823529412 .686274509803922 17 169 0 335 190 260 219 424 166 0 423
 +17 194 0 403 185 426 251 260 191 0 438 +17 426 0 403 194 148 250 174 170 0 424
 -15 403 120 0 185 396 0 17 148 0 403 426 185 71 239 147 0 0 +17 424 0 388 174 4
23 250 169 166 0 0 -17 112 0 208 78 130 79 107 113 0 104 -17 130 0 208 112 209 1
11 115 125 0 108 +17 115 0 114 99 108 216 130 125 0 121 -17 218 0 422 141 51 217
 162 159 0 212 -17 162 0 221 222 212 44 218 159 0 51 +81 1 382 1383 355 223 465
 0 420 373 466 81 1 465 854 32 223 0 382 391 467 468 81 1 420 1382 355 110 390 0
 415 382 469 83 3 466 .603921568627451 .647058823529412 .686274509803922 81 1 39
0 851 32 110 0 420 381 384 470 81 1 415 1381 355 120 467 0 413 420 471 83 3 469
 .603921568627451 .647058823529412 .686274509803922 81 1 467 855 32 120 0 415 46
5 165 472 83 3 471 .603921568627451 .647058823529412 .686274509803922 81 1 165 8
57 32 117 0 0 467 161 473 82 3 472 18 20 2 81 1 161 858 32 159 0 0 165 158 474 8
2 3 473 18 40 1 81 1 158 859 32 118 0 0 161 116 475 82 3 474 18 42 1 81 1 116 86
0 32 109 0 0 158 197 476 82 3 475 18 44 1 81 1 197 861 32 155 0 0 116 154 477 82
 3 476 18 46 1 81 1 154 862 32 122 0 0 197 304 478 82 3 477 18 48 1 81 1 304 100
7 32 288 0 0 154 311 479 82 3 478 18 50 1 81 1 311 1011 32 318 0 0 304 308 480 8
2 3 479 27 7 1 82 3 480 27 3 1 81 1 381 849 32 370 0 373 393 390 481 82 3 470 18
 12 2 82 3 481 18 8 2 81 1 391 853 32 224 0 413 384 465 482 82 3 468 18 18 2 82
 3 482 18 16 2 83 3 416 .603921568627451 .647058823529412 .686274509803922 81 1
 343 1160 32 17 0 412 325 181 483 83 3 414 .603921568627451 .647058823529412 .68
6274509803922 81 1 325 1158 32 305 0 0 323 343 484 82 3 483 28 1 2 81 1 323 1157
 32 321 0 0 320 325 485 82 3 484 28 2 1 81 1 320 1156 32 40 0 0 34 323 486 82 3
 485 28 1 1 81 1 34 1155 32 261 0 0 29 320 487 82 3 486 28 0 1 82 3 487 28 3 0 8
1 1 153 814 32 67 0 0 63 405 488 82 3 408 18 0 2 81 1 63 813 32 147 0 0 58 153 4
89 82 3 488 18 2 1 82 3 489 18 0 1 81 1 177 846 32 175 0 0 187 399 490 82 3 404
 18 4 2 81 1 187 845 32 171 0 0 173 177 491 82 3 490 18 38 1 81 1 173 844 32 170
 0 0 128 187 492 82 3 491 18 36 1 81 1 128 843 32 183 0 0 124 173 493 82 3 492 1
8 34 1 82 3 493 18 32 1 82 3 400 18 6 2 82 3 392 18 14 2 83 3 383 .6039215686274
51 .647058823529412 .686274509803922 79 15 380 SDL/TYSA_COLOUR83 3 365 .60392156
8627451 .647058823529412 .686274509803922 15 361 1319 0 494 287 36 17 494 0 361
 494 494 0 348 345 0 0 -17 348 0 353 348 348 0 494 345 0 0 +15 353 1346 0 348 34
9 379 83 3 357 .603921568627451 .647058823529412 .686274509803922 31 315 1369 0
 345 0 306 0 +1999350274236555e-33 .015 .00475 0 0 1 1 1224646799147352e-31 0 .0
0165 82 3 344 28 3 1 79 9 342 BTI/DetId81 1 313 1023 32 309 0 0 293 330 495 81 1
 329 1037 32 328 0 0 330 283 496 82 3 331 27 1 1 81 1 283 1041 32 302 0 0 329 28
2 497 82 3 496 27 0 1 82 3 497 27 11 1 81 1 293 1019 32 133 0 0 308 313 498 82 3
 495 27 5 1 82 3 498 27 2 1 82 3 312 27 9 1 82 3 284 27 5 0 81 1 259 148 32 250
 0 0 253 248 499 81 1 253 147 32 251 0 0 0 259 500 81 1 248 149 32 246 0 0 259 2
56 501 82 3 499 6 1 0 81 1 256 150 32 219 0 0 248 193 502 82 3 501 6 2 0 81 1 19
3 155 32 191 0 0 256 189 503 82 3 502 6 3 0 81 1 189 156 32 178 0 0 193 168 504
 82 3 503 6 0 1 81 1 168 160 32 166 0 0 189 242 505 82 3 504 6 1 1 82 3 505 6 5
 1 82 3 500 6 0 0 82 3 244 18 29 0 81 1 73 810 32 71 0 0 242 62 506 82 3 243 18
 0 0 82 3 506 18 2 0 82 3 238 18 8 0 81 1 236 821 32 79 0 0 53 69 507 81 1 53 82
0 32 44 0 0 47 236 508 81 1 69 822 32 60 0 0 236 88 509 82 3 507 18 16 0 81 1 88
 823 32 111 0 0 69 86 510 82 3 509 18 17 0 82 3 510 18 20 0 81 1 47 819 32 217 0
 0 42 53 511 82 3 508 18 13 0 82 3 511 18 12 0 81 1 84 826 32 54 0 0 89 225 512
 82 3 228 18 28 0 81 1 89 825 32 211 0 0 86 84 513 82 3 512 18 25 0 82 3 513 18
 24 0 17 25 0 49 43 85 44 222 11 0 162 +17 85 0 49 25 91 54 123 201 0 222 -81 1
 24 840 32 11 0 0 203 127 514 82 3 207 18 24 1 81 1 127 841 32 125 0 0 24 124 51
5 82 3 514 18 25 1 82 3 515 18 28 1 82 3 204 18 21 1 82 3 129 18 29 1 82 3 90 18
 21 0 82 3 74 18 4 0 82 3 64 18 6 0 82 3 48 18 9 0 82 3 35 28 2 0 19 18 133 0 1
 0 10 6 S0 74 4 CI16 index_map_offset0 0 1 dCCZ20 16 4 0 0 367 14 2 350 0 0 0 0
 0 0 0 0 0 0 0 0 0 0 0 0 80 1 13 516 517 8017 0 0 0 0 0 0 0 0 0 TTTTTTTTTTTTTF3
 84 255 6 15 Part 179 13 517 SDL/TYSA_NAME1 0 
