**ABCDEFGHIJKLMNOPQRSTUVWXYZabcdefghijklmnopqrstuvwxyz**************************
**PARASOLID !"#$%&'()*+,-./:;<=>?@[\]^_`{|}~0123456789**************************
**PART1;
MC=unknown;
MC_MODEL=unknown;
MC_ID=unknown;
OS=unknown;
OS_RELEASE=unknown;
FRU=Parasolid 28.1.228;
APPL=Onshape;
SITE=unknown;
USER=unknown;
FORMAT=text;
GUISE=transmit;
KEY=BTGapi::writeModels_.xmt;
FILE=BTGapi::writeModels_.xmt;
DATE=2016-04-23T17:33:20 (UTC);
**PART2;
SCH=SCH_2801228_28101;
USFLD_SIZE=0;
**PART3;
**END_OF_HEADER*****************************************************************
T51 : TRANSMIT FILE created by modeller version 280122823 SCH_2801228_28101_1300
6203 0 12 33 CCCCCCI4 mesh1006 0 I8 polyline1008 0 CCCCCCCDI5 owner1040 0 CCCCCC
I13 boundary_mesh1006 0 I17 boundary_polyline1008 0 CCCA16 index_map_offset0 0 1
 dA9 index_map82 0 A17 node_id_index_map82 0 A20 schema_embedding_map82 0 A5 chi
ld12 0 A14 lowest_node_id0 0 1 dZ1 3268 2 3 0 0 0 0 0 0 1e3 1e-8 0 4 5 1 0 1 1 6
 7 8 9 0 0 10 11 12 0 0 0 0 0 0 81 255 1 2 3234 13 1 14 0 0 0 15 70 11 CI9 list_
type0 0 1 uI10 notransmit0 0 1 lCCCDCCDI12 finger_index0 0 1 dI12 finger_block10
12 0 CZ3 0 4 T1 0 0 4 20 1 16 16 13 255 6 334 0 1 0 17 0 0 18 0 50 255 7 1312 0
 19 20 0 0 --.0496868979042284 -.18075 0 0 .242535625036333 .970142500145332 1 0
 0 31 255 8 2938 0 21 22 0 0 +-.0475 -.00595 -.02 1 612323399573677e-31 0 -61232
3399573677e-31 1 0 .00165 29 255 9 1937 0 12 23 0 -.036 -.0930594010767585 0 19
 8 CCCCCCCA5 owner12 0 Z10 121 0 1 18 0 24 V0 16 255 11 1285 25 ?26 0 27 28 0 0
 1 18 255 12 1935 29 30 0 31 9 ?1 81 1 29 2474 32 12 0 0 33 34 35 17 255 30 0 36
 37 38 12 39 40 0 41 -18 31 1905 42 43 12 44 23 ?1 81 1 42 2462 32 31 0 0 45 46
 47 17 43 0 48 49 50 31 51 52 0 53 -18 44 1274 54 55 31 56 57 ?1 29 23 1907 0 31
 57 9 -.036 -.1530594010767585 0 29 57 1278 0 44 58 23 -.0525 -.06075 -.03 29 58
 1267 0 56 59 57 -.0475 -.06075 -.03 18 56 1263 60 61 44 62 58 ?1 29 59 1256 0 6
2 63 58 -.0525 -.18075 0 18 62 1252 64 26 56 65 59 ?1 29 63 1067 0 65 66 59 -.03
95 -.06075 .005 18 65 1063 67 68 62 69 63 ?1 29 66 1056 0 69 70 63 -.0395 -.1807
5 .005 18 69 1052 71 72 65 73 66 ?1 29 70 1039 0 73 74 66 -.0395 -.06075 0 18 73
 1035 75 76 69 77 70 ?1 29 74 1034 0 77 78 70 -.0395 -.18075 0 18 77 1030 79 80
 73 81 74 ?1 29 78 1017 0 81 82 74 -.0325 -.06775 .005 18 81 1013 83 84 77 85 78
 ?1 29 82 1012 0 85 86 78 -.0325 -.17375 .005 18 85 1008 87 88 81 89 82 ?1 29 86
 1007 0 89 90 82 -.0325 -.06775 0 18 89 1003 91 92 85 93 86 ?1 29 90 1002 0 93 9
4 86 -.0325 -.17375 0 18 93 998 95 96 89 97 90 ?1 29 94 525 0 97 98 90 -.0475 -.
18075 0 18 97 520 99 100 93 101 94 ?1 29 98 117 0 101 102 94 -.046 .00375 .005 1
8 101 115 103 104 97 105 98 ?1 29 102 112 0 105 106 98 -.046 -.00375 .005 18 105
 110 107 108 101 109 102 ?1 29 106 107 0 109 110 102 -.054 -.00375 .005 18 109 1
05 111 112 105 113 106 ?1 29 110 102 0 113 114 106 -.054 .00375 .005 18 113 100
 115 116 109 117 110 ?1 29 114 87 0 117 118 110 -.0475 -.00375 .005 18 117 85 11
9 120 113 121 114 ?1 29 118 82 0 121 122 114 -.0475 -.06075 .005 18 121 80 123 1
24 117 125 118 ?1 29 122 72 0 125 126 118 -.0525 -.18075 .005 18 125 70 127 128
 121 129 122 ?1 29 126 67 0 129 130 122 -.0525 -.00375 .005 18 129 65 131 132 12
5 133 126 ?1 29 130 802 0 133 134 126 -.0475 -.06075 0 18 133 673 135 136 129 13
7 130 ?1 29 134 811 0 137 138 130 -.046 .00375 -.03 18 137 686 139 140 133 141 1
34 ?1 29 138 812 0 141 142 134 -.046 -.00375 -.03 18 141 680 143 144 137 145 138
 ?1 29 142 813 0 145 146 138 -.054 -.00375 -.03 18 145 698 147 148 141 149 142 ?
1 29 146 814 0 149 150 142 -.054 .00375 -.03 18 149 692 151 152 145 153 146 ?1 2
9 150 815 0 153 154 146 -.0475 -.00375 -.03 18 153 674 155 156 149 157 150 ?1 29
 154 818 0 157 158 150 -.0525 -.00375 -.03 18 157 704 159 160 153 161 154 ?1 29
 158 2421 0 162 163 154 -.044 -.1530594010767585 0 18 162 2278 164 165 166 167 1
58 ?1 29 163 2422 0 167 168 158 -.044 -.1484405989232414 0 18 167 2284 169 170 1
62 171 163 ?1 29 168 2423 0 171 172 163 -.04 -.146131197846483 0 18 171 2290 173
 174 167 175 168 ?1 29 172 2424 0 175 176 168 -.036 -.1484405989232414 0 18 175
 2296 177 50 171 178 172 ?1 29 176 2426 0 178 179 172 -.04 -.155368802153517 0 1
8 178 2308 180 181 175 0 176 ?1 29 179 2427 0 182 183 176 -.044 -.15305940107675
85 .003 18 182 2281 184 185 186 187 179 ?1 29 183 2428 0 187 188 179 -.044 -.148
4405989232414 .003 18 187 2287 189 190 182 191 183 ?1 29 188 2429 0 191 192 183
 -.04 -.146131197846483 .003 18 191 2293 193 194 187 195 188 ?1 29 192 2430 0 19
5 196 188 -.036 -.1484405989232414 .003 18 195 2299 197 198 191 199 192 ?1 29 19
6 2431 0 199 200 192 -.036 -.1530594010767585 .003 18 199 2305 46 49 195 166 196
 ?1 29 200 2432 0 166 201 196 -.04 -.155368802153517 .003 18 166 2275 45 202 199
 162 200 ?1 29 201 2433 0 203 204 200 -.04 -.095368802153517 0 18 203 2127 205 2
06 207 208 201 ?1 29 204 2435 0 208 209 201 -.036 -.0884405989232415 0 18 208 21
15 210 38 203 211 204 ?1 29 209 2436 0 211 212 204 -.04 -.086131197846483 0 18 2
11 2109 213 214 208 215 209 ?1 29 212 2437 0 215 216 209 -.044 -.088440598923241
5 0 18 215 2103 217 218 211 186 212 ?1 29 216 2438 0 186 219 212 -.044 -.0930594
010767585 0 18 186 2097 220 221 215 182 216 ?1 29 219 2439 0 161 222 216 -.04 -.
095368802153517 .003 18 161 2094 33 223 157 224 219 ?1 29 222 2440 0 224 225 219
 -.036 -.0930594010767585 .003 18 224 2124 34 37 161 226 222 ?1 29 225 2441 0 22
6 227 222 -.036 -.0884405989232415 .003 18 226 2118 228 229 224 230 225 ?1 29 22
7 2442 0 230 231 225 -.04 -.086131197846483 .003 18 230 2112 232 233 226 234 227
 ?1 29 231 2443 0 234 235 227 -.044 -.0884405989232415 .003 18 234 2106 236 237
 230 207 231 ?1 29 235 2444 0 207 0 231 -.044 -.0930594010767585 .003 18 207 210
0 238 239 234 203 235 ?1 81 1 238 2471 32 207 0 0 220 205 240 17 239 0 241 242 2
43 207 221 244 0 245 -15 255 241 2134 0 243 246 0 17 242 0 241 206 239 161 247 2
48 0 0 +17 243 0 241 239 206 186 249 250 0 251 -17 221 0 252 253 245 186 239 244
 0 243 +16 244 2004 254 ?221 255 256 257 0 0 1 17 245 0 252 221 237 207 258 259
 0 247 +15 252 2139 0 253 260 0 17 237 0 252 245 253 234 218 256 0 258 -17 258 0
 261 262 247 234 245 259 0 263 -16 259 2084 264 ?245 265 248 266 0 0 1 17 247 0
 261 258 267 207 242 248 0 0 -15 261 2170 0 247 268 269 17 267 0 261 247 270 161
 271 272 0 242 -16 248 2064 273 ?242 259 274 275 0 0 1 81 1 273 2507 32 248 0 0
 276 277 278 16 274 2048 277 ?279 248 40 280 0 0 1 30 255 275 2420 0 248 281 266
 0 +-.042 -.0942141016151378 .003 .866025403784439 -.5 0 31 281 3047 0 282 283 2
75 0 +-.0525 -.00595 -.002 -1 -612323399573677e-31 0 612323399573677e-31 -1 0 .0
0165 30 266 2419 0 259 275 284 0 +-.044 -.09075 .003 183697019872103e-30 -1 0 30
 284 2418 0 265 266 285 0 +-.0459094844589459 -.0895430402896273 .003 -.86602540
3784439 -.5 0 16 265 2080 286 ?263 287 259 284 0 0 1 30 285 2417 0 287 284 288 0
 +-.03409051554105405 -.0895430402896273 .003 -.866025403784439 .5 0 16 287 2076
 289 ?290 291 265 285 0 0 1 30 288 2416 0 291 285 292 0 +-.036 -.09075 .003 -183
697019872103e-30 1 0 16 291 2072 293 ?294 272 287 288 0 0 1 30 292 2415 0 272 28
8 295 0 +-.0419094844589459 -.0964712435199029 .003 .866025403784439 .5 0 16 272
 2068 296 ?271 297 291 292 0 0 1 31 295 2414 0 297 292 298 0 +-.04 -.09075 .003
 0 0 -1 1 0 0 .0025 16 297 2088 299 ?300 301 272 295 0 0 1 30 298 2413 0 250 295
 302 0 +-.042 -.0942141016151378 0 .866025403784439 -.5 0 16 250 1998 276 ?249 3
03 304 298 0 0 1 30 302 2412 0 303 298 305 0 +-.044 -.09075 0 183697019872103e-3
0 -1 0 16 303 2008 306 ?251 307 250 302 0 0 1 30 305 2411 0 307 302 308 0 +-.045
9094844589459 -.0895430402896273 0 -.866025403784439 -.5 0 16 307 2018 309 ?310
 311 303 305 0 0 1 30 308 2410 0 311 305 312 0 +-.03409051554105405 -.0895430402
896273 0 -.866025403784439 .5 0 16 311 2028 313 ?314 40 307 308 0 0 1 30 312 240
9 0 40 308 280 0 +-.036 -.09075 0 -183697019872103e-30 1 0 16 40 2038 315 ?39 27
4 311 312 0 0 1 30 280 2408 0 274 312 316 0 +-.0419094844589459 -.09647124351990
29 0 .866025403784439 .5 0 30 316 2406 0 301 280 317 0 +-.04 -.095368802153517 .
003 0 0 -1 16 301 2054 318 ?206 319 297 316 0 0 1 30 317 2405 0 319 316 320 0 +-
.036 -.0930594010767585 .003 0 0 -1 16 319 2044 321 ?41 322 301 317 0 0 1 30 320
 2404 0 322 317 323 0 +-.036 -.0884405989232415 .003 0 0 -1 16 322 2034 324 ?38
 325 319 320 0 0 1 30 323 2403 0 325 320 326 0 +-.04 -.086131197846483 .003 0 0
 -1 16 325 2024 327 ?214 256 322 323 0 0 1 30 326 2402 0 256 323 257 0 +-.044 -.
0884405989232415 .003 0 0 -1 16 256 2014 328 ?218 244 325 326 0 0 1 30 257 2401
 0 244 326 329 0 +-.044 -.0930594010767585 .003 0 0 -1 31 329 2400 0 330 257 331
 0 +-.04 -.15075 .003 0 0 -1 1 0 0 .0025 16 330 2269 332 ?333 334 335 329 0 0 1
 30 331 2399 0 334 329 336 0 +-.03958221256611175 -.1551275924660975 .003 .86602
5403784439 .5 0 16 334 2249 337 ?338 339 330 331 0 0 1 30 336 2398 0 339 331 340
 0 +-.036 -.1525769817019195 .003 -155091076241554e-30 1 0 16 339 2253 341 ?342
 343 334 336 0 0 1 30 340 2397 0 343 336 344 0 +-.038 -.1472858983848622 .003 -.
866025403784439 .5 0 16 343 2257 345 ?346 347 339 340 0 0 1 30 344 2396 0 347 34
0 348 0 +-.04358221256611155 -.148199389235822 .003 -.866025403784439 -.5 0 16 3
47 2261 349 ?350 351 343 344 0 0 1 30 348 2395 0 351 344 352 0 +-.044 -.15257698
17019195 .003 277555756156289e-30 -1 0 16 351 2265 353 ?354 355 347 348 0 0 1 30
 352 2394 0 355 348 356 0 +-.042 -.154214101615138 .003 .866025403784439 -.5 0 1
6 355 2245 357 ?358 359 351 352 0 0 1 30 356 2392 0 360 352 361 0 +-.03958221256
611175 -.1551275924660975 0 .866025403784439 .5 0 16 360 2229 362 ?363 52 21 356
 0 0 1 30 361 2391 0 52 356 364 0 +-.036 -.1525769817019195 0 -155091076241554e-
30 1 0 16 52 2219 365 ?51 366 360 361 0 0 1 30 364 2390 0 366 361 367 0 +-.038 -
.1472858983848622 0 -.866025403784439 .5 0 16 366 2209 368 ?369 370 52 364 0 0 1
 30 367 2389 0 370 364 371 0 +-.04358221256611155 -.148199389235822 0 -.86602540
3784439 -.5 0 16 370 2199 372 ?373 374 366 367 0 0 1 30 371 2388 0 374 367 375 0
 +-.044 -.1525769817019195 0 277555756156289e-30 -1 0 16 374 2189 376 ?377 335 3
70 371 0 0 1 30 375 2387 0 335 371 378 0 +-.042 -.154214101615138 0 .86602540378
4439 -.5 0 16 335 2179 379 ?380 330 374 375 0 0 1 30 378 2386 0 304 375 381 0 +-
.044 -.1530594010767585 .003 0 0 -1 16 304 2185 382 ?165 250 383 378 0 0 1 30 38
1 2385 0 383 378 384 0 +-.044 -.1484405989232414 .003 0 0 -1 16 383 2195 385 ?17
0 304 386 381 0 0 1 30 384 2384 0 386 381 387 0 +-.04 -.146131197846483 .003 0 0
 -1 16 386 2205 388 ?174 383 389 384 0 0 1 30 387 2383 0 389 384 390 0 +-.036 -.
1484405989232414 .003 0 0 -1 16 389 2215 391 ?50 386 392 387 0 0 1 30 390 2382 0
 392 387 393 0 +-.036 -.1530594010767585 .003 0 0 -1 16 392 2225 394 ?53 389 359
 390 0 0 1 30 393 2381 0 359 390 395 0 +-.04 -.155368802153517 .003 0 0 -1 16 35
9 2235 396 ?181 392 355 393 0 0 1 31 395 1725 0 397 393 398 0 --.04 -.09075 .004
99999999999545 0 0 1 1 0 0 .0025 16 397 1662 399 ?400 401 255 395 0 0 1 31 398 1
723 0 255 395 402 0 --.04 -.15075 .00499999999999545 0 0 1 1 0 0 .0025 16 255 16
91 403 ?404 397 244 398 0 0 1 30 402 801 0 405 398 406 0 +-.0525 -.1423422673948
724 -.03 612323399573677e-31 -1 0 16 405 604 407 ?408 409 401 402 0 0 1 30 406 7
99 0 409 402 410 0 +-.0475 -.1201401107162236 -.03 -183697019872103e-30 1 0 16 4
09 1264 411 ?156 412 405 406 0 0 1 30 410 798 0 412 406 413 0 +-.034587839727214
 .00375 -.03 1 0 0 16 412 620 414 ?415 416 409 410 0 0 1 30 413 797 0 416 410 41
7 0 +-.054 .00872091965636975 -.03 -183697019872103e-30 -1 0 16 416 588 418 ?419
 420 412 413 0 0 1 30 417 796 0 420 413 421 0 +-.04975 -.00375 -.03 1 0 0 16 420
 596 422 ?423 424 416 417 424 424 1 30 421 795 0 425 417 426 0 +-.046 .008720919
65636974 -.03 -183697019872103e-30 -1 0 16 425 624 427 ?428 429 424 421 0 0 1 30
 426 792 0 401 421 430 0 +-.0475 -.1201401107162236 0 -183697019872103e-30 1 0 1
6 401 628 431 ?432 405 397 426 0 0 1 30 430 19 0 433 426 434 0 +-.0525 -.1423422
673948724 .005 612323399573677e-31 -1 0 16 433 18 435 ?128 436 437 430 0 0 1 30
 434 23 0 436 430 438 0 +-.0496868979042284 -.18075 .005 1 0 0 16 436 22 439 ?44
0 441 433 434 0 0 1 30 438 31 0 441 434 442 0 +-.0475 -.1423422673948722 .005 61
2323399573677e-31 -1 0 16 441 30 443 ?444 445 436 438 0 0 1 30 442 39 0 445 438
 446 0 +-.0325 -.1203901107162236 .005 -183697019872103e-30 1 0 16 445 1009 447
 ?448 449 441 442 0 0 1 30 446 43 0 449 442 450 0 +-.03763727098703385 -.06075 .
005 1 0 0 16 449 42 451 ?452 453 445 446 0 0 1 30 450 47 0 453 446 454 0 +-.0345
87839727214 .00375 .005 1 0 0 16 453 46 455 ?456 457 449 450 0 0 1 30 454 51 0 4
57 450 458 0 +-.054 .00872091965636975 .005 -183697019872103e-30 -1 0 16 457 50
 459 ?112 460 453 454 0 0 1 30 458 55 0 460 454 461 0 +-.04975 -.00375 .005 1 0
 0 16 460 54 462 ?132 463 457 458 463 463 1 30 461 62 0 464 458 465 0 +-.046 .00
872091965636974 .005 -183697019872103e-30 -1 0 16 464 61 466 ?467 468 463 461 0
 0 1 30 465 273 0 429 461 469 0 +-.0496868979042284 -.18075 0 1 0 0 16 429 215 4
70 ?471 472 425 465 0 0 1 30 469 271 0 472 465 473 0 +-.0325 -.1203901107162236
 0 -183697019872103e-30 1 0 16 472 999 474 ?475 437 429 469 0 0 1 30 473 270 0 4
37 469 476 0 +-.03763727098703385 -.06075 0 1 0 0 16 437 203 477 ?478 433 472 47
3 0 0 1 30 476 324 0 479 473 480 0 +-.046 .00375 .005 0 0 -1 16 479 285 481 ?140
 482 483 476 0 0 1 30 480 325 0 482 476 484 0 +-.046 -.00375 .005 0 0 -1 16 482
 286 485 ?144 486 479 480 0 0 1 30 484 326 0 487 480 488 0 +-.054 -.00375 .005 0
 0 -1 16 487 287 489 ?148 483 490 484 0 0 1 30 488 327 0 483 484 491 0 +-.054 .0
0375 .005 0 0 -1 16 483 288 492 ?152 479 487 488 0 0 1 30 491 330 0 486 488 493
 0 +-.0475 -.00375 .005 0 0 -1 16 486 291 494 ?495 496 482 491 0 0 1 30 493 331
 0 468 491 497 0 +-.0475 -.06075 .005 0 0 -1 16 468 292 498 ?499 500 464 493 0 0
 1 30 497 332 0 500 493 501 0 +-.0525 -.18075 .005 0 0 -1 16 500 293 502 ?503 49
0 468 497 0 0 1 30 501 333 0 490 497 504 0 +-.0525 -.00375 .005 0 0 -1 16 490 29
4 505 ?160 487 500 501 0 0 1 30 504 1020 0 496 501 506 0 --.0325 -.06775 .005 0
 0 -1 16 496 1018 507 ?84 508 486 504 0 0 1 30 506 1026 0 508 504 509 0 +-.0325
 -.17375 .005 0 0 -1 16 508 1024 510 ?511 512 496 506 0 0 1 31 509 1042 0 512 50
6 513 0 --.0395 -.06775 0 0 0 1 1 0 0 .007 16 512 1040 514 ?92 515 508 509 0 0 1
 31 513 1048 0 515 509 516 0 --.0395 -.17375 0 0 0 1 1 0 0 .007 16 515 1046 517
 ?80 518 512 513 0 0 1 30 516 1059 0 518 513 519 0 --.0395 -.18075 .005 0 0 -1 1
6 518 1057 520 ?72 521 515 516 0 0 1 31 519 1070 0 521 516 522 0 +-.0395 -.06775
 .005 0 0 1 1 0 0 .007 16 521 1068 523 ?68 524 518 519 0 0 1 31 522 1076 0 524 5
19 525 0 +-.0395 -.17375 .005 0 0 1 1 0 0 .007 16 524 1074 526 ?88 527 521 522 0
 0 1 30 525 1082 0 527 522 528 0 +-.0395 -.06075 0 0 0 -1 16 527 1080 529 ?530 5
31 524 525 0 0 1 30 528 1259 0 531 525 532 0 +-.0496868979042284 -.18075 0 1 0 0
 16 531 1257 533 ?534 535 527 528 0 0 1 30 532 1270 0 535 528 536 0 --.0475 -.14
57780163716444 -.00874299590708886 594040953759896e-31 -.970142500145332 .242535
625036333 16 535 1268 537 ?61 27 531 532 0 0 1 30 536 1281 0 27 532 28 0 +-.0432
5 -.06075 -.03 -1 0 0 16 27 1279 538 ?55 11 535 536 0 0 1 30 28 1287 0 11 536 22
 0 --.0525 -.18075 4053007620307455e-35 -594040953759896e-31 .970142500145332 -.
242535625036333 31 22 2930 0 539 28 8 0 +-.0475 -.00595 -.002 1 612323399573677e
-31 0 -612323399573677e-31 1 0 .00165 16 539 3006 540 ?541 21 542 22 0 0 1 81 1
 540 3060 32 539 0 0 543 544 545 17 541 0 546 541 541 0 547 539 0 0 +16 21 2970
 544 ?548 360 539 8 0 0 1 16 542 2973 549 ?550 539 282 283 0 0 1 81 1 549 3055 3
2 542 0 0 551 552 553 17 550 0 554 550 550 0 555 542 0 0 +16 282 3009 551 ?556 5
42 0 281 0 0 1 31 283 3049 0 542 0 281 0 +-.0525 -.00595 -.02 -1 -61232339957367
7e-31 0 612323399573677e-31 -1 1224646799147352e-31 .00165 81 1 551 3054 32 282
 0 0 557 549 558 17 556 0 559 556 556 0 560 282 0 0 +15 559 3026 0 556 561 0 17
 560 0 562 560 560 0 556 282 0 0 -15 562 2945 0 560 563 564 14 255 563 314 565 ?
566 567 568 6 569 -0 0 566 567 24 15 564 313 0 408 563 0 17 408 0 564 26 160 44
 570 405 0 571 +17 26 0 564 572 408 62 571 11 0 503 +17 160 0 564 408 573 157 57
4 490 0 423 +17 570 0 575 576 55 157 408 405 0 0 -17 571 0 577 578 579 44 26 11
 0 0 -15 577 1301 0 571 19 0 17 578 0 577 100 571 56 55 27 0 0 -17 579 0 577 571
 100 62 534 531 0 0 -17 100 0 577 579 578 97 61 535 0 534 -17 534 0 580 471 503
 97 579 531 0 581 +15 580 311 0 503 566 0 17 471 0 580 72 534 77 581 429 0 582 +
17 503 0 580 534 583 62 572 500 0 579 +17 581 0 584 432 80 97 471 429 0 585 -15
 584 182 0 586 17 587 17 432 0 584 478 581 133 585 401 0 0 +17 80 0 584 581 586
 77 96 515 0 471 +17 585 0 588 61 499 97 432 401 0 0 -15 588 309 0 585 589 0 17
 61 0 588 156 585 56 100 535 0 590 +17 499 0 588 585 444 133 124 468 0 432 +17 4
44 0 588 499 120 121 591 441 0 0 +17 124 0 592 452 136 121 499 468 0 593 -15 592
 305 0 452 594 0 17 452 0 592 530 124 65 593 449 0 595 +17 136 0 592 124 530 133
 478 437 0 499 -17 593 0 596 591 68 121 452 449 0 444 -15 596 5 0 440 597 0 17 5
91 0 596 108 593 117 444 441 0 0 -17 68 0 596 593 448 65 598 521 0 452 +17 448 0
 596 68 88 81 599 445 0 598 +17 598 0 600 601 595 81 68 521 0 0 -15 600 1123 0 5
98 602 0 17 601 0 600 76 598 89 84 496 0 0 -17 595 0 600 598 76 65 530 527 0 0 -
17 76 0 600 595 601 73 92 512 0 530 -17 530 0 592 136 452 73 595 527 0 478 +17 4
78 0 584 92 432 73 136 437 0 0 +17 92 0 584 586 478 89 76 512 0 475 +17 586 0 58
4 80 92 93 475 472 0 0 -17 475 0 603 84 511 89 586 472 0 601 +15 603 307 0 599 6
04 0 17 84 0 603 599 475 81 601 496 0 448 +17 511 0 603 475 599 93 605 508 0 586
 +17 599 0 603 511 84 85 448 445 0 605 -17 605 0 606 607 96 85 511 508 0 0 -15 6
06 1102 0 607 608 0 17 607 0 606 582 605 69 88 524 0 0 -17 96 0 606 605 582 93 8
0 515 0 511 -17 582 0 606 96 607 77 72 518 0 0 -17 72 0 580 583 471 69 582 518 0
 440 +17 583 0 580 503 72 125 440 436 0 0 -17 440 0 596 88 128 69 583 436 0 607
 +17 88 0 596 448 440 85 607 524 0 599 +17 128 0 596 440 132 125 573 433 0 572 +
17 132 0 596 128 112 129 609 460 0 574 +17 573 0 564 160 572 129 128 433 0 0 -17
 572 0 564 573 26 125 503 500 0 583 -17 112 0 596 132 610 109 611 457 0 612 +17
 609 0 613 148 574 109 132 460 0 0 -17 574 0 613 609 423 129 160 490 0 573 -15 6
13 299 0 148 567 0 17 423 0 613 574 148 157 576 420 0 570 +17 148 0 613 423 609
 145 612 487 0 419 +17 576 0 575 614 570 145 423 420 0 0 -15 575 763 0 590 615 0
 17 614 0 575 415 576 149 419 416 0 0 -17 415 0 575 428 614 137 616 412 0 0 +17
 419 0 617 612 152 145 614 416 0 576 +15 617 301 0 152 618 0 17 612 0 617 611 41
9 109 148 487 0 609 -17 152 0 617 419 611 149 116 483 0 616 +17 611 0 617 152 61
2 113 112 457 0 610 -17 116 0 619 456 616 113 152 483 0 611 -17 616 0 619 116 14
0 149 415 412 0 614 -15 619 303 0 140 620 0 17 140 0 619 616 456 137 104 479 0 6
21 +17 456 0 619 140 116 101 610 453 0 622 +17 104 0 623 467 621 101 140 479 0 4
56 -17 621 0 623 104 144 137 428 425 0 415 -15 623 295 0 144 624 0 17 144 0 623
 621 467 141 625 482 0 626 +17 428 0 575 627 415 141 621 425 0 0 +17 627 0 575 5
90 428 153 626 424 0 0 -17 590 0 575 55 627 56 156 409 0 578 -17 626 0 628 625 4
95 141 627 424 0 428 +16 424 560 629 ?626 425 420 417 420 420 1 81 1 629 563 32
 424 0 0 443 418 630 80 255 1 32 631 632 9000 0 0 0 0 3 6 0 0 0 FFTFTFTTFFFFFF1
 81 1 443 413 32 441 0 0 435 629 633 81 1 418 591 32 416 0 0 629 422 634 82 255
 3 630 7 13 1 81 1 422 599 32 420 0 0 418 414 635 82 3 634 7 15 1 81 1 414 623 3
2 412 0 0 422 427 636 82 3 635 7 11 1 81 1 427 627 32 425 0 0 414 155 637 82 3 6
36 7 9 1 81 1 155 676 32 153 0 0 427 143 638 82 3 637 7 17 1 81 1 143 682 32 141
 0 0 155 139 639 82 3 638 7 11 0 81 1 139 688 32 137 0 0 143 151 640 82 3 639 7
 7 0 81 1 151 694 32 149 0 0 139 147 641 82 3 640 7 3 0 81 1 147 700 32 145 0 0
 151 159 642 82 3 641 7 1 0 81 1 159 706 32 157 0 0 147 643 644 82 3 642 7 5 0 8
1 1 643 907 32 1 0 14 159 135 645 82 3 644 7 9 0 81 1 14 3233 646 1 643 2 0 0 64
7 81 1 135 908 32 133 0 0 643 492 648 82 3 645 6 0 3 81 1 492 910 32 483 0 0 135
 481 649 82 3 648 8 0 0 81 1 481 911 32 479 0 0 492 489 650 82 3 649 8 0 1 81 1
 489 912 32 487 0 0 481 485 651 82 3 650 8 1 1 81 1 485 913 32 482 0 0 489 505 6
52 82 3 651 8 2 1 81 1 505 914 32 490 0 0 485 494 653 82 3 652 8 3 1 81 1 494 91
5 32 486 0 0 505 431 654 82 3 653 8 4 1 81 1 431 918 32 401 0 0 494 655 656 82 3
 654 8 5 1 81 1 655 919 32 620 0 657 431 658 659 82 3 656 8 8 1 14 620 304 657 ?
618 624 619 6 660 +0 0 618 624 24 81 1 657 3239 661 620 655 0 662 663 664 81 1 6
58 920 32 567 0 665 655 666 667 82 3 659 8 0 2 14 567 300 665 ?563 618 613 6 668
 -669 669 563 618 24 81 1 665 3241 661 567 658 0 663 565 670 81 1 666 921 32 669
 0 671 658 672 673 82 3 667 8 1 2 14 669 298 671 ?624 589 628 6 668 -567 567 624
 589 24 81 1 671 3237 661 669 666 0 674 662 675 81 1 672 922 32 618 0 663 666 67
6 677 82 3 673 8 2 2 14 618 302 663 ?567 620 617 6 678 -0 0 567 620 24 81 1 663
 3240 661 618 672 0 657 665 679 81 1 676 923 32 624 0 662 672 87 680 82 3 677 8
 3 2 14 624 296 662 ?620 669 623 6 681 +0 0 620 669 24 81 1 662 3238 661 624 676
 0 671 657 682 81 1 87 1142 32 85 0 0 676 71 683 82 3 680 8 4 2 81 1 71 1143 32
 69 0 0 87 95 684 82 3 683 9 0 0 81 1 95 1144 32 93 0 0 71 79 685 82 3 684 9 1 0
 81 1 79 1145 32 77 0 0 95 67 686 82 3 685 9 2 0 81 1 67 1146 32 65 0 0 79 83 68
7 82 3 686 9 3 0 81 1 83 1147 32 81 0 0 67 75 688 82 3 687 9 4 0 81 1 75 1148 32
 73 0 0 83 91 689 82 3 688 9 5 0 81 1 91 1149 32 89 0 0 75 526 690 82 3 689 9 6
 0 81 1 526 1150 32 524 0 0 91 510 691 82 3 690 9 7 0 81 1 510 1151 32 508 0 0 5
26 520 692 82 3 691 9 0 1 81 1 520 1152 32 518 0 0 510 517 693 82 3 692 9 1 1 81
 1 517 1153 32 515 0 0 520 523 694 82 3 693 9 2 1 81 1 523 1154 32 521 0 0 517 5
29 695 82 3 694 9 3 1 81 1 529 1155 32 527 0 0 523 507 696 82 3 695 9 4 1 81 1 5
07 1156 32 496 0 0 529 514 697 82 3 696 9 5 1 81 1 514 1157 32 512 0 0 507 474 6
98 82 3 697 9 6 1 81 1 474 1158 32 472 0 0 514 447 699 82 3 698 9 7 1 81 1 447 1
159 32 445 0 0 474 439 700 82 3 699 9 8 1 81 1 439 1160 32 436 0 0 447 477 701 8
2 3 700 9 9 1 81 1 477 1161 32 437 0 0 439 451 702 82 3 701 9 10 1 81 1 451 1162
 32 449 0 0 477 470 703 82 3 702 9 11 1 81 1 470 1163 32 429 0 0 451 704 705 82
 3 703 9 12 1 81 1 704 1164 32 608 0 706 470 707 708 82 3 705 9 13 1 14 608 1101
 706 ?602 615 606 6 709 +0 0 602 615 24 81 1 706 3248 661 608 704 0 710 711 712
 81 1 707 1165 32 602 0 711 704 713 714 82 3 708 9 0 2 14 602 1122 711 ?19 608 6
00 6 20 +0 0 19 608 24 81 1 711 3249 661 602 707 0 706 715 716 81 1 713 1167 32
 594 0 717 707 718 719 82 3 714 9 1 2 14 594 306 717 ?597 604 592 6 720 +0 0 597
 604 24 81 1 717 3245 661 594 713 0 721 722 723 81 1 718 1168 32 604 0 721 713 5
4 724 82 3 719 9 3 2 14 604 308 721 ?594 566 603 6 725 -0 0 594 566 24 81 1 721
 3244 661 604 718 0 726 717 727 81 1 54 1319 32 44 0 0 718 60 728 82 3 724 9 4 2
 81 1 60 1320 32 56 0 0 54 64 729 82 3 728 10 0 0 81 1 64 1321 32 62 0 0 60 99 7
30 82 3 729 10 1 0 81 1 99 1322 32 97 0 0 64 538 731 82 3 730 10 2 0 81 1 538 13
23 32 27 0 0 99 25 732 82 3 731 10 3 0 81 1 25 1324 32 11 0 0 538 537 733 82 3 7
32 10 0 1 81 1 537 1325 32 535 0 0 25 533 734 82 3 733 10 1 1 81 1 533 1326 32 5
31 0 0 537 411 735 82 3 734 10 2 1 81 1 411 1327 32 409 0 0 533 407 736 82 3 735
 10 3 1 81 1 407 1328 32 405 0 0 411 502 737 82 3 736 10 4 1 81 1 502 1329 32 50
0 0 0 407 738 739 82 3 737 10 5 1 81 1 738 1330 32 19 0 715 502 740 741 82 3 739
 10 6 1 14 19 1300 715 ?742 602 577 6 7 +0 0 742 602 24 81 1 715 3250 661 19 738
 0 711 743 744 81 1 740 1331 32 615 0 710 738 745 746 82 3 741 10 0 2 14 615 759
 710 ?608 597 575 6 747 -0 0 608 597 24 81 1 710 3247 661 615 740 0 722 706 748
 81 1 745 1334 32 566 0 726 740 403 749 82 3 746 10 1 2 14 566 312 726 ?604 563
 580 6 750 -0 0 604 563 24 81 1 726 3243 661 566 745 0 565 721 751 81 1 403 1730
 32 255 0 0 745 399 752 82 3 749 10 4 2 81 1 399 1731 32 397 0 0 403 753 754 82
 3 752 14 0 1 81 1 753 1736 32 597 0 722 399 164 755 82 3 754 14 1 1 14 597 1 72
2 ?615 594 756 6 757 +0 0 615 594 24 81 1 722 3246 661 597 753 0 717 710 758 81
 1 164 2458 32 162 0 0 753 184 759 82 3 755 14 2 2 81 1 184 2459 32 182 0 0 164
 180 760 82 3 759 16 0 0 81 1 180 2460 32 178 0 0 184 45 761 82 3 760 16 1 0 81
 1 45 2461 32 166 0 0 180 42 762 82 3 761 16 2 0 82 3 762 16 3 0 80 1 661 0 763
 8001 0 0 0 0 3 5 0 0 0 FFFFTFTFFFFFFF2 83 255 3 758 .0980392156862745 .56470588
2352941 .992156862745098 79 255 15 763 SDL/TYSA_COLOUR15 756 1641 0 400 597 764
 50 757 2 0 597 747 765 0 +-.04325 -.0885 .005 0 0 1 1 0 0 13 24 122 0 0 0 0 0 0
 10 17 14 17 166 766 ?589 0 767 6 765 -0 0 589 0 24 81 1 766 3235 661 17 557 0 0
 674 768 14 589 310 674 ?669 17 769 6 770 +0 0 669 17 24 15 767 1929 0 380 17 58
4 50 765 265 0 17 757 681 0 +-.04325 -.0885 0 0 0 1 1 0 0 50 681 315 0 624 765 6
68 0 +-.046 .00872091965636974 .005 1 -183697019872103e-30 0 183697019872103e-30
 1 0 50 668 316 0 669 681 678 0 +-.04975 -.00375 .005 0 1 0 0 0 1 50 678 317 0 6
18 668 660 0 +-.054 .00872091965636975 .005 1 -183697019872103e-30 0 18369701987
2103e-30 1 0 50 660 318 0 620 678 720 0 +-.034587839727214 .00375 .005 0 1 0 0 0
 1 50 720 319 0 594 660 725 0 +-.03763727098703385 -.06075 .005 0 1 0 0 0 1 50 7
25 320 0 604 720 770 0 +-.0325 -.1203901107162236 .005 -1 -183697019872103e-30 0
 183697019872103e-30 -1 0 50 770 321 0 589 725 750 0 +-.0475 -.1423422673948722
 .005 1 612323399573677e-31 0 -612323399573677e-31 1 0 50 750 322 0 566 770 569
 0 +-.0496868979042284 -.18075 .005 0 1 0 0 0 1 50 569 323 0 563 750 709 0 +-.05
25 -.1423422673948724 .005 1 612323399573677e-31 0 -612323399573677e-31 1 0 51 2
55 709 1113 0 608 569 20 0 +-.0395 -.17375 .005 0 0 -1 .007 -1 0 0 51 20 1134 0
 602 709 7 0 +-.0395 -.06775 .005 0 0 1 .007 1 0 0 17 380 0 767 363 377 178 771
 335 0 0 +17 363 0 767 51 380 31 772 360 0 0 +17 377 0 767 380 373 162 773 374 0
 0 +17 771 0 774 185 181 162 380 335 0 377 -15 774 2315 0 771 775 0 17 185 0 774
 358 771 182 165 304 0 354 -17 181 0 774 771 358 178 202 359 0 772 +17 358 0 774
 181 185 166 776 355 0 0 +17 202 0 777 338 772 166 181 359 0 778 -17 772 0 777 2
02 53 178 363 360 0 380 -15 777 2340 0 772 779 0 17 53 0 777 772 338 31 49 392 0
 363 +17 338 0 777 53 202 199 778 334 0 0 +17 49 0 48 342 43 199 53 392 0 780 -1
5 48 2335 0 43 781 0 17 342 0 48 50 49 195 780 339 0 0 +17 780 0 782 778 783 199
 342 339 0 338 -15 782 2351 0 776 784 785 17 778 0 782 776 780 166 338 334 0 358
 -17 783 0 782 780 786 195 346 343 0 342 -17 786 0 782 783 787 191 350 347 0 346
 -17 346 0 788 174 198 191 783 343 0 0 +15 788 2330 0 789 790 0 17 174 0 788 789
 346 171 194 386 0 791 +17 198 0 788 346 789 195 50 389 0 783 -17 789 0 788 198
 174 175 369 366 0 51 -17 50 0 48 43 342 175 198 389 0 789 +17 369 0 767 373 51
 171 789 366 0 0 +17 51 0 767 369 363 175 43 52 0 0 +17 373 0 767 377 369 167 79
1 370 0 0 +17 791 0 792 194 170 171 373 370 0 369 -15 792 2325 0 791 793 0 17 19
4 0 792 350 791 191 174 386 0 786 -17 170 0 792 791 350 167 190 383 0 773 +17 35
0 0 792 170 194 187 786 347 0 0 +17 190 0 794 354 773 187 170 383 0 787 -17 773
 0 794 190 165 167 377 374 0 373 -15 794 2320 0 773 795 0 17 165 0 794 773 354 1
62 185 304 0 771 +17 354 0 794 165 190 182 787 351 0 776 +17 787 0 782 786 776 1
87 354 351 0 350 -17 776 0 782 787 778 182 358 355 0 0 -14 795 2316 796 ?793 775
 794 6 797 +0 0 793 775 24 81 1 796 3254 661 795 798 0 799 800 801 14 793 2321 8
00 ?790 795 792 6 802 +0 0 790 795 24 14 775 2311 799 ?795 803 774 6 804 +0 0 79
5 803 24 50 797 2368 0 795 804 802 0 +-.044 -.1525769817019195 .003 1 2775557561
56289e-30 0 -277555756156289e-30 1 0 50 804 2369 0 775 805 797 0 +-.042 -.154214
101615138 .003 .5 .866025403784439 0 -.866025403784439 .5 0 50 802 2367 0 793 79
7 806 0 +-.04358221256611155 -.148199389235822 .003 .5 -.866025403784439 0 .8660
25403784439 .5 0 50 806 2366 0 790 802 807 0 +-.038 -.1472858983848622 .003 -.5
 -.866025403784439 0 .866025403784439 -.5 0 14 790 2326 808 ?781 793 788 6 806 +
0 0 781 793 24 50 807 2365 0 781 806 809 0 +-.036 -.1525769817019195 .003 -1 -15
5091076241554e-30 0 155091076241554e-30 -1 0 14 781 2331 810 ?779 790 48 6 807 +
0 0 779 790 24 50 809 2364 0 779 807 811 0 +-.03958221256611175 -.15512759246609
75 .003 -.5 .866025403784439 0 -.866025403784439 -.5 0 14 779 2336 812 ?784 781
 777 6 809 +0 0 784 781 24 51 811 1720 0 803 809 813 0 +-.04 -.09075 5e2 0 0 -1
 .0025 -1 0 0 14 803 1678 814 ?775 742 815 6 811 -0 0 775 742 24 51 813 1717 0 7
42 811 747 0 +-.04 -.15075 5e2 0 0 -1 .0025 -1 0 0 14 742 1707 743 ?803 19 816 6
 813 -0 0 803 19 24 50 747 779 0 615 813 757 0 +-.04325 -.0885 -.03 0 0 1 1 0 0
 81 1 743 3251 661 742 817 0 715 814 818 15 816 1899 0 333 742 819 17 333 0 816
 333 333 0 820 330 0 0 +15 819 1712 0 821 742 0 17 821 0 819 821 821 0 404 255 0
 0 -17 404 0 764 404 404 0 821 255 0 0 +15 764 1634 0 404 597 596 17 820 0 785 8
20 820 0 333 330 0 0 -15 785 2352 0 820 784 0 14 784 2347 822 ?246 779 782 6 805
 +0 0 246 779 24 81 1 822 3259 661 784 823 0 812 824 825 14 246 2130 824 ?260 78
4 241 6 826 +0 0 260 784 24 50 805 2371 0 784 826 804 0 +-.04 -.12075 .003 0 0 -
1 1 0 0 50 826 2372 0 246 827 805 0 +-.042 -.0942141016151378 .003 .5 .866025403
784439 0 -.866025403784439 .5 0 50 827 2373 0 260 828 826 0 +-.044 -.09075 .003
 1 183697019872103e-30 0 -183697019872103e-30 1 0 14 260 2135 829 ?830 246 252 6
 827 +0 0 830 246 24 50 828 2374 0 830 831 827 0 +-.0459094844589459 -.089543040
2896273 .003 .5 -.866025403784439 0 .866025403784439 .5 0 14 830 2140 832 ?833 2
60 834 6 828 +0 0 833 260 24 50 831 2375 0 833 835 828 0 +-.03409051554105405 -.
0895430402896273 .003 -.5 -.866025403784439 0 .866025403784439 -.5 0 14 833 2145
 836 ?837 830 838 6 831 +0 0 837 830 24 50 835 2376 0 837 839 831 0 +-.036 -.090
75 .003 -1 -183697019872103e-30 0 183697019872103e-30 -1 0 14 837 2150 840 ?841
 833 36 6 835 +0 0 841 833 24 50 839 2377 0 841 842 835 0 +-.0419094844589459 -.
0964712435199029 .003 -.5 .866025403784439 0 -.866025403784439 -.5 0 14 841 2155
 843 ?268 837 844 6 839 +0 0 268 837 24 50 842 2380 0 268 845 839 0 +-.04 -.1207
5 .003 0 0 -1 1 0 0 14 268 2166 846 ?561 841 261 6 842 +0 0 561 841 24 51 845 30
41 0 561 847 842 0 +-.0275 -.00595 -.002 -1 -612323399573677e-31 0 .00165 612323
399573677e-31 -1 0 14 561 3021 848 ?849 268 546 6 845 -0 0 849 268 24 51 847 304
4 0 849 0 845 0 +-.0275 -.00595 -.02 -1 -612323399573677e-31 0 .00165 6123233995
73677e-31 -1 0 14 849 2985 850 ?0 561 851 6 847 -0 0 0 561 24 81 1 850 3268 661
 849 852 0 848 0 853 15 851 2989 0 548 849 554 17 548 0 851 548 548 0 854 21 0 0
 +15 554 2990 0 550 849 0 17 854 0 769 854 854 0 548 21 0 0 -15 769 2937 0 854 5
89 855 15 855 2929 0 547 589 588 17 547 0 855 547 547 0 541 539 0 0 -81 1 852 30
57 32 849 0 850 552 856 857 81 1 848 3267 661 561 552 0 846 850 858 83 3 853 .09
80392156862745 .564705882352941 .992156862745098 81 1 552 3056 32 561 0 848 549
 852 859 81 1 846 3266 661 268 860 0 843 848 861 83 3 858 .0980392156862745 .564
705882352941 .992156862745098 81 1 860 2528 32 268 0 846 862 863 864 81 1 843 32
65 661 841 863 0 840 846 865 83 3 861 .0980392156862745 .564705882352941 .992156
862745098 81 1 863 2529 32 841 0 843 860 866 867 81 1 840 3264 661 837 866 0 836
 843 868 83 3 865 .0980392156862745 .564705882352941 .992156862745098 81 1 866 2
530 32 837 0 840 863 869 870 81 1 836 3263 661 833 869 0 832 840 871 83 3 868 .0
980392156862745 .564705882352941 .992156862745098 81 1 869 2531 32 833 0 836 866
 872 873 81 1 832 3262 661 830 872 0 829 836 874 83 3 871 .0980392156862745 .564
705882352941 .992156862745098 81 1 872 2532 32 830 0 832 869 875 876 81 1 829 32
61 661 260 875 0 824 832 877 83 3 874 .0980392156862745 .564705882352941 .992156
862745098 81 1 875 2533 32 260 0 829 872 817 878 81 1 824 3260 661 246 862 0 822
 829 879 83 3 877 .0980392156862745 .564705882352941 .992156862745098 81 1 862 2
527 32 246 0 824 798 860 880 83 3 879 .0980392156862745 .564705882352941 .992156
862745098 81 1 798 2526 32 795 0 796 881 862 882 82 3 880 16 7 2 81 1 881 2525 3
2 793 0 800 883 798 884 82 3 882 16 6 2 81 1 800 3255 661 793 881 0 796 808 885
 81 1 883 2524 32 790 0 808 886 881 887 82 3 884 16 5 2 81 1 808 3256 661 790 88
3 0 800 810 888 81 1 886 2523 32 781 0 810 889 883 890 82 3 887 16 4 2 81 1 810
 3257 661 781 886 0 808 812 891 81 1 889 2522 32 779 0 812 823 886 892 82 3 890
 16 3 2 81 1 812 3258 661 779 889 0 810 822 893 81 1 823 2521 32 784 0 822 894 8
89 895 82 3 892 16 2 2 81 1 894 2520 32 775 0 799 299 823 896 82 3 895 16 1 2 81
 1 799 3253 661 775 894 0 814 796 897 81 1 299 2519 32 297 0 0 332 894 898 82 3
 896 16 0 2 81 1 332 2518 32 330 0 0 264 299 899 82 3 898 16 37 1 81 1 264 2517
 32 259 0 0 306 332 900 82 3 899 16 36 1 81 1 306 2516 32 303 0 0 286 264 901 82
 3 900 16 35 1 81 1 286 2515 32 265 0 0 309 306 902 82 3 901 16 34 1 81 1 309 25
14 32 307 0 0 289 286 903 82 3 902 16 33 1 81 1 289 2513 32 287 0 0 313 309 904
 82 3 903 16 32 1 81 1 313 2512 32 311 0 0 293 289 905 82 3 904 16 31 1 81 1 293
 2511 32 291 0 0 315 313 906 82 3 905 16 30 1 81 1 315 2510 32 40 0 0 296 293 90
7 82 3 906 16 29 1 81 1 296 2509 32 272 0 0 277 315 908 82 3 907 16 28 1 81 1 27
7 2508 32 274 0 0 273 296 909 82 3 908 16 27 1 82 3 909 16 26 1 81 1 814 3252 66
1 803 910 0 743 799 911 83 3 897 .0980392156862745 .564705882352941 .99215686274
5098 81 1 910 2535 32 803 0 814 817 557 912 83 3 911 .0980392156862745 .56470588
2352941 .992156862745098 81 1 817 2534 32 742 0 743 875 910 913 81 1 557 2536 32
 17 0 766 910 551 914 82 3 912 16 15 2 82 3 914 16 16 2 82 3 913 16 14 2 83 3 89
3 .0980392156862745 .564705882352941 .992156862745098 83 3 891 .0980392156862745
 .564705882352941 .992156862745098 83 3 888 .0980392156862745 .564705882352941 .
992156862745098 83 3 885 .0980392156862745 .564705882352941 .992156862745098 82
 3 878 16 13 2 82 3 876 16 12 2 82 3 873 16 11 2 82 3 870 16 10 2 82 3 867 16 9
 2 82 3 864 16 8 2 82 3 859 20 0 2 81 1 856 3058 32 563 0 565 852 543 915 82 3 8
57 20 1 2 81 1 565 3242 661 563 856 0 665 726 916 81 1 543 3059 32 589 0 674 856
 540 917 82 3 915 20 2 2 81 1 674 3236 661 589 543 0 766 671 918 82 3 917 20 3 2
 83 3 918 .0980392156862745 .564705882352941 .992156862745098 83 3 916 .09803921
56862745 .564705882352941 .992156862745098 15 546 3025 0 541 561 559 15 844 2159
 0 919 841 0 17 919 0 844 223 41 203 279 274 0 249 -17 223 0 844 271 919 161 206
 301 0 267 -17 41 0 844 919 271 12 37 319 0 279 +17 279 0 587 39 249 12 919 274
 0 0 +17 249 0 587 279 251 203 243 250 0 0 +15 587 1959 0 249 17 0 17 251 0 587
 249 310 186 253 303 0 0 +17 310 0 587 251 314 215 920 307 0 0 +17 253 0 252 237
 221 215 251 303 0 310 -17 314 0 587 310 39 211 921 311 0 0 +17 920 0 834 233 21
8 211 310 307 0 314 -15 834 2144 0 920 830 0 17 233 0 834 263 920 230 214 325 0
 262 -17 218 0 834 920 263 215 237 256 0 253 +17 263 0 834 218 233 234 262 265 0
 0 +17 262 0 261 922 258 230 263 265 0 290 -17 922 0 261 270 262 226 290 287 0 2
94 -17 290 0 838 214 229 230 922 287 0 0 +15 838 2149 0 921 833 0 17 214 0 838 9
21 290 211 233 325 0 920 +17 229 0 838 290 921 226 38 322 0 922 -17 921 0 838 22
9 214 208 314 311 0 39 -17 38 0 36 30 294 208 229 322 0 921 +15 36 2154 0 30 837
 0 17 294 0 36 38 37 226 270 291 0 0 +17 37 0 36 294 30 224 41 319 0 270 -17 270
 0 261 267 922 224 294 291 0 271 -17 271 0 844 41 223 224 267 272 0 0 +17 39 0 5
87 314 279 208 30 40 0 0 +17 206 0 241 243 242 203 223 301 0 919 +83 3 825 .0980
392156862745 .564705882352941 .992156862745098 83 3 818 .0980392156862745 .56470
5882352941 .992156862745098 15 815 1892 0 300 803 923 17 300 0 815 300 300 0 924
 297 0 0 +15 923 1683 0 925 803 0 17 925 0 923 925 925 0 400 397 0 0 -17 400 0 7
56 400 400 0 925 397 0 0 +17 924 0 269 924 924 0 300 297 0 0 -15 269 2171 0 924
 268 0 83 3 801 .0980392156862745 .564705882352941 .992156862745098 83 3 768 .09
80392156862745 .564705882352941 .992156862745098 83 3 751 .0980392156862745 .564
705882352941 .992156862745098 83 3 748 .0980392156862745 .564705882352941 .99215
6862745098 83 3 744 .0980392156862745 .564705882352941 .992156862745098 83 3 727
 .0980392156862745 .564705882352941 .992156862745098 83 3 723 .0980392156862745
 .564705882352941 .992156862745098 83 3 716 .0980392156862745 .564705882352941 .
992156862745098 83 3 712 .0980392156862745 .564705882352941 .992156862745098 83
 3 682 .0980392156862745 .564705882352941 .992156862745098 83 3 679 .09803921568
62745 .564705882352941 .992156862745098 83 3 675 .0980392156862745 .564705882352
941 .992156862745098 15 628 297 0 495 669 0 17 495 0 628 626 926 153 120 486 0 6
27 +17 926 0 628 495 625 117 108 463 0 591 -17 120 0 588 444 156 117 495 486 0 9
26 -17 156 0 588 120 61 153 590 409 0 495 +17 625 0 628 926 626 105 144 482 0 46
7 -17 108 0 596 622 591 105 926 463 0 625 +16 463 58 927 ?108 464 460 458 460 46
0 1 81 1 927 403 32 463 0 0 462 459 928 81 1 462 401 32 460 0 0 455 927 929 81 1
 459 405 32 457 0 0 927 466 930 82 3 928 6 15 1 81 1 466 407 32 464 0 0 459 435
 931 82 3 930 6 17 1 81 1 435 411 32 433 0 0 466 443 932 82 3 931 6 19 1 82 3 93
2 6 23 1 81 1 455 399 32 453 0 0 498 462 933 82 3 929 6 13 1 81 1 498 395 32 468
 0 0 123 455 934 82 3 933 6 11 1 81 1 123 383 32 121 0 0 127 498 935 82 3 934 6
 7 1 81 1 127 381 32 125 0 0 119 123 936 82 3 935 6 15 0 81 1 119 379 32 117 0 0
 131 127 937 82 3 936 6 13 0 81 1 131 377 32 129 0 0 107 119 938 82 3 937 6 11 0
 81 1 107 375 32 105 0 0 111 131 939 82 3 938 6 9 0 81 1 111 373 32 109 0 0 103
 107 940 82 3 939 6 7 0 81 1 103 371 32 101 0 0 115 111 941 82 3 940 6 5 0 81 1
 115 369 32 113 0 0 0 103 942 82 3 941 6 3 0 82 3 942 6 1 0 17 622 0 596 610 108
 101 467 464 0 0 -17 610 0 596 112 622 113 456 453 0 0 -17 467 0 623 144 104 105
 622 464 0 0 +83 3 670 .0980392156862745 .564705882352941 .992156862745098 83 3
 664 .0980392156862745 .564705882352941 .992156862745098 80 1 646 13 943 8038 0
 0 0 0 0 0 0 0 0 TTTTTTTTTTTTTF10 98 255 5 647 108 101 103 32 49 79 14 943 SDL/T
YSA_UNAME82 3 633 6 25 1 79 9 632 BTI/DetId17 55 0 575 570 590 44 578 27 0 408 +
15 568 2952 0 555 563 562 17 555 0 568 555 555 0 550 542 0 0 -82 3 558 20 0 1 82
 3 553 20 1 1 81 1 544 3061 32 21 0 0 540 0 944 82 3 944 20 3 1 82 3 545 20 2 1
 81 1 396 2483 32 359 0 0 382 394 945 81 1 382 2482 32 304 0 0 236 396 946 81 1
 394 2484 32 392 0 0 396 391 947 82 3 945 16 1 1 81 1 391 2485 32 389 0 0 394 38
8 948 82 3 947 16 2 1 81 1 388 2486 32 386 0 0 391 385 949 82 3 948 16 3 1 81 1
 385 2487 32 383 0 0 388 254 950 82 3 949 16 4 1 81 1 254 2488 32 244 0 0 385 31
8 951 82 3 950 16 5 1 81 1 318 2489 32 301 0 0 254 321 952 82 3 951 16 6 1 81 1
 321 2490 32 319 0 0 318 324 953 82 3 952 16 7 1 81 1 324 2491 32 322 0 0 321 32
7 954 82 3 953 16 8 1 81 1 327 2492 32 325 0 0 324 328 955 82 3 954 16 9 1 81 1
 328 2493 32 256 0 0 327 379 956 82 3 955 16 10 1 81 1 379 2494 32 335 0 0 328 3
57 957 82 3 956 16 11 1 81 1 357 2495 32 355 0 0 379 362 958 82 3 957 16 12 1 81
 1 362 2496 32 360 0 0 357 337 959 82 3 958 16 13 1 81 1 337 2497 32 334 0 0 362
 365 960 82 3 959 16 14 1 81 1 365 2498 32 52 0 0 337 341 961 82 3 960 16 15 1 8
1 1 341 2499 32 339 0 0 365 368 962 82 3 961 16 16 1 81 1 368 2500 32 366 0 0 34
1 345 963 82 3 962 16 17 1 81 1 345 2501 32 343 0 0 368 372 964 82 3 963 16 18 1
 81 1 372 2502 32 370 0 0 345 349 965 82 3 964 16 19 1 81 1 349 2503 32 347 0 0
 372 376 966 82 3 965 16 20 1 81 1 376 2504 32 374 0 0 349 353 967 82 3 966 16 2
1 1 81 1 353 2505 32 351 0 0 376 276 968 82 3 967 16 22 1 81 1 276 2506 32 250 0
 0 353 273 969 82 3 968 16 23 1 82 3 969 16 24 1 81 1 236 2481 32 234 0 0 217 38
2 970 82 3 946 16 0 1 81 1 217 2480 32 215 0 0 232 236 971 82 3 970 16 23 0 81 1
 232 2479 32 230 0 0 213 217 972 82 3 971 16 22 0 81 1 213 2478 32 211 0 0 228 2
32 973 82 3 972 16 21 0 81 1 228 2477 32 226 0 0 210 213 974 82 3 973 16 20 0 81
 1 210 2476 32 208 0 0 34 228 975 82 3 974 16 19 0 81 1 34 2475 32 224 0 0 29 21
0 976 82 3 975 16 18 0 82 3 976 16 17 0 82 3 278 16 25 1 81 1 220 2470 32 186 0
 0 189 238 977 81 1 205 2472 32 203 0 0 238 33 978 82 3 240 16 13 0 81 1 33 2473
 32 161 0 0 205 29 979 82 3 978 16 14 0 82 3 979 16 15 0 81 1 189 2469 32 187 0
 0 169 220 980 82 3 977 16 12 0 81 1 169 2468 32 167 0 0 193 189 981 82 3 980 16
 11 0 81 1 193 2467 32 191 0 0 173 169 982 82 3 981 16 10 0 81 1 173 2466 32 171
 0 0 197 193 983 82 3 982 16 9 0 81 1 197 2465 32 195 0 0 177 173 984 82 3 983 1
6 8 0 81 1 177 2464 32 175 0 0 46 197 985 82 3 984 16 7 0 81 1 46 2463 32 199 0
 0 42 177 986 82 3 985 16 6 0 82 3 986 16 5 0 82 3 47 16 4 0 82 3 35 16 16 0 19
 18 335 0 1 0 10 6 S0 74 4 CI16 index_map_offset0 0 1 dCCZ20 16 4 0 0 544 14 2 8
50 0 0 0 0 0 0 0 0 0 0 0 0 0 0 0 0 80 1 13 987 988 8017 0 0 0 0 0 0 0 0 0 TTTTTT
TTTTTTTF3 84 255 5 15 leg 179 13 988 SDL/TYSA_NAME1 0 
