**ABCDEFGHIJKLMNOPQRSTUVWXYZabcdefghijklmnopqrstuvwxyz**************************
**PARASOLID !"#$%&'()*+,-./:;<=>?@[\]^_`{|}~0123456789**************************
**PART1;
MC=unknown;
MC_MODEL=unknown;
MC_ID=unknown;
OS=unknown;
OS_RELEASE=unknown;
FRU=Parasolid 28.1.228;
APPL=Onshape;
SITE=unknown;
USER=unknown;
FORMAT=text;
GUISE=transmit;
KEY=BTGapi::writeModels_.xmt;
FILE=BTGapi::writeModels_.xmt;
DATE=2016-04-23T17:37:41 (UTC);
**PART2;
SCH=SCH_2801228_28101;
USFLD_SIZE=0;
**PART3;
**END_OF_HEADER*****************************************************************
T51 : TRANSMIT FILE created by modeller version 280122823 SCH_2801228_28101_1300
6203 0 12 33 CCCCCCI4 mesh1006 0 I8 polyline1008 0 CCCCCCCDI5 owner1040 0 CCCCCC
I13 boundary_mesh1006 0 I17 boundary_polyline1008 0 CCCA16 index_map_offset0 0 1
 dA9 index_map82 0 A17 node_id_index_map82 0 A20 schema_embedding_map82 0 A5 chi
ld12 0 A14 lowest_node_id0 0 1 dZ1 3439 2 3 0 0 0 0 0 0 1e3 1e-8 0 4 0 1 0 1 1 5
 6 7 8 0 0 9 10 11 0 0 0 0 0 0 81 255 1 2 3405 12 1 13 0 0 0 14 70 11 CI9 list_t
ype0 0 1 uI10 notransmit0 0 1 lCCCDCCDI12 finger_index0 0 1 dI12 finger_block101
2 0 CZ3 0 4 T1 0 0 4 20 1 15 15 13 255 5 334 0 1 0 16 0 0 17 0 50 255 6 1312 0 1
8 19 0 0 -.0496868979042284 -.18075 0 0 .242535625036333 .970142500145332 -1 0 0
 31 255 7 2938 0 20 21 0 0 +.0475 -.00595 -.02 1 -612323399573677e-31 0 61232339
9573677e-31 1 0 .00165 29 255 8 1937 0 11 22 0 .036 -.0930594010767585 0 19 8 CC
CCCCCA5 owner12 0 Z9 121 0 1 17 0 23 V0 16 255 10 1285 24 ?25 0 26 27 0 0 1 18 2
55 11 1935 28 29 0 30 8 ?1 81 1 28 3276 31 11 0 0 32 33 34 17 255 29 0 35 36 37
 11 38 39 0 40 +18 30 1905 41 42 11 43 22 ?1 81 1 41 3264 31 30 0 0 44 45 46 17
 42 0 47 48 49 30 50 51 0 52 +18 43 1274 53 54 30 55 56 ?1 29 22 1907 0 30 56 8
 .036 -.1530594010767585 0 29 56 1278 0 43 57 22 .0525 -.06075 -.03 29 57 1267 0
 55 58 56 .0475 -.06075 -.03 18 55 1263 59 60 43 61 57 ?1 29 58 1256 0 61 62 57
 .0525 -.18075 0 18 61 1252 63 64 55 65 58 ?1 29 62 1067 0 65 66 58 .0395 -.0607
5 .005 18 65 1063 67 68 61 69 62 ?1 29 66 1056 0 69 70 62 .0395 -.18075 .005 18
 69 1052 71 72 65 73 66 ?1 29 70 1039 0 73 74 66 .0395 -.06075 0 18 73 1035 75 7
6 69 77 70 ?1 29 74 1034 0 77 78 70 .0395 -.18075 0 18 77 1030 79 80 73 81 74 ?1
 29 78 1017 0 81 82 74 .0325 -.06775 .005 18 81 1013 83 84 77 85 78 ?1 29 82 101
2 0 85 86 78 .0325 -.17375 .005 18 85 1008 87 88 81 89 82 ?1 29 86 1007 0 89 90
 82 .0325 -.06775 0 18 89 1003 91 92 85 93 86 ?1 29 90 1002 0 93 94 86 .0325 -.1
7375 0 18 93 998 95 96 89 97 90 ?1 29 94 525 0 97 98 90 .0475 -.18075 0 18 97 52
0 99 100 93 101 94 ?1 29 98 117 0 101 102 94 .046 .00375 .005 18 101 115 103 104
 97 105 98 ?1 29 102 112 0 105 106 98 .046 -.00375 .005 18 105 110 107 108 101 1
09 102 ?1 29 106 107 0 109 110 102 .054 -.00375 .005 18 109 105 111 112 105 113
 106 ?1 29 110 102 0 113 114 106 .054 .00375 .005 18 113 100 115 116 109 117 110
 ?1 29 114 87 0 117 118 110 .0475 -.00375 .005 18 117 85 119 120 113 121 114 ?1
 29 118 82 0 121 122 114 .0475 -.06075 .005 18 121 80 123 124 117 125 118 ?1 29
 122 72 0 125 126 118 .0525 -.18075 .005 18 125 70 127 128 121 129 122 ?1 29 126
 67 0 129 130 122 .0525 -.00375 .005 18 129 65 131 132 125 133 126 ?1 29 130 802
 0 133 134 126 .0475 -.06075 0 18 133 673 135 136 129 137 130 ?1 29 134 811 0 13
7 138 130 .046 .00375 -.03 18 137 686 139 140 133 141 134 ?1 29 138 812 0 141 14
2 134 .046 -.00375 -.03 18 141 680 143 144 137 145 138 ?1 29 142 813 0 145 146 1
38 .054 -.00375 -.03 18 145 698 147 148 141 149 142 ?1 29 146 814 0 149 150 142
 .054 .00375 -.03 18 149 692 151 152 145 153 146 ?1 29 150 815 0 153 154 146 .04
75 -.00375 -.03 18 153 674 155 156 149 157 150 ?1 29 154 818 0 157 158 150 .0525
 -.00375 -.03 18 157 704 159 160 153 161 154 ?1 29 158 2421 0 162 163 154 .044 -
.1530594010767585 0 18 162 2278 164 165 166 167 158 ?1 29 163 2422 0 167 168 158
 .044 -.1484405989232414 0 18 167 2284 169 170 162 171 163 ?1 29 168 2423 0 171
 172 163 .04 -.146131197846483 0 18 171 2290 173 174 167 175 168 ?1 29 172 2424
 0 175 176 168 .036 -.1484405989232414 0 18 175 2296 177 178 171 179 172 ?1 29 1
76 2426 0 179 180 172 .04 -.155368802153517 0 18 179 2308 181 182 175 0 176 ?1 2
9 180 2427 0 183 184 176 .044 -.1530594010767585 .003 18 183 2281 185 186 187 18
8 180 ?1 29 184 2428 0 188 189 180 .044 -.1484405989232414 .003 18 188 2287 190
 191 183 192 184 ?1 29 189 2429 0 192 193 184 .04 -.146131197846483 .003 18 192
 2293 194 195 188 196 189 ?1 29 193 2430 0 196 197 189 .036 -.1484405989232414 .
003 18 196 2299 198 199 192 200 193 ?1 29 197 2431 0 200 201 193 .036 -.15305940
10767585 .003 18 200 2305 45 202 196 166 197 ?1 29 201 2432 0 166 203 197 .04 -.
155368802153517 .003 18 166 2275 44 204 200 162 201 ?1 29 203 2433 0 205 206 201
 .04 -.095368802153517 0 18 205 2127 207 208 209 210 203 ?1 29 206 2435 0 210 21
1 203 .036 -.0884405989232415 0 18 210 2115 212 213 205 214 206 ?1 29 211 2436 0
 214 215 206 .04 -.086131197846483 0 18 214 2109 216 217 210 218 211 ?1 29 215 2
437 0 218 219 211 .044 -.0884405989232415 0 18 218 2103 220 221 214 187 215 ?1 2
9 219 2438 0 187 222 215 .044 -.0930594010767585 0 18 187 2097 223 224 218 183 2
19 ?1 29 222 2439 0 161 225 219 .04 -.095368802153517 .003 18 161 2094 32 226 15
7 227 222 ?1 29 225 2440 0 227 228 222 .036 -.0930594010767585 .003 18 227 2124
 33 229 161 230 225 ?1 29 228 2441 0 230 231 225 .036 -.0884405989232415 .003 18
 230 2118 232 233 227 234 228 ?1 29 231 2442 0 234 235 228 .04 -.086131197846483
 .003 18 234 2112 236 237 230 238 231 ?1 29 235 2443 0 238 239 231 .044 -.088440
5989232415 .003 18 238 2106 240 241 234 209 235 ?1 29 239 2444 0 209 0 235 .044
 -.0930594010767585 .003 18 209 2100 242 243 238 205 239 ?1 81 1 242 3273 31 209
 0 0 223 207 244 17 243 0 245 246 241 209 247 248 0 249 +15 255 245 2170 0 246 2
50 251 17 246 0 245 229 243 161 252 253 0 254 +17 241 0 245 243 237 238 255 256
 0 257 +17 247 0 258 221 249 238 243 248 0 0 -16 248 2084 259 ?243 256 253 260 0
 0 1 17 249 0 258 247 261 209 224 262 0 252 -15 258 2139 0 261 263 0 17 261 0 25
8 249 221 187 264 265 0 266 +17 224 0 267 268 252 187 249 262 0 261 +16 262 2004
 269 ?224 270 271 272 0 0 1 17 252 0 267 224 254 209 246 253 0 0 -15 267 2134 0
 268 273 0 17 254 0 267 252 268 161 208 274 0 0 -16 253 2064 275 ?246 248 276 27
7 0 0 1 81 1 275 3352 31 253 0 0 278 279 280 16 276 2048 279 ?40 253 281 282 0 0
 1 30 255 277 2420 0 253 283 260 0 +.042 -.0942141016151378 .003 -.8660254037844
39 -.5 0 31 283 3047 0 284 285 277 0 +.0525 -.00595 -.002 -1 612323399573677e-31
 0 -612323399573677e-31 -1 0 .00165 30 260 2419 0 248 277 286 0 +.044 -.09075 .0
03 -183697019872103e-30 -1 0 30 286 2418 0 256 260 287 0 +.0459094844589459 -.08
95430402896273 .003 .866025403784439 -.5 0 16 256 2080 288 ?241 289 248 286 0 0
 1 30 287 2417 0 289 286 290 0 +.03409051554105405 -.0895430402896273 .003 .8660
25403784439 .5 0 16 289 2076 291 ?237 292 256 287 0 0 1 30 290 2416 0 292 287 29
3 0 +.036 -.09075 .003 183697019872103e-30 1 0 16 292 2072 294 ?233 295 289 290
 0 0 1 30 293 2415 0 295 290 296 0 +.0419094844589459 -.0964712435199029 .003 -.
866025403784439 .5 0 16 295 2068 297 ?229 298 292 293 0 0 1 31 296 2414 0 298 29
3 299 0 +.04 -.09075 .003 0 0 1 -1 0 0 .0025 16 298 2088 300 ?301 274 295 296 0
 0 1 30 299 2413 0 302 296 303 0 +.042 -.0942141016151378 0 -.866025403784439 -.
5 0 16 302 1998 278 ?268 265 304 299 0 0 1 30 303 2412 0 265 299 305 0 +.044 -.0
9075 0 -183697019872103e-30 -1 0 16 265 2008 306 ?261 307 302 303 0 0 1 30 305 2
411 0 307 303 308 0 +.0459094844589459 -.0895430402896273 0 .866025403784439 -.5
 0 16 307 2018 309 ?310 311 265 305 0 0 1 30 308 2410 0 311 305 312 0 +.03409051
554105405 -.0895430402896273 0 .866025403784439 .5 0 16 311 2028 313 ?314 281 30
7 308 0 0 1 30 312 2409 0 281 308 282 0 +.036 -.09075 0 183697019872103e-30 1 0
 16 281 2038 315 ?36 276 311 312 0 0 1 30 282 2408 0 276 312 316 0 +.04190948445
89459 -.0964712435199029 0 -.866025403784439 .5 0 30 316 2406 0 274 282 317 0 +.
04 -.095368802153517 .003 0 0 -1 16 274 2054 318 ?208 39 298 316 0 0 1 30 317 24
05 0 39 316 319 0 +.036 -.0930594010767585 .003 0 0 -1 16 39 2044 320 ?29 321 27
4 317 0 0 1 30 319 2404 0 321 317 322 0 +.036 -.0884405989232415 .003 0 0 -1 16
 321 2034 323 ?213 324 39 319 0 0 1 30 322 2403 0 324 319 325 0 +.04 -.086131197
846483 .003 0 0 -1 16 324 2024 326 ?217 271 321 322 0 0 1 30 325 2402 0 271 322
 272 0 +.044 -.0884405989232415 .003 0 0 -1 16 271 2014 327 ?221 262 324 325 0 0
 1 30 272 2401 0 262 325 328 0 +.044 -.0930594010767585 .003 0 0 -1 31 328 2400
 0 329 272 330 0 +.04 -.15075 .003 0 0 1 -1 0 0 .0025 16 329 2269 331 ?332 333 3
34 328 0 0 1 30 330 2399 0 333 328 335 0 +.03958221256611175 -.1551275924660975
 .003 -.866025403784439 .5 0 16 333 2249 336 ?202 337 329 330 0 0 1 30 335 2398
 0 337 330 338 0 +.036 -.1525769817019195 .003 155091076241554e-30 1 0 16 337 22
53 339 ?199 340 333 335 0 0 1 30 338 2397 0 340 335 341 0 +.038 -.14728589838486
22 .003 .866025403784439 .5 0 16 340 2257 342 ?195 343 337 338 0 0 1 30 341 2396
 0 343 338 344 0 +.04358221256611155 -.148199389235822 .003 .866025403784439 -.5
 0 16 343 2261 345 ?191 346 340 341 0 0 1 30 344 2395 0 346 341 347 0 +.044 -.15
25769817019195 .003 -277555756156289e-30 -1 0 16 346 2265 348 ?186 349 343 344 0
 0 1 30 347 2394 0 349 344 350 0 +.042 -.154214101615138 .003 -.866025403784439
 -.5 0 16 349 2245 351 ?352 353 346 347 0 0 1 30 350 2392 0 354 347 355 0 +.0395
8221256611175 -.1551275924660975 0 -.866025403784439 .5 0 16 354 2229 356 ?52 35
7 20 350 0 0 1 30 355 2391 0 357 350 358 0 +.036 -.1525769817019195 0 1550910762
41554e-30 1 0 16 357 2219 359 ?48 360 354 355 0 0 1 30 358 2390 0 360 355 361 0
 +.038 -.1472858983848622 0 .866025403784439 .5 0 16 360 2209 362 ?363 364 357 3
58 0 0 1 30 361 2389 0 364 358 365 0 +.04358221256611155 -.148199389235822 0 .86
6025403784439 -.5 0 16 364 2199 366 ?367 368 360 361 0 0 1 30 365 2388 0 368 361
 369 0 +.044 -.1525769817019195 0 -277555756156289e-30 -1 0 16 368 2189 370 ?371
 334 364 365 0 0 1 30 369 2387 0 334 365 372 0 +.042 -.154214101615138 0 -.86602
5403784439 -.5 0 16 334 2179 373 ?374 329 368 369 0 0 1 30 372 2386 0 304 369 37
5 0 +.044 -.1530594010767585 .003 0 0 -1 16 304 2185 376 ?165 302 377 372 0 0 1
 30 375 2385 0 377 372 378 0 +.044 -.1484405989232414 .003 0 0 -1 16 377 2195 37
9 ?170 304 380 375 0 0 1 30 378 2384 0 380 375 381 0 +.04 -.146131197846483 .003
 0 0 -1 16 380 2205 382 ?174 377 383 378 0 0 1 30 381 2383 0 383 378 384 0 +.036
 -.1484405989232414 .003 0 0 -1 16 383 2215 385 ?178 380 51 381 0 0 1 30 384 238
2 0 51 381 386 0 +.036 -.1530594010767585 .003 0 0 -1 16 51 2225 387 ?42 383 353
 384 0 0 1 30 386 2381 0 353 384 388 0 +.04 -.155368802153517 .003 0 0 -1 16 353
 2235 389 ?182 51 349 386 0 0 1 31 388 1725 0 390 386 391 0 -.04 -.09075 .004999
99999999545 0 0 -1 -1 0 0 .0025 16 390 1662 392 ?393 394 270 388 0 0 1 31 391 17
23 0 270 388 395 0 -.04 -.15075 .00499999999999545 0 0 -1 -1 0 0 .0025 16 270 16
91 396 ?397 390 262 391 0 0 1 30 395 801 0 398 391 399 0 +.0525 -.14234226739487
24 -.03 -612323399573677e-31 -1 0 16 398 604 400 ?401 402 394 395 0 0 1 30 399 7
99 0 402 395 403 0 +.0475 -.1201401107162236 -.03 183697019872103e-30 1 0 16 402
 1264 404 ?405 406 398 399 0 0 1 30 403 798 0 406 399 407 0 +.034587839727214 .0
0375 -.03 -1 0 0 16 406 620 408 ?140 409 402 403 0 0 1 30 407 797 0 409 403 410
 0 +.054 .00872091965636975 -.03 183697019872103e-30 -1 0 16 409 588 411 ?412 41
3 406 407 0 0 1 30 410 796 0 413 407 414 0 +.04975 -.00375 -.03 -1 0 0 16 413 59
6 415 ?416 417 409 410 417 417 1 30 414 795 0 418 410 419 0 +.046 .0087209196563
6974 -.03 183697019872103e-30 -1 0 16 418 624 420 ?144 421 417 414 0 0 1 30 419
 792 0 394 414 422 0 +.0475 -.1201401107162236 0 183697019872103e-30 1 0 16 394
 628 423 ?424 398 390 419 0 0 1 30 422 19 0 425 419 426 0 +.0525 -.1423422673948
724 .005 -612323399573677e-31 -1 0 16 425 18 427 ?428 429 430 422 0 0 1 30 426 2
3 0 429 422 431 0 +.0496868979042284 -.18075 .005 -1 0 0 16 429 22 432 ?433 434
 425 426 0 0 1 30 431 31 0 434 426 435 0 +.0475 -.1423422673948722 .005 -6123233
99573677e-31 -1 0 16 434 30 436 ?437 438 429 431 0 0 1 30 435 39 0 438 431 439 0
 +.0325 -.1203901107162236 .005 183697019872103e-30 1 0 16 438 1009 440 ?441 442
 434 435 0 0 1 30 439 43 0 442 435 443 0 +.03763727098703385 -.06075 .005 -1 0 0
 16 442 42 444 ?445 446 438 439 0 0 1 30 443 47 0 446 439 447 0 +.03458783972721
4 .00375 .005 -1 0 0 16 446 46 448 ?104 449 442 443 0 0 1 30 447 51 0 449 443 45
0 0 +.054 .00872091965636975 .005 183697019872103e-30 -1 0 16 449 50 451 ?452 45
3 446 447 0 0 1 30 450 55 0 453 447 454 0 +.04975 -.00375 .005 -1 0 0 16 453 54
 455 ?456 457 449 450 457 457 1 30 454 62 0 458 450 459 0 +.046 .008720919656369
74 .005 183697019872103e-30 -1 0 16 458 61 460 ?108 461 457 454 0 0 1 30 459 273
 0 421 454 462 0 +.0496868979042284 -.18075 0 -1 0 0 16 421 215 463 ?464 465 418
 459 0 0 1 30 462 271 0 465 459 466 0 +.0325 -.1203901107162236 0 18369701987210
3e-30 1 0 16 465 999 467 ?468 430 421 462 0 0 1 30 466 270 0 430 462 469 0 +.037
63727098703385 -.06075 0 -1 0 0 16 430 203 470 ?471 425 465 466 0 0 1 30 469 324
 0 472 466 473 0 +.046 .00375 .005 0 0 -1 16 472 285 474 ?475 476 477 469 0 0 1
 30 473 325 0 476 469 478 0 +.046 -.00375 .005 0 0 -1 16 476 286 479 ?480 481 47
2 473 0 0 1 30 478 326 0 482 473 483 0 +.054 -.00375 .005 0 0 -1 16 482 287 484
 ?485 477 486 478 0 0 1 30 483 327 0 477 478 487 0 +.054 .00375 .005 0 0 -1 16 4
77 288 488 ?489 472 482 483 0 0 1 30 487 330 0 481 483 490 0 +.0475 -.00375 .005
 0 0 -1 16 481 291 491 ?492 493 476 487 0 0 1 30 490 331 0 461 487 494 0 +.0475
 -.06075 .005 0 0 -1 16 461 292 495 ?136 496 458 490 0 0 1 30 494 332 0 496 490
 497 0 +.0525 -.18075 .005 0 0 -1 16 496 293 498 ?499 486 461 494 0 0 1 30 497 3
33 0 486 494 500 0 +.0525 -.00375 .005 0 0 -1 16 486 294 501 ?502 482 496 497 0
 0 1 30 500 1020 0 493 497 503 0 -.0325 -.06775 .005 0 0 -1 16 493 1018 504 ?505
 506 481 500 0 0 1 30 503 1026 0 506 500 507 0 +.0325 -.17375 .005 0 0 -1 16 506
 1024 508 ?96 509 493 503 0 0 1 31 507 1042 0 509 503 510 0 -.0395 -.06775 0 0 0
 -1 -1 0 0 .007 16 509 1040 511 ?512 513 506 507 0 0 1 31 510 1048 0 513 507 514
 0 -.0395 -.17375 0 0 0 -1 -1 0 0 .007 16 513 1046 515 ?516 517 509 510 0 0 1 30
 514 1059 0 517 510 518 0 -.0395 -.18075 .005 0 0 -1 16 517 1057 519 ?520 521 51
3 514 0 0 1 31 518 1070 0 521 514 522 0 +.0395 -.06775 .005 0 0 -1 -1 0 0 .007 1
6 521 1068 523 ?68 524 517 518 0 0 1 31 522 1076 0 524 518 525 0 +.0395 -.17375
 .005 0 0 -1 -1 0 0 .007 16 524 1074 526 ?88 527 521 522 0 0 1 30 525 1082 0 527
 522 528 0 +.0395 -.06075 0 0 0 -1 16 527 1080 529 ?76 530 524 525 0 0 1 30 528
 1259 0 530 525 531 0 +.0496868979042284 -.18075 0 -1 0 0 16 530 1257 532 ?100 5
33 527 528 0 0 1 30 531 1270 0 533 528 534 0 -.0475 -.1457780163716444 -.0087429
9590708886 -594040953759896e-31 -.970142500145332 .242535625036333 16 533 1268 5
35 ?536 26 530 531 0 0 1 30 534 1281 0 26 531 27 0 +.04325 -.06075 -.03 1 0 0 16
 26 1279 537 ?54 10 533 534 0 0 1 30 27 1287 0 10 534 21 0 -.0525 -.18075 405300
7620307455e-35 594040953759896e-31 .970142500145332 -.242535625036333 31 21 2930
 0 538 27 7 0 +.0475 -.00595 -.002 1 -612323399573677e-31 0 612323399573677e-31
 1 0 .00165 16 538 3006 539 ?540 20 541 21 0 0 1 81 1 539 3367 31 538 0 0 542 54
3 544 17 540 0 545 540 540 0 546 538 0 0 +16 20 2970 543 ?547 354 538 7 0 0 1 16
 541 2973 542 ?548 538 284 285 0 0 1 81 1 542 3366 31 541 0 0 549 539 550 17 548
 0 551 548 548 0 552 541 0 0 +16 284 3009 549 ?553 541 0 283 0 0 1 31 285 3049 0
 541 0 283 0 +.0525 -.00595 -.02 -1 612323399573677e-31 0 -612323399573677e-31 -
1 1224646799147352e-31 .00165 81 1 549 3365 31 284 0 0 300 542 554 17 553 0 555
 553 553 0 556 284 0 0 +15 555 2945 0 553 557 558 17 556 0 559 556 556 0 553 284
 0 0 -15 559 3026 0 556 560 0 14 255 560 3021 561 ?562 250 563 5 564 -0 0 562 25
0 23 81 1 561 3438 565 560 566 0 567 568 569 14 562 2985 568 ?0 560 570 5 571 -0
 0 0 560 23 14 250 2166 567 ?560 572 245 5 573 +0 0 560 572 23 15 563 3025 0 546
 560 559 51 255 564 3041 0 560 571 573 0 +.0275 -.00595 -.002 1 -612323399573677
e-31 0 .00165 -612323399573677e-31 -1 0 13 23 122 0 0 0 0 0 0 9 16 14 16 166 574
 ?575 0 576 5 577 -0 0 575 0 23 81 1 574 3406 565 16 578 0 0 579 580 14 575 310
 579 ?581 16 582 5 583 +0 0 581 16 23 15 576 1929 0 584 16 585 50 577 265 0 16 5
86 587 0 +.04325 -.0885 0 0 0 1 -1 0 0 50 586 2 0 588 589 577 0 +.04325 -.0885 .
005 0 0 1 -1 0 0 50 587 315 0 590 577 591 0 +.046 .00872091965636974 .005 -1 -18
3697019872103e-30 0 -183697019872103e-30 1 0 14 590 296 592 ?593 581 594 5 587 +
0 0 593 581 23 50 591 316 0 581 587 595 0 +.04975 -.00375 .005 0 1 0 0 0 1 14 58
1 298 596 ?590 575 597 5 591 -598 598 590 575 23 50 595 317 0 599 591 600 0 +.05
4 .00872091965636975 .005 -1 -183697019872103e-30 0 -183697019872103e-30 1 0 14
 599 302 601 ?598 593 602 5 595 -0 0 598 593 23 50 600 318 0 593 595 603 0 +.034
587839727214 .00375 .005 0 1 0 0 0 1 14 593 304 604 ?599 590 605 5 600 +0 0 599
 590 23 50 603 319 0 606 600 607 0 +.03763727098703385 -.06075 .005 0 1 0 0 0 1
 14 606 306 608 ?588 609 610 5 603 +0 0 588 609 23 50 607 320 0 609 603 583 0 +.
0325 -.1203901107162236 .005 1 -183697019872103e-30 0 -183697019872103e-30 -1 0
 14 609 308 611 ?606 612 613 5 607 -0 0 606 612 23 50 583 321 0 575 607 614 0 +.
0475 -.1423422673948722 .005 -1 612323399573677e-31 0 612323399573677e-31 1 0 50
 614 322 0 612 583 615 0 +.0496868979042284 -.18075 .005 0 1 0 0 0 1 14 612 312
 616 ?609 557 617 5 614 -0 0 609 557 23 50 615 323 0 557 614 618 0 +.0525 -.1423
422673948724 .005 -1 612323399573677e-31 0 612323399573677e-31 1 0 14 557 314 61
9 ?612 598 551 5 615 -0 0 612 598 23 51 618 1113 0 620 615 19 0 +.0395 -.17375 .
005 0 0 -1 .007 1 0 0 14 620 1101 621 ?622 623 624 5 618 +0 0 622 623 23 51 19 1
134 0 622 618 6 0 +.0395 -.06775 .005 0 0 1 .007 -1 0 0 14 622 1122 625 ?18 620
 626 5 19 +0 0 18 620 23 81 1 625 3420 565 622 627 0 621 628 629 14 18 1300 628
 ?630 622 631 5 6 +0 0 630 622 23 15 626 1123 0 68 622 0 17 68 0 626 76 505 65 8
4 521 0 632 +17 76 0 626 512 68 73 632 527 0 471 +17 505 0 626 68 512 81 92 493
 0 441 +17 84 0 633 634 445 81 68 521 0 505 -17 632 0 610 124 471 65 76 527 0 44
5 -15 610 305 0 124 606 0 17 124 0 610 136 632 121 445 442 0 437 -17 471 0 610 6
32 136 73 635 430 0 636 +17 445 0 633 84 437 65 124 442 0 0 +15 633 5 0 128 588
 0 17 437 0 633 445 120 121 637 434 0 638 +17 120 0 633 437 108 117 639 457 0 64
0 -17 637 0 641 492 638 117 437 434 0 0 -17 638 0 641 637 424 121 136 461 0 0 -1
5 641 309 0 424 575 0 17 424 0 641 638 642 133 643 394 0 635 +17 136 0 610 471 1
24 133 638 461 0 424 +17 642 0 641 424 644 97 536 533 0 645 -17 643 0 585 464 63
5 97 424 394 0 0 -17 635 0 585 643 636 133 471 430 0 0 -15 585 182 0 468 16 646
 17 636 0 585 635 468 73 512 509 0 0 -17 468 0 585 636 647 89 648 465 0 0 +17 51
2 0 626 505 76 89 636 509 0 468 +17 647 0 585 468 464 93 516 513 0 648 -17 648 0
 613 649 92 93 468 465 0 0 -15 613 307 0 441 609 0 17 649 0 613 441 648 85 96 50
6 0 634 -17 92 0 613 648 441 89 505 493 0 512 -17 441 0 613 92 649 81 634 438 0
 0 +17 634 0 633 72 84 85 441 438 0 0 -17 72 0 633 128 634 69 88 524 0 520 -17 1
28 0 633 132 72 125 433 429 0 650 -17 88 0 624 96 520 85 72 524 0 649 +17 520 0
 624 88 516 69 80 517 0 433 +15 624 1102 0 88 620 0 17 516 0 624 520 96 77 647 5
13 0 464 +17 80 0 617 645 433 77 520 517 0 516 -17 433 0 617 80 650 69 128 429 0
 0 +15 617 311 0 650 612 0 17 650 0 617 433 64 125 499 496 0 428 -17 64 0 617 65
0 645 61 100 530 0 25 -17 499 0 558 651 428 61 650 496 0 0 +17 428 0 558 499 652
 125 132 425 0 0 +15 558 313 0 160 557 0 17 652 0 558 428 160 129 502 486 0 456
 -17 132 0 633 112 128 129 428 425 0 652 -17 112 0 633 116 132 109 456 453 0 653
 -17 116 0 633 104 112 113 452 449 0 654 -17 456 0 655 502 653 129 112 453 0 0 +
17 653 0 655 456 148 109 485 482 0 452 -15 655 299 0 653 598 0 17 148 0 655 653
 502 145 416 413 0 412 -17 485 0 602 152 452 145 653 482 0 0 +17 452 0 602 485 6
54 109 116 449 0 0 +15 602 301 0 654 599 0 17 654 0 602 452 152 113 489 477 0 65
6 -17 152 0 602 654 485 149 412 409 0 657 -17 489 0 605 140 656 149 654 477 0 0
 +17 656 0 605 489 658 113 104 446 0 0 -15 605 303 0 658 593 0 17 658 0 605 656
 140 101 475 472 0 659 -17 104 0 633 108 116 101 656 446 0 658 +17 108 0 633 120
 104 105 659 458 0 660 +17 659 0 594 475 660 101 108 458 0 0 -17 660 0 594 659 1
44 105 480 476 0 639 -15 594 295 0 660 590 0 17 144 0 594 660 475 141 661 418 0
 662 +17 480 0 597 156 639 141 660 476 0 0 +17 639 0 597 480 640 105 120 457 0 0
 +15 597 297 0 640 581 0 17 640 0 597 639 156 117 492 481 0 637 -16 457 58 663 ?
639 458 453 450 453 453 1 81 1 663 3287 31 457 0 0 455 451 664 80 255 1 31 665 6
66 9000 0 0 0 0 3 6 0 0 0 FFTFTFTTFFFFFF1 81 1 455 3286 31 453 0 0 448 663 667 8
1 1 451 3288 31 449 0 0 663 460 668 82 255 3 664 21 3 1 81 1 460 3289 31 458 0 0
 451 427 669 82 3 668 21 4 1 81 1 427 3290 31 425 0 0 460 436 670 82 3 669 21 5
 1 81 1 436 3291 31 434 0 0 427 408 671 82 3 670 21 6 1 81 1 408 3292 31 406 0 0
 436 415 672 82 3 671 21 7 1 81 1 415 3293 31 413 0 0 408 673 674 82 3 672 21 8
 1 81 1 673 3294 31 417 0 0 415 411 675 82 3 674 21 9 1 16 417 560 673 ?662 418
 413 410 413 413 1 81 1 411 3295 31 409 0 0 673 420 676 82 3 675 21 10 1 81 1 42
0 3296 31 418 0 0 411 488 677 82 3 676 21 11 1 81 1 488 3297 31 477 0 0 420 474
 678 82 3 677 21 12 1 81 1 474 3298 31 472 0 0 488 484 679 82 3 678 21 13 1 81 1
 484 3299 31 482 0 0 474 479 680 82 3 679 21 14 1 81 1 479 3300 31 476 0 0 484 5
01 681 82 3 680 21 15 1 81 1 501 3301 31 486 0 0 479 491 682 82 3 681 21 16 1 81
 1 491 3302 31 481 0 0 501 423 683 82 3 682 21 17 1 81 1 423 3303 31 394 0 0 491
 526 684 82 3 683 21 18 1 81 1 526 3304 31 524 0 0 423 508 685 82 3 684 21 19 1
 81 1 508 3305 31 506 0 0 526 519 686 82 3 685 21 20 1 81 1 519 3306 31 517 0 0
 508 515 687 82 3 686 21 21 1 81 1 515 3307 31 513 0 0 519 523 688 82 3 687 21 2
2 1 81 1 523 3308 31 521 0 0 515 529 689 82 3 688 21 23 1 81 1 529 3309 31 527 0
 0 523 504 690 82 3 689 21 24 1 81 1 504 3310 31 493 0 0 529 511 691 82 3 690 21
 25 1 81 1 511 3311 31 509 0 0 504 467 692 82 3 691 21 26 1 81 1 467 3312 31 465
 0 0 511 440 693 82 3 692 21 27 1 81 1 440 3313 31 438 0 0 467 432 694 82 3 693
 21 28 1 81 1 432 3314 31 429 0 0 440 470 695 82 3 694 21 29 1 81 1 470 3315 31
 430 0 0 432 444 696 82 3 695 21 30 1 81 1 444 3316 31 442 0 0 470 463 697 82 3
 696 21 31 1 81 1 463 3317 31 421 0 0 444 537 698 82 3 697 21 32 1 81 1 537 3318
 31 26 0 0 463 24 699 82 3 698 21 33 1 81 1 24 3319 31 10 0 0 537 535 700 82 3 6
99 21 34 1 81 1 535 3320 31 533 0 0 24 532 701 82 3 700 21 35 1 81 1 532 3321 31
 530 0 0 535 404 702 82 3 701 21 36 1 81 1 404 3322 31 402 0 0 532 400 703 82 3
 702 21 37 1 81 1 400 3323 31 398 0 0 404 498 704 82 3 703 21 38 1 81 1 498 3324
 31 496 0 0 400 396 705 82 3 704 21 39 1 81 1 396 3325 31 270 0 0 498 392 706 82
 3 705 21 40 1 81 1 392 3326 31 390 0 0 396 376 707 82 3 706 21 41 1 81 1 376 33
27 31 304 0 0 392 389 708 82 3 707 21 42 1 81 1 389 3328 31 353 0 0 376 387 709
 82 3 708 21 43 1 81 1 387 3329 31 51 0 0 389 385 710 82 3 709 21 44 1 81 1 385
 3330 31 383 0 0 387 382 711 82 3 710 21 45 1 81 1 382 3331 31 380 0 0 385 379 7
12 82 3 711 21 46 1 81 1 379 3332 31 377 0 0 382 269 713 82 3 712 21 47 1 81 1 2
69 3333 31 262 0 0 379 318 714 82 3 713 21 48 1 81 1 318 3334 31 274 0 0 269 320
 715 82 3 714 21 49 1 81 1 320 3335 31 39 0 0 318 323 716 82 3 715 21 50 1 81 1
 323 3336 31 321 0 0 320 326 717 82 3 716 21 51 1 81 1 326 3337 31 324 0 0 323 3
27 718 82 3 717 21 52 1 81 1 327 3338 31 271 0 0 326 373 719 82 3 718 21 53 1 81
 1 373 3339 31 334 0 0 327 351 720 82 3 719 21 54 1 81 1 351 3340 31 349 0 0 373
 356 721 82 3 720 21 55 1 81 1 356 3341 31 354 0 0 351 336 722 82 3 721 21 56 1
 81 1 336 3342 31 333 0 0 356 359 723 82 3 722 21 57 1 81 1 359 3343 31 357 0 0
 336 339 724 82 3 723 21 58 1 81 1 339 3344 31 337 0 0 359 362 725 82 3 724 21 5
9 1 81 1 362 3345 31 360 0 0 339 342 726 82 3 725 21 60 1 81 1 342 3346 31 340 0
 0 362 366 727 82 3 726 21 61 1 81 1 366 3347 31 364 0 0 342 345 728 82 3 727 21
 62 1 81 1 345 3348 31 343 0 0 366 370 729 82 3 728 21 63 1 81 1 370 3349 31 368
 0 0 345 348 730 82 3 729 21 64 1 81 1 348 3350 31 346 0 0 370 278 731 82 3 730
 21 65 1 81 1 278 3351 31 302 0 0 348 275 732 82 3 731 21 66 1 82 3 732 21 67 1
 17 662 0 733 661 405 141 156 417 0 480 +15 733 763 0 405 623 0 17 661 0 733 657
 662 137 144 418 0 475 -17 405 0 733 662 60 153 644 402 0 492 +17 156 0 597 640
 480 153 662 417 0 405 -17 60 0 733 405 401 55 54 26 0 536 -17 644 0 641 642 492
 55 405 402 0 0 -17 492 0 641 644 637 153 640 481 0 0 +17 401 0 733 60 416 43 16
0 398 0 0 +17 54 0 631 25 536 43 60 26 0 651 +17 536 0 631 54 100 55 642 533 0 6
44 +15 631 1301 0 25 18 0 17 100 0 631 536 25 97 64 530 0 642 +17 25 0 631 100 5
4 61 651 10 0 499 +17 651 0 558 160 499 43 25 10 0 401 -17 160 0 558 652 651 157
 401 398 0 416 -17 416 0 733 401 412 157 148 413 0 502 +17 412 0 733 416 657 145
 152 409 0 485 +17 502 0 655 148 456 157 652 486 0 0 +17 657 0 733 412 661 149 1
40 406 0 489 -17 140 0 605 658 489 137 657 406 0 661 +17 475 0 594 144 659 137 6
58 472 0 0 +14 623 759 734 ?620 588 733 5 589 -0 0 620 588 23 81 1 734 3418 565
 623 735 0 736 621 737 14 588 1 736 ?623 606 738 5 586 +0 0 623 606 23 50 589 77
9 0 623 739 586 0 +.04325 -.0885 -.03 0 0 1 -1 0 0 51 739 1717 0 630 740 589 0 +
.04 -.15075 5e2 0 0 -1 .0025 1 0 0 14 630 1707 741 ?742 18 743 5 739 -0 0 742 18
 23 51 740 1720 0 742 744 739 0 +.04 -.09075 5e2 0 0 -1 .0025 1 0 0 14 742 1678
 745 ?746 630 747 5 740 -0 0 746 630 23 50 744 2364 0 748 749 740 0 +.0395822125
6611175 -.1551275924660975 .003 .5 .866025403784439 0 .866025403784439 -.5 0 14
 748 2336 750 ?751 752 753 5 744 +0 0 751 752 23 50 749 2365 0 752 754 744 0 +.0
36 -.1525769817019195 .003 1 -155091076241554e-30 0 -155091076241554e-30 -1 0 14
 752 2331 755 ?748 756 47 5 749 +0 0 748 756 23 50 754 2366 0 756 757 749 0 +.03
8 -.1472858983848622 .003 .5 -.866025403784439 0 -.866025403784439 -.5 0 14 756
 2326 758 ?752 759 760 5 754 +0 0 752 759 23 50 757 2367 0 759 761 754 0 +.04358
221256611155 -.148199389235822 .003 -.5 -.866025403784439 0 -.866025403784439 .5
 0 14 759 2321 762 ?756 763 764 5 757 +0 0 756 763 23 50 761 2368 0 763 765 757
 0 +.044 -.1525769817019195 .003 -1 277555756156289e-30 0 277555756156289e-30 1
 0 14 763 2316 766 ?759 746 767 5 761 +0 0 759 746 23 50 765 2369 0 746 768 761
 0 +.042 -.154214101615138 .003 -.5 .866025403784439 0 .866025403784439 .5 0 14
 746 2311 769 ?763 742 770 5 765 +0 0 763 742 23 50 768 2371 0 751 771 765 0 +.0
4 -.12075 .003 0 0 -1 -1 0 0 14 751 2347 772 ?273 748 773 5 768 +0 0 273 748 23
 50 771 2372 0 273 774 768 0 +.042 -.0942141016151378 .003 -.5 .866025403784439
 0 .866025403784439 .5 0 14 273 2130 775 ?263 751 267 5 771 +0 0 263 751 23 50 7
74 2373 0 263 776 771 0 +.044 -.09075 .003 -1 183697019872103e-30 0 183697019872
103e-30 1 0 14 263 2135 777 ?778 273 258 5 774 +0 0 778 273 23 50 776 2374 0 778
 779 774 0 +.0459094844589459 -.0895430402896273 .003 -.5 -.866025403784439 0 -.
866025403784439 .5 0 14 778 2140 780 ?781 263 782 5 776 +0 0 781 263 23 50 779 2
375 0 781 783 776 0 +.03409051554105405 -.0895430402896273 .003 .5 -.86602540378
4439 0 -.866025403784439 -.5 0 14 781 2145 784 ?785 778 786 5 779 +0 0 785 778 2
3 50 783 2376 0 785 787 779 0 +.036 -.09075 .003 1 -183697019872103e-30 0 -18369
7019872103e-30 -1 0 14 785 2150 788 ?572 781 35 5 783 +0 0 572 781 23 50 787 237
7 0 572 573 783 0 +.0419094844589459 -.0964712435199029 .003 .5 .866025403784439
 0 .866025403784439 -.5 0 14 572 2155 789 ?250 785 790 5 787 +0 0 250 785 23 50
 573 2380 0 250 564 787 0 +.04 -.12075 .003 0 0 -1 -1 0 0 81 1 789 3436 565 572
 791 0 788 567 792 15 790 2159 0 40 572 0 17 40 0 790 38 208 11 793 276 0 794 +1
7 38 0 790 226 40 227 29 39 0 37 -17 208 0 790 40 226 205 254 274 0 793 +17 793
 0 646 266 794 205 40 276 0 268 -17 794 0 646 793 795 11 36 281 0 0 -15 646 1959
 0 266 16 0 17 795 0 646 794 796 210 314 311 0 0 -17 36 0 35 797 29 210 794 281
 0 795 +15 35 2154 0 36 785 0 17 797 0 35 37 36 230 213 321 0 798 -17 37 0 35 29
 797 227 233 292 0 0 -17 213 0 786 314 798 210 797 321 0 36 +17 798 0 786 213 79
9 230 237 289 0 0 -15 786 2149 0 314 781 0 17 799 0 786 798 314 234 217 324 0 25
5 -17 237 0 245 241 233 234 798 289 0 799 +17 233 0 245 237 229 230 37 292 0 797
 +17 229 0 245 233 246 227 226 295 0 38 +17 226 0 790 208 38 161 229 295 0 246 -
17 314 0 786 799 213 214 795 311 0 796 +17 217 0 782 310 255 214 799 324 0 314 +
17 255 0 782 217 257 234 241 256 0 0 -15 782 2144 0 310 778 0 17 257 0 782 255 3
10 238 221 271 0 247 -17 310 0 782 257 217 218 796 307 0 264 +17 221 0 258 261 2
47 218 257 271 0 310 +17 796 0 646 795 264 214 310 307 0 0 -17 264 0 646 796 266
 218 261 265 0 0 -17 266 0 646 264 793 187 268 302 0 0 -17 268 0 267 254 224 205
 266 302 0 0 +80 1 565 0 800 8001 0 0 0 0 3 5 0 0 0 FFFFTFTFFFFFFF2 81 1 791 339
1 31 572 0 789 801 802 803 81 1 788 3435 565 785 802 0 784 789 804 81 1 567 3437
 565 250 801 0 789 561 805 83 255 3 792 .992156862745098 .0941176470588235 .1411
764705882352 81 1 801 3390 31 250 0 567 806 791 807 83 3 805 .992156862745098 .0
941176470588235 .1411764705882352 81 1 806 3389 31 273 0 775 808 801 809 82 3 80
7 21 21 2 81 1 775 3431 565 273 806 0 772 777 810 81 1 808 3388 31 763 0 766 811
 806 812 82 3 809 21 20 2 81 1 766 3425 565 763 808 0 769 762 813 81 1 811 3387
 31 759 0 762 814 808 815 82 3 812 21 19 2 81 1 762 3426 565 759 811 0 766 758 8
16 81 1 814 3386 31 756 0 758 817 811 818 82 3 815 21 18 2 81 1 758 3427 565 756
 814 0 762 755 819 81 1 817 3385 31 752 0 755 820 814 821 82 3 818 21 17 2 81 1
 755 3428 565 752 817 0 758 750 822 81 1 820 3384 31 748 0 750 823 817 824 82 3
 821 21 16 2 81 1 750 3429 565 748 820 0 755 772 825 81 1 823 3383 31 751 0 772
 826 820 827 82 3 824 21 15 2 81 1 772 3430 565 751 823 0 750 775 828 81 1 826 3
382 31 746 0 769 829 823 830 82 3 827 21 14 2 81 1 769 3424 565 746 826 0 745 76
6 831 81 1 829 3381 31 588 0 736 832 826 833 82 3 830 21 13 2 81 1 736 3417 565
 588 829 0 608 734 834 81 1 832 3380 31 612 0 616 735 829 835 82 3 833 21 12 2 8
1 1 616 3414 565 612 832 0 619 611 836 81 1 735 3379 31 623 0 734 837 832 838 82
 3 835 21 11 2 81 1 837 3378 31 18 0 628 839 735 840 82 3 838 21 10 2 81 1 628 3
421 565 18 837 0 625 741 841 81 1 839 3377 31 609 0 611 842 837 843 82 3 840 21
 9 2 81 1 611 3415 565 609 839 0 616 608 844 81 1 842 3376 31 606 0 608 627 839
 845 82 3 843 21 8 2 81 1 608 3416 565 606 842 0 611 736 846 81 1 627 3375 31 62
2 0 625 847 842 848 82 3 845 21 7 2 81 1 847 3374 31 620 0 621 849 627 850 82 3
 848 21 6 2 81 1 621 3419 565 620 847 0 734 625 851 81 1 849 3373 31 590 0 592 8
52 847 853 82 3 850 21 5 2 81 1 592 3409 565 590 849 0 596 604 854 81 1 852 3372
 31 599 0 601 855 849 856 82 3 853 21 4 2 81 1 601 3411 565 599 852 0 604 857 85
8 81 1 855 3371 31 581 0 596 859 852 860 82 3 856 21 3 2 81 1 596 3408 565 581 8
55 0 579 592 861 81 1 859 3370 31 598 0 857 862 855 863 82 3 860 21 2 2 14 598 3
00 857 ?557 599 655 5 591 -581 581 557 599 23 81 1 857 3412 565 598 859 0 601 61
9 864 81 1 862 3369 31 593 0 604 543 859 865 82 3 863 21 1 2 81 1 604 3410 565 5
93 862 0 592 601 866 81 1 543 3368 31 20 0 0 539 862 867 82 3 865 21 0 2 82 3 86
7 21 84 1 83 3 866 .992156862745098 .0941176470588235 .1411764705882352 81 1 619
 3413 565 557 868 0 857 616 869 83 3 864 .992156862745098 .0941176470588235 .141
1764705882352 81 1 868 3401 31 557 0 619 870 871 872 83 3 869 .992156862745098 .
0941176470588235 .1411764705882352 81 1 870 3400 31 562 0 568 566 868 873 81 1 8
71 3402 31 575 0 579 868 874 875 82 3 872 21 32 2 81 1 579 3407 565 575 871 0 57
4 596 876 81 1 874 3403 31 1 0 13 871 0 877 82 3 875 21 33 2 81 1 13 3404 878 1
 874 2 0 0 879 82 3 877 21 0 3 80 1 878 12 880 8038 0 0 0 0 0 0 0 0 0 TTTTTTTTTT
TTTF10 98 255 5 879 108 101 103 32 50 79 255 14 880 SDL/TYSA_UNAME83 3 876 .9921
56862745098 .0941176470588235 .1411764705882352 81 1 568 3439 565 562 870 0 561
 0 881 81 1 566 3399 31 560 0 561 578 870 882 82 3 873 21 31 2 81 1 578 3398 31
 16 0 574 883 566 884 82 3 882 21 30 2 81 1 883 3397 31 742 0 745 885 578 886 82
 3 884 21 29 2 81 1 745 3423 565 742 883 0 741 769 887 81 1 885 3396 31 630 0 74
1 888 883 889 82 3 886 21 28 2 81 1 741 3422 565 630 885 0 628 745 890 81 1 888
 3395 31 263 0 777 891 885 892 82 3 889 21 27 2 81 1 777 3432 565 263 888 0 775
 780 893 81 1 891 3394 31 778 0 780 894 888 895 82 3 892 21 26 2 81 1 780 3433 5
65 778 891 0 777 784 896 81 1 894 3393 31 781 0 784 802 891 897 82 3 895 21 25 2
 81 1 784 3434 565 781 894 0 780 788 898 81 1 802 3392 31 785 0 788 791 894 899
 82 3 897 21 24 2 82 3 899 21 23 2 83 3 898 .992156862745098 .0941176470588235 .
1411764705882352 83 3 896 .992156862745098 .0941176470588235 .1411764705882352 8
3 3 893 .992156862745098 .0941176470588235 .1411764705882352 83 3 890 .992156862
745098 .0941176470588235 .1411764705882352 83 3 887 .992156862745098 .0941176470
588235 .1411764705882352 83 3 881 .992156862745098 .0941176470588235 .1411764705
882352 83 3 861 .992156862745098 .0941176470588235 .1411764705882352 83 3 858 .9
92156862745098 .0941176470588235 .1411764705882352 83 3 854 .992156862745098 .09
41176470588235 .1411764705882352 83 3 851 .992156862745098 .0941176470588235 .14
11764705882352 83 3 846 .992156862745098 .0941176470588235 .1411764705882352 83
 3 844 .992156862745098 .0941176470588235 .1411764705882352 83 3 841 .9921568627
45098 .0941176470588235 .1411764705882352 83 3 836 .992156862745098 .09411764705
88235 .1411764705882352 83 3 834 .992156862745098 .0941176470588235 .14117647058
82352 83 3 831 .992156862745098 .0941176470588235 .1411764705882352 83 3 828 .99
2156862745098 .0941176470588235 .1411764705882352 83 3 825 .992156862745098 .094
1176470588235 .1411764705882352 83 3 822 .992156862745098 .0941176470588235 .141
1764705882352 83 3 819 .992156862745098 .0941176470588235 .1411764705882352 83 3
 816 .992156862745098 .0941176470588235 .1411764705882352 83 3 813 .992156862745
098 .0941176470588235 .1411764705882352 83 3 810 .992156862745098 .0941176470588
235 .1411764705882352 83 3 804 .992156862745098 .0941176470588235 .1411764705882
352 82 3 803 21 22 2 79 15 800 SDL/TYSA_COLOUR15 773 2351 0 352 751 900 17 352 0
 773 202 186 166 901 349 0 902 +15 900 2352 0 332 751 0 17 332 0 900 332 332 0 9
03 329 0 0 +17 903 0 743 903 903 0 332 329 0 0 -15 743 1899 0 903 630 904 15 904
 1712 0 397 630 0 17 397 0 904 397 397 0 905 270 0 0 +17 905 0 906 905 905 0 397
 270 0 0 -15 906 1634 0 905 588 633 17 202 0 773 199 352 200 204 333 0 50 +17 18
6 0 773 352 191 183 907 346 0 908 +17 901 0 770 165 902 183 352 349 0 0 -17 902
 0 770 901 374 166 182 353 0 0 -15 770 2315 0 374 746 0 17 374 0 770 902 165 179
 584 334 0 0 +17 182 0 753 52 204 179 902 353 0 909 +15 753 2340 0 52 748 0 17 5
2 0 753 50 182 30 909 354 0 910 +17 204 0 753 182 50 166 202 333 0 352 -17 909 0
 576 584 910 179 52 354 0 374 -17 584 0 576 911 909 162 374 334 0 0 -17 910 0 57
6 909 912 30 48 357 0 0 -17 912 0 576 910 913 175 363 360 0 0 -17 48 0 47 914 42
 175 910 357 0 912 +15 47 2335 0 48 752 0 17 914 0 47 49 48 196 178 383 0 915 -1
7 49 0 47 42 914 200 199 337 0 0 -17 178 0 760 363 915 175 914 383 0 48 +17 915
 0 760 178 916 196 195 340 0 0 -15 760 2330 0 363 756 0 17 916 0 760 915 363 192
 174 380 0 917 -17 195 0 773 191 199 192 915 340 0 916 +17 191 0 773 186 195 188
 917 343 0 918 +17 199 0 773 195 202 196 49 337 0 914 +17 917 0 764 174 918 192
 191 343 0 0 -17 918 0 764 917 367 188 170 377 0 907 -15 764 2325 0 367 759 0 17
 367 0 764 918 174 167 913 364 0 911 +17 170 0 767 371 907 167 918 377 0 367 +17
 907 0 767 170 908 188 186 346 0 0 -15 767 2320 0 371 763 0 17 908 0 767 907 371
 183 165 304 0 901 -17 371 0 767 908 170 162 911 368 0 584 +17 165 0 770 374 901
 162 908 304 0 371 +17 911 0 576 913 584 167 371 368 0 0 -17 913 0 576 912 911 1
71 367 364 0 0 -17 174 0 764 367 917 171 916 380 0 363 +17 363 0 760 916 178 171
 912 360 0 913 +17 50 0 753 204 52 200 42 51 0 49 -15 747 1892 0 919 742 920 17
 919 0 747 919 919 0 301 298 0 0 -15 920 1683 0 393 742 0 17 393 0 920 393 393 0
 921 390 0 0 +17 921 0 738 921 921 0 393 390 0 0 -15 738 1641 0 921 588 906 17 3
01 0 251 301 301 0 919 298 0 0 +15 251 2171 0 301 250 0 83 3 737 .99215686274509
8 .0941176470588235 .1411764705882352 81 1 448 3285 31 446 0 0 495 455 922 82 3
 667 21 2 1 81 1 495 3284 31 461 0 0 240 448 923 82 3 922 21 1 1 81 1 240 3283 3
1 238 0 0 220 495 924 82 3 923 21 0 1 81 1 220 3282 31 218 0 0 236 240 925 82 3
 924 21 50 0 81 1 236 3281 31 234 0 0 216 220 926 82 3 925 21 49 0 81 1 216 3280
 31 214 0 0 232 236 927 82 3 926 21 48 0 81 1 232 3279 31 230 0 0 212 216 928 82
 3 927 21 47 0 81 1 212 3278 31 210 0 0 33 232 929 82 3 928 21 46 0 81 1 33 3277
 31 227 0 0 28 212 930 82 3 929 21 45 0 82 3 930 21 44 0 79 9 666 BTI/DetId17 64
5 0 617 64 80 97 464 421 0 643 -17 464 0 585 647 643 77 645 421 0 0 +17 96 0 624
 516 88 93 649 506 0 647 +83 3 629 .992156862745098 .0941176470588235 .141176470
5882352 15 551 2952 0 548 557 555 15 582 2937 0 547 575 545 17 547 0 582 547 547
 0 931 20 0 0 +15 545 2929 0 540 575 641 17 931 0 570 931 931 0 547 20 0 0 -15 5
70 2989 0 931 562 932 15 932 2990 0 552 562 0 17 552 0 932 552 552 0 548 541 0 0
 -83 3 580 .992156862745098 .0941176470588235 .1411764705882352 51 571 3044 0 56
2 0 564 0 +.0275 -.00595 -.02 1 -612323399573677e-31 0 .00165 -612323399573677e-
31 -1 0 17 546 0 563 546 546 0 540 538 0 0 -83 3 569 .992156862745098 .094117647
0588235 .1411764705882352 81 1 300 3364 31 298 0 0 331 549 933 82 3 554 21 81 1
 81 1 331 3363 31 329 0 0 259 300 934 82 3 933 21 80 1 81 1 259 3362 31 248 0 0
 306 331 935 82 3 934 21 79 1 81 1 306 3361 31 265 0 0 288 259 936 82 3 935 21 7
8 1 81 1 288 3360 31 256 0 0 309 306 937 82 3 936 21 77 1 81 1 309 3359 31 307 0
 0 291 288 938 82 3 937 21 76 1 81 1 291 3358 31 289 0 0 313 309 939 82 3 938 21
 75 1 81 1 313 3357 31 311 0 0 294 291 940 82 3 939 21 74 1 81 1 294 3356 31 292
 0 0 315 313 941 82 3 940 21 73 1 81 1 315 3355 31 281 0 0 297 294 942 82 3 941
 21 72 1 81 1 297 3354 31 295 0 0 279 315 943 82 3 942 21 71 1 81 1 279 3353 31
 276 0 0 275 297 944 82 3 943 21 70 1 82 3 944 21 69 1 82 3 550 21 82 1 82 3 544
 21 83 1 82 3 280 21 68 1 81 1 223 3272 31 187 0 0 190 242 945 81 1 207 3274 31
 205 0 0 242 32 946 82 3 244 21 40 0 81 1 32 3275 31 161 0 0 207 28 947 82 3 946
 21 41 0 82 3 947 21 42 0 81 1 190 3271 31 188 0 0 169 223 948 82 3 945 21 39 0
 81 1 169 3270 31 167 0 0 194 190 949 82 3 948 21 38 0 81 1 194 3269 31 192 0 0
 173 169 950 82 3 949 21 37 0 81 1 173 3268 31 171 0 0 198 194 951 82 3 950 21 3
6 0 81 1 198 3267 31 196 0 0 177 173 952 82 3 951 21 35 0 81 1 177 3266 31 175 0
 0 45 198 953 82 3 952 21 34 0 81 1 45 3265 31 200 0 0 41 177 954 82 3 953 21 33
 0 82 3 954 21 32 0 81 1 44 3263 31 166 0 0 181 41 955 81 1 181 3262 31 179 0 0
 185 44 956 82 3 955 21 30 0 81 1 185 3261 31 183 0 0 164 181 957 82 3 956 21 29
 0 81 1 164 3260 31 162 0 0 99 185 958 82 3 957 21 28 0 81 1 99 3259 31 97 0 0 6
3 164 959 82 3 958 21 27 0 81 1 63 3258 31 61 0 0 59 99 960 82 3 959 21 26 0 81
 1 59 3257 31 55 0 0 53 63 961 82 3 960 21 25 0 81 1 53 3256 31 43 0 0 91 59 962
 82 3 961 21 24 0 81 1 91 3255 31 89 0 0 75 53 963 82 3 962 21 23 0 81 1 75 3254
 31 73 0 0 83 91 964 82 3 963 21 22 0 81 1 83 3253 31 81 0 0 67 75 965 82 3 964
 21 21 0 81 1 67 3252 31 65 0 0 79 83 966 82 3 965 21 20 0 81 1 79 3251 31 77 0
 0 95 67 967 82 3 966 21 19 0 81 1 95 3250 31 93 0 0 71 79 968 82 3 967 21 18 0
 81 1 71 3249 31 69 0 0 87 95 969 82 3 968 21 17 0 81 1 87 3248 31 85 0 0 135 71
 970 82 3 969 21 16 0 81 1 135 3247 31 133 0 0 155 87 971 82 3 970 21 15 0 81 1
 155 3246 31 153 0 0 159 135 972 82 3 971 21 14 0 81 1 159 3245 31 157 0 0 143 1
55 973 82 3 972 21 13 0 81 1 143 3244 31 141 0 0 147 159 974 82 3 973 21 12 0 81
 1 147 3243 31 145 0 0 139 143 975 82 3 974 21 11 0 81 1 139 3242 31 137 0 0 151
 147 976 82 3 975 21 10 0 81 1 151 3241 31 149 0 0 123 139 977 82 3 976 21 9 0 8
1 1 123 3240 31 121 0 0 127 151 978 82 3 977 21 8 0 81 1 127 3239 31 125 0 0 119
 123 979 82 3 978 21 7 0 81 1 119 3238 31 117 0 0 131 127 980 82 3 979 21 6 0 81
 1 131 3237 31 129 0 0 107 119 981 82 3 980 21 5 0 81 1 107 3236 31 105 0 0 111
 131 982 82 3 981 21 4 0 81 1 111 3235 31 109 0 0 103 107 983 82 3 982 21 3 0 81
 1 103 3234 31 101 0 0 115 111 984 82 3 983 21 2 0 81 1 115 3233 31 113 0 0 0 10
3 985 82 3 984 21 1 0 82 3 985 21 0 0 82 3 46 21 31 0 82 3 34 21 43 0 19 17 335
 0 1 0 9 5 S0 74 4 CI16 index_map_offset0 0 1 dCCZ20 15 4 0 0 874 13 2 568 0 0 0
 0 0 0 0 0 0 0 0 0 0 0 0 0 80 1 12 986 987 8017 0 0 0 0 0 0 0 0 0 TTTTTTTTTTTTTF
3 84 255 5 14 leg 279 13 987 SDL/TYSA_NAME1 0 
