**ABCDEFGHIJKLMNOPQRSTUVWXYZabcdefghijklmnopqrstuvwxyz**************************
**PARASOLID !"#$%&'()*+,-./:;<=>?@[\]^_`{|}~0123456789**************************
**PART1;
MC=unknown;
MC_MODEL=unknown;
MC_ID=unknown;
OS=unknown;
OS_RELEASE=unknown;
FRU=Parasolid 28.1.228;
APPL=Onshape;
SITE=unknown;
USER=unknown;
FORMAT=text;
GUISE=transmit;
KEY=BTGapi::writeModels_.xmt;
FILE=BTGapi::writeModels_.xmt;
DATE=2016-04-23T18:18:29 (UTC);
**PART2;
SCH=SCH_2801228_28101;
USFLD_SIZE=0;
**PART3;
**END_OF_HEADER*****************************************************************
T51 : TRANSMIT FILE created by modeller version 280122823 SCH_2801228_28101_1300
6203 0 12 33 CCCCCCI4 mesh1006 0 I8 polyline1008 0 CCCCCCCDI5 owner1040 0 CCCCCC
I13 boundary_mesh1006 0 I17 boundary_polyline1008 0 CCCA16 index_map_offset0 0 1
 dA9 index_map82 0 A17 node_id_index_map82 0 A20 schema_embedding_map82 0 A5 chi
ld12 0 A14 lowest_node_id0 0 1 dZ1 1726 2 3 0 0 0 0 0 0 1e3 1e-8 0 4 5 1 0 1 1 6
 7 8 9 0 0 10 11 12 0 0 0 0 0 0 81 255 1 2 1708 13 1 14 0 0 0 15 70 11 CI9 list_
type0 0 1 uI10 notransmit0 0 1 lCCCDCCDI12 finger_index0 0 1 dI12 finger_block10
12 0 CZ3 0 4 T1 0 0 4 20 1 16 16 13 255 6 236 0 1 0 17 0 0 18 0 50 255 7 230 0 1
9 20 0 0 +-.0105320903285774 .02129778857353235 .002 0 1 0 0 0 1 30 255 8 235 0
 11 21 0 0 +-.01211103772744536 .02129778857353235 .002 0 0 -1 29 255 9 206 0 22
 23 0 .01788896227255465 -.00520221142646766 0 19 8 CCCCCCCA5 owner12 0 Z10 100
 0 1 18 0 24 V0 16 255 11 215 25 ?26 0 27 8 0 0 1 18 255 12 94 28 29 0 30 31 ?1
 81 1 28 265 32 12 0 0 33 34 35 17 255 29 0 36 37 38 12 39 40 0 41 +18 30 89 33
 38 12 42 43 ?1 29 31 96 0 12 43 23 .01788896227255465 -.00520221142646766 .002
 29 43 91 0 30 44 31 .01788896227255465 -.00870221142646765 .002 29 23 209 0 45
 31 9 -.00861103772744537 .02129778857353235 0 18 45 192 46 47 22 48 23 ?1 81 1
 46 605 32 45 0 0 49 50 51 17 47 0 52 53 54 45 55 56 0 57 -18 22 180 50 58 59 45
 9 ?1 18 48 444 60 61 45 62 63 ?1 81 1 60 954 32 48 0 0 64 65 66 17 61 0 67 68 5
7 48 69 70 0 71 -18 62 474 72 73 48 74 75 ?1 29 63 557 0 48 75 76 -.008611037727
44537 .02129778857353235 -.011 29 75 558 0 62 77 63 -.00861103772744536 -.005202
21142646766 -.011 29 76 552 0 74 63 78 -.00861103772744536 -.00520221142646766 0
 18 74 471 79 54 62 80 76 ?1 29 78 61 0 59 76 81 -.01211103772744536 .0212977885
7353235 .002 18 59 59 82 83 84 22 78 ?1 29 81 76 0 84 78 44 -.00861103772744537
 .02129778857353235 .002 18 84 74 85 37 42 59 81 ?1 29 44 81 0 42 81 43 -.012111
03772744536 -.00870221142646765 .002 18 42 79 86 87 30 84 44 ?1 81 1 86 261 32 4
2 0 0 85 33 88 17 87 0 36 38 89 42 90 91 0 92 +15 255 36 5 0 89 93 0 17 38 0 36
 29 87 30 94 95 0 96 +17 89 0 36 87 37 59 97 98 0 0 -17 90 0 99 26 92 59 87 91 0
 89 -16 91 22 100 ?87 95 98 101 0 0 1 17 92 0 99 90 102 42 103 27 0 94 -15 99 22
2 0 26 104 0 17 102 0 99 92 26 80 105 106 0 107 +17 103 0 108 109 94 80 92 27 0
 102 +16 27 213 110 ?103 11 111 112 0 0 1 17 94 0 108 103 96 42 38 95 0 0 -15 10
8 220 0 103 113 0 17 96 0 108 94 109 30 114 111 0 39 -16 95 41 115 ?38 40 91 116
 0 0 1 81 1 115 276 32 95 0 0 100 117 118 16 40 51 117 ?29 119 95 120 0 0 1 30 1
16 42 0 95 101 120 0 +-.002111037727445365 -.00870221142646765 .002 1 0 0 30 101
 23 0 91 121 116 0 +-.01211103772744536 697183422744274e-19 .002 0 -1 0 30 120 5
2 0 40 116 122 0 +.01788896227255465 -.00747414119520973 .002 -183697019872103e-
30 1 0 30 122 56 0 119 120 123 0 +.00463896227255464 .00804778857353235 .002 -.7
07106781186548 .707106781186548 0 16 119 55 124 ?37 125 40 122 0 0 1 30 123 201
 0 126 122 127 0 +.00463896227255464 .00804778857353235 0 -.707106781186548 .707
106781186548 0 16 126 156 128 ?129 98 130 123 0 0 1 30 127 231 0 131 123 132 0 +
.01788896227255465 -.00520221142646766 .002 0 0 -1 16 131 211 133 ?58 111 125 12
7 0 0 1 30 132 232 0 111 127 112 0 +.01788896227255465 -.00870221142646765 .002
 0 0 -1 16 111 212 134 ?114 27 131 132 0 0 1 30 112 233 0 27 132 21 0 +-.0121110
3772744536 -.00870221142646765 .002 0 0 -1 30 21 234 0 125 112 8 0 +-.0086110377
2744537 .02129778857353235 .002 0 0 -1 16 125 214 34 ?57 131 119 21 0 0 1 81 1 3
4 267 32 125 0 0 28 133 135 17 57 0 67 61 97 45 136 125 0 129 +15 67 224 0 57 19
 0 17 97 0 67 57 83 84 89 98 0 0 +17 136 0 137 138 129 84 57 125 0 97 -17 129 0
 137 136 58 45 53 126 0 69 +15 137 216 0 129 139 0 17 58 0 137 129 138 22 41 131
 0 53 +17 53 0 52 54 47 22 129 126 0 140 -17 69 0 141 55 71 45 61 70 0 0 +15 141
 509 0 55 17 142 17 55 0 141 73 69 74 47 56 0 0 +17 71 0 141 69 73 48 143 144 0
 145 -16 70 410 49 ?69 146 147 148 0 0 1 81 1 49 413 32 70 0 0 149 46 150 16 146
 400 149 ?151 130 70 152 0 0 1 16 147 422 153 ?154 70 144 155 0 0 1 30 148 532 0
 70 156 152 0 +-.00861103772744537 .02129778857353235 -.011 0 0 1 30 156 535 0 1
30 157 148 0 +.01788896227255465 -.00520221142646766 -.011 0 0 1 30 152 531 0 14
6 148 121 0 +-.00861103772744536 -.00520221142646766 -.011 0 0 1 30 121 19 0 98
 152 101 0 +-.0105320903285774 .02129778857353235 .002 1 0 0 16 98 18 158 ?97 91
 126 121 0 0 1 81 1 158 272 32 98 0 0 133 100 159 80 255 1 32 160 161 9000 0 0 0
 0 3 6 0 0 0 FFTFTFTTFFFFFF1 81 1 133 270 32 131 0 0 34 158 162 81 1 100 274 32
 91 0 0 158 115 163 82 255 3 159 6 6 1 82 3 163 6 8 1 82 3 162 6 4 1 79 255 9 16
1 BTI/DetId16 130 390 164 ?140 126 146 156 0 0 1 30 157 538 0 56 165 156 0 +-.00
861103772744536 697183422744274e-19 0 612323399573677e-31 -1 0 16 56 404 166 ?55
 167 168 157 0 0 1 30 165 539 0 167 169 157 0 +-.002111037727445365 -.0052022114
2646766 0 1 0 0 16 167 394 170 ?171 144 56 165 0 0 1 30 169 544 0 144 155 165 0
 +-.00861103772744536 697183422744274e-19 -.011 612323399573677e-31 -1 0 16 144
 418 172 ?143 147 167 169 0 0 1 30 155 545 0 147 173 169 0 +-.002111037727445365
 -.00520221142646766 -.011 1 0 0 30 173 883 0 168 174 155 0 +-.00861103772744537
 .02129778857353235 -.013 0 0 1 16 168 749 175 ?176 56 177 173 0 0 1 30 174 884
 0 177 178 173 0 +.01788896227255465 -.00520221142646766 -.013 0 0 1 16 177 757
 179 ?180 168 181 174 0 0 1 30 178 892 0 182 183 174 0 +.00463896227255464 .0080
4778857353234 -.011 .707106781186548 -.707106781186548 0 16 182 745 184 ?185 186
 187 178 0 0 1 30 183 893 0 181 188 178 0 +-.002111037727445365 -.00870221142646
765 -.013 1 0 0 16 181 761 189 ?109 177 190 183 0 0 1 30 188 894 0 190 191 183 0
 +.01788896227255465 -.00747414119520973 -.013 -183697019872103e-30 1 0 16 190 7
53 192 ?193 181 194 188 0 0 1 30 191 895 0 194 195 188 0 +-.0105320903285774 .02
129778857353235 -.013 1 0 0 16 194 777 196 ?197 190 106 191 0 0 1 30 195 896 0 1
06 198 191 0 +-.01211103772744536 697183422744274e-19 -.013 0 -1 0 16 106 769 19
9 ?102 194 186 195 0 0 1 30 198 897 0 186 200 195 0 +.00463896227255464 .0080477
8857353234 -.013 .707106781186548 -.707106781186548 0 16 186 781 201 ?202 106 18
2 198 0 0 1 31 255 200 1168 0 187 203 198 0 -.00463896227255464 -.00870221142645
278 -.0055 0 1 0 0 0 1 .00165 16 187 1135 204 ?205 182 206 200 0 0 1 31 203 1309
 0 207 208 200 0 +.00463896227255464 -.00520221142646766 -.0055 0 1 0 -1 0 0 .00
3 16 207 1273 209 ?210 211 212 203 0 0 1 31 208 1311 0 206 213 203 0 +.004638962
27255464 -.00670221142646765 -.0055 0 1 0 -1 0 0 .003 16 206 1263 214 ?215 187 2
11 208 0 0 1 31 213 1312 0 211 216 208 0 +.00463896227255464 -.00670221142646765
 -.0055 0 1 0 -1 0 0 .00165 16 211 1267 217 ?218 206 207 213 0 0 1 31 216 1545 0
 212 219 213 0 --.01211103772743626 .00804778857353235 -.0055 1 0 0 0 0 -1 .0016
5 16 212 1512 220 ?221 207 222 216 0 0 1 31 219 1693 0 223 224 216 0 +-.00861103
772744536 .00804778857353235 -.0055 1 612323399573677e-31 0 -612323399573677e-31
 1 0 .003 16 223 1657 225 ?226 227 0 219 0 0 1 31 224 1695 0 222 228 219 0 +-.01
011103772744536 .00804778857353235 -.0055 1 612323399573677e-31 0 -6123233995736
77e-31 1 0 .003 16 222 1647 229 ?230 212 227 224 0 0 1 31 228 1696 0 227 0 224 0
 +-.01011103772744536 .00804778857353235 -.0055 1 612323399573677e-31 0 -6123233
99573677e-31 1 0 .00165 16 227 1651 231 ?232 222 223 228 0 0 1 81 1 231 1702 32
 227 0 0 229 233 234 17 232 0 235 232 232 0 236 227 0 0 +15 235 1621 0 232 237 2
38 17 236 0 239 236 236 0 232 227 0 0 -15 239 1679 0 236 240 241 14 255 240 1675
 242 ?0 243 239 6 244 +0 0 0 243 24 15 241 1680 0 230 240 0 17 230 0 241 230 230
 0 245 222 0 0 +17 245 0 246 245 245 0 230 222 0 0 -15 246 1673 0 245 243 247 14
 243 1669 248 ?240 237 246 6 249 -0 0 240 237 24 15 247 1674 0 226 243 0 17 226
 0 247 226 226 0 250 223 0 0 +17 250 0 142 250 250 0 226 223 0 0 -15 142 1629 0
 250 17 0 14 17 505 251 ?252 0 141 6 253 -0 0 252 0 24 81 1 251 1709 254 17 255
 0 0 256 257 14 252 500 256 ?258 17 259 6 260 -0 0 258 17 24 50 253 524 0 17 260
 261 0 +-.00861103772744536 697183422744274e-19 -.011 -1 -612323399573677e-31 0
 612323399573677e-31 -1 0 13 24 101 0 0 0 0 0 0 10 17 50 260 526 0 252 262 253 0
 +-.002111037727445365 -.00520221142646766 -.011 0 -1 0 0 0 -1 50 261 2 0 93 253
 263 0 +.002888962272554635 .00629778857353235 .002 0 0 1 1 0 0 14 93 1 264 ?265
 139 36 6 261 +0 0 265 139 24 50 263 200 0 258 261 266 0 +.002888962272554635 .0
0629778857353235 0 0 0 1 1 0 0 14 258 142 267 ?19 252 52 6 263 -0 0 19 252 24 50
 266 226 0 139 263 268 0 +.00463896227255464 .00804778857353235 .002 -.707106781
186548 -.707106781186548 0 .707106781186548 -.707106781186548 0 14 139 217 269 ?
93 270 137 6 266 -0 0 93 270 24 50 268 227 0 270 266 271 0 +.01788896227255465 -
.00747414119520973 .002 -1 -183697019872103e-30 0 183697019872103e-30 -1 0 14 27
0 219 272 ?139 113 273 6 268 -0 0 139 113 24 50 271 228 0 113 268 20 0 +-.002111
037727445365 -.00870221142646765 .002 0 1 0 0 0 1 14 113 221 274 ?270 104 275 6
 271 -0 0 270 104 24 50 20 229 0 104 271 7 0 +-.01211103772744536 69718342274427
4e-19 .002 1 0 0 0 0 -1 14 104 223 276 ?113 19 277 6 20 -0 0 113 19 24 81 1 276
 1713 254 104 278 0 279 274 280 14 19 225 279 ?104 258 67 6 7 +0 0 104 258 24 15
 277 1502 0 281 104 99 17 281 0 277 281 281 0 221 212 0 0 -17 221 0 238 221 221
 0 281 212 0 0 +15 238 1533 0 221 237 0 14 237 1529 282 ?243 283 235 6 284 -0 0
 243 283 24 81 1 282 1724 254 237 285 0 286 248 287 14 283 1291 286 ?237 288 289
 6 290 +0 0 237 288 24 51 255 284 1542 0 237 249 290 0 +-5e2 .00804778857350173
 -.0055 1 612323399573677e-31 0 .00165 -612323399573677e-31 1 0 51 249 1690 0 24
3 244 284 0 +-.01011103772744536 .00804778857353235 -.0055 1 612323399573677e-31
 0 .003 -612323399573677e-31 1 0 50 290 1308 0 283 284 291 0 +.00463896227255464
 -.00670221142646765 -.0055 0 1 0 -1 0 0 51 291 1306 0 288 290 292 0 +.004638962
27255464 -.00670221142646765 -.0055 0 1 0 .003 0 0 1 14 288 1285 293 ?283 294 29
5 6 291 -0 0 283 294 24 51 292 1165 0 294 291 296 0 +.00463896227255464 -5e2 -.0
055 0 1 0 .00165 0 0 1 14 294 1152 297 ?288 298 299 6 292 -0 0 288 298 24 50 296
 882 0 298 292 300 0 +.00288896227255464 .00629778857353235 -.013 0 0 -1 1 0 0 1
4 298 864 301 ?294 302 303 6 296 +0 0 294 302 24 50 300 881 0 265 296 262 0 +.00
288896227255464 .00629778857353235 -.011 0 0 -1 1 0 0 14 265 869 304 ?302 93 305
 6 300 -0 0 302 93 24 50 262 876 0 302 300 260 0 +.00463896227255464 .0080477885
7353234 -.013 -.707106781186548 -.707106781186548 0 .707106781186548 -.707106781
186548 0 14 302 844 306 ?298 265 307 6 262 -0 0 298 265 24 81 1 306 1719 254 302
 308 0 304 301 309 15 307 848 0 185 302 0 17 185 0 307 310 176 311 145 182 0 0 +
17 310 0 307 312 185 313 180 177 0 193 -17 176 0 307 185 312 48 68 168 0 0 +18 3
11 804 65 314 315 0 77 ?1 17 145 0 305 143 154 48 185 182 0 176 -15 305 838 0 14
5 265 0 17 143 0 305 154 145 62 71 144 0 0 +17 154 0 305 145 143 311 316 147 0 1
80 +17 316 0 259 151 314 62 154 147 0 143 -17 180 0 273 140 193 311 310 177 0 18
5 +15 273 218 0 114 270 0 17 140 0 273 41 180 22 314 130 0 171 +17 193 0 273 180
 114 313 317 190 0 0 +17 114 0 273 193 39 318 96 111 0 317 +18 313 828 319 202 3
20 315 321 ?1 17 317 0 303 107 202 318 193 190 0 109 -15 303 868 0 197 298 0 17
 107 0 303 105 317 80 109 181 0 0 -17 202 0 303 317 197 313 312 186 0 310 +18 31
8 813 322 114 80 320 323 ?1 17 109 0 108 96 103 318 107 181 0 0 +81 1 322 815 32
 318 0 0 324 325 326 18 80 816 325 103 74 318 327 ?1 18 320 822 328 26 318 313 3
29 ?1 29 323 905 0 318 329 327 .01788896227255465 -.00870221142646765 -.013 29 3
29 906 0 320 321 323 -.01211103772744536 .02129778857353235 -.013 29 327 904 0 8
0 323 77 -.01211103772744536 -.00870221142646765 -.013 29 77 902 0 311 327 75 .0
1788896227255465 -.00520221142646766 -.011 29 321 907 0 313 330 329 .01788896227
255465 -.00520221142646766 -.013 29 330 908 0 315 0 321 -.00861103772744537 .021
29778857353235 -.013 18 315 810 324 312 313 311 330 ?1 81 1 324 812 32 315 0 0 2
01 322 331 17 312 0 307 176 310 315 202 186 0 197 -17 197 0 303 202 105 315 332
 194 0 68 +17 105 0 303 197 107 320 102 106 0 0 -17 332 0 67 83 68 320 197 194 0
 105 -17 68 0 67 332 61 315 176 168 0 0 -17 83 0 67 97 332 59 26 11 0 90 -17 26
 0 99 102 90 320 83 11 0 332 +81 1 201 784 32 186 0 0 196 324 333 82 3 331 11 3
 0 81 1 196 780 32 194 0 0 199 201 334 82 3 333 11 6 1 81 1 199 772 32 106 0 0 1
89 196 335 82 3 334 11 8 1 81 1 189 764 32 181 0 0 179 199 336 82 3 335 11 10 1
 81 1 179 760 32 177 0 0 192 189 337 82 3 336 11 12 1 81 1 192 756 32 190 0 0 17
5 179 338 82 3 337 11 4 1 81 1 175 752 32 168 0 0 184 192 339 82 3 338 11 14 1 8
1 1 184 748 32 182 0 0 340 175 341 82 3 339 11 1 1 81 1 340 617 32 258 0 267 170
 184 342 82 3 341 11 5 1 81 1 267 1711 254 258 340 0 256 279 343 81 1 170 612 32
 167 0 0 166 340 344 82 3 342 8 4 2 81 1 166 611 32 56 0 0 79 170 345 82 3 344 8
 4 1 81 1 79 607 32 74 0 0 50 166 346 82 3 345 8 3 1 81 1 50 606 32 22 0 0 46 79
 347 82 3 346 8 2 0 82 3 347 8 1 0 80 1 254 0 348 8001 0 0 0 0 3 5 0 0 0 FFFFTFT
FFFFFFF2 81 1 256 1710 254 252 349 0 251 267 350 81 1 279 1712 254 19 351 0 267
 276 352 83 255 3 343 .603921568627451 .647058823529412 .686274509803922 81 1 35
1 962 32 19 0 279 153 353 354 83 3 352 .603921568627451 .647058823529412 .686274
509803922 81 1 153 961 32 147 0 0 172 351 355 81 1 353 965 32 270 0 272 351 356
 357 82 3 354 12 0 2 81 1 272 1715 254 270 353 0 274 269 358 81 1 356 966 32 265
 0 304 353 204 359 82 3 357 12 3 2 81 1 304 1718 254 265 356 0 264 306 360 81 1
 204 1171 32 187 0 0 356 361 362 82 3 359 12 4 2 81 1 361 1175 32 113 0 274 204
 209 363 82 3 362 16 0 1 81 1 274 1714 254 113 361 0 276 272 364 81 1 209 1316 3
2 207 0 0 361 214 365 82 3 363 16 2 2 81 1 214 1317 32 206 0 0 209 217 366 82 3
 365 18 0 1 81 1 217 1318 32 211 0 0 214 367 368 82 3 366 18 1 1 81 1 367 1319 3
2 288 0 293 217 369 370 82 3 368 18 2 1 81 1 293 1722 254 288 367 0 297 286 371
 81 1 369 1320 32 283 0 286 367 372 373 82 3 370 18 0 2 81 1 286 1723 254 283 36
9 0 293 282 374 81 1 372 1321 32 294 0 297 369 349 375 82 3 373 18 1 2 81 1 297
 1721 254 294 372 0 301 293 376 81 1 349 1322 32 252 0 256 372 220 377 82 3 375
 18 2 2 81 1 220 1548 32 212 0 0 349 278 378 82 3 377 18 3 2 81 1 278 1552 32 10
4 0 276 220 225 379 82 3 378 22 0 1 81 1 225 1700 32 223 0 0 278 229 380 82 3 37
9 22 2 2 81 1 229 1701 32 222 0 0 225 231 381 82 3 380 24 0 1 82 3 381 24 1 1 81
 1 301 1720 254 298 382 0 306 297 383 83 3 376 .603921568627451 .647058823529412
 .686274509803922 81 1 382 867 32 298 0 301 308 64 384 83 3 383 .603921568627451
 .647058823529412 .686274509803922 81 1 308 847 32 302 0 306 319 382 385 81 1 64
 953 32 1 0 14 382 60 386 82 3 384 11 2 2 81 1 14 1707 387 1 64 2 0 0 388 82 3 3
86 6 0 3 80 1 387 13 389 8038 0 0 0 0 0 0 0 0 0 TTTTTTTTTTTTTF10 98 255 6 388 80
 97 114 116 32 49 79 14 389 SDL/TYSA_UNAME81 1 319 830 32 313 0 0 328 308 390 82
 3 385 11 0 2 81 1 328 824 32 320 0 0 325 319 391 82 3 390 11 9 0 81 1 325 818 3
2 80 0 0 322 328 392 82 3 391 11 1 0 82 3 392 11 5 0 83 3 374 .603921568627451 .
647058823529412 .686274509803922 83 3 371 .603921568627451 .647058823529412 .686
274509803922 83 3 364 .603921568627451 .647058823529412 .686274509803922 81 1 26
4 1717 254 93 393 0 269 304 394 83 3 360 .603921568627451 .647058823529412 .6862
74509803922 81 1 393 283 32 93 0 264 124 395 396 81 1 269 1716 254 139 395 0 272
 264 397 83 3 394 .603921568627451 .647058823529412 .686274509803922 81 1 395 28
7 32 139 0 269 393 164 398 83 3 397 .603921568627451 .647058823529412 .686274509
803922 81 1 164 393 32 130 0 0 395 149 399 82 3 398 6 6 2 81 1 149 403 32 146 0
 0 164 49 400 82 3 399 7 4 1 82 3 400 7 5 1 81 1 124 280 32 119 0 0 128 393 401
 82 3 396 6 2 2 81 1 128 279 32 126 0 0 117 124 402 82 3 401 6 14 1 81 1 117 278
 32 40 0 0 115 128 403 82 3 402 6 13 1 82 3 403 6 12 1 83 3 358 .603921568627451
 .647058823529412 .686274509803922 81 1 172 960 32 144 0 0 134 153 404 82 3 355
 12 4 1 81 1 134 959 32 111 0 0 110 172 405 82 3 404 12 3 1 81 1 110 958 32 27 0
 0 25 134 406 82 3 405 12 2 1 81 1 25 957 32 11 0 0 72 110 407 82 3 406 12 1 1 8
1 1 72 956 32 62 0 0 65 25 408 82 3 407 12 0 1 81 1 65 955 32 311 0 0 60 72 409
 82 3 408 12 2 0 82 3 409 12 1 0 83 3 350 .603921568627451 .647058823529412 .686
274509803922 79 15 348 SDL/TYSA_COLOUR82 3 326 11 7 0 17 39 0 273 114 41 30 29 4
0 0 0 -17 41 0 273 39 140 12 58 131 0 138 -17 138 0 137 58 136 12 37 119 0 0 -17
 37 0 36 89 29 84 138 119 0 136 +17 314 0 259 316 171 311 140 130 0 154 -17 171
 0 259 314 151 22 54 167 0 0 +15 259 504 0 171 252 410 17 151 0 259 171 316 74 7
3 146 0 55 +17 54 0 52 47 53 74 171 167 0 151 -15 52 341 0 54 258 0 17 73 0 141
 71 55 62 151 146 0 316 -15 410 1245 0 411 252 0 17 411 0 410 411 411 0 210 207
 0 0 -17 210 0 412 210 210 0 411 207 0 0 +15 412 1290 0 210 288 0 83 3 309 .6039
21568627451 .647058823529412 .686274509803922 15 299 1237 0 218 294 413 17 218 0
 299 218 218 0 414 211 0 0 +15 413 1156 0 205 294 0 17 205 0 413 205 205 0 415 1
87 0 0 +17 415 0 275 415 415 0 205 187 0 0 -15 275 1125 0 415 113 108 17 414 0 2
89 414 414 0 218 211 0 0 -15 289 1295 0 414 283 416 15 416 1296 0 215 283 0 17 2
15 0 416 215 215 0 417 206 0 0 +17 417 0 295 417 417 0 215 206 0 0 -15 295 1289
 0 417 288 412 50 244 1692 0 240 0 249 0 +-.01011103772744536 .00804778857353235
 -.0055 1 612323399573677e-31 0 -612323399573677e-31 1 0 81 1 285 1705 32 237 0
 282 418 255 419 81 1 248 1725 254 243 233 0 282 242 420 83 3 287 .6039215686274
51 .647058823529412 .686274509803922 81 1 233 1703 32 243 0 248 231 418 421 81 1
 242 1726 254 240 418 0 248 0 422 83 3 420 .603921568627451 .647058823529412 .68
6274509803922 81 1 418 1704 32 240 0 242 233 285 423 83 3 422 .603921568627451 .
647058823529412 .686274509803922 82 3 423 24 1 2 82 3 421 24 0 2 81 1 255 1706 3
2 17 0 251 285 0 424 82 3 419 24 2 2 82 3 424 24 3 2 83 3 280 .603921568627451 .
647058823529412 .686274509803922 83 3 257 .603921568627451 .647058823529412 .686
274509803922 82 3 234 24 2 1 82 3 150 7 1 1 82 3 135 6 1 1 82 3 118 6 10 1 81 1
 85 259 32 84 0 0 82 86 425 81 1 33 263 32 30 0 0 86 28 426 82 3 88 6 5 0 82 3 4
26 6 7 0 81 1 82 257 32 59 0 0 0 85 427 82 3 425 6 3 0 82 3 427 6 1 0 82 3 66 12
 0 0 82 3 51 8 0 0 82 3 35 6 9 0 19 18 237 0 1 0 10 6 S0 74 4 CI16 index_map_off
set0 0 1 dCCZ20 16 4 0 0 255 14 2 242 0 0 0 0 0 0 0 0 0 0 0 0 0 0 0 0 80 1 13 42
8 429 8017 0 0 0 0 0 0 0 0 0 TTTTTTTTTTTTTF3 84 255 6 15 Part 179 13 429 SDL/TYS
A_NAME1 0 
