**ABCDEFGHIJKLMNOPQRSTUVWXYZabcdefghijklmnopqrstuvwxyz**************************
**PARASOLID !"#$%&'()*+,-./:;<=>?@[\]^_`{|}~0123456789**************************
**PART1;
MC=unknown;
MC_MODEL=unknown;
MC_ID=unknown;
OS=unknown;
OS_RELEASE=unknown;
FRU=Parasolid 28.1.228;
APPL=Onshape;
SITE=unknown;
USER=unknown;
FORMAT=text;
GUISE=transmit;
KEY=BTGapi::writeModels_.xmt;
FILE=BTGapi::writeModels_.xmt;
DATE=2016-04-23T17:44:11 (UTC);
**PART2;
SCH=SCH_2801228_28101;
USFLD_SIZE=0;
**PART3;
**END_OF_HEADER*****************************************************************
T51 : TRANSMIT FILE created by modeller version 280122823 SCH_2801228_28101_1300
6203 0 12 33 CCCCCCI4 mesh1006 0 I8 polyline1008 0 CCCCCCCDI5 owner1040 0 CCCCCC
I13 boundary_mesh1006 0 I17 boundary_polyline1008 0 CCCA16 index_map_offset0 0 1
 dA9 index_map82 0 A17 node_id_index_map82 0 A20 schema_embedding_map82 0 A5 chi
ld12 0 A14 lowest_node_id0 0 1 dZ1 1191 2 3 0 0 0 0 0 0 1e3 1e-8 0 4 5 1 0 1 1 6
 7 8 9 0 0 10 11 12 0 0 0 0 0 0 81 255 1 2 1168 13 1 14 0 0 0 15 70 11 CI9 list_
type0 0 1 uI10 notransmit0 0 1 lCCCDCCDI12 finger_index0 0 1 dI12 finger_block10
12 0 CZ3 0 4 T1 0 0 5 20 1 16 16 13 255 6 58 0 1 0 17 0 0 18 0 51 255 7 1107 0 1
9 20 0 0 +.0085 .0085 -.003 0 0 1 .004 1 0 0 30 255 8 1001 0 11 21 0 0 -.0125 -.
0085 -.003 0 0 1 29 255 9 956 0 12 22 0 .0085 -.0125 -.003 19 8 CCCCCCCA5 owner1
2 0 Z10 57 0 1 18 0 23 V0 16 255 11 999 24 ?25 0 26 8 0 0 1 18 255 12 952 27 28
 0 29 9 ?1 81 1 27 1129 30 12 0 0 31 32 33 17 255 28 0 34 35 36 12 37 38 0 39 +1
8 29 947 40 41 12 42 22 ?1 81 1 40 1125 30 29 0 0 43 44 45 17 41 0 46 39 47 29 4
8 49 0 35 +18 42 942 32 25 29 50 51 ?1 29 22 951 0 29 51 9 -.0085 -.0125 -.003 2
9 51 946 0 42 52 22 .0125 -.0085 -.003 29 52 941 0 50 53 51 .0125 .0085 -.003 18
 50 937 54 55 42 56 52 ?1 29 53 924 0 56 57 52 -.0125 -.0085 -.003 18 56 920 44
 58 50 59 53 ?1 29 57 919 0 59 60 53 -.0125 .0085 -.003 18 59 915 61 62 56 63 57
 ?1 29 60 890 0 63 64 57 .0125 -.0085 0 18 63 886 65 66 59 67 60 ?1 29 64 885 0
 67 68 60 .0125 .0085 0 18 67 881 43 69 63 70 64 ?1 29 68 880 0 70 71 64 .0085 -
.0125 0 18 70 876 72 73 67 74 68 ?1 29 71 875 0 74 75 68 -.0085 -.0125 0 18 74 8
71 76 77 70 78 71 ?1 29 75 870 0 78 79 71 -.0125 -.0085 0 18 78 866 31 80 74 81
 75 ?1 29 79 865 0 81 82 75 -.0125 .0085 0 18 81 861 83 84 78 85 79 ?1 29 82 848
 0 85 86 79 .0085 .0125 -.003 18 85 844 87 88 81 89 82 ?1 29 86 843 0 89 90 82 -
.0085 .0125 -.003 18 89 839 91 92 85 93 86 ?1 29 90 838 0 93 94 86 .0085 .0125 0
 18 93 834 95 96 89 97 90 ?1 29 94 833 0 97 98 90 -.0085 .0125 0 18 97 829 99 10
0 93 101 94 ?1 29 98 706 0 101 102 94 .00689931737434182 .0049648182009118 .0099
9999999999951 18 101 701 103 104 97 105 98 ?1 29 102 690 0 105 106 98 -.00254999
999999992 .00810848321204407 .01 18 105 685 107 108 101 109 102 1e-6 1 29 106 67
5 0 109 110 102 .00679248021260258 -.003179970528380095 .011 18 109 671 111 112
 105 113 106 1e-6 1 29 110 670 0 113 114 106 -.000857695154586726 .0074507958649
9312 .011 18 113 666 115 116 109 117 110 ?1 29 114 378 0 117 118 110 .0054934387
5905449 .00395313380393922 .011 18 117 376 119 120 113 121 114 ?1 29 118 584 0 1
22 123 114 .00547547464282529 .003978036331282755 .00100099501104947 18 122 497
 124 125 126 0 118 261068082813221e-20 1 29 123 585 0 126 127 118 .0068766525622
0454 .00499603872763531 491808907035778e-21 18 126 487 128 129 121 122 123 31935
28900434155e-21 1 29 127 586 0 121 0 123 .00687680233614681 .00499614649799167 .
00200095684595371 18 121 494 130 131 117 126 127 2767733381464755e-21 1 81 1 130
 598 30 121 0 0 124 132 133 17 131 0 134 135 108 121 136 137 0 138 +15 255 134 5
45 0 139 140 0 17 135 0 134 141 131 122 138 142 143 144 +17 108 0 134 131 139 10
5 112 145 146 136 +17 136 0 147 104 148 105 131 137 0 149 -16 137 686 150 ?131 1
51 152 153 0 0 1 17 138 0 154 155 144 121 135 142 156 148 -15 154 527 0 155 157
 0 17 155 0 154 144 138 126 148 158 159 160 -17 144 0 154 138 155 122 161 151 16
2 0 -16 142 456 163 2448944221138675e-21 135 164 158 0 0 0 1 133 255 156 565 0 1
38 165 166 0 +166 .00547588766047172 .003978380180148185 .00100032514856224 .006
87735463505649 .00499658376293315 .002000466508045655 1 0 17 148 0 147 136 160 1
21 155 158 167 0 +15 147 402 0 136 17 0 17 160 0 147 148 129 126 168 169 0 168 +
16 158 450 170 25e-8 148 142 151 0 0 0 1 133 167 397 0 148 171 172 0 +172 .00687
669526172382 .00499610471041041 -4046418563066755e-24 .00687669526172382 .004996
10471041041 .00199999595358144 0 1 31 255 171 390 0 1 173 167 174 +0 0 0 0 0 1 1
 0 0 .0085 137 255 172 398 0 1 167 175 176 +177 178 0 ?133 175 677 0 179 172 180
 0 +181 .00549343875905449 .00395313380393922 .011 .00679248021260258 -.00317997
052838009 .011 0 .00757267747522477 141 255 176 167 176 176 172 51 177 305 0 17
 182 183 184 -0 0 .011 0 0 -1 .0085 -1 0 0 134 255 178 0 0 0 0 0 0 +185 186 136
 255 185 1 2 2 2 5 FFF1 187 188 189 135 255 186 1 0 45 255 4 187 2.5132842926309
 .01100000404641856 2.5132842926309 .00900000404641856 127 255 2 188 2 2 128 255
 2 189 0 1 14 255 17 284 190 ?191 0 147 6 177 -0 0 191 0 23 50 255 182 307 0 192
 193 177 194 +0 0 .011 0 0 1 1 0 0 50 183 2 0 195 177 196 0 +0 0 -.003 0 0 1 1 0
 0 141 184 172 184 184 177 14 195 1 197 ?198 199 34 6 183 -0 0 198 199 23 50 196
 131 0 198 183 200 0 +0 0 0 0 0 1 1 0 0 14 198 84 201 ?192 195 202 6 196 +0 0 19
2 195 23 51 200 157 0 199 196 203 0 +0 0 -.003 0 0 1 .0055 1 0 0 14 199 146 204
 ?195 205 206 6 200 -0 0 195 205 23 50 203 158 0 205 200 207 0 +.0125 -576565970
03549e-31 -.003 -1 183697019872103e-30 0 -183697019872103e-30 -1 0 14 205 150 20
8 ?199 209 210 6 203 -0 0 199 209 23 50 207 159 0 209 203 211 0 +0 -.0125 -.003
 0 -1 0 0 0 -1 14 209 152 212 ?205 213 46 6 207 +0 0 205 213 23 50 211 160 0 213
 207 214 0 +-.0125 -1173234203552326e-33 -.003 -1 183697019872103e-30 0 -1836970
19872103e-30 -1 0 14 213 154 215 ?209 191 216 6 211 +0 0 209 191 23 50 214 161 0
 191 211 217 0 +.003683075008078375 .0125 -.003 0 -1 0 0 0 -1 14 191 156 218 ?21
3 17 219 6 214 -0 0 213 17 23 52 255 217 743 0 220 214 221 222 +0 0 .011 0 0 -1
 .0075 .707106781186547 .707106781186548 -1 0 0 14 220 731 223 ?224 140 225 6 21
7 +0 0 224 157 23 51 221 1044 0 224 217 226 0 +-.0085 .0085 -.003 0 0 -1 .004 -1
 0 0 141 222 227 228 228 217 137 227 744 0 1 229 230 231 +217 232 0 ?141 228 233
 222 222 217 38 255 233 716 0 234 235 229 0 +217 236 237 238 239 16 234 714 240
 ?116 241 242 233 0 0 1 31 235 710 0 1 243 233 244 -0 0 .01 0 0 1 1 0 0 .0085 13
3 229 745 0 112 233 227 0 +227 -.00254999999999972 .00810848321204414 .01 .00679
248021260402 -.003179970528380665 .01100000000000088 0 1 124 255 236 552 0 245 0
 246 247 +248 249 40 255 4 237 0 1 4 .000549495509463583 .3719582190417595 ??.00
6899317374336 .00496481820091989 .01 .00462247168845107 .00674053829825725 .0103
2674476962794 .00186548566884088 .00762213944497603 .0106528956614997 -.00085769
5154586724 .0074507958649931 .011 41 3 CI8 term_use0 0 1 cCZ1 238 L?.00689931737
4336 .00496481820091989 .01 41 1 239 L?-.000857695154586724 .0074507958649931 .0
11 14 245 528 250 ?140 157 251 6 236 -0 0 157 140 23 124 246 550 0 140 236 193 2
52 +253 254 141 247 255 256 257 236 126 255 248 FF1 2 2 61 1 1 2 31 TFF12 4 258
 259 260 261 262 125 255 249 0 1 0 1 0 1 0 1 2 BBBBBBBBH???263 0 0 0 163 255 263
 0 0 .011 0 0 -1 +0 5 .0025 ?1e-5 45 488 258 -.00676794919243113 0 .012 1 -.0058
6121593216773 .003383974596215565 .0102118828862915 .866025403784439 -.003383974
596215565 .00586121593216773 .01158333333333334 1 -4144173657651345e-34 .0067679
4919243113 .00985103896804799 .866025403784439 .003383974596215565 .005861215932
16773 .01116666666666666 1 .00586121593216773 .003383974596215565 .0094901950498
0447 .866025403784439 .00676794919243113 828834731530269e-33 .01075 1 .005861215
93216773 -.00338397459621556 .00912935113156096 .866025403784439 .00338397459621
5565 -.00586121593216773 .01033333333333332 1 1243252097295404e-33 -.00676794919
243113 .00876850721331744 .866025403784439 -.00338397459621556 -.005861215932167
74 .00991666666666667 1 -.00586121593216773 -.003383974596215565 .00840766329507
393 .866025403784439 -.00676794919243113 0 .0095 1 -.00586121593216773 .00338397
4596215565 .00804681937683041 .866025403784439 -.003383974596215565 .00586121593
216773 .00908333333333333 1 -4144173657651345e-34 .00676794919243113 .0076859754
5858689 .866025403784439 .003383974596215565 .00586121593216773 .008666666666666
67 1 .00586121593216773 .003383974596215565 .00732513154034338 .866025403784439
 .00676794919243113 828834731530269e-33 .00825 1 .00586121593216773 -.0033839745
9621556 .00696428762209986 .866025403784439 .003383974596215565 -.00586121593216
773 .00783333333333334 1 1243252097295404e-33 -.00676794919243113 .0066034437038
5635 .866025403784439 -.00338397459621556 -.00586121593216774 .00741666666666667
 1 -.00586121593216773 -.003383974596215565 .00624259978561283 .866025403784439
 -.00676794919243113 0 .007 1 -.00586121593216773 .003383974596215565 .005881755
86736931 .866025403784439 -.003383974596215565 .00586121593216773 .0065833333333
3333 1 -4144173657651345e-34 .00676794919243113 .0055209119491258 .8660254037844
39 .003383974596215565 .00586121593216773 .00616666666666667 1 .0058612159321677
3 .003383974596215565 .00516006803088228 .866025403784439 .00676794919243113 828
834731530269e-33 .00575 1 .00586121593216773 -.00338397459621556 .00479922411263
876 .866025403784439 .003383974596215565 -.00586121593216773 .00533333333333333
 1 1243252097295404e-33 -.00676794919243113 .00443838019439525 .866025403784439
 -.00338397459621556 -.00586121593216774 .00491666666666667 1 -.0058612159321677
3 -.003383974596215565 .00407753627615173 .866025403784439 -.00676794919243113 0
 .0045 1 -.00586121593216773 .003383974596215565 .003716692357908215 .8660254037
84439 -.003383974596215565 .00586121593216773 .004083333333333335 1 -41441736576
51345e-34 .00676794919243113 .0033558484396647 .866025403784439 .003383974596215
565 .00586121593216773 .003666666666666665 1 .00586121593216773 .003383974596215
565 .002995004521421185 .866025403784439 .00676794919243113 828834731530269e-33
 .00325 1 .00586121593216773 -.00338397459621556 .00263416060317767 .86602540378
4439 .003383974596215565 -.00586121593216773 .002833333333333335 1 1243252097295
404e-33 -.00676794919243113 .00227331668493415 .866025403784439 -.00338397459621
556 -.00586121593216774 .002416666666666665 1 -.00586121593216773 -.003383974596
215565 .001912472766690635 .866025403784439 -.00676794919243113 0 .002 1 -.00586
121593216773 .003383974596215565 .00155162884844712 .866025403784439 -.003383974
596215565 .00586121593216773 .001583333333333335 1 -4144173657651345e-34 .006767
94919243113 .001190784930203602 .866025403784439 .003383974596215565 .0058612159
3216773 .001166666666666666 1 .00586121593216773 .003383974596215565 .0008299410
11960087 .866025403784439 .00676794919243113 828834731530269e-33 75e-5 1 .005861
21593216773 -.00338397459621556 .00046909709371657 .866025403784439 .00338397459
6215565 -.00586121593216773 .000333333333333333 1 1243252097295404e-33 -.0067679
4919243113 .000108253175473055 .866025403784439 -.00338397459621556 -.0058612159
3216774 -833333333333346e-19 1 -.00586121593216773 -.003383974596215565 -.000252
590742770462 .866025403784439 -.00676794919243113 0 -5e-4 1 -.0085 0 .011 1 -.00
736121593216773 .00425 .00934585748250707 .866025403784439 -.00425 .007361215932
16773 .01058333333333332 1 -520474889637625e-33 .0085 .00898501356426355 .866025
403784439 .00425 .00736121593216773 .01016666666666666 1 .00736121593216773 .004
25 .00862416964602004 .866025403784439 .0085 104094977927525e-32 .00975 1 .00736
121593216773 -.00425 .00826332572777652 .866025403784439 .00425 -.00736121593216
773 .00933333333333333 1 1561424668912875e-33 -.0085 .007902481809533 .866025403
784439 -.00425 -.00736121593216773 .00891666666666667 1 -.00736121593216773 -.00
425 .00754163789128949 .866025403784439 -.0085 0 .0085 1 -.00736121593216773 .00
425 .00718079397304597 .866025403784439 -.00425 .00736121593216773 .008083333333
33333 1 -520474889637625e-33 .0085 .00681995005480246 .866025403784439 .00425 .0
0736121593216773 .00766666666666667 1 .00736121593216773 .00425 .006459106136558
94 .866025403784439 .0085 104094977927525e-32 .00725 1 .00736121593216773 -.0042
5 .00609826221831542 .866025403784439 .00425 -.00736121593216773 .00683333333333
333 1 1561424668912875e-33 -.0085 .00573741830007191 .866025403784439 -.00425 -.
00736121593216773 .00641666666666667 1 -.00736121593216773 -.00425 .005376574381
82839 .866025403784439 -.0085 0 .006 1 -.00736121593216773 .00425 .0050157304635
8487 .866025403784439 -.00425 .00736121593216773 .00558333333333333 1 -520474889
637625e-33 .0085 .00465488654534136 .866025403784439 .00425 .00736121593216773 .
00516666666666667 1 .00736121593216773 .00425 .00429404262709784 .86602540378443
9 .0085 104094977927525e-32 .00475 1 .00736121593216773 -.00425 .003933198708854
325 .866025403784439 .00425 -.00736121593216773 .004333333333333335 1 1561424668
912875e-33 -.0085 .00357235479061081 .866025403784439 -.00425 -.0073612159321677
3 .003916666666666665 1 -.00736121593216773 -.00425 .003211510872367295 .8660254
03784439 -.0085 0 .0035 1 -.00736121593216773 .00425 .002850666954123775 .866025
403784439 -.00425 .00736121593216773 .00308333333333333 1 -520474889637625e-33 .
0085 .00248982303588026 .866025403784439 .00425 .00736121593216773 .002666666666
666665 1 .00736121593216773 .00425 .002128979117636745 .866025403784439 .0085 10
4094977927525e-32 .00225 1 .00736121593216773 -.00425 .00176813519939323 .866025
403784439 .00425 -.00736121593216773 .001833333333333335 1 1561424668912875e-33
 -.0085 .00140729128114971 .866025403784439 -.00425 -.00736121593216773 .0014166
66666666664 1 -.00736121593216773 -.00425 .001046447362906196 .866025403784439 -
.0085 0 .001 1 -.00736121593216773 .00425 .00068560344466268 .866025403784439 -.
00425 .00736121593216773 .000583333333333332 1 -520474889637625e-33 .0085 .00032
47595264191635 .866025403784439 .00425 .00736121593216773 .0001666666666666655 1
 .00736121593216773 .00425 -3608439182435215e-20 .866025403784439 .0085 10409497
7927525e-32 -25e-5 1 .00736121593216773 -.00425 -.000396928310067869 .8660254037
84439 .00425 -.00736121593216773 -.000666666666666668 1 1561424668912875e-33 -.0
085 -.000757772228311385 .866025403784439 -.00425 -.00736121593216773 -.00108333
3333333336 1 -.00736121593216773 -.00425 -.001118616146554902 .866025403784439 -
.0085 0 -.0015 1 127 2 259 2 2 127 31 260 3 2 2 2 2 2 2 2 2 2 2 2 2 2 2 2 2 2 2
 2 2 2 2 2 2 2 2 2 2 2 3 128 2 261 0 1 128 31 262 0 .03333333333333335 .06666666
66666667 .1 .1333333333333332 .1666666666666665 .2 .2333333333333335 .2666666666
666665 .3 .3333333333333335 .3666666666666665 .4 .4333333333333335 .466666666666
667 .5 .533333333333333 .566666666666667 .6 .633333333333333 .666666666666667 .7
 .733333333333333 .766666666666667 .8 .833333333333333 .866666666666667 .9 .9333
33333333333 .966666666666667 1 137 255 579 0 1 264 143 265 -236 266 0 ?141 256 2
33 257 247 236 141 257 267 247 256 236 38 267 382 0 268 181 173 0 +182 236 269 2
70 271 16 268 667 272 ?120 273 179 267 0 0 1 38 181 379 0 1 274 267 275 +182 246
 276 277 278 133 173 389 0 169 267 171 0 +171 .0068767138221348 .004996079163550
17 0 .0068767138221348 .00499607916355017 0 .628304645973019 6.91148995315261 40
 9 269 0 1 9 .00049843442355347 .362035585627605 ??-.0085 0 .011 -.0080232846042
7856 .00220705196049538 .011 -.00666476498988396 .00457347349396745 .011 -.00460
277112820131 .00635254113976339 .011 -.002056530040531735 .00732938283277763 .01
1 .000499821830269024 .00735154311568383 .011 .002843148156802975 .0065382557665
8414 .011 .0047745763527371 .00497715761886914 .011 .00549343875905453 .00395313
380393917 .011 41 1 270 L?-.0085 0 .011 41 1 271 L?.00549343875905453 .003953133
80393917 .011 16 169 245 279 ?160 179 280 173 0 0 1 81 1 279 325 30 169 0 0 281
 282 283 16 179 377 284 ?139 268 169 175 0 0 1 16 280 32 285 ?286 169 287 288 0
 0 1 81 1 285 204 30 280 0 0 0 289 290 17 286 0 291 286 286 0 292 280 0 0 +16 28
7 938 293 ?36 280 294 295 0 0 1 31 288 33 0 280 295 296 0 +0 0 -.003 0 0 1 1 0 0
 .0055 30 295 25 0 287 297 288 0 +.0125 -57656597003549e-31 -.003 -1836970198721
03e-30 -1 0 30 296 136 0 298 288 299 0 +.003683075008078375 .0125 0 1 0 0 16 298
 830 300 ?301 302 164 296 0 0 1 30 299 135 0 302 296 303 0 +-.0125 -117323420355
2326e-33 0 -183697019872103e-30 -1 0 16 302 862 304 ?305 306 298 299 0 0 1 30 30
3 134 0 306 299 274 0 +0 -.0125 0 1 0 0 16 306 872 307 ?308 309 302 303 0 0 1 30
 274 133 0 309 303 181 0 +.0125 -57656597003549e-31 0 -183697019872103e-30 -1 0
 16 309 882 310 ?311 312 306 274 0 0 1 81 1 310 1155 30 309 0 0 313 293 314 17 3
11 0 210 25 315 63 316 309 0 317 +16 312 840 318 ?319 320 309 321 0 0 1 81 1 318
 1150 30 312 0 0 300 307 322 17 319 0 34 55 92 85 323 312 0 324 +16 320 916 313
 ?325 294 312 326 0 0 1 30 321 13 0 312 327 326 0 +.003683075008078375 .0125 -.0
03 1 0 0 31 327 311 0 164 328 321 0 +0 0 .011 0 0 1 1 0 0 .0055 30 326 17 0 320
 321 297 0 +-.0125 -1173234203552326e-33 -.003 -183697019872103e-30 -1 0 30 297
 21 0 294 326 295 0 +0 -.0125 -.003 1 0 0 16 294 948 329 ?39 287 320 297 0 0 1 8
1 1 329 1152 30 294 0 0 307 304 330 17 39 0 46 331 41 12 35 294 0 332 +15 46 151
 0 47 209 0 17 331 0 46 47 39 70 332 333 0 308 +17 35 0 34 58 28 29 39 294 0 334
 -17 332 0 335 37 73 12 331 333 0 0 -15 335 1075 0 37 336 0 17 37 0 335 317 332
 42 28 38 0 0 -17 73 0 335 332 317 70 66 337 0 331 -16 333 981 338 ?331 49 339 3
40 0 0 1 81 1 338 1146 30 333 0 0 341 24 342 16 49 987 343 ?41 26 333 344 0 0 1
 16 339 975 345 ?92 333 346 347 0 0 1 30 340 983 0 333 347 344 0 +.0085 -.0125 0
 0 0 1 31 347 977 0 339 348 340 0 --.0085 .0085 -.003 0 0 1 1 0 0 .004 30 344 98
9 0 49 340 21 0 --.0085 -.0125 -.003 0 0 1 30 21 995 0 26 344 8 0 +.0125 .0085 -
.003 0 0 1 16 26 993 349 ?315 11 49 21 0 0 1 81 1 349 1139 30 26 0 0 350 351 352
 17 315 0 210 311 353 67 354 26 0 316 +15 210 149 0 311 205 0 17 353 0 210 315 2
5 50 36 287 0 354 -17 354 0 355 324 69 50 315 26 0 0 -17 316 0 356 96 66 67 311
 309 0 0 -15 356 93 0 357 198 0 17 96 0 356 357 316 93 69 358 0 301 +17 66 0 356
 316 308 63 73 337 0 311 +17 308 0 356 66 77 70 47 306 0 0 +16 337 897 359 ?66 3
60 358 361 0 0 1 81 1 359 1148 30 337 0 0 24 300 362 16 360 903 363 ?77 364 337
 365 0 0 1 16 358 891 351 ?96 337 366 367 0 0 1 31 361 899 0 337 367 365 0 +.008
5 -.0085 0 0 0 1 1 0 0 .004 31 367 893 0 358 368 361 0 +.0085 .0085 0 0 0 1 1 0
 0 .004 31 365 905 0 360 361 369 0 +-.0085 -.0085 0 0 0 1 1 0 0 .004 31 369 911
 0 364 365 370 0 +-.0085 .0085 0 0 0 1 1 0 0 .004 16 364 909 371 ?84 372 360 369
 0 0 1 30 370 927 0 372 369 373 0 +-.0125 -.0085 -.003 0 0 1 16 372 925 374 ?375
 376 364 370 0 0 1 30 373 933 0 376 370 377 0 --.0125 .0085 -.003 0 0 1 16 376 9
31 378 ?62 379 372 373 0 0 1 31 377 959 0 379 373 380 0 -.0085 .0085 -.003 0 0 1
 1 0 0 .004 16 379 957 350 ?55 38 376 377 0 0 1 31 380 965 0 38 377 348 0 -.0085
 -.0085 -.003 0 0 1 1 0 0 .004 16 38 963 341 ?28 346 379 380 0 0 1 31 348 971 0
 346 380 347 0 --.0085 -.0085 -.003 0 0 1 1 0 0 .004 16 346 969 381 ?58 339 38 3
48 0 0 1 81 1 381 1141 30 346 0 0 351 343 382 17 58 0 34 383 35 56 334 346 0 325
 +15 34 5 0 383 195 291 17 383 0 34 92 58 59 325 320 0 384 -17 334 0 385 48 386
 29 58 346 0 0 -17 325 0 216 375 62 56 383 320 0 386 +15 216 153 0 387 213 0 17
 375 0 216 387 325 78 386 372 0 305 +17 62 0 216 325 387 59 388 376 0 383 +17 38
6 0 385 334 80 56 375 372 0 0 -15 385 1054 0 334 389 0 17 80 0 385 386 48 78 77
 360 0 375 -17 48 0 385 80 334 74 41 49 0 0 -17 77 0 356 308 305 74 80 360 0 47
 +17 305 0 356 77 84 78 387 302 0 0 +17 47 0 46 41 331 74 308 306 0 48 -17 84 0
 356 305 357 81 100 364 0 387 +17 387 0 216 62 375 81 305 302 0 388 -17 388 0 39
0 100 384 81 62 376 0 0 -15 390 1033 0 384 224 0 17 100 0 390 391 388 97 84 364
 0 392 -17 384 0 390 388 391 59 92 339 0 0 -17 391 0 390 384 100 89 392 366 0 0
 -17 92 0 34 319 383 89 384 339 0 323 +17 323 0 219 392 88 89 319 312 0 391 -15
 219 155 0 323 191 0 17 392 0 219 301 323 97 391 366 0 357 +17 88 0 219 323 301
 85 393 241 0 319 +17 301 0 219 88 392 93 357 298 0 393 +17 393 0 355 69 324 93
 88 241 0 0 -16 241 849 394 ?88 366 234 230 0 0 1 81 1 394 1137 30 241 0 0 371 3
50 395 16 366 855 396 ?392 358 241 368 0 0 1 30 230 851 0 241 227 368 0 -.0085 .
0125 -.003 0 0 1 30 368 857 0 366 230 367 0 +-.0085 .0125 0 0 0 1 81 1 396 1133
 30 366 0 0 65 345 397 80 255 1 30 398 399 9000 0 0 0 0 3 6 0 0 0 FFTFTFTTFFFFFF
1 81 1 65 1132 30 63 0 0 72 396 400 81 1 345 1134 30 339 0 0 396 378 401 82 255
 3 397 15 0 1 81 1 378 1135 30 376 0 0 345 371 402 82 3 401 15 1 1 81 1 371 1136
 30 364 0 0 378 394 403 82 3 402 15 2 1 82 3 403 15 3 1 81 1 72 1131 30 70 0 0 3
2 65 404 82 3 400 15 15 0 81 1 32 1130 30 42 0 0 27 72 405 82 3 404 15 14 0 82 3
 405 15 13 0 79 255 9 399 BTI/DetId81 1 350 1138 30 379 0 0 394 349 406 82 3 395
 15 4 1 82 3 406 15 5 1 15 355 1096 0 324 19 0 17 69 0 355 354 393 67 96 358 0 3
15 -17 324 0 355 393 354 85 55 379 0 0 -17 55 0 34 36 319 50 324 379 0 353 +17 3
6 0 34 28 55 42 353 287 0 37 +14 19 1095 407 ?0 336 355 6 7 +0 0 0 336 23 81 1 4
07 1185 408 19 409 0 410 0 411 14 336 1074 410 ?19 389 335 6 20 +0 0 19 389 23 1
3 23 166 0 0 0 0 0 0 10 17 81 1 410 1184 408 336 412 0 413 407 414 14 389 1053 4
13 ?336 224 385 6 226 +0 0 336 224 23 51 20 1086 0 336 226 7 0 +.0085 -.0085 -.0
03 0 0 -1 .004 -1 0 0 51 226 1065 0 389 221 20 0 +-.0085 -.0085 -.003 0 0 1 .004
 1 0 0 81 1 413 1183 408 389 415 0 416 410 417 14 224 1032 416 ?389 220 390 6 22
1 +0 0 389 220 23 81 1 416 1182 408 224 418 0 223 413 419 80 1 408 0 420 8001 0
 0 0 0 3 5 0 0 0 FFFFTFTFFFFFFF2 81 1 418 1157 30 224 0 416 293 409 421 81 1 223
 1181 408 220 422 0 423 416 424 83 255 3 419 .603921568627451 .647058823529412 .
686274509803922 81 1 422 764 30 220 0 223 284 425 426 81 1 423 1180 408 140 427
 0 250 223 428 83 3 424 .603921568627451 .647058823529412 .686274509803922 14 14
0 540 423 ?220 245 134 6 246 -0 0 245 192 23 81 1 427 766 30 140 429 423 425 430
 431 81 1 250 1179 408 245 425 0 432 423 433 83 3 428 .603921568627451 .64705882
3529412 .686274509803922 81 1 425 765 30 245 434 250 422 427 435 81 1 432 1178 4
08 157 436 0 437 250 438 83 3 433 .603921568627451 .647058823529412 .68627450980
3922 14 157 523 432 ?245 192 154 6 193 +0 0 220 245 23 81 1 436 606 30 157 0 432
 439 119 440 81 1 437 1177 408 192 441 0 201 432 442 83 3 438 .603921568627451 .
647058823529412 .686274509803922 14 192 290 437 ?157 198 443 6 182 +0 0 140 198
 23 81 1 441 768 30 192 0 437 430 91 444 81 1 201 1176 408 198 445 0 197 437 446
 83 3 442 .603921568627451 .647058823529412 .686274509803922 81 1 445 1166 30 19
8 0 201 447 0 448 81 1 197 1175 408 195 449 0 204 201 450 83 3 446 .603921568627
451 .647058823529412 .686274509803922 81 1 449 1162 30 195 0 197 451 452 453 81
 1 204 1174 408 199 282 0 208 197 454 83 3 450 .603921568627451 .647058823529412
 .686274509803922 81 1 282 326 30 199 0 204 279 128 455 81 1 208 1173 408 205 44
7 0 212 204 456 83 3 454 .603921568627451 .647058823529412 .686274509803922 81 1
 447 1165 30 205 0 208 457 445 458 81 1 212 1172 408 209 452 0 215 208 459 83 3
 456 .603921568627451 .647058823529412 .686274509803922 81 1 452 1163 30 209 0 2
12 449 457 460 81 1 215 1171 408 213 457 0 218 212 461 83 3 459 .603921568627451
 .647058823529412 .686274509803922 81 1 457 1164 30 213 0 215 452 447 462 81 1 2
18 1170 408 191 451 0 190 215 463 83 3 461 .603921568627451 .647058823529412 .68
6274509803922 81 1 451 1161 30 191 0 218 412 449 464 81 1 190 1169 408 17 430 0
 0 218 465 83 3 463 .603921568627451 .647058823529412 .686274509803922 81 1 430
 767 30 17 0 190 427 441 466 83 3 465 .603921568627451 .647058823529412 .6862745
09803922 82 3 466 14 3 2 81 1 412 1160 30 336 0 410 415 451 467 82 3 464 15 4 2
 81 1 415 1159 30 389 0 413 409 412 468 82 3 467 15 3 2 81 1 409 1158 30 19 0 40
7 418 415 469 82 3 468 15 2 2 82 3 469 15 1 2 82 3 462 15 7 2 82 3 460 15 6 2 82
 3 458 15 8 2 81 1 128 596 30 126 0 0 282 124 470 82 3 455 8 0 2 81 1 124 597 30
 122 0 0 128 130 471 82 3 470 13 1 0 82 3 471 13 2 0 82 3 453 15 5 2 82 3 448 15
 9 2 81 1 91 1117 30 89 0 0 441 99 472 82 3 444 14 4 2 81 1 99 1118 30 97 0 0 91
 61 473 82 3 472 15 0 0 81 1 61 1119 30 59 0 0 99 83 474 82 3 473 15 1 0 81 1 83
 1120 30 81 0 0 61 87 475 82 3 474 15 2 0 81 1 87 1121 30 85 0 0 83 95 476 82 3
 475 15 3 0 81 1 95 1122 30 93 0 0 87 54 477 82 3 476 15 4 0 81 1 54 1123 30 50
 0 0 95 43 478 82 3 477 15 5 0 81 1 43 1124 30 67 0 0 54 40 479 82 3 478 15 6 0
 82 3 479 15 7 0 15 443 381 0 480 192 481 17 480 0 443 482 483 113 120 268 0 484
 -15 481 294 0 485 192 0 17 485 0 481 485 485 0 486 164 0 0 -17 486 0 487 486 48
6 0 485 164 0 0 +16 164 258 289 ?486 298 142 327 0 0 1 81 1 289 261 30 164 0 0 2
85 281 488 81 1 281 324 30 1 0 14 289 279 489 82 3 488 7 3 1 81 1 14 1167 490 1
 281 2 0 0 491 82 3 489 6 0 3 80 1 490 13 492 8038 0 0 0 0 0 0 0 0 0 TTTTTTTTTTT
TTF10 98 255 6 491 80 97 114 116 32 49 79 14 492 SDL/TYSA_UNAME15 487 282 0 486
 199 0 17 482 0 443 483 480 109 484 273 0 139 +17 483 0 443 480 482 117 139 179
 0 0 -17 120 0 251 125 116 117 480 268 0 141 +17 484 0 225 493 112 113 482 273 0
 0 -15 225 732 0 493 220 0 17 493 0 225 149 484 101 116 234 0 0 -17 112 0 225 48
4 149 109 108 145 229 482 -16 273 678 494 ?482 145 268 180 0 0 1 81 1 494 761 30
 273 0 0 495 272 496 16 145 691 497 1e-6 108 242 273 0 0 0 1 133 180 680 0 273 1
75 498 0 +498 -.000857695154586725 .00745079586499311 .011 .00679248021260483 -.
003179970528381025 .011 1.6854064256774 5.84533221065351 31 498 681 0 1 180 153
 499 +0 0 .011 0 0 1 1 0 0 .0075 133 153 689 0 137 498 146 0 +500 -.002549999999
99992 .00810848321204407 .01 .00687673238067855 .00499605361906047 .002001879566
786095 .240449931080603 .880074073934524 141 499 180 499 499 498 133 146 693 0 1
08 153 501 0 +501 .006792480212604 -.003179970528380655 .01100000000000088 -.002
54999999999972 .00810848321204413 .01 0 1 134 500 571 0 1 502 503 504 +505 506 1
37 502 575 0 1 143 500 507 -246 508 0 ?134 503 568 0 1 500 165 509 +510 511 141
 504 153 504 504 500 136 505 2 61 4 31 1 FFT8 512 513 514 135 506 2 515 184 255
 515 0 0 .011 0 0 -1 -.0085 0 .013 +0 5 .0025 1e-5 45 244 512 -.0085 0 .013 1 -.
00736121593216773 .00425 .01107790829007594 .866025403784439 -.00425 .0073612159
3216773 .01258333333333334 1 -520474889637625e-33 .0085 .01071706437183242 .8660
25403784439 .00425 .00736121593216773 .01216666666666666 1 .00736121593216773 .0
0425 .01035622045358892 .866025403784439 .0085 104094977927525e-32 .01175 1 .007
36121593216773 -.00425 .0099953765353454 .866025403784439 .00425 -.0073612159321
6773 .01133333333333334 1 1561424668912875e-33 -.0085 .00963453261710188 .866025
403784439 -.00425 -.00736121593216774 .01091666666666666 1 -.00736121593216773 -
.00425 .00927368869885837 .866025403784439 -.0085 -20818995585505e-31 .0105 1 -.
00736121593216774 .00425 .00891284478061485 .866025403784439 -.00425 .0073612159
3216773 .01008333333333334 1 -101518910156392e-31 .0085 .00855200086237134 .8660
25403784439 .00425 .00736121593216774 .00966666666666667 1 .00736121593216773 .0
0425 .00819115694412782 .866025403784439 .0085 312284933782575e-32 .00925 1 .007
36121593216774 -.00425 .0078303130258843 .866025403784439 .00425 -.0073612159321
6773 .00883333333333334 1 364332422746338e-32 -.0085 .00746946910764079 .8660254
03784439 -.00425 -.00736121593216774 .00841666666666667 1 -.00736121593216773 -.
00425 .00710862518939727 .866025403784439 -.0085 -4163799117101005e-33 .008 1 -.
00736121593216774 .00425 .00674778127115375 .866025403784439 -.00425 .0073612159
3216773 .00758333333333334 1 -1978330714164075e-32 .0085 .00638693735291024 .866
025403784439 .00425 .00736121593216774 .00716666666666667 1 .00736121593216773 .
00425 .00602609343466672 .866025403784439 .0085 203037820312784e-31 .00675 1 .00
736121593216774 -.00425 .00566524951642321 .866025403784439 .00425 -.00736121593
216772 .00633333333333334 1 20824256920916e-30 -.0085 .00530440559817969 .866025
403784439 -.00425 -.00736121593216775 .00591666666666667 1 -.00736121593216772 -
.00425 .00494356167993617 .866025403784439 -.0085 -62456986756515e-31 .0055 1 -.
00736121593216774 .00425 .00458271776169266 .866025403784439 -.00425 .0073612159
3216772 .00508333333333334 1 -2186520670019125e-32 .0085 .00422187384344914 .866
025403784439 .00425 .00736121593216775 .00466666666666667 1 .00736121593216772 .
00425 .003861029925205625 .866025403784439 .0085 728664845492676e-32 .00425 1 .0
0736121593216774 -.00425 .00350018600696211 .866025403784439 .00425 -.0073612159
3216772 .003833333333333335 1 229061564794665e-31 -.0085 .00313934208871859 .866
025403784439 -.00425 -.00736121593216775 .00341666666666667 1 -.0073612159321677
2 -.00425 .002778498170475075 .866025403784439 -.0085 -832759823420201e-32 .003
 1 -.00736121593216774 .00425 .00241765425223156 .866025403784439 -.00425 .00736
121593216772 .002583333333333335 1 -2394710625874175e-32 .0085 .0020568103339880
45 .866025403784439 .00425 .00736121593216775 .00216666666666667 1 .007361215932
16771 .00425 .00169596641574453 .866025403784439 .0085 3956661428328155e-32 .001
75 1 .00736121593216774 -.00425 .00133512249750101 .866025403784439 .00425 -.007
36121593216772 .001333333333333336 1 24988056038017e-30 -.0085 .0009742785792574
96 .866025403784439 -.00425 -.00736121593216775 .000916666666666668 1 -.00736121
593216771 -.00425 .000613434661013979 .866025403784439 -.0085 -406075640625568e-
31 5e-4 1 127 31 513 3 2 2 2 2 2 2 2 2 2 2 2 2 2 2 2 2 2 2 2 2 2 2 2 2 2 2 2 2 2
 3 128 31 514 0 .03333333333333335 .0666666666666667 .1 .1333333333333332 .16666
66666666665 .2 .2333333333333335 .2666666666666665 .3 .3333333333333335 .3666666
666666665 .4 .4333333333333335 .466666666666667 .5 .533333333333333 .56666666666
6667 .6 .633333333333333 .666666666666667 .7 .733333333333333 .766666666666667 .
8 .833333333333333 .866666666666667 .9 .933333333333333 .966666666666667 1 134 1
65 566 0 1 503 156 516 +517 518 141 509 519 509 509 503 136 510 2 61 4 31 1 FFT8
 520 521 522 135 511 2 523 184 523 0 0 .011 0 0 -1 -.0085 0 .011 +0 5 .0025 1e-5
 45 244 520 -.0085 0 .011 1 -.00736121593216773 .00425 .00934585748250707 .86602
5403784439 -.00425 .00736121593216773 .01058333333333332 1 -520474889637625e-33
 .0085 .00898501356426355 .866025403784439 .00425 .00736121593216773 .0101666666
6666666 1 .00736121593216773 .00425 .00862416964602004 .866025403784439 .0085 10
4094977927525e-32 .00975 1 .00736121593216773 -.00425 .00826332572777652 .866025
403784439 .00425 -.00736121593216773 .00933333333333333 1 1561424668912875e-33 -
.0085 .007902481809533 .866025403784439 -.00425 -.00736121593216773 .00891666666
666667 1 -.00736121593216773 -.00425 .00754163789128949 .866025403784439 -.0085
 -20818995585505e-31 .0085 1 -.00736121593216773 .00425 .00718079397304597 .8660
25403784439 -.00425 .00736121593216773 .00808333333333333 1 -101518910156392e-31
 .0085 .00681995005480246 .866025403784439 .00425 .00736121593216773 .0076666666
6666667 1 .00736121593216772 .00425 .00645910613655894 .866025403784439 .0085 31
2284933782575e-32 .00725 1 .00736121593216773 -.00425 .00609826221831542 .866025
403784439 .00425 -.00736121593216772 .00683333333333333 1 3643324227463375e-33 -
.0085 .00573741830007191 .866025403784439 -.00425 -.00736121593216773 .006416666
66666667 1 -.00736121593216772 -.00425 .00537657438182839 .866025403784439 -.008
5 -4163799117101e-30 .006 1 -.00736121593216773 .00425 .00501573046358487 .86602
5403784439 -.00425 .00736121593216772 .00558333333333333 1 -1978330714164075e-32
 .0085 .00465488654534136 .866025403784439 .00425 .00736121593216773 .0051666666
6666667 1 .00736121593216772 .00425 .00429404262709784 .866025403784439 .0085 20
3037820312784e-31 .00475 1 .00736121593216773 -.00425 .003933198708854325 .86602
5403784439 .00425 -.00736121593216772 .004333333333333335 1 20824256920916e-30 -
.0085 .00357235479061081 .866025403784439 -.00425 -.00736121593216774 .003916666
666666665 1 -.00736121593216771 -.00425 .003211510872367295 .866025403784439 -.0
085 -62456986756515e-31 .0035 1 -.00736121593216773 .00425 .002850666954123775 .
866025403784439 -.00425 .00736121593216772 .00308333333333333 1 -218652067001912
5e-32 .0085 .00248982303588026 .866025403784439 .00425 .00736121593216774 .00266
6666666666665 1 .00736121593216771 .00425 .002128979117636745 .866025403784439 .
0085 728664845492675e-32 .00225 1 .00736121593216773 -.00425 .00176813519939323
 .866025403784439 .00425 -.00736121593216772 .001833333333333335 1 2290615647946
65e-31 -.0085 .00140729128114971 .866025403784439 -.00425 -.00736121593216774 .0
01416666666666664 1 -.00736121593216771 -.00425 .001046447362906196 .86602540378
4439 -.0085 -8327598234202e-30 .001 1 -.00736121593216774 .00425 .00068560344466
268 .866025403784439 -.00425 .00736121593216772 .000583333333333332 1 -239471062
5874175e-32 .0085 .0003247595264191635 .866025403784439 .00425 .0073612159321677
4 .0001666666666666655 1 .00736121593216771 .00425 -3608439182435215e-20 .866025
403784439 .0085 395666142832815e-31 -25e-5 1 .00736121593216774 -.00425 -.000396
928310067869 .866025403784439 .00425 -.00736121593216772 -.000666666666666668 1
 24988056038017e-30 -.0085 -.000757772228311385 .866025403784439 -.00425 -.00736
121593216774 -.001083333333333336 1 -.00736121593216771 -.00425 -.00111861614655
4902 .866025403784439 -.0085 -4060756406255675e-32 -.0015 1 127 31 521 3 2 2 2 2
 2 2 2 2 2 2 2 2 2 2 2 2 2 2 2 2 2 2 2 2 2 2 2 2 2 3 128 31 522 0 .0333333333333
3335 .0666666666666667 .1 .1333333333333332 .1666666666666665 .2 .23333333333333
35 .2666666666666665 .3 .3333333333333335 .3666666666666665 .4 .4333333333333335
 .466666666666667 .5 .533333333333333 .566666666666667 .6 .633333333333333 .6666
66666666667 .7 .733333333333333 .766666666666667 .8 .833333333333333 .8666666666
66667 .9 .933333333333333 .966666666666667 1 133 519 705 0 152 501 243 0 +503 .0
0689931737434182 .0049648182009118 .00999999999999951 .00687673238245088 .004996
05361662098 1879566639088005e-21 .0802154767676652 .880074073945587 16 152 702 5
24 ?129 137 525 519 0 0 1 137 501 694 0 1 146 519 526 +246 527 0 ?133 243 709 0
 242 519 235 0 +235 -.002549999999999915 .00810848321204406 .01 .006899317374336
 .00496481820091989 .01 1.875488980810285 .623766196759857 16 242 707 495 ?104 2
34 145 243 0 0 1 81 1 495 760 30 242 0 0 497 494 528 17 104 0 147 129 136 101 14
9 242 0 529 +17 129 0 147 160 104 126 529 152 0 161 +17 149 0 225 112 493 105 10
4 242 0 0 -17 529 0 251 116 161 101 129 152 0 493 -15 251 533 0 529 245 0 17 116
 0 251 120 529 113 493 234 0 480 +17 161 0 251 529 125 126 144 151 264 155 +17 1
25 0 251 161 120 122 141 525 0 135 +16 151 460 132 2448944221138495e-21 161 158
 137 0 0 0 1 133 264 580 0 161 0 255 0 +255 .00547546931380814 .0039779859307034
45 .001001878172081852 .006876749195963 .00499603047386845 1878172081851185e-21
 1 0 81 1 132 599 30 151 0 0 130 163 530 81 1 163 600 30 142 0 0 132 170 531 82
 3 530 13 0 1 81 1 170 601 30 158 0 0 163 439 532 82 3 531 13 1 1 81 1 439 603 3
0 525 0 0 170 436 533 82 3 532 13 2 1 16 525 439 439 ?125 152 0 328 0 0 1 82 3 5
33 13 4 1 133 328 553 0 525 534 327 0 +165 .00549343875905449 .00395313380393922
 .011 .00547547739483931 .0039779748076041 .001001877330283136 .0802154767676285
 .880074242249388 137 534 558 0 1 162 328 535 -193 536 0 ?133 162 559 0 144 537
 534 0 +534 .00687628725783781 .00499580828457515 287121028573305e-21 .005475120
89444597 .003977823103935375 .001000213952668924 1 0 141 535 162 535 535 534 50
 193 549 0 157 246 182 538 +.00617606081575478 .00448707487521247 .0009999959535
81438 -.587777024754166 .809022971967509 -693889390390723e-32 -.809022971967509
 -.587777024754166 0 134 536 0 0 0 0 0 0 +539 540 136 539 1 2 2 2 5 FFF1 541 542
 543 135 540 2 0 45 4 541 .000866402989279967 2179990874866255e-22 -.00086552108
6972486 -.000999708832552865 127 2 542 2 2 128 2 543 0 1 141 538 166 544 545 193
 137 166 564 0 1 156 159 546 -193 547 0 ?141 544 534 545 538 193 141 545 537 538
 544 193 137 537 560 0 1 159 162 548 -193 549 0 ?133 159 561 0 155 166 537 0 +53
7 .00687669526172383 .00499610471041041 .00199999595358144 .00687669526172383 .0
0499610471041041 -4046418563066755e-24 1 0 141 548 159 548 548 537 134 549 0 0 0
 0 0 0 +550 551 136 550 1 2 2 2 5 FFF1 552 553 554 135 551 2 0 45 4 552 -.000866
025403784438 -.001 -.000866025403784438 .001 127 2 553 2 2 128 2 554 0 1 141 546
 156 546 546 166 134 547 0 0 0 0 0 0 +555 556 136 555 1 2 2 2 5 FFF1 557 558 559
 135 556 2 0 45 4 557 -.000866840428024183 .001000470554464216 .0008654552213520
87 329194980803506e-21 127 2 558 2 2 128 2 559 0 1 17 141 0 134 139 135 117 125
 525 0 483 -17 139 0 134 108 141 109 483 179 0 0 +81 1 497 759 30 145 0 0 240 49
5 560 82 3 528 14 4 1 81 1 240 758 30 234 0 0 150 497 561 82 3 560 14 3 1 81 1 1
50 757 30 137 0 0 524 240 562 82 3 561 14 2 1 81 1 524 756 30 152 0 0 111 150 56
3 82 3 562 14 1 1 81 1 111 755 30 109 0 0 107 524 564 82 3 563 14 0 1 81 1 107 7
54 30 105 0 0 115 111 565 82 3 564 14 3 0 81 1 115 753 30 113 0 0 103 107 566 82
 3 565 14 2 0 81 1 103 752 30 101 0 0 119 115 567 82 3 566 14 1 0 81 1 119 612 3
0 117 0 0 436 103 568 82 3 567 14 0 0 82 3 568 13 5 0 141 526 146 526 526 501 13
4 527 0 0 0 0 0 0 +569 570 136 569 2 39 2 20 5 FFF1 571 572 573 135 570 1 0 45 7
8 571 .577350269190149 .1139983046547912 .538216517745409 .1220227459915248 .537
285590845065 .1222171666040916 .514930221937728 .126886002057786 .49945036374881
1 .130547243940896 .490668368208753 .132624330791185 .481922143585668 .134847232
11418 .476591178730543 .1362021262930942 .463887959681175 .1390440164653584 .449
049193844917 .142363658725695 .4257225213315505 .147150541440854 .40640194524150
45 .1511153303184515 .387079338509822 .155070210896651 .367938012001322 .1589879
877008185 .3503021095390895 .1630918412700715 .344230060271568 .1645047999271385
 .3332182130698605 .1672442100160965 .325280983659688 .1692187494304495 .3160283
216212385 .171327360001718 .3012543980085565 .174694223654509 .2793942215406625
 .1792111057025995 .2606728057247135 .1830794380162975 .241937300550342 .1868789
44682165 .223293362345162 .1906598818295395 .205781895721774 .1945981156391115 .
1966400783530385 .1966540607530635 .188781923411315 .198569507805262 .1806300252
224775 .2005565555882885 .1724858913809445 .202575190509318 .161929127097444 .20
51918288714085 .1376782855862356 .210295022303419 .1282180622191592 .21228577176
7923 .1014823212230406 .2177427006616865 .0787021346880537 .222392276602976 .065
7558555202245 .2251846282933865 .0466616674087966 .229303007617575 .032514095338
70225 .2328287680638745 .01584558535834245 .2369827792890035 0 .2404499310806035
 127 20 572 3 2 2 2 2 2 2 2 2 2 2 2 2 2 2 2 2 2 2 3 128 20 573 0 .0625 .125 .156
25 .1875 .25 .3125 .375 .40625 .4375 .5 .5625 .625 .65625 .6875 .75 .8125 .875 .
9375 1 141 516 328 516 516 165 136 517 2 61 4 31 1 FFT8 574 575 576 135 518 2 57
7 184 577 0 0 .011 0 0 -1 -.00676794919243113 0 .012 +0 5 .0025 1e-5 45 244 574
 -.00676794919243113 0 .012 1 -.00586121593216773 .003383974596215565 .010211882
8862915 .866025403784439 -.003383974596215565 .00586121593216773 .01158333333333
332 1 -4144173657651345e-34 .00676794919243113 .00985103896804799 .8660254037844
39 .00338397459621556 .00586121593216773 .01116666666666666 1 .00586121593216773
 .003383974596215565 .00949019504980447 .866025403784439 .00676794919243113 8288
34731530269e-33 .01075 1 .00586121593216773 -.00338397459621556 .009129351131560
96 .866025403784439 .003383974596215565 -.00586121593216773 .01033333333333332 1
 1243252097295404e-33 -.00676794919243113 .00876850721331744 .866025403784439 -.
00338397459621556 -.00586121593216773 .00991666666666667 1 -.00586121593216773 -
.003383974596215565 .00840766329507393 .866025403784439 -.00676794919243113 -165
766946306054e-32 .0095 1 -.00586121593216773 .00338397459621556 .008046819376830
41 .866025403784439 -.003383974596215565 .00586121593216773 .00908333333333333 1
 -808323324716989e-32 .00676794919243113 .00768597545858689 .866025403784439 .00
338397459621556 .00586121593216774 .00866666666666667 1 .00586121593216773 .0033
83974596215575 .00732513154034338 .866025403784439 .00676794919243113 2486504194
59081e-32 .00825 1 .00586121593216773 -.00338397459621556 .00696428762209986 .86
6025403784439 .00338397459621557 -.00586121593216773 .00783333333333333 1 290092
1560355945e-33 -.00676794919243113 .00660344370385634 .866025403784439 -.0033839
74596215555 -.00586121593216774 .00741666666666667 1 -.00586121593216773 -.00338
3974596215575 .00624259978561283 .866025403784439 -.00676794919243113 -331533892
6121075e-33 .007 1 -.00586121593216773 .003383974596215555 .00588175586736931 .8
66025403784439 -.003383974596215575 .00586121593216773 .00658333333333333 1 -157
5204912857465e-32 .00676794919243113 .0055209119491258 .866025403784439 .0033839
74596215555 .00586121593216774 .00616666666666667 1 .00586121593216773 .00338397
4596215575 .00516006803088228 .866025403784439 .00676794919243113 16166466494339
8e-31 .00575 1 .00586121593216774 -.003383974596215555 .00479922411263876 .86602
5403784439 .003383974596215575 -.00586121593216773 .00533333333333333 1 16580883
8601049e-31 -.00676794919243113 .004438380194395245 .866025403784439 -.003383974
596215545 -.00586121593216774 .00491666666666667 1 -.00586121593216772 -.0033839
74596215585 .00407753627615173 .866025403784439 -.00676794919243113 -49730083891
8162e-32 .0045 1 -.00586121593216774 .003383974596215555 .003716692357908215 .86
6025403784439 -.003383974596215575 .00586121593216773 .00408333333333333 1 -1740
97185916352e-31 .00676794919243113 .0033558484396647 .866025403784439 .003383974
596215545 .00586121593216774 .003666666666666665 1 .00586121593216772 .003383974
596215585 .00299500452142118 .866025403784439 .00676794919243113 580184312071188
e-32 .00325 1 .00586121593216774 -.003383974596215555 .002634160603177665 .86602
5403784439 .003383974596215575 -.00586121593216772 .00283333333333333 1 18238553
32316545e-32 -.00676794919243113 .00227331668493415 .866025403784439 -.003383974
596215545 -.00586121593216774 .002416666666666665 1 -.00586121593216772 -.003383
974596215585 .001912472766690635 .866025403784439 -.00676794919243113 -663067785
224215e-32 .002 1 -.00586121593216774 .003383974596215555 .00155162884844712 .86
6025403784439 -.003383974596215575 .00586121593216772 .00158333333333333 1 -1906
73880546957e-31 .00676794919243113 .0011907849302036 .866025403784439 .003383974
596215545 .00586121593216774 .001166666666666664 1 .00586121593216772 .003383974
59621559 .000829941011960086 .866025403784439 .00676794919243113 315040982571493
e-31 75e-5 1 .00586121593216774 -.003383974596215555 .000469097093716569 .866025
403784439 .003383974596215575 -.00586121593216772 .0003333333333333315 1 1989622
2786226e-30 -.00676794919243113 .0001082531754730534 .866025403784439 -.00338397
4596215545 -.00586121593216774 -833333333333363e-19 1 -.00586121593216772 -.0033
8397459621559 -.0002525907427704635 .866025403784439 -.00676794919243113 -323329
3298867955e-32 -5e-4 1 127 31 575 3 2 2 2 2 2 2 2 2 2 2 2 2 2 2 2 2 2 2 2 2 2 2
 2 2 2 2 2 2 2 3 128 31 576 0 .03333333333333335 .0666666666666667 .1 .133333333
3333332 .1666666666666665 .2 .2333333333333335 .2666666666666665 .3 .33333333333
33335 .3666666666666665 .4 .4333333333333335 .466666666666667 .5 .53333333333333
3 .566666666666667 .6 .633333333333333 .666666666666667 .7 .733333333333333 .766
666666666667 .8 .833333333333333 .866666666666667 .9 .933333333333333 .966666666
666667 1 133 143 576 0 135 255 502 0 +502 .006876749195963 .00499603047386845 .0
02001878172081855 .00547546931380814 .003977985930703445 .00100187817208185 1 0
 141 507 143 507 507 502 134 508 0 0 0 0 0 0 +578 579 136 578 1 2 2 2 5 FFF1 580
 581 582 135 579 2 0 45 4 580 1 .88007417889727 0 .88007417889727 127 2 581 2 2
 128 2 582 0 1 81 1 272 762 30 268 0 0 494 284 583 82 3 496 14 5 1 81 1 284 763
 30 179 0 0 272 422 584 82 3 583 14 6 1 82 3 584 14 7 1 82 3 440 13 0 2 81 1 434
 532 585 245 0 425 0 429 586 82 3 435 14 1 2 80 1 585 587 588 9000 0 0 0 0 3 6 0
 0 0 FFTFTFTTFFFFFF1 81 1 429 544 585 140 0 427 434 0 589 82 1 586 0 82 1 589 0
 79 18 588 BTI/SweptFaceIndex82 3 431 14 2 2 82 3 426 14 0 2 81 1 293 1156 30 28
7 0 0 310 418 590 82 3 421 15 0 2 82 3 590 15 23 1 79 15 420 SDL/TYSA_COLOUR83 3
 417 .603921568627451 .647058823529412 .686274509803922 83 3 414 .60392156862745
1 .647058823529412 .686274509803922 83 3 411 .603921568627451 .647058823529412 .
686274509803922 17 357 0 356 84 96 97 301 298 0 0 -15 291 10 0 286 195 0 81 1 35
1 1140 30 358 0 0 349 381 591 81 1 343 1142 30 49 0 0 381 374 592 82 3 382 15 8
 1 81 1 374 1143 30 372 0 0 343 363 593 82 3 592 15 9 1 81 1 363 1144 30 360 0 0
 374 341 594 82 3 593 15 10 1 81 1 341 1145 30 38 0 0 363 338 595 82 3 594 15 11
 1 82 3 595 15 12 1 82 3 591 15 7 1 81 1 24 1147 30 11 0 0 338 359 596 81 1 300
 1149 30 298 0 0 359 318 597 82 3 362 15 15 1 82 3 597 15 16 1 82 3 596 15 14 1
 17 25 0 210 353 311 42 317 11 0 36 +17 317 0 335 73 37 63 25 11 0 0 -82 3 352 1
5 6 1 82 3 342 15 13 1 81 1 307 1151 30 306 0 0 318 329 598 81 1 304 1153 30 302
 0 0 329 313 599 82 3 330 15 19 1 81 1 313 1154 30 320 0 0 304 310 600 82 3 599
 15 20 1 82 3 600 15 21 1 82 3 598 15 18 1 82 3 322 15 17 1 82 3 314 15 22 1 17
 292 0 206 292 292 0 286 280 0 0 -15 206 145 0 292 199 487 82 3 290 6 13 1 82 3
 283 8 0 1 141 275 175 275 275 181 40 9 276 0 1 9 .000453437784735337 .337637491
715232 ??.00549343875905449 .00395313380393922 .011 .00670196776937783 .00203420
605345278 .011 .00721518873237033 -.0001924508970521045 .011 .00700259218882612
 -.002486291760824755 .011 .00598302401018845 -.00480172477564038 .011 .00425619
319149766 -.00664784144693927 .011 .002029361535455755 -.00784449854377708 .011
 -.000665713127024312 -.00831448432407704 .011 -.00255000000000014 -.00810848321
2044 .011 41 1 277 L?.00549343875905449 .00395313380393922 .011 41 1 278 L?-.002
55000000000014 -.008108483212044 .011 141 265 264 265 265 255 134 266 0 0 0 0 0
 0 +601 602 136 601 1 2 2 2 5 FFF1 603 604 605 135 602 2 0 45 4 603 1 .880074178
89727 0 .88007417889727 127 2 604 2 2 128 2 605 0 1 141 252 502 606 607 246 126
 253 FF1 2 2 61 1 1 2 31 TFF12 4 608 609 610 611 612 125 254 0 1 0 1 0 1 0 1 2 B
BBBBBBBH???613 0 0 0 163 613 0 0 .011 0 0 -1 +0 5 .0025 ?1e-5 45 488 608 -.0085
 0 .013 1 -.00736121593216773 .00425 .01107790829007594 .866025403784439 -.00425
 .00736121593216773 .01258333333333334 1 -520474889637625e-33 .0085 .01071706437
183242 .866025403784439 .00425 .00736121593216773 .01216666666666666 1 .00736121
593216773 .00425 .01035622045358892 .866025403784439 .0085 104094977927525e-32 .
01175 1 .00736121593216773 -.00425 .0099953765353454 .866025403784439 .00425 -.0
0736121593216773 .01133333333333334 1 1561424668912875e-33 -.0085 .0096345326171
0188 .866025403784439 -.00425 -.00736121593216774 .01091666666666666 1 -.0073612
1593216773 -.00425 .00927368869885837 .866025403784439 -.0085 0 .0105 1 -.007361
21593216773 .00425 .00891284478061485 .866025403784439 -.00425 .0073612159321677
3 .01008333333333334 1 -520474889637625e-33 .0085 .00855200086237134 .8660254037
84439 .00425 .00736121593216773 .00966666666666667 1 .00736121593216773 .00425 .
00819115694412782 .866025403784439 .0085 104094977927525e-32 .00925 1 .007361215
93216773 -.00425 .0078303130258843 .866025403784439 .00425 -.00736121593216773 .
00883333333333334 1 1561424668912875e-33 -.0085 .00746946910764079 .866025403784
439 -.00425 -.00736121593216774 .00841666666666667 1 -.00736121593216773 -.00425
 .00710862518939727 .866025403784439 -.0085 0 .008 1 -.00736121593216773 .00425
 .00674778127115375 .866025403784439 -.00425 .00736121593216773 .007583333333333
34 1 -520474889637625e-33 .0085 .00638693735291024 .866025403784439 .00425 .0073
6121593216773 .00716666666666667 1 .00736121593216773 .00425 .00602609343466672
 .866025403784439 .0085 104094977927525e-32 .00675 1 .00736121593216773 -.00425
 .00566524951642321 .866025403784439 .00425 -.00736121593216773 .006333333333333
34 1 1561424668912875e-33 -.0085 .00530440559817969 .866025403784439 -.00425 -.0
0736121593216774 .00591666666666667 1 -.00736121593216773 -.00425 .0049435616799
3617 .866025403784439 -.0085 0 .0055 1 -.00736121593216773 .00425 .0045827177616
9266 .866025403784439 -.00425 .00736121593216773 .00508333333333334 1 -520474889
637625e-33 .0085 .00422187384344914 .866025403784439 .00425 .00736121593216773 .
00466666666666667 1 .00736121593216773 .00425 .003861029925205625 .8660254037844
39 .0085 104094977927525e-32 .00425 1 .00736121593216773 -.00425 .00350018600696
211 .866025403784439 .00425 -.00736121593216773 .003833333333333335 1 1561424668
912875e-33 -.0085 .00313934208871859 .866025403784439 -.00425 -.0073612159321677
4 .00341666666666667 1 -.00736121593216773 -.00425 .002778498170475075 .86602540
3784439 -.0085 0 .003 1 -.00736121593216773 .00425 .00241765425223156 .866025403
784439 -.00425 .00736121593216773 .002583333333333335 1 -520474889637625e-33 .00
85 .002056810333988045 .866025403784439 .00425 .00736121593216773 .0021666666666
6667 1 .00736121593216773 .00425 .00169596641574453 .866025403784439 .0085 10409
4977927525e-32 .00175 1 .00736121593216773 -.00425 .00133512249750101 .866025403
784439 .00425 -.00736121593216773 .001333333333333336 1 1561424668912875e-33 -.0
085 .000974278579257496 .866025403784439 -.00425 -.00736121593216774 .0009166666
66666668 1 -.00736121593216773 -.00425 .000613434661013979 .866025403784439 -.00
85 0 5e-4 1 -.00676794919243113 0 .012 1 -.00586121593216773 .003383974596215565
 .0102118828862915 .866025403784439 -.003383974596215565 .00586121593216773 .011
58333333333332 1 -4144173657651345e-34 .00676794919243113 .00985103896804799 .86
6025403784439 .00338397459621556 .00586121593216773 .01116666666666666 1 .005861
21593216773 .003383974596215565 .00949019504980447 .866025403784439 .00676794919
243113 828834731530269e-33 .01075 1 .00586121593216773 -.00338397459621556 .0091
2935113156096 .866025403784439 .003383974596215565 -.00586121593216773 .01033333
333333332 1 1243252097295404e-33 -.00676794919243113 .00876850721331744 .8660254
03784439 -.00338397459621556 -.00586121593216773 .00991666666666667 1 -.00586121
593216773 -.003383974596215565 .00840766329507393 .866025403784439 -.00676794919
243113 0 .0095 1 -.00586121593216773 .003383974596215565 .00804681937683041 .866
025403784439 -.003383974596215565 .00586121593216773 .00908333333333333 1 -41441
73657651345e-34 .00676794919243113 .00768597545858689 .866025403784439 .00338397
459621556 .00586121593216773 .00866666666666667 1 .00586121593216773 .0033839745
96215565 .00732513154034338 .866025403784439 .00676794919243113 828834731530269e
-33 .00825 1 .00586121593216773 -.00338397459621556 .00696428762209986 .86602540
3784439 .003383974596215565 -.00586121593216773 .00783333333333333 1 12432520972
95404e-33 -.00676794919243113 .00660344370385634 .866025403784439 -.003383974596
21556 -.00586121593216773 .00741666666666667 1 -.00586121593216773 -.00338397459
6215565 .00624259978561283 .866025403784439 -.00676794919243113 0 .007 1 -.00586
121593216773 .003383974596215565 .00588175586736931 .866025403784439 -.003383974
596215565 .00586121593216773 .00658333333333333 1 -4144173657651345e-34 .0067679
4919243113 .0055209119491258 .866025403784439 .00338397459621556 .00586121593216
773 .00616666666666667 1 .00586121593216773 .003383974596215565 .005160068030882
28 .866025403784439 .00676794919243113 828834731530269e-33 .00575 1 .00586121593
216773 -.00338397459621556 .00479922411263876 .866025403784439 .0033839745962155
65 -.00586121593216773 .00533333333333333 1 1243252097295404e-33 -.0067679491924
3113 .004438380194395245 .866025403784439 -.00338397459621556 -.0058612159321677
3 .00491666666666667 1 -.00586121593216773 -.003383974596215565 .004077536276151
73 .866025403784439 -.00676794919243113 0 .0045 1 -.00586121593216773 .003383974
596215565 .003716692357908215 .866025403784439 -.003383974596215565 .00586121593
216773 .00408333333333333 1 -4144173657651345e-34 .00676794919243113 .0033558484
396647 .866025403784439 .00338397459621556 .00586121593216773 .00366666666666666
5 1 .00586121593216773 .003383974596215565 .00299500452142118 .866025403784439 .
00676794919243113 828834731530269e-33 .00325 1 .00586121593216773 -.003383974596
21556 .002634160603177665 .866025403784439 .003383974596215565 -.005861215932167
73 .00283333333333333 1 1243252097295404e-33 -.00676794919243113 .00227331668493
415 .866025403784439 -.00338397459621556 -.00586121593216773 .002416666666666665
 1 -.00586121593216773 -.003383974596215565 .001912472766690635 .866025403784439
 -.00676794919243113 0 .002 1 -.00586121593216773 .003383974596215565 .001551628
84844712 .866025403784439 -.003383974596215565 .00586121593216773 .0015833333333
3333 1 -4144173657651345e-34 .00676794919243113 .0011907849302036 .8660254037844
39 .00338397459621556 .00586121593216773 .001166666666666664 1 .0058612159321677
3 .003383974596215565 .000829941011960086 .866025403784439 .00676794919243113 82
8834731530269e-33 75e-5 1 .00586121593216773 -.00338397459621556 .00046909709371
6569 .866025403784439 .003383974596215565 -.00586121593216773 .00033333333333333
15 1 1243252097295404e-33 -.00676794919243113 .0001082531754730534 .866025403784
439 -.00338397459621556 -.00586121593216773 -833333333333363e-19 1 -.00586121593
216773 -.003383974596215565 -.0002525907427704635 .866025403784439 -.00676794919
243113 0 -5e-4 1 127 2 609 2 2 127 31 610 3 2 2 2 2 2 2 2 2 2 2 2 2 2 2 2 2 2 2
 2 2 2 2 2 2 2 2 2 2 2 3 128 2 611 0 1 128 31 612 0 .03333333333333335 .06666666
66666667 .1 .1333333333333332 .1666666666666665 .2 .2333333333333335 .2666666666
666665 .3 .3333333333333335 .3666666666666665 .4 .4333333333333335 .466666666666
667 .5 .533333333333333 .566666666666667 .6 .633333333333333 .666666666666667 .7
 .733333333333333 .766666666666667 .8 .833333333333333 .866666666666667 .9 .9333
33333333333 .966666666666667 1 141 606 501 607 252 246 141 607 181 252 606 246 1
41 244 243 244 244 235 141 231 229 231 231 227 134 232 0 0 0 0 0 0 +614 615 136
 614 2 35 2 18 5 FFF1 616 617 618 135 615 1 0 45 70 616 1.266103672779534 .00100
0000000000012 1.15759956904113 .000972658176581423 1.032030124248924 .0009436839
34911227 .925225390662929 .000919039514705639 .795791407231252 .0008861075173438
25 .707449056171325 .000863630498597217 .558194017597074 .000824227463571664 .38
2867031301924 .000777941485906156 .319437658177843 .000761534214265676 .13735375
35713062 .000714434583020787 0 .000683012701892572 -.1395662630749256 .000651084
673616498 -.326291571977155 .000602717044047772 -.491121257247841 .0005600210581
31493 -.655950942189982 .000516075012950425 -.768060022481497 .00048618506497516
6 -.904947921040447 .000452622890321315 -.970124060752465 .0004366430045366225 -
1.029831374330184 .0004228491249557015 -1.112470930075998 .0004037573251028285 -
1.1558985163209 .00039325894827974 -1.264149237076802 .0003670899401415125 -1.40
8128899693914 .0003295589191408355 -1.535241214584375 .0002964246912027875 -1.66
2353529300155 .0002626269631274375 -1.79090469535847 .0002284466607395635 -1.919
497184578535 .0001965224848127485 -1.9872758413659 .000179695858495094 -2.048708
046257935 .0001652863620171235 -2.113791053733095 .0001500205357516135 -2.178874
06124835 .0001349265941283112 -2.262765728969035 .000115470579669227 -2.43999510
4332945 693940584816834e-19 -2.446139809201565 677965432645315e-19 -2.7037395570
6372 -882974249272195e-30 127 18 617 3 2 2 2 2 2 2 2 2 2 2 2 2 2 2 2 2 3 128 18
 618 0 .0625 .125 .1875 .25 .332670211791992 .416335105895996 .5 .5625 .59375 .6
25 .6875 .75 .8125 .84375 .875 .9375 1 15 202 247 0 168 198 356 17 168 0 202 168
 168 126 160 169 0 0 -141 194 181 619 619 182 141 619 267 194 194 182 141 174 17
3 174 174 171 82 3 133 13 3 0 81 1 31 1128 30 78 0 0 76 27 620 81 1 76 1127 30 7
4 0 0 44 31 621 82 3 620 15 11 0 81 1 44 1126 30 56 0 0 40 76 622 82 3 621 15 10
 0 82 3 622 15 9 0 82 3 45 15 8 0 82 3 33 15 12 0 19 18 167 0 1 0 10 6 S0 74 4 C
I16 index_map_offset0 0 1 dCCZ20 16 5 0 0 445 429 14 2 407 0 0 0 0 0 0 0 0 0 0 0
 0 0 0 0 80 1 13 623 624 8017 0 0 0 0 0 0 0 0 0 TTTTTTTTTTTTTF3 84 255 6 15 Part
 179 13 624 SDL/TYSA_NAME1 0 
