**ABCDEFGHIJKLMNOPQRSTUVWXYZabcdefghijklmnopqrstuvwxyz**************************
**PARASOLID !"#$%&'()*+,-./:;<=>?@[\]^_`{|}~0123456789**************************
**PART1;
MC=unknown;
MC_MODEL=unknown;
MC_ID=unknown;
OS=unknown;
OS_RELEASE=unknown;
FRU=Parasolid 28.1.228;
APPL=Onshape;
SITE=unknown;
USER=unknown;
FORMAT=text;
GUISE=transmit;
KEY=BTGapi::writeModels_.xmt;
FILE=BTGapi::writeModels_.xmt;
DATE=2016-04-23T18:20:27 (UTC);
**PART2;
SCH=SCH_2801228_28101;
USFLD_SIZE=0;
**PART3;
**END_OF_HEADER*****************************************************************
T51 : TRANSMIT FILE created by modeller version 280122823 SCH_2801228_28101_1300
6203 0 12 33 CCCCCCI4 mesh1006 0 I8 polyline1008 0 CCCCCCCDI5 owner1040 0 CCCCCC
I13 boundary_mesh1006 0 I17 boundary_polyline1008 0 CCCA16 index_map_offset0 0 1
 dA9 index_map82 0 A17 node_id_index_map82 0 A20 schema_embedding_map82 0 A5 chi
ld12 0 A14 lowest_node_id0 0 1 dZ1 929 2 3 0 0 0 0 0 0 1e3 1e-8 0 4 5 1 0 1 1 6
 7 8 9 0 0 10 11 12 0 0 0 0 0 0 81 255 1 2 915 13 1 14 0 0 0 15 70 11 CI9 list_t
ype0 0 1 uI10 notransmit0 0 1 lCCCDCCDI12 finger_index0 0 1 dI12 finger_block101
2 0 CZ3 0 4 T1 0 0 4 20 1 16 16 13 255 6 239 0 1 0 17 0 0 18 0 50 255 7 232 0 17
 19 0 0 +-.0105320903285774 .01129778857353234 .015 0 1 0 0 0 1 30 255 8 238 0 1
1 20 0 0 +-.01211103772744536 .01129778857353234 .015 0 0 -1 29 255 9 203 0 21 2
2 0 .00788896227255464 -.00520221142646766 0 19 8 CCCCCCCA5 owner12 0 Z10 92 0 1
 18 0 23 V0 16 255 11 214 24 ?25 0 26 8 0 0 1 18 255 12 86 27 28 0 29 30 ?1 81 1
 27 271 31 12 0 0 32 33 34 17 255 28 0 35 36 37 12 38 39 0 40 +18 29 81 41 37 12
 42 43 ?1 29 30 88 0 12 43 44 .00788896227255464 -.00520221142646766 .015 29 43
 83 0 29 45 30 .00788896227255464 -.00870221142646765 .015 29 44 208 0 46 30 47
 -.01211103772744536 .01129778857353234 0 18 46 192 48 25 49 0 44 ?1 29 47 207 0
 49 44 50 -.00861103772744536 -.00520221142646766 0 18 49 188 33 51 52 46 47 ?1
 29 50 206 0 52 47 53 -.00861103772744536 .01129778857353234 0 18 52 184 54 55 5
6 49 50 ?1 29 53 205 0 56 50 22 -.01211103772744536 -.00870221142646765 0 18 56
 180 57 58 59 52 53 ?1 29 22 204 0 59 53 9 .00788896227255464 -.0087022114264676
5 0 18 59 176 60 61 21 56 22 ?1 81 1 60 268 31 59 0 0 62 41 63 17 61 0 64 65 66
 59 67 68 0 69 +18 21 172 32 70 71 59 9 ?1 81 1 32 270 31 21 0 0 41 27 72 17 70
 0 73 74 75 21 40 76 0 77 +18 71 51 78 79 80 21 81 ?1 81 1 78 263 31 71 0 0 48 5
4 82 17 79 0 83 84 85 71 25 11 0 86 -18 80 61 87 88 89 71 90 ?1 29 81 53 0 71 0
 90 -.01211103772744536 .01129778857353234 .015 29 90 63 0 80 81 91 -.0086110377
2744536 -.00520221142646766 .015 29 91 68 0 89 90 45 -.00861103772744536 .011297
78857353234 .015 18 89 66 92 93 42 80 91 ?1 29 45 73 0 42 91 43 -.01211103772744
536 -.00870221142646765 .015 18 42 71 62 94 29 89 45 ?1 81 1 62 267 31 42 0 0 57
 60 95 17 94 0 35 37 96 42 86 97 0 98 +15 255 35 5 0 96 99 0 17 37 0 35 28 94 29
 100 101 0 65 +17 96 0 35 94 102 71 84 103 0 0 -17 86 0 104 25 98 71 94 97 0 96
 -16 97 18 105 ?94 106 103 107 0 0 1 17 98 0 104 86 58 42 66 26 0 100 -15 104 22
3 0 58 108 0 17 58 0 104 98 25 56 109 110 0 66 +17 66 0 64 61 100 56 98 26 0 67
 +16 26 211 111 ?66 11 112 113 0 0 1 17 100 0 64 66 65 42 37 101 0 0 -15 64 219
 0 61 114 0 17 65 0 64 100 61 29 69 112 0 38 -16 101 37 115 ?37 116 106 117 0 0
 1 81 1 115 287 31 101 0 0 118 119 120 16 116 41 121 ?75 39 101 122 0 0 1 16 106
 26 123 ?124 101 97 125 0 0 1 30 117 38 0 101 125 126 0 +-.002111037727445365 -.
00870221142646765 .015 1 0 0 30 125 27 0 106 122 117 0 +-.00861103772744536 6971
83422744274e-19 .015 612323399573677e-31 -1 0 30 126 48 0 39 117 127 0 +.0078889
6227255464 -.00747414119520973 .015 0 1 0 16 39 47 128 ?28 129 116 126 0 0 1 30
 127 202 0 130 126 131 0 +-.0105320903285774 .01129778857353234 0 1 0 0 16 130 1
68 132 ?133 110 134 127 0 0 1 30 131 201 0 110 127 135 0 +-.01211103772744536 69
7183422744274e-19 0 0 -1 0 16 110 162 136 ?58 137 130 131 0 0 1 30 135 200 0 138
 131 139 0 +-.002111037727445365 -.00520221142646766 0 1 0 0 16 138 148 119 ?140
 141 68 135 0 0 1 30 139 199 0 137 135 142 0 +-.00861103772744536 69718342274427
4e-19 0 612323399573677e-31 -1 0 16 137 158 143 ?144 68 110 139 0 0 1 30 142 198
 0 68 139 145 0 +-.002111037727445365 -.00870221142646765 0 1 0 0 16 68 152 118
 ?61 138 137 142 0 0 1 30 145 197 0 141 142 146 0 +.00788896227255464 -.00747414
119520973 0 0 1 0 16 141 144 147 ?77 103 138 145 0 0 1 30 146 233 0 76 145 148 0
 +.00788896227255464 -.00520221142646766 .015 0 0 -1 16 76 209 149 ?70 112 150 1
46 0 0 1 30 148 234 0 112 146 113 0 +.00788896227255464 -.00870221142646765 .015
 0 0 -1 16 112 210 151 ?69 26 76 148 0 0 1 30 113 235 0 26 148 152 0 +-.01211103
772744536 -.00870221142646765 .015 0 0 -1 30 152 236 0 129 113 20 0 +-.008611037
72744536 .01129778857353234 .015 0 0 -1 16 129 212 153 ?55 150 39 152 0 0 1 30 2
0 237 0 150 152 8 0 +-.00861103772744536 -.00520221142646766 .015 0 0 -1 16 150
 213 154 ?51 76 129 20 0 0 1 81 1 154 279 31 150 0 0 149 132 155 17 51 0 156 157
 124 49 88 150 0 74 +15 156 221 0 157 158 0 17 157 0 156 93 51 52 144 137 0 133
 -17 124 0 156 51 93 80 102 106 0 0 +17 88 0 73 75 74 80 51 150 0 36 -17 74 0 73
 88 70 49 140 138 0 144 -15 73 217 0 74 159 0 17 140 0 160 161 144 21 74 138 0 0
 +17 144 0 160 140 133 49 157 137 0 0 +15 160 143 0 133 162 0 17 133 0 160 144 1
09 52 85 130 0 0 +17 109 0 160 133 67 46 58 110 0 85 -17 85 0 83 79 55 46 133 13
0 0 0 -15 83 225 0 85 17 0 17 55 0 83 85 84 52 93 129 0 157 +17 84 0 83 55 79 89
 96 103 0 0 +17 93 0 156 124 157 89 55 129 0 102 -17 102 0 35 96 36 89 124 106 0
 84 -17 36 0 35 102 28 80 75 116 0 124 -17 75 0 73 70 88 12 36 116 0 0 +16 103 1
4 163 ?84 97 141 164 0 0 1 81 1 163 281 31 103 0 0 132 136 165 30 164 15 0 103 1
66 107 0 +-.0105320903285774 .01129778857353234 .015 1 0 0 31 255 166 484 0 134
 167 164 0 --.01211103772743626 .003047788573532345 .0075 1 0 0 0 0 -1 .00165 30
 107 19 0 97 164 122 0 +-.01211103772744536 697183422744274e-19 .015 0 -1 0 30 1
22 23 0 116 107 125 0 +-.002111037727445365 -.00520221142646766 .015 1 0 0 16 13
4 451 168 ?169 130 170 166 0 0 1 31 167 609 0 171 172 166 0 +-.00861103772744536
 .003047788573532345 .0075 1 612323399573677e-31 0 -612323399573677e-31 1 0 .002
75 16 171 573 173 ?174 175 176 167 0 0 1 31 172 611 0 170 177 167 0 +-.009611037
72744536 .003047788573532345 .0075 1 612323399573677e-31 0 -612323399573677e-31
 1 0 .00275 16 170 563 178 ?179 134 175 172 0 0 1 31 177 612 0 175 180 172 0 +-.
00961103772744536 .003047788573532345 .0075 1 612323399573677e-31 0 -61232339957
3677e-31 1 0 .00165 16 175 567 181 ?182 170 171 177 0 0 1 31 180 768 0 176 183 1
77 0 --.0003610377274453625 -.00870221142645278 .0075 0 1 0 0 0 1 .00165 16 176
 735 184 ?185 171 186 180 0 0 1 31 183 900 0 187 188 180 0 +-.000361037727445362
5 -.00520221142646766 .0075 0 1 0 -1 0 0 .00275 16 187 864 189 ?190 191 0 183 0
 0 1 31 188 902 0 186 192 183 0 +-.0003610377274453625 -.00620221142646766 .0075
 0 1 0 -1 0 0 .00275 16 186 854 193 ?194 176 191 188 0 0 1 31 192 903 0 191 0 18
8 0 +-.0003610377274453625 -.00620221142646766 .0075 0 1 0 -1 0 0 .00165 16 191
 858 195 ?196 186 187 192 0 0 1 81 1 195 909 31 191 0 0 193 197 198 17 196 0 199
 196 196 0 200 191 0 0 +15 199 828 0 196 201 202 17 200 0 203 200 200 0 196 191
 0 0 -15 203 886 0 200 204 205 14 255 204 882 206 ?0 207 203 6 208 +0 0 0 207 23
 15 205 887 0 194 204 0 17 194 0 205 194 194 0 209 186 0 0 +17 209 0 210 209 209
 0 194 186 0 0 -15 210 880 0 209 207 211 14 207 876 212 ?204 201 210 6 213 -0 0
 204 201 23 15 211 881 0 190 207 0 17 190 0 211 190 190 0 214 187 0 0 +17 214 0
 215 214 214 0 190 187 0 0 -15 215 836 0 214 159 73 14 159 218 216 ?158 217 215
 6 218 +0 0 158 217 23 81 1 216 920 219 159 220 0 221 222 223 14 158 222 222 ?99
 159 224 6 225 +0 0 99 159 23 14 217 216 221 ?159 114 226 6 227 -0 0 159 114 23
 50 218 228 0 159 227 228 0 +-.002111037727445365 -.00520221142646766 .015 0 1 0
 0 0 1 13 23 93 0 0 0 0 0 0 10 17 14 17 226 229 ?108 0 83 6 7 +0 0 108 0 23 81 1
 229 916 219 17 230 0 0 231 232 14 108 224 231 ?114 17 233 6 19 -0 0 114 17 23 8
1 1 231 917 219 108 234 0 229 235 236 14 114 220 235 ?217 108 237 6 228 -0 0 217
 108 23 15 233 441 0 238 108 104 50 19 231 0 108 225 7 0 +-.01211103772744536 69
7183422744274e-19 .015 1 0 0 0 0 -1 50 225 230 0 158 228 19 0 +-.008611037727445
36 697183422744274e-19 .015 1 612323399573677e-31 0 -612323399573677e-31 1 0 50
 228 229 0 114 218 225 0 +-.002111037727445365 -.00870221142646765 .015 0 1 0 0
 0 1 17 238 0 233 238 238 0 169 134 0 0 -17 169 0 239 169 169 0 238 134 0 0 +15
 239 472 0 169 240 0 14 240 468 241 ?242 162 243 6 244 -0 0 242 162 23 81 1 241
 924 219 240 245 0 246 247 248 14 242 585 247 ?249 240 250 6 251 -0 0 249 240 23
 14 162 130 246 ?240 99 160 6 252 -0 0 240 99 23 15 243 537 0 182 240 239 51 255
 244 481 0 240 251 253 0 +-5e2 .00304778857350173 .0075 1 612323399573677e-31 0
 .00165 -612323399573677e-31 1 0 51 251 606 0 242 254 244 0 +-.00961103772744536
 .003047788573532345 .0075 1 612323399573677e-31 0 .00275 -612323399573677e-31 1
 0 50 253 2 0 99 244 252 0 +-.00211103772744536 .001297788573532348 .015 0 0 1 1
 0 0 14 99 1 255 ?162 158 35 6 253 +0 0 162 158 23 50 252 196 0 162 253 227 0 +-
.00211103772744536 .001297788573532348 0 0 0 1 1 0 0 50 227 227 0 217 252 218 0
 +.00788896227255464 -.00747414119520973 .015 -1 0 0 0 0 1 81 1 255 922 219 99 2
56 0 222 246 257 80 255 1 219 0 258 8001 0 0 0 0 3 5 0 0 0 FFFFTFTFFFFFFF2 81 1
 256 294 31 99 0 255 259 260 261 81 1 222 921 219 158 262 0 216 255 263 81 1 246
 923 219 162 259 0 255 241 264 83 255 3 257 .603921568627451 .647058823529412 .6
86274509803922 81 1 259 293 31 162 0 246 230 256 265 83 3 264 .603921568627451 .
647058823529412 .686274509803922 80 1 31 266 267 9000 0 0 0 0 3 6 0 0 0 FFTFTFTT
FFFFFF1 81 1 230 292 31 17 0 229 128 259 268 82 255 3 265 6 1 2 81 1 128 291 31
 39 0 0 147 230 269 82 3 268 6 0 2 81 1 147 290 31 141 0 0 121 128 270 82 3 269
 6 17 1 81 1 121 289 31 116 0 0 119 147 271 82 3 270 6 16 1 81 1 119 288 31 138
 0 0 115 121 272 82 3 271 6 15 1 82 3 272 6 14 1 79 255 9 267 BTI/DetId81 1 262
 622 31 158 0 222 245 184 273 83 3 263 .603921568627451 .647058823529412 .686274
509803922 81 1 245 621 31 240 0 241 274 262 275 81 1 184 771 31 176 0 0 262 276
 277 82 3 273 14 3 2 81 1 276 774 31 114 0 235 184 189 278 82 3 277 16 0 1 81 1
 235 918 219 114 276 0 231 221 279 81 1 189 907 31 187 0 0 276 193 280 82 3 278
 16 1 2 81 1 193 908 31 186 0 0 189 195 281 82 3 280 18 0 1 82 3 281 18 1 1 81 1
 221 919 219 217 260 0 235 216 282 83 3 279 .603921568627451 .647058823529412 .6
86274509803922 81 1 260 299 31 217 0 221 256 283 284 83 3 282 .603921568627451 .
647058823529412 .686274509803922 81 1 283 300 31 1 0 14 260 168 285 82 3 284 6 7
 2 81 1 14 914 286 1 283 2 0 0 287 81 1 168 487 31 134 0 0 283 234 288 82 3 285
 6 0 3 81 1 234 490 31 108 0 231 168 173 289 82 3 288 12 0 1 81 1 173 616 31 171
 0 0 234 178 290 82 3 289 12 1 2 81 1 178 617 31 170 0 0 173 181 291 82 3 290 14
 0 1 81 1 181 618 31 175 0 0 178 292 293 82 3 291 14 1 1 81 1 292 619 31 242 0 2
47 181 274 294 82 3 293 14 2 1 81 1 247 925 219 242 292 0 241 295 296 81 1 274 6
20 31 249 0 295 292 245 297 82 3 294 14 0 2 14 249 591 295 ?201 242 298 6 254 +0
 0 201 242 23 81 1 295 926 219 249 274 0 247 299 300 82 3 297 14 1 2 81 1 299 92
7 219 201 301 0 295 212 302 83 3 300 .603921568627451 .647058823529412 .68627450
9803922 14 201 752 299 ?207 249 199 6 303 -0 0 207 249 23 81 1 301 912 31 201 0
 299 304 220 305 81 1 212 928 219 207 197 0 299 206 306 83 3 302 .60392156862745
1 .647058823529412 .686274509803922 81 1 197 910 31 207 0 212 195 304 307 81 1 2
06 929 219 204 304 0 212 0 308 83 3 306 .603921568627451 .647058823529412 .68627
4509803922 81 1 304 911 31 204 0 206 197 301 309 83 3 308 .603921568627451 .6470
58823529412 .686274509803922 82 3 309 18 1 2 82 3 307 18 0 2 81 1 220 913 31 159
 0 216 301 0 310 82 3 305 18 2 2 82 3 310 18 3 2 51 303 765 0 201 213 254 0 +-.0
003610377274453625 -5e2 .0075 0 1 0 .00165 0 0 1 51 213 897 0 207 208 303 0 +-.0
003610377274453625 -.00620221142646766 .0075 0 1 0 .00275 0 0 1 50 254 608 0 249
 303 251 0 +-.00961103772744536 .003047788573532345 .0075 1 612323399573677e-31
 0 -612323399573677e-31 1 0 50 208 899 0 204 0 213 0 +-.0003610377274453625 -.00
620221142646766 .0075 0 1 0 -1 0 0 15 298 595 0 311 249 312 17 311 0 298 311 311
 0 182 175 0 0 -15 312 596 0 179 249 0 17 179 0 312 179 179 0 313 170 0 0 +17 31
3 0 250 313 313 0 179 170 0 0 -15 250 589 0 313 242 314 15 314 590 0 174 242 0 1
7 174 0 314 174 174 0 315 171 0 0 +17 315 0 224 315 315 0 174 171 0 0 -15 224 54
5 0 315 158 156 17 182 0 243 182 182 0 311 175 0 0 +83 3 296 .603921568627451 .6
47058823529412 .686274509803922 80 1 286 13 316 8038 0 0 0 0 0 0 0 0 0 TTTTTTTTT
TTTTF10 98 255 6 287 80 97 114 116 32 49 79 14 316 SDL/TYSA_UNAME82 3 275 14 2 2
 82 3 261 6 2 2 79 15 258 SDL/TYSA_COLOUR83 3 248 .603921568627451 .647058823529
412 .686274509803922 15 237 725 0 317 114 64 17 317 0 237 317 317 0 185 176 0 0
 -17 185 0 202 185 185 0 317 176 0 0 +15 202 756 0 185 201 0 83 3 236 .603921568
627451 .647058823529412 .686274509803922 83 3 232 .603921568627451 .647058823529
412 .686274509803922 15 226 215 0 77 217 0 17 77 0 226 40 69 21 161 141 0 140 +1
7 40 0 226 38 77 12 70 76 0 75 -17 69 0 226 77 38 59 65 112 0 161 +17 161 0 160
 67 140 59 77 141 0 0 -17 67 0 160 109 161 56 61 68 0 0 -17 38 0 226 69 40 29 28
 39 0 0 -83 3 223 .603921568627451 .647058823529412 .686274509803922 82 3 198 18
 2 1 81 1 132 280 31 130 0 0 154 163 318 81 1 136 282 31 110 0 0 163 105 319 82
 3 165 6 7 1 81 1 105 283 31 97 0 0 136 143 320 82 3 319 6 8 1 81 1 143 284 31 1
37 0 0 105 123 321 82 3 320 6 9 1 81 1 123 285 31 106 0 0 143 118 322 82 3 321 6
 10 1 81 1 118 286 31 68 0 0 123 115 323 82 3 322 6 11 1 82 3 323 6 12 1 82 3 31
8 6 6 1 81 1 149 278 31 76 0 0 151 154 324 82 3 155 6 5 1 81 1 151 277 31 112 0
 0 111 149 325 82 3 324 6 4 1 81 1 111 276 31 26 0 0 153 151 326 82 3 325 6 3 1
 81 1 153 275 31 129 0 0 24 111 327 82 3 326 6 2 1 81 1 24 274 31 11 0 0 87 153
 328 82 3 327 6 1 1 81 1 87 273 31 80 0 0 33 24 329 82 3 328 6 0 1 81 1 33 272 3
1 49 0 0 27 87 330 82 3 329 6 11 0 82 3 330 6 10 0 82 3 120 6 13 1 17 25 0 104 5
8 86 46 79 11 0 109 +81 1 57 266 31 56 0 0 92 62 331 82 3 95 6 5 0 81 1 92 265 3
1 89 0 0 54 57 332 82 3 331 6 4 0 81 1 54 264 31 52 0 0 78 92 333 82 3 332 6 3 0
 82 3 333 6 2 0 81 1 48 262 31 46 0 0 0 78 334 82 3 82 6 1 0 82 3 334 6 0 0 81 1
 41 269 31 29 0 0 60 32 335 82 3 72 6 8 0 82 3 335 6 7 0 82 3 63 6 6 0 82 3 34 6
 9 0 19 18 240 0 1 0 10 6 S0 74 4 CI16 index_map_offset0 0 1 dCCZ20 16 4 0 0 220
 14 2 206 0 0 0 0 0 0 0 0 0 0 0 0 0 0 0 0 80 1 13 336 337 8017 0 0 0 0 0 0 0 0 0
 TTTTTTTTTTTTTF3 84 255 6 15 Part 179 13 337 SDL/TYSA_NAME1 0 
