**ABCDEFGHIJKLMNOPQRSTUVWXYZabcdefghijklmnopqrstuvwxyz**************************
**PARASOLID !"#$%&'()*+,-./:;<=>?@[\]^_`{|}~0123456789**************************
**PART1;
MC=unknown;
MC_MODEL=unknown;
MC_ID=unknown;
OS=unknown;
OS_RELEASE=unknown;
FRU=Parasolid 28.1.228;
APPL=Onshape;
SITE=unknown;
USER=unknown;
FORMAT=text;
GUISE=transmit;
KEY=BTGapi::writeModels_.xmt;
FILE=BTGapi::writeModels_.xmt;
DATE=2016-04-23T17:56:20 (UTC);
**PART2;
SCH=SCH_2801228_28101;
USFLD_SIZE=0;
**PART3;
**END_OF_HEADER*****************************************************************
T51 : TRANSMIT FILE created by modeller version 280122823 SCH_2801228_28101_1300
6203 0 12 33 CCCCCCI4 mesh1006 0 I8 polyline1008 0 CCCCCCCDI5 owner1040 0 CCCCCC
I13 boundary_mesh1006 0 I17 boundary_polyline1008 0 CCCA16 index_map_offset0 0 1
 dA9 index_map82 0 A17 node_id_index_map82 0 A20 schema_embedding_map82 0 A5 chi
ld12 0 A14 lowest_node_id0 0 1 dZ1 1941 2 3 0 0 0 0 0 0 1e3 1e-8 0 4 5 1 0 1 1 6
 7 8 9 0 0 10 11 12 0 0 0 0 0 0 81 255 1 2 1920 13 1 14 0 0 0 15 70 11 CI9 list_
type0 0 1 uI10 notransmit0 0 1 lCCCDCCDI12 finger_index0 0 1 dI12 finger_block10
12 0 CZ3 0 4 T1 0 0 4 20 1 16 16 13 255 6 273 0 1 0 17 0 0 18 0 51 255 7 1882 0
 19 20 0 0 +.009 .012 .01 0 0 -1 .005 -1 0 0 30 255 8 1830 0 11 21 0 0 -.014 .01
2 .01 0 0 -1 29 255 9 1815 0 12 22 0 .014 .012 .01 19 8 CCCCCCCA5 owner12 0 Z10
 90 0 1 18 0 23 V0 16 255 11 1828 24 ?25 0 26 8 0 0 1 18 255 12 1811 27 25 0 28
 9 ?1 81 1 27 1896 29 12 0 0 30 31 32 17 255 25 0 33 34 35 12 36 11 0 37 +18 28
 1794 38 39 12 40 22 ?1 81 1 38 1894 29 28 0 0 41 30 42 17 39 0 43 44 37 28 45 4
6 0 47 +18 40 1789 48 49 28 50 51 ?1 29 22 1798 0 28 51 9 .009 .017 .01 29 51 17
93 0 40 52 22 -.009 .017 .01 29 52 1776 0 50 53 51 .014 .012 0 18 50 1772 31 54
 40 55 52 ?1 29 53 1771 0 55 56 52 .009 .017 0 18 55 1767 30 57 50 58 53 ?1 29 5
6 1766 0 58 59 53 -.009 .017 0 18 58 1762 60 61 55 62 56 ?1 29 59 1755 0 62 63 5
6 -.014 .012 .01 18 62 1751 64 65 58 66 59 ?1 29 63 1750 0 66 67 59 -.014 .012 0
 18 66 1746 41 68 62 69 63 ?1 29 67 221 0 70 71 63 .0225 -.017 0 18 70 180 72 73
 74 75 67 ?1 29 71 222 0 75 76 67 .0225 -.023 0 18 75 184 77 78 70 79 71 ?1 29 7
6 223 0 79 80 71 -.0225 -.023 0 18 79 188 81 82 75 83 76 ?1 29 80 224 0 83 84 76
 -.0225 -.017 0 18 83 192 85 86 79 87 80 ?1 29 84 226 0 87 88 80 .014 -.017 0 18
 87 200 89 90 83 91 84 ?1 29 88 227 0 91 92 84 -.014 -.017 0 18 91 204 93 94 87
 0 88 ?1 29 92 86 0 69 95 88 .0225 -.017 .01 18 69 84 96 97 66 98 92 ?1 29 95 81
 0 98 99 92 .0225 -.023 .01 18 98 79 100 101 69 102 95 ?1 29 99 76 0 102 103 95
 -.0225 -.023 .01 18 102 74 104 105 98 106 99 ?1 29 103 71 0 106 107 99 -.0225 -
.017 .01 18 106 69 108 109 102 110 103 ?1 29 107 61 0 110 111 103 .014 -.017 .01
 18 110 59 112 34 106 74 107 ?1 29 111 56 0 74 0 107 -.014 -.017 .01 18 74 54 11
3 114 110 70 111 ?1 81 1 113 307 29 74 0 0 93 89 115 17 114 0 43 116 65 74 117 1
18 0 119 +15 255 43 5 0 44 120 121 17 116 0 43 105 114 106 122 123 0 0 -17 65 0
 43 114 44 62 124 26 0 117 +17 117 0 125 126 119 62 114 118 0 127 -16 118 1752 1
28 ?114 129 130 131 0 0 1 17 119 0 125 117 94 74 132 133 0 122 -15 125 253 0 117
 134 0 17 94 0 125 119 126 91 135 136 0 132 +17 132 0 137 138 122 91 119 133 0 1
39 +16 133 235 140 ?132 141 142 143 0 0 1 17 122 0 137 132 109 74 116 123 0 0 +1
5 137 245 0 138 144 0 17 109 0 137 122 138 106 86 142 0 145 -16 123 31 146 ?122
 147 148 149 150 150 1 81 1 146 333 29 123 0 0 151 152 153 16 147 34 154 ?105 15
5 123 156 0 0 1 16 148 27 157 ?158 123 129 159 0 0 1 30 149 20 0 150 131 160 0 +
.002366025932133195 -.017 .01 1 2449293598294705e-31 0 16 150 46 161 ?162 163 16
4 149 123 123 1 81 1 161 335 29 150 0 0 152 165 166 17 162 0 167 73 168 69 169 1
50 0 0 +16 163 234 170 ?171 172 150 173 0 0 1 16 164 42 174 ?175 150 155 176 0 0
 1 81 1 174 341 29 164 0 0 177 157 178 17 175 0 179 78 97 98 180 164 0 0 +16 155
 38 181 ?101 164 147 182 0 0 1 30 176 43 0 164 182 183 0 +.0225 -.02301403898756
82 .01 612323399573677e-31 -1 0 30 182 39 0 155 156 176 0 +.0023660259321332 -.0
23 .01 1 2449293598294705e-31 0 30 183 220 0 184 176 185 0 +542101086242753e-33
 .017 0 1 0 0 16 184 1763 186 ?187 136 188 183 0 0 1 30 185 219 0 136 183 189 0
 +-.014 .00943283759813625 0 612323399573677e-31 -1 0 16 136 1747 190 ?94 191 18
4 185 0 0 1 30 189 218 0 192 185 193 0 +.002366025932133195 -.017 0 1 2449293598
294705e-31 0 16 192 144 152 ?194 130 195 189 196 196 1 30 193 217 0 191 189 197
 0 +.014 .00943283759813625 0 612323399573677e-31 -1 0 16 191 1773 198 ?90 196 1
36 193 0 0 1 30 197 215 0 199 193 200 0 +-.0225 -.0230140389875682 0 61232339957
3677e-31 -1 0 16 199 156 201 ?82 202 196 197 0 0 1 30 200 214 0 202 197 203 0 +.
0023660259321332 -.023 0 1 2449293598294705e-31 0 16 202 152 165 ?204 195 199 20
0 0 0 1 30 203 213 0 195 200 205 0 +.0225 -.0230140389875682 0 612323399573677e-
31 -1 0 16 195 148 177 ?206 192 202 203 0 0 1 30 205 265 0 172 203 207 0 +.0225
 -.017 .01 0 0 -1 16 172 229 208 ?73 209 163 205 0 0 1 30 207 266 0 209 205 210
 0 +.0225 -.023 .01 0 0 -1 16 209 230 211 ?78 212 172 207 0 0 1 30 210 267 0 212
 207 213 0 +-.0225 -.023 .01 0 0 -1 16 212 231 214 ?215 142 209 210 0 0 1 30 213
 268 0 142 210 173 0 +-.0225 -.017 .01 0 0 -1 16 142 232 216 ?86 133 212 213 0 0
 1 30 173 270 0 163 213 143 0 +.014 -.017 .01 0 0 -1 30 143 271 0 133 173 217 0
 +-.014 -.017 .01 0 0 -1 30 217 1758 0 218 143 219 0 +-.014 .012 0 0 0 -1 16 218
 1756 220 ?126 221 141 217 0 0 1 31 255 219 1779 0 221 217 222 0 -.009 .012 0 0
 0 1 1 0 0 .005 16 221 1777 223 ?54 224 218 219 0 0 1 31 222 1785 0 224 219 225
 0 --.009 .012 0 0 0 1 1 0 0 .005 16 224 1783 226 ?61 227 221 222 0 0 1 30 225 1
801 0 227 222 228 0 +.009 .017 .01 0 0 -1 16 227 1799 229 ?230 231 224 225 0 0 1
 30 228 1807 0 231 225 232 0 --.009 .017 .01 0 0 -1 16 231 1805 233 ?49 46 227 2
28 0 0 1 31 232 1818 0 46 228 21 0 +.009 .012 .01 0 0 1 1 0 0 .005 16 46 1816 23
4 ?39 26 231 232 0 0 1 31 21 1824 0 26 232 8 0 +-.009 .012 .01 0 0 1 1 0 0 .005
 16 26 1822 235 ?65 11 46 21 0 0 1 81 1 235 1899 29 26 0 0 233 220 236 80 255 1
 29 237 238 9000 0 0 0 0 3 6 0 0 0 FFTFTFTTFFFFFF1 81 1 233 1898 29 231 0 0 31 2
35 239 81 1 220 1900 29 218 0 0 235 226 240 82 255 3 236 22 1 1 81 1 226 1901 29
 224 0 0 220 229 241 82 3 240 22 2 1 81 1 229 1902 29 227 0 0 226 234 242 82 3 2
41 22 3 1 81 1 234 1903 29 46 0 0 229 24 243 82 3 242 22 4 1 81 1 24 1904 29 11
 0 0 234 223 244 82 3 243 22 5 1 81 1 223 1905 29 221 0 0 24 186 245 82 3 244 22
 6 1 81 1 186 1906 29 184 0 0 223 246 247 82 3 245 22 7 1 81 1 246 1907 29 130 0
 0 186 190 248 82 3 247 22 8 1 16 130 1790 246 ?47 118 192 249 0 0 1 81 1 190 19
08 29 136 0 0 246 128 250 82 3 248 22 9 1 81 1 128 1909 29 118 0 0 190 198 251 8
2 3 250 22 10 1 81 1 198 1910 29 191 0 0 128 252 253 82 3 251 22 11 1 81 1 252 1
911 29 129 0 0 198 254 255 82 3 253 22 12 1 16 129 1812 252 ?34 148 118 160 0 0
 1 81 1 254 1912 29 256 0 257 252 258 259 82 3 255 22 13 1 14 255 256 1849 257 ?
19 260 261 6 20 +0 0 19 260 23 81 1 257 1940 262 256 254 0 263 264 265 81 1 258
 1913 29 19 0 264 254 266 267 82 3 259 22 0 2 14 19 1870 264 ?0 256 268 6 7 +0 0
 0 256 23 81 1 264 1941 262 19 258 0 257 0 269 81 1 266 1914 29 17 0 270 258 271
 272 82 3 267 22 1 2 14 17 256 270 ?134 0 273 6 274 +0 0 134 0 23 81 1 270 1921
 262 17 266 0 0 275 276 81 1 271 1915 29 120 0 277 266 278 279 82 3 272 22 2 2 1
4 120 1 277 ?280 281 43 6 282 +0 0 280 281 23 81 1 277 1930 262 120 271 0 283 28
4 285 81 1 278 1916 29 134 0 275 271 286 287 82 3 279 22 3 2 14 134 254 275 ?144
 17 125 6 288 -0 0 144 17 23 81 1 275 1922 262 134 278 0 270 289 290 81 1 286 19
17 29 291 0 292 278 293 294 82 3 287 22 4 2 14 291 252 292 ?281 295 33 6 296 +0
 0 281 295 23 81 1 292 1928 262 291 286 0 297 283 298 81 1 293 1918 29 280 0 284
 286 0 299 82 3 294 22 5 2 14 280 129 284 ?300 120 301 6 302 -0 0 300 120 23 81
 1 284 1931 262 280 293 0 277 303 304 82 3 299 22 6 2 80 1 262 0 305 8001 0 0 0
 0 3 5 0 0 0 FFFFTFTFFFFFFF2 81 1 303 1932 262 300 306 0 284 307 308 83 255 3 30
4 .603921568627451 .647058823529412 .686274509803922 14 300 445 303 ?309 280 310
 6 311 +0 0 309 280 23 81 1 306 448 29 300 0 303 312 313 314 81 1 307 1933 262 3
09 313 0 303 315 316 83 3 308 .603921568627451 .647058823529412 .686274509803922
 14 309 457 307 ?317 300 318 6 319 +0 0 317 300 23 81 1 313 460 29 309 0 307 306
 320 321 81 1 315 1934 262 317 322 0 307 323 324 83 3 316 .603921568627451 .6470
58823529412 .686274509803922 14 317 689 315 ?325 309 326 6 327 -0 0 325 309 23 8
1 1 322 861 29 317 0 315 328 329 330 81 1 323 1935 262 325 328 0 315 331 332 83
 3 324 .603921568627451 .647058823529412 .686274509803922 14 325 825 323 ?333 31
7 334 6 335 -0 0 333 317 23 81 1 328 860 29 325 0 323 336 322 337 81 1 331 1936
 262 333 336 0 323 338 339 83 3 332 .603921568627451 .647058823529412 .686274509
803922 14 333 831 331 ?340 325 341 6 342 +0 0 340 325 23 81 1 336 859 29 333 0 3
31 343 328 344 81 1 338 1937 262 340 345 0 331 346 347 83 3 339 .603921568627451
 .647058823529412 .686274509803922 14 340 1548 338 ?348 333 349 6 350 -0 0 348 3
33 23 81 1 345 1670 29 340 0 338 351 352 353 81 1 346 1938 262 348 351 0 338 263
 354 83 3 347 .603921568627451 .647058823529412 .686274509803922 14 348 1554 346
 ?260 340 355 6 356 -0 0 260 340 23 81 1 351 1669 29 348 0 346 357 345 358 81 1
 263 1939 262 260 357 0 346 257 359 83 3 354 .603921568627451 .647058823529412 .
686274509803922 14 260 1560 263 ?256 348 360 6 361 +0 0 256 348 23 81 1 357 1668
 29 260 0 263 362 351 363 83 3 359 .603921568627451 .647058823529412 .6862745098
03922 81 1 362 1667 29 364 0 0 365 357 366 82 3 363 21 0 2 16 364 1412 362 ?367
 368 369 370 0 0 1 81 1 365 1666 29 371 0 0 372 362 373 82 3 366 21 3 1 16 371 1
406 365 ?374 369 0 375 0 0 1 81 1 372 1665 29 369 0 0 376 365 377 82 3 373 21 2
 1 16 369 1396 372 ?378 364 371 379 0 0 1 81 1 376 1664 29 368 0 0 329 372 380 8
2 3 377 21 1 1 16 368 1400 376 ?381 382 364 383 0 0 1 81 1 329 862 29 144 0 289
 322 376 384 82 3 380 21 0 1 14 144 246 289 ?385 134 386 6 387 +295 295 385 134
 23 81 1 289 1923 262 144 329 0 275 388 389 82 3 384 14 3 2 81 1 388 1924 262 38
5 390 0 289 391 392 83 3 389 .603921568627451 .647058823529412 .686274509803922
 14 385 244 388 ?393 144 394 6 395 -0 0 393 144 23 81 1 390 352 29 385 0 388 157
 396 397 81 1 391 1925 262 393 398 0 388 399 400 83 3 392 .603921568627451 .6470
58823529412 .686274509803922 14 393 242 391 ?401 385 402 6 403 -0 0 401 385 23 8
1 1 398 1672 29 393 0 391 352 48 404 81 1 399 1926 262 401 396 0 391 297 405 83
 3 400 .603921568627451 .647058823529412 .686274509803922 14 401 240 399 ?295 39
3 179 6 406 +0 0 295 393 23 81 1 396 353 29 401 0 399 390 407 408 81 1 297 1927
 262 295 352 0 399 292 409 83 3 405 .603921568627451 .647058823529412 .686274509
803922 14 295 238 297 ?291 401 410 6 387 +144 144 291 401 23 81 1 352 1671 29 29
5 0 297 345 398 411 83 3 409 .603921568627451 .647058823529412 .686274509803922
 82 3 411 21 3 2 15 410 1041 0 374 295 167 50 255 387 257 0 295 302 406 0 +.0023
66025932133195 -.017 .01 -2449293598294705e-31 1 0 -1 -2449293598294705e-31 0 13
 23 91 0 0 0 0 0 0 10 17 50 302 212 0 280 282 387 0 +0 -.003 0 0 0 1 1 0 0 50 40
6 258 0 401 387 403 0 +.0225 -.0230140389875682 .01 1 612323399573677e-31 0 -612
323399573677e-31 1 0 50 403 259 0 393 406 395 0 +.0023660259321332 -.023 .01 -24
49293598294705e-31 1 0 -1 -2449293598294705e-31 0 50 395 260 0 385 403 412 0 +-.
0225 -.0230140389875682 .01 1 612323399573677e-31 0 -612323399573677e-31 1 0 51
 412 261 0 281 395 296 0 -0 35e-5 .01 0 0 -1 .01115 -1 0 0 14 281 248 283 ?120 2
91 413 6 412 +0 0 120 291 23 50 296 262 0 291 412 288 0 +.014 .00943283759813625
 .01 1 612323399573677e-31 0 -612323399573677e-31 1 0 50 288 263 0 134 296 274 0
 +-.014 .00943283759813625 .01 1 612323399573677e-31 0 -612323399573677e-31 1 0
 50 274 264 0 17 288 20 0 +542101086242753e-33 .017 .01 0 1 0 0 0 1 51 20 1861 0
 256 274 7 0 +-.009 .012 .01 0 0 1 .005 1 0 0 81 1 283 1929 262 281 414 0 292 27
7 415 15 413 414 0 416 281 417 17 416 0 413 416 416 0 418 141 0 0 -15 417 247 0
 158 281 0 17 158 0 417 158 158 0 419 148 0 0 +17 419 0 121 419 419 0 158 148 0
 0 -15 121 6 0 419 120 0 17 418 0 420 418 418 0 416 141 0 0 +16 141 412 421 ?418
 218 133 422 0 0 1 81 1 421 492 29 141 0 0 320 414 423 31 422 477 0 141 424 425
 0 +0 35e-5 .002 0 0 1 1 0 0 .01115 31 424 478 0 188 426 422 0 +0 35e-5 .002 0 0
 1 1 0 0 .006 31 425 476 0 427 422 249 0 +0 35e-5 0 0 0 1 1 0 0 .006 16 427 441
 312 ?428 188 429 425 0 0 1 30 249 12 0 130 425 131 0 +542101086242753e-33 .017
 .01 1 0 0 30 131 16 0 118 249 149 0 +-.014 .00943283759813625 .01 6123233995736
77e-31 -1 0 81 1 312 444 29 427 0 0 407 306 430 17 428 0 431 428 428 0 432 427 0
 0 +16 188 425 407 ?433 184 427 424 0 0 1 16 429 672 434 ?435 427 436 426 0 0 1
 81 1 434 708 29 429 0 0 414 437 438 17 435 0 439 435 435 0 440 429 0 0 +16 436
 803 343 ?441 429 442 443 0 0 1 31 426 705 0 429 444 424 0 --.01825 -.0230000000
0002455 .005 -2449293598294705e-31 1 0 -1 -2449293598294705e-31 0 .00165 31 444
 849 0 382 443 426 0 +-.01825 -.017 .005 -2449293598294705e-31 1 0 -1 -244929359
8294705e-31 0 .0028 16 382 813 445 ?446 442 368 444 0 0 1 31 443 851 0 436 447 4
44 0 +-.01825 -.0195 .005 -2449293598294705e-31 1 0 -1 -2449293598294705e-31 0 .
0028 31 447 852 0 442 383 443 0 +-.01825 -.0195 .005 -2449293598294705e-31 1 0 -
1 -2449293598294705e-31 0 .00165 16 442 807 437 ?448 436 382 447 0 0 1 31 383 16
29 0 368 375 447 0 -.01825 -.02300000000002455 .005 -2449293598294705e-31 -1 0 1
 -2449293598294705e-31 0 .00165 31 375 1630 0 371 370 383 0 +.01825 -.017 .005 -
2449293598294705e-31 -1 0 1 -2449293598294705e-31 0 .0028 31 370 1631 0 364 379
 375 0 +.01825 -.0195 .005 -2449293598294705e-31 -1 0 1 -2449293598294705e-31 0
 .0028 31 379 1632 0 369 0 370 0 +.01825 -.0195 .005 -2449293598294705e-31 -1 0
 1 -2449293598294705e-31 0 .00165 81 1 437 856 29 442 0 0 434 445 449 17 448 0 3
26 448 448 0 450 442 0 0 +15 326 777 0 448 317 439 17 450 0 341 450 450 0 448 44
2 0 0 -15 341 835 0 450 333 451 15 451 836 0 441 333 0 17 441 0 451 441 441 0 45
2 436 0 0 +17 452 0 334 452 452 0 441 436 0 0 -15 334 829 0 452 325 453 15 453 8
30 0 446 325 0 17 446 0 453 446 446 0 454 382 0 0 +17 454 0 386 454 454 0 446 38
2 0 0 -15 386 785 0 454 144 137 15 439 693 0 435 317 0 81 1 445 857 29 382 0 0 4
37 343 455 82 3 449 14 0 1 81 1 343 858 29 436 0 0 445 336 456 82 3 455 14 1 1 8
2 3 456 14 2 1 17 440 0 457 440 440 0 435 429 0 0 -15 457 655 0 440 393 458 15 4
58 241 0 204 393 0 17 204 0 458 459 215 75 460 202 0 206 +17 459 0 458 461 204 9
8 78 209 0 175 -17 215 0 458 204 461 79 462 212 0 460 +17 460 0 301 463 206 79 2
04 202 0 0 -17 206 0 301 460 194 75 464 195 0 0 +15 301 142 0 135 280 431 17 194
 0 301 206 90 70 465 192 0 0 +17 464 0 179 97 78 70 206 195 0 194 -15 179 239 0
 464 401 0 17 97 0 179 175 464 69 73 172 0 180 -17 78 0 179 464 175 75 459 209 0
 204 +17 73 0 167 465 162 70 97 172 0 464 +17 180 0 43 169 101 69 175 164 0 162
 -17 169 0 43 37 180 110 162 150 0 0 -17 101 0 43 180 105 98 461 155 0 459 +17 1
05 0 43 101 116 102 145 147 0 462 +17 461 0 458 215 459 102 101 155 0 0 -17 145
 0 394 86 462 106 105 147 0 116 -17 462 0 394 145 82 102 215 212 0 461 -15 394 2
43 0 82 385 0 17 82 0 394 462 86 79 463 199 0 215 +17 86 0 394 82 145 83 109 142
 0 463 +17 463 0 301 139 460 83 82 199 0 138 -17 139 0 301 135 463 91 138 196 0
 0 +17 138 0 137 109 132 83 139 196 0 0 -16 196 160 151 ?139 199 191 189 192 192
 1 81 1 151 332 29 196 0 0 211 146 466 81 1 211 325 29 209 0 0 214 151 467 82 3
 466 6 14 1 81 1 214 324 29 212 0 0 208 211 468 82 3 467 6 7 1 81 1 208 323 29 1
72 0 0 216 214 469 82 3 468 6 6 1 81 1 216 322 29 142 0 0 170 208 470 82 3 469 6
 5 1 81 1 170 321 29 163 0 0 140 216 471 82 3 470 6 4 1 81 1 140 320 29 133 0 0
 100 170 472 82 3 471 6 3 1 81 1 100 317 29 98 0 0 77 140 473 82 3 472 6 2 1 81
 1 77 316 29 75 0 0 104 100 474 82 3 473 6 15 0 81 1 104 315 29 102 0 0 81 77 47
5 82 3 474 6 14 0 81 1 81 314 29 79 0 0 96 104 476 82 3 475 6 13 0 81 1 96 313 2
9 69 0 0 72 81 477 82 3 476 6 12 0 81 1 72 312 29 70 0 0 108 96 478 82 3 477 6 1
1 0 81 1 108 311 29 106 0 0 85 72 479 82 3 478 6 10 0 81 1 85 310 29 83 0 0 112
 108 480 82 3 479 6 9 0 81 1 112 309 29 110 0 0 89 85 481 82 3 480 6 8 0 81 1 89
 308 29 87 0 0 113 112 482 82 3 481 6 7 0 82 3 482 6 6 0 17 135 0 301 61 139 66
 94 136 0 0 -17 61 0 301 187 135 58 68 224 0 483 +17 187 0 301 54 61 55 483 184
 0 0 +17 68 0 261 127 484 66 61 224 0 126 -17 483 0 273 49 230 58 187 184 0 484
 -15 273 255 0 483 17 0 17 49 0 273 47 483 40 484 231 0 44 +17 230 0 273 483 47
 55 485 227 0 187 +17 484 0 261 68 124 58 49 231 0 0 -15 261 1850 0 124 256 0 17
 124 0 261 484 127 40 65 26 0 0 -17 127 0 261 124 68 62 126 218 0 0 -17 126 0 12
5 94 117 66 127 218 0 135 +17 47 0 273 230 49 28 44 130 0 485 +17 485 0 268 45 5
7 28 230 227 0 0 -15 268 1871 0 45 19 0 17 45 0 268 36 485 12 39 46 0 0 -17 57 0
 268 485 36 55 54 221 0 230 -17 36 0 268 57 45 50 25 11 0 0 -17 54 0 301 90 187
 50 57 221 0 35 +17 90 0 301 194 54 87 35 191 0 171 +17 35 0 33 25 171 50 90 191
 0 36 -15 33 251 0 35 291 0 17 171 0 33 35 34 87 168 163 0 465 +17 34 0 33 171 2
5 110 37 129 0 168 +17 168 0 167 162 465 110 171 163 0 169 -17 465 0 167 168 73
 87 194 192 0 0 -15 167 237 0 465 295 0 17 37 0 43 39 169 12 34 129 0 45 -17 44
 0 43 65 39 40 47 130 0 124 -15 431 467 0 428 280 0 81 1 414 494 29 281 0 283 42
1 434 486 82 3 438 12 0 1 82 3 486 8 1 2 81 1 407 428 29 188 0 0 396 312 487 17
 433 0 310 433 433 0 488 188 0 0 +15 310 449 0 433 300 489 17 488 0 318 488 488
 0 433 188 0 0 -15 318 461 0 488 309 420 15 420 462 0 418 309 0 15 489 450 0 432
 300 0 17 432 0 489 432 432 0 428 427 0 0 -82 3 487 7 3 1 82 3 430 7 2 1 81 1 32
0 491 29 1 0 14 313 421 490 82 3 423 8 0 1 81 1 14 1919 491 1 320 2 0 0 492 82 3
 490 6 0 3 80 1 491 13 493 8038 0 0 0 0 0 0 0 0 0 TTTTTTTTTTTTTF10 98 255 6 492
 80 97 114 116 32 49 79 255 14 493 SDL/TYSA_UNAME83 3 415 .603921568627451 .6470
58823529412 .686274509803922 50 282 2 0 120 311 302 0 +0 -.003 .01 0 0 1 1 0 0 5
1 311 471 0 300 319 282 0 -0 35e-5 .002 0 0 -1 .006 -1 0 0 50 319 474 0 309 327
 311 0 +0 -.003 .002 0 0 1 1 0 0 51 327 702 0 317 335 319 0 +-.01824999999987755
 -5e2 .005 -2449293598294705e-31 1 0 .00165 -1 -2449293598294705e-31 0 51 335 84
6 0 325 342 327 0 +-.01825 -.0195 .005 -2449293598294705e-31 1 0 .0028 -1 -24492
93598294705e-31 0 50 342 848 0 333 350 335 0 +-.01825 -.0195 .005 -2449293598294
705e-31 1 0 -1 -2449293598294705e-31 0 51 350 1588 0 340 356 342 0 +.01824999999
987755 -5e2 .005 2449293598294705e-31 1 0 .00165 1 -2449293598294705e-31 0 51 35
6 1589 0 348 361 350 0 +.01825 -.0195 .005 2449293598294705e-31 1 0 .0028 1 -244
9293598294705e-31 0 50 361 1590 0 260 0 356 0 +.01825 -.0195 .005 24492935982947
05e-31 1 0 1 -2449293598294705e-31 0 17 374 0 410 374 374 0 494 371 0 0 +17 494
 0 495 494 494 0 374 371 0 0 -15 495 1559 0 494 348 0 82 3 408 6 9 2 81 1 48 189
0 29 40 0 0 398 60 496 82 3 404 21 4 2 81 1 60 1891 29 58 0 0 48 64 497 82 3 496
 22 0 0 81 1 64 1892 29 62 0 0 60 41 498 82 3 497 22 1 0 81 1 41 1893 29 66 0 0
 64 38 499 82 3 498 22 2 0 82 3 499 22 3 0 15 402 1048 0 381 393 457 17 381 0 40
2 381 381 0 500 368 0 0 +17 500 0 501 500 500 0 381 368 0 0 -15 501 1553 0 500 3
40 0 81 1 157 343 29 148 0 0 174 390 502 82 3 397 6 8 2 82 3 502 6 25 1 17 378 0
 360 378 378 0 503 369 0 0 +15 360 1564 0 378 260 504 17 503 0 349 503 503 0 378
 369 0 0 -15 349 1552 0 503 340 501 15 504 1565 0 505 260 0 17 505 0 504 505 505
 0 367 364 0 0 -17 367 0 355 367 367 0 505 364 0 0 +15 355 1558 0 367 348 495 82
 3 358 21 1 2 82 3 353 21 2 2 82 3 344 14 0 2 82 3 337 14 1 2 82 3 330 14 2 2 82
 3 321 7 2 2 82 3 314 7 3 2 79 15 305 SDL/TYSA_COLOUR83 3 298 .603921568627451 .
647058823529412 .686274509803922 83 3 290 .603921568627451 .647058823529412 .686
274509803922 83 3 285 .603921568627451 .647058823529412 .686274509803922 83 3 27
6 .603921568627451 .647058823529412 .686274509803922 83 3 269 .603921568627451 .
647058823529412 .686274509803922 83 3 265 .603921568627451 .647058823529412 .686
274509803922 30 160 24 0 129 149 159 0 +.014 .00943283759813625 .01 612323399573
677e-31 -1 0 31 159 28 0 148 160 156 0 +0 35e-5 .01 0 0 1 1 0 0 .01115 30 156 35
 0 147 159 182 0 +-.0225 -.0230140389875682 .01 612323399573677e-31 -1 0 81 1 31
 1897 29 50 0 0 27 233 506 82 3 239 22 0 1 82 3 506 22 7 0 79 9 238 BTI/DetId81
 1 177 340 29 195 0 0 154 174 507 81 1 154 339 29 147 0 0 201 177 508 82 3 507 6
 22 1 81 1 201 338 29 199 0 0 181 154 509 82 3 508 6 21 1 81 1 181 337 29 155 0
 0 165 201 510 82 3 509 6 20 1 81 1 165 336 29 202 0 0 161 181 511 82 3 510 6 19
 1 82 3 511 6 18 1 81 1 152 334 29 192 0 0 146 161 512 82 3 512 6 16 1 82 3 178
 6 23 1 82 3 166 6 17 1 82 3 153 6 15 1 81 1 93 306 29 91 0 0 0 113 513 82 3 115
 6 5 0 82 3 513 6 4 0 81 1 30 1895 29 55 0 0 38 27 514 82 3 514 22 5 0 82 3 42 2
2 4 0 82 3 32 22 6 0 19 18 274 0 1 0 10 6 S0 74 4 CI16 index_map_offset0 0 1 dCC
Z20 16 4 0 0 293 14 2 264 0 0 0 0 0 0 0 0 0 0 0 0 0 0 0 0 80 1 13 515 516 8017 0
 0 0 0 0 0 0 0 0 TTTTTTTTTTTTTF3 84 255 6 15 Part 179 13 516 SDL/TYSA_NAME1 0 
