**ABCDEFGHIJKLMNOPQRSTUVWXYZabcdefghijklmnopqrstuvwxyz**************************
**PARASOLID !"#$%&'()*+,-./:;<=>?@[\]^_`{|}~0123456789**************************
**PART1;
MC=unknown;
MC_MODEL=unknown;
MC_ID=unknown;
OS=unknown;
OS_RELEASE=unknown;
FRU=Parasolid 28.1.228;
APPL=Onshape;
SITE=unknown;
USER=unknown;
FORMAT=text;
GUISE=transmit;
KEY=BTGapi::writeModels_.xmt;
FILE=BTGapi::writeModels_.xmt;
DATE=2016-04-23T18:15:55 (UTC);
**PART2;
SCH=SCH_2801228_28101;
USFLD_SIZE=0;
**PART3;
**END_OF_HEADER*****************************************************************
T51 : TRANSMIT FILE created by modeller version 280122823 SCH_2801228_28101_1300
6203 0 12 33 CCCCCCI4 mesh1006 0 I8 polyline1008 0 CCCCCCCDI5 owner1040 0 CCCCCC
I13 boundary_mesh1006 0 I17 boundary_polyline1008 0 CCCA16 index_map_offset0 0 1
 dA9 index_map82 0 A17 node_id_index_map82 0 A20 schema_embedding_map82 0 A5 chi
ld12 0 A14 lowest_node_id0 0 1 dZ1 945 2 3 0 0 0 0 0 0 1e3 1e-8 0 4 5 1 0 1 1 6
 7 8 9 0 0 10 11 12 0 0 0 0 0 0 81 255 1 2 928 13 1 14 0 0 0 15 70 11 CI9 list_t
ype0 0 1 uI10 notransmit0 0 1 lCCCDCCDI12 finger_index0 0 1 dI12 finger_block101
2 0 CZ3 0 4 T1 0 0 4 20 1 16 16 13 255 6 214 0 1 0 17 0 0 18 0 50 255 7 207 0 17
 19 0 0 +-726415455565288e-32 .02 .0035 -183697019872103e-30 1 0 -1 -18369701987
2103e-30 0 30 255 8 213 0 11 20 0 0 +-.0075 .02 .0035 0 0 -1 29 255 9 178 0 21 2
2 0 .0325 .02 0 19 8 CCCCCCCA5 owner12 0 Z10 78 0 1 18 0 23 V0 16 255 11 189 24
 ?25 0 26 8 0 0 1 18 255 12 72 27 28 0 29 30 ?1 81 1 27 245 31 12 0 0 32 33 34 1
7 255 28 0 35 36 37 12 38 39 0 40 -18 29 67 41 42 12 43 44 ?1 29 30 74 0 12 44 4
5 .0325 .02 .0035 29 44 69 0 29 46 30 .0325 .005 .0035 29 45 183 0 47 30 48 -.00
75 .02 0 18 47 167 49 25 50 0 45 ?1 29 48 182 0 50 45 51 -.0075 -.02 0 18 50 163
 52 53 54 47 48 ?1 29 51 181 0 54 48 55 .0075 -.02 0 18 54 159 56 57 58 50 51 ?1
 29 55 180 0 58 51 22 .0075 .005 0 18 58 155 59 60 61 54 55 ?1 29 22 179 0 61 55
 9 .0325 .005 0 18 61 151 33 62 21 58 22 ?1 81 1 33 246 31 61 0 0 27 41 63 17 62
 0 35 37 36 61 64 65 0 66 +18 21 147 32 38 67 61 9 ?1 81 1 32 244 31 21 0 0 68 2
7 69 17 38 0 70 71 40 21 28 39 0 72 +18 67 42 73 74 75 21 76 ?1 81 1 73 237 31 6
7 0 0 49 52 77 17 74 0 70 40 71 67 25 11 0 78 -18 75 47 79 80 81 67 82 ?1 29 76
 44 0 67 0 82 -.0075 .02 .0035 29 82 49 0 75 76 83 -.0075 -.02 .0035 29 83 54 0
 81 82 46 .0075 -.02 .0035 18 81 52 84 85 43 75 83 ?1 29 46 59 0 43 83 44 .0075
 .005 .0035 18 43 57 68 86 29 81 46 ?1 81 1 68 243 31 43 0 0 59 32 87 17 86 0 88
 89 90 43 60 91 0 92 -15 255 88 194 0 90 93 0 17 89 0 88 57 86 81 94 95 0 0 +17
 90 0 88 86 57 58 96 97 0 0 -17 60 0 98 66 92 58 86 91 0 99 +16 91 186 100 ?60 1
01 65 102 0 0 1 17 92 0 98 60 64 43 42 103 0 94 -15 98 192 0 66 104 0 17 64 0 98
 92 66 29 62 65 0 36 -17 42 0 105 106 94 29 92 103 0 64 +16 103 34 107 ?42 108 9
5 109 0 0 1 17 94 0 105 42 85 43 89 95 0 0 -15 105 5 0 110 111 0 17 85 0 105 94
 80 81 112 113 0 114 +16 95 22 115 ?89 103 113 116 0 0 1 81 1 115 261 31 95 0 0
 117 118 119 16 113 18 120 ?85 95 121 122 0 0 1 30 116 23 0 95 122 109 0 +.0075
 -.00726770060050313 .0035 0 -1 0 30 122 19 0 113 123 116 0 +-292734586571086e-3
2 -.02 .0035 1 183697019872103e-30 0 30 109 35 0 103 116 124 0 +.019827591106295
6 .005 .0035 1 183697019872103e-30 0 30 124 39 0 108 109 125 0 +.0325 .007721583
82503776 .0035 2449293598294705e-31 -1 0 16 108 38 126 ?36 39 103 124 0 0 1 30 1
25 177 0 127 124 128 0 +-726415455565288e-32 .02 0 1 183697019872103e-30 0 16 12
7 141 129 ?72 130 131 125 0 0 1 30 128 176 0 130 125 132 0 +-.0075 -.00726770060
050313 0 0 -1 0 16 130 137 133 ?53 134 127 128 0 0 1 30 132 175 0 134 128 135 0
 +-292734586571086e-32 -.02 0 1 183697019872103e-30 0 16 134 133 136 ?137 97 130
 132 0 0 1 30 135 174 0 97 132 138 0 +.0075 -.00726770060050313 0 0 -1 0 16 97 1
29 117 ?96 139 134 135 0 0 1 30 138 173 0 139 135 140 0 +.0198275911062956 .005
 0 1 183697019872103e-30 0 16 139 125 118 ?66 141 97 138 0 0 1 30 140 172 0 141
 138 142 0 +.0325 .00772158382503776 0 2449293598294705e-31 -1 0 16 141 121 143
 ?144 145 139 140 0 0 1 30 142 208 0 39 140 146 0 +.0325 .02 .0035 0 0 -1 16 39
 184 147 ?38 65 108 142 0 0 1 30 146 209 0 65 142 102 0 +.0325 .005 .0035 0 0 -1
 16 65 185 148 ?62 91 39 146 0 0 1 30 102 210 0 91 146 149 0 +.0075 .005 .0035 0
 0 -1 30 149 211 0 101 102 20 0 +.0075 -.02 .0035 0 0 -1 16 101 187 150 ?57 26 9
1 149 0 0 1 30 20 212 0 26 149 8 0 +-.0075 -.02 .0035 0 0 -1 16 26 188 151 ?152
 11 101 20 0 0 1 81 1 151 249 31 26 0 0 24 150 153 17 152 0 154 137 112 50 155 2
6 0 156 +15 154 196 0 137 157 0 17 137 0 154 114 152 54 156 134 0 96 +17 112 0 1
54 152 114 75 85 113 0 0 -17 155 0 158 78 53 75 152 26 0 112 -17 156 0 159 160 9
6 50 137 134 0 0 -15 159 120 0 72 161 0 17 160 0 159 72 156 47 53 130 0 71 -17 9
6 0 159 156 99 54 90 97 0 0 +17 99 0 159 96 144 58 66 139 0 90 -17 144 0 159 99
 72 61 37 141 0 0 +17 66 0 98 64 60 61 99 139 0 144 +17 72 0 159 144 160 21 71 1
27 0 37 +17 37 0 35 28 62 21 144 141 0 0 -15 35 190 0 37 162 0 14 255 162 191 16
3 ?111 104 35 6 164 +0 0 111 104 23 81 1 163 934 165 162 166 0 167 168 169 14 11
1 1 168 ?161 162 170 6 171 +0 0 161 162 23 14 104 193 167 ?162 93 98 6 172 -0 0
 162 93 23 50 164 202 0 162 173 172 0 +.0325 .00772158382503776 .0035 1 24492935
98294705e-31 0 -2449293598294705e-31 1 0 13 23 79 0 0 0 0 0 0 10 17 14 17 201 17
4 ?175 0 70 6 7 +0 0 175 0 23 81 1 174 929 165 17 176 0 0 177 178 14 175 199 177
 ?157 17 158 6 19 -0 0 157 17 23 15 70 200 0 71 17 0 17 71 0 70 74 38 47 72 127
 0 0 -81 1 177 930 165 175 179 0 174 180 181 14 157 197 180 ?93 175 154 6 182 -0
 0 93 175 23 15 158 198 0 53 175 0 50 19 206 0 175 182 7 0 +-.0075 -.00726770060
050313 .0035 1 0 0 0 0 -1 50 182 205 0 157 183 19 0 +-292734586571086e-32 -.02 .
0035 -183697019872103e-30 1 0 -1 -183697019872103e-30 0 50 183 204 0 93 172 182
 0 +.0075 -.00726770060050313 .0035 1 0 0 0 0 -1 14 93 195 184 ?104 157 88 6 183
 +0 0 104 157 23 50 172 203 0 104 164 183 0 +.0198275911062956 .005 .0035 -18369
7019872103e-30 1 0 -1 -183697019872103e-30 0 81 1 184 932 165 93 185 0 180 167 1
86 80 255 1 165 0 187 8001 0 0 0 0 3 5 0 0 0 FFFFTFTFFFFFFF2 81 1 185 271 31 93
 0 184 179 188 189 81 1 180 931 165 157 190 0 177 184 191 81 1 167 933 165 104 1
88 0 184 163 192 83 255 3 186 .603921568627451 .647058823529412 .686274509803922
 81 1 188 272 31 104 0 167 185 166 193 83 3 192 .603921568627451 .64705882352941
2 .686274509803922 80 1 31 194 195 9000 0 0 0 0 3 6 0 0 0 FFTFTFTTFFFFFF1 81 1 1
66 273 31 162 0 163 188 196 197 82 255 3 193 6 6 2 81 1 196 274 31 1 0 14 166 19
8 199 82 3 197 6 7 2 81 1 14 927 200 1 196 2 0 0 201 81 1 198 573 31 131 0 0 196
 202 203 82 3 199 6 0 3 16 131 461 198 ?204 127 205 206 0 0 1 81 1 202 574 31 20
5 0 0 198 207 208 82 3 203 10 0 1 16 205 490 202 ?209 131 210 211 0 0 1 81 1 207
 575 31 210 0 0 202 212 213 82 3 208 10 1 1 16 210 519 207 ?214 205 215 216 0 0
 1 81 1 212 582 31 161 0 217 207 218 219 82 3 213 10 2 1 14 161 109 217 ?220 111
 221 6 173 -0 0 220 111 23 81 1 217 936 165 161 212 0 168 222 223 81 1 218 908 3
1 224 0 0 212 225 226 82 3 219 10 3 2 16 224 737 218 ?227 228 229 230 0 0 1 81 1
 225 909 31 231 0 0 218 232 233 82 3 226 12 0 1 16 231 784 225 ?234 235 236 237
 0 0 1 81 1 232 910 31 238 0 0 225 239 240 82 3 233 12 1 1 16 238 831 232 ?241 2
15 235 242 0 0 1 81 1 239 911 31 243 0 0 232 244 245 82 3 240 12 2 1 16 243 743
 239 ?246 229 0 247 0 0 1 81 1 244 912 31 229 0 0 239 248 249 82 3 245 12 3 1 16
 229 733 244 ?250 224 243 251 0 0 1 81 1 248 913 31 228 0 0 244 252 253 82 3 249
 12 4 1 16 228 790 248 ?254 236 224 255 0 0 1 81 1 252 914 31 236 0 0 248 256 25
7 82 3 253 12 5 1 16 236 780 252 ?258 231 228 259 0 0 1 81 1 256 915 31 235 0 0
 252 260 261 82 3 257 12 6 1 16 235 837 256 ?262 238 231 263 0 0 1 81 1 260 916
 31 215 0 0 256 264 265 82 3 261 12 7 1 16 215 827 260 ?266 210 238 267 0 0 1 81
 1 264 917 31 268 0 269 260 270 271 82 3 265 12 8 1 14 268 761 269 ?272 273 274
 6 275 +0 0 272 273 23 81 1 269 941 165 268 264 0 276 277 278 81 1 270 918 31 27
9 0 280 264 281 282 82 3 271 12 0 2 14 279 808 280 ?283 272 284 6 285 +0 0 283 2
72 23 81 1 280 943 165 279 270 0 277 286 287 81 1 281 919 31 288 0 289 270 290 2
91 82 3 282 12 1 2 14 288 855 289 ?0 283 292 6 293 +0 0 0 283 23 81 1 289 945 16
5 288 281 0 286 0 294 81 1 290 920 31 273 0 276 281 295 296 82 3 291 12 2 2 14 2
73 755 276 ?268 297 298 6 299 -0 0 268 297 23 81 1 276 940 165 273 290 0 300 269
 301 81 1 295 921 31 272 0 277 290 302 303 82 3 296 12 3 2 14 272 802 277 ?279 2
68 304 6 305 -0 0 279 268 23 81 1 277 942 165 272 295 0 269 280 306 81 1 302 922
 31 283 0 286 295 307 308 82 3 303 12 4 2 14 283 849 286 ?288 279 309 6 310 -0 0
 288 279 23 81 1 286 944 165 283 302 0 280 289 311 81 1 307 923 31 297 0 300 302
 312 313 82 3 308 12 5 2 14 297 478 300 ?273 314 315 6 316 -0 0 273 314 23 81 1
 300 939 165 297 307 0 317 276 318 81 1 312 924 31 314 0 317 307 319 320 82 3 31
3 12 6 2 14 314 507 317 ?297 220 321 6 322 -0 0 297 220 23 81 1 317 938 165 314
 312 0 222 300 323 81 1 319 925 31 220 0 222 312 324 325 82 3 320 12 7 2 14 220
 536 222 ?314 161 326 6 327 -0 0 314 161 23 81 1 222 937 165 220 319 0 217 317 3
28 81 1 324 926 31 111 0 168 319 0 329 82 3 325 12 8 2 81 1 168 935 165 111 324
 0 163 217 330 82 3 329 12 9 2 83 3 330 .603921568627451 .647058823529412 .68627
4509803922 83 3 328 .603921568627451 .647058823529412 .686274509803922 15 326 68
1 0 241 220 331 51 255 327 553 0 220 322 171 0 +561882827282015e-33 .0125 -5e2 0
 0 1 .00165 1 0 0 51 322 556 0 314 316 327 0 +.0245 .0125 -5e2 0 0 1 .00165 1 0
 0 50 171 2 0 111 327 173 0 +.0125 0 .0035 0 0 1 1 0 0 50 173 171 0 161 171 164
 0 +.0125 0 0 0 0 1 1 0 0 51 316 559 0 297 310 322 0 +0 -.012 -5e2 0 0 1 .00165
 1 0 0 51 310 874 0 283 293 316 0 +561882827282015e-33 .0125 .0025 0 0 1 .0025 1
 0 0 50 293 876 0 288 299 310 0 +.0125 0 .0025 0 0 1 1 0 0 51 299 877 0 273 275
 293 0 +0 -.012 .0025 0 0 1 .0025 1 0 0 50 275 880 0 268 305 299 0 +.0125 0 .002
5 0 0 1 1 0 0 51 305 881 0 272 285 275 0 +.0245 .0125 .0025 0 0 1 .0025 1 0 0 50
 285 884 0 279 0 305 0 +.0125 0 .0025 0 0 1 1 0 0 17 241 0 326 241 241 0 332 238
 0 0 +15 331 540 0 214 220 0 17 214 0 331 214 214 0 333 210 0 0 +17 333 0 334 33
3 333 0 214 210 0 0 -15 334 408 0 333 161 159 17 332 0 292 332 332 0 241 238 0 0
 -15 292 859 0 332 288 335 15 335 860 0 266 288 0 17 266 0 335 266 266 0 336 215
 0 0 +17 336 0 309 336 336 0 266 215 0 0 -15 309 853 0 336 283 337 15 337 854 0
 262 283 0 17 262 0 337 262 262 0 338 235 0 0 +17 338 0 339 338 338 0 262 235 0
 0 -15 339 689 0 338 111 105 83 3 323 .603921568627451 .647058823529412 .6862745
09803922 15 321 674 0 234 314 340 17 234 0 321 234 234 0 341 231 0 0 +15 340 511
 0 209 314 0 17 209 0 340 209 209 0 342 205 0 0 +17 342 0 343 342 342 0 209 205
 0 0 -15 343 415 0 342 161 334 17 341 0 284 341 341 0 234 231 0 0 -15 284 812 0
 341 279 344 15 344 813 0 258 279 0 17 258 0 344 258 258 0 345 236 0 0 +17 345 0
 304 345 345 0 258 236 0 0 -15 304 806 0 345 272 346 15 346 807 0 254 272 0 17 2
54 0 346 254 254 0 347 228 0 0 +17 347 0 348 347 347 0 254 228 0 0 -15 348 696 0
 347 111 339 83 3 318 .603921568627451 .647058823529412 .686274509803922 15 315
 667 0 227 297 349 17 227 0 315 227 227 0 350 224 0 0 +15 349 482 0 204 297 0 17
 204 0 349 204 204 0 351 131 0 0 +17 351 0 221 351 351 0 204 131 0 0 -15 221 422
 0 351 161 343 17 350 0 274 350 350 0 227 224 0 0 -15 274 765 0 350 268 352 15 3
52 766 0 250 268 0 17 250 0 352 250 250 0 353 229 0 0 +17 353 0 298 353 353 0 25
0 229 0 0 -15 298 759 0 353 273 354 15 354 760 0 246 273 0 17 246 0 354 246 246
 0 355 243 0 0 +17 355 0 170 355 355 0 246 243 0 0 -15 170 703 0 355 111 348 83
 3 311 .603921568627451 .647058823529412 .686274509803922 83 3 306 .603921568627
451 .647058823529412 .686274509803922 83 3 301 .603921568627451 .647058823529412
 .686274509803922 83 3 294 .603921568627451 .647058823529412 .686274509803922 83
 3 287 .603921568627451 .647058823529412 .686274509803922 83 3 278 .603921568627
451 .647058823529412 .686274509803922 31 255 267 887 0 215 242 263 0 +5618828272
82015e-33 .0125 .0025 0 0 1 1 0 0 .0025 31 242 888 0 238 247 267 0 +561882827282
015e-33 .0125 .0025 0 0 1 1 1224646799147352e-31 0 .00165 31 263 885 0 235 267 2
06 0 +561882827282015e-33 .0125 .0035 0 0 1 1 0 0 .0025 31 206 566 0 131 263 211
 0 -0 -.012 0 0 0 1 1 0 0 .00165 31 211 564 0 205 206 216 0 -.0245 .0125 0 0 0 1
 1 0 0 .00165 31 216 562 0 210 211 356 0 -561882827282015e-33 .0125 0 0 0 1 1 0
 0 .00165 30 356 11 0 145 216 123 0 +-726415455565288e-32 .02 .0035 1 1836970198
72103e-30 0 16 145 10 357 ?40 121 141 356 0 0 1 30 123 15 0 121 356 122 0 +-.007
5 -.00726770060050313 .0035 0 -1 0 16 121 14 358 ?80 113 145 123 0 0 1 81 1 358
 259 31 121 0 0 133 117 359 17 80 0 105 85 110 75 78 121 0 155 +17 110 0 105 80
 106 67 40 145 0 0 -17 78 0 158 25 155 67 80 121 0 110 -17 25 0 158 53 78 47 74
 11 0 160 +17 53 0 158 155 25 50 160 130 0 152 +17 106 0 105 110 42 12 36 108 0
 0 -17 40 0 70 38 74 12 110 145 0 106 +17 36 0 35 62 28 29 106 108 0 0 +81 1 133
 258 31 130 0 0 120 358 360 81 1 117 260 31 97 0 0 358 115 361 82 3 359 6 11 1 8
2 3 361 6 12 1 81 1 120 257 31 113 0 0 136 133 362 82 3 360 6 10 1 81 1 136 256
 31 134 0 0 357 120 363 82 3 362 6 9 1 81 1 357 255 31 145 0 0 129 136 364 82 3
 363 6 8 1 81 1 129 254 31 127 0 0 148 357 365 82 3 364 6 7 1 81 1 148 253 31 65
 0 0 147 129 366 82 3 365 6 6 1 81 1 147 252 31 39 0 0 100 148 367 82 3 366 6 5
 1 81 1 100 251 31 91 0 0 150 147 368 82 3 367 6 4 1 81 1 150 250 31 101 0 0 151
 100 369 82 3 368 6 3 1 82 3 369 6 2 1 31 247 890 0 243 230 242 0 +0 -.012 .0035
 0 0 1 1 0 0 .0025 31 230 891 0 224 251 247 0 +0 -.012 .0025 0 0 1 1 0 0 .00165
 31 251 892 0 229 255 230 0 +0 -.012 .0025 0 0 1 1 0 0 .0025 31 255 894 0 228 23
7 251 0 +.0245 .0125 .0035 0 0 1 1 0 0 .0025 31 237 895 0 231 259 255 0 +.0245 .
0125 .0025 0 0 1 1 0 0 .00165 31 259 896 0 236 0 237 0 +.0245 .0125 .0025 0 0 1
 1 0 0 .0025 83 3 223 .603921568627451 .647058823529412 .686274509803922 80 1 20
0 13 370 8038 0 0 0 0 0 0 0 0 0 TTTTTTTTTTTTTF10 98 255 6 201 80 97 114 116 32 4
9 79 255 14 370 SDL/TYSA_UNAME79 9 195 BTI/DetId81 1 190 269 31 157 0 180 176 17
9 371 83 3 191 .603921568627451 .647058823529412 .686274509803922 81 1 176 268 3
1 17 0 174 126 190 372 81 1 179 270 31 175 0 177 190 185 373 82 3 371 6 3 2 82 3
 373 6 4 2 81 1 126 265 31 108 0 0 143 176 374 82 3 372 6 2 2 81 1 143 264 31 14
1 0 0 107 126 375 82 3 374 6 17 1 81 1 107 263 31 103 0 0 118 143 376 82 3 375 6
 16 1 81 1 118 262 31 139 0 0 115 107 377 82 3 376 6 15 1 82 3 377 6 14 1 82 3 1
89 6 5 2 79 15 187 SDL/TYSA_COLOUR83 3 181 .603921568627451 .647058823529412 .68
6274509803922 83 3 178 .603921568627451 .647058823529412 .686274509803922 83 3 1
69 .603921568627451 .647058823529412 .686274509803922 17 114 0 154 112 137 81 57
 101 0 89 -17 57 0 88 90 89 54 114 101 0 137 +81 1 24 248 31 11 0 0 41 151 378 8
2 3 153 6 1 1 81 1 41 247 31 29 0 0 33 24 379 82 3 378 6 0 1 82 3 379 6 11 0 82
 3 119 6 13 1 81 1 59 242 31 58 0 0 84 68 380 82 3 87 6 7 0 81 1 84 241 31 81 0
 0 56 59 381 82 3 380 6 6 0 81 1 56 240 31 54 0 0 79 84 382 82 3 381 6 5 0 81 1
 79 239 31 75 0 0 52 56 383 82 3 382 6 4 0 81 1 52 238 31 50 0 0 73 79 384 82 3
 383 6 3 0 82 3 384 6 2 0 81 1 49 236 31 47 0 0 0 73 385 82 3 77 6 1 0 82 3 385
 6 0 0 82 3 69 6 8 0 82 3 63 6 10 0 82 3 34 6 9 0 19 18 215 0 1 0 10 6 S0 74 4 C
I16 index_map_offset0 0 1 dCCZ20 16 4 0 0 324 14 2 289 0 0 0 0 0 0 0 0 0 0 0 0 0
 0 0 0 80 1 13 386 387 8017 0 0 0 0 0 0 0 0 0 TTTTTTTTTTTTTF3 84 255 6 15 Part 1
79 13 387 SDL/TYSA_NAME1 0 
