**ABCDEFGHIJKLMNOPQRSTUVWXYZabcdefghijklmnopqrstuvwxyz**************************
**PARASOLID !"#$%&'()*+,-./:;<=>?@[\]^_`{|}~0123456789**************************
**PART1;
MC=unknown;
MC_MODEL=unknown;
MC_ID=unknown;
OS=unknown;
OS_RELEASE=unknown;
FRU=Parasolid 28.1.231;
APPL=Onshape;
SITE=unknown;
USER=unknown;
FORMAT=text;
GUISE=transmit;
KEY=BTGapi::writeModels_.xmt;
FILE=BTGapi::writeModels_.xmt;
DATE=2016-06-28T21:02:46 (UTC);
**PART2;
SCH=SCH_2801231_28101;
USFLD_SIZE=0;
**PART3;
**END_OF_HEADER*****************************************************************
T51 : TRANSMIT FILE created by modeller version 280123123 SCH_2801231_28101_1300
6203 0 12 33 CCCCCCI4 mesh1006 0 I8 polyline1008 0 CCCCCCCDI5 owner1040 0 CCCCCC
I13 boundary_mesh1006 0 I17 boundary_polyline1008 0 CCCA16 index_map_offset0 0 1
 dA9 index_map82 0 A17 node_id_index_map82 0 A20 schema_embedding_map82 0 A5 chi
ld12 0 A14 lowest_node_id0 0 1 dZ1 925 2 3 0 0 0 0 0 0 1e3 1e-8 0 4 0 1 0 1 1 5
 6 7 8 0 0 9 10 11 0 0 0 0 0 0 81 255 1 2 911 12 1 13 0 0 0 14 70 11 CI9 list_ty
pe0 0 1 uI10 notransmit0 0 1 lCCCDCCDI12 finger_index0 0 1 dI12 finger_block1012
 0 CZ3 0 4 T1 0 0 4 20 1 15 15 13 255 5 472 0 1 0 16 0 0 17 0 50 255 6 872 0 18
 19 0 0 --.01475447442093638 .0026096578902488 .01 .707106781186547 -.7071067811
86548 0 0 0 -1 30 255 7 821 0 10 20 0 0 +-.01125447442093638 .0061096578902488 .
01 0 0 1 29 255 8 803 0 11 21 0 -.01400447442093638 .0033596578902488 .01 19 8 C
CCCCCCA5 owner12 0 Z9 183 0 1 17 0 22 V0 16 255 10 819 23 ?24 0 25 7 0 0 1 18 25
5 11 800 26 27 0 28 8 ?1 81 1 26 885 29 11 0 0 30 31 32 17 255 27 0 33 34 35 11
 36 37 0 38 +18 28 796 39 36 11 40 21 ?1 81 1 39 883 29 28 0 0 41 30 42 17 36 0
 43 44 45 28 27 37 0 24 -18 40 787 46 47 28 48 49 ?1 29 21 799 0 28 49 8 -.01125
447442093638 .0061096578902488 .01 29 49 790 0 40 50 21 -.0144785880756303 -.012
3403421097512 .01 29 50 776 0 48 51 49 -.01125447442093638 .0061096578902488 0 1
8 48 773 41 52 40 53 50 ?1 29 51 772 0 53 54 50 -.01400447442093638 .00335965789
02488 0 18 53 769 30 55 48 56 51 ?1 29 54 768 0 56 57 51 -.0144785880756303 -.01
23403421097512 0 18 56 765 58 59 53 60 54 ?1 29 57 759 0 60 61 54 -.011728588075
6303 -.0150903421097512 .01 18 60 756 62 63 56 64 57 ?1 29 61 755 0 64 65 57 -.0
117285880756303 -.0150903421097512 0 18 64 752 66 67 60 68 61 ?1 29 65 639 0 68
 69 61 -.01195447442093638 .001309657890248802 .01 18 68 636 70 34 64 71 65 ?1 2
9 69 630 0 71 72 65 -.0124285880756303 -.0102903421097512 .01 18 71 627 73 74 68
 75 69 ?1 29 72 616 0 75 76 69 -.0124285880756303 -.0102903421097512 0 18 75 613
 77 78 71 79 72 ?1 29 76 608 0 79 80 72 -.01195447442093638 .001309657890248802
 0 18 79 605 81 82 75 83 76 ?1 29 80 403 0 84 85 76 -.0124285880756303 -.0120903
421097512 0 18 84 351 86 87 88 89 80 ?1 29 85 404 0 89 90 80 .00184552557906362
 .0061096578902488 0 18 89 355 91 92 84 93 85 ?1 29 90 405 0 93 94 85 .001845525
57906362 -.0150903421097512 0 18 93 359 95 96 89 97 90 ?1 29 94 406 0 97 98 90 -
.001154474420936374 -.0120903421097512 0 18 97 363 99 100 93 101 94 ?1 29 98 407
 0 101 102 94 -.001154474420936376 .003109657890248805 0 18 101 367 103 104 97 1
05 98 ?1 29 102 409 0 105 106 98 -.01195447442093638 .0031096578902488 0 18 105
 375 107 108 101 0 102 ?1 29 106 159 0 83 109 102 -.0124285880756303 -.012090342
1097512 .01 18 83 157 110 111 79 112 106 ?1 29 109 154 0 112 113 106 .0018455255
7906362 .0061096578902488 .01 18 112 152 114 115 83 116 109 ?1 29 113 149 0 116
 117 109 .00184552557906362 -.0150903421097512 .01 18 116 147 118 119 112 120 11
3 ?1 29 117 139 0 120 121 113 -.001154474420936374 -.0120903421097512 .01 18 120
 137 122 123 116 124 117 ?1 29 121 134 0 124 125 117 -.001154474420936376 .00310
9657890248805 .01 18 124 132 126 127 120 88 121 ?1 29 125 119 0 88 0 121 -.01195
447442093638 .0031096578902488 .01 18 88 117 128 129 124 84 125 ?1 81 1 128 534
 29 88 0 0 107 130 131 17 129 0 132 133 134 88 108 135 0 136 -15 255 132 442 0 1
33 16 0 17 133 0 132 82 129 68 136 137 0 138 +17 134 0 132 129 82 105 139 140 0
 141 -17 108 0 142 143 144 105 129 135 0 134 +16 135 421 145 ?108 146 147 148 0
 0 1 17 136 0 33 149 34 88 133 137 0 144 -15 33 5 0 150 151 0 17 149 0 33 123 13
6 124 144 152 0 0 -17 34 0 33 136 27 68 38 153 0 133 +16 137 34 154 ?133 155 156
 157 0 0 1 17 144 0 142 108 127 88 149 152 0 0 +15 142 438 0 143 158 0 17 127 0
 142 144 143 124 104 147 0 159 -16 152 50 160 ?144 161 155 162 0 0 1 81 1 160 56
8 29 152 0 0 163 164 165 16 161 58 166 ?123 167 152 168 0 0 1 16 155 42 169 ?35
 152 137 170 0 0 1 30 162 51 0 152 170 168 0 +-.00616801259866785 .0031096578902
488 .01 -1 -1224646799147352e-31 0 30 170 43 0 155 157 162 0 +-.0061680125986678
5 .0061096578902488 .01 -1 -1224646799147352e-31 0 30 168 59 0 161 162 171 0 +-.
001154474420936374 -.00318937667277505 .01 612323399573677e-31 -1 0 30 171 67 0
 167 168 172 0 +.00577486027864381 -.0150903421097512 .01 1 0 0 16 167 757 173 ?
119 174 161 171 0 0 1 30 172 71 0 174 171 175 0 +.00184552557906362 -.0023893766
72775055 .01 612323399573677e-31 -1 0 16 174 70 176 ?177 178 167 172 0 0 1 30 17
5 79 0 178 172 179 0 +-.00640506942601482 -.0120903421097512 .01 -1 0 0 16 178 7
8 180 ?111 181 174 175 0 0 1 30 179 95 0 181 175 182 0 +-.0124285880756303 -.012
86968094865416 .01 -183697019872103e-30 1 0 16 181 94 183 ?184 185 178 179 0 0 1
 30 182 397 0 140 179 186 0 +-.01195447442093638 .002851501932379975 0 612323399
573677e-31 -1 0 16 140 325 187 ?139 188 0 182 0 0 1 30 186 396 0 188 182 189 0 +
-.00616801259866785 .0061096578902488 0 -1 -1224646799147352e-31 0 16 188 319 19
0 ?191 192 140 186 0 0 1 30 189 395 0 192 186 193 0 +-.00616801259866785 .003109
6578902488 0 -1 -1224646799147352e-31 0 16 192 315 163 ?141 194 188 189 0 0 1 30
 193 394 0 194 189 195 0 +-.001154474420936374 -.00318937667277505 0 61232339957
3677e-31 -1 0 16 194 311 196 ?100 197 192 193 0 0 1 30 195 393 0 197 193 198 0 +
.00577486027864381 -.0150903421097512 0 1 0 0 16 197 753 199 ?96 200 194 195 0 0
 1 30 198 392 0 200 195 201 0 +.00184552557906362 -.002389376672775055 0 6123233
99573677e-31 -1 0 16 200 301 202 ?203 204 197 198 0 0 1 30 201 391 0 204 198 205
 0 +-.00640506942601482 -.0120903421097512 0 -1 0 0 16 204 297 206 ?87 156 200 2
01 0 0 1 30 205 389 0 156 201 207 0 +-.0124285880756303 -.01286968094865416 0 -1
83697019872103e-30 1 0 16 156 287 208 ?209 137 204 205 0 0 1 30 207 463 0 210 20
5 211 0 +-.0124285880756303 -.0120903421097512 .01 0 0 -1 16 210 415 212 ?213 21
4 215 207 0 0 1 30 211 464 0 185 207 216 0 +.00184552557906362 .0061096578902488
 .01 0 0 -1 16 185 416 130 ?92 215 181 211 0 0 1 30 216 465 0 215 211 217 0 +.00
184552557906362 -.0150903421097512 .01 0 0 -1 16 215 417 218 ?219 210 185 216 0
 0 1 30 217 466 0 214 216 220 0 +-.001154474420936374 -.0120903421097512 .01 0 0
 -1 16 214 418 221 ?222 147 210 217 0 0 1 30 220 467 0 147 217 148 0 +-.00115447
4420936376 .003109657890248805 .01 0 0 -1 16 147 419 223 ?104 135 214 220 0 0 1
 30 148 469 0 135 220 224 0 +-.01195447442093638 .0031096578902488 .01 0 0 -1 30
 224 619 0 146 148 225 0 --.01175447442093638 .0011096578902488 0 .7071067811865
48 -.707106781186548 0 16 146 617 226 ?227 228 135 224 0 0 1 30 225 624 0 228 22
4 229 0 --.0152285880756303 -.0130903421097512 0 -.707106781186548 -.70710678118
6548 0 16 228 766 230 ?78 231 146 225 0 0 1 30 229 633 0 231 225 232 0 --.012428
5880756303 -.0102903421097512 .01 0 0 -1 16 231 631 233 ?74 153 228 229 0 0 1 30
 232 646 0 153 229 234 0 --.00642300283460986 -.004221813696077715 .01 -.7071067
81186548 .707106781186548 0 16 153 801 235 ?34 236 231 232 0 0 1 30 234 651 0 23
6 232 237 0 --.00666005966195683 -.00452181369607771 .01 .707106781186548 .70710
6781186548 0 16 236 649 238 ?150 239 153 234 0 0 1 30 237 656 0 239 234 240 0 --
.01195447442093638 .001309657890248802 .01 0 0 1 16 239 654 241 ?82 242 236 237
 0 0 1 30 240 762 0 242 237 243 0 +-.0117285880756303 -.0150903421097512 0 0 0 -
1 16 242 760 31 ?244 245 239 240 0 0 1 30 243 779 0 245 240 246 0 --.01475447442
093638 .0026096578902488 0 -.707106781186548 -.707106781186548 0 16 245 777 247
 ?52 248 242 243 0 0 1 30 246 784 0 248 243 249 0 +-.0117285880756303 -.01509034
21097512 0 -.707106781186547 .707106781186548 0 16 248 782 250 ?59 251 245 246 0
 0 1 30 249 793 0 251 246 252 0 --.0144785880756303 -.0123403421097512 .01 0 0 -
1 16 251 791 253 ?47 37 248 249 0 0 1 30 252 806 0 37 249 254 0 --.0142730028346
0986 .00309112947657532 .01 .707106781186548 .707106781186548 0 16 37 804 255 ?2
7 256 251 252 0 0 1 30 254 811 0 256 252 20 0 +-.01451005966195682 -.01230887052
342468 .01 .707106781186547 -.707106781186548 0 16 256 809 257 ?63 25 37 254 0 0
 1 30 20 816 0 25 254 7 0 +-.01400447442093638 .0033596578902488 .01 0 0 -1 16 2
5 814 258 ?55 10 256 20 0 0 1 81 1 258 891 29 25 0 0 23 247 259 17 55 0 260 261
 38 53 45 25 0 227 +15 260 701 0 38 262 0 17 261 0 260 138 55 79 227 146 0 0 -17
 38 0 260 55 138 11 34 153 0 45 -17 45 0 43 36 263 11 55 25 0 0 -17 227 0 264 52
 139 53 261 146 0 263 +15 264 282 0 265 266 0 17 52 0 264 267 227 48 263 245 0 1
91 +17 139 0 264 227 141 79 134 140 0 261 +17 263 0 43 45 44 53 52 245 0 0 -15 4
3 861 0 36 18 0 17 44 0 43 263 36 48 24 10 0 0 -17 24 0 268 269 191 28 44 10 0 3
5 +15 268 440 0 191 270 0 17 269 0 268 92 24 112 35 155 0 271 -17 191 0 268 24 9
2 48 267 188 0 44 +17 35 0 33 27 271 28 269 155 0 0 +17 271 0 33 35 119 112 177
 174 0 0 -17 119 0 33 271 63 116 272 167 0 273 +17 177 0 274 219 115 116 271 174
 0 0 +15 274 432 0 275 276 0 17 219 0 274 275 177 93 273 215 0 203 +17 115 0 274
 177 275 112 92 185 0 269 -17 275 0 274 115 219 89 203 200 0 0 -17 92 0 268 191
 269 89 115 185 0 267 +17 267 0 264 203 52 89 191 188 0 275 -17 203 0 264 265 26
7 93 275 200 0 0 +17 265 0 264 59 203 64 96 197 0 0 -17 59 0 264 78 265 56 67 24
8 0 277 +17 96 0 278 273 244 93 265 197 0 219 +15 278 434 0 272 279 0 17 273 0 2
78 272 96 116 219 215 0 177 -17 244 0 278 96 272 64 280 242 0 265 +17 272 0 278
 244 273 60 119 167 0 280 -17 280 0 281 282 67 60 244 242 0 0 -15 281 840 0 282
 283 0 17 282 0 281 284 280 40 63 256 0 0 -17 67 0 281 280 284 64 59 248 0 244 -
17 284 0 281 67 282 56 47 251 0 0 -17 47 0 285 286 277 40 284 251 0 150 +15 285
 680 0 277 287 0 17 286 0 285 288 47 71 150 236 0 0 -17 277 0 285 47 288 56 78 2
28 0 284 -17 150 0 33 63 184 40 286 236 0 282 +17 63 0 33 119 150 60 282 256 0 2
72 +17 184 0 33 150 111 71 289 181 0 286 +17 111 0 33 184 123 83 290 178 0 291 +
17 289 0 292 213 74 83 184 181 0 0 -15 292 426 0 209 293 0 17 213 0 292 209 289
 84 291 210 0 294 +17 74 0 292 289 209 71 288 231 0 184 +17 209 0 292 74 213 75
 294 156 0 288 +17 288 0 285 277 286 75 74 231 0 0 -17 294 0 264 295 78 84 209 1
56 0 0 -17 295 0 264 296 294 97 87 204 0 0 -17 78 0 264 294 59 75 277 228 0 209
 +17 296 0 264 141 295 101 100 194 0 143 -17 87 0 297 291 222 84 295 204 0 213 +
15 297 430 0 87 298 0 17 291 0 297 290 87 83 213 210 0 289 -17 222 0 297 87 290
 97 299 214 0 295 +17 290 0 297 222 291 120 111 178 0 0 -17 299 0 300 159 100 12
0 222 214 0 290 -15 300 436 0 100 301 0 17 159 0 300 104 299 124 123 161 0 149 -
17 100 0 300 299 104 97 296 194 0 222 +17 104 0 300 100 159 101 127 147 0 296 +1
7 123 0 33 111 149 120 159 161 0 299 +14 255 301 437 302 ?298 158 300 5 303 -0 0
 298 158 22 81 1 302 914 304 301 164 0 305 306 307 14 298 431 306 ?293 301 297 5
 308 -0 0 293 301 22 14 158 439 305 ?301 16 142 5 309 +0 0 301 16 22 50 303 454
 0 301 310 309 0 +-.001154474420936374 -.00318937667277505 .01 1 612323399573677
e-31 0 -612323399573677e-31 1 0 13 22 184 0 0 0 0 0 0 9 16 14 16 443 311 ?158 0
 132 5 312 +0 0 158 0 22 81 1 311 912 304 16 313 0 0 305 314 50 312 457 0 16 315
 316 0 +-.01195447442093638 .002851501932379975 .01 1 612323399573677e-31 0 -612
323399573677e-31 1 0 50 315 456 0 270 309 312 0 +-.00616801259866785 .0061096578
902488 .01 1224646799147352e-31 -1 0 1 1224646799147352e-31 0 50 316 691 0 287 3
12 317 0 --.0152285880756303 -.0130903421097512 .01 .707106781186548 -.707106781
186548 0 0 0 -1 14 287 679 318 ?262 266 285 5 316 +0 0 262 266 22 50 317 712 0 2
62 316 19 0 --.01175447442093638 .0011096578902488 .01 .707106781186548 .7071067
81186548 0 0 0 -1 14 262 700 319 ?283 287 260 5 317 +0 0 283 287 22 50 19 851 0
 283 317 6 0 +-.0117285880756303 -.0150903421097512 .01 -.707106781186548 -.7071
06781186547 0 0 0 1 14 283 839 320 ?18 262 281 5 19 +0 0 18 262 22 81 1 320 924
 304 283 321 0 319 322 323 14 18 860 322 ?0 283 43 5 6 +0 0 0 283 22 81 1 322 92
5 304 18 324 0 320 0 325 80 255 1 304 0 326 8001 0 0 0 0 3 5 0 0 0 FFFFTFTFFFFFF
F2 81 1 324 903 29 18 0 322 321 327 328 83 255 3 325 .603921568627451 .647058823
529412 .686274509803922 80 1 29 329 330 9000 0 0 0 0 3 6 0 0 0 FFTFTFTTFFFFFF1 8
1 1 321 902 29 283 0 320 226 324 331 81 1 327 904 29 270 0 332 324 333 334 82 25
5 3 328 8 1 2 14 270 441 332 ?151 276 268 5 315 -0 0 151 276 22 81 1 332 919 304
 270 327 0 335 336 337 81 1 333 905 29 279 0 338 327 339 340 82 3 334 8 2 2 14 2
79 435 338 ?276 293 278 5 310 -0 0 276 293 22 81 1 338 917 304 279 333 0 341 335
 342 81 1 339 906 29 287 0 318 333 343 344 82 3 340 8 3 2 81 1 318 922 304 287 3
39 0 345 319 346 81 1 343 907 29 262 0 319 339 347 348 82 3 344 8 4 2 81 1 319 9
23 304 262 343 0 318 320 349 81 1 347 908 29 266 0 345 343 350 351 82 3 348 8 5
 2 14 266 259 345 ?287 151 264 5 352 -0 0 287 151 22 81 1 345 921 304 266 347 0
 336 318 353 81 1 350 909 29 151 0 336 347 0 354 82 3 351 8 6 2 14 151 1 336 ?26
6 270 33 5 355 +0 0 266 270 22 81 1 336 920 304 151 350 0 332 345 356 82 3 354 8
 7 2 83 3 356 .603921568627451 .647058823529412 .686274509803922 50 355 2 0 151
 0 352 0 +-.00669153124828334 -.0044903421097512 .01 0 0 1 1 0 0 50 352 387 0 26
6 355 357 0 +-.00669153124828334 -.0044903421097512 0 0 0 1 1 0 0 50 357 449 0 2
93 352 308 0 +-.0124285880756303 -.01286968094865416 .01 -1 -183697019872103e-30
 0 183697019872103e-30 -1 0 14 293 427 341 ?279 298 292 5 357 -0 0 279 298 22 50
 308 451 0 298 357 358 0 +-.00640506942601482 -.0120903421097512 .01 0 -1 0 0 0
 -1 50 358 452 0 276 308 310 0 +.00184552557906362 -.002389376672775055 .01 1 61
2323399573677e-31 0 -612323399573677e-31 1 0 14 276 433 335 ?270 279 274 5 358 +
0 0 270 279 22 50 310 453 0 279 358 303 0 +.00577486027864381 -.0150903421097512
 .01 0 1 0 0 0 1 81 1 335 918 304 276 359 0 338 332 360 81 1 359 580 29 276 0 33
5 164 361 362 83 3 360 .603921568627451 .647058823529412 .686274509803922 81 1 1
64 579 29 301 0 302 160 359 363 81 1 361 581 29 298 0 306 359 364 365 82 3 362 6
 5 2 81 1 306 915 304 298 361 0 302 341 366 81 1 364 585 29 158 0 305 361 367 36
8 82 3 365 6 6 2 81 1 305 913 304 158 364 0 311 302 369 81 1 367 589 29 1 0 13 3
64 77 370 82 3 368 6 10 2 81 1 13 910 371 1 367 2 0 0 372 81 1 77 719 29 75 0 0
 367 73 373 82 3 370 6 0 3 81 1 73 721 29 71 0 0 77 81 374 82 3 373 7 1 0 81 1 8
1 723 29 79 0 0 73 70 375 82 3 374 7 3 0 81 1 70 725 29 68 0 0 81 233 376 82 3 3
75 7 5 0 81 1 233 729 29 231 0 0 70 241 377 82 3 376 7 7 0 81 1 241 733 29 239 0
 0 233 208 378 82 3 377 7 3 1 81 1 208 736 29 156 0 0 241 183 379 82 3 378 7 7 1
 81 1 183 737 29 181 0 0 208 187 380 82 3 379 7 10 1 81 1 187 740 29 140 0 0 183
 154 381 82 3 380 7 11 1 81 1 154 741 29 137 0 0 187 382 383 82 3 381 7 14 1 81
 1 382 747 29 293 0 341 154 313 384 82 3 383 7 15 1 81 1 341 916 304 293 382 0 3
06 338 385 81 1 313 749 29 16 0 311 382 66 386 82 3 384 7 5 2 81 1 66 878 29 64
 0 0 313 62 387 82 3 386 7 7 2 81 1 62 879 29 60 0 0 66 58 388 82 3 387 8 0 0 81
 1 58 880 29 56 0 0 62 46 389 82 3 388 8 1 0 81 1 46 881 29 40 0 0 58 41 390 82
 3 389 8 2 0 81 1 41 882 29 48 0 0 46 39 391 82 3 390 8 3 0 82 3 391 8 4 0 83 3
 385 .603921568627451 .647058823529412 .686274509803922 80 1 371 12 392 8038 0 0
 0 0 0 0 0 0 0 TTTTTTTTTTTTTF10 98 255 13 372 99 97 98 108 101 32 104 111 108 10
0 101 114 115 79 255 14 392 SDL/TYSA_UNAME83 3 369 .603921568627451 .64705882352
9412 .686274509803922 83 3 366 .603921568627451 .647058823529412 .68627450980392
2 82 3 363 6 4 2 83 3 353 .603921568627451 .647058823529412 .686274509803922 83
 3 349 .603921568627451 .647058823529412 .686274509803922 83 3 346 .603921568627
451 .647058823529412 .686274509803922 83 3 342 .603921568627451 .647058823529412
 .686274509803922 83 3 337 .603921568627451 .647058823529412 .686274509803922 81
 1 226 901 29 146 0 0 238 321 393 82 3 331 8 0 2 81 1 238 900 29 236 0 0 169 226
 394 82 3 393 8 15 1 81 1 169 899 29 155 0 0 190 238 395 82 3 394 8 14 1 81 1 19
0 898 29 188 0 0 235 169 396 82 3 395 8 13 1 81 1 235 897 29 153 0 0 230 190 397
 82 3 396 8 12 1 81 1 230 896 29 228 0 0 173 235 398 82 3 397 8 11 1 81 1 173 89
5 29 167 0 0 199 230 399 82 3 398 8 10 1 81 1 199 894 29 197 0 0 255 173 400 82
 3 399 8 9 1 81 1 255 893 29 37 0 0 247 199 401 82 3 400 8 8 1 81 1 247 892 29 2
45 0 0 258 255 402 82 3 401 8 7 1 82 3 402 8 6 1 79 9 330 BTI/DetId79 15 326 SDL
/TYSA_COLOUR83 3 323 .603921568627451 .647058823529412 .686274509803922 50 309 4
55 0 158 303 315 0 +-.00616801259866785 .0031096578902488 .01 1224646799147352e-
31 -1 0 1 1224646799147352e-31 0 83 3 314 .603921568627451 .647058823529412 .686
274509803922 83 3 307 .603921568627451 .647058823529412 .686274509803922 17 141
 0 264 139 296 105 143 192 0 0 +17 143 0 142 127 108 101 141 192 0 0 -17 138 0 2
60 38 261 68 82 239 0 0 -17 82 0 132 134 133 79 138 239 0 139 +81 1 23 890 29 10
 0 0 257 258 403 82 3 259 8 5 1 81 1 257 889 29 256 0 0 250 23 404 82 3 403 8 4
 1 81 1 250 888 29 248 0 0 253 257 405 82 3 404 8 3 1 81 1 253 887 29 251 0 0 31
 250 406 82 3 405 8 2 1 81 1 31 886 29 242 0 0 26 253 407 82 3 406 8 1 1 82 3 40
7 8 0 1 81 1 223 541 29 147 0 0 218 221 408 81 1 218 540 29 215 0 0 130 223 409
 81 1 221 542 29 214 0 0 223 212 410 82 3 408 6 2 1 81 1 212 544 29 210 0 0 221
 145 411 82 3 410 6 3 1 81 1 145 548 29 135 0 0 212 196 412 82 3 411 6 5 1 81 1
 196 555 29 194 0 0 145 166 413 82 3 412 6 9 1 81 1 166 556 29 161 0 0 196 202 4
14 82 3 413 6 16 1 81 1 202 557 29 200 0 0 166 176 415 82 3 414 6 17 1 81 1 176
 558 29 174 0 0 202 206 416 82 3 415 6 18 1 81 1 206 559 29 204 0 0 176 180 417
 82 3 416 6 19 1 81 1 180 560 29 178 0 0 206 163 418 82 3 417 6 20 1 81 1 163 56
7 29 192 0 0 180 160 419 82 3 418 6 21 1 82 3 419 6 28 1 81 1 130 539 29 185 0 0
 128 218 420 82 3 409 6 1 1 82 3 420 6 0 1 30 157 35 0 137 0 170 0 +-.0119544744
2093638 .002851501932379975 .01 612323399573677e-31 -1 0 82 3 165 6 29 1 81 1 10
7 533 29 105 0 0 110 128 421 82 3 131 6 19 0 81 1 110 526 29 83 0 0 86 107 422 8
2 3 421 6 18 0 81 1 86 525 29 84 0 0 122 110 423 82 3 422 6 11 0 81 1 122 522 29
 120 0 0 99 86 424 82 3 423 6 10 0 81 1 99 521 29 97 0 0 126 122 425 82 3 424 6
 7 0 81 1 126 520 29 124 0 0 103 99 426 82 3 425 6 6 0 81 1 103 519 29 101 0 0 1
18 126 427 82 3 426 6 5 0 81 1 118 518 29 116 0 0 95 103 428 82 3 427 6 4 0 81 1
 95 517 29 93 0 0 114 118 429 82 3 428 6 3 0 81 1 114 516 29 112 0 0 91 95 430 8
2 3 429 6 2 0 81 1 91 515 29 89 0 0 0 114 431 82 3 430 6 1 0 82 3 431 6 0 0 81 1
 30 884 29 53 0 0 39 26 432 82 3 432 8 6 0 82 3 42 8 5 0 82 3 32 8 7 0 19 17 473
 0 1 0 9 5 S0 74 4 CI16 index_map_offset0 0 1 dCCZ20 15 4 0 0 350 13 2 322 0 0 0
 0 0 0 0 0 0 0 0 0 0 0 0 0 80 1 12 433 434 8017 0 0 0 0 0 0 0 0 0 TTTTTTTTTTTTTF
3 84 255 13 14 cable holders79 13 434 SDL/TYSA_NAME1 0 
