**ABCDEFGHIJKLMNOPQRSTUVWXYZabcdefghijklmnopqrstuvwxyz**************************
**PARASOLID !"#$%&'()*+,-./:;<=>?@[\]^_`{|}~0123456789**************************
**PART1;
MC=unknown;
MC_MODEL=unknown;
MC_ID=unknown;
OS=unknown;
OS_RELEASE=unknown;
FRU=Parasolid 28.1.231;
APPL=Onshape;
SITE=unknown;
USER=unknown;
FORMAT=text;
GUISE=transmit;
KEY=BTGapi::writeModels_.xmt;
FILE=BTGapi::writeModels_.xmt;
DATE=2016-06-28T20:59:13 (UTC);
**PART2;
SCH=SCH_2801231_28101;
USFLD_SIZE=0;
**PART3;
**END_OF_HEADER*****************************************************************
T51 : TRANSMIT FILE created by modeller version 280123123 SCH_2801231_28101_1300
6203 0 12 33 CCCCCCI4 mesh1006 0 I8 polyline1008 0 CCCCCCCDI5 owner1040 0 CCCCCC
I13 boundary_mesh1006 0 I17 boundary_polyline1008 0 CCCA16 index_map_offset0 0 1
 dA9 index_map82 0 A17 node_id_index_map82 0 A20 schema_embedding_map82 0 A5 chi
ld12 0 A14 lowest_node_id0 0 1 dZ1 1543 2 3 0 0 0 0 0 0 1e3 1e-8 0 4 0 1 0 1 1 5
 6 7 8 0 0 9 10 11 0 0 0 0 0 0 81 255 1 2 1519 12 1 13 0 0 0 14 70 11 CI9 list_t
ype0 0 1 uI10 notransmit0 0 1 lCCCDCCDI12 finger_index0 0 1 dI12 finger_block101
2 0 CZ3 0 4 T1 0 0 4 20 1 15 15 13 255 5 848 0 1 0 16 0 0 17 0 50 255 6 1480 0 1
8 19 0 0 +.00284552557906362 .0061096578902488 .01 .707106781186547 .70710678118
6548 0 0 0 1 30 255 7 1435 0 10 20 0 0 +.00484552557906362 .004109657890248805 .
01 0 0 1 29 255 8 1417 0 11 21 0 .00284552557906362 .0061096578902488 .01 19 8 C
CCCCCCA5 owner12 0 Z9 339 0 1 17 0 22 V0 16 255 10 1433 23 ?24 0 25 7 0 0 1 18 2
55 11 1414 26 27 0 28 8 ?1 81 1 26 1493 29 11 0 0 30 31 32 17 255 27 0 33 34 35
 11 36 37 0 38 +18 28 1410 39 24 11 40 21 ?1 81 1 39 1491 29 28 0 0 41 30 42 17
 24 0 43 44 45 28 46 10 0 35 +18 40 1401 47 48 28 49 50 ?1 29 21 1413 0 28 50 8
 .00484552557906362 .004109657890248805 .01 29 50 1404 0 40 51 21 .0028455255790
6362 -.0153903421097512 .01 29 51 1390 0 49 52 50 .00484552557906362 .0041096578
90248805 0 18 49 1387 41 53 40 54 51 ?1 29 52 1386 0 54 55 51 .00284552557906362
 .0061096578902488 0 18 54 1383 30 56 49 57 52 ?1 29 55 1382 0 57 58 52 .0028455
2557906362 -.0153903421097512 0 18 57 1379 59 60 54 61 55 ?1 29 58 1373 0 61 62
 55 .00484552557906362 -.0133903421097512 .01 18 61 1370 63 64 57 65 58 ?1 29 62
 1369 0 65 66 58 .00484552557906362 -.0133903421097512 0 18 65 1366 67 68 61 69
 62 ?1 29 66 1257 0 69 70 62 -.01400447442093638 .0033596578902488 .01 18 69 125
4 71 72 65 73 66 ?1 29 70 1253 0 73 74 66 -.01125447442093638 .0061096578902488
 .01 18 73 1250 75 34 69 76 70 ?1 29 74 1244 0 76 77 70 -.0144785880756303 -.012
6403421097512 .01 18 76 1241 78 79 73 80 74 ?1 29 77 1230 0 80 81 74 -.011254474
42093638 .0061096578902488 0 18 80 1227 82 83 76 84 77 ?1 29 81 1226 0 84 85 77
 -.01400447442093638 .0033596578902488 0 18 84 1223 86 87 80 88 81 ?1 29 85 1222
 0 88 89 81 -.0144785880756303 -.0126403421097512 0 18 88 1219 90 91 84 92 85 ?1
 29 89 1213 0 92 93 85 -.0117285880756303 -.0153903421097512 .01 18 92 1210 94 9
5 88 96 89 ?1 29 93 1209 0 96 97 89 -.0117285880756303 -.0153903421097512 0 18 9
6 1206 98 99 92 100 93 ?1 29 97 1093 0 100 101 93 -.01195447442093638 .001309657
890248802 .01 18 100 1090 102 103 96 104 97 ?1 29 101 1084 0 104 105 97 -.012428
5880756303 -.0105903421097512 .01 18 104 1081 106 107 100 108 101 ?1 29 105 1070
 0 108 109 101 -.0124285880756303 -.0105903421097512 0 18 108 1067 110 111 104 1
12 105 ?1 29 109 1062 0 112 113 105 -.01195447442093638 .001309657890248802 0 18
 112 1059 114 115 108 116 109 ?1 29 113 729 0 117 118 109 .00484552557906362 .00
1309657890248804 0 18 117 629 119 120 121 122 113 ?1 29 118 730 0 122 123 113 .0
0334552557906362 -.000890342109751197 0 18 122 633 124 125 117 126 118 ?1 29 123
 732 0 126 127 118 .00334552557906362 .003109657890248805 0 18 126 641 128 129 1
22 130 123 ?1 29 127 733 0 130 131 123 .00334552557906362 -.003390342109751195 0
 18 130 645 132 133 126 134 127 ?1 29 131 734 0 134 135 127 .00484552557906362 -
.001190342109751196 0 18 134 649 136 137 130 138 131 ?1 29 135 735 0 138 139 131
 .003345525579063625 -.0123903421097512 0 18 138 653 140 141 134 142 135 ?1 29 1
39 740 0 142 143 135 -.0124285880756303 -.0123903421097512 0 18 142 673 144 145
 138 146 139 ?1 29 143 741 0 146 147 139 -.00315447442093638 .003109657890248805
 0 18 146 677 148 149 142 150 143 ?1 29 147 742 0 150 151 143 -.0031544744209363
8 -.0123903421097512 0 18 150 681 152 153 146 154 147 ?1 29 151 743 0 154 155 14
7 -.00615447442093638 -.0123903421097512 0 18 154 685 156 157 150 158 151 ?1 29
 155 744 0 158 159 151 -.00615447442093638 .0031096578902488 0 18 158 689 160 16
1 154 162 155 ?1 29 159 746 0 162 163 155 -.01195447442093638 .0031096578902488
 0 18 162 697 164 165 158 0 159 ?1 29 163 335 0 116 166 159 .00484552557906362 .
001309657890248804 .01 18 116 333 167 44 112 168 163 ?1 29 166 330 0 168 169 163
 .00334552557906362 -.000890342109751197 .01 18 168 328 170 171 116 172 166 ?1 2
9 169 315 0 172 173 166 .00334552557906362 .003109657890248805 .01 18 172 313 17
4 175 168 176 169 ?1 29 173 305 0 176 177 169 .00334552557906362 -.0033903421097
51195 .01 18 176 303 178 179 172 180 173 ?1 29 177 300 0 180 181 173 .0048455255
7906362 -.001190342109751196 .01 18 180 298 182 183 176 184 177 ?1 29 181 290 0
 184 185 177 .003345525579063625 -.0123903421097512 .01 18 184 288 186 187 180 1
88 181 ?1 29 185 255 0 188 189 181 -.0124285880756303 -.0123903421097512 .01 18
 188 253 190 191 184 192 185 ?1 29 189 245 0 192 193 185 -.00315447442093638 .00
3109657890248805 .01 18 192 243 194 195 188 196 189 ?1 29 193 240 0 196 197 189
 -.00315447442093638 -.0123903421097512 .01 18 196 238 198 199 192 200 193 ?1 29
 197 225 0 200 201 193 -.00615447442093638 -.0123903421097512 .01 18 200 223 202
 203 196 204 197 ?1 29 201 220 0 204 205 197 -.00615447442093638 .00310965789024
88 .01 18 204 218 206 207 200 121 201 ?1 29 205 205 0 121 0 201 -.01195447442093
638 .0031096578902488 .01 18 121 203 208 209 204 117 205 ?1 81 1 208 940 29 121
 0 0 164 140 210 17 209 0 211 212 213 121 165 214 0 215 -15 255 211 803 0 212 16
 0 17 212 0 211 115 209 100 215 216 0 217 +17 213 0 211 209 115 162 218 219 0 22
0 -17 165 0 221 222 223 162 209 214 0 213 +16 214 766 224 ?165 225 226 227 0 0 1
 17 215 0 33 228 103 121 212 216 0 223 -15 33 5 0 229 230 0 17 228 0 33 203 215
 204 223 231 0 0 -17 103 0 33 215 72 100 232 233 0 212 +16 216 50 234 ?212 235 2
36 237 0 0 1 17 223 0 221 165 207 121 228 231 0 0 +15 221 799 0 222 238 0 17 207
 0 221 223 222 204 161 226 0 239 -16 231 66 240 ?223 241 235 242 0 0 1 81 1 240
 998 29 231 0 0 243 244 245 16 241 74 246 ?203 247 231 248 0 0 1 16 235 1415 249
 ?34 231 216 250 0 0 1 30 242 67 0 231 250 248 0 +-.00616801259866785 .003109657
8902488 .01 -1 -1224646799147352e-31 0 30 250 59 0 235 237 242 0 +-.006168012598
66785 .0061096578902488 .01 -1 -1224646799147352e-31 0 30 248 75 0 241 242 251 0
 +-.00615447442093638 -.00318937667277505 .01 612323399573677e-31 -1 0 30 251 83
 0 247 248 252 0 +.00577486027864381 -.0153903421097512 .01 1 0 0 16 247 1211 25
3 ?229 254 241 251 0 0 1 30 252 91 0 254 251 255 0 +-.00315447442093638 -.002389
376672775055 .01 612323399573677e-31 -1 0 16 254 90 256 ?257 258 247 252 0 0 1 3
0 255 103 0 258 252 259 0 +-.00640506942601482 -.0123903421097512 .01 -1 -122464
6799147352e-31 0 16 258 102 260 ?191 261 254 255 0 0 1 30 259 119 0 261 255 262
 0 +-.0124285880756303 -.01316968094865416 .01 -183697019872103e-30 1 0 16 261 1
18 263 ?264 265 258 259 0 0 1 30 262 131 0 265 259 266 0 +.00484552557906362 -.0
13674775353497 .01 -183697019872103e-30 1 0 16 265 1371 267 ?183 268 261 262 0 0
 1 30 266 139 0 268 262 269 0 +.00284552557906362 -.0123903421097512 .01 -1 -122
4646799147352e-31 0 16 268 138 270 ?199 271 265 266 0 0 1 30 269 151 0 271 266 2
72 0 +.00467106450063209 -.001446218358117448 .01 .56333682464151 .8262273428075
48 0 16 271 150 273 ?274 275 268 269 0 0 1 30 272 155 0 275 269 276 0 +.00334552
557906362 -.004490342109751195 .01 -183697019872103e-30 1 0 16 275 154 277 ?278
 279 271 272 280 280 1 30 276 163 0 279 272 281 0 +.00635776181216465 .003109657
890248805 .01 1 0 0 16 279 162 282 ?175 283 275 276 0 0 1 30 281 175 0 283 276 2
84 0 +.00484552557906362 .00453824315084691 .01 612323399573677e-31 -1 0 16 283
 1411 285 ?44 280 279 281 0 0 1 30 284 185 0 286 281 287 0 +.00496272062950624 .
001481543964231312 .01 .56333682464151 .826227342807548 0 16 286 184 288 ?289 29
0 280 284 0 0 1 30 287 726 0 219 284 291 0 +-.01195447442093638 .002851501932379
975 0 612323399573677e-31 -1 0 16 219 615 292 ?218 293 0 287 0 0 1 30 291 725 0
 293 287 294 0 +-.00616801259866785 .0061096578902488 0 -1 -1224646799147352e-31
 0 16 293 1384 295 ?83 296 219 291 0 0 1 30 294 724 0 296 291 297 0 +-.006168012
59866785 .0031096578902488 0 -1 -1224646799147352e-31 0 16 296 603 243 ?220 298
 293 294 0 0 1 30 297 723 0 298 294 299 0 +-.00615447442093638 -.003189376672775
05 0 612323399573677e-31 -1 0 16 298 599 300 ?157 301 296 297 0 0 1 30 299 722 0
 301 297 302 0 +.00577486027864381 -.0153903421097512 0 1 0 0 16 301 1207 303 ?3
04 305 298 299 0 0 1 30 302 721 0 305 299 306 0 +-.00315447442093638 -.002389376
672775055 0 612323399573677e-31 -1 0 16 305 587 307 ?308 309 301 302 0 0 1 30 30
6 720 0 309 302 310 0 +-.00640506942601482 -.0123903421097512 0 -1 -122464679914
7352e-31 0 16 309 583 311 ?145 312 305 306 0 0 1 30 310 718 0 312 306 313 0 +-.0
124285880756303 -.01316968094865416 0 -183697019872103e-30 1 0 16 312 573 314 ?3
15 316 309 310 0 0 1 30 313 716 0 316 310 317 0 +.00484552557906362 -.0136747753
53497 0 -183697019872103e-30 1 0 16 316 1367 318 ?137 319 312 313 0 0 1 30 317 7
15 0 319 313 320 0 +.00284552557906362 -.0123903421097512 0 -1 -1224646799147352
e-31 0 16 319 557 244 ?321 322 316 317 0 0 1 30 320 714 0 322 317 323 0 +.004671
06450063209 -.001446218358117448 0 .56333682464151 .826227342807548 0 16 322 553
 324 ?325 326 319 320 0 0 1 30 323 713 0 326 320 327 0 +.00334552557906362 -.004
490342109751195 0 -183697019872103e-30 1 0 16 326 549 328 ?329 330 322 323 331 3
31 1 30 327 712 0 330 323 332 0 +.00635776181216465 .003109657890248805 0 1 0 0
 16 330 543 333 ?334 335 326 327 0 0 1 30 332 711 0 335 327 336 0 +.004845525579
06362 .00453824315084691 0 612323399573677e-31 -1 0 16 335 1388 337 ?120 331 330
 332 0 0 1 30 336 710 0 236 332 338 0 +.00496272062950624 .001481543964231312 0
 .56333682464151 .826227342807548 0 16 236 529 339 ?340 216 331 336 0 0 1 30 338
 828 0 290 336 341 0 +.00484552557906362 .001309657890248804 .01 0 0 -1 16 290 7
49 342 ?343 344 286 338 0 0 1 30 341 829 0 344 338 345 0 +.00334552557906362 -.0
00890342109751197 .01 0 0 -1 16 344 750 346 ?125 347 290 341 0 0 1 30 345 831 0
 347 341 348 0 +.00334552557906362 .003109657890248805 .01 0 0 -1 16 347 752 349
 ?129 350 344 345 0 0 1 30 348 832 0 351 345 352 0 +.00334552557906362 -.0033903
42109751195 .01 0 0 -1 16 351 753 353 ?133 354 355 348 0 0 1 30 352 833 0 354 34
8 356 0 +.00484552557906362 -.001190342109751196 .01 0 0 -1 16 354 754 357 ?358
 359 351 352 0 0 1 30 356 834 0 355 352 360 0 +.003345525579063625 -.01239034210
97512 .01 0 0 -1 16 355 755 361 ?141 351 362 356 0 0 1 30 360 839 0 359 356 363
 0 +-.0124285880756303 -.0123903421097512 .01 0 0 -1 16 359 760 364 ?365 366 354
 360 0 0 1 30 363 840 0 350 360 367 0 +-.00315447442093638 .003109657890248805 .
01 0 0 -1 16 350 761 368 ?149 362 347 363 0 0 1 30 367 841 0 362 363 369 0 +-.00
315447442093638 -.0123903421097512 .01 0 0 -1 16 362 762 370 ?153 355 350 367 0
 0 1 30 369 842 0 366 367 371 0 +-.00615447442093638 -.0123903421097512 .01 0 0
 -1 16 366 763 372 ?373 226 359 369 0 0 1 30 371 843 0 226 369 227 0 +-.00615447
442093638 .0031096578902488 .01 0 0 -1 16 226 764 374 ?161 214 366 371 0 0 1 30
 227 845 0 214 371 375 0 +-.01195447442093638 .0031096578902488 .01 0 0 -1 30 37
5 1073 0 225 227 376 0 --.01175447442093638 .0011096578902488 0 .707106781186548
 -.707106781186548 0 16 225 1071 377 ?378 379 214 375 0 0 1 30 376 1078 0 379 37
5 380 0 --.0152285880756303 -.0133903421097512 0 -.707106781186548 -.70710678118
6548 0 16 379 1220 381 ?111 382 225 376 0 0 1 30 380 1087 0 382 376 383 0 --.012
4285880756303 -.0105903421097512 .01 0 0 -1 16 382 1085 384 ?107 233 379 380 0 0
 1 30 383 1100 0 233 380 385 0 --.00509800283460986 -.00554681369607771 .01 -.70
7106781186548 .707106781186548 0 16 233 1255 386 ?103 387 382 383 0 0 1 30 385 1
105 0 387 383 388 0 --.00533505966195683 -.003496813696077715 .01 .7071067811865
48 .707106781186548 0 16 387 1103 389 ?390 391 233 385 0 0 1 30 388 1110 0 391 3
85 392 0 --.01195447442093638 .001309657890248802 .01 0 0 1 16 391 1108 393 ?115
 394 387 388 0 0 1 30 392 1216 0 394 388 395 0 +-.0117285880756303 -.01539034210
97512 0 0 0 -1 16 394 1214 396 ?397 398 391 392 0 0 1 30 395 1233 0 398 392 399
 0 --.01475447442093638 .0026096578902488 0 -.707106781186548 -.707106781186548
 0 16 398 1231 400 ?401 402 394 395 0 0 1 30 399 1238 0 402 395 403 0 +-.0117285
880756303 -.0153903421097512 0 -.707106781186547 .707106781186548 0 16 402 1236
 404 ?91 405 398 399 0 0 1 30 403 1247 0 405 399 406 0 --.0144785880756303 -.012
6403421097512 .01 0 0 -1 16 405 1245 407 ?79 408 402 403 0 0 1 30 406 1260 0 408
 403 409 0 --.01309800283460986 .00426612947657532 .01 .707106781186548 .7071067
81186548 0 16 408 1258 410 ?72 411 405 406 0 0 1 30 409 1265 0 411 406 412 0 +-.
01333505966195682 -.01378387052342468 .01 .707106781186547 -.707106781186548 0 1
6 411 1263 413 ?95 414 408 409 0 0 1 30 412 1270 0 414 409 415 0 +-.014004474420
93638 .0033596578902488 .01 0 0 -1 16 414 1268 416 ?87 417 411 412 0 0 1 30 415
 1275 0 417 412 418 0 +-.01125447442093638 .0061096578902488 .01 0 0 1 16 417 12
73 419 ?420 421 414 415 0 0 1 30 418 1376 0 421 415 422 0 +.00484552557906362 -.
0133903421097512 .01 0 0 -1 16 421 1374 31 ?423 424 417 418 0 0 1 30 422 1393 0
 424 418 425 0 +.00284552557906362 .0061096578902488 0 .707106781186548 -.707106
781186547 0 16 424 1391 426 ?53 427 421 422 0 0 1 30 425 1398 0 427 422 428 0 -.
00484552557906362 -.0133903421097512 0 .707106781186548 .707106781186548 0 16 42
7 1396 429 ?60 430 424 425 0 0 1 30 428 1407 0 430 425 431 0 +.00284552557906362
 -.0153903421097512 .01 0 0 1 16 430 1405 432 ?48 37 427 428 0 0 1 30 431 1420 0
 37 428 433 0 +.00470199716539013 .00425318630392229 .01 -.707106781186548 .7071
06781186547 0 16 37 1418 434 ?27 435 430 431 0 0 1 30 433 1425 0 435 431 20 0 -.
00470199716539014 -.01353387052342468 .01 -.707106781186548 -.707106781186548 0
 16 435 1423 436 ?64 25 37 433 0 0 1 30 20 1430 0 25 433 7 0 +.00284552557906362
 .0061096578902488 0 0 0 -1 16 25 1428 437 ?438 10 435 20 0 0 1 81 1 437 1499 29
 25 0 0 23 426 439 17 438 0 440 83 38 54 441 25 0 442 +15 440 801 0 38 443 0 17
 83 0 440 420 438 80 442 293 0 401 +17 38 0 440 438 420 11 34 235 0 441 -17 441
 0 444 36 56 11 438 25 0 0 -17 442 0 445 53 401 54 83 293 0 0 -15 445 528 0 446
 447 0 17 53 0 445 120 442 49 56 424 0 45 +17 401 0 445 442 378 80 448 398 0 449
 +17 378 0 445 401 218 84 450 225 0 448 +17 448 0 451 452 449 84 401 398 0 0 -17
 449 0 451 448 453 80 420 417 0 0 -15 451 1315 0 453 454 0 17 453 0 451 449 452
 73 72 408 0 420 -17 420 0 440 38 83 73 449 417 0 0 +17 452 0 451 453 448 69 87
 414 0 0 -17 72 0 33 103 34 69 453 408 0 232 +17 34 0 33 72 27 73 38 235 0 453 +
17 232 0 455 87 217 69 103 233 0 452 -15 455 1155 0 232 456 0 17 87 0 455 450 23
2 84 452 414 0 378 +17 217 0 455 232 450 100 115 391 0 0 -17 450 0 455 217 87 11
2 378 225 0 0 -17 115 0 211 213 212 112 217 391 0 218 +17 218 0 445 378 220 112
 213 219 0 450 +17 220 0 445 218 457 162 222 296 0 0 +17 457 0 445 220 458 158 1
57 298 0 222 -17 222 0 221 207 165 158 220 296 0 0 -17 458 0 445 457 459 154 145
 309 0 0 -17 157 0 460 461 161 154 457 298 0 373 +15 460 797 0 157 462 0 17 461
 0 460 239 157 200 373 366 0 463 -17 161 0 460 157 239 158 207 226 0 457 +17 373
 0 464 145 463 154 461 366 0 458 +15 464 791 0 145 465 0 17 145 0 464 466 373 14
2 458 309 0 365 +17 463 0 464 373 466 200 191 258 0 0 -17 466 0 464 463 145 188
 365 359 0 467 -17 191 0 33 264 203 188 463 258 0 466 +17 264 0 33 390 191 104 4
67 261 0 468 +17 203 0 33 191 228 200 239 241 0 461 +17 239 0 460 161 461 204 20
3 241 0 228 -17 390 0 33 95 264 76 468 387 0 469 +17 467 0 470 365 107 188 264 2
61 0 0 -17 468 0 471 472 79 104 390 387 0 0 -15 471 1134 0 473 474 0 17 472 0 47
1 473 468 108 107 382 0 0 -17 79 0 471 468 473 76 475 405 0 390 +17 473 0 471 79
 472 88 111 379 0 475 -17 475 0 476 99 469 88 79 405 0 0 -15 476 1294 0 469 477
 0 17 99 0 476 478 475 96 91 402 0 397 -17 469 0 476 475 478 76 95 411 0 0 -17 4
78 0 476 469 99 92 397 394 0 0 -17 95 0 33 229 390 92 469 411 0 479 +17 229 0 33
 64 95 40 479 247 0 480 +17 479 0 481 397 48 92 229 247 0 478 -15 481 795 0 304
 482 0 17 397 0 481 304 479 96 478 394 0 483 +17 48 0 481 479 304 40 484 430 0 2
29 +17 304 0 481 48 397 57 483 301 0 484 +17 484 0 485 68 480 57 48 430 0 0 -15
 485 1448 0 480 486 0 17 68 0 485 487 484 65 60 427 0 423 -17 480 0 485 484 487
 40 64 435 0 0 -17 487 0 485 480 68 61 423 421 0 0 -17 64 0 33 183 229 61 480 43
5 0 488 +17 183 0 33 489 64 180 488 265 0 490 +17 488 0 491 423 490 61 183 265 0
 487 -15 491 783 0 488 492 0 17 423 0 491 137 488 65 487 421 0 446 +17 490 0 491
 488 137 180 358 354 0 274 -17 137 0 491 490 423 134 446 316 0 358 +17 358 0 493
 494 274 134 490 354 0 325 +17 274 0 493 358 179 180 489 271 0 0 +15 493 779 0 4
94 495 0 17 179 0 493 274 494 176 133 351 0 489 -17 489 0 33 496 183 176 274 271
 0 278 -17 496 0 33 199 489 184 278 275 0 0 -17 278 0 497 133 187 176 496 275 0
 0 +15 497 777 0 498 499 0 17 133 0 497 498 278 130 179 351 0 494 +17 187 0 497
 278 498 184 141 355 0 500 -17 498 0 497 187 133 138 329 326 0 0 -17 141 0 501 3
21 500 138 187 355 0 502 +17 500 0 501 141 503 184 199 268 0 496 -15 501 781 0 3
21 504 0 17 503 0 501 500 321 196 153 362 0 257 -17 199 0 33 505 496 196 500 268
 0 503 +17 505 0 33 175 199 192 257 254 0 0 -17 175 0 33 506 505 172 507 279 0 5
08 +17 257 0 509 153 195 196 505 254 0 0 +15 509 793 0 510 511 0 17 153 0 509 51
0 257 150 503 362 0 321 +17 195 0 509 257 510 192 149 350 0 507 -17 510 0 509 19
5 153 146 308 305 0 0 -17 149 0 512 334 507 146 195 350 0 513 +17 507 0 512 149
 508 192 175 279 0 505 -15 512 775 0 334 514 0 17 508 0 512 507 334 172 129 347
 0 515 -17 334 0 512 508 149 126 513 330 0 516 +17 129 0 517 518 515 126 508 347
 0 334 +17 515 0 517 129 171 172 506 280 0 0 +15 517 771 0 518 519 0 17 171 0 51
7 515 518 168 125 344 0 520 -17 506 0 33 289 175 168 515 280 0 0 -16 280 181 521
 ?515 286 283 272 275 275 1 81 1 521 1016 29 280 0 0 522 324 523 80 255 1 29 524
 525 9000 0 0 0 0 3 6 0 0 0 FFTFTFTTFFFFFF1 81 1 522 1015 29 331 0 0 277 521 526
 81 1 324 1017 29 322 0 0 521 273 527 82 255 3 523 6 55 1 81 1 273 1018 29 271 0
 0 324 339 528 82 3 527 6 56 1 81 1 339 1019 29 236 0 0 273 288 529 82 3 528 6 5
7 1 81 1 288 1020 29 286 0 0 339 530 531 82 3 529 6 58 1 81 1 530 1025 29 462 0
 532 288 533 534 82 3 531 6 59 1 14 255 462 798 532 ?465 238 460 5 535 -0 0 465
 238 22 81 1 532 1522 536 462 530 0 537 538 539 81 1 533 1026 29 511 0 540 530 5
41 542 82 3 534 6 4 2 14 511 794 540 ?514 504 509 5 543 +0 0 514 504 22 81 1 540
 1530 536 511 533 0 544 545 546 81 1 541 1027 29 465 0 538 533 547 548 82 3 542
 6 5 2 14 465 792 538 ?549 462 464 5 550 -0 0 549 462 22 81 1 538 1523 536 465 5
41 0 532 551 552 81 1 547 1031 29 238 0 537 541 553 554 82 3 548 6 6 2 14 238 80
0 537 ?462 16 221 5 555 +0 0 462 16 22 81 1 537 1521 536 238 547 0 556 532 557 8
1 1 553 1035 29 504 0 544 547 558 559 82 3 554 6 10 2 14 504 782 544 ?511 499 50
1 5 560 -0 0 511 499 22 81 1 544 1529 536 504 553 0 561 540 562 81 1 558 1037 29
 514 0 545 553 563 564 82 3 559 6 14 2 14 514 776 545 ?519 511 512 5 565 -0 0 51
9 511 22 81 1 545 1531 536 514 558 0 540 566 567 81 1 563 1039 29 499 0 561 558
 568 569 82 3 564 6 16 2 14 499 778 561 ?504 495 497 5 570 +519 519 504 495 22 8
1 1 561 1528 536 499 563 0 571 544 572 81 1 568 1040 29 519 0 566 563 573 574 82
 3 569 6 18 2 14 519 772 566 ?575 514 517 5 570 +499 499 575 514 22 81 1 566 153
2 536 519 568 0 545 576 577 81 1 573 1041 29 495 0 571 568 578 579 82 3 574 6 19
 2 14 495 780 571 ?499 492 493 5 580 +0 0 499 492 22 81 1 571 1527 536 495 573 0
 581 561 582 81 1 578 1042 29 575 0 576 573 583 584 82 3 579 6 20 2 14 575 770 5
76 ?585 519 586 5 587 -0 0 585 519 22 81 1 576 1533 536 575 578 0 566 588 589 81
 1 583 1043 29 1 0 13 578 110 590 82 3 584 6 21 2 81 1 13 1518 591 1 583 2 0 0 5
92 81 1 110 1173 29 108 0 0 583 106 593 82 3 590 6 0 3 81 1 106 1175 29 104 0 0
 110 114 594 82 3 593 7 1 0 81 1 114 1177 29 112 0 0 106 102 595 82 3 594 7 3 0
 81 1 102 1179 29 100 0 0 114 384 596 82 3 595 7 5 0 81 1 384 1183 29 382 0 0 10
2 393 597 82 3 596 7 7 0 81 1 393 1187 29 391 0 0 384 314 598 82 3 597 7 3 1 81
 1 314 1190 29 312 0 0 393 263 599 82 3 598 7 7 1 81 1 263 1191 29 261 0 0 314 2
92 600 82 3 599 7 10 1 81 1 292 1194 29 219 0 0 263 234 601 82 3 600 7 11 1 81 1
 234 1195 29 216 0 0 292 602 603 82 3 601 7 14 1 81 1 602 1201 29 549 0 551 234
 604 605 82 3 603 7 15 1 14 549 788 551 ?482 465 470 5 606 -0 0 482 465 22 81 1
 551 1524 536 549 602 0 538 607 608 81 1 604 1203 29 16 0 556 602 98 609 82 3 60
5 7 5 2 14 16 804 556 ?238 0 211 5 610 +0 0 238 0 22 81 1 556 1520 536 16 604 0
 0 537 611 81 1 98 1332 29 96 0 0 604 94 612 82 3 609 7 7 2 81 1 94 1333 29 92 0
 0 98 90 613 82 3 612 8 0 0 81 1 90 1334 29 88 0 0 94 78 614 82 3 613 8 1 0 81 1
 78 1335 29 76 0 0 90 82 615 82 3 614 8 2 0 81 1 82 1336 29 80 0 0 78 75 616 82
 3 615 8 3 0 81 1 75 1337 29 73 0 0 82 86 617 82 3 616 8 4 0 81 1 86 1338 29 84
 0 0 75 71 618 82 3 617 8 5 0 81 1 71 1339 29 69 0 0 86 396 619 82 3 618 8 6 0 8
1 1 396 1340 29 394 0 0 71 407 620 82 3 619 8 7 0 81 1 407 1341 29 405 0 0 396 4
04 621 82 3 620 8 0 1 81 1 404 1342 29 402 0 0 407 413 622 82 3 621 8 1 1 81 1 4
13 1343 29 411 0 0 404 419 623 82 3 622 8 2 1 81 1 419 1344 29 417 0 0 413 416 6
24 82 3 623 8 3 1 81 1 416 1345 29 414 0 0 419 400 625 82 3 624 8 4 1 81 1 400 1
346 29 398 0 0 416 410 626 82 3 625 8 5 1 81 1 410 1347 29 408 0 0 400 381 627 8
2 3 626 8 6 1 81 1 381 1350 29 379 0 0 410 386 628 82 3 627 8 7 1 81 1 386 1351
 29 233 0 0 381 389 629 82 3 628 8 10 1 81 1 389 1354 29 387 0 0 386 377 630 82
 3 629 8 11 1 81 1 377 1355 29 225 0 0 389 631 632 82 3 630 8 14 1 81 1 631 1356
 29 477 0 633 377 634 635 82 3 632 8 15 1 14 477 1293 633 ?454 456 476 5 636 +0
 0 454 456 22 81 1 633 1540 536 477 631 0 637 638 639 81 1 634 1357 29 454 0 638
 631 640 641 82 3 635 8 0 2 14 454 1314 638 ?486 477 451 5 642 +0 0 486 477 22 8
1 1 638 1541 536 454 634 0 633 643 644 81 1 640 1360 29 474 0 645 634 646 647 82
 3 641 8 1 2 14 474 1133 645 ?456 447 471 5 648 +0 0 456 447 22 81 1 645 1538 53
6 474 640 0 649 637 650 81 1 646 1361 29 456 0 637 640 67 651 82 3 647 8 4 2 14
 456 1154 637 ?477 474 455 5 652 +0 0 477 474 22 81 1 637 1539 536 456 646 0 645
 633 653 81 1 67 1486 29 65 0 0 646 63 654 82 3 651 8 5 2 81 1 63 1487 29 61 0 0
 67 59 655 82 3 654 9 0 0 81 1 59 1488 29 57 0 0 63 47 656 82 3 655 9 1 0 81 1 4
7 1489 29 40 0 0 59 41 657 82 3 656 9 2 0 81 1 41 1490 29 49 0 0 47 39 658 82 3
 657 9 3 0 82 3 658 9 4 0 80 1 536 0 659 8001 0 0 0 0 3 5 0 0 0 FFFFTFTFFFFFFF2
 83 255 3 653 .603921568627451 .647058823529412 .686274509803922 79 255 15 659 S
DL/TYSA_COLOUR50 652 1166 0 456 648 636 0 --.01175447442093638 .0011096578902488
 .01 .707106781186548 .707106781186548 0 0 0 -1 13 22 340 0 0 0 0 0 0 9 16 50 64
8 1145 0 474 610 652 0 --.0152285880756303 -.0133903421097512 .01 .7071067811865
48 -.707106781186548 0 0 0 -1 50 636 1305 0 477 652 642 0 +-.0117285880756303 -.
0153903421097512 .01 -.707106781186548 -.707106781186547 0 0 0 1 50 642 1326 0 4
54 636 19 0 --.01475447442093638 .0026096578902488 .01 .707106781186547 -.707106
781186548 0 0 0 -1 50 19 1459 0 486 642 6 0 -.00484552557906362 -.01339034210975
12 .01 -.707106781186548 .707106781186548 0 0 0 -1 14 486 1447 643 ?18 454 485 5
 19 +0 0 18 454 22 81 1 643 1542 536 486 660 0 638 661 662 14 18 1468 661 ?0 486
 444 5 6 +0 0 0 486 22 81 1 661 1543 536 18 663 0 643 0 664 15 444 1469 0 36 18
 0 17 36 0 444 46 441 28 27 37 0 0 -17 46 0 444 56 36 49 24 10 0 0 -17 56 0 444
 441 46 54 53 424 0 438 -81 1 663 1511 29 18 0 661 660 665 666 83 3 664 .6039215
68627451 .647058823529412 .686274509803922 81 1 660 1510 29 486 0 643 253 663 66
7 81 1 665 1512 29 492 0 581 663 668 669 82 3 666 9 1 2 14 492 784 581 ?495 482
 491 5 670 -0 0 495 482 22 81 1 581 1526 536 492 665 0 607 571 671 81 1 668 1513
 29 585 0 588 665 672 673 82 3 669 9 2 2 14 585 774 588 ?443 575 43 5 674 +0 0 4
43 575 22 81 1 588 1534 536 585 668 0 576 675 676 81 1 672 1514 29 443 0 675 668
 677 678 82 3 673 9 3 2 14 443 802 675 ?230 585 440 5 679 -0 0 230 585 22 81 1 6
75 1535 536 443 672 0 588 680 681 81 1 677 1515 29 482 0 607 672 682 683 82 3 67
8 9 4 2 14 482 796 607 ?492 549 481 5 684 -0 0 492 549 22 81 1 607 1525 536 482
 677 0 551 581 685 81 1 682 1516 29 447 0 649 677 686 687 82 3 683 9 5 2 14 447
 487 649 ?474 230 445 5 688 -0 0 474 230 22 81 1 649 1537 536 447 682 0 680 645
 689 81 1 686 1517 29 230 0 680 682 0 690 82 3 687 9 6 2 14 230 1 680 ?447 443 3
3 5 691 +0 0 447 443 22 81 1 680 1536 536 230 686 0 675 649 692 82 3 690 9 7 2 8
3 3 692 .603921568627451 .647058823529412 .686274509803922 50 691 2 0 230 0 688
 0 +-.004191531248283345 -.0046403421097512 .01 0 0 1 1 0 0 50 688 709 0 447 691
 587 0 +-.004191531248283345 -.0046403421097512 0 0 0 1 1 0 0 50 587 809 0 575 6
88 570 0 +.00496272062950624 .001481543964231312 .01 -.826227342807548 .56333682
464151 0 -.56333682464151 -.826227342807548 0 50 570 810 0 519 587 674 0 +.00334
552557906362 -.004490342109751195 .01 -1 -183697019872103e-30 0 183697019872103e
-30 -1 0 50 674 811 0 585 570 565 0 +.00484552557906362 .00453824315084691 .01 1
 612323399573677e-31 0 -612323399573677e-31 1 0 50 565 812 0 514 674 580 0 +.006
35776181216465 .003109657890248805 .01 0 1 0 0 0 1 50 580 813 0 495 565 560 0 +.
00467106450063209 -.001446218358117448 .01 -.826227342807548 .56333682464151 0 -
.56333682464151 -.826227342807548 0 50 560 814 0 504 580 670 0 +.002845525579063
62 -.0123903421097512 .01 1224646799147352e-31 -1 0 1 1224646799147352e-31 0 50
 670 815 0 492 560 606 0 +.00484552557906362 -.013674775353497 .01 -1 -183697019
872103e-30 0 183697019872103e-30 -1 0 50 606 817 0 549 670 550 0 +-.012428588075
6303 -.01316968094865416 .01 -1 -183697019872103e-30 0 183697019872103e-30 -1 0
 50 550 819 0 465 606 543 0 +-.00640506942601482 -.0123903421097512 .01 12246467
99147352e-31 -1 0 1 1224646799147352e-31 0 50 543 820 0 511 550 684 0 +-.0031544
7442093638 -.002389376672775055 .01 1 612323399573677e-31 0 -612323399573677e-31
 1 0 50 684 821 0 482 543 535 0 +.00577486027864381 -.0153903421097512 .01 0 1 0
 0 0 1 50 535 822 0 462 684 555 0 +-.00615447442093638 -.00318937667277505 .01 1
 612323399573677e-31 0 -612323399573677e-31 1 0 50 555 823 0 238 535 679 0 +-.00
616801259866785 .0031096578902488 .01 1224646799147352e-31 -1 0 1 12246467991473
52e-31 0 50 679 824 0 443 555 610 0 +-.00616801259866785 .0061096578902488 .01 1
224646799147352e-31 -1 0 1 1224646799147352e-31 0 50 610 825 0 16 679 648 0 +-.0
1195447442093638 .002851501932379975 .01 1 612323399573677e-31 0 -61232339957367
7e-31 1 0 83 3 689 .603921568627451 .647058823529412 .686274509803922 83 3 685 .
603921568627451 .647058823529412 .686274509803922 83 3 681 .603921568627451 .647
058823529412 .686274509803922 83 3 676 .603921568627451 .647058823529412 .686274
509803922 15 43 773 0 45 585 0 17 45 0 43 24 343 49 120 335 0 46 -17 343 0 43 45
 44 117 693 290 0 340 +17 120 0 445 694 53 117 45 335 0 343 +17 694 0 445 516 12
0 122 340 236 0 518 -17 516 0 445 513 694 126 518 331 0 0 +17 340 0 586 693 125
 117 694 236 0 0 +17 518 0 517 171 129 122 516 331 0 0 -16 331 533 522 ?516 236
 335 323 326 326 1 15 586 769 0 340 575 0 17 693 0 586 520 340 116 343 290 0 0 -
17 125 0 586 340 520 122 171 344 0 694 +17 520 0 586 125 693 168 289 286 0 506 -
17 289 0 33 35 506 116 520 286 0 693 +17 35 0 33 27 289 28 44 283 0 36 -17 44 0
 43 343 24 116 35 283 0 289 +17 513 0 445 308 516 146 334 330 0 510 -17 308 0 44
5 502 513 150 510 305 0 0 +17 502 0 445 329 308 138 321 319 0 498 -17 329 0 445
 325 502 130 498 326 0 0 +17 321 0 501 503 141 150 502 319 0 308 +17 325 0 445 4
46 329 134 494 322 0 0 +17 446 0 445 60 325 65 137 316 0 0 -17 494 0 493 179 358
 130 325 322 0 329 -17 60 0 445 483 446 57 68 427 0 304 +17 483 0 445 91 60 96 3
04 301 0 0 -17 91 0 445 111 483 88 99 402 0 473 +17 111 0 445 459 91 108 473 379
 0 315 +17 459 0 445 458 111 142 315 312 0 0 -17 315 0 470 107 365 108 459 312 0
 472 +15 470 787 0 315 549 0 17 107 0 470 467 315 104 472 382 0 264 +17 365 0 47
0 315 467 142 466 359 0 459 +83 3 671 .603921568627451 .647058823529412 .6862745
09803922 81 1 253 1509 29 247 0 0 303 660 695 82 3 667 9 0 2 81 1 303 1508 29 30
1 0 0 249 253 696 82 3 695 9 15 1 81 1 249 1507 29 235 0 0 295 303 697 82 3 696
 9 14 1 81 1 295 1506 29 293 0 0 285 249 698 82 3 697 9 13 1 81 1 285 1505 29 28
3 0 0 337 295 699 82 3 698 9 12 1 81 1 337 1504 29 335 0 0 267 285 700 82 3 699
 9 11 1 81 1 267 1503 29 265 0 0 318 337 701 82 3 700 9 10 1 81 1 318 1502 29 31
6 0 0 434 267 702 82 3 701 9 9 1 81 1 434 1501 29 37 0 0 426 318 703 82 3 702 9
 8 1 81 1 426 1500 29 424 0 0 437 434 704 82 3 703 9 7 1 82 3 704 9 6 1 83 3 662
 .603921568627451 .647058823529412 .686274509803922 83 3 650 .603921568627451 .6
47058823529412 .686274509803922 83 3 644 .603921568627451 .647058823529412 .6862
74509803922 83 3 639 .603921568627451 .647058823529412 .686274509803922 83 3 611
 .603921568627451 .647058823529412 .686274509803922 83 3 608 .603921568627451 .6
47058823529412 .686274509803922 80 1 591 12 705 8038 0 0 0 0 0 0 0 0 0 TTTTTTTTT
TTTTF10 98 255 13 592 99 97 98 108 101 32 104 111 108 100 101 114 115 79 14 705
 SDL/TYSA_UNAME83 3 589 .603921568627451 .647058823529412 .686274509803922 83 3
 582 .603921568627451 .647058823529412 .686274509803922 83 3 577 .60392156862745
1 .647058823529412 .686274509803922 83 3 572 .603921568627451 .647058823529412 .
686274509803922 83 3 567 .603921568627451 .647058823529412 .686274509803922 83 3
 562 .603921568627451 .647058823529412 .686274509803922 83 3 557 .60392156862745
1 .647058823529412 .686274509803922 83 3 552 .603921568627451 .647058823529412 .
686274509803922 83 3 546 .603921568627451 .647058823529412 .686274509803922 83 3
 539 .603921568627451 .647058823529412 .686274509803922 81 1 277 1014 29 275 0 0
 328 522 706 82 3 526 6 54 1 81 1 328 1013 29 326 0 0 282 277 707 82 3 706 6 53
 1 81 1 282 1010 29 279 0 0 333 328 708 82 3 707 6 52 1 81 1 333 1009 29 330 0 0
 270 282 709 82 3 708 6 49 1 81 1 270 1006 29 268 0 0 244 333 710 82 3 709 6 48
 1 81 1 244 1005 29 319 0 0 240 270 711 82 3 710 6 45 1 82 3 711 6 44 1 79 9 525
 BTI/DetId81 1 23 1498 29 10 0 0 436 437 712 82 3 439 9 5 1 81 1 436 1497 29 435
 0 0 429 23 713 82 3 712 9 4 1 81 1 429 1496 29 427 0 0 432 436 714 82 3 713 9 3
 1 81 1 432 1495 29 430 0 0 31 429 715 82 3 714 9 2 1 81 1 31 1494 29 421 0 0 26
 432 716 82 3 715 9 1 1 82 3 716 9 0 1 81 1 374 961 29 226 0 0 167 372 717 81 1
 167 960 29 116 0 0 119 374 718 81 1 372 962 29 366 0 0 374 368 719 82 3 717 6 0
 1 81 1 368 963 29 350 0 0 372 370 720 82 3 719 6 1 1 81 1 370 964 29 362 0 0 36
8 364 721 82 3 720 6 2 1 81 1 364 966 29 359 0 0 370 224 722 82 3 721 6 3 1 81 1
 224 970 29 214 0 0 364 361 723 82 3 722 6 5 1 81 1 361 975 29 355 0 0 224 349 7
24 82 3 723 6 9 1 81 1 349 976 29 347 0 0 361 353 725 82 3 724 6 14 1 81 1 353 9
77 29 351 0 0 349 357 726 82 3 725 6 15 1 81 1 357 978 29 354 0 0 353 346 727 82
 3 726 6 16 1 81 1 346 979 29 344 0 0 357 342 728 82 3 727 6 17 1 81 1 342 980 2
9 290 0 0 346 300 729 82 3 728 6 18 1 81 1 300 985 29 298 0 0 342 246 730 82 3 7
29 6 19 1 81 1 246 986 29 241 0 0 300 307 731 82 3 730 6 24 1 81 1 307 987 29 30
5 0 0 246 256 732 82 3 731 6 25 1 81 1 256 988 29 254 0 0 307 311 733 82 3 732 6
 26 1 81 1 311 989 29 309 0 0 256 260 734 82 3 733 6 27 1 81 1 260 990 29 258 0
 0 311 243 735 82 3 734 6 28 1 81 1 243 997 29 296 0 0 260 240 736 82 3 735 6 29
 1 82 3 736 6 36 1 81 1 119 959 29 117 0 0 170 167 737 82 3 718 6 39 0 81 1 170
 958 29 168 0 0 124 119 738 82 3 737 6 38 0 81 1 124 957 29 122 0 0 182 170 739
 82 3 738 6 37 0 81 1 182 956 29 180 0 0 136 124 740 82 3 739 6 36 0 81 1 136 95
5 29 134 0 0 178 182 741 82 3 740 6 35 0 81 1 178 954 29 176 0 0 132 136 742 82
 3 741 6 34 0 81 1 132 953 29 130 0 0 174 178 743 82 3 742 6 33 0 81 1 174 952 2
9 172 0 0 128 132 744 82 3 743 6 32 0 81 1 128 951 29 126 0 0 186 174 745 82 3 7
44 6 31 0 81 1 186 950 29 184 0 0 140 128 746 82 3 745 6 30 0 81 1 140 949 29 13
8 0 0 208 186 747 82 3 746 6 29 0 82 3 747 6 28 0 30 237 51 0 216 0 250 0 +-.011
95447442093638 .002851501932379975 .01 612323399573677e-31 -1 0 82 3 245 6 37 1
 81 1 164 939 29 162 0 0 190 208 748 82 3 210 6 19 0 81 1 190 932 29 188 0 0 144
 164 749 82 3 748 6 18 0 81 1 144 931 29 142 0 0 198 190 750 82 3 749 6 11 0 81
 1 198 928 29 196 0 0 152 144 751 82 3 750 6 10 0 81 1 152 927 29 150 0 0 194 19
8 752 82 3 751 6 7 0 81 1 194 926 29 192 0 0 148 152 753 82 3 752 6 6 0 81 1 148
 925 29 146 0 0 202 194 754 82 3 753 6 5 0 81 1 202 924 29 200 0 0 156 148 755 8
2 3 754 6 4 0 81 1 156 923 29 154 0 0 206 202 756 82 3 755 6 3 0 81 1 206 922 29
 204 0 0 160 156 757 82 3 756 6 2 0 81 1 160 921 29 158 0 0 0 206 758 82 3 757 6
 1 0 82 3 758 6 0 0 81 1 30 1492 29 54 0 0 39 26 759 82 3 759 9 6 0 82 3 42 9 5
 0 82 3 32 9 7 0 19 17 849 0 1 0 9 5 S0 74 4 CI16 index_map_offset0 0 1 dCCZ20 1
5 4 0 0 686 13 2 661 0 0 0 0 0 0 0 0 0 0 0 0 0 0 0 0 80 1 12 760 761 8017 0 0 0
 0 0 0 0 0 0 TTTTTTTTTTTTTF3 84 255 13 14 cable holders79 13 761 SDL/TYSA_NAME1
 0 
