**ABCDEFGHIJKLMNOPQRSTUVWXYZabcdefghijklmnopqrstuvwxyz**************************
**PARASOLID !"#$%&'()*+,-./:;<=>?@[\]^_`{|}~0123456789**************************
**PART1;
MC=unknown;
MC_MODEL=unknown;
MC_ID=unknown;
OS=unknown;
OS_RELEASE=unknown;
FRU=Parasolid 28.1.228;
APPL=Onshape;
SITE=unknown;
USER=unknown;
FORMAT=text;
GUISE=transmit;
KEY=BTGapi::writeModels_.xmt;
FILE=BTGapi::writeModels_.xmt;
DATE=2016-04-23T18:28:58 (UTC);
**PART2;
SCH=SCH_2801228_28101;
USFLD_SIZE=0;
**PART3;
**END_OF_HEADER*****************************************************************
T51 : TRANSMIT FILE created by modeller version 280122823 SCH_2801228_28101_1300
6203 0 12 33 CCCCCCI4 mesh1006 0 I8 polyline1008 0 CCCCCCCDI5 owner1040 0 CCCCCC
I13 boundary_mesh1006 0 I17 boundary_polyline1008 0 CCCA16 index_map_offset0 0 1
 dA9 index_map82 0 A17 node_id_index_map82 0 A20 schema_embedding_map82 0 A5 chi
ld12 0 A14 lowest_node_id0 0 1 dZ1 2345 2 3 0 0 0 0 0 0 1e3 1e-8 0 4 0 1 0 1 1 5
 6 7 8 0 0 9 10 11 0 0 0 0 0 0 81 255 1 2 2325 12 1 13 0 0 0 14 70 11 CI9 list_t
ype0 0 1 uI10 notransmit0 0 1 lCCCDCCDI12 finger_index0 0 1 dI12 finger_block101
2 0 CZ3 0 4 T1 0 0 4 20 1 15 15 13 255 5 298 0 1 0 16 0 0 17 0 50 255 6 289 0 16
 18 0 0 +-.003221211237009645 -.001981687951711095 .028 1224646799147352e-31 -1
 0 1 1224646799147352e-31 0 31 255 7 1973 0 19 20 0 0 +.00672317695112031 -.0059
816879517111 .014 0 1 0 0 0 1 .00175 29 255 8 1245 0 11 21 0 -.0699268230488797
 -.0212816879517111 .026 19 8 CCCCCCCA5 owner12 0 Z9 111 0 1 17 0 22 V0 16 255 1
0 262 23 ?24 0 25 26 0 0 1 18 255 11 1243 27 28 0 29 8 ?1 81 1 27 2291 30 11 0 0
 31 32 33 17 255 28 0 34 35 36 11 37 38 0 39 +18 29 105 40 41 11 42 43 ?1 81 1 4
0 2251 30 29 0 0 44 45 46 17 41 0 47 48 49 29 50 51 0 52 -18 42 100 44 53 29 54
 55 ?1 29 43 107 0 29 55 56 .0183731769511203 -.001981687951711095 .028 29 55 10
2 0 42 57 43 .0183731769511203 -.0212816879517111 .028 29 56 257 0 58 43 59 -.00
492682304887969 -.001981687951711095 0 18 58 237 60 61 62 63 56 ?1 29 59 255 0 6
2 56 64 -.000926823048879686 -.0212816879517111 0 18 62 229 65 66 67 58 59 ?1 29
 64 254 0 67 59 68 -.000926823048879691 -.0059816879517111 0 18 67 225 69 24 70
 62 64 ?1 29 68 253 0 70 64 71 .0143731769511203 -.0059816879517111 0 18 70 221
 72 73 74 67 68 ?1 29 71 252 0 74 68 75 .0143731769511203 -.0212816879517111 0 1
8 74 217 76 77 78 70 71 ?1 29 75 251 0 78 71 21 .0183731769511203 -.021281687951
7111 0 18 78 213 79 80 81 74 75 ?1 29 21 250 0 81 75 8 .0183731769511203 -.00198
1687951711095 0 18 81 209 82 50 83 78 21 ?1 81 1 82 2261 30 81 0 0 84 79 85 17 5
0 0 86 61 52 81 41 51 0 87 +18 83 65 88 89 90 81 91 ?1 81 1 88 2245 30 83 0 0 92
 93 94 17 89 0 95 96 97 83 52 98 0 99 +18 90 75 93 100 101 83 102 ?1 29 91 67 0
 83 103 102 -.00492682304887969 -.001981687951711095 .028 29 103 881 0 63 104 91
 -.0799268230488797 -.0212816879517111 0 29 102 77 0 90 91 105 -.000926823048879
686 -.0212816879517111 .028 29 105 82 0 101 102 106 -.000926823048879691 -.00598
16879517111 .028 18 101 80 107 108 109 90 105 ?1 29 106 87 0 109 105 57 .0143731
769511203 -.0059816879517111 .028 18 109 85 110 111 54 101 106 ?1 29 57 97 0 54
 106 55 .0143731769511203 -.0212816879517111 .028 18 54 95 112 113 42 109 57 ?1
 81 1 112 2249 30 54 0 0 110 44 114 17 113 0 95 53 111 54 115 116 0 117 +15 255
 95 5 0 118 119 0 17 53 0 95 97 113 42 120 121 0 122 +17 111 0 95 113 118 109 12
3 124 0 125 +17 115 0 126 127 117 109 113 116 0 0 -16 116 49 128 ?113 121 124 12
9 0 0 1 17 117 0 126 115 77 54 130 131 0 120 -15 126 270 0 77 132 0 17 77 0 126
 117 127 74 133 134 0 130 +17 130 0 135 136 120 74 117 131 0 137 +16 131 260 138
 ?130 25 139 140 0 0 1 17 120 0 135 130 122 54 53 121 0 0 -15 135 268 0 136 141
 0 17 122 0 135 120 136 42 80 139 0 48 -16 121 52 142 ?53 143 116 144 0 0 1 81 1
 142 2243 30 121 0 0 128 92 145 16 143 56 92 ?48 146 121 147 0 0 1 30 255 144 53
 0 121 129 147 0 +.01892854869772815 -.0212816879517111 .028 1 0 0 30 129 42 0 1
16 148 144 0 +.0143731769511203 -.00949925894209414 .028 612323399573677e-31 -1
 0 30 147 57 0 143 144 149 0 +.0183731769511203 -.00949925894209413 .028 6123233
99573677e-31 -1 0 30 149 249 0 150 147 151 0 +-.00092682304887969 -.009897601790
72618 0 3061616997868385e-31 -1 0 16 150 189 152 ?153 154 155 149 0 0 1 30 151 2
48 0 156 149 157 0 +-.003221211237009645 -.001981687951711095 0 -1 -122464679914
7352e-31 0 16 156 201 84 ?61 158 159 151 0 0 1 30 157 247 0 158 151 160 0 +-.004
92682304887969 -.00989760179072618 0 0 -1 0 16 158 197 161 ?162 155 156 157 0 0
 1 30 160 246 0 155 157 163 0 +-.003221211237009645 -.0212816879517111 0 -1 0 0
 16 155 193 164 ?165 150 158 160 0 0 1 30 163 245 0 154 160 166 0 +.007820625952
68285 -.0059816879517111 0 1 0 0 16 154 185 167 ?73 134 150 163 0 0 1 30 166 244
 0 134 163 168 0 +.0143731769511203 -.00949925894209414 0 612323399573677e-31 -1
 0 16 134 181 169 ?77 170 154 166 0 0 1 30 168 243 0 170 166 171 0 +.01892854869
772815 -.0212816879517111 0 1 0 0 16 170 177 172 ?136 173 134 168 0 0 1 30 171 2
42 0 173 168 174 0 +.0183731769511203 -.00949925894209413 0 612323399573677e-31
 -1 0 16 173 173 175 ?176 98 170 171 0 0 1 30 174 290 0 51 171 177 0 +.018373176
9511203 -.001981687951711095 .028 0 0 -1 16 51 258 178 ?50 139 179 174 0 0 1 30
 177 291 0 139 174 140 0 +.0183731769511203 -.0212816879517111 .028 0 0 -1 16 13
9 259 180 ?80 131 51 177 0 0 1 30 140 292 0 131 177 181 0 +.0143731769511203 -.0
212816879517111 .028 0 0 -1 30 181 293 0 25 140 26 0 +.0143731769511203 -.005981
6879517111 .028 0 0 -1 16 25 261 182 ?127 10 131 181 0 0 1 30 26 294 0 10 181 18
3 0 +-.000926823048879691 -.0059816879517111 .028 0 0 -1 30 183 295 0 146 26 184
 0 +-.000926823048879686 -.0212816879517111 .028 0 0 -1 16 146 263 185 ?66 179 1
43 183 0 0 1 30 184 297 0 179 183 20 0 +-.00492682304887969 -.001981687951711095
 .028 0 0 -1 16 179 265 186 ?187 51 146 184 0 0 1 31 20 1598 0 188 184 7 0 +.014
3731769511203 -.0136316879517111 .014 1 612323399573677e-31 0 -612323399573677e-
31 1 0 .00175 16 188 1615 189 ?190 191 192 20 0 0 1 81 1 189 2310 30 188 0 0 193
 194 195 17 190 0 196 190 190 0 197 188 0 0 +16 191 1337 198 ?199 200 188 201 0
 0 1 16 192 1770 202 ?203 188 204 205 0 0 1 81 1 202 2312 30 192 0 0 194 206 207
 17 203 0 208 203 203 0 209 192 0 0 +16 204 1774 206 ?210 192 211 212 0 0 1 31 2
05 1818 0 192 212 213 0 +.0163731769511203 -.0136316879517111 .014 1 61232339957
3677e-31 0 -612323399573677e-31 1 0 .003 31 212 1819 0 204 214 205 0 +.016373176
9511203 -.0136316879517111 .014 1 612323399573677e-31 0 -612323399573677e-31 1 0
 .00175 31 213 1816 0 211 205 215 0 +.0183731769511203 -.0136316879517111 .014 1
 612323399573677e-31 0 -612323399573677e-31 1 0 .003 16 211 1780 216 ?217 204 19
 213 0 0 1 31 215 1423 0 218 213 219 0 +-.0699268230488797 -.0212816879517111 .0
14 -1 0 0 0 578241158658936e-30 1 .012 16 218 1285 32 ?35 38 220 215 0 0 1 30 21
9 1422 0 38 215 221 0 +-.0699268230488797 -.0212816879517111 .028 0 0 -1 16 38 1
295 222 ?28 223 218 219 224 224 1 31 221 1421 0 223 219 201 0 +-.069926823048879
7 -.0212816879517111 .014 -1 0 0 0 991270557701033e-30 1 .014 16 223 1331 225 ?2
26 224 38 221 0 0 1 31 201 1420 0 191 221 227 0 +-.00492682304887969 -.021281687
9517111 .014 -1 0 0 0 578241158658936e-30 1 .012 30 227 1419 0 200 201 228 0 +-.
00492682304887969 -.0212816879517111 .028 0 0 -1 16 200 1347 229 ?230 220 191 22
7 220 220 1 30 228 1417 0 231 227 232 0 +-.0699268230488797 -.0212816879517111 .
002 1 0 0 16 231 1289 233 ?234 235 224 228 0 0 1 30 232 1414 0 235 228 236 0 +-.
0699268230488797 -.0212816879517111 .026 1 0 0 16 235 1301 237 ?238 239 231 232
 0 0 1 30 236 872 0 239 232 240 0 +-.0799268230488797 -.0212816879517111 .028 0
 0 -1 16 239 742 241 ?242 243 235 236 0 0 1 31 240 871 0 243 236 244 0 +-.079926
8230488797 -.0212816879517111 .014 -1 0 0 0 991270557701033e-30 1 .014 16 243 77
4 245 ?246 247 239 240 0 0 1 30 244 866 0 247 240 248 0 +-.0799268230488797 -.02
12816879517111 0 1 0 0 16 247 770 249 ?250 159 243 244 0 0 1 30 248 865 0 159 24
4 251 0 +-.0799268230488797 -.0212816879517111 .028 1 0 0 16 159 762 252 ?253 15
6 247 248 0 0 1 30 251 15 0 254 248 255 0 +-.00092682304887969 -.009897601790726
18 .028 3061616997868385e-31 -1 0 16 254 30 256 ?257 124 258 251 0 0 1 30 255 19
 0 98 251 259 0 +-.003221211237009645 -.001981687951711095 .028 -1 -122464679914
7352e-31 0 16 98 18 260 ?89 261 173 255 0 0 1 30 259 23 0 261 255 262 0 +-.00492
682304887969 -.00989760179072618 .028 0 -1 0 16 261 22 263 ?96 258 98 259 0 0 1
 30 262 27 0 258 259 148 0 +-.003221211237009645 -.0212816879517111 .028 -1 0 0
 16 258 26 264 ?265 254 261 262 0 0 1 30 148 38 0 124 262 129 0 +.00782062595268
285 -.0059816879517111 .028 1 0 0 16 124 37 266 ?111 116 254 148 0 0 1 81 1 266
 2241 30 124 0 0 256 128 267 80 255 1 30 268 269 9000 0 0 0 0 3 6 0 0 0 FFTFTFTT
FFFFFF1 81 1 256 2240 30 254 0 0 264 266 270 81 1 128 2242 30 116 0 0 266 142 27
1 82 255 3 267 4 4 1 82 3 271 4 5 1 81 1 264 2239 30 258 0 0 263 256 272 82 3 27
0 4 3 1 81 1 263 2238 30 261 0 0 260 264 273 82 3 272 4 2 1 81 1 260 2237 30 98
 0 0 274 263 275 82 3 273 4 1 1 81 1 274 2236 30 119 0 276 277 260 278 82 3 275
 4 0 1 14 255 119 1 276 ?279 280 95 5 281 +0 0 279 280 22 81 1 276 2334 282 119
 274 0 283 284 285 81 1 277 2235 30 1 0 13 0 274 286 82 3 278 4 0 2 81 1 13 2324
 287 1 277 2 0 0 288 82 3 286 4 0 3 80 1 287 12 289 8038 0 0 0 0 0 0 0 0 0 TTTTT
TTTTTTTTF10 98 255 6 288 80 97 114 116 32 49 79 255 14 289 SDL/TYSA_UNAME80 1 28
2 0 290 8001 0 0 0 0 3 5 0 0 0 FFFFTFTFFFFFFF2 81 1 283 2333 282 280 291 0 292 2
76 293 81 1 284 2335 282 279 45 0 276 294 295 83 255 3 285 .603921568627451 .647
058823529412 .686274509803922 14 279 157 284 ?296 119 297 5 298 -0 0 296 119 22
 81 1 45 2252 30 279 0 284 40 175 299 81 1 294 2336 282 296 300 0 284 301 302 83
 3 295 .603921568627451 .647058823529412 .686274509803922 14 296 837 294 ?303 27
9 304 5 305 -0 0 303 279 22 81 1 300 2289 30 296 0 294 306 31 307 81 1 301 2337
 282 303 31 0 294 308 309 83 3 302 .603921568627451 .647058823529412 .6862745098
03922 14 303 847 301 ?310 296 311 5 312 +0 0 310 296 22 81 1 31 2290 30 303 0 30
1 300 27 313 81 1 308 2338 282 310 314 0 301 315 316 83 3 309 .603921568627451 .
647058823529412 .686274509803922 14 310 1377 308 ?317 303 318 5 319 -0 0 317 303
 22 81 1 314 2308 30 310 0 308 320 193 321 81 1 315 2339 282 317 193 0 308 322 3
23 83 3 316 .603921568627451 .647058823529412 .686274509803922 14 317 1397 315 ?
324 310 34 5 325 -0 0 324 310 22 81 1 193 2309 30 317 0 315 314 189 326 81 1 322
 2340 282 324 194 0 315 327 328 83 3 323 .603921568627451 .647058823529412 .6862
74509803922 14 324 1634 322 ?329 317 330 5 331 -0 0 329 317 22 81 1 194 2311 30
 324 0 322 189 202 332 81 1 327 2341 282 329 333 0 322 334 335 83 3 328 .6039215
68627451 .647058823529412 .686274509803922 14 329 1792 327 ?336 324 337 5 338 -0
 0 336 324 22 81 1 333 2315 30 329 0 327 216 339 340 81 1 334 2342 282 336 339 0
 327 341 342 83 3 335 .603921568627451 .647058823529412 .686274509803922 14 336
 1798 334 ?343 329 344 5 345 +0 0 343 329 22 81 1 339 2316 30 336 0 334 333 346
 347 81 1 341 2343 282 343 348 0 334 349 350 83 3 342 .603921568627451 .64705882
3529412 .686274509803922 14 343 2009 341 ?351 336 352 5 353 -0 0 351 336 22 81 1
 348 2318 30 343 0 341 346 354 355 81 1 349 2344 282 351 356 0 341 357 358 83 3
 350 .603921568627451 .647058823529412 .686274509803922 14 351 2174 349 ?359 343
 360 5 361 -0 0 359 343 22 81 1 356 2322 30 351 0 349 362 363 364 81 1 357 2345
 282 359 363 0 349 0 365 83 3 358 .603921568627451 .647058823529412 .68627450980
3922 14 359 2180 357 ?0 351 366 5 367 +0 0 0 351 22 81 1 363 2323 30 359 0 357 3
56 0 368 83 3 365 .603921568627451 .647058823529412 .686274509803922 82 3 368 4
 19 2 15 366 2184 0 369 359 370 50 367 2197 0 359 0 361 0 +.00672317695112031 -.
003981687951711095 .014 -1224646799147352e-31 1 0 -1 -1224646799147352e-31 0 13
 22 112 0 0 0 0 0 0 9 16 14 16 281 371 ?372 0 86 5 6 -0 0 372 0 22 81 1 371 2326
 282 16 373 0 0 374 375 14 372 277 374 ?376 16 377 5 378 +0 0 376 16 22 15 86 28
0 0 61 16 379 17 61 0 86 99 50 58 87 156 0 187 +15 379 2134 0 380 16 0 17 380 0
 379 380 380 0 381 382 0 0 -17 381 0 383 381 381 0 380 382 0 0 +16 382 2162 362
 ?381 384 0 214 0 0 1 81 1 362 2321 30 382 0 0 385 356 386 16 384 2156 385 ?387
 388 382 389 0 0 1 31 214 2198 0 382 390 212 0 +.00672317695112031 -.00198168795
1711095 .014 -1224646799147352e-31 1 0 -1 -1224646799147352e-31 0 .003 31 390 22
00 0 388 389 214 0 +.00672317695112031 -.003981687951711095 .014 -12246467991473
52e-31 1 0 -1 -1224646799147352e-31 0 .003 16 388 2152 354 ?391 19 384 390 0 0 1
 31 389 2201 0 384 0 390 0 +.00672317695112031 -.003981687951711095 .014 -122464
6799147352e-31 1 0 -1 -1224646799147352e-31 0 .00175 81 1 354 2319 30 388 0 0 34
8 385 392 17 391 0 370 391 391 0 393 388 0 0 +16 19 1990 346 ?394 211 388 7 0 0
 1 81 1 346 2317 30 19 0 0 339 348 395 17 394 0 396 394 394 0 397 19 0 0 +15 396
 1971 0 394 398 399 17 397 0 400 397 397 0 394 19 0 0 -15 400 2008 0 397 343 0 1
4 398 273 401 ?132 376 396 5 402 -0 0 132 376 22 15 399 272 0 73 398 0 17 73 0 3
99 125 24 70 403 154 0 127 +17 125 0 399 123 73 109 127 25 0 115 -17 24 0 399 73
 123 67 108 10 0 403 +17 403 0 297 153 133 67 73 154 0 404 -17 127 0 126 77 115
 70 125 25 0 133 +17 133 0 297 403 137 70 77 134 0 0 -15 297 172 0 153 279 0 17
 137 0 297 133 176 74 136 170 0 0 -17 176 0 297 137 87 78 49 173 0 0 +17 136 0 1
35 122 130 78 137 170 0 176 +17 87 0 297 176 405 81 61 156 0 49 -17 49 0 47 41 8
0 81 176 173 0 0 -15 47 266 0 49 406 0 17 80 0 47 49 48 78 122 139 0 136 +17 48
 0 47 80 41 42 97 143 0 0 +17 97 0 95 89 53 29 48 143 0 0 -14 406 267 292 ?280 1
41 407 5 408 +0 0 280 141 22 81 1 292 2332 282 406 409 0 410 283 411 14 280 279
 283 ?119 406 412 5 18 -0 0 119 406 22 14 141 269 410 ?406 132 135 5 413 -0 0 40
6 132 22 15 407 1752 0 414 406 47 50 408 282 0 406 298 413 0 +.0183731769511203
 -.00949925894209413 .028 1 612323399573677e-31 0 -612323399573677e-31 1 0 50 29
8 241 0 279 281 408 0 +.00672317695112031 -.0116316879517111 0 0 0 1 1 0 0 50 41
3 283 0 141 408 415 0 +.01892854869772815 -.0212816879517111 .028 0 1 0 0 0 1 50
 415 284 0 132 413 402 0 +.0143731769511203 -.00949925894209414 .028 1 612323399
573677e-31 0 -612323399573677e-31 1 0 14 132 271 416 ?141 398 196 5 415 -0 0 141
 398 22 50 402 285 0 398 415 417 0 +.00782062595268285 -.0059816879517111 .028 0
 1 0 0 0 1 50 417 286 0 376 402 378 0 +-.00092682304887969 -.00989760179072618 .
028 1 3061616997868385e-31 0 -3061616997868385e-31 1 0 14 376 275 418 ?398 372 4
19 5 417 +0 0 398 372 22 50 378 287 0 372 417 18 0 +-.003221211237009645 -.02128
16879517111 .028 0 -1 0 0 0 -1 50 18 288 0 280 378 6 0 +-.00492682304887969 -.00
989760179072618 .028 1 0 0 0 0 -1 81 1 418 2328 282 376 420 0 374 401 421 15 419
 274 0 404 376 0 17 404 0 419 108 66 67 153 150 0 0 -17 108 0 419 257 404 101 24
 10 0 123 -17 66 0 419 404 257 62 100 146 0 422 +17 153 0 297 165 403 62 404 150
 0 0 +17 165 0 297 405 153 423 422 155 0 0 +17 405 0 297 87 165 58 162 158 0 0 -
18 423 1371 424 425 426 427 428 ?1 17 422 0 377 100 425 62 165 155 0 153 -15 377
 1235 0 234 372 0 17 100 0 377 265 422 90 66 146 0 429 -17 425 0 377 422 234 423
 430 220 0 162 +17 234 0 377 425 431 426 432 231 0 0 +17 430 0 412 433 162 426 4
25 220 0 234 -16 220 1341 434 ?425 218 200 227 200 200 1 17 162 0 412 430 187 42
3 405 158 0 165 +15 412 704 0 162 280 0 17 187 0 412 162 435 58 99 179 0 405 +17
 435 0 412 187 436 83 96 261 0 0 -17 99 0 86 52 61 83 187 179 0 435 -17 52 0 86
 50 99 29 89 98 0 97 -17 436 0 412 435 433 427 230 200 0 96 -17 96 0 95 429 89 4
27 435 261 0 265 +17 429 0 95 118 96 90 265 258 0 257 -18 427 1365 437 436 423 4
38 439 ?1 17 265 0 377 230 100 427 429 258 0 0 +17 230 0 377 440 265 438 436 200
 0 0 +17 440 0 377 37 230 11 238 235 0 0 -18 438 1362 441 238 427 0 442 ?1 81 1
 441 2303 30 438 0 0 443 437 444 17 238 0 318 199 39 438 440 235 0 433 +29 442 1
427 0 438 445 439 -.00492682304887969 -.0212816879517111 .026 29 445 1428 0 446
 447 442 -.0699268230488797 -.0212816879517111 .002 29 439 1426 0 427 442 428 -.
00492682304887969 -.0212816879517111 .028 29 428 1425 0 423 439 448 -.0049268230
4887969 -.0212816879517111 0 29 448 1424 0 426 428 104 -.00492682304887969 -.021
2816879517111 .002 18 426 1356 449 199 450 423 448 ?1 29 104 882 0 451 448 103 -
.0799268230488797 -.0212816879517111 .028 18 451 804 452 453 63 446 104 ?1 81 1
 452 2287 30 451 0 0 245 306 454 17 453 0 377 242 37 451 253 159 0 455 -18 63 81
9 306 242 58 451 103 ?1 18 446 1368 456 432 451 457 445 ?1 81 1 456 2305 30 446
 0 0 437 424 458 17 432 0 318 39 199 446 234 231 0 35 -18 457 1374 320 459 446 4
50 447 ?1 81 1 320 2307 30 457 0 0 424 314 460 17 459 0 34 36 35 457 431 224 0 2
26 +18 450 1359 443 36 457 426 461 ?1 29 447 1429 0 457 461 445 -.06992682304887
97 -.0212816879517111 0 29 461 1430 0 450 0 447 -.0699268230488797 -.02128168795
17111 .028 81 1 443 2302 30 450 0 0 449 441 462 17 36 0 34 28 459 450 226 223 0
 37 -15 34 1401 0 35 317 0 17 226 0 304 463 253 457 36 223 0 250 +17 37 0 377 45
3 440 450 28 38 0 253 -17 253 0 304 226 455 450 453 159 0 0 +15 304 841 0 253 29
6 0 17 455 0 304 253 463 451 246 243 0 464 -17 463 0 304 455 226 63 250 247 0 0
 -17 246 0 311 464 464 63 455 243 0 463 +17 464 0 311 246 246 451 242 239 0 0 -1
5 311 851 0 246 303 0 17 242 0 377 250 453 63 464 239 0 246 +17 250 0 377 431 24
2 457 463 247 0 0 +17 431 0 377 234 250 446 459 224 0 0 -16 224 1319 465 ?459 23
1 223 219 38 38 1 81 1 465 2296 30 224 0 0 237 225 466 81 1 237 2295 30 235 0 0
 222 465 467 81 1 225 2297 30 223 0 0 465 198 468 82 3 466 4 31 1 81 1 198 2298
 30 191 0 0 225 434 469 82 3 468 4 32 1 81 1 434 2299 30 220 0 0 198 229 470 82
 3 469 4 33 1 81 1 229 2300 30 200 0 0 434 449 471 82 3 470 4 34 1 81 1 449 2301
 30 426 0 0 229 443 472 82 3 471 4 35 1 82 3 472 4 17 0 81 1 222 2294 30 38 0 0
 233 237 473 82 3 467 4 30 1 81 1 233 2293 30 231 0 0 32 222 474 82 3 473 4 29 1
 81 1 32 2292 30 218 0 0 27 233 475 82 3 474 4 28 1 82 3 475 4 27 1 17 35 0 34 4
59 28 446 39 218 0 431 +17 39 0 318 238 432 11 35 218 0 440 -15 318 1381 0 199 3
10 0 17 199 0 318 432 238 426 433 191 0 430 +17 433 0 412 436 430 438 199 191 0
 230 -82 3 462 4 18 0 81 1 424 2306 30 423 0 0 456 320 476 82 3 460 4 23 0 82 3
 476 4 22 0 81 1 437 2304 30 427 0 0 441 456 477 82 3 458 4 21 0 82 3 477 4 20 0
 81 1 306 2288 30 63 0 0 452 300 478 82 3 478 4 15 0 81 1 245 2286 30 243 0 0 24
9 452 479 82 3 454 4 14 0 81 1 249 2285 30 247 0 0 252 245 480 82 3 479 4 26 1 8
1 1 252 2284 30 159 0 0 241 249 481 82 3 480 4 25 1 81 1 241 2283 30 239 0 0 373
 252 482 82 3 481 4 24 1 81 1 373 2282 30 16 0 371 291 241 483 82 3 482 4 23 1 8
1 1 291 2281 30 280 0 283 484 373 485 82 3 483 4 9 2 81 1 484 2280 30 372 0 374
 420 291 486 82 3 485 4 8 2 81 1 374 2327 282 372 484 0 371 418 487 81 1 420 227
9 30 376 0 418 488 484 489 82 3 486 4 7 2 81 1 488 2278 30 398 0 401 490 420 491
 82 3 489 4 6 2 81 1 401 2329 282 398 488 0 418 416 492 81 1 490 2277 30 132 0 4
16 493 488 494 82 3 491 4 5 2 81 1 416 2330 282 132 490 0 401 410 495 81 1 493 2
276 30 141 0 410 409 490 496 82 3 494 4 4 2 81 1 410 2331 282 141 493 0 416 292
 497 81 1 409 2275 30 406 0 292 186 493 498 82 3 496 4 3 2 81 1 186 2274 30 179
 0 0 185 409 499 82 3 498 4 2 2 81 1 185 2273 30 146 0 0 23 186 500 82 3 499 4 2
2 1 81 1 23 2272 30 10 0 0 182 185 501 82 3 500 4 21 1 81 1 182 2271 30 25 0 0 1
38 23 502 82 3 501 4 20 1 81 1 138 2270 30 131 0 0 180 182 503 82 3 502 4 19 1 8
1 1 180 2269 30 139 0 0 178 138 504 82 3 503 4 18 1 81 1 178 2268 30 51 0 0 60 1
80 505 82 3 504 4 17 1 81 1 60 2267 30 58 0 0 65 178 506 82 3 505 4 16 1 81 1 65
 2266 30 62 0 0 69 60 507 82 3 506 4 13 0 81 1 69 2265 30 67 0 0 72 65 508 82 3
 507 4 12 0 81 1 72 2264 30 70 0 0 76 69 509 82 3 508 4 11 0 81 1 76 2263 30 74
 0 0 79 72 510 82 3 509 4 10 0 81 1 79 2262 30 78 0 0 82 76 511 82 3 510 4 9 0 8
2 3 511 4 8 0 83 3 497 .603921568627451 .647058823529412 .686274509803922 83 3 4
95 .603921568627451 .647058823529412 .686274509803922 83 3 492 .603921568627451
 .647058823529412 .686274509803922 83 3 487 .603921568627451 .647058823529412 .6
86274509803922 82 3 444 4 19 0 17 118 0 95 111 429 101 257 254 0 0 -17 257 0 419
 66 108 90 118 254 0 0 +17 123 0 399 24 125 101 111 124 0 118 -83 3 421 .6039215
68627451 .647058823529412 .686274509803922 15 196 1596 0 190 132 126 50 281 2 0
 119 305 298 0 +.00672317695112031 -.0116316879517111 .028 0 0 1 1 0 0 51 255 30
5 860 0 296 312 281 0 --.0799268230488797 -.0212816879517111 .014 1 0 0 .014 0 0
 -1 50 312 863 0 303 319 305 0 +-.0799268230488797 -.0116316879517111 .014 -1 0
 0 0 -1 0 51 319 1409 0 310 325 312 0 --.0699268230488797 -.0212816879517111 .01
4 1 0 0 .012 0 0 -1 50 325 1413 0 317 331 319 0 +-.0699268230488797 -.0116316879
517111 .014 -1 0 0 0 -1 0 51 331 1652 0 324 338 325 0 +.0133731769511203 -.01363
16879517111 .014 1 612323399573677e-31 0 .00175 -612323399573677e-31 1 0 51 338
 1813 0 329 345 331 0 +.0163731769511203 -.0136316879517111 .014 1 6123233995736
77e-31 0 .003 -612323399573677e-31 1 0 50 345 1815 0 336 353 338 0 +.01637317695
11203 -.0116316879517111 .014 1 612323399573677e-31 0 -612323399573677e-31 1 0 5
1 353 2027 0 343 361 345 0 +.00672317695112031 -.0069816879517111 .014 -12246467
99147352e-31 1 0 .00175 -1 -1224646799147352e-31 0 51 361 2195 0 351 367 353 0 +
.00672317695112031 -.003981687951711095 .014 -1224646799147352e-31 1 0 .003 -1 -
1224646799147352e-31 0 17 414 0 407 414 414 0 217 211 0 0 -17 217 0 512 217 217
 0 414 211 0 0 +15 512 1797 0 217 329 0 83 3 411 .603921568627451 .6470588235294
12 .686274509803922 82 3 395 4 40 1 15 370 2185 0 391 359 0 17 393 0 360 393 393
 0 391 388 0 0 -15 360 2178 0 393 351 383 15 383 2179 0 381 351 0 81 1 385 2320
 30 384 0 0 354 362 513 82 3 392 4 41 1 82 3 513 4 42 1 17 387 0 352 387 387 0 3
69 384 0 0 +15 352 2126 0 387 343 400 17 369 0 366 369 369 0 387 384 0 0 -82 3 3
86 4 43 1 83 3 375 .603921568627451 .647058823529412 .686274509803922 82 3 364 4
 18 2 82 3 355 4 17 2 82 3 347 4 16 2 15 344 1802 0 514 336 208 17 514 0 344 514
 514 0 210 204 0 0 -15 208 1803 0 203 336 0 17 210 0 330 210 210 0 514 204 0 0 +
15 330 1744 0 210 324 515 15 515 1633 0 197 324 0 17 197 0 515 197 197 0 190 188
 0 0 -81 1 216 2314 30 211 0 0 206 333 516 82 3 340 4 15 2 81 1 206 2313 30 204
 0 0 202 216 517 82 3 516 4 39 1 82 3 517 4 38 1 15 337 1796 0 209 329 512 17 20
9 0 337 209 209 0 203 192 0 0 -82 3 332 4 14 2 82 3 326 4 13 2 82 3 321 4 12 2 8
2 3 313 4 11 2 82 3 307 4 10 2 81 1 175 2253 30 173 0 0 45 172 518 82 3 299 4 1
 2 81 1 172 2254 30 170 0 0 175 169 519 82 3 518 4 8 1 81 1 169 2255 30 134 0 0
 172 167 520 82 3 519 4 9 1 81 1 167 2256 30 154 0 0 169 152 521 82 3 520 4 10 1
 81 1 152 2257 30 150 0 0 167 164 522 82 3 521 4 11 1 81 1 164 2258 30 155 0 0 1
52 161 523 82 3 522 4 12 1 81 1 161 2259 30 158 0 0 164 84 524 82 3 523 4 13 1 8
1 1 84 2260 30 156 0 0 161 82 525 82 3 524 4 14 1 82 3 525 4 15 1 83 3 293 .6039
21568627451 .647058823529412 .686274509803922 79 15 290 SDL/TYSA_COLOUR79 9 269
 BTI/DetId82 3 207 4 37 1 82 3 195 4 36 1 81 1 92 2244 30 143 0 0 142 88 526 82
 3 526 4 7 1 82 3 145 4 6 1 81 1 110 2248 30 109 0 0 107 112 527 81 1 44 2250 30
 42 0 0 112 40 528 82 3 114 4 4 0 82 3 528 4 5 0 81 1 107 2247 30 101 0 0 93 110
 529 82 3 527 4 3 0 81 1 93 2246 30 90 0 0 88 107 530 82 3 529 4 2 0 82 3 530 4
 1 0 82 3 94 4 0 0 82 3 85 4 7 0 82 3 46 4 6 0 82 3 33 4 16 0 19 17 299 0 1 0 9
 5 S0 74 4 CI16 index_map_offset0 0 1 dCCZ20 15 4 0 0 363 13 2 357 0 0 0 0 0 0 0
 0 0 0 0 0 0 0 0 0 80 1 12 531 532 8017 0 0 0 0 0 0 0 0 0 TTTTTTTTTTTTTF3 84 255
 6 14 Part 179 13 532 SDL/TYSA_NAME1 0 
