**ABCDEFGHIJKLMNOPQRSTUVWXYZabcdefghijklmnopqrstuvwxyz**************************
**PARASOLID !"#$%&'()*+,-./:;<=>?@[\]^_`{|}~0123456789**************************
**PART1;
MC=unknown;
MC_MODEL=unknown;
MC_ID=unknown;
OS=unknown;
OS_RELEASE=unknown;
FRU=Parasolid 28.1.228;
APPL=Onshape;
SITE=unknown;
USER=unknown;
FORMAT=text;
GUISE=transmit;
KEY=BTGapi::writeModels_.xmt;
FILE=BTGapi::writeModels_.xmt;
DATE=2016-04-23T18:01:02 (UTC);
**PART2;
SCH=SCH_2801228_28101;
USFLD_SIZE=0;
**PART3;
**END_OF_HEADER*****************************************************************
T51 : TRANSMIT FILE created by modeller version 280122823 SCH_2801228_28101_1300
6203 0 12 33 CCCCCCI4 mesh1006 0 I8 polyline1008 0 CCCCCCCDI5 owner1040 0 CCCCCC
I13 boundary_mesh1006 0 I17 boundary_polyline1008 0 CCCA16 index_map_offset0 0 1
 dA9 index_map82 0 A17 node_id_index_map82 0 A20 schema_embedding_map82 0 A5 chi
ld12 0 A14 lowest_node_id0 0 1 dZ1 2351 2 3 0 0 0 0 0 0 1e3 1e-8 0 4 5 1 0 1 1 6
 7 8 9 0 0 10 11 12 0 0 0 0 0 0 81 255 1 2 2321 13 1 14 0 0 0 15 70 11 CI9 list_
type0 0 1 uI10 notransmit0 0 1 lCCCDCCDI12 finger_index0 0 1 dI12 finger_block10
12 0 CZ3 0 4 T1 0 0 4 20 1 16 16 13 255 6 214 0 1 0 17 0 0 18 0 51 255 7 1048 0
 19 20 0 0 +-1530808498934175e-34 .0025 -.015 -1 -612323399573677e-31 0 .005 612
323399573677e-31 -1 0 31 255 8 942 0 11 21 0 0 +-.1 -.0025 -.015 -1 0 0 0 0 1 .0
05 29 255 9 2009 0 12 22 0 -.096 -188651178012478e-31 -.00526572779264507 19 8 C
CCCCCCA5 owner12 0 Z10 95 0 1 18 0 23 V0 16 255 11 940 24 ?25 0 26 8 0 0 1 18 25
5 12 2007 27 28 0 29 9 ?1 81 1 27 2284 30 12 0 0 31 32 33 17 255 28 0 34 35 36 1
2 37 38 0 39 -18 29 1561 40 41 12 42 22 ?1 81 1 40 1841 30 29 0 0 43 44 45 17 41
 0 46 47 48 29 49 50 0 51 -18 42 917 52 53 29 54 55 ?1 29 22 1563 0 29 55 9 .096
 728583859910259e-31 -.01473427220735492 29 55 921 0 42 56 22 -.1 .0025 -.02 29
 56 916 0 54 57 55 -.1 -.0025 -.02 18 54 912 58 59 42 60 56 ?1 29 57 899 0 60 61
 56 -.096 .0025 -.02 18 60 895 62 63 54 64 57 ?1 29 61 894 0 64 65 57 -.096 -.00
25 -.02 18 64 890 66 67 60 68 61 ?1 29 65 877 0 68 69 61 -.096 -.0075 -.015 18 6
8 873 70 71 64 72 65 ?1 29 69 872 0 72 73 65 -.1 -.0075 -.015 18 72 868 74 25 68
 75 69 ?1 29 73 855 0 75 76 69 .1 -.0075 -.015 18 75 851 77 78 72 79 73 ?1 29 76
 838 0 79 80 73 .1 .0025 -.02 18 79 834 81 82 75 83 76 ?1 29 80 833 0 83 84 76 .
1 -.0025 -.02 18 83 829 85 86 79 87 80 ?1 29 84 816 0 87 88 80 .096 -.0075 -.015
 18 87 812 89 90 83 91 84 ?1 29 88 811 0 91 92 84 .096 .0025 -.02 18 91 807 93 9
4 87 95 88 ?1 29 92 806 0 95 96 88 .096 -.0025 -.02 18 95 802 97 98 91 99 92 ?1
 29 96 789 0 99 100 92 .096 .0075 -.015 18 99 785 101 102 95 103 96 ?1 29 100 78
4 0 103 104 96 .1 .0075 -.015 18 103 780 105 106 99 107 100 ?1 29 104 779 0 107
 108 100 -.1 .0075 -.015 18 107 775 109 110 103 111 104 ?1 29 108 774 0 111 112
 104 -.096 .0075 -.015 18 111 770 113 114 107 115 108 ?1 29 112 506 0 115 116 10
8 .096 -.0075 0 18 115 501 117 118 111 119 112 ?1 29 116 309 0 119 120 112 -.096
 .0075 0 18 119 304 121 122 115 123 116 ?1 29 120 91 0 123 124 116 .1 .0075 .003
 18 123 89 125 126 119 127 120 ?1 29 124 86 0 127 128 120 .1 -.0075 .003 18 127
 84 129 130 123 131 124 ?1 29 128 81 0 131 132 124 -.1 .0075 .003 18 131 79 133
 134 127 135 128 ?1 29 132 76 0 135 136 128 -.1 -.0075 .003 18 135 74 137 138 13
1 139 132 ?1 29 136 464 0 139 140 132 -.096 -.0075 0 18 139 397 141 142 135 143
 136 ?1 29 140 661 0 143 144 136 .096 .0075 0 18 143 600 145 146 139 147 140 ?1
 29 144 1819 0 148 149 140 .096 -.00409999999999993 -.01236713610367746 18 148 1
737 150 151 152 153 144 ?1 29 149 1821 0 153 154 144 .096 .00410000000000007 -.0
1236713610367746 18 153 1725 155 48 148 156 149 ?1 29 154 1822 0 156 157 149 .09
6 .004100000000000075 -.00763286389632254 18 156 1719 158 159 153 160 154 ?1 29
 157 1823 0 160 161 154 .096 771951946809679e-31 -.00526572779264507 18 160 1713
 162 163 156 164 157 ?1 29 161 1824 0 164 165 157 .096 -.00409999999999993 -.007
63286389632254 18 164 1707 166 167 160 168 161 ?1 29 165 1825 0 147 169 161 .098
 -.00409999999999993 -.01236713610367746 18 147 1704 43 170 143 171 165 ?1 29 16
9 1826 0 171 172 165 .098 725370608233612e-31 -.01473427220735492 18 171 1734 44
 47 147 173 169 ?1 29 172 1827 0 173 174 169 .098 .00410000000000007 -.012367136
10367746 18 173 1728 175 176 171 177 172 ?1 29 174 1828 0 177 178 172 .098 .0041
00000000000075 -.00763286389632254 18 177 1722 179 180 173 181 174 ?1 29 178 182
9 0 181 182 174 .098 781749121202858e-31 -.00526572779264507 18 181 1716 183 184
 177 152 178 ?1 29 182 1830 0 152 185 178 .098 -.00409999999999993 -.00763286389
632254 18 152 1710 186 187 181 148 182 ?1 29 185 2262 0 188 189 182 -.096 -.0041
 -.00763286389632254 18 188 2180 190 191 192 193 185 ?1 29 189 2264 0 193 194 18
5 -.096 .0041 -.00763286389632254 18 193 2168 195 36 188 196 189 ?1 29 194 2265
 0 196 197 189 -.096 .0041 -.01236713610367746 18 196 2162 198 199 193 200 194 ?
1 29 197 2266 0 200 201 194 -.096 -238524477946811e-31 -.01473427220735492 18 20
0 2156 202 203 196 204 197 ?1 29 201 2267 0 204 205 197 -.096 -.0041 -.012367136
10367746 18 204 2150 206 207 200 0 201 ?1 29 205 2268 0 168 208 201 -.098 -.0041
 -.00763286389632254 18 168 2147 31 209 164 210 205 ?1 29 208 2269 0 210 211 205
 -.098 -1962799480606855e-32 -.00526572779264507 18 210 2177 32 35 168 212 208 ?
1 29 211 2270 0 212 213 208 -.098 .0041 -.00763286389632254 18 212 2171 214 215
 210 216 211 ?1 29 213 2271 0 216 217 211 -.098 .0041 -.01236713610367746 18 216
 2165 218 219 212 220 213 ?1 29 217 2272 0 220 221 213 -.098 -24832165233999e-30
 -.01473427220735492 18 220 2159 222 223 216 192 217 ?1 29 221 2273 0 192 0 217
 -.098 -.0041 -.01236713610367746 18 192 2153 224 225 220 188 221 ?1 81 1 224 22
81 30 192 0 0 206 190 226 17 225 0 227 228 229 192 207 230 0 231 -15 255 227 218
7 0 229 232 0 17 228 0 227 191 225 168 233 234 0 0 +17 229 0 227 225 191 204 235
 236 0 237 -17 207 0 238 239 231 204 225 230 0 229 +16 230 2057 240 ?207 241 242
 243 0 0 1 17 231 0 238 207 223 192 244 245 0 233 +15 238 2192 0 239 246 0 17 22
3 0 238 231 239 220 203 242 0 244 -17 244 0 247 248 233 220 231 245 0 249 -16 24
5 2137 250 ?231 251 234 252 0 0 1 17 233 0 247 244 253 192 228 234 0 0 -15 247 2
223 0 233 254 255 17 253 0 247 233 256 168 257 258 0 228 -16 234 2117 259 ?228 2
45 260 261 0 0 1 81 1 259 2299 30 234 0 0 262 263 264 16 260 2101 263 ?265 234 3
8 266 0 0 1 30 255 261 2261 0 234 0 252 0 +-.098 -.0041 -.01 -611833983051101e-4
6 12490009027033e-29 1 30 252 2260 0 245 261 267 0 +-.098 -.00222647023999251 -.
01344881901495258 4242300954899625e-31 -.866025403784439 .5 30 267 2259 0 251 25
2 268 0 +-.098 .00187352976000749 -.01365258929607982 4242300954899625e-31 -.866
025403784438 -.5 16 251 2133 269 ?249 270 245 267 0 0 1 30 268 2258 0 270 267 27
1 0 +-.098 .0041 -.01 611833983051101e-46 -12490009027033e-29 -1 16 270 2129 272
 ?273 274 251 268 0 0 1 30 271 2257 0 274 268 275 0 +-.098 .002226470239992465 -
.00655118098504742 -4242300954899625e-31 .866025403784439 -.5 16 274 2125 276 ?2
77 258 270 271 0 0 1 30 275 2256 0 258 271 278 0 +-.098 -.001873529760007535 -.0
0634741070392018 -4242300954899625e-31 .866025403784438 .5 16 258 2121 279 ?257
 280 274 275 0 0 1 31 278 2255 0 280 275 281 0 +-.098 -2449293598294705e-32 -.01
 1 489858719658941e-30 0 -489858719658941e-30 1 0 .0025 16 280 2141 282 ?283 284
 258 278 0 0 1 30 281 2254 0 236 278 285 0 +-.096 -.0041 -.01 -611833983051101e-
46 12490009027033e-29 1 16 236 2051 262 ?235 286 0 281 0 0 1 30 285 2253 0 286 2
81 287 0 +-.096 -.00222647023999251 -.01344881901495258 4242300954899625e-31 -.8
66025403784439 .5 16 286 2061 288 ?237 289 236 285 0 0 1 30 287 2252 0 289 285 2
90 0 +-.096 .00187352976000749 -.01365258929607982 4242300954899625e-31 -.866025
403784438 -.5 16 289 2071 291 ?292 293 286 287 0 0 1 30 290 2251 0 293 287 294 0
 +-.096 .0041 -.01 611833983051101e-46 -12490009027033e-29 -1 16 293 2081 295 ?2
96 38 289 290 0 0 1 30 294 2250 0 38 290 266 0 +-.096 .002226470239992465 -.0065
5118098504742 -4242300954899625e-31 .866025403784439 -.5 16 38 2091 297 ?37 260
 293 294 0 0 1 30 266 2249 0 260 294 298 0 +-.096 -.00187352976000753 -.00634741
070392018 -4242300954899625e-31 .866025403784438 .5 30 298 2247 0 284 266 299 0
 +-.098 -.0041 -.00763286389632254 1 489858719658941e-30 0 16 284 2107 300 ?191
 301 280 298 0 0 1 30 299 2246 0 301 298 302 0 +-.098 -1962799480606855e-32 -.00
526572779264507 1 489858719658941e-30 0 16 301 2097 303 ?39 304 284 299 0 0 1 30
 302 2245 0 304 299 305 0 +-.098 .0041 -.00763286389632254 1 489858719658941e-30
 0 16 304 2087 306 ?36 307 301 302 0 0 1 30 305 2244 0 307 302 308 0 +-.098 .004
1 -.01236713610367746 1 489858719658941e-30 0 16 307 2077 309 ?199 242 304 305 0
 0 1 30 308 2243 0 242 305 243 0 +-.098 -24832165233999e-30 -.01473427220735492
 1 489858719658941e-30 0 16 242 2067 310 ?203 230 307 308 0 0 1 30 243 2242 0 23
0 308 311 0 +-.098 -.0041 -.01236713610367746 1 489858719658941e-30 0 30 311 181
8 0 312 243 313 0 +.098 -.004099999999999925 -.01 0 0 -1 16 312 1674 314 ?315 31
6 317 311 0 0 1 30 313 1817 0 316 311 318 0 +.098 -.002049999999999925 -.0064492
958444838 424230095489963e-30 -.866025403784439 -.5 16 316 1694 319 ?320 321 312
 313 0 0 1 30 318 1816 0 321 313 322 0 +.098 .002050000000000075 -.0064492958444
838 4242300954899625e-31 -.866025403784438 .5 16 321 1690 323 ?324 325 316 318 0
 0 1 30 322 1815 0 325 318 326 0 +.098 .004100000000000075 -.01 -248629603188917
5e-46 507553694996025e-30 1 16 325 1686 327 ?328 329 321 322 0 0 1 30 326 1814 0
 329 322 330 0 +.098 .00205000000000007 -.0135507041555162 -424230095489963e-30
 .866025403784439 .5 16 329 1682 331 ?332 333 325 326 0 0 1 30 330 1813 0 333 32
6 334 0 +.098 -.002049999999999925 -.0135507041555162 -424230095489963e-30 .8660
25403784439 -.5 16 333 1678 335 ?336 337 329 330 0 0 1 31 334 1812 0 337 330 338
 0 +.098 2449293598294705e-32 -.01 1 489858719658941e-30 0 -489858719658941e-30
 1 0 .0025 16 337 1668 339 ?340 341 333 334 0 0 1 30 338 1811 0 241 334 342 0 +.
096 -.00409999999999993 -.01 0 0 -1 16 241 1608 343 ?344 345 230 338 0 0 1 30 34
2 1810 0 345 338 346 0 +.096 -.002049999999999925 -.0064492958444838 42423009548
9963e-30 -.866025403784439 -.5 16 345 1618 347 ?348 349 241 342 0 0 1 30 346 180
9 0 349 342 350 0 +.096 .002050000000000075 -.0064492958444838 4242300954899625e
-31 -.866025403784438 .5 16 349 1628 351 ?352 353 345 346 0 0 1 30 350 1808 0 35
3 346 354 0 +.096 .00410000000000007 -.01 -2486296031889175e-46 507553694996025e
-30 1 16 353 1638 355 ?356 50 349 350 0 0 1 30 354 1807 0 50 350 357 0 +.096 .00
205000000000007 -.0135507041555162 -424230095489963e-30 .866025403784439 .5 16 5
0 1648 358 ?49 317 353 354 0 0 1 30 357 1806 0 317 354 359 0 +.096 -.00204999999
999993 -.0135507041555162 -424230095489963e-30 .866025403784439 -.5 16 317 1658
 360 ?361 312 50 357 0 0 1 30 359 1804 0 341 357 362 0 +.098 -.00409999999999993
 -.01236713610367746 -1 -489858719658941e-30 0 16 341 1664 363 ?151 364 337 359
 0 0 1 30 362 1803 0 364 359 365 0 +.098 725370608233612e-31 -.01473427220735492
 -1 -489858719658941e-30 0 16 364 1654 366 ?51 367 341 362 0 0 1 30 365 1802 0 3
67 362 368 0 +.098 .00410000000000007 -.01236713610367746 -1 -489858719658941e-3
0 0 16 367 1644 369 ?48 370 364 365 0 0 1 30 368 1801 0 370 365 371 0 +.098 .004
100000000000075 -.00763286389632254 -1 -489858719658941e-30 0 16 370 1634 372 ?1
59 373 367 368 0 0 1 30 371 1800 0 373 368 374 0 +.098 781749121202858e-31 -.005
26572779264507 -1 -489858719658941e-30 0 16 373 1624 375 ?163 376 370 371 0 0 1
 30 374 1799 0 376 371 377 0 +.098 -.00409999999999993 -.00763286389632254 -1 -4
89858719658941e-30 0 16 376 1614 378 ?167 379 373 374 0 0 1 31 377 1340 0 379 37
4 380 0 +.1 2449293598294705e-32 -.01 1 2449293598294705e-31 0 -2449293598294705
e-31 1 0 .0025 16 379 1293 381 ?382 383 376 377 0 0 1 31 380 1338 0 383 377 384
 0 +-.1 -2449293598294705e-32 -.01 -1 0 0 0 0 1 .0025 16 383 1284 385 ?386 387 3
79 380 0 0 1 30 384 658 0 388 380 389 0 +.096 .00986400779461243 -.02 -489858719
658941e-30 1 0 16 388 803 390 ?391 392 387 384 0 0 1 30 389 656 0 392 384 393 0
 +.1 .00986400779461242 -.02 -2449293598294705e-31 1 0 16 392 830 394 ?395 396 3
88 389 0 0 1 30 393 654 0 387 389 397 0 +.096 .00986400779461243 0 -489858719658
941e-30 1 0 16 387 555 398 ?399 388 383 393 0 0 1 30 397 648 0 400 393 401 0 +.0
96 .0075 -.02 0 0 1 16 400 786 402 ?146 403 396 397 0 0 1 30 401 647 0 396 397 4
04 0 +.096 -.0075 -.02 0 0 1 16 396 813 405 ?118 400 392 401 0 0 1 30 404 461 0
 406 401 407 0 +-.1 .00986400779461242 -.02 0 1 0 16 406 913 408 ?409 410 403 40
4 0 0 1 30 407 459 0 410 404 411 0 +-.096 .00986400779461241 -.02 -4898587196589
41e-30 1 0 16 410 891 412 ?413 414 406 407 0 0 1 30 411 455 0 403 407 415 0 +-.0
96 .00986400779461241 0 -489858719658941e-30 1 0 16 403 382 416 ?417 406 400 411
 0 0 1 30 415 452 0 414 411 418 0 +-.096 .0075 -.02 0 0 1 16 414 771 419 ?122 42
0 410 415 0 0 1 30 418 451 0 420 415 421 0 +-.096 -.0075 -.02 0 0 1 16 420 874 4
22 ?142 423 414 418 0 0 1 30 421 15 0 424 418 425 0 +-1084202172485544e-34 .0075
 .003 1 612323399573677e-31 0 16 424 14 426 ?427 428 429 421 0 0 1 30 425 23 0 4
28 421 430 0 +-1084202172485508e-34 -.0075 .003 1 612323399573677e-31 0 16 428 2
2 431 ?130 432 424 425 0 0 1 30 430 31 0 432 425 433 0 +-.1 .00986400779461242 .
003 0 1 0 16 432 30 434 ?435 436 428 430 0 0 1 30 433 47 0 436 430 437 0 +.1 .00
986400779461242 .003 -2449293598294705e-31 1 0 16 436 46 438 ?126 439 432 433 0
 0 1 30 437 189 0 423 433 440 0 +-1084202172485544e-34 .0075 0 1 612323399573677
e-31 0 16 423 161 441 ?442 429 420 437 0 0 1 30 440 188 0 429 437 443 0 +-108420
2172485508e-34 -.0075 0 1 612323399573677e-31 0 16 429 153 444 ?445 424 423 440
 0 0 1 30 443 210 0 439 440 446 0 +.1 .0075 .003 0 0 -1 16 439 194 447 ?448 449
 436 443 0 0 1 30 446 211 0 449 443 450 0 +.1 -.0075 .003 0 0 -1 16 449 195 451
 ?452 453 439 446 0 0 1 30 450 212 0 454 446 455 0 +-.1 .0075 .003 0 0 -1 16 454
 196 456 ?457 458 453 450 0 0 1 30 455 213 0 453 450 459 0 +-.1 -.0075 .003 0 0
 -1 16 453 197 460 ?461 454 449 455 0 0 1 30 459 792 0 458 455 462 0 --.1 .0075
 -.015 1 612323399573677e-31 0 16 458 790 463 ?110 464 454 459 0 0 1 30 462 798
 0 464 459 465 0 +.096 .0075 -.015 -1 -612323399573677e-31 0 16 464 796 466 ?467
 468 458 462 0 0 1 31 465 819 0 468 462 469 0 -.096 -.0025 -.015 1 4898587196589
41e-30 0 -489858719658941e-30 1 0 .005 16 468 817 470 ?90 471 464 465 0 0 1 31 4
69 825 0 471 465 472 0 -.096 .0025 -.015 1 489858719658941e-30 0 -48985871965894
1e-30 1 0 .005 16 471 823 473 ?94 474 468 469 0 0 1 30 472 841 0 474 469 475 0 +
1530808498934205e-34 -.0025 -.02 -1 -612323399573677e-31 0 16 474 839 476 ?477 4
78 471 472 0 0 1 30 475 847 0 478 472 479 0 -.1 .0025 -.02 -1 -612323399573677e-
31 0 16 478 845 480 ?82 481 474 475 0 0 1 31 479 858 0 481 475 482 0 -.1 -.0025
 -.015 -1 -2449293598294705e-31 0 2449293598294705e-31 -1 0 .005 16 481 856 483
 ?86 484 478 479 0 0 1 31 482 864 0 484 479 485 0 -.1 .0025 -.015 -1 -2449293598
294705e-31 0 2449293598294705e-31 -1 0 .005 16 484 862 486 ?106 487 481 482 0 0
 1 30 485 880 0 487 482 488 0 +-1084202172485508e-34 -.0075 -.015 1 612323399573
677e-31 0 16 487 878 489 ?490 491 484 485 0 0 1 30 488 886 0 491 485 492 0 --108
4202172485508e-34 -.0075 -.015 -1 -612323399573677e-31 0 16 491 884 493 ?78 494
 487 488 0 0 1 31 492 902 0 494 488 495 0 +-.096 .0025 -.015 1 489858719658941e-
30 0 -489858719658941e-30 1 0 .005 16 494 900 496 ?114 497 491 492 0 0 1 31 495
 908 0 497 492 498 0 +-.096 -.0025 -.015 1 489858719658941e-30 0 -48985871965894
1e-30 1 0 .005 16 497 906 499 ?67 500 494 495 0 0 1 30 498 924 0 500 495 501 0 +
-.096 .0025 -.02 1 612323399573677e-31 0 16 500 922 502 ?503 504 497 498 0 0 1 3
0 501 930 0 504 498 21 0 -1530808498934205e-34 -.0025 -.02 1 612323399573677e-31
 0 16 504 928 505 ?59 26 500 501 0 0 1 31 21 936 0 26 501 8 0 +-.1 .0025 -.015 -
1 0 0 0 0 1 .005 16 26 934 506 ?53 11 504 21 0 0 1 81 1 506 1085 30 26 0 0 463 4
08 507 17 53 0 508 509 457 42 510 26 0 409 +15 508 200 0 509 511 0 17 509 0 508
 25 53 54 409 406 0 512 -17 457 0 508 53 435 107 134 454 0 510 +17 510 0 513 514
 515 107 53 26 0 0 -17 409 0 516 503 59 42 509 406 0 515 +15 516 436 0 517 518 0
 17 503 0 516 517 409 60 515 500 0 413 +17 59 0 516 409 517 54 519 504 0 509 +17
 515 0 513 510 63 42 503 500 0 0 -15 513 1037 0 510 19 0 17 63 0 513 515 514 60
 114 494 0 503 -17 514 0 513 63 510 111 110 458 0 0 -17 114 0 520 122 413 111 63
 494 0 521 +15 520 426 0 522 17 523 17 122 0 520 524 114 119 521 414 0 417 +17 4
13 0 520 114 67 60 517 410 0 0 +17 521 0 525 110 526 111 122 414 0 514 -15 525 2
04 0 448 527 0 17 110 0 525 134 521 107 514 458 0 457 +17 526 0 525 521 146 119
 442 423 0 0 -17 146 0 525 526 467 143 528 400 0 442 +17 442 0 529 530 417 143 5
26 423 0 399 +15 529 514 0 530 531 0 17 530 0 529 532 442 115 399 387 0 445 -17
 417 0 529 442 532 119 524 403 0 526 +17 399 0 533 528 118 143 530 387 0 0 +15 5
33 628 0 528 534 535 17 528 0 533 94 399 99 146 400 0 0 -17 118 0 533 399 90 115
 536 396 0 530 +17 90 0 533 118 537 87 98 468 0 536 +17 536 0 538 78 445 87 118
 396 0 539 -15 538 202 0 536 540 0 17 78 0 538 541 536 75 539 491 0 452 +17 445
 0 538 536 142 115 532 429 0 0 +17 539 0 542 98 543 87 78 491 0 0 -15 542 995 0
 543 544 0 17 98 0 542 545 539 95 90 468 0 477 -17 543 0 542 539 545 75 86 481 0
 0 -17 545 0 542 543 98 83 477 474 0 0 -17 86 0 546 395 452 83 543 481 0 547 +15
 546 198 0 395 548 0 17 395 0 546 106 86 79 547 392 0 549 +17 452 0 546 86 550 7
5 541 449 0 543 +17 547 0 551 477 82 83 395 392 0 545 -15 551 633 0 391 552 0 17
 477 0 551 391 547 95 545 474 0 537 +17 82 0 551 547 391 79 553 478 0 395 +17 39
1 0 551 82 477 91 537 388 0 553 +17 553 0 554 102 549 91 82 478 0 0 -15 554 974
 0 549 555 0 17 102 0 554 556 553 99 94 471 0 467 -17 549 0 554 553 556 79 106 4
84 0 0 -17 556 0 554 549 102 103 467 464 0 0 -17 106 0 546 557 395 103 549 484 0
 448 +17 557 0 546 550 106 123 448 439 0 427 -17 448 0 525 467 427 103 557 439 0
 556 +17 467 0 525 146 448 99 556 464 0 528 +17 427 0 525 448 134 123 558 424 0
 0 +17 134 0 525 427 110 131 457 454 0 558 -17 558 0 559 560 126 131 427 424 0 4
35 -15 559 5 0 558 561 0 17 560 0 559 130 558 135 435 432 0 0 -17 126 0 559 558
 130 123 550 436 0 557 +17 435 0 508 457 138 131 560 432 0 0 +17 138 0 508 435 2
5 135 461 453 0 562 -17 25 0 508 138 509 72 512 11 0 461 +17 461 0 538 490 562 7
2 138 453 0 563 +17 562 0 538 461 541 135 130 428 0 560 -17 541 0 538 562 78 127
 452 449 0 550 -17 130 0 559 126 560 127 562 428 0 541 +17 550 0 546 452 557 127
 126 436 0 0 -17 490 0 538 142 461 68 563 487 0 522 +17 563 0 564 512 71 72 490
 487 0 0 -15 564 1016 0 512 565 0 17 512 0 564 519 563 54 25 11 0 0 -17 71 0 564
 563 519 68 67 497 0 490 -17 519 0 564 71 512 64 59 504 0 0 -17 67 0 520 413 522
 64 71 497 0 517 +17 522 0 520 67 524 68 142 420 0 0 -17 517 0 516 59 503 64 413
 410 0 519 -17 524 0 520 522 122 139 417 403 0 532 -17 142 0 538 445 490 139 522
 420 0 524 +17 532 0 529 417 530 139 445 429 0 0 -14 255 565 1015 566 ?19 544 56
4 6 20 +0 0 19 544 23 81 1 566 2335 567 565 568 0 569 570 571 14 19 1036 570 ?57
2 565 513 6 7 +0 0 572 565 23 14 544 994 569 ?565 555 542 6 573 +0 0 565 555 23
 51 20 1027 0 565 573 7 0 +-414581917035389e-33 -.0025 -.015 1 612323399573677e-
31 0 .005 -612323399573677e-31 1 0 13 23 96 0 0 0 0 0 0 10 17 14 17 422 574 ?534
 0 520 6 575 +0 0 534 0 23 81 1 574 2322 567 17 576 0 0 577 578 14 534 624 577 ?
579 17 533 6 580 -0 0 579 17 23 50 255 575 446 0 17 581 582 0 +-.096 .0098640077
9461241 -.02 1 489858719658941e-30 0 -489858719658941e-30 1 0 50 581 449 0 518 5
80 575 0 +0 242861286636753e-31 -.02 0 0 1 1 0 0 50 582 2 0 561 575 583 0 +0 242
861286636753e-31 .003 0 0 1 1 0 0 14 561 1 584 ?518 548 559 6 582 +0 0 518 548 2
3 50 583 185 0 531 582 585 0 +0 242861286636753e-31 0 0 0 1 1 0 0 14 531 131 586
 ?527 579 529 6 583 -0 0 527 579 23 50 585 206 0 548 583 587 0 +.1 .009864007794
61242 .003 -1 -2449293598294705e-31 0 2449293598294705e-31 -1 0 14 548 199 588 ?
561 540 589 6 585 -0 0 561 540 23 50 587 207 0 511 585 590 0 +-.1 .0098640077946
1242 .003 -1 0 0 0 0 1 14 511 201 591 ?540 527 592 6 587 +0 0 540 527 23 50 590
 208 0 540 587 593 0 +-1084202172485508e-34 -.0075 .003 -612323399573677e-31 1 0
 -1 -612323399573677e-31 0 14 540 203 594 ?548 511 538 6 590 -0 0 548 511 23 50
 593 209 0 527 590 595 0 +-1084202172485544e-34 .0075 .003 -612323399573677e-31
 1 0 -1 -612323399573677e-31 0 14 527 205 596 ?511 531 525 6 593 +0 0 511 531 23
 51 595 985 0 555 593 573 0 +197741482538284e-33 .0025 -.015 1 612323399573677e-
31 0 .005 -612323399573677e-31 1 0 14 555 973 597 ?544 552 554 6 595 +0 0 544 55
2 23 51 573 1006 0 544 595 20 0 +1530808498934205e-34 -.0025 -.015 -1 -612323399
573677e-31 0 .005 612323399573677e-31 -1 0 81 1 597 2333 567 555 598 0 599 569 6
00 14 552 629 599 ?555 518 551 6 601 -0 0 555 518 23 81 1 599 2332 567 552 602 0
 603 597 604 14 518 432 603 ?552 561 516 6 581 -0 0 552 561 23 50 601 646 0 552
 605 580 0 +0 242861286636753e-31 -.02 0 0 1 1 0 0 51 605 1335 0 572 606 601 0 +
-.1018861996868378 -249549216647548e-31 -.01 1 2449293598294705e-31 0 .0025 -244
9293598294705e-31 1 0 50 580 641 0 534 601 581 0 +.096 .00986400779461243 -.02 1
 489858719658941e-30 0 -489858719658941e-30 1 0 14 572 1317 607 ?608 19 609 6 60
5 -579 579 608 19 23 50 606 1790 0 608 610 605 0 +.098 -.004099999999999925 -.01
 -489858719658941e-30 1 0 -1 -489858719658941e-30 0 14 608 1740 611 ?612 572 613
 6 606 +0 0 612 572 23 50 610 1791 0 612 614 606 0 +.098 -.002049999999999925 -.
0064492958444838 -2449293598294705e-31 .5 -.866025403784439 0 .866025403784439 .
5 14 612 1745 615 ?616 608 617 6 610 +0 0 616 608 23 50 614 1792 0 616 618 610 0
 +.098 .002050000000000075 -.0064492958444838 244929359829471e-30 -.5 -.86602540
3784438 0 .866025403784438 -.5 14 616 1750 619 ?620 612 621 6 614 +0 0 620 612 2
3 50 618 1793 0 620 622 614 0 +.098 .004100000000000075 -.01 489858719658941e-30
 -1 507553694996025e-30 0 -507553694996025e-30 -1 14 620 1755 623 ?624 616 625 6
 618 +0 0 624 616 23 50 622 1794 0 624 626 618 0 +.098 .00205000000000007 -.0135
507041555162 2449293598294705e-31 -.5 .866025403784439 0 -.866025403784439 -.5 1
4 624 1760 627 ?628 620 46 6 622 +0 0 628 620 23 50 626 1795 0 628 629 622 0 +.0
98 -.002049999999999925 -.0135507041555162 -244929359829471e-30 .5 .866025403784
439 0 -.866025403784439 .5 14 628 1765 630 ?631 624 632 6 626 +0 0 631 624 23 50
 629 1798 0 631 633 626 0 +.098 549450484304835e-31 -.01 -1 -489858719658941e-30
 0 489858719658941e-30 -1 0 14 631 1776 634 ?232 628 635 6 629 +0 0 232 628 23 5
0 633 2233 0 232 636 629 0 +-.098 -.0041 -.01 -489858719658941e-30 1 -1249000902
703302e-31 -1 -489858719658941e-30 0 14 232 2183 637 ?246 631 227 6 633 +0 0 246
 631 23 50 636 2234 0 246 638 633 0 +-.098 -.00222647023999251 -.013448819014952
58 -244929359829471e-30 .5 .866025403784439 0 -.866025403784439 .5 14 246 2188 6
39 ?640 232 238 6 636 +0 0 640 232 23 50 638 2235 0 640 641 636 0 +-.098 .001873
52976000749 -.01365258929607982 244929359829471e-30 -.5 .866025403784438 0 -.866
025403784438 -.5 14 640 2193 642 ?643 246 644 6 638 +0 0 643 246 23 50 641 2236
 0 643 645 638 0 +-.098 .0041 -.01 489858719658941e-30 -1 1249000902703302e-31 1
 489858719658941e-30 0 14 643 2198 646 ?647 640 648 6 641 +0 0 647 640 23 50 645
 2237 0 647 649 641 0 +-.098 .002226470239992465 -.00655118098504742 24492935982
9471e-30 -.5 -.866025403784439 0 .866025403784439 -.5 14 647 2203 650 ?651 643 3
4 6 645 +0 0 651 643 23 50 649 2238 0 651 652 645 0 +-.098 -.001873529760007535
 -.00634741070392018 -244929359829471e-30 .5 -.866025403784438 0 .86602540378443
8 .5 14 651 2208 653 ?254 647 654 6 649 +0 0 254 647 23 50 652 2241 0 254 0 649
 0 +-.098 -637279110313288e-32 -.01 1 489858719658941e-30 0 -489858719658941e-30
 1 0 14 254 2219 655 ?0 651 247 6 652 +0 0 0 651 23 81 1 655 2351 567 254 656 0
 653 0 657 80 255 1 567 0 658 8001 0 0 0 0 3 5 0 0 0 FFFFTFTFFFFFFF2 81 1 656 23
12 30 254 0 655 659 660 661 81 1 653 2350 567 651 660 0 650 655 662 83 255 3 657
 .603921568627451 .647058823529412 .686274509803922 81 1 660 2313 30 651 0 653 6
56 663 664 81 1 650 2349 567 647 663 0 646 653 665 83 3 662 .603921568627451 .64
7058823529412 .686274509803922 81 1 663 2314 30 647 0 650 660 666 667 81 1 646 2
348 567 643 666 0 642 650 668 83 3 665 .603921568627451 .647058823529412 .686274
509803922 81 1 666 2315 30 643 0 646 663 669 670 81 1 642 2347 567 640 669 0 639
 646 671 83 3 668 .603921568627451 .647058823529412 .686274509803922 81 1 669 23
16 30 640 0 642 666 672 673 81 1 639 2346 567 246 672 0 637 642 674 83 3 671 .60
3921568627451 .647058823529412 .686274509803922 81 1 672 2317 30 246 0 639 669 5
76 675 81 1 637 2345 567 232 659 0 634 639 676 83 3 674 .603921568627451 .647058
823529412 .686274509803922 81 1 659 2311 30 232 0 637 282 656 677 81 1 634 2344
 567 631 678 0 630 637 679 83 3 676 .603921568627451 .647058823529412 .686274509
803922 81 1 678 1869 30 631 0 634 680 681 682 81 1 630 2343 567 628 681 0 627 63
4 683 83 3 679 .603921568627451 .647058823529412 .686274509803922 81 1 681 1870
 30 628 0 630 678 684 685 81 1 627 2342 567 624 684 0 623 630 686 83 3 683 .6039
21568627451 .647058823529412 .686274509803922 81 1 684 1871 30 624 0 627 681 687
 688 81 1 623 2341 567 620 687 0 619 627 689 83 3 686 .603921568627451 .64705882
3529412 .686274509803922 81 1 687 1872 30 620 0 623 684 690 691 81 1 619 2340 56
7 616 690 0 615 623 692 83 3 689 .603921568627451 .647058823529412 .686274509803
922 81 1 690 1873 30 616 0 619 687 693 694 81 1 615 2339 567 612 693 0 611 619 6
95 83 3 692 .603921568627451 .647058823529412 .686274509803922 81 1 693 1874 30
 612 0 615 690 696 697 81 1 611 2338 567 608 680 0 607 615 698 83 3 695 .6039215
68627451 .647058823529412 .686274509803922 81 1 680 1868 30 608 0 611 339 678 69
9 81 1 607 2337 567 572 700 0 570 611 701 83 3 698 .603921568627451 .64705882352
9412 .686274509803922 81 1 700 2319 30 572 0 607 576 0 702 81 1 570 2336 567 19
 703 0 566 607 704 83 3 701 .603921568627451 .647058823529412 .686274509803922 8
1 1 703 1103 30 19 0 570 568 705 706 83 3 704 .603921568627451 .647058823529412
 .686274509803922 80 1 30 707 708 9000 0 0 0 0 3 6 0 0 0 FFTFTFTTFFFFFF1 81 1 56
8 1102 30 565 0 566 447 703 709 81 1 705 1104 30 544 0 569 703 598 710 82 255 3
 706 9 1 2 81 1 569 2334 567 544 705 0 597 566 711 81 1 598 1105 30 555 0 597 70
5 712 713 82 3 710 9 2 2 81 1 712 1106 30 518 0 603 598 602 714 82 3 713 9 3 2 8
1 1 603 2331 567 518 712 0 584 599 715 81 1 602 1108 30 552 0 599 712 716 717 82
 3 714 9 4 2 81 1 716 1110 30 527 0 596 602 718 719 82 3 717 9 6 2 81 1 596 2326
 567 527 716 0 586 591 720 81 1 718 1111 30 540 0 594 716 381 721 82 3 719 9 8 2
 81 1 594 2328 567 540 718 0 591 588 722 81 1 381 1349 30 379 0 0 718 723 724 82
 3 721 9 9 2 81 1 723 1352 30 511 0 591 381 725 726 82 3 724 13 0 1 81 1 591 232
7 567 511 723 0 596 594 727 81 1 725 1353 30 548 0 588 723 385 728 82 3 726 13 2
 2 81 1 588 2329 567 548 725 0 594 584 729 81 1 385 1356 30 383 0 0 725 166 730
 82 3 728 13 3 2 81 1 166 1837 30 164 0 0 385 186 731 82 3 730 13 3 1 81 1 186 1
838 30 152 0 0 166 150 732 82 3 731 19 0 0 81 1 150 1839 30 148 0 0 186 43 733 8
2 3 732 19 1 0 81 1 43 1840 30 147 0 0 150 40 734 82 3 733 19 2 0 82 3 734 19 3
 0 81 1 584 2330 567 561 735 0 588 603 736 83 3 729 .603921568627451 .6470588235
29412 .686274509803922 81 1 735 254 30 561 0 584 438 737 738 83 3 736 .603921568
627451 .647058823529412 .686274509803922 81 1 438 252 30 436 0 0 434 735 739 81
 1 737 698 30 1 0 14 735 121 740 82 3 738 6 1 2 81 1 14 2320 741 1 737 2 0 0 742
 81 1 121 699 30 119 0 0 737 145 743 82 3 740 6 0 3 81 1 145 700 30 143 0 0 121
 141 744 82 3 743 8 0 0 81 1 141 701 30 139 0 0 145 117 745 82 3 744 8 1 0 81 1
 117 702 30 115 0 0 141 441 746 82 3 745 8 2 0 81 1 441 707 30 423 0 0 117 444 7
47 82 3 746 8 3 0 81 1 444 708 30 429 0 0 441 416 748 82 3 747 8 4 1 81 1 416 70
9 30 403 0 0 444 398 749 82 3 748 8 5 1 81 1 398 710 30 387 0 0 416 750 751 82 3
 749 8 6 1 81 1 750 715 30 531 0 586 398 66 752 82 3 751 8 7 1 81 1 586 2325 567
 531 750 0 753 596 754 81 1 66 1058 30 64 0 0 750 58 755 82 3 752 8 4 2 81 1 58
 1059 30 54 0 0 66 70 756 82 3 755 9 0 0 81 1 70 1060 30 68 0 0 58 74 757 82 3 7
56 9 1 0 81 1 74 1061 30 72 0 0 70 62 758 82 3 757 9 2 0 81 1 62 1062 30 60 0 0
 74 52 759 82 3 758 9 3 0 81 1 52 1063 30 42 0 0 62 113 760 82 3 759 9 4 0 81 1
 113 1064 30 111 0 0 52 109 761 82 3 760 9 5 0 81 1 109 1065 30 107 0 0 113 97 7
62 82 3 761 9 6 0 81 1 97 1066 30 95 0 0 109 85 763 82 3 762 9 7 0 81 1 85 1067
 30 83 0 0 97 89 764 82 3 763 9 8 0 81 1 89 1068 30 87 0 0 85 77 765 82 3 764 9
 9 0 81 1 77 1069 30 75 0 0 89 93 766 82 3 765 9 10 0 81 1 93 1070 30 91 0 0 77
 81 767 82 3 766 9 11 0 81 1 81 1071 30 79 0 0 93 101 768 82 3 767 9 12 0 81 1 1
01 1072 30 99 0 0 81 105 769 82 3 768 9 13 0 81 1 105 1073 30 103 0 0 101 419 77
0 82 3 769 9 14 0 81 1 419 1074 30 414 0 0 105 402 771 82 3 770 9 15 0 81 1 402
 1075 30 400 0 0 419 422 772 82 3 771 9 0 1 81 1 422 1076 30 420 0 0 402 405 773
 82 3 772 9 1 1 81 1 405 1077 30 396 0 0 422 505 774 82 3 773 9 2 1 81 1 505 107
8 30 504 0 0 405 499 775 82 3 774 9 3 1 81 1 499 1079 30 497 0 0 505 489 776 82
 3 775 9 4 1 81 1 489 1080 30 487 0 0 499 24 777 82 3 776 9 5 1 81 1 24 1081 30
 11 0 0 489 502 778 82 3 777 9 6 1 81 1 502 1082 30 500 0 0 24 496 779 82 3 778
 9 7 1 81 1 496 1083 30 494 0 0 502 463 780 82 3 779 9 8 1 81 1 463 1084 30 458
 0 0 496 506 781 82 3 780 9 9 1 82 3 781 9 10 1 81 1 753 2324 567 579 782 0 577
 586 783 83 3 754 .603921568627451 .647058823529412 .686274509803922 14 579 1311
 753 ?531 534 784 6 605 -572 572 531 534 23 81 1 782 1876 30 579 0 753 696 206 7
85 81 1 577 2323 567 534 696 0 574 753 786 83 3 783 .603921568627451 .6470588235
29412 .686274509803922 81 1 696 1875 30 534 0 577 693 782 787 83 3 786 .60392156
8627451 .647058823529412 .686274509803922 82 3 787 19 7 2 81 1 206 2280 30 204 0
 0 782 224 788 82 3 785 19 8 2 82 3 788 21 0 0 15 784 1315 0 382 579 789 17 382
 0 784 382 382 0 790 379 0 0 +15 789 1556 0 791 579 0 17 791 0 789 791 791 0 340
 337 0 0 -17 340 0 792 340 340 0 791 337 0 0 +15 792 1781 0 340 631 0 17 790 0 5
89 790 790 0 382 379 0 0 -15 589 1266 0 790 548 546 80 1 741 13 793 8038 0 0 0 0
 0 0 0 0 0 TTTTTTTTTTTTTF10 98 255 6 742 80 97 114 116 32 49 79 255 14 793 SDL/T
YSA_UNAME81 1 434 250 30 432 0 0 431 438 794 82 3 739 6 11 1 81 1 431 248 30 428
 0 0 426 434 795 82 3 794 6 9 1 81 1 426 246 30 424 0 0 125 431 796 82 3 795 6 7
 1 81 1 125 240 30 123 0 0 129 426 797 82 3 796 6 5 1 81 1 129 238 30 127 0 0 13
3 125 798 82 3 797 6 7 0 81 1 133 236 30 131 0 0 137 129 799 82 3 798 6 5 0 81 1
 137 234 30 135 0 0 0 133 800 82 3 799 6 3 0 82 3 800 6 1 0 83 3 727 .6039215686
27451 .647058823529412 .686274509803922 83 3 722 .603921568627451 .6470588235294
12 .686274509803922 83 3 720 .603921568627451 .647058823529412 .686274509803922
 83 3 715 .603921568627451 .647058823529412 .686274509803922 83 3 711 .603921568
627451 .647058823529412 .686274509803922 81 1 447 1101 30 439 0 0 451 568 801 82
 3 709 9 0 2 81 1 451 1100 30 449 0 0 456 447 802 82 3 801 9 27 1 81 1 456 1099
 30 454 0 0 460 451 803 82 3 802 9 26 1 81 1 460 1098 30 453 0 0 390 456 804 82
 3 803 9 25 1 81 1 390 1097 30 388 0 0 394 460 805 82 3 804 9 24 1 81 1 394 1096
 30 392 0 0 486 390 806 82 3 805 9 23 1 81 1 486 1095 30 484 0 0 466 394 807 82
 3 806 9 22 1 81 1 466 1094 30 464 0 0 473 486 808 82 3 807 9 21 1 81 1 473 1093
 30 471 0 0 480 466 809 82 3 808 9 20 1 81 1 480 1092 30 478 0 0 483 473 810 82
 3 809 9 19 1 81 1 483 1091 30 481 0 0 493 480 811 82 3 810 9 18 1 81 1 493 1090
 30 491 0 0 470 483 812 82 3 811 9 17 1 81 1 470 1089 30 468 0 0 476 493 813 82
 3 812 9 16 1 81 1 476 1088 30 474 0 0 412 470 814 82 3 813 9 15 1 81 1 412 1087
 30 410 0 0 408 476 815 82 3 814 9 14 1 81 1 408 1086 30 406 0 0 506 412 816 82
 3 815 9 13 1 82 3 816 9 12 1 79 9 708 BTI/DetId81 1 576 2318 30 17 0 574 672 70
0 817 82 3 702 21 8 2 82 3 817 21 7 2 81 1 339 1867 30 337 0 0 319 680 818 82 3
 699 19 0 2 81 1 319 1866 30 316 0 0 347 339 819 82 3 818 19 18 1 81 1 347 1865
 30 345 0 0 323 319 820 82 3 819 19 17 1 81 1 323 1864 30 321 0 0 351 347 821 82
 3 820 19 16 1 81 1 351 1863 30 349 0 0 327 323 822 82 3 821 19 15 1 81 1 327 18
62 30 325 0 0 355 351 823 82 3 822 19 14 1 81 1 355 1861 30 353 0 0 331 327 824
 82 3 823 19 13 1 81 1 331 1860 30 329 0 0 358 355 825 82 3 824 19 12 1 81 1 358
 1859 30 50 0 0 335 331 826 82 3 825 19 11 1 81 1 335 1858 30 333 0 0 360 358 82
7 82 3 826 19 10 1 81 1 360 1857 30 317 0 0 314 335 828 82 3 827 19 9 1 81 1 314
 1856 30 312 0 0 343 360 829 82 3 828 19 8 1 81 1 343 1855 30 241 0 0 375 314 83
0 82 3 829 19 7 1 81 1 375 1854 30 373 0 0 372 343 831 82 3 830 19 6 1 81 1 372
 1853 30 370 0 0 369 375 832 82 3 831 19 5 1 81 1 369 1852 30 367 0 0 366 372 83
3 82 3 832 19 4 1 81 1 366 1851 30 364 0 0 363 369 834 82 3 833 19 3 1 81 1 363
 1850 30 341 0 0 378 366 835 82 3 834 19 2 1 81 1 378 1849 30 376 0 0 183 363 83
6 82 3 835 19 1 1 81 1 183 1848 30 181 0 0 162 378 837 82 3 836 19 0 1 81 1 162
 1847 30 160 0 0 179 183 838 82 3 837 19 11 0 81 1 179 1846 30 177 0 0 158 162 8
39 82 3 838 19 10 0 81 1 158 1845 30 156 0 0 175 179 840 82 3 839 19 9 0 81 1 17
5 1844 30 173 0 0 155 158 841 82 3 840 19 8 0 81 1 155 1843 30 153 0 0 44 175 84
2 82 3 841 19 7 0 81 1 44 1842 30 171 0 0 40 155 843 82 3 842 19 6 0 82 3 843 19
 5 0 82 3 697 19 6 2 82 3 694 19 5 2 82 3 691 19 4 2 82 3 688 19 3 2 82 3 685 19
 2 2 82 3 682 19 1 2 81 1 282 2310 30 280 0 0 250 659 844 82 3 677 21 0 2 81 1 2
50 2309 30 245 0 0 288 282 845 82 3 844 21 18 1 81 1 288 2308 30 286 0 0 269 250
 846 82 3 845 21 17 1 81 1 269 2307 30 251 0 0 291 288 847 82 3 846 21 16 1 81 1
 291 2306 30 289 0 0 272 269 848 82 3 847 21 15 1 81 1 272 2305 30 270 0 0 295 2
91 849 82 3 848 21 14 1 81 1 295 2304 30 293 0 0 276 272 850 82 3 849 21 13 1 81
 1 276 2303 30 274 0 0 297 295 851 82 3 850 21 12 1 81 1 297 2302 30 38 0 0 279
 276 852 82 3 851 21 11 1 81 1 279 2301 30 258 0 0 263 297 853 82 3 852 21 10 1
 81 1 263 2300 30 260 0 0 259 279 854 82 3 853 21 9 1 82 3 854 21 8 1 82 3 675 2
1 6 2 82 3 673 21 5 2 82 3 670 21 4 2 82 3 667 21 3 2 82 3 664 21 2 2 82 3 661 2
1 1 2 79 15 658 SDL/TYSA_COLOUR15 654 2212 0 855 651 0 17 855 0 654 209 39 188 2
65 260 0 235 -17 209 0 654 257 855 168 191 284 0 253 -17 39 0 654 855 257 12 35
 301 0 265 +17 265 0 523 37 235 12 855 260 0 0 +17 235 0 523 265 237 188 229 236
 0 0 +15 523 2005 0 237 17 0 17 237 0 523 235 292 204 239 286 0 0 +17 292 0 523
 237 296 200 856 289 0 0 +17 239 0 238 223 207 200 237 286 0 292 -17 296 0 523 2
92 37 196 857 293 0 0 +17 856 0 644 219 203 196 292 289 0 296 -15 644 2197 0 856
 640 0 17 219 0 644 249 856 216 199 307 0 248 -17 203 0 644 856 249 200 223 242
 0 239 +17 249 0 644 203 219 220 248 251 0 0 +17 248 0 247 858 244 216 249 251 0
 273 -17 858 0 247 256 248 212 273 270 0 277 -17 273 0 648 199 215 216 858 270 0
 0 +15 648 2202 0 857 643 0 17 199 0 648 857 273 196 219 307 0 856 +17 215 0 648
 273 857 212 36 304 0 858 -17 857 0 648 215 199 193 296 293 0 37 -17 36 0 34 28
 277 193 215 304 0 857 +15 34 2207 0 28 647 0 17 277 0 34 36 35 212 256 274 0 0
 +17 35 0 34 277 28 210 39 301 0 256 -17 256 0 247 253 858 210 277 274 0 257 -17
 257 0 654 39 209 210 253 258 0 0 +17 37 0 523 296 265 193 28 38 0 0 +17 191 0 2
27 229 228 188 209 284 0 855 +15 635 1780 0 859 631 792 17 859 0 635 860 861 152
 315 312 0 0 -17 860 0 635 862 859 181 320 316 0 324 -17 861 0 635 859 863 147 3
36 333 0 315 -17 315 0 613 151 187 147 859 312 0 0 +15 613 1744 0 864 608 0 17 1
51 0 613 864 315 148 170 341 0 865 +17 187 0 613 315 864 152 167 376 0 320 -17 8
64 0 613 187 151 164 344 241 0 348 -17 167 0 617 866 320 164 187 376 0 864 +17 3
20 0 617 167 184 152 860 316 0 859 +15 617 1749 0 866 612 0 17 184 0 617 320 866
 181 163 373 0 860 -17 866 0 617 184 167 160 348 345 0 352 -17 163 0 621 867 324
 160 184 373 0 866 +15 621 1754 0 867 616 0 17 867 0 621 180 163 156 352 349 0 3
56 -17 324 0 621 163 180 181 862 321 0 0 +17 180 0 621 324 867 177 159 370 0 862
 -17 862 0 635 868 860 177 324 321 0 328 -17 868 0 635 863 862 173 328 325 0 332
 -17 328 0 625 159 176 177 868 325 0 0 +15 625 1759 0 869 620 0 17 159 0 625 869
 328 156 180 370 0 867 +17 176 0 625 328 869 173 48 367 0 868 -17 869 0 625 176
 159 153 356 353 0 49 -17 48 0 46 41 332 153 176 367 0 869 +15 46 1764 0 41 624
 0 17 332 0 46 48 47 173 863 329 0 0 +17 47 0 46 332 41 171 51 364 0 863 -17 863
 0 635 861 868 171 332 329 0 336 -17 336 0 632 51 170 171 861 333 0 0 +15 632 17
69 0 865 628 0 17 51 0 632 865 336 29 47 364 0 361 +17 170 0 632 336 865 147 151
 341 0 861 -17 865 0 632 170 51 148 361 317 0 344 -17 361 0 535 49 344 29 865 31
7 0 0 +17 344 0 535 361 348 148 864 241 0 0 +15 535 1585 0 344 534 0 17 348 0 53
5 344 352 164 866 345 0 0 +17 352 0 535 348 356 160 867 349 0 0 +17 356 0 535 35
2 49 156 869 353 0 0 +17 49 0 535 356 361 153 41 50 0 0 +15 609 1998 0 283 572 8
70 17 283 0 609 283 283 0 871 280 0 0 +15 870 1321 0 386 572 0 17 386 0 870 386
 386 0 872 383 0 0 +17 872 0 592 872 872 0 386 383 0 0 -15 592 1259 0 872 511 50
8 17 871 0 255 871 871 0 283 280 0 0 -15 255 2224 0 871 254 0 83 3 604 .60392156
8627451 .647058823529412 .686274509803922 83 3 600 .603921568627451 .64705882352
9412 .686274509803922 83 3 578 .603921568627451 .647058823529412 .68627450980392
2 83 3 571 .603921568627451 .647058823529412 .686274509803922 17 94 0 533 537 52
8 91 102 471 0 391 +17 537 0 533 90 94 95 391 388 0 0 -82 3 507 9 11 1 81 1 310
 2297 30 242 0 0 309 262 873 81 1 309 2296 30 307 0 0 306 310 874 81 1 262 2298
 30 236 0 0 310 259 875 82 3 873 21 5 1 82 3 875 21 6 1 81 1 306 2295 30 304 0 0
 303 309 876 82 3 874 21 4 1 81 1 303 2294 30 301 0 0 300 306 877 82 3 876 21 3
 1 81 1 300 2293 30 284 0 0 240 303 878 82 3 877 21 2 1 81 1 240 2292 30 230 0 0
 222 300 879 82 3 878 21 1 1 81 1 222 2291 30 220 0 0 202 240 880 82 3 879 21 0
 1 81 1 202 2290 30 200 0 0 218 222 881 82 3 880 21 11 0 81 1 218 2289 30 216 0
 0 198 202 882 82 3 881 21 10 0 81 1 198 2288 30 196 0 0 214 218 883 82 3 882 21
 9 0 81 1 214 2287 30 212 0 0 195 198 884 82 3 883 21 8 0 81 1 195 2286 30 193 0
 0 32 214 885 82 3 884 21 7 0 81 1 32 2285 30 210 0 0 27 195 886 82 3 885 21 6 0
 82 3 886 21 5 0 82 3 264 21 7 1 81 1 190 2282 30 188 0 0 224 31 887 82 3 226 21
 1 0 81 1 31 2283 30 168 0 0 190 27 888 82 3 887 21 2 0 82 3 888 21 3 0 82 3 45
 19 4 0 82 3 33 21 4 0 19 18 215 0 1 0 10 6 S0 74 4 CI16 index_map_offset0 0 1 d
CCZ20 16 4 0 0 700 14 2 655 0 0 0 0 0 0 0 0 0 0 0 0 0 0 0 0 80 1 13 889 890 8017
 0 0 0 0 0 0 0 0 0 TTTTTTTTTTTTTF3 84 255 6 15 Part 179 13 890 SDL/TYSA_NAME1 0
 
