**ABCDEFGHIJKLMNOPQRSTUVWXYZabcdefghijklmnopqrstuvwxyz**************************
**PARASOLID !"#$%&'()*+,-./:;<=>?@[\]^_`{|}~0123456789**************************
**PART1;
MC=unknown;
MC_MODEL=unknown;
MC_ID=unknown;
OS=unknown;
OS_RELEASE=unknown;
FRU=Parasolid 28.1.228;
APPL=Onshape;
SITE=unknown;
USER=unknown;
FORMAT=text;
GUISE=transmit;
KEY=BTGapi::writeModels_.xmt;
FILE=BTGapi::writeModels_.xmt;
DATE=2016-04-23T17:59:02 (UTC);
**PART2;
SCH=SCH_2801228_28101;
USFLD_SIZE=0;
**PART3;
**END_OF_HEADER*****************************************************************
T51 : TRANSMIT FILE created by modeller version 280122823 SCH_2801228_28101_1300
6203 0 12 33 CCCCCCI4 mesh1006 0 I8 polyline1008 0 CCCCCCCDI5 owner1040 0 CCCCCC
I13 boundary_mesh1006 0 I17 boundary_polyline1008 0 CCCA16 index_map_offset0 0 1
 dA9 index_map82 0 A17 node_id_index_map82 0 A20 schema_embedding_map82 0 A5 chi
ld12 0 A14 lowest_node_id0 0 1 dZ1 1745 2 3 0 0 0 0 0 0 1e3 1e-8 0 4 5 1 0 1 1 6
 7 8 9 0 0 10 11 12 0 0 0 0 0 0 81 255 1 2 1727 13 1 14 0 0 0 15 70 11 CI9 list_
type0 0 1 uI10 notransmit0 0 1 lCCCDCCDI12 finger_index0 0 1 dI12 finger_block10
12 0 CZ3 0 4 T1 0 0 4 20 1 16 16 13 255 6 173 0 1 0 17 0 0 18 0 51 255 7 1244 0
 19 20 0 0 +-.0085 -.0035 .003 0 0 1 .004 1 0 0 31 255 8 1655 0 21 22 0 0 +-.002
5 0 .003 0 0 1 1 0 0 .00165 29 255 9 1177 0 12 23 0 -.0085 -.0075 .003 19 8 CCCC
CCCA5 owner12 0 Z10 69 0 1 18 0 24 V0 16 255 11 1190 25 ?26 0 27 22 0 0 1 18 255
 12 1173 28 29 0 30 9 ?1 81 1 28 1257 31 12 0 0 32 33 34 17 255 29 0 35 36 37 12
 38 39 0 40 +18 30 1162 41 42 12 43 23 ?1 81 1 41 1253 31 30 0 0 44 45 46 17 42
 0 47 48 49 30 50 51 0 52 +18 43 1145 53 54 30 55 56 ?1 29 23 1166 0 30 56 9 -.0
085 .0075 .003 29 56 1149 0 43 57 23 -.0085 -.0075 0 29 57 1144 0 55 58 56 -.008
5 .0075 0 18 55 1140 59 60 43 61 57 ?1 29 58 1127 0 61 62 57 -.0125 -.0035 .003
 18 61 1123 32 63 55 64 58 ?1 29 62 1122 0 64 65 58 -.0125 .0035 .003 18 64 1118
 44 66 61 67 62 ?1 29 65 1117 0 67 68 62 -.0125 -.0035 0 18 67 1113 33 69 64 70
 65 ?1 29 68 1112 0 70 71 65 -.0125 .0035 0 18 70 1108 45 72 67 73 68 ?1 29 71 5
96 0 73 74 68 .0125 -.0075 -.015 18 73 592 75 76 70 77 71 ?1 29 74 579 0 77 78 7
1 .0125 -.0025 -.02 18 77 575 79 80 73 81 74 ?1 29 78 574 0 81 82 74 .0125 .0025
 -.02 18 81 570 83 84 77 85 78 ?1 29 82 557 0 85 86 78 .0085 -.0075 -.015 18 85
 553 87 88 81 89 82 ?1 29 86 552 0 89 90 82 .0085 -.0025 -.02 18 89 548 91 92 85
 93 86 ?1 29 90 547 0 93 94 86 .0085 .0025 -.02 18 93 543 95 96 89 97 90 ?1 29 9
4 536 0 97 98 90 .0085 .0075 -.015 18 97 532 99 100 93 101 94 ?1 29 98 531 0 101
 102 94 .0125 .0075 -.015 18 101 527 103 104 97 105 98 ?1 29 102 257 0 105 106 9
8 .0085 -.0075 0 18 105 252 107 108 101 109 102 ?1 29 106 65 0 109 110 102 .0125
 -.0075 .003 18 109 63 111 112 105 113 106 ?1 29 110 60 0 113 114 106 .0125 .007
5 .003 18 113 58 115 116 109 117 110 ?1 29 114 412 0 117 0 110 .0085 .0075 0 18
 117 345 118 119 113 0 114 ?1 81 1 118 450 31 117 0 0 120 107 121 17 119 0 47 49
 122 117 123 124 0 125 +15 255 47 163 0 49 126 0 17 49 0 47 42 119 55 127 128 0
 50 +17 122 0 47 119 129 97 130 131 0 123 +17 123 0 132 96 125 97 119 124 0 0 -1
6 124 533 133 ?119 128 134 135 0 0 1 17 125 0 132 123 108 117 136 137 0 127 -15
 132 374 0 123 138 0 17 108 0 132 125 88 105 139 134 0 136 +17 136 0 140 141 127
 105 125 137 0 142 +16 137 330 143 ?136 144 145 146 0 0 1 17 127 0 140 136 60 11
7 49 128 0 0 -15 140 107 0 147 148 0 17 60 0 140 127 147 55 72 149 0 49 +16 128
 122 150 ?49 151 124 152 0 0 1 81 1 150 1272 31 128 0 0 153 154 155 16 151 1109
 156 ?157 158 128 159 0 0 1 30 255 152 148 0 128 160 159 0 +-.00178280607962806
 .0075 0 -1 0 0 30 160 27 0 161 162 152 0 +.0125 867361737988404e-33 .003 0 -1 0
 30 159 147 0 151 152 163 0 +-.0125 655790695149266e-49 0 183697019872103e-30 -1
 0 30 163 146 0 158 159 164 0 +0 -.0075 0 -1 0 0 16 158 112 154 ?141 165 151 163
 0 0 1 30 164 169 0 166 163 167 0 +.0125 -.0075 .003 0 0 -1 16 166 153 168 ?169
 131 170 164 0 0 1 30 167 170 0 170 164 171 0 +.0125 .0075 .003 0 0 -1 16 170 15
4 172 ?129 166 161 167 0 0 1 30 171 539 0 131 167 173 0 +-.00178280607962806 .00
75 -.015 -1 0 0 16 131 537 174 ?122 175 166 171 0 0 1 31 173 560 0 175 171 176 0
 +.0085 -.0025 -.015 -1 -4286263797015735e-31 0 4286263797015735e-31 -1 0 .005 1
6 175 558 177 ?88 178 131 173 0 0 1 31 176 566 0 178 173 179 0 +.0085 .0025 -.01
5 -1 -4286263797015735e-31 0 4286263797015735e-31 -1 0 .005 16 178 564 180 ?96 1
81 175 176 0 0 1 30 179 582 0 181 176 182 0 +.0085 -.0025 -.02 -1 0 0 16 181 580
 183 ?184 185 178 179 0 0 1 30 182 588 0 185 179 186 0 -0 .0025 -.02 -1 0 0 16 1
85 586 187 ?84 188 181 182 0 0 1 31 186 599 0 188 182 189 0 +.0125 -.0025 -.015
 1 0 0 0 0 -1 .005 16 188 597 190 ?80 191 185 186 0 0 1 31 189 605 0 191 186 192
 0 +.0125 .0025 -.015 1 0 0 0 0 -1 .005 16 191 603 193 ?104 194 188 189 0 0 1 30
 192 611 0 194 189 195 0 -.0125 -.0075 -.015 -1 0 0 16 194 609 196 ?76 197 191 1
92 0 0 1 31 195 978 0 198 192 199 0 +.0085 0 -.013 -1 -4286263797015735e-31 0 42
86263797015735e-31 -1 0 .0025 16 198 997 200 ?201 202 203 195 0 0 1 30 199 1130
 0 197 195 204 0 --.0125 -.0035 .003 0 0 -1 16 197 1128 205 ?63 206 194 199 0 0
 1 30 204 1136 0 206 199 207 0 +-.0125 .0035 .003 0 0 -1 16 206 1134 208 ?209 21
0 197 204 0 0 1 31 207 1152 0 210 204 211 0 --.0085 -.0035 0 0 0 1 1 0 0 .004 16
 210 1150 212 ?69 149 206 207 0 0 1 31 211 1158 0 149 207 213 0 --.0085 .0035 0
 0 0 1 1 0 0 .004 16 149 1156 214 ?60 51 210 211 0 0 1 30 213 1169 0 51 211 215
 0 --.0085 .0075 .003 0 0 -1 16 51 1167 216 ?42 39 149 213 0 0 1 31 215 1180 0 3
9 213 217 0 +-.0085 -.0035 .003 0 0 1 1 0 0 .004 16 39 1178 218 ?29 27 51 215 0
 0 1 31 217 1186 0 27 215 22 0 +-.0085 .0035 .003 0 0 1 1 0 0 .004 16 27 1184 21
9 ?66 11 39 217 0 0 1 30 22 1192 0 11 217 8 0 +-.0085 -.0075 0 0 0 -1 81 1 219 1
260 31 27 0 0 53 208 220 17 66 0 35 37 52 64 221 27 0 222 +15 35 5 0 52 223 0 17
 37 0 35 29 66 61 222 224 0 38 +17 52 0 35 66 225 30 48 165 0 221 +17 221 0 226
 50 227 30 66 27 0 0 -17 222 0 228 209 63 64 37 224 0 227 -15 228 161 0 222 229
 0 17 209 0 228 157 222 70 227 206 0 147 +17 63 0 228 222 157 61 230 197 0 37 +1
6 224 1119 231 ?37 232 165 233 0 0 1 17 227 0 226 221 72 64 209 206 0 0 -15 226
 1212 0 221 234 0 17 72 0 226 227 50 70 60 149 0 209 -17 50 0 226 72 221 55 42 5
1 0 0 -14 255 234 1211 235 ?19 236 226 6 20 +0 0 19 236 24 81 1 235 1741 237 234
 238 0 239 240 241 14 19 1232 240 ?242 234 243 6 7 +0 0 242 234 24 14 236 1018 2
39 ?234 244 245 6 246 -0 0 234 244 24 51 20 1223 0 234 247 7 0 +-.0085 .0035 .00
3 0 0 -1 .004 -1 0 0 13 24 70 0 0 0 0 0 0 10 17 14 17 160 248 ?249 0 250 6 251 +
0 0 249 0 24 81 1 248 1728 237 17 252 0 0 253 254 14 249 158 253 ?126 17 255 6 2
56 +0 0 126 17 24 15 250 159 0 40 17 0 50 255 251 166 0 17 256 257 0 +0 -.0075 .
003 0 -1 0 0 0 -1 50 256 165 0 249 258 251 0 +.0125 867361737988404e-33 .003 1 0
 0 0 0 -1 50 257 167 0 229 251 259 0 +-.0125 655790695149266e-49 .003 1 18369701
9872103e-30 0 -183697019872103e-30 1 0 14 229 162 260 ?223 126 228 6 257 -0 0 22
3 126 24 50 259 168 0 126 257 261 0 +-.00178280607962806 .0075 .003 0 -1 0 0 0 -
1 14 126 164 262 ?229 249 47 6 259 -0 0 229 249 24 51 261 642 0 263 259 247 0 +-
.00178280607962806 .0025 -.015 -1 0 0 .005 0 0 1 14 263 630 264 ?265 266 267 6 2
61 +0 0 265 266 24 51 247 663 0 265 261 20 0 +0 -.0025 -.015 1 0 0 .005 0 0 -1 1
4 265 651 268 ?269 263 270 6 247 +0 0 269 263 24 81 1 268 1737 237 265 271 0 264
 272 273 14 269 800 272 ?244 265 274 6 275 -0 0 244 265 24 15 270 652 0 276 265
 0 17 276 0 270 277 278 73 80 188 0 0 -17 277 0 270 92 276 85 76 194 0 0 -17 278
 0 270 276 92 77 184 181 0 0 -17 80 0 279 280 169 77 276 188 0 281 +15 279 157 0
 280 249 0 17 280 0 279 104 80 81 281 144 0 282 -17 169 0 279 80 283 73 112 166
 0 276 +17 281 0 284 184 84 77 280 144 0 278 +15 284 384 0 285 266 0 17 184 0 28
4 285 281 89 278 181 0 286 +17 84 0 284 281 285 81 287 185 0 280 +16 144 571 288
 ?281 289 137 290 0 0 1 81 1 288 689 31 144 0 0 190 291 292 16 289 544 291 ?286
 134 144 293 0 0 1 30 290 409 0 144 294 293 0 +.0125 867361737988404e-33 -.02 0
 -1 0 31 294 824 0 295 296 290 0 +.0125 0 -.013 1 0 0 0 1 0 .00455 30 293 407 0
 289 290 146 0 +.0085 1044805629816204e-33 -.02 4286263797015735e-31 -1 0 30 146
 403 0 137 293 297 0 +.0085 1044805629816204e-33 0 4286263797015735e-31 -1 0 30
 297 400 0 134 146 135 0 +.0085 -.0075 -.02 0 0 1 16 134 554 298 ?108 124 289 29
7 0 0 1 30 135 399 0 124 297 299 0 +.0085 .0075 -.02 0 0 1 30 299 15 0 165 135 2
33 0 +-.00178280607962806 .0075 .003 -1 0 0 16 165 14 300 ?52 224 158 299 0 0 1
 30 233 19 0 224 299 162 0 +-.0125 655790695149266e-49 .003 183697019872103e-30
 -1 0 30 162 23 0 232 233 160 0 +0 -.0075 .003 -1 0 0 16 232 22 153 ?40 161 224
 162 0 0 1 81 1 153 1271 31 232 0 0 300 150 301 17 40 0 250 26 112 12 36 232 0 3
02 +16 161 26 303 ?283 170 232 160 0 0 1 81 1 303 209 31 161 0 0 111 120 304 17
 283 0 279 169 116 109 225 161 0 0 +17 116 0 279 283 104 113 129 170 0 48 -17 22
5 0 35 52 36 113 283 161 0 0 -17 36 0 35 225 29 109 40 232 0 283 -17 104 0 279 1
16 280 101 282 191 0 129 +17 129 0 47 122 48 101 116 170 0 130 +17 48 0 47 129 4
2 113 52 165 0 225 -17 130 0 267 282 100 101 122 131 0 0 -15 267 631 0 282 263 0
 17 282 0 267 287 130 81 104 191 0 0 -17 100 0 267 130 287 97 96 178 0 122 -17 2
87 0 267 100 282 93 84 185 0 0 -17 96 0 132 286 123 93 100 178 0 285 +17 286 0 1
32 88 96 89 285 289 0 0 +17 285 0 284 84 184 93 286 289 0 287 -17 88 0 132 108 2
86 85 92 175 0 139 +17 92 0 270 278 277 89 88 175 0 184 -17 139 0 250 76 142 85
 108 134 0 277 -17 76 0 250 112 139 73 277 194 0 169 +17 142 0 250 139 26 105 14
1 158 0 0 -17 26 0 250 142 40 43 302 11 0 141 +17 141 0 140 69 136 43 142 158 0
 0 +17 69 0 140 147 141 67 54 210 0 157 +17 147 0 140 60 69 70 157 151 0 0 -17 5
4 0 243 302 230 43 69 210 0 26 -17 157 0 228 63 209 67 147 151 0 230 +17 230 0 2
43 54 38 67 63 197 0 0 -15 243 1233 0 38 19 0 17 38 0 243 230 302 61 29 39 0 0 -
17 302 0 243 38 54 12 26 11 0 0 -17 112 0 250 40 76 109 169 166 0 36 -80 255 1 3
1 305 306 9000 0 0 0 0 3 6 0 0 0 FFTFTFTTFFFFFF1 81 1 111 197 31 109 0 0 115 303
 307 81 1 120 449 31 1 0 14 303 118 308 82 255 3 304 6 11 1 81 1 14 1726 309 1 1
20 2 0 0 310 82 3 308 6 0 3 80 1 309 13 311 8038 0 0 0 0 0 0 0 0 0 TTTTTTTTTTTTT
F10 98 255 6 310 80 97 114 116 32 49 79 255 14 311 SDL/TYSA_UNAME81 1 115 195 31
 113 0 0 0 111 312 82 3 307 6 7 0 82 3 312 6 5 0 79 9 306 BTI/DetId81 1 300 1270
 31 165 0 0 231 153 313 82 3 301 16 11 1 81 1 231 1269 31 224 0 0 156 300 314 82
 3 313 16 10 1 81 1 156 1268 31 151 0 0 25 231 315 82 3 314 16 9 1 81 1 25 1267
 31 11 0 0 212 156 316 82 3 315 16 8 1 81 1 212 1266 31 210 0 0 205 25 317 82 3
 316 16 7 1 81 1 205 1265 31 197 0 0 218 212 318 82 3 317 16 6 1 81 1 218 1264 3
1 39 0 0 216 205 319 82 3 318 16 5 1 81 1 216 1263 31 51 0 0 214 218 320 82 3 31
9 16 4 1 81 1 214 1262 31 149 0 0 208 216 321 82 3 320 16 3 1 81 1 208 1261 31 2
06 0 0 219 214 322 82 3 321 16 2 1 82 3 322 16 1 1 81 1 298 680 31 134 0 0 133 1
87 323 81 1 133 679 31 124 0 0 75 298 324 81 1 187 681 31 185 0 0 298 180 325 82
 3 323 11 1 1 81 1 180 682 31 178 0 0 187 174 326 82 3 325 11 2 1 81 1 174 683 3
1 131 0 0 180 193 327 82 3 326 11 3 1 81 1 193 684 31 191 0 0 174 183 328 82 3 3
27 11 4 1 81 1 183 685 31 181 0 0 193 177 329 82 3 328 11 5 1 81 1 177 686 31 17
5 0 0 183 196 330 82 3 329 11 6 1 81 1 196 687 31 194 0 0 177 190 331 82 3 330 1
1 7 1 81 1 190 688 31 188 0 0 196 288 332 82 3 331 11 8 1 82 3 332 11 9 1 81 1 7
5 678 31 73 0 0 87 133 333 82 3 324 11 0 1 81 1 87 677 31 85 0 0 79 75 334 82 3
 333 11 7 0 81 1 79 676 31 77 0 0 91 87 335 82 3 334 11 6 0 81 1 91 675 31 89 0
 0 103 79 336 82 3 335 11 5 0 81 1 103 674 31 101 0 0 99 91 337 82 3 336 11 4 0
 81 1 99 673 31 97 0 0 83 103 338 82 3 337 11 3 0 81 1 83 672 31 81 0 0 95 99 33
9 82 3 338 11 2 0 81 1 95 671 31 93 0 0 143 83 340 82 3 339 11 1 0 81 1 143 456
 31 137 0 0 107 95 341 82 3 340 11 0 0 81 1 107 451 31 105 0 0 118 143 342 82 3
 341 8 4 1 82 3 342 8 1 0 16 295 788 343 ?344 145 202 294 0 0 1 31 296 826 0 145
 345 294 0 +.0105 0 -.013 1 0 0 0 1 0 .00455 16 145 780 346 ?347 137 295 296 0 0
 1 31 345 827 0 202 348 296 0 +.0105 0 -.013 1 0 0 0 1 0 .0025 16 202 990 349 ?3
50 295 198 345 0 0 1 31 348 1469 0 351 352 345 0 +-.0025 0 0 0 0 -1 1 0 0 .00275
 16 351 1433 353 ?354 203 355 348 0 0 1 31 352 1471 0 203 356 348 0 +-.0025 0 .0
015 0 0 -1 1 0 0 .00275 16 203 1425 357 ?358 198 351 352 0 0 1 31 356 1472 0 355
 0 352 0 +-.0025 0 .0015 0 0 -1 1 0 0 .00165 16 355 1667 359 ?360 351 21 356 0 0
 1 81 1 359 1723 31 355 0 0 361 362 363 17 360 0 364 360 360 0 365 355 0 0 +16 2
1 1674 361 ?366 355 0 8 0 0 1 81 1 361 1722 31 21 0 0 367 359 368 17 366 0 369 3
66 366 0 370 21 0 0 +15 369 1700 0 366 371 0 17 370 0 372 370 370 0 366 21 0 0 -
15 372 1654 0 370 223 35 14 223 1 373 ?148 229 372 6 374 +0 0 148 229 24 81 1 37
3 1732 237 223 375 0 260 376 377 14 148 97 376 ?138 223 378 6 258 -0 0 138 223 2
4 50 374 2 0 223 379 258 0 +0 0 .003 0 0 1 1 0 0 50 379 394 0 138 380 374 0 +.00
85 1044805629816204e-33 -.02 -1 -4286263797015735e-31 0 4286263797015735e-31 -1
 0 50 258 144 0 148 374 256 0 +0 0 0 0 0 1 1 0 0 14 138 370 381 ?266 148 382 6 3
79 +0 0 266 148 24 50 380 397 0 266 275 379 0 +0 0 -.02 0 0 1 1 0 0 14 266 380 3
83 ?263 138 284 6 380 -0 0 263 138 24 51 275 821 0 269 384 380 0 +.0105 0 -.013
 1 0 0 .00455 0 0 -1 50 384 823 0 244 246 275 0 +.0105 0 -.0085 1 0 0 0 1 0 14 2
44 806 385 ?236 269 386 6 384 +0 0 236 269 24 51 246 1036 0 236 387 384 0 +-.012
5 0 -.013 1 0 0 .0025 0 0 -1 51 387 1466 0 242 388 246 0 +-.0025 0 .0015 0 0 -1
 .00275 -1 0 0 14 242 1445 389 ?390 19 391 6 387 -0 0 390 19 24 50 388 1468 0 39
0 392 387 0 +-.002 0 .0015 0 0 -1 1 0 0 14 390 1451 393 ?371 242 394 6 388 +0 0
 371 242 24 51 392 1713 0 371 0 388 0 +-.0025 0 .0371448892552543 0 0 -1 .00165
 -1 0 0 14 371 1695 395 ?0 390 364 6 392 -0 0 0 390 24 81 1 395 1745 237 371 362
 0 393 0 396 15 364 1699 0 360 371 369 80 1 237 0 397 8001 0 0 0 0 3 5 0 0 0 FFF
FTFTFFFFFFF2 81 1 362 1724 31 371 0 395 359 375 398 81 1 393 1744 237 390 399 0
 389 395 400 83 255 3 396 .603921568627451 .647058823529412 .686274509803922 81
 1 399 1484 31 390 0 393 357 401 402 81 1 389 1743 237 242 401 0 240 393 403 83
 3 400 .603921568627451 .647058823529412 .686274509803922 81 1 401 1485 31 242 0
 389 399 367 404 81 1 240 1742 237 19 405 0 235 389 406 83 3 403 .60392156862745
1 .647058823529412 .686274509803922 81 1 405 1275 31 19 0 240 238 407 408 83 3 4
06 .603921568627451 .647058823529412 .686274509803922 81 1 238 1274 31 234 0 235
 154 405 409 81 1 407 1277 31 229 0 260 405 410 411 82 3 408 16 1 2 81 1 260 173
1 237 229 407 0 262 373 412 81 1 410 1279 31 126 0 262 407 252 413 82 3 411 16 3
 2 81 1 262 1730 237 126 410 0 253 260 414 81 1 252 1280 31 17 0 248 410 353 415
 82 3 413 16 5 2 81 1 353 1481 31 351 0 0 252 357 416 82 3 415 16 6 2 81 1 357 1
482 31 203 0 0 353 399 417 82 3 416 20 2 1 82 3 417 20 3 1 81 1 253 1729 237 249
 418 0 248 262 419 83 3 414 .603921568627451 .647058823529412 .686274509803922 8
1 1 418 841 31 249 0 253 420 200 421 83 3 419 .603921568627451 .647058823529412
 .686274509803922 81 1 420 839 31 244 0 385 422 418 423 81 1 200 1045 31 198 0 0
 418 349 424 82 3 421 13 3 2 81 1 349 1046 31 202 0 0 200 425 426 82 3 424 15 0
 1 81 1 425 1047 31 236 0 239 349 427 428 82 3 426 15 1 1 81 1 239 1740 237 236
 425 0 385 235 429 81 1 427 1048 31 138 0 381 425 44 430 82 3 428 15 0 2 81 1 38
1 1734 237 138 427 0 376 383 431 81 1 44 1252 31 64 0 0 427 41 432 82 3 430 15 1
 2 82 3 432 16 0 0 81 1 376 1733 237 148 367 0 373 381 433 81 1 383 1735 237 266
 434 0 381 264 435 83 3 431 .603921568627451 .647058823529412 .686274509803922 8
1 1 434 695 31 266 0 383 271 343 436 81 1 264 1736 237 263 437 0 383 268 438 83
 3 435 .603921568627451 .647058823529412 .686274509803922 81 1 437 693 31 263 0
 264 168 271 439 83 3 438 .603921568627451 .647058823529412 .686274509803922 81
 1 168 692 31 166 0 0 172 437 440 81 1 271 694 31 265 0 268 437 434 441 82 3 439
 11 0 2 82 3 441 11 1 2 81 1 172 691 31 170 0 0 291 168 442 82 3 440 11 13 1 81
 1 291 690 31 289 0 0 288 172 443 82 3 442 11 12 1 82 3 443 11 11 1 81 1 343 834
 31 295 0 0 434 346 444 82 3 436 11 2 2 81 1 346 835 31 145 0 0 343 422 445 82 3
 444 13 0 1 81 1 422 838 31 269 0 272 346 420 446 82 3 445 13 1 1 81 1 272 1738
 237 269 422 0 268 385 447 82 3 446 13 0 2 81 1 385 1739 237 244 420 0 272 239 4
48 83 3 447 .603921568627451 .647058823529412 .686274509803922 83 3 448 .6039215
68627451 .647058823529412 .686274509803922 81 1 367 1486 31 148 0 376 401 361 44
9 83 3 433 .603921568627451 .647058823529412 .686274509803922 82 3 449 20 3 2 83
 3 429 .603921568627451 .647058823529412 .686274509803922 82 3 423 13 1 2 83 3 4
12 .603921568627451 .647058823529412 .686274509803922 81 1 154 1273 31 158 0 0 1
50 238 450 82 3 409 16 0 2 82 3 450 16 13 1 82 3 404 20 2 2 82 3 402 20 1 2 81 1
 375 1725 31 223 0 373 362 0 451 82 3 398 22 0 2 82 3 451 22 1 2 79 15 397 SDL/T
YSA_COLOUR15 394 1455 0 365 390 452 17 365 0 394 365 365 0 360 355 0 0 -15 452 1
456 0 358 390 0 17 358 0 452 358 358 0 453 203 0 0 +17 453 0 391 453 453 0 358 2
03 0 0 -15 391 1449 0 453 242 454 15 454 1450 0 354 242 0 17 354 0 454 354 354 0
 455 351 0 0 +17 455 0 378 455 455 0 354 351 0 0 -15 378 1402 0 455 148 140 15 3
86 810 0 456 244 457 17 456 0 386 456 456 0 350 202 0 0 -15 457 811 0 347 244 0
 17 347 0 457 347 347 0 458 145 0 0 +17 458 0 274 458 458 0 347 145 0 0 -15 274
 804 0 458 269 459 15 459 805 0 344 269 0 17 344 0 459 344 344 0 460 295 0 0 +17
 460 0 255 460 460 0 344 295 0 0 -15 255 757 0 460 249 279 17 350 0 245 350 350
 0 456 202 0 0 +15 245 1022 0 350 236 461 15 461 1023 0 201 236 0 17 201 0 461 2
01 201 0 462 198 0 0 +17 462 0 382 462 462 0 201 198 0 0 -15 382 977 0 462 138 1
32 83 3 377 .603921568627451 .647058823529412 .686274509803922 82 3 368 22 0 1 8
2 3 363 22 1 1 82 3 292 11 10 1 83 3 273 .603921568627451 .647058823529412 .6862
74509803922 83 3 254 .603921568627451 .647058823529412 .686274509803922 83 3 241
 .603921568627451 .647058823529412 .686274509803922 81 1 53 1259 31 43 0 0 33 21
9 463 82 3 220 16 0 1 81 1 33 1258 31 67 0 0 28 53 464 82 3 463 16 7 0 82 3 464
 16 6 0 82 3 155 16 12 1 82 3 121 8 0 0 81 1 45 1254 31 70 0 0 41 59 465 81 1 59
 1255 31 55 0 0 45 32 466 82 3 465 16 2 0 81 1 32 1256 31 61 0 0 59 28 467 82 3
 466 16 3 0 82 3 467 16 4 0 82 3 46 16 1 0 82 3 34 16 5 0 19 18 174 0 1 0 10 6 S
0 74 4 CI16 index_map_offset0 0 1 dCCZ20 16 4 0 0 375 14 2 395 0 0 0 0 0 0 0 0 0
 0 0 0 0 0 0 0 80 1 13 468 469 8017 0 0 0 0 0 0 0 0 0 TTTTTTTTTTTTTF3 84 255 6 1
5 Part 179 13 469 SDL/TYSA_NAME1 0 
